<svg width="219" height="165" viewBox="0 0 219 165" fill="none" xmlns="http://www.w3.org/2000/svg">
<g clip-path="url(#clip0_85_2140)">
<path fill-rule="evenodd" clip-rule="evenodd" d="M110.874 106.309C138.543 101.749 147.717 87.2618 147.717 87.2618C147.717 87.2618 105.622 79.8453 82.6664 82.262C59.7113 84.6787 48.6398 87.2618 48.6398 87.2618L35.5578 101.209C56.1029 110.017 83.2057 110.869 110.874 106.309Z" fill="#D7F0F7"/>
<path fill-rule="evenodd" clip-rule="evenodd" d="M146.073 131.301C146.073 131.301 143.403 134.237 140.633 135.629C137.871 137.027 136.04 138.085 136.692 139.743C137.338 141.401 142.418 140.948 146.073 139.743C149.728 138.538 152.417 136.641 152.657 136.088C152.897 135.535 152.517 131.468 152.084 130.436C151.652 129.404 146.073 131.301 146.073 131.301Z" fill="white" stroke="black" stroke-width="0.5" stroke-linecap="round" stroke-linejoin="round"/>
<path fill-rule="evenodd" clip-rule="evenodd" d="M172.09 121.248C172.09 121.248 172.929 125.842 172.783 128.751C172.643 131.661 172.017 134.117 174.087 134.836C176.151 135.555 179.107 132.506 180.359 127.047C181.61 121.588 180.965 117.161 180.938 116.894C180.911 116.635 177.643 115.476 177.376 115.43C177.117 115.383 172.09 121.248 172.09 121.248Z" fill="white" stroke="black" stroke-width="0.5" stroke-linecap="round" stroke-linejoin="round"/>
<path fill-rule="evenodd" clip-rule="evenodd" d="M137.078 61.7834C137.078 61.7834 134.722 65.2454 137.218 83.9064C139.721 102.567 144.748 131.641 144.941 131.834C146.046 132.939 151.492 131.554 152.95 130.675C151.751 113.845 151.225 97.2747 150.353 80.4644L151.026 80.3712C151.026 80.3712 153.09 94.392 155.739 102.088C158.382 109.777 171.178 121.854 171.797 122.234C172.423 122.62 174.54 121.275 176.564 119.398C178.581 117.52 178.315 115.237 178.315 115.237C178.315 115.237 166.485 100.33 166.198 97.6874C165.912 95.0377 164.421 69.0202 163.841 65.5583C163.262 62.0964 163.122 61.8034 163.122 61.8034L137.078 61.7834Z" fill="black" stroke="black" stroke-width="0.2" stroke-linecap="round" stroke-linejoin="round"/>
<path fill-rule="evenodd" clip-rule="evenodd" d="M132.485 40.5925L131.712 48.049L125.681 68.2146L129.615 70.9442C129.615 70.9442 138.543 52.5228 139.455 48.5283C140.367 44.5404 140.607 41.458 140.607 41.458L132.485 40.5925Z" fill="white" stroke="black" stroke-width="0.5" stroke-linecap="round" stroke-linejoin="round"/>
<path fill-rule="evenodd" clip-rule="evenodd" d="M137.877 28.3161C137.877 28.3161 144.441 23.6891 152.783 25.1871C163.608 27.1311 166.485 31.758 165.726 42.1637L161.778 42.6431C161.778 42.6431 161.152 47.5497 162.017 53.0355C162.483 55.9781 163.103 58.6877 163.575 60.5651C163.582 60.6783 163.615 60.8114 163.682 60.9779C163.755 61.2775 163.828 61.5504 163.895 61.7968C164.021 62.9285 163.289 63.5876 162.663 63.9338C160.306 64.9191 155.566 66.5169 149.754 66.4504C143.975 66.3838 139.455 65.1521 137.211 64.3932C135.514 63.6875 136.226 62.2828 136.659 61.0578C137.165 59.5332 138.35 56.4042 138.523 54.9795C138.743 53.2285 138.743 51.6374 138.743 51.6374C138.743 51.6374 135.953 49.7666 135.54 47.5497C135.134 45.3394 135.9 42.2636 135.9 42.2636L131.093 41.2517C131.093 41.2517 131.806 31.9777 137.877 28.3161Z" fill="#D7F0F7"/>
<path fill-rule="evenodd" clip-rule="evenodd" d="M155.173 43.382L161.778 42.6431L164.561 42.3035C164.561 42.3035 164.261 50.5722 159.168 57.7357C154.068 64.8991 148.636 68.6074 148.636 68.6074C148.636 68.6074 148.702 70.578 148.609 71.1306C148.516 71.6831 148.296 72.502 148.296 72.502C148.296 72.502 149.308 72.3822 149.068 73.514C148.829 74.6391 147.504 75.8907 146.492 76.4233C145.48 76.9492 144.788 76.1171 144.788 76.1171C144.788 76.1171 144.009 76.0505 143.596 75.8641C143.19 75.6843 142.997 75.3714 142.997 75.3714C142.997 75.3714 141.952 75.3115 141.446 74.7856C140.94 74.253 140.534 72.1425 140.534 72.1425C140.534 72.1425 136.539 75.5512 135.58 75.5978C134.615 75.6444 134.855 75.0319 135.587 74.0799C136.319 73.1345 139.475 70.3383 140.387 69.353C141.299 68.3677 146.159 62.0164 146.159 62.0164L154.647 49.5602L155.173 43.382Z" fill="white"/>
<path fill-rule="evenodd" clip-rule="evenodd" d="M136.546 6.333C132.458 8.92943 132.505 11.2862 133.13 14.9412C133.783 18.7293 137.205 26.1657 141.985 25.7397C138.556 34.4876 147.83 35.18 149.748 28.649C150.227 27.0112 150.327 24.9474 150.327 24.9474L148.569 17.9703C148.569 17.9703 150.899 16.7853 150.853 14.4485C150.806 12.1184 148.882 12.2582 148.882 12.2582C149.148 5.50747 141.319 3.30383 136.546 6.333Z" fill="white"/>
<path d="M141.624 17.0098C141.945 16.9707 142.169 16.6327 142.123 16.2551C142.077 15.8774 141.779 15.603 141.457 15.6421C141.136 15.6813 140.913 16.0192 140.959 16.3969C141.005 16.7746 141.303 17.049 141.624 17.0098Z" fill="black"/>
<path d="M135.77 17.9249C136.091 17.8857 136.314 17.5478 136.268 17.1701C136.222 16.7924 135.924 16.518 135.603 16.5572C135.282 16.5964 135.058 16.9343 135.104 17.312C135.15 17.6897 135.448 17.9641 135.77 17.9249Z" fill="black"/>
<path d="M138.104 16.4457C138.104 16.4457 138.217 18.0835 138.217 18.8291C138.217 19.5748 138.13 19.9543 138.13 19.9543L139.681 20.1007" stroke="black" stroke-width="0.5" stroke-linecap="round" stroke-linejoin="round"/>
<path fill-rule="evenodd" clip-rule="evenodd" d="M140.327 21.4456L142.544 20.367C142.544 20.367 142.877 21.9182 141.798 22.3044C140.713 22.6839 140.327 21.4456 140.327 21.4456Z" stroke="black" stroke-width="0.5" stroke-linecap="round" stroke-linejoin="round"/>
<path d="M140.387 13.8959C140.387 13.8959 140.98 13.7628 141.652 13.7628C142.324 13.7628 142.504 13.8027 142.504 13.8027" stroke="black" stroke-width="0.5" stroke-linecap="round" stroke-linejoin="round"/>
<path d="M136.026 14.6016C136.026 14.6016 135.554 14.6349 134.955 14.8413C134.355 15.0477 134.076 15.274 134.076 15.274" stroke="black" stroke-width="0.5" stroke-linecap="round" stroke-linejoin="round"/>
<path d="M148.536 16.6189C148.536 16.6189 148.296 15.6935 148.449 14.7548C148.609 13.816 149.368 13.3367 149.368 13.3367" stroke="black" stroke-width="0.5" stroke-linecap="round" stroke-linejoin="round"/>
<path d="M149.508 15.0809L148.449 14.7547" stroke="black" stroke-width="0.5" stroke-linecap="round" stroke-linejoin="round"/>
<path d="M139.801 21.6852L140.327 21.4456" stroke="black" stroke-width="0.5" stroke-linecap="round" stroke-linejoin="round"/>
<path d="M145.899 22.2711C145.36 24.0686 144.235 24.8542 142.697 25.4734" stroke="black" stroke-width="0.5" stroke-linecap="round" stroke-linejoin="round"/>
<path d="M142.584 27.6237L142.131 26.2123" stroke="black" stroke-width="0.5" stroke-linecap="round" stroke-linejoin="round"/>
<path d="M137.191 37.3437L136.239 41.3915" stroke="black" stroke-width="0.5" stroke-linecap="round" stroke-linejoin="round"/>
<path d="M147.424 38.4289C147.817 38.4289 148.136 38.0891 148.136 37.6699C148.136 37.2507 147.817 36.9109 147.424 36.9109C147.031 36.9109 146.712 37.2507 146.712 37.6699C146.712 38.0891 147.031 38.4289 147.424 38.4289Z" fill="black"/>
<path d="M142.251 73.0546C142.251 73.0546 142.404 74.1465 142.551 74.5193C142.691 74.8921 142.997 75.3714 142.997 75.3714" stroke="black" stroke-width="0.5" stroke-linecap="round" stroke-linejoin="round"/>
<path d="M144.175 73.5606C144.175 73.5606 144.342 74.6524 144.461 75.0519C144.581 75.4447 144.788 76.1171 144.788 76.1171" stroke="black" stroke-width="0.5" stroke-linecap="round" stroke-linejoin="round"/>
<path d="M146.179 75.2317C146.179 75.2317 146.998 74.6058 147.504 73.8868C148.01 73.1612 148.296 72.5021 148.296 72.5021" stroke="black" stroke-width="0.5" stroke-linecap="round" stroke-linejoin="round"/>
<path d="M140.307 27.0046C137.97 38.4888 153.722 35.4663 152.55 25.1471" stroke="#6CA3B7" stroke-width="0.5" stroke-linecap="round" stroke-linejoin="round"/>
<path d="M144.342 41.7443C144.528 39.3143 144.475 39.0347 144.681 34.3478" stroke="#6CA3B7" stroke-width="0.5" stroke-linecap="round" stroke-linejoin="round"/>
<path d="M164.561 42.3035C164.561 42.3035 164.261 50.5722 159.168 57.7357C154.068 64.8991 148.636 68.6074 148.636 68.6074C148.636 68.6074 148.702 70.578 148.609 71.1306C148.516 71.6831 148.296 72.502 148.296 72.502C148.296 72.502 149.308 72.3822 149.068 73.514C148.829 74.6391 147.504 75.8907 146.492 76.4233C145.48 76.9492 144.788 76.1171 144.788 76.1171C144.788 76.1171 144.009 76.0505 143.596 75.8641C143.19 75.6843 142.997 75.3714 142.997 75.3714C142.997 75.3714 141.952 75.3115 141.446 74.7856C140.94 74.2529 140.534 72.1425 140.534 72.1425C140.534 72.1425 136.539 75.5512 135.58 75.5978C134.615 75.6444 134.855 75.0319 135.587 74.0799C136.319 73.1345 139.475 70.3383 140.387 69.353C141.299 68.3677 146.159 62.0164 146.159 62.0164L154.647 49.5602L155.173 43.382" stroke="black" stroke-width="0.5" stroke-linecap="round" stroke-linejoin="round"/>
<path d="M156.512 50.0063L154.647 49.5602" stroke="black" stroke-width="0.5" stroke-linecap="round" stroke-linejoin="round"/>
<path d="M133.21 48.3153L131.712 48.049" stroke="black" stroke-width="0.5" stroke-linecap="round" stroke-linejoin="round"/>
<path d="M154.421 38.1226L154.168 43.3022L159.967 42.8495" stroke="black" stroke-width="0.5" stroke-linecap="round" stroke-linejoin="round"/>
<path fill-rule="evenodd" clip-rule="evenodd" d="M135.474 3.98288C130.328 8.17046 129.509 17.8838 131.146 25.48C131.759 28.3361 132.851 30.4798 134.275 31.8512C135.194 30.4798 136.366 29.2215 137.877 28.3161C137.877 28.3161 139.329 27.3241 141.739 26.4121C141.812 26.1924 141.892 25.966 141.985 25.7396C137.205 26.1657 133.783 18.7293 133.13 14.9412C133.004 14.1755 132.897 13.4632 132.851 12.7974L132.857 12.904C134.236 12.4845 137.864 11.3195 139.522 10.181C141.585 8.76298 142.744 7.53799 142.744 7.53799C142.744 7.53799 142.644 9.82152 143.656 11.5724C144.668 13.33 145.287 12.2515 145.287 12.2515C145.287 12.2515 146.419 15.1609 146.951 15.4738C147.451 15.7667 147.344 13.6496 147.83 12.8973C148.05 12.5844 148.376 12.3314 148.882 12.2582C148.882 12.2582 150.806 12.1184 150.853 14.4485C150.899 16.7853 148.569 17.9703 148.569 17.9703L148.176 18.2832C148.176 18.2832 146.878 24.6079 146.878 28.9353C146.878 33.2693 146.013 38.8416 149.714 39.8536C151.086 40.2331 152.071 39.9934 152.763 39.554C154.095 39.6339 155.3 39.341 156.012 38.9016C157.404 38.0361 158.462 36.7845 158.462 36.7845C158.462 36.7845 155.773 35.2932 155.819 27.5971C155.866 19.901 155.074 9.75495 152.45 6.33964C149.834 2.92434 146.971 3.0242 146.971 3.0242C143.396 0.534287 138.796 1.28659 135.474 3.98288Z" fill="#50AA75"/>
<path d="M143.296 6.33297C143.296 6.33297 143.922 5.27443 144.688 4.45555C145.46 3.63668 146.272 3.3038 146.272 3.3038" stroke="white" stroke-width="0.5" stroke-linecap="round" stroke-linejoin="round"/>
<path d="M140.167 6.47946C140.167 6.47946 136.945 8.16381 135.887 9.07589C134.828 9.98797 134.495 10.3475 134.495 10.3475" stroke="white" stroke-width="0.5" stroke-linecap="round" stroke-linejoin="round"/>
<path d="M141.466 4.62866C141.466 4.62866 139.901 4.50882 138.896 4.91493C137.884 5.32104 136.699 6.23978 136.699 6.23978" stroke="white" stroke-width="0.5" stroke-linecap="round" stroke-linejoin="round"/>
<path d="M140.454 2.96429C140.454 2.96429 141.419 2.84445 142.185 2.99092C142.957 3.13738 143.416 3.23059 143.416 3.23059" stroke="white" stroke-width="0.5" stroke-linecap="round" stroke-linejoin="round"/>
<path d="M146.658 7.2251C146.658 7.2251 147.331 8.52331 147.524 8.90945C147.717 9.28893 148.03 9.70169 148.03 9.70169" stroke="white" stroke-width="0.5" stroke-linecap="round" stroke-linejoin="round"/>
<path d="M148.822 7.12521C148.822 7.12521 150.313 9.28891 150.673 10.181C151.039 11.0731 151.472 11.7455 151.472 11.7455" stroke="white" stroke-width="0.5" stroke-linecap="round" stroke-linejoin="round"/>
<path d="M149.807 25.52C149.807 25.52 149.754 29.5145 149.614 31.099C149.481 32.6901 149.668 33.2693 149.668 33.2693" stroke="white" stroke-width="0.5" stroke-linecap="round" stroke-linejoin="round"/>
<path d="M151.538 22.5906L151.492 28.1696" stroke="white" stroke-width="0.5" stroke-linecap="round" stroke-linejoin="round"/>
<path d="M153.456 25.3136C153.456 25.3136 153.223 27.1577 153.416 28.1696C153.609 29.1749 153.709 29.6609 153.709 29.6609" stroke="white" stroke-width="0.5" stroke-linecap="round" stroke-linejoin="round"/>
<path d="M149.315 5.80704C149.315 5.80704 149.927 6.09331 150.36 6.73243C150.793 7.3649 150.926 7.73772 150.926 7.73772" stroke="white" stroke-width="0.5" stroke-linecap="round" stroke-linejoin="round"/>
<path d="M134.302 27.0645C133.69 26.0792 133.33 24.6411 133.25 23.4694" stroke="white" stroke-width="0.5" stroke-linecap="round" stroke-linejoin="round"/>
<path d="M135.694 25.1871L135.48 24.3948" stroke="white" stroke-width="0.5" stroke-linecap="round" stroke-linejoin="round"/>
<path d="M161.065 67.2692C161.065 67.2692 160.413 68.4942 159.907 69.0468C159.401 69.5994 159.088 69.8657 159.088 69.8657" stroke="white" stroke-width="0.5" stroke-linecap="round" stroke-linejoin="round"/>
<path d="M161.278 69.646L160.127 71.1173" stroke="white" stroke-width="0.5" stroke-linecap="round" stroke-linejoin="round"/>
<path fill-rule="evenodd" clip-rule="evenodd" d="M107.293 139.037C107.293 139.037 107.026 142.646 107.799 145.915C108.564 149.183 111.813 155.148 114.023 155.168C116.24 155.195 118.524 154.449 118.524 152.312C118.524 150.169 116.114 139.996 116.114 139.996L107.293 139.037Z" fill="white" stroke="black" stroke-width="0.5" stroke-linecap="round" stroke-linejoin="round"/>
<path fill-rule="evenodd" clip-rule="evenodd" d="M122.512 134.95C122.512 134.95 122.492 139.443 122.851 139.996C123.211 140.549 128.43 150.888 131.865 150.142C135.307 149.396 135.208 147.113 134.515 144.616C133.816 142.113 130.76 135.016 130.76 135.016L122.512 134.95Z" fill="white" stroke="black" stroke-width="0.5" stroke-linecap="round" stroke-linejoin="round"/>
<path fill-rule="evenodd" clip-rule="evenodd" d="M87.7394 81.9757C87.7394 81.9757 86.1549 94.332 91.0083 98.6128C95.8682 102.894 106.98 107.035 106.98 107.035C106.98 107.035 106.474 138.458 106.787 139.257C107.099 140.049 108.904 141.853 112.219 142.12C115.541 142.379 116.62 140.096 116.62 140.096L122.272 108.066C122.272 108.066 122.006 134.856 122.225 135.429C122.438 136.008 124.389 138.052 127.325 138.005C130.254 137.952 131.626 135.722 131.626 135.722C131.626 135.722 137.278 105.896 136.845 100.803C136.413 95.7035 134.395 91.7622 127.951 88.1073C121.506 84.4456 116.553 80.4578 116.553 80.4578L87.7394 81.9757Z" fill="black" stroke="black" stroke-width="0.5" stroke-linecap="round" stroke-linejoin="round"/>
<path fill-rule="evenodd" clip-rule="evenodd" d="M96.5473 93.4L110.275 100.95L133.989 94.9379L140.261 82.2354L142.045 78.4139L140.88 77.3754L138.956 77.7881C134.275 78.7402 118.484 82.1555 118.484 82.1555L117.499 82.4018C117.112 83.3738 116.64 84.2459 116.147 85.0914L114.629 88.4801L114.296 88.5667L96.5473 93.4Z" fill="#50AA75"/>
<path d="M110.728 99.9776L118.597 83.3006L141.099 78.587" stroke="white" stroke-width="0.5" stroke-linecap="round" stroke-linejoin="round"/>
<path fill-rule="evenodd" clip-rule="evenodd" d="M101.98 90.9767C102.672 91.6358 104.31 93.2402 105.082 94.159C106.068 95.3373 106.38 95.9232 107.046 95.9632C107.705 95.9964 107.832 95.8367 107.965 95.7501C107.965 95.7501 108.404 96.2161 108.984 96.1363C109.556 96.0564 109.709 95.7634 109.709 95.7634C109.709 95.7634 110.075 95.8633 110.422 95.7368C110.774 95.6103 110.788 95.324 110.788 95.324C110.788 95.324 111.467 95.1576 111.667 94.4452C111.873 93.7395 111.613 92.7276 111.613 92.7276C111.613 92.7276 112.246 91.8488 111.753 90.6837C111.307 89.6252 109.47 86.8157 107.752 85.5242L101.98 90.9767Z" fill="white"/>
<path d="M105.222 91.9686C105.874 92.7209 107.659 94.8846 107.965 95.7501" stroke="black" stroke-width="0.5" stroke-linecap="round" stroke-linejoin="round"/>
<path d="M106.846 91.1897C106.846 91.1897 107.492 91.8155 108.404 93.1204C109.323 94.4319 109.476 95.2308 109.676 95.81" stroke="black" stroke-width="0.5" stroke-linecap="round" stroke-linejoin="round"/>
<path d="M108.324 90.2643C109.456 91.4626 110.521 93.6929 110.788 95.324" stroke="black" stroke-width="0.5" stroke-linecap="round" stroke-linejoin="round"/>
<path d="M109.516 89.3922C110.275 90.2044 111.147 91.7156 111.613 92.7276" stroke="black" stroke-width="0.5" stroke-linecap="round" stroke-linejoin="round"/>
<path d="M101.98 90.9767C102.672 91.6358 104.31 93.2402 105.082 94.159C106.068 95.3373 106.38 95.9232 107.046 95.9632C107.705 95.9964 107.832 95.8367 107.965 95.7501C107.965 95.7501 108.404 96.2161 108.984 96.1363C109.556 96.0564 109.709 95.7634 109.709 95.7634C109.709 95.7634 110.075 95.8633 110.422 95.7368C110.774 95.6103 110.788 95.324 110.788 95.324C110.788 95.324 111.467 95.1576 111.667 94.4452C111.873 93.7395 111.613 92.7276 111.613 92.7276C111.613 92.7276 112.246 91.8488 111.753 90.6837C111.307 89.6252 109.47 86.8157 107.752 85.5242" stroke="black" stroke-width="0.5" stroke-linecap="round" stroke-linejoin="round"/>
<path fill-rule="evenodd" clip-rule="evenodd" d="M94.6899 50.9716C94.6899 50.9716 98.7776 47.3633 107.239 46.2581C115.708 45.153 124.123 46.9505 127.345 55.0128C130.567 63.0684 129.835 73.2277 129.455 79.792L120.521 81.7161L119.755 69.373C119.755 69.373 118.451 79.5391 118.404 80.8839C118.357 82.2287 116.527 83.194 114.409 84.0129C112.292 84.8251 108.471 84.8517 108.471 84.8517L101.88 91.0699C101.88 91.0699 85.2895 85.138 83.5119 77.5884C81.7277 70.0388 89.4504 54.1406 94.6899 50.9716Z" fill="#D7F0F7"/>
<path d="M97.5393 63.6209L93.8843 74.5858C93.8843 74.5858 100.668 79.1795 103.025 80.8372C105.382 82.495 108.471 84.8517 108.471 84.8517" stroke="black" stroke-width="0.5" stroke-linecap="round" stroke-linejoin="round"/>
<path d="M121.753 57.03L120.395 64.7593L119.269 72.9481" stroke="black" stroke-width="0.5" stroke-linecap="round" stroke-linejoin="round"/>
<path d="M102.512 47.2168C102.512 47.2168 104.403 52.7359 109.07 52.8358C113.737 52.929 113.677 49.2607 113.697 48.2288C113.724 47.1968 113.531 45.8054 113.531 45.8054" stroke="#6CA3B7" stroke-width="0.5" stroke-linecap="round" stroke-linejoin="round"/>
<path fill-rule="evenodd" clip-rule="evenodd" d="M111.094 68.128L108.205 78.7335L131.679 73.727L134.662 63.7274L111.094 68.128Z" fill="#50AA75"/>
<path fill-rule="evenodd" clip-rule="evenodd" d="M113.517 69.7592L113.018 71.59L115.215 71.124L115.734 69.2865L113.517 69.7592Z" fill="white"/>
<path fill-rule="evenodd" clip-rule="evenodd" d="M112.632 73.4541L112.133 75.2849L114.336 74.8122L114.849 72.9814L112.632 73.4541Z" fill="white"/>
<path d="M118.024 69.7126L130.314 67.3092" stroke="white" stroke-width="0.5" stroke-linecap="round" stroke-linejoin="round"/>
<path d="M117.585 73.3009L129.868 70.8976" stroke="white" stroke-width="0.5" stroke-linecap="round" stroke-linejoin="round"/>
<path fill-rule="evenodd" clip-rule="evenodd" d="M113.238 28.1763C120.215 28.6556 120.168 31.3985 119.975 35.0069C119.782 38.6153 118.843 42.6764 116.893 45.4925C115.461 47.563 113.464 47.796 112.512 47.776C112.792 49.1675 112.372 51.7306 108.651 51.5176C104.936 51.2979 103.624 46.9305 103.624 46.9305C103.624 46.9305 104.157 46.8107 104.483 46.7175C104.623 45.2928 105.069 40.8389 105.042 40.7856C105.022 40.7257 103.125 40.1265 103.125 38.0095C103.125 35.8924 104.789 36.1587 104.789 36.1587C105.462 31.2654 106.973 27.7436 113.238 28.1763Z" fill="white"/>
<path fill-rule="evenodd" clip-rule="evenodd" d="M120.002 32.6834C118.737 32.7567 117.239 32.6967 115.688 32.5769C115.788 32.8232 115.841 33.1561 115.661 33.4823C115.295 34.1215 112.639 32.8898 112.639 32.8898C112.639 32.8898 112.386 33.8818 111.054 33.6954C110.015 33.5556 109.25 33.023 108.957 32.7833L108.897 32.7966C108.897 32.7966 107.565 37.2705 107.479 37.8164C107.399 38.3556 106.387 36.5048 104.789 36.1587C104.789 36.1587 103.125 35.8924 103.125 38.0094C103.125 40.1265 105.022 40.7257 105.042 40.7856C105.056 40.8123 104.962 41.7976 104.849 42.9893C104.849 42.9893 103.837 42.47 102.706 40.1132C101.58 37.7565 100.735 31.8512 103.378 28.9153C106.028 25.9793 111.387 25.6464 112.805 25.2337C114.23 24.8276 120.634 23.1232 121.586 24.1152C122.538 25.1138 120.781 26.452 120.781 26.452C120.781 26.452 122.785 26.4387 123.171 27.2775C123.557 28.123 121.54 28.842 121.513 29.1083C121.486 29.3746 122.871 30.0803 123.004 31.332C123.137 32.5836 120.002 32.6834 120.002 32.6834Z" fill="black" stroke="black" stroke-width="0.5" stroke-linecap="round" stroke-linejoin="round"/>
<path d="M114.729 38.835C114.756 40.1598 114.822 41.0652 115.049 42.3701C114.629 42.5033 114.003 42.5765 113.577 42.47" stroke="black" stroke-width="0.5" stroke-linecap="round" stroke-linejoin="round"/>
<path d="M111.301 39.8329C111.59 39.8584 111.848 39.6062 111.877 39.2696C111.907 38.9329 111.697 38.6393 111.409 38.6138C111.12 38.5882 110.862 38.8404 110.832 39.1771C110.803 39.5137 111.012 39.8073 111.301 39.8329Z" fill="black"/>
<path d="M110.135 37.5967C110.508 37.4036 111.207 37.1772 111.853 37.0175" stroke="black" stroke-width="0.5" stroke-linecap="round" stroke-linejoin="round"/>
<path d="M117.139 37.0108C117.219 37.0241 117.299 37.0374 117.365 37.0507C117.798 37.1306 118.104 37.2438 118.104 37.2438" stroke="black" stroke-width="0.5" stroke-linecap="round" stroke-linejoin="round"/>
<path fill-rule="evenodd" clip-rule="evenodd" d="M113.804 44.4806C113.804 44.4806 112.419 43.8414 111.76 43.5685C111.101 43.2889 110.701 43.0625 110.701 43.0625C110.701 43.0625 110.448 44.5405 111.593 44.9998C112.732 45.4526 113.804 44.4806 113.804 44.4806Z" fill="white" stroke="black" stroke-width="0.5" stroke-linecap="round" stroke-linejoin="round"/>
<path d="M104.144 37.1307C104.144 37.1307 104.889 37.5501 105.395 38.2358C105.894 38.9216 106.088 39.8469 106.088 39.8469" stroke="black" stroke-width="0.5" stroke-linecap="round" stroke-linejoin="round"/>
<path d="M104.49 39.2078L105.395 38.2358" stroke="black" stroke-width="0.5" stroke-linecap="round" stroke-linejoin="round"/>
<path d="M106.56 43.5352C106.56 43.5352 107.159 45.4592 108.604 46.6376C110.042 47.816 112.512 47.7761 112.512 47.7761" stroke="black" stroke-width="0.5" stroke-linecap="round" stroke-linejoin="round"/>
<path d="M116.724 39.6045C117.013 39.6301 117.271 39.3779 117.301 39.0412C117.33 38.7046 117.121 38.411 116.832 38.3854C116.544 38.3599 116.285 38.6121 116.256 38.9487C116.226 39.2854 116.436 39.579 116.724 39.6045Z" fill="black"/>
<path d="M114.31 44.6669L113.804 44.4805" stroke="black" stroke-width="0.5" stroke-linecap="round" stroke-linejoin="round"/>
<path d="M99.6364 90.1844C99.6364 90.1844 101.847 87.5347 103.817 85.8504C105.788 84.166 106.767 83.5668 106.767 83.5668" stroke="#6CA3B7" stroke-width="0.5" stroke-linecap="round" stroke-linejoin="round"/>
<path d="M107.639 85.6373L105.914 84.166" stroke="#6CA3B7" stroke-width="0.5" stroke-linecap="round" stroke-linejoin="round"/>
<path d="M102.666 90.3242L100.608 89.0659" stroke="#6CA3B7" stroke-width="0.5" stroke-linecap="round" stroke-linejoin="round"/>
<path d="M103.584 89.4587L101.607 87.9808" stroke="#6CA3B7" stroke-width="0.5" stroke-linecap="round" stroke-linejoin="round"/>
<path d="M104.63 88.4734L102.586 86.9888" stroke="#6CA3B7" stroke-width="0.5" stroke-linecap="round" stroke-linejoin="round"/>
<path d="M105.648 87.5147L103.751 85.9103" stroke="#6CA3B7" stroke-width="0.5" stroke-linecap="round" stroke-linejoin="round"/>
<path d="M106.68 86.5427L104.876 84.9716" stroke="#6CA3B7" stroke-width="0.5" stroke-linecap="round" stroke-linejoin="round"/>
<path d="M119.962 32.2906C120.068 33.1162 120.028 34.0283 119.975 35.0069C119.782 38.6153 118.843 42.6764 116.893 45.4925C115.461 47.563 113.464 47.796 112.512 47.776M104.483 46.7175C104.623 45.2928 105.069 40.8389 105.042 40.7856C105.022 40.7257 103.125 40.1265 103.125 38.0095C103.125 35.8924 104.789 36.1587 104.789 36.1587L104.483 46.7175Z" stroke="black" stroke-width="0.5" stroke-linecap="round" stroke-linejoin="round"/>
<path d="M114.283 89.1658L109.929 98.7127" stroke="black" stroke-width="0.5" stroke-linecap="round" stroke-linejoin="round"/>
<path d="M88.4185 76.0238C90.9017 74.912 92.1467 74.6324 93.8843 74.5858" stroke="black" stroke-width="0.5" stroke-linecap="round" stroke-linejoin="round"/>
<path d="M121.54 99.0389C121.54 99.0389 123.204 101.256 122.891 103.872C122.578 106.495 122.225 109.864 122.092 109.837" stroke="white" stroke-width="0.5" stroke-linecap="round" stroke-linejoin="round"/>
<path d="M120.002 29.2815C118.684 28.7755 116.76 28.3494 114.303 28.4359" stroke="white" stroke-width="0.5" stroke-linecap="round" stroke-linejoin="round"/>
<path d="M119.076 26.2256C117.678 26.2123 116.799 26.2256 115.155 26.5252" stroke="white" stroke-width="0.5" stroke-linecap="round" stroke-linejoin="round"/>
<path d="M115.728 30.8659C114.955 30.5597 113.957 30.2801 112.752 30.127" stroke="white" stroke-width="0.5" stroke-linecap="round" stroke-linejoin="round"/>
<path d="M105.874 35.5395C105.914 34.9204 105.988 34.2147 106.134 33.509C106.201 33.1761 106.281 32.8432 106.38 32.5237" stroke="white" stroke-width="0.5" stroke-linecap="round" stroke-linejoin="round"/>
<path d="M104.756 34.3611C104.829 33.4424 104.996 32.3439 105.322 31.3519" stroke="white" stroke-width="0.5" stroke-linecap="round" stroke-linejoin="round"/>
<path d="M103.518 35.0868C103.518 34.5675 103.544 33.995 103.604 33.4091" stroke="white" stroke-width="0.5" stroke-linecap="round" stroke-linejoin="round"/>
<path fill-rule="evenodd" clip-rule="evenodd" d="M90.1428 65.9311C90.1428 65.9311 89.031 78.4339 88.5982 82.961C88.1655 87.4815 88.5982 93.3933 88.5982 93.3933C88.5982 93.3933 91.1481 96.9085 91.6341 98.5396C92.1134 100.177 90.935 101.715 90.935 101.715C90.935 101.715 90.6687 102.8 90.2626 102.867C89.8499 102.94 89.3439 102.774 89.3439 102.774C89.3439 102.774 89.1242 103.18 88.7181 103.32C88.3186 103.46 87.8992 103.067 87.8992 103.067C87.8992 103.067 87.3866 103.373 87.1269 103.12C86.8673 102.867 86.4479 102.228 86.4479 102.228C86.4479 102.228 85.4892 101.948 84.6836 101.243C83.8781 100.53 82.0206 99.0589 81.8209 95.6236C81.6212 92.1883 80.7623 91.2496 81.002 85.431C81.2417 79.6123 81.8209 66.4304 81.8209 66.4304L90.1428 65.9311Z" fill="white"/>
<path d="M84.4772 97.9404C84.4772 97.9404 85.4692 99.2054 85.9752 100.35C86.4811 101.489 86.4479 102.228 86.4479 102.228" stroke="black" stroke-width="0.5" stroke-linecap="round" stroke-linejoin="round"/>
<path d="M86.8873 97.8605C86.8873 97.8605 87.3599 98.9257 87.6462 100.417C87.9325 101.908 88.0057 102.727 88.0057 102.727" stroke="black" stroke-width="0.5" stroke-linecap="round" stroke-linejoin="round"/>
<path d="M88.5516 97.8006C88.5516 97.8006 89.224 99.3119 89.3572 100.444C89.4837 101.575 89.4038 102.501 89.4038 102.501" stroke="black" stroke-width="0.5" stroke-linecap="round" stroke-linejoin="round"/>
<path d="M90.0163 97.1948C90.0163 97.1948 90.489 98.6195 90.6887 99.4983C90.8818 100.384 90.8951 101.342 90.8951 101.342" stroke="black" stroke-width="0.5" stroke-linecap="round" stroke-linejoin="round"/>
<path d="M90.1428 65.9311C90.1428 65.9311 89.031 78.4339 88.5982 82.961C88.1655 87.4815 88.5982 93.3933 88.5982 93.3933C88.5982 93.3933 91.1481 96.9085 91.6341 98.5396C92.1134 100.177 90.935 101.715 90.935 101.715C90.935 101.715 90.6687 102.8 90.2626 102.867C89.8499 102.94 89.3439 102.774 89.3439 102.774C89.3439 102.774 89.1242 103.18 88.7181 103.32C88.3186 103.46 87.8992 103.067 87.8992 103.067C87.8992 103.067 87.3866 103.373 87.1269 103.12C86.8673 102.867 86.4479 102.228 86.4479 102.228C86.4479 102.228 85.4892 101.948 84.6836 101.243C83.8781 100.53 82.0206 99.0589 81.8209 95.6236C81.6212 92.1883 80.7623 91.2496 81.002 85.431C81.2417 79.6123 81.8209 66.4304 81.8209 66.4304" stroke="black" stroke-width="0.5" stroke-linecap="round" stroke-linejoin="round"/>
<path fill-rule="evenodd" clip-rule="evenodd" d="M98.2649 150.462C98.2649 150.462 102.186 151.347 106.653 151.374C111.127 151.4 112.406 152.892 111.081 154.549C109.756 156.207 101.68 158.757 97.4461 158.97C93.2119 159.19 91.5542 153.757 91.5542 153.757L98.2649 150.462Z" fill="white" stroke="black" stroke-width="0.5" stroke-linecap="round" stroke-linejoin="round"/>
<path fill-rule="evenodd" clip-rule="evenodd" d="M83.5718 158.604C83.5718 158.604 84.1244 161.966 89.3172 163.364C94.5101 164.755 104.49 162.665 105.815 160.814C107.139 158.963 106.68 157.665 105.069 157.106C103.458 156.553 93.5781 155.521 91.7739 154.849C89.9697 154.176 83.5718 158.604 83.5718 158.604Z" fill="white" stroke="black" stroke-width="0.5" stroke-linecap="round" stroke-linejoin="round"/>
<path fill-rule="evenodd" clip-rule="evenodd" d="M50.5638 86.1832C50.5638 86.1832 49.2656 96.8086 57.1548 114.99C65.0439 133.172 76.1021 151.76 79.2777 155.342C82.4534 158.923 84.0112 160.128 84.0112 160.128L92.9123 155.148L92.5528 154.516C92.5528 154.516 94.104 153.95 96.4941 152.599C98.8908 151.254 99.5831 150.701 99.5831 150.701C99.5831 150.701 82.9726 98.1002 81.9141 93.4799C80.8555 88.8662 80.6625 87.6146 80.6625 87.6146L50.5638 86.1832Z" fill="black" stroke="black" stroke-width="0.2" stroke-linecap="round" stroke-linejoin="round"/>
<path fill-rule="evenodd" clip-rule="evenodd" d="M62.7804 51.0715C62.7804 51.0715 72.4937 51.6507 82.8794 49.8732C89.1375 50.7386 91.1614 54.1739 91.8072 58.0353C92.4529 61.8966 91.7805 67.8085 91.7805 67.8085C91.7805 67.8085 89.6634 68.7938 87.4731 69.2532C85.2895 69.7126 83.9912 69.879 83.9912 69.879L81.9207 88.1539C81.9207 88.1539 81.8741 90.6105 76.4416 91.4227C71.0024 92.2416 63.1665 92.4813 57.248 91.0433C51.3361 89.5986 49.1724 88.3004 49.6984 86.1833C50.2243 84.0662 54.6516 68.3678 54.6516 68.3678L48.1006 65.8113L46.7225 65.2187L54.1722 55.1126C54.1722 55.1126 58.1135 50.8785 62.7804 51.0715Z" fill="#50AA75"/>
<path fill-rule="evenodd" clip-rule="evenodd" d="M73.0929 72.1625C73.0929 72.1625 73.3059 71.0707 74.1048 70.831C74.9037 70.598 81.2949 69.4462 81.2949 69.4462C81.8142 69.3064 82.4733 69.7258 82.7596 70.1319C82.8994 70.365 82.9393 70.4914 82.946 70.7711C82.9793 71.9228 81.255 85.837 81.255 85.837C81.255 85.837 81.1751 86.5161 80.5293 86.8157C79.9901 87.062 74.7706 87.8409 73.1994 88.074C73.1661 88.0806 73.1328 88.0806 73.0929 88.0939L72.7134 88.1472C72.5936 88.1538 72.4937 88.1472 72.4072 88.1272C72.4072 88.1272 71.1622 88.0407 71.2421 87.0354C71.2088 86.7824 71.2554 86.5494 71.2554 86.5494L73.0929 72.1625Z" fill="#D7F0F7" stroke="black" stroke-width="0.5" stroke-linecap="round" stroke-linejoin="round"/>
<path fill-rule="evenodd" clip-rule="evenodd" d="M49.0193 66.1707L46.4695 71.1971C46.4695 71.1971 43.2006 77.0158 48.7796 79.4658C54.3586 81.9157 67.7269 87.3083 67.7269 87.3083C67.7269 87.3083 71.5949 87.9874 75.0369 87.5014C78.4722 87.0221 78.9448 85.4442 78.9448 85.4442C78.9448 85.4442 79.544 85.1979 79.6039 84.6786C79.6638 84.1593 79.3509 83.7732 79.3509 83.7732C79.7437 83.2606 79.7637 82.3684 79.0846 82.2486C78.7451 82.1887 78.9182 81.2367 77.5734 81.1901C76.2286 81.1435 75.0568 81.503 74.0249 81.4897C72.993 81.4763 71.9278 81.2899 71.9278 81.2899L72.3805 77.7748C72.3805 77.7748 68.3993 81.696 67.94 81.5762C67.4873 81.4564 55.4704 73.5872 55.4704 73.5872L58.1201 69.7192L49.0193 66.1707Z" fill="white"/>
<path d="M72.8599 83.1208C73.4457 83.1541 74.3112 83.1607 75.4097 83.0209C77.5268 82.7546 78.8849 82.202 78.8849 82.202" stroke="black" stroke-width="0.5" stroke-linecap="round" stroke-linejoin="round"/>
<path d="M72.8865 84.8051C74.8904 84.8584 78.4189 84.4523 79.3909 83.72" stroke="black" stroke-width="0.5" stroke-linecap="round" stroke-linejoin="round"/>
<path d="M72.8266 86.2165C75.1234 86.3763 76.9076 86.0035 78.9848 85.391" stroke="black" stroke-width="0.5" stroke-linecap="round" stroke-linejoin="round"/>
<path d="M64.2118 62.9818L59.6713 70.0854L54.6382 68.401" stroke="black" stroke-width="0.5" stroke-linecap="round" stroke-linejoin="round"/>
<path d="M85.0964 63.1083L84.191 68.6473" stroke="black" stroke-width="0.5" stroke-linecap="round" stroke-linejoin="round"/>
<path d="M69.5644 51.1248C68.6457 57.5692 72.4005 60.0525 75.9756 59.9926C81.255 59.906 83.0658 55.2657 81.974 50.6787" stroke="#A94D4D" stroke-width="0.5" stroke-linecap="round" stroke-linejoin="round"/>
<path fill-rule="evenodd" clip-rule="evenodd" d="M81.468 31.059C87.1735 32.0576 87.9591 34.8338 87.806 40.8056C87.6462 46.7708 86.4678 51.5908 84.8434 53.1087C83.219 54.6266 80.7357 53.9476 80.7357 53.9476C81.0286 57.0034 77.7531 58.8209 74.957 58.2949C74.9503 58.2949 74.9437 58.2883 74.9304 58.2883C74.8971 58.2816 74.8638 58.2749 74.8305 58.2683C74.8039 58.2616 74.7839 58.255 74.7573 58.255C69.9772 57.1765 70.8892 51.4443 70.8892 51.4443L72.8599 47.3167C72.3073 46.9904 71.4818 46.3114 71.0757 45.0331C70.4166 42.9893 71.9877 41.9441 71.9877 41.9441C68.2529 35.2266 74.7107 29.8873 81.468 31.059Z" fill="white"/>
<path d="M72.3472 42.916C72.3472 42.916 73.2793 42.9293 73.712 44.161C74.1381 45.3926 73.2127 46.338 73.2127 46.338" stroke="black" stroke-width="0.5" stroke-linecap="round" stroke-linejoin="round"/>
<path d="M72.4138 44.9599L73.712 44.161" stroke="black" stroke-width="0.5" stroke-linecap="round" stroke-linejoin="round"/>
<path d="M79.2444 43.8481C79.2444 43.8481 79.3643 42.6564 80.3962 42.5632C81.4347 42.47 81.4214 43.4952 81.4214 43.4952" stroke="black" stroke-width="0.5" stroke-linecap="round" stroke-linejoin="round"/>
<path d="M84.5505 43.3887C84.5505 43.3887 84.6703 42.197 85.7022 42.1038C86.7341 42.0172 86.7208 43.0358 86.7208 43.0358" stroke="black" stroke-width="0.5" stroke-linecap="round" stroke-linejoin="round"/>
<path d="M83.3521 42.5898C83.3521 42.5898 83.5319 44.3341 84.0711 45.5524C84.6104 46.7641 83.3654 46.9106 83.3654 46.9106" stroke="black" stroke-width="0.5" stroke-linecap="round" stroke-linejoin="round"/>
<path fill-rule="evenodd" clip-rule="evenodd" d="M83.5452 49.1541C83.2522 49.0876 82.9127 48.9877 82.5532 48.8346C81.6278 48.4418 80.6292 47.6562 80.6292 47.6562C80.6292 47.6562 79.9634 49.3073 81.6411 50.2593C81.8608 50.3858 82.0672 50.459 82.2603 50.4989L83.5452 49.1541Z" stroke="black" stroke-width="0.5" stroke-linecap="round" stroke-linejoin="round"/>
<path d="M80.7357 53.9475C79.2378 53.5348 77.6333 52.8823 76.0621 51.0648" stroke="black" stroke-width="0.5" stroke-linecap="round" stroke-linejoin="round"/>
<path fill-rule="evenodd" clip-rule="evenodd" d="M87.3732 35.3531C85.7089 34.9869 79.9701 33.8884 77.5667 35.5129C74.7373 37.4236 75.6294 40.8056 75.8624 41.7443C76.1021 42.6897 75.3964 43.2622 75.1301 43.7083C75.1301 43.7083 74.1115 41.1185 71.9877 41.944C71.9877 41.944 71.1356 42.5099 70.9492 43.6217V43.6284V43.635C70.9425 43.675 70.9358 43.7149 70.9292 43.7615V43.7682C70.9225 43.8281 70.9159 43.8947 70.9159 43.9613C70.9159 44.0212 70.9092 44.0811 70.9159 44.1477V44.1543C70.9159 44.2475 70.9225 44.3474 70.9425 44.4539V44.4606C70.9492 44.5005 70.9558 44.5471 70.9625 44.5937V44.6004V44.607V44.6137L70.9691 44.6204V44.627V44.6337V44.6403V44.647L70.9758 44.6536V44.6603V44.667V44.6736V44.6803L70.9824 44.6869V44.6936V44.7002V44.7069L70.9891 44.7136V44.7202V44.7269V44.7335V44.7402L70.9958 44.7468V44.7535V44.7602V44.7668L71.0024 44.7735V44.7801V44.7868V44.7934L71.0091 44.8001V44.8068V44.8134V44.8201L71.0157 44.8267V44.8334V44.8401L71.0224 44.8467V44.8534V44.86V44.8667L71.029 44.8733V44.88V44.8867V44.8933V44.9L71.0357 44.9066V44.9133V44.9199L71.0424 44.9266V44.9333V44.9399L71.049 44.9466V44.9532V44.9599L71.0557 44.9665V44.9732V44.9799L71.0623 44.9865V44.9932V44.9998L71.069 45.0065V45.0131V45.0198V45.0265L71.0756 45.0331L71.089 45.0797V45.093L71.0956 45.1064L71.1089 45.133V45.1463L71.1156 45.153L71.1223 45.1796L71.1289 45.2062H71.1356L71.1489 45.2528L71.1555 45.2661L71.1622 45.2794L71.1755 45.3194V45.326L71.1955 45.3727L71.2021 45.3793L71.2221 45.4259V45.4326V45.4392L71.2354 45.4592L71.2421 45.4858L71.2487 45.4925L71.2621 45.5258L71.2687 45.5391L71.2754 45.5524L71.2887 45.5724L71.2953 45.5857V45.5924L71.3087 45.619L71.3153 45.639L71.322 45.6456L71.3353 45.6789L71.3419 45.6922L71.3486 45.6989L71.3619 45.7188L71.3686 45.7388V45.7455L71.3952 45.7854L71.4019 45.8054L71.4152 45.8254L71.4218 45.8387L71.4285 45.8453L71.4352 45.8653L71.4485 45.8853L71.4618 45.9053L71.4684 45.9252L71.4751 45.9319L71.4818 45.9452L71.4951 45.9585L71.5017 45.9718L71.5084 45.9785L71.515 45.9985L71.5284 46.0184L71.5417 46.0384L71.555 46.0584V46.065L71.5616 46.0717L71.575 46.0917L71.5883 46.105V46.1116L71.6016 46.125L71.6149 46.1449V46.1516L71.6216 46.1649L71.6349 46.1782L71.6415 46.1915L71.6482 46.1982L71.6615 46.2182L71.6748 46.2315L71.6881 46.2514L71.7015 46.2648V46.2714L71.7081 46.2847L71.7214 46.298L71.7281 46.3114L71.7347 46.318L71.7481 46.3313L71.7614 46.3513C72.1275 46.824 72.5403 47.1302 72.8599 47.3166L71.8213 49.4937C71.3486 49.1475 70.5497 48.4884 70.4166 47.8892C70.2301 47.0237 70.4898 46.2514 70.4898 46.2514C70.4898 46.2514 68.0332 44.1543 68.8187 42.1105C68.4925 42.0639 68.0398 41.8974 68.0132 41.265C67.9732 40.2663 68.8121 39.5207 68.8121 39.5207C68.8121 39.5207 67.1877 39.1279 67.7136 36.0388C68.2329 32.9497 70.6829 33.6155 70.9092 32.2906C71.1289 30.9724 72.2807 28.9819 74.937 29.4279C77.5934 29.874 78.7118 29.5477 79.3776 28.6423C80.0433 27.7369 82.0606 27.1377 83.1191 28.0631C84.1843 28.9952 85.3227 30.2268 86.3147 30.2268C87.3133 30.2268 89.1308 30.4864 89.4437 32.9764C89.7566 35.4596 87.3732 35.3531 87.3732 35.3531Z" fill="black" stroke="black" stroke-width="0.5" stroke-linecap="round" stroke-linejoin="round"/>
<path d="M78.7451 41.0053C78.7451 41.0053 78.9581 40.6658 79.8103 40.3662C80.6558 40.0666 81.1685 40.1665 81.1685 40.1665" stroke="black" stroke-width="0.5" stroke-linecap="round" stroke-linejoin="round"/>
<path d="M84.7502 39.9601C84.7502 39.9601 85.5557 39.8003 86.1083 39.9468C86.6609 40.0866 86.8673 40.2863 86.8673 40.2863" stroke="black" stroke-width="0.5" stroke-linecap="round" stroke-linejoin="round"/>
<path d="M79.5906 55.1526L80.07 53.8011" stroke="black" stroke-width="0.5" stroke-linecap="round" stroke-linejoin="round"/>
<path d="M52.8141 72.0294L55.5037 73.5273" stroke="black" stroke-width="0.5" stroke-linecap="round" stroke-linejoin="round"/>
<path d="M87.1336 34.7539C87.7261 36.2518 87.8459 38.2291 87.806 40.8056C87.7061 46.7707 86.4678 51.5908 84.8434 53.1087C83.219 54.6266 80.7357 53.9475 80.7357 53.9475M70.8892 51.4443L72.8599 47.3166C72.3073 46.9904 71.4818 46.3114 71.0756 45.0331C70.4166 42.9893 71.9877 41.944 71.9877 41.944L70.8892 51.4443Z" stroke="black" stroke-width="0.5" stroke-linecap="round" stroke-linejoin="round"/>
<path d="M49.0592 66.1108L46.5094 71.1373C46.5094 71.1373 43.2406 76.9559 48.8196 79.4126C54.3986 81.8625 67.7602 87.2551 67.7602 87.2551C67.7602 87.2551 71.6349 87.9275 75.0768 87.4482C78.5121 86.9688 78.9848 85.391 78.9848 85.391C78.9848 85.391 79.584 85.138 79.6439 84.6187C79.7038 84.1061 79.3909 83.72 79.3909 83.72C79.7837 83.2007 79.8036 82.3152 79.1246 82.1887C78.785 82.1288 78.9581 81.1835 77.6133 81.1369C76.2619 81.0836 75.0968 81.4431 74.0649 81.4364C73.033 81.4231 71.9678 81.2301 71.9678 81.2301L72.3539 77.9945C72.3539 77.9945 68.4393 81.6362 67.9799 81.5163C67.5272 81.3965 55.5037 73.5273 55.5037 73.5273L58.1601 69.6593" stroke="black" stroke-width="0.5" stroke-linecap="round" stroke-linejoin="round"/>
<path d="M74.0449 94.2189L71.6415 98.8392C71.6415 98.8392 81.2616 130.675 84.7236 137.599C88.1855 144.53 91.6008 152.798 91.6008 152.798" stroke="white" stroke-width="0.5" stroke-linecap="round" stroke-linejoin="round"/>
<path d="M81.5013 70.2052L74.6973 71.5966C74.6973 71.5966 74.0782 71.6832 73.9251 72.6485C73.7653 73.6072 73.4457 76.3101 73.4457 76.3101L72.9997 80.4245" stroke="#6CA3B7" stroke-width="0.5" stroke-linecap="round" stroke-linejoin="round"/>
<path d="M76.7479 33.3026C76.7479 33.3026 77.3737 32.3639 78.5254 32.1242C79.6838 31.8846 80.4295 32.4371 80.4295 32.4371" stroke="white" stroke-width="0.5" stroke-linecap="round" stroke-linejoin="round"/>
<path d="M73.7986 35.6061C73.3192 36.2452 73.1395 36.8976 73.1395 37.6166" stroke="white" stroke-width="0.5" stroke-linecap="round" stroke-linejoin="round"/>
<path d="M70.816 37.5168C70.3167 38.4688 70.4032 39.5274 70.816 40.2331" stroke="white" stroke-width="0.5" stroke-linecap="round" stroke-linejoin="round"/>
<path d="M82.4334 30.4266C83.2855 30.3134 84.3507 30.9592 84.2842 31.8979" stroke="white" stroke-width="0.5" stroke-linecap="round" stroke-linejoin="round"/>
<path d="M75.1432 74.3479C75.3999 74.6533 75.8919 74.6283 76.2421 74.292C76.5923 73.9557 76.668 73.4355 76.4112 73.1301C76.1544 72.8247 75.6624 72.8497 75.3123 73.186C74.9621 73.5223 74.8864 74.0425 75.1432 74.3479Z" fill="black"/>
<path d="M54.8646 92.4746C54.8646 92.4746 55.5104 93.2203 56.3093 93.7995C57.1015 94.3787 57.5542 94.7115 57.5542 94.7115" stroke="white" stroke-width="0.5" stroke-linecap="round" stroke-linejoin="round"/>
<path d="M55.6369 95.7568L57.1814 96.5757" stroke="white" stroke-width="0.5" stroke-linecap="round" stroke-linejoin="round"/>
<path fill-rule="evenodd" clip-rule="evenodd" d="M76.7745 19.7545C78.8716 19.7479 83.5785 19.415 85.5557 16.7254C88.1255 13.2169 85.4825 9.36882 80.0234 9.22235C67.3208 8.88948 67.2609 18.6361 74.2579 19.648L75.403 22.1646L76.7745 19.7545Z" fill="white" stroke="black" stroke-width="0.5" stroke-linecap="round" stroke-linejoin="round"/>
<path fill-rule="evenodd" clip-rule="evenodd" d="M74.724 14.4485C75.0901 14.4485 75.3831 14.7547 75.3831 15.1276C75.3831 15.5004 75.0901 15.8 74.724 15.8C74.3578 15.8 74.0582 15.5004 74.0582 15.1276C74.0582 14.7547 74.3578 14.4485 74.724 14.4485ZM81.741 13.4033C82.1072 13.4033 82.4001 13.7095 82.4001 14.0823C82.4001 14.4551 82.1072 14.7614 81.741 14.7614C81.3748 14.7614 81.0752 14.4551 81.0752 14.0823C81.0752 13.7095 81.3748 13.4033 81.741 13.4033ZM78.1659 13.9891C78.5321 13.9891 78.825 14.2887 78.825 14.6682C78.825 15.041 78.5321 15.3406 78.1659 15.3406C77.7997 15.3406 77.5002 15.041 77.5002 14.6682C77.5002 14.2887 77.7997 13.9891 78.1659 13.9891Z" fill="black"/>
<path fill-rule="evenodd" clip-rule="evenodd" d="M178.182 20.0941C180.758 16.5855 178.109 12.7375 172.649 12.591C164.234 12.3647 161.372 16.5722 162.43 19.7345L160.999 22.331L163.975 21.845C164.72 22.4242 165.706 22.8436 166.884 23.0167C170.499 23.1698 175.852 23.2763 178.182 20.0941Z" fill="white" stroke="black" stroke-width="0.5" stroke-linecap="round" stroke-linejoin="round"/>
<path fill-rule="evenodd" clip-rule="evenodd" d="M167.35 17.8172C167.716 17.8172 168.016 18.1168 168.016 18.4896C168.016 18.8691 167.716 19.1686 167.35 19.1686C166.984 19.1686 166.691 18.8691 166.691 18.4896C166.691 18.1168 166.984 17.8172 167.35 17.8172ZM174.367 16.7719C174.733 16.7719 175.033 17.0782 175.033 17.451C175.033 17.8238 174.733 18.1234 174.367 18.1234C174.001 18.1234 173.708 17.8238 173.708 17.451C173.708 17.0782 174.001 16.7719 174.367 16.7719ZM170.792 17.3578C171.158 17.3578 171.458 17.6574 171.458 18.0302C171.458 18.403 171.158 18.7093 170.792 18.7093C170.426 18.7093 170.126 18.403 170.126 18.0302C170.126 17.6574 170.426 17.3578 170.792 17.3578Z" fill="black"/>
</g>
<defs>
<clipPath id="clip0_85_2140">
<rect width="218.986" height="164.93" fill="white"/>
</clipPath>
</defs>
</svg>
