<svg width="219" height="165" viewBox="0 0 219 165" fill="none" xmlns="http://www.w3.org/2000/svg">
<path fill-rule="evenodd" clip-rule="evenodd" d="M78.2325 91.942C78.2325 91.942 76.9809 107.427 77.0807 119.544C77.1407 127.64 77.64 142.845 77.9595 152.059H118.371C117.332 134.737 114.855 94.0325 114.403 92.5146C113.824 90.5906 78.2325 91.942 78.2325 91.942Z" fill="black"/>
<path d="M94.2238 106.409L94.8963 147.772" stroke="white" stroke-width="0.5" stroke-linecap="round" stroke-linejoin="round"/>
<path fill-rule="evenodd" clip-rule="evenodd" d="M149.501 90.4307C149.501 90.4307 139.448 100.936 138.004 111.708C136.559 122.48 144.355 128.059 144.355 128.059L161.571 124.404L163.016 94.9712L149.501 90.4307Z" fill="#50AA75"/>
<path fill-rule="evenodd" clip-rule="evenodd" d="M147.817 95.344C147.045 97.3879 146.272 100.038 145.6 100.757C144.927 101.476 143.703 102.607 143.703 102.607L145.553 103.786C145.553 103.786 145.147 105.65 145.147 105.81C145.147 105.963 145.706 106.515 145.706 106.515C145.706 106.515 145.334 107.321 145.334 107.421C145.334 107.514 145.793 108.679 145.6 109.664C145.407 110.65 145.467 112.154 147.005 112.587C148.549 113.02 151.705 113.12 151.705 113.12C152.837 115.689 152.564 118.432 152.237 121.149L163.635 120.256L161.977 109.278C161.977 109.278 169.407 102.607 166.764 95.344C163.868 87.4082 151.405 85.8104 147.817 95.344Z" fill="white"/>
<path d="M149.348 105.503C149.348 105.503 148.483 106.249 147.364 106.409C146.246 106.562 145.706 106.515 145.706 106.515" stroke="black" stroke-width="0.5" stroke-linecap="round" stroke-linejoin="round"/>
<path d="M149.981 100.144C150.33 100.144 150.613 99.8102 150.613 99.3984C150.613 98.9866 150.33 98.6528 149.981 98.6528C149.631 98.6528 149.348 98.9866 149.348 99.3984C149.348 99.8102 149.631 100.144 149.981 100.144Z" fill="black"/>
<path d="M149.022 97.015C149.022 97.015 149.954 96.822 150.899 97.0616C151.851 97.3013 152.211 97.8672 152.211 97.8672" stroke="black" stroke-width="0.5" stroke-linecap="round" stroke-linejoin="round"/>
<path fill-rule="evenodd" clip-rule="evenodd" d="M135.833 145.349L139.202 130.389C139.202 130.389 140.693 125.003 145.6 122.6C150.506 120.196 156.898 119.091 161.178 118.898C165.459 118.705 172.962 118.945 175.079 127.074C177.196 135.203 175.559 152.059 175.559 152.059H147.617L148.05 145.974L135.833 145.349Z" fill="black" stroke="black" stroke-width="0.2" stroke-linecap="round" stroke-linejoin="round"/>
<path fill-rule="evenodd" clip-rule="evenodd" d="M147.617 152.059L148.05 145.974L137.185 145.422L136.639 152.059H147.617Z" fill="white"/>
<path d="M157.557 106.023C157.557 106.023 157.217 104.937 157.59 103.712C157.963 102.487 158.868 102.221 158.868 102.221" stroke="black" stroke-width="0.5" stroke-linecap="round" stroke-linejoin="round"/>
<path d="M159.001 104.684L157.59 103.712" stroke="black" stroke-width="0.5" stroke-linecap="round" stroke-linejoin="round"/>
<path d="M140.866 113.779C140.866 113.779 140.647 115.629 141.013 117.261C141.372 118.898 141.998 119.864 141.998 119.864" stroke="white" stroke-width="0.5" stroke-linecap="round" stroke-linejoin="round"/>
<path d="M142.983 113.319C142.983 113.319 142.884 114.591 143.057 115.53C143.223 116.468 143.343 116.761 143.343 116.761" stroke="white" stroke-width="0.5" stroke-linecap="round" stroke-linejoin="round"/>
<path fill-rule="evenodd" clip-rule="evenodd" d="M62.6073 33.1828C62.6073 33.1828 63.2997 31.7847 64.791 30.7062C66.2823 29.621 66.5486 28.669 66.1757 28.0964C65.8029 27.5172 64.3249 27.5438 64.3249 27.5438C64.3249 27.5438 65.1039 26.8115 65.1771 25.4734C65.2503 24.1418 64.9042 23.09 64.3383 22.6972C63.7724 22.2977 62.9535 22.5374 62.9535 22.5374C62.9535 22.5374 62.2811 22.1912 61.7019 22.1912C61.1293 22.1912 60.5368 22.3976 60.5368 22.3976C60.5368 22.3976 59.7179 21.9981 59.1321 22.2178C58.5396 22.4309 58.2999 22.7171 58.2999 22.7171C58.2999 22.7171 56.5689 22.1313 55.9232 22.9502C55.2707 23.769 54.9845 25.1871 55.1043 27.444C55.2241 29.7075 56.2094 32.4238 56.2094 32.4238L55.9964 35.5462L62.6805 36.172L62.6073 33.1828Z" fill="white" stroke="black" stroke-width="0.5" stroke-linecap="round" stroke-linejoin="round"/>
<path fill-rule="evenodd" clip-rule="evenodd" d="M117.445 53.5747L116.886 46.8373C116.886 46.8373 114.463 43.5485 114.463 42.2436C114.463 40.9454 115.974 39.8403 116.553 39.8869C117.132 39.9401 123.271 40.0932 123.271 40.0932L124.449 44.2542L122.671 47.0171L123.637 51.0382L117.445 53.5747Z" fill="white" stroke="black" stroke-width="0.5" stroke-linecap="round" stroke-linejoin="round"/>
<path fill-rule="evenodd" clip-rule="evenodd" d="M94.9628 50.0928L92.859 48.8812C92.859 48.8812 85.3627 49.6135 80.3629 50.9583C75.3631 52.3031 66.8947 55.1925 66.8947 55.1925C66.8947 55.1925 64.4647 42.683 64.1319 39.8935C63.7923 37.104 63.4128 33.935 63.4128 33.935L54.5583 33.0895C54.5583 33.0895 52.9273 52.7159 54.4651 60.2189C56.003 67.7219 61.1027 68.0548 67.0146 67.9084C72.9331 67.7685 80.7224 66.7566 80.7224 66.7566C80.7224 66.7566 77.1207 87.5347 77.1673 92.5811C77.1673 92.5811 76.7678 95.3107 77.9662 96.6755C79.1712 98.0469 84.2908 98.0536 84.2908 98.0536C88.6715 98.3532 99.8827 98.9923 106.693 98.3066C115.302 97.4411 115.448 95.5637 115.495 93.6397C115.548 91.7156 114.25 75.2183 114.25 75.2183C114.25 75.2183 118.963 83.1341 124.516 80.4178C130.068 77.6949 128.577 65.8179 128.097 62.1629C127.618 58.5079 124.203 49.8665 124.203 49.8665C121.247 50.672 119.529 51.7173 116.819 53.0954L116.786 55.3589C116.786 55.3589 113.391 50.8584 109.689 50.0462C105.988 49.2274 102.692 49.001 102.692 49.001L94.9628 50.0928Z" fill="#D7F0F7"/>
<path d="M91.1481 49.0676C93.7312 56.1978 103.671 55.0926 104.097 49.1341" stroke="#6CA3B7" stroke-width="0.5" stroke-linecap="round" stroke-linejoin="round"/>
<path d="M67.4074 57.6691L66.8947 55.1925" stroke="black" stroke-width="0.5" stroke-linecap="round" stroke-linejoin="round"/>
<path d="M113.244 61.0645L114.25 75.2183" stroke="black" stroke-width="0.5" stroke-linecap="round" stroke-linejoin="round"/>
<path d="M56.0297 24.2084L56.995 26.3388C56.995 26.3388 55.9831 26.6784 56.1029 27.3708C56.276 28.3561 58.2799 28.1963 58.9989 27.6837C58.9989 27.6837 60.4569 28.1097 61.3557 27.8434C62.2611 27.5771 64.3249 27.5439 64.3249 27.5439" stroke="black" stroke-width="0.5" stroke-linecap="round" stroke-linejoin="round"/>
<path d="M64.6645 29.4745C64.6645 29.4745 62.0414 29.9006 61.0561 29.5877C60.0708 29.2748 60.2505 28.7422 60.4236 28.4559C60.6034 28.1696 61.1826 27.8834 61.1826 27.8834" stroke="black" stroke-width="0.5" stroke-linecap="round" stroke-linejoin="round"/>
<path d="M60.0708 30.5264C60.0708 30.5264 60.4036 30.2201 60.6633 30.0071C60.9229 29.7874 61.1959 29.621 61.1959 29.621" stroke="black" stroke-width="0.5" stroke-linecap="round" stroke-linejoin="round"/>
<path d="M58.9989 27.6836C58.9989 27.6836 59.4117 26.9913 59.1987 25.733C58.979 24.4681 58.473 23.2764 58.473 23.2764" stroke="black" stroke-width="0.5" stroke-linecap="round" stroke-linejoin="round"/>
<path d="M60.7632 23.0567C60.8564 23.4361 61.0894 24.5147 61.0694 25.6265C61.0494 27.0046 60.6034 27.93 60.6034 27.93" stroke="black" stroke-width="0.5" stroke-linecap="round" stroke-linejoin="round"/>
<path d="M63.0467 23.1099C63.0933 23.536 63.2131 24.9075 63.04 25.8395C62.8403 26.958 62.4675 27.6503 62.4675 27.6503" stroke="black" stroke-width="0.5" stroke-linecap="round" stroke-linejoin="round"/>
<path d="M57.3279 27.1111L56.995 26.3388" stroke="black" stroke-width="0.5" stroke-linecap="round" stroke-linejoin="round"/>
<path d="M63.9455 30.2068L63.4927 29.6276" stroke="black" stroke-width="0.5" stroke-linecap="round" stroke-linejoin="round"/>
<path fill-rule="evenodd" clip-rule="evenodd" d="M111.833 31.7381C111.833 31.7381 108.85 32.9764 109.982 35.5462C111.107 38.1227 113.424 37.2705 114.603 36.2852C115.781 35.2999 111.833 31.7381 111.833 31.7381Z" fill="black" stroke="black" stroke-width="0.5" stroke-linecap="round" stroke-linejoin="round"/>
<path fill-rule="evenodd" clip-rule="evenodd" d="M115.288 36.7778L120.674 49.041C120.674 49.041 123.943 47.6695 123.943 47.5031C123.943 47.33 118.124 36.0056 118.124 36.0056L115.288 36.7778Z" fill="black" stroke="black" stroke-width="0.5" stroke-linecap="round" stroke-linejoin="round"/>
<path d="M54.4252 34.8671L63.6392 35.8325" stroke="#6CA3B7" stroke-width="0.5" stroke-linecap="round" stroke-linejoin="round"/>
<path d="M55.8965 33.2161L55.79 35.0136" stroke="#6CA3B7" stroke-width="0.5" stroke-linecap="round" stroke-linejoin="round"/>
<path d="M57.4544 33.3691L57.3878 35.18" stroke="#6CA3B7" stroke-width="0.5" stroke-linecap="round" stroke-linejoin="round"/>
<path d="M58.8924 33.5023L58.8391 35.3265" stroke="#6CA3B7" stroke-width="0.5" stroke-linecap="round" stroke-linejoin="round"/>
<path d="M60.3704 33.6422L60.3837 35.4929" stroke="#6CA3B7" stroke-width="0.5" stroke-linecap="round" stroke-linejoin="round"/>
<path d="M61.9549 33.7952L62.0481 35.666" stroke="#6CA3B7" stroke-width="0.5" stroke-linecap="round" stroke-linejoin="round"/>
<path d="M124.835 51.5176C124.835 51.5176 121.859 52.7825 120.255 53.4549C118.657 54.1273 116.786 55.2591 116.786 55.2591" stroke="#6CA3B7" stroke-width="0.5" stroke-linecap="round" stroke-linejoin="round"/>
<path d="M117.811 52.5828L117.938 54.6" stroke="#6CA3B7" stroke-width="0.5" stroke-linecap="round" stroke-linejoin="round"/>
<path d="M119.05 51.9436L119.263 53.9076" stroke="#6CA3B7" stroke-width="0.5" stroke-linecap="round" stroke-linejoin="round"/>
<path d="M120.281 51.3312L120.621 53.3018" stroke="#6CA3B7" stroke-width="0.5" stroke-linecap="round" stroke-linejoin="round"/>
<path d="M121.62 50.7386L122.019 52.7093" stroke="#6CA3B7" stroke-width="0.5" stroke-linecap="round" stroke-linejoin="round"/>
<path d="M122.944 50.246L123.47 52.0968" stroke="#6CA3B7" stroke-width="0.5" stroke-linecap="round" stroke-linejoin="round"/>
<path fill-rule="evenodd" clip-rule="evenodd" d="M106.174 27.444C106.174 27.444 107.093 38.815 106.274 42.0106C105.455 45.2129 101.634 45.1397 101.634 45.1397L101.907 48.8878L102.692 49.001C102.692 49.001 101.847 52.9556 97.5925 52.4363C93.3384 51.9237 92.8591 48.8812 92.8591 48.8812L93.598 48.7347L93.5315 39.8869C93.5315 39.8869 90.742 39.6672 90.5223 37.1706C90.3092 34.6674 91.5542 34.5675 91.5542 34.5675C91.5542 34.5675 89.8033 24.4481 97.5459 23.6292C105.289 22.8103 106.174 27.444 106.174 27.444Z" fill="white"/>
<path fill-rule="evenodd" clip-rule="evenodd" d="M106.181 27.4906C103.697 26.6051 100.815 27.3375 100.815 27.3375C100.808 27.3441 97.2796 28.0299 96.3209 28.7822C94.5634 30.1536 95.5753 32.5769 95.0427 33.5423C94.5168 34.501 94.2039 35.8857 93.8044 35.9789C93.405 36.0788 93.3384 35.0469 92.6593 34.7073C91.9869 34.3678 91.5542 34.5675 91.5542 34.5675C91.5542 34.5675 90.3092 34.6674 90.5222 37.1706C90.7419 39.6672 93.5314 39.8869 93.5314 39.8869L93.5448 42.0905C92.4529 41.498 90.3225 39.8536 88.8446 35.6927C86.7741 29.874 89.8765 24.3682 92.8124 23.2631C95.7417 22.1579 98.9906 20.0608 101.68 18.8824C104.377 17.704 104.11 20.2539 104.11 20.2539C104.11 20.2539 106.081 18.8824 107.213 19.941C108.344 20.9995 106.66 24.0087 106.66 24.0087C106.66 24.0087 108.997 24.508 108.884 26.2789C108.777 28.0432 106.181 27.4906 106.181 27.4906Z" fill="black" stroke="black" stroke-width="0.2" stroke-linecap="round" stroke-linejoin="round"/>
<path d="M99.1704 34.694C99.4682 34.694 99.7096 34.4049 99.7096 34.0482C99.7096 33.6916 99.4682 33.4025 99.1704 33.4025C98.8726 33.4025 98.6311 33.6916 98.6311 34.0482C98.6311 34.4049 98.8726 34.694 99.1704 34.694Z" fill="black"/>
<path d="M104.796 34.4078C105.094 34.4078 105.335 34.1186 105.335 33.762C105.335 33.4053 105.094 33.1162 104.796 33.1162C104.498 33.1162 104.257 33.4053 104.257 33.762C104.257 34.1186 104.498 34.4078 104.796 34.4078Z" fill="black"/>
<path d="M101.594 41.6178C102.145 41.6178 102.592 41.1111 102.592 40.486C102.592 39.861 102.145 39.3542 101.594 39.3542C101.042 39.3542 100.595 39.861 100.595 40.486C100.595 41.1111 101.042 41.6178 101.594 41.6178Z" fill="black" stroke="black" stroke-width="0.5" stroke-linecap="round" stroke-linejoin="round"/>
<path d="M102.812 39.2078L101.361 39.3876" stroke="black" stroke-width="0.5" stroke-linecap="round" stroke-linejoin="round"/>
<path d="M102.306 33.449L103.651 36.8444L102.306 37.3703" stroke="black" stroke-width="0.5" stroke-linecap="round" stroke-linejoin="round"/>
<path d="M97.8722 32.0976C98.6311 31.8845 99.4966 31.7847 100.196 32.2374" stroke="black" stroke-width="0.5" stroke-linecap="round" stroke-linejoin="round"/>
<path d="M105.175 31.565C104.676 31.6316 104.197 31.8113 103.831 32.1908" stroke="black" stroke-width="0.5" stroke-linecap="round" stroke-linejoin="round"/>
<path d="M91.674 35.5062C91.674 35.5062 92.5528 35.9789 92.7925 36.9376C93.0321 37.9029 92.7192 38.8483 92.7192 38.8483" stroke="black" stroke-width="0.5" stroke-linecap="round" stroke-linejoin="round"/>
<path d="M91.6474 37.5634L92.7459 36.7845" stroke="black" stroke-width="0.5" stroke-linecap="round" stroke-linejoin="round"/>
<path d="M96.0946 42.5099C96.4608 43.0492 97.1199 43.8614 98.0519 44.3541C99.0505 44.88 100.216 45.0598 100.855 45.1264" stroke="black" stroke-width="0.5" stroke-linecap="round" stroke-linejoin="round"/>
<path fill-rule="evenodd" clip-rule="evenodd" d="M121.107 37.1373C121.107 37.1373 122.139 37.0641 122.572 37.7166C123.004 38.3623 122.572 38.9149 122.572 38.9149C122.572 38.9149 123.337 39.0547 123.53 39.5008C123.723 39.9468 123.643 40.3529 123.643 40.3529C123.643 40.3529 124.183 40.9654 124.362 41.2783C124.542 41.5912 124.263 42.3102 124.263 42.3102C124.263 42.3102 125.002 43.0559 124.888 43.7549C124.782 44.454 123.264 46.0984 123.264 46.0984L122.731 45.0265C122.731 45.0265 121.5 45.5125 120.994 45.2329C120.488 44.9599 120.727 44.1877 120.727 44.1877C120.727 44.1877 120.048 44.5472 119.489 44.0545C118.937 43.5619 119.443 43.0359 119.443 43.0359C119.443 43.0359 118.724 43.2356 118.364 42.4567C117.998 41.6778 118.67 41.0853 118.67 41.0853C118.67 41.0853 117.146 40.8722 117.725 39.5141C118.297 38.1559 120.621 37.144 121.107 37.1373Z" fill="white" stroke="black" stroke-width="0.5" stroke-linecap="round" stroke-linejoin="round"/>
<path fill-rule="evenodd" clip-rule="evenodd" d="M116.16 39.9734C116.16 39.9734 116.893 39.5806 117.818 40.1265C118.743 40.6658 119.443 43.0225 119.256 43.3687C119.07 43.7216 118.357 44.1144 117.552 43.0691C116.746 42.0239 116.786 41.8708 116.786 41.8708L116.16 39.9734Z" fill="white"/>
<path d="M124.263 42.3102C124.263 42.3102 123.237 42.2836 122.325 42.7762C121.413 43.2689 120.727 44.1876 120.727 44.1876" stroke="black" stroke-width="0.5" stroke-linecap="round" stroke-linejoin="round"/>
<path d="M123.643 40.3529C123.643 40.3529 121.892 40.6924 121.114 41.3515C120.328 42.0173 119.443 43.0359 119.443 43.0359" stroke="black" stroke-width="0.5" stroke-linecap="round" stroke-linejoin="round"/>
<path d="M122.572 38.9149C121.227 38.835 119.542 40.1266 118.67 41.0853" stroke="black" stroke-width="0.5" stroke-linecap="round" stroke-linejoin="round"/>
<path d="M124.103 44.2142L123.47 44.4406L122.731 45.0265" stroke="black" stroke-width="0.5" stroke-linecap="round" stroke-linejoin="round"/>
<path d="M116.087 40C116.087 40 116.826 39.6139 117.752 40.1532C118.677 40.6991 119.376 43.0558 119.19 43.402C118.457 44.7535 117.079 42.5299 116.713 41.8974" stroke="black" stroke-width="0.5" stroke-linecap="round" stroke-linejoin="round"/>
<path d="M116.234 42.6098L117.512 43.0625" stroke="black" stroke-width="0.5" stroke-linecap="round" stroke-linejoin="round"/>
<path fill-rule="evenodd" clip-rule="evenodd" d="M115.548 37.5434C115.488 37.57 115.428 37.59 115.361 37.61C113.75 38.056 111.946 36.6513 111.334 34.4676C110.821 32.6435 111.307 30.846 112.419 30.0471L112.439 30.0337L112.459 30.0138C117.232 26.685 119.263 23.3762 122.259 18.4763L129.422 35.4596C129.422 35.4596 125.747 35.4996 123.137 35.6926C120.821 35.8657 116.493 37.2372 115.548 37.5434Z" fill="#50AA75"/>
<path d="M130.699 35.2651C134.574 34.1811 136.525 29.0479 135.057 23.7997C133.589 18.5516 129.258 15.1759 125.382 16.2599C121.507 17.3439 119.556 22.4771 121.024 27.7253C122.492 32.9734 126.824 36.3491 130.699 35.2651Z" fill="#001EBD"/>
<path fill-rule="evenodd" clip-rule="evenodd" d="M122.745 31.4718C122.012 30.3866 121.413 29.1217 121.027 27.7236C120.927 27.3774 120.847 27.0312 120.781 26.6917L124.695 24.8076L126.726 29.0617L122.745 31.4718Z" fill="black"/>
<path d="M126.202 29.3444C127.143 29.0812 127.617 27.8346 127.261 26.56C126.904 25.2855 125.852 24.4657 124.911 24.7289C123.97 24.9922 123.496 26.2388 123.853 27.5133C124.209 28.7879 125.261 29.6077 126.202 29.3444Z" fill="white"/>
<path d="M93.598 48.7347L93.5315 39.8869M106.174 27.444C106.174 27.444 107.093 38.815 106.274 42.0106C105.455 45.2129 101.634 45.1396 101.634 45.1396L101.907 48.8878L106.174 27.444Z" stroke="black" stroke-width="0.5" stroke-linecap="round" stroke-linejoin="round"/>
<path d="M117.239 75.205C117.239 75.205 116.613 71.6233 116.64 66.8099C116.66 62.0032 116.786 55.359 116.786 55.359L116.819 53.0954L120.281 51.3312" stroke="black" stroke-width="0.5" stroke-linecap="round" stroke-linejoin="round"/>
<path d="M81.721 61.7701L80.7224 66.7566" stroke="black" stroke-width="0.5" stroke-linecap="round" stroke-linejoin="round"/>
<path d="M130.7 35.2666C126.826 36.3451 122.492 32.9697 121.027 27.7236C119.929 23.8023 120.741 19.941 122.838 17.7906" stroke="black" stroke-width="0.5" stroke-linecap="round" stroke-linejoin="round"/>
<path d="M125.814 17.937C129.009 17.0383 132.578 19.8211 133.789 24.1485C134.994 28.4692 133.39 32.7034 130.194 33.5955" stroke="white" stroke-width="0.5" stroke-linecap="round" stroke-linejoin="round"/>
<path d="M113.764 33.9217L118.51 31.4185" stroke="black" stroke-width="0.5" stroke-linecap="round" stroke-linejoin="round"/>
<path d="M114.736 31.5783C114.736 31.5783 115.621 31.1789 116.766 30.2335C117.905 29.2881 118.584 28.376 118.584 28.376" stroke="black" stroke-width="0.5" stroke-linecap="round" stroke-linejoin="round"/>
<path d="M97.546 23.6292C97.546 23.6292 98.9108 23.5227 100.209 22.9701C101.507 22.4175 102.033 21.6719 102.033 21.6719" stroke="white" stroke-width="0.5" stroke-linecap="round" stroke-linejoin="round"/>
<path d="M100.662 24.1751C100.662 24.1751 102.273 23.6425 103.238 23.2631C104.197 22.8769 104.896 22.4908 104.896 22.4908" stroke="white" stroke-width="0.5" stroke-linecap="round" stroke-linejoin="round"/>
<path d="M102.266 25.2204C102.266 25.2204 103.092 25.0939 103.737 25.1471C104.383 25.2004 105.189 25.3801 105.189 25.3801" stroke="white" stroke-width="0.5" stroke-linecap="round" stroke-linejoin="round"/>
<path d="M93.2385 29.5211C93.2985 30.7062 93.0122 31.7847 92.8258 33.1495" stroke="white" stroke-width="0.5" stroke-linecap="round" stroke-linejoin="round"/>
<path d="M91.8671 29.4745C91.8604 29.8141 91.7606 31.4785 91.674 31.9977" stroke="white" stroke-width="0.5" stroke-linecap="round" stroke-linejoin="round"/>
<path d="M90.1894 31.7314L90.0629 32.9897" stroke="white" stroke-width="0.5" stroke-linecap="round" stroke-linejoin="round"/>
<path d="M135.041 16.9384L137.451 13.5165L138.776 15.0943L142.491 11.8188" stroke="#50AA75" stroke-width="0.5" stroke-linecap="round" stroke-linejoin="round"/>
<path d="M137.325 31.6981L141.985 31.6582L141.346 29.7009L145.673 30.0404" stroke="#50AA75" stroke-width="0.5" stroke-linecap="round" stroke-linejoin="round"/>
<path d="M138.47 23.7158L143.17 21.9981" stroke="#50AA75" stroke-width="0.5" stroke-linecap="round" stroke-linejoin="round"/>
<path fill-rule="evenodd" clip-rule="evenodd" d="M102.572 95.8699C102.572 95.8699 101.487 98.9723 101.154 100.464C100.815 101.955 100.429 104.525 100.429 104.525C100.429 104.525 96.7737 109.285 96.6339 109.598C96.4874 109.911 99.0106 111.329 99.0106 111.329C99.0106 111.329 98.5512 113.06 98.5512 113.299C98.5512 113.546 102.353 114.651 102.472 114.964C102.592 115.277 99.1304 116.908 98.964 117.367C98.7975 117.82 99.8295 118.619 99.8295 118.619C99.8295 118.619 98.7443 121.961 99.47 122.413C100.189 122.873 106.008 123.093 106.008 123.093L105.748 130.855L119.835 128.791C119.835 128.791 119.016 121.475 119.016 119.937C119.016 118.399 125.081 109.891 122.099 101.522C119.116 93.1536 102.572 95.8699 102.572 95.8699Z" fill="white" stroke="black" stroke-width="0.5" stroke-linecap="round" stroke-linejoin="round"/>
<path fill-rule="evenodd" clip-rule="evenodd" d="M85.9153 152.059C87.1069 148.498 91.0881 139.696 94.3304 137.047C97.5726 134.397 99.6297 133.991 103.285 132.839L104.357 129.444C104.357 129.444 104.696 128.392 105.562 128.006C106.301 127.673 120.195 124.903 120.914 126.228C121.247 126.841 122.112 128.658 122.305 129.51C126.246 129.337 129.808 130.223 132.518 132.999C137.684 138.292 137.085 145.495 137.531 152.059H85.9153Z" fill="#D7F0F7"/>
<path d="M105.315 132.1C105.315 132.1 110.681 130.848 114.476 130.296C118.277 129.743 121.859 129.577 121.859 129.577" stroke="#6CA3B7" stroke-width="0.5" stroke-linecap="round" stroke-linejoin="round"/>
<path fill-rule="evenodd" clip-rule="evenodd" d="M57.9071 83.973C60.0042 83.9663 64.7111 83.6334 66.6817 80.9438C69.2582 77.4353 66.6151 73.5872 61.156 73.4408C48.4534 73.1079 48.3935 82.8478 55.3839 83.8664L56.5357 86.3763L57.9071 83.973Z" fill="white" stroke="black" stroke-width="0.5" stroke-linecap="round" stroke-linejoin="round"/>
<path fill-rule="evenodd" clip-rule="evenodd" d="M55.8566 78.6669C56.2227 78.6669 56.5157 78.9665 56.5157 79.3393C56.5157 79.7188 56.2227 80.0184 55.8566 80.0184C55.4838 80.0184 55.1908 79.7188 55.1908 79.3393C55.1908 78.9665 55.4838 78.6669 55.8566 78.6669ZM62.8736 77.6217C63.2398 77.6217 63.5327 77.9279 63.5327 78.3008C63.5327 78.6736 63.2398 78.9798 62.8736 78.9798C62.5074 78.9798 62.2078 78.6736 62.2078 78.3008C62.2078 77.9279 62.5074 77.6217 62.8736 77.6217ZM59.2919 78.2076C59.658 78.2076 59.9576 78.5072 59.9576 78.88C59.9576 79.2528 59.658 79.559 59.2919 79.559C58.9257 79.559 58.6328 79.2528 58.6328 78.88C58.6328 78.5072 58.9257 78.2076 59.2919 78.2076Z" fill="black"/>
<path fill-rule="evenodd" clip-rule="evenodd" d="M118.271 85.4975C116.174 85.4909 111.467 85.158 109.49 82.4684C106.92 78.9532 109.563 75.1051 115.022 74.9653C127.724 74.6258 127.784 84.3724 120.794 85.391L119.642 87.9009L118.271 85.4975Z" fill="white" stroke="black" stroke-width="0.5" stroke-linecap="round" stroke-linejoin="round"/>
<path fill-rule="evenodd" clip-rule="evenodd" d="M120.321 80.1915C119.955 80.1915 119.662 80.4911 119.662 80.8639C119.662 81.2367 119.955 81.5429 120.321 81.5429C120.687 81.5429 120.987 81.2367 120.987 80.8639C120.987 80.4911 120.687 80.1915 120.321 80.1915ZM113.304 79.1462C112.938 79.1462 112.645 79.4458 112.645 79.8253C112.645 80.1981 112.938 80.4977 113.304 80.4977C113.67 80.4977 113.97 80.1981 113.97 79.8253C113.97 79.4458 113.67 79.1462 113.304 79.1462ZM116.886 79.7254C116.52 79.7254 116.22 80.0317 116.22 80.4045C116.22 80.7773 116.52 81.0836 116.886 81.0836C117.252 81.0836 117.545 80.7773 117.545 80.4045C117.545 80.0317 117.252 79.7254 116.886 79.7254Z" fill="black"/>
<path fill-rule="evenodd" clip-rule="evenodd" d="M107.645 90.018C107.645 90.018 101.727 91.5026 100.915 92.4213C100.096 93.3334 101.534 97.6608 103.558 99.2985C105.575 100.93 109.569 103.093 109.569 103.093C109.569 103.093 109.183 105.33 109.423 106.369C109.663 107.401 109.929 109.851 109.929 109.851C109.929 109.851 110.868 109.851 110.868 109.298C110.868 108.746 111.853 105.643 113.897 105.67C115.941 105.69 116.613 109.491 115.461 111.202C114.303 112.907 112.239 113.486 112.239 113.486C112.239 113.486 112.492 121.395 113.511 122.287C114.536 123.172 115.328 121.408 115.328 121.408C115.328 121.408 116.313 122.553 117.026 122.334C117.732 122.114 118.164 120.989 118.164 120.989C118.164 120.989 118.324 122.034 119.536 121.868C120.747 121.694 126.087 111.282 127.771 107.434C129.455 103.586 124.842 96.762 122.052 94.5451C119.263 92.3348 110.462 89.3056 107.645 90.018Z" fill="#50AA75"/>
<path d="M112.272 112.048C112.272 112.048 111.78 109.897 112.512 108.612C113.251 107.328 114.283 107.121 114.283 107.121" stroke="black" stroke-width="0.5" stroke-linecap="round" stroke-linejoin="round"/>
<path d="M114.043 110.164L112.346 108.985" stroke="black" stroke-width="0.5" stroke-linecap="round" stroke-linejoin="round"/>
<path d="M103.271 107.301C103.716 107.301 104.077 106.86 104.077 106.316C104.077 105.771 103.716 105.33 103.271 105.33C102.827 105.33 102.466 105.771 102.466 106.316C102.466 106.86 102.827 107.301 103.271 107.301Z" fill="black"/>
<path d="M102.279 103.393C102.279 103.393 103.464 103.3 104.27 103.613C105.076 103.926 105.309 104.119 105.309 104.119" stroke="black" stroke-width="0.5" stroke-linecap="round" stroke-linejoin="round"/>
<path d="M106.72 96.1495C106.72 96.1495 107.199 98.22 109.649 99.951C112.106 101.682 114.609 102.594 114.609 102.594" stroke="white" stroke-width="0.5" stroke-linecap="round" stroke-linejoin="round"/>
<path d="M111.434 97.0616C111.434 97.0616 112.685 98.6528 114.463 99.6581C116.24 100.67 116.533 100.863 116.533 100.863" stroke="white" stroke-width="0.5" stroke-linecap="round" stroke-linejoin="round"/>
<path d="M119.176 109.857C119.176 109.857 118.89 111.488 117.971 113.752C117.059 116.009 116.866 117.121 116.866 117.121" stroke="white" stroke-width="0.5" stroke-linecap="round" stroke-linejoin="round"/>
<path d="M119.849 114.471C119.849 114.471 120.448 113.246 120.787 112.334C121.12 111.422 121.653 110.05 121.653 110.05" stroke="white" stroke-width="0.5" stroke-linecap="round" stroke-linejoin="round"/>
<path d="M123.843 111.662L124.369 109.684" stroke="white" stroke-width="0.5" stroke-linecap="round" stroke-linejoin="round"/>
<path fill-rule="evenodd" clip-rule="evenodd" d="M47.8942 102.354C47.8942 102.354 48.6132 93.653 58.5662 93.0272C68.5258 92.4014 69.3913 95.9565 70.0637 99.8045C70.7361 103.653 70.8559 105.457 70.8559 105.457C70.8559 105.457 72.4538 108.406 72.9131 108.945C73.3725 109.485 73.5656 109.844 73.5656 109.844L70.8426 110.903L71.1822 113.306C71.1822 113.306 67.8601 114.271 67.3807 114.704C66.9014 115.137 68.2129 115.57 69.1982 115.823C70.1835 116.075 70.6962 116.149 70.7694 116.475C70.8426 116.801 70.1303 117.46 70.1303 117.46C70.1303 117.46 70.7494 120.589 70.1236 121.188C69.4978 121.788 65.9627 121.481 65.9627 121.481L65.8229 126.315L54.1589 125.542L54.9245 115.829C54.9245 115.829 46.556 114.91 47.8942 102.354Z" fill="white" stroke="black" stroke-width="0.5" stroke-linecap="round" stroke-linejoin="round"/>
<path fill-rule="evenodd" clip-rule="evenodd" d="M33.6471 152.059C34.6457 147.812 38.1076 134.111 41.7959 131.188C43.7931 129.61 46.7957 128.811 50.0446 128.452L51.6357 124.697C51.6357 124.697 52.3547 123.425 54.4918 123.186C56.6355 122.946 61.9748 123.499 64.4048 124.364C66.8282 125.23 67.6004 125.636 67.8135 126.767C67.9333 127.367 67.9466 128.325 67.9333 129.091C72.3872 129.77 76.8144 131.168 79.311 134.657C82.0339 138.458 82.9793 147.419 83.2989 152.059H33.6471Z" fill="#D7F0F7"/>
<path d="M51.6091 128.086C51.6091 128.086 56.7287 127.779 60.3371 128.066C63.9454 128.352 67.1677 128.905 67.1677 128.905" stroke="#6CA3B7" stroke-width="0.5" stroke-linecap="round" stroke-linejoin="round"/>
<path fill-rule="evenodd" clip-rule="evenodd" d="M58.0536 107.574C58.0536 107.574 56.489 106.083 54.9978 107.075C53.5065 108.06 53.7461 110.363 54.6649 111.835C55.577 113.299 57.5942 113.612 57.5942 113.612C57.5942 113.612 58.919 117.727 57.9603 118.972C56.995 120.223 54.9045 119.404 54.9045 119.404C54.9045 119.404 53.1936 120.969 51.2962 120.203C49.3988 119.431 48.7929 117.82 48.7929 117.82C48.7929 117.82 46.5627 117.653 46.2964 114.764C46.0301 111.881 45.6439 111.595 43.893 109.092C42.1354 106.589 43.1673 103.826 44.5388 102.887C45.9102 101.948 46.4628 100.337 46.6293 97.2347C46.8024 94.1323 49.9048 93.2469 51.1763 93.2202C52.4479 93.1936 55.1908 92.7609 56.5889 90.9367C57.9803 89.1059 60.3371 88.9661 61.7818 90.4773C63.2264 91.9952 66.6151 90.0712 68.153 90.717C69.6909 91.3694 70.0571 92.3281 70.1769 94.1123C70.2967 95.8899 71.2088 97.2081 68.1796 97.4544C65.1505 97.6941 61.6153 98.2933 61.6153 100.384C61.6153 102.474 60.124 102.694 60.5568 104.711C60.9895 106.735 60.1507 107.288 59.931 108.246C59.7179 109.212 60.4569 110.676 59.6913 110.29C58.919 109.911 58.9124 108.093 58.0536 107.574Z" fill="black" stroke="black" stroke-width="0.5" stroke-linecap="round" stroke-linejoin="round"/>
<path d="M68.2262 106.389C68.6233 106.389 68.9453 105.969 68.9453 105.45C68.9453 104.932 68.6233 104.511 68.2262 104.511C67.8291 104.511 67.5072 104.932 67.5072 105.45C67.5072 105.969 67.8291 106.389 68.2262 106.389Z" fill="black"/>
<path d="M65.45 104.052C65.45 104.052 66.2556 103.04 67.1477 102.707C68.0332 102.368 68.4593 102.348 68.4593 102.348" stroke="black" stroke-width="0.5" stroke-linecap="round" stroke-linejoin="round"/>
<path d="M55.6902 107.913C55.6902 107.913 57.0217 108.166 57.5409 109.584C58.0536 111.002 57.5875 112.421 57.5875 112.421" stroke="black" stroke-width="0.5" stroke-linecap="round" stroke-linejoin="round"/>
<path d="M55.7101 110.776L57.5409 109.584" stroke="black" stroke-width="0.5" stroke-linecap="round" stroke-linejoin="round"/>
<path d="M53.9858 123.266L53.1137 128.019" stroke="#6CA3B7" stroke-width="0.5" stroke-linecap="round" stroke-linejoin="round"/>
<path d="M56.8485 123.152L55.9764 127.946" stroke="#6CA3B7" stroke-width="0.5" stroke-linecap="round" stroke-linejoin="round"/>
<path d="M59.4982 123.379L58.9323 127.986" stroke="#6CA3B7" stroke-width="0.5" stroke-linecap="round" stroke-linejoin="round"/>
<path d="M61.9615 124.637L61.7884 128.199" stroke="#6CA3B7" stroke-width="0.5" stroke-linecap="round" stroke-linejoin="round"/>
<path d="M64.4048 124.364L64.4314 128.505" stroke="#6CA3B7" stroke-width="0.5" stroke-linecap="round" stroke-linejoin="round"/>
<path d="M68.1131 140.921C67.6137 145.961 67.9067 152.059 67.9067 152.059" stroke="black" stroke-width="0.5" stroke-linecap="round" stroke-linejoin="round"/>
<path d="M58.1401 96.316C58.1401 96.316 59.2719 94.8047 60.883 94.5384C62.4941 94.2721 63.3862 94.9911 63.3862 94.9911" stroke="white" stroke-width="0.5" stroke-linecap="round" stroke-linejoin="round"/>
<path d="M52.2549 101.868C52.2549 101.868 52.0818 103 50.5173 104.418C48.9594 105.836 50.4507 107.953 50.4507 107.953" stroke="white" stroke-width="0.5" stroke-linecap="round" stroke-linejoin="round"/>
<path d="M48.2337 105.863C48.2337 105.863 47.6745 108.166 48.3069 109.345C48.9328 110.53 49.6318 110.816 49.6318 110.816" stroke="white" stroke-width="0.5" stroke-linecap="round" stroke-linejoin="round"/>
<path d="M54.3653 96.2893C54.3653 96.2893 55.2108 96.1229 56.1229 94.9911C57.035 93.866 57.3479 93.5531 57.3479 93.5531" stroke="white" stroke-width="0.5" stroke-linecap="round" stroke-linejoin="round"/>
<path d="M149.148 145.149L150.713 136.854" stroke="white" stroke-width="0.5" stroke-linecap="round" stroke-linejoin="round"/>
<path fill-rule="evenodd" clip-rule="evenodd" d="M148.682 90.1511C148.682 90.1511 149.208 92.6544 151.445 95.9698C153.682 99.2919 155.293 100.304 155.293 100.304C155.293 100.304 155.14 101.356 155.513 102.155C155.886 102.947 155.606 103.653 155.906 103.832C156.205 104.019 156.751 101.083 158.662 101.216C160.573 101.349 160.719 104.199 159.514 105.756C158.309 107.321 156.751 107.248 156.751 107.248C156.751 107.248 155.56 117.653 154.115 123.472C152.67 129.291 149.428 138.858 148.969 139.41C148.516 139.969 152.843 140.276 154.98 140.036C157.124 139.796 162.403 140.076 165.865 136.734C169.327 133.392 170.239 130.502 170.239 130.502C170.239 130.502 169.713 133.545 169.168 135.262C168.628 136.987 168.049 138.292 167.836 138.558C167.616 138.824 171.311 139.224 173.355 135.036C175.399 130.855 176.311 124.384 175.159 116.854C174.001 109.331 173.934 100.863 170.732 95.3373C167.536 89.805 158.302 84.8984 148.682 90.1511Z" fill="#50AA75"/>
<path d="M155.34 138.764C155.34 138.764 157.071 137.273 158.902 133.711C160.732 130.156 162.17 125.922 162.17 125.922" stroke="white" stroke-width="0.5" stroke-linecap="round" stroke-linejoin="round"/>
<path d="M171.744 125.01C171.684 126.834 171.058 128.379 170.419 130.056" stroke="white" stroke-width="0.5" stroke-linecap="round" stroke-linejoin="round"/>
<path d="M153.596 91.8022C153.596 91.8022 154.627 94.3254 155.979 95.9831C157.324 97.6408 160.4 98.6528 160.4 98.6528" stroke="white" stroke-width="0.5" stroke-linecap="round" stroke-linejoin="round"/>
<path d="M156.864 92.9073C156.864 92.9073 157.517 94.2788 158.715 95.091C159.92 95.9099 162.037 96.3226 162.037 96.3226" stroke="white" stroke-width="0.5" stroke-linecap="round" stroke-linejoin="round"/>
<path d="M79.9901 100.876C79.9901 100.876 81.1219 102.028 81.5746 102.488C82.0339 102.947 82.3202 103.4 82.3202 103.4" stroke="white" stroke-width="0.5" stroke-linecap="round" stroke-linejoin="round"/>
<path d="M80.1565 104.292L81.3083 105.617" stroke="white" stroke-width="0.5" stroke-linecap="round" stroke-linejoin="round"/>
<path d="M155.546 109.085C155.699 110.809 153.995 111.815 152.164 112.367" stroke="black" stroke-width="0.5" stroke-linecap="round" stroke-linejoin="round"/>
</svg>
