<svg width="219" height="165" viewBox="0 0 219 165" fill="none" xmlns="http://www.w3.org/2000/svg">
<path d="M59.5593 147.742V136.617" stroke="#50AA75" stroke-width="0.5" stroke-linecap="round" stroke-linejoin="round"/>
<path d="M34.8395 147.329V107.549" stroke="#50AA75" stroke-width="0.5" stroke-linecap="round" stroke-linejoin="round"/>
<path fill-rule="evenodd" clip-rule="evenodd" d="M171.674 127.709C171.674 127.709 174.064 139.373 172.553 147.642H103.546C104.379 145.984 106.935 142.182 114.152 138.288C123.772 133.095 140.796 131.557 140.796 131.557L171.674 127.709Z" fill="black" stroke="black" stroke-width="0.2" stroke-linecap="round" stroke-linejoin="round"/>
<path fill-rule="evenodd" clip-rule="evenodd" d="M96.0366 50.9127C98.6131 47.4041 95.9634 43.556 90.5041 43.4095C82.0822 43.1898 79.226 47.3974 80.2846 50.5532L78.8532 53.1496L81.8292 52.6636C82.5748 53.2429 83.5602 53.6689 84.7386 53.842C88.3537 53.9952 93.7064 54.095 96.0366 50.9127Z" fill="white" stroke="black" stroke-width="0.5" stroke-linecap="round" stroke-linejoin="round"/>
<path fill-rule="evenodd" clip-rule="evenodd" d="M85.2046 48.6358C85.5708 48.6358 85.8704 48.942 85.8704 49.3148C85.8704 49.6877 85.5708 49.9939 85.2046 49.9939C84.8385 49.9939 84.5455 49.6877 84.5455 49.3148C84.5455 48.942 84.8385 48.6358 85.2046 48.6358ZM92.2218 47.5972C92.588 47.5972 92.8876 47.8968 92.8876 48.2696C92.8876 48.6424 92.588 48.9487 92.2218 48.9487C91.8556 48.9487 91.5627 48.6424 91.5627 48.2696C91.5627 47.8968 91.8556 47.5972 92.2218 47.5972ZM88.6466 48.1764C89.0128 48.1764 89.3124 48.4826 89.3124 48.8555C89.3124 49.2283 89.0128 49.5345 88.6466 49.5345C88.2805 49.5345 87.9809 49.2283 87.9809 48.8555C87.9809 48.4826 88.2805 48.1764 88.6466 48.1764Z" fill="black"/>
<path fill-rule="evenodd" clip-rule="evenodd" d="M111.396 39.1619C109.418 49.0885 119.758 55.5531 126.895 50.5332C127.76 50.9393 129.671 51.8248 129.817 51.8048C129.964 51.7848 129.771 49.2749 129.678 48.1897C134.564 43.3563 135.317 37.9236 132.66 33.9224C125.949 23.8027 113.5 28.5963 111.396 39.1619Z" fill="white" stroke="black" stroke-width="0.5" stroke-linecap="round" stroke-linejoin="round"/>
<path fill-rule="evenodd" clip-rule="evenodd" d="M175.802 56.5584C175.802 56.5584 175.609 54.4146 174.164 54.368C172.726 54.3214 173.059 57.1309 173.492 58.529C173.924 59.9205 173.998 60.2134 173.998 60.2134C173.998 60.2134 178.112 59.1748 178.232 57.3506C178.352 55.5198 175.802 56.5584 175.802 56.5584Z" fill="#50AA75"/>
<path d="M123.113 34.6946C123.113 34.6946 123.466 32.8105 121.782 33.1834C120.104 33.5562 119.625 45.0872 121.282 45.9194C122.947 46.7517 122.9 43.283 122.9 43.283" stroke="#50AA75" stroke-width="0.5" stroke-linecap="round" stroke-linejoin="round"/>
<path d="M119.565 35.5468C119.565 35.5468 117.634 34.2819 117.321 35.4004C117.015 36.5255 121.349 41.1259 123.939 43.2031C126.535 45.2737 126.762 44.2417 126.369 43.283C125.976 42.331 125.477 41.7717 125.477 41.7717" stroke="#50AA75" stroke-width="0.5" stroke-linecap="round" stroke-linejoin="round"/>
<path d="M126.162 36.6253C126.162 36.6253 127.92 35.8997 127.341 34.6147C126.762 33.3298 123.28 35.6334 120.37 38.0368C117.468 40.4402 115.996 42.8502 115.976 44.2217C115.956 45.5865 119.045 43.0167 119.045 43.0167" stroke="#50AA75" stroke-width="0.5" stroke-linecap="round" stroke-linejoin="round"/>
<path d="M116.575 40.2804C116.575 40.2804 113.666 39.3816 116.096 38.5561C118.533 37.7305 124.771 37.664 127.527 38.3497C130.29 39.0354 128.526 40.0873 127.76 40.1939C126.988 40.3004 125.683 40.5068 125.683 40.5068" stroke="#50AA75" stroke-width="0.5" stroke-linecap="round" stroke-linejoin="round"/>
<path d="M123.193 40.9395L123.4 37.1047" stroke="#50AA75" stroke-width="0.5" stroke-linecap="round" stroke-linejoin="round"/>
<path fill-rule="evenodd" clip-rule="evenodd" d="M34.8328 107.523L59.7457 138.015L166.421 116.857L135.35 87.9026L34.8328 107.523Z" fill="#50AA75" stroke="#50AA75" stroke-width="0.5" stroke-linecap="round" stroke-linejoin="round"/>
<path fill-rule="evenodd" clip-rule="evenodd" d="M59.7857 58.6489C59.7857 58.6489 57.4488 58.6023 56.1573 59.3746C54.8723 60.1402 53.7539 62.0243 53.7539 62.0243C53.7539 62.0243 49.0136 63.742 45.8645 66.738C43.8739 68.9217 42.7887 72.4702 42.7887 72.4702C40.8646 78.6285 37.1297 89.8733 38.854 95.7853C41.5837 105.126 60.1652 106.517 68.0212 105.259L68.4806 100.692L73.8267 99.6001C73.8267 99.6001 72.9545 89.2674 73.5337 88.3553C74.1063 87.4432 75.1182 86.2382 75.1182 86.2382C75.1182 86.2382 76.1768 88.8347 78.3405 90.8586C80.5043 92.8759 81.9956 93.1622 81.9956 93.1622L86.3697 88.0691C86.3697 88.0691 82.6214 80.759 79.2526 71.3317C75.8905 61.9045 67.5152 61.4718 67.5152 61.4718C67.5152 61.4718 65.7176 58.2495 59.7857 58.6489Z" fill="black"/>
<path fill-rule="evenodd" clip-rule="evenodd" d="M80.198 86.0051L100.417 80.9254L92.8542 106.005L73.3939 110.825L77.5083 95.4989L80.198 86.0051Z" fill="#D7F0F7"/>
<path d="M53.9403 62.4837C53.9403 62.4837 54.4463 64.5742 55.8843 66.2852C57.329 67.9896 58.7738 69.0215 58.7738 69.0215C59.6925 67.943 61.4701 66.1121 63.1079 65.9856" stroke="white" stroke-width="0.5" stroke-linecap="round" stroke-linejoin="round"/>
<path d="M67.8747 62.1641C68.6537 63.6621 69.6923 65.8525 69.8321 67.3637C69.8321 67.3637 67.2489 65.726 66.0838 65.4996C65.5512 65.3997 65.1451 65.473 64.8522 65.5928" stroke="white" stroke-width="0.5" stroke-linecap="round" stroke-linejoin="round"/>
<path d="M51.8165 75.6125L48.7739 91.6242C56.1639 94.234 61.49 95.3325 68.0678 97.1101" stroke="white" stroke-width="0.5" stroke-linecap="round" stroke-linejoin="round"/>
<path d="M45.5583 92.736C45.5583 92.736 46.3639 92.2101 47.1095 91.9504C47.8552 91.6908 48.7806 91.5976 48.7806 91.5976" stroke="white" stroke-width="0.5" stroke-linecap="round" stroke-linejoin="round"/>
<path d="M72.9212 71.4781C72.9212 71.4781 73.4205 75.6325 75.2048 79.1944C76.9824 82.7562 75.5643 85.3261 75.5643 85.3261" stroke="white" stroke-width="0.5" stroke-linecap="round" stroke-linejoin="round"/>
<path d="M65.8242 74.7005C65.8242 74.7005 64.7922 72.0774 64.5259 70.2731C64.2596 68.4689 64.1398 66.6181 64.1398 66.6181" stroke="white" stroke-width="0.5" stroke-linecap="round" stroke-linejoin="round"/>
<path d="M66.1307 70.6514C66.427 70.6989 66.7103 70.4682 66.7635 70.1361C66.8168 69.804 66.6198 69.4963 66.3236 69.4488C66.0273 69.4013 65.744 69.632 65.6907 69.9641C65.6375 70.2961 65.8345 70.6038 66.1307 70.6514Z" fill="white"/>
<path fill-rule="evenodd" clip-rule="evenodd" d="M86.5694 86.2115L92.9474 84.6137L93.8795 81.5246L92.0686 81.984C91.9954 81.5645 91.7091 81.0652 90.7371 81.3115C89.8117 81.5446 89.3456 82.217 89.1259 82.7363L87.4349 83.1624L86.5694 86.2115Z" fill="black" stroke="black" stroke-width="0.2" stroke-linecap="round" stroke-linejoin="round"/>
<path fill-rule="evenodd" clip-rule="evenodd" d="M163.585 51.7449C163.585 51.7449 161.135 46.0726 153.392 46.026C145.649 45.9727 144.131 50.6663 143.432 54.874C142.733 59.0816 139.078 63.1694 139.078 63.1694L141.775 64.2013C141.775 64.2013 141.388 66.0788 141.535 66.0522C141.681 66.0322 144.83 67.7166 144.85 67.8364C144.877 67.9563 141.801 69.3277 141.968 69.7338C142.134 70.1466 142.567 70.0734 142.593 70.4795C142.613 70.8923 141.222 74.1612 144.324 74.1146C147.427 74.0613 148.146 73.6286 148.505 75.5526C148.872 77.4767 148.652 80.4593 148.652 80.4593L158.752 78.6351C158.752 78.6351 158.033 70.7458 158.033 69.3011C158.033 67.8564 166.688 61.0323 163.585 51.7449Z" fill="white" stroke="black" stroke-width="0.5" stroke-linecap="round" stroke-linejoin="round"/>
<path d="M145.163 60.3466C145.527 60.3466 145.822 60.0008 145.822 59.5743C145.822 59.1478 145.527 58.802 145.163 58.802C144.799 58.802 144.504 59.1478 144.504 59.5743C144.504 60.0008 144.799 60.3466 145.163 60.3466Z" fill="black" stroke="black" stroke-width="0.2" stroke-linecap="round" stroke-linejoin="round"/>
<path d="M145.083 56.5784C145.083 56.5784 145.936 56.9379 146.502 57.2907C147.067 57.6369 147.367 57.9498 147.367 57.9498" stroke="black" stroke-width="0.5" stroke-linecap="round" stroke-linejoin="round"/>
<path fill-rule="evenodd" clip-rule="evenodd" d="M160.123 45.5933C160.123 45.5933 155.989 43.9555 151.322 43.7158C146.655 43.4761 141.795 41.5055 140.929 42.7771C140.064 44.0487 141.555 45.2537 141.555 45.2537C141.555 45.2537 138.093 45.4002 138.745 47.1312C139.391 48.8622 141.242 49.1751 141.242 49.1751C141.242 49.1751 139.371 50.8794 140.476 51.4586C141.582 52.0379 147.061 52.2975 148.938 53.2629C150.816 54.2216 150.383 56.6982 150.383 58.336C150.383 59.9738 151.681 59.4412 151.994 61.0989C152.307 62.7633 151.728 62.9497 152.4 63.1961C153.073 63.4357 152.62 59.1083 155.935 59.8007C159.258 60.4997 156.874 65.0336 156.082 65.8658C155.29 66.6913 154.844 66.9576 154.844 66.9576C154.844 66.9576 154.291 72.7631 155.469 74.1346C156.648 75.5061 157.114 74.2344 157.753 74.3743C158.392 74.5141 159.511 74.6872 159.943 73.9415C160.376 73.1958 162.993 65.4796 164.917 62.0643C166.841 58.6489 168.818 47.3908 160.123 45.5933Z" fill="black" stroke="black" stroke-width="0.2" stroke-linecap="round" stroke-linejoin="round"/>
<path d="M154.344 65.4596C154.344 65.4596 153.532 64.3545 154.131 62.7167C154.73 61.0856 156.268 61.1788 156.268 61.1788" stroke="black" stroke-width="0.5" stroke-linecap="round" stroke-linejoin="round"/>
<path d="M155.816 63.489L154.218 62.5103" stroke="black" stroke-width="0.5" stroke-linecap="round" stroke-linejoin="round"/>
<path fill-rule="evenodd" clip-rule="evenodd" d="M120.017 88.0691C120.017 88.0691 119.365 86.3913 119.611 84.201C119.851 82.0106 119.824 77.2637 119.498 75.6126C119.179 73.9682 118.779 72.3104 118.406 72.0441C118.033 71.7778 117.441 72.63 117.394 73.4955C117.348 74.3676 117.228 76.072 117.228 76.072C117.228 76.072 112.92 69.4809 111.982 68.7619C111.05 68.0429 110.47 68.5422 110.47 68.5422C108.3 67.4836 109.305 71.2984 109.698 72.1906C109.698 72.1906 108.726 72.6566 108.919 74.3676C109.112 76.072 108.799 79.3875 109.492 82.47C110.191 85.5458 112.767 88.2422 112.767 88.2422L113.559 93.0756L120.017 88.0691Z" fill="white" stroke="black" stroke-width="0.5" stroke-linecap="round" stroke-linejoin="round"/>
<path d="M114.425 76.6978C113.073 74.1346 111.755 71.0388 110.47 68.5422" stroke="black" stroke-width="0.5" stroke-linecap="round" stroke-linejoin="round"/>
<path d="M111.922 78.1025C111.169 76.3982 110.584 74.2478 109.698 72.1906" stroke="black" stroke-width="0.5" stroke-linecap="round" stroke-linejoin="round"/>
<path d="M110.144 79.7603L108.966 75.0667" stroke="black" stroke-width="0.5" stroke-linecap="round" stroke-linejoin="round"/>
<path fill-rule="evenodd" clip-rule="evenodd" d="M166.428 39.0022C168.618 39.2751 173.592 39.5681 176.022 37.0182C179.184 33.696 176.94 29.3086 171.248 28.4232C157.999 26.3526 156.628 36.5388 163.805 38.5494L164.664 41.3323L166.428 39.0022Z" fill="white" stroke="black" stroke-width="0.5" stroke-linecap="round" stroke-linejoin="round"/>
<path fill-rule="evenodd" clip-rule="evenodd" d="M164.996 33.1701C165.376 33.2167 165.649 33.5762 165.596 33.969C165.549 34.3618 165.196 34.6347 164.81 34.5881C164.431 34.5349 164.158 34.182 164.211 33.7892C164.257 33.3964 164.61 33.1235 164.996 33.1701ZM172.48 33.0303C172.859 33.0769 173.132 33.4364 173.079 33.8292C173.032 34.2153 172.679 34.4949 172.293 34.4483C171.914 34.3951 171.641 34.0356 171.694 33.6494C171.741 33.2566 172.094 32.977 172.48 33.0303ZM168.658 33.1567C169.038 33.2034 169.311 33.5629 169.257 33.9557C169.211 34.3418 168.858 34.6214 168.472 34.5682C168.092 34.5216 167.819 34.1621 167.873 33.7759C167.919 33.3831 168.272 33.1035 168.658 33.1567Z" fill="black"/>
<path fill-rule="evenodd" clip-rule="evenodd" d="M150.516 79.3675C150.516 79.3675 159.457 76.6246 164.078 77.9228C168.692 79.221 171.195 85.619 172.347 93.8878C173.505 102.163 173.552 127.509 173.119 130.105C172.686 132.702 158.738 137.948 148.785 137.176C138.825 136.404 136.708 133.374 136.948 131.31C137.194 129.24 137.241 121.018 137.241 121.018C137.241 121.018 132.574 130.199 123.772 126.737C114.971 123.275 112.082 90.3326 112.082 90.3326C112.082 90.3326 113.14 88.069 116.509 87.2502C119.878 86.4379 120.597 87.2036 120.597 87.2036L127.188 105.432C127.188 105.432 132.527 89.4672 138.246 84.8467C143.972 80.233 150.516 79.3675 150.516 79.3675Z" fill="#D7F0F7"/>
<path d="M123.24 115.485L126.948 106.298" stroke="black" stroke-width="0.5" stroke-linecap="round" stroke-linejoin="round"/>
<path d="M145.01 103.029L138.053 119.693" stroke="black" stroke-width="0.5" stroke-linecap="round" stroke-linejoin="round"/>
<path d="M112.315 92.5896C115.117 90.4258 118.433 88.7947 121.329 89.2341" stroke="#6CA3B7" stroke-width="0.5" stroke-linecap="round" stroke-linejoin="round"/>
<path d="M112.781 89.3606L113.187 91.8639" stroke="#6CA3B7" stroke-width="0.5" stroke-linecap="round" stroke-linejoin="round"/>
<path d="M113.972 88.342L114.532 91.0717" stroke="#6CA3B7" stroke-width="0.5" stroke-linecap="round" stroke-linejoin="round"/>
<path d="M115.437 87.583L116.076 90.2461" stroke="#6CA3B7" stroke-width="0.5" stroke-linecap="round" stroke-linejoin="round"/>
<path d="M117.155 87.1104L117.814 89.567" stroke="#6CA3B7" stroke-width="0.5" stroke-linecap="round" stroke-linejoin="round"/>
<path d="M118.879 86.884L119.618 89.2008" stroke="#6CA3B7" stroke-width="0.5" stroke-linecap="round" stroke-linejoin="round"/>
<path fill-rule="evenodd" clip-rule="evenodd" d="M68.0345 36.9982L69.9453 39.2818C69.9453 39.2818 71.0171 44.4548 70.4912 50.8528C69.9586 57.2508 67.2889 57.597 66.4034 57.7634C65.5113 57.9365 64.5992 57.85 64.5992 57.85C64.5992 57.85 64.5725 60.4198 64.4527 62.4438C64.3329 64.461 64.0199 65.7859 64.0199 65.7859C64.0199 65.7859 60.052 63.9817 58.7537 62.8033C57.4555 61.6249 56.6832 60.0137 56.6832 60.0137C56.6832 60.0137 57.0627 54.3081 56.9961 54.1483C56.9362 53.9819 53.9935 51.7183 53.9935 51.7183C53.9935 51.7183 51.2772 49.0952 51.417 46.2857C51.5635 43.4695 55.6979 37.5774 55.6979 37.5774L68.0345 36.9982Z" fill="white"/>
<path fill-rule="evenodd" clip-rule="evenodd" d="M56.337 33.1235C56.4902 32.0449 56.3104 30.8199 55.2785 29.7414C52.7419 27.0983 47.1894 28.543 46.284 32.5709C45.5317 35.9064 47.9085 39.2285 51.1707 38.6293C49.1801 42.604 50.0056 49.2283 53.5874 52.1777C55.365 53.6423 56.9962 54.1483 56.9962 54.1483L56.1107 51.8381C56.1107 51.8381 52.3092 50.9993 52.0961 47.464C51.8764 43.9288 55.1986 44.8875 56.0841 46.3788C56.0841 46.3788 56.5634 49.0752 57.116 49.2882C57.6752 49.5079 56.6633 47.0779 57.7418 46.6451C58.827 46.2124 57.5554 42.6972 59.8589 40.6067C62.1691 38.5162 64.972 38.5961 66.4633 38.7159C67.7416 38.8158 70.1983 39.7012 70.3447 38.7891C70.3447 38.7891 71.0504 35.0409 64.486 32.6574C60.7045 31.286 58.0214 32.1049 56.337 33.1235Z" fill="black" stroke="black" stroke-width="0.2" stroke-linecap="round" stroke-linejoin="round"/>
<path d="M66.2836 45.7664C66.2836 45.7664 67.2156 49.2084 66.7363 49.8808C66.2636 50.5465 65.2716 50.2137 65.2716 50.2137" stroke="black" stroke-width="0.5" stroke-linecap="round" stroke-linejoin="round"/>
<path d="M62.5704 47.5619C62.2296 47.5839 61.9281 47.2109 61.897 46.7289C61.866 46.2469 62.1172 45.8383 62.4581 45.8164C62.799 45.7945 63.1005 46.1674 63.1315 46.6494C63.1625 47.1314 62.9113 47.54 62.5704 47.5619Z" fill="black"/>
<path d="M68.9402 46.3205C68.5993 46.3424 68.2978 45.9694 68.2668 45.4874C68.2358 45.0054 68.487 44.5969 68.8278 44.5749C69.1687 44.553 69.4702 44.926 69.5012 45.408C69.5323 45.89 69.2811 46.2985 68.9402 46.3205Z" fill="black"/>
<path fill-rule="evenodd" clip-rule="evenodd" d="M64.6524 53.7688C64.9454 55.2867 66.2503 54.5877 66.4234 53.4226C66.8228 50.6663 64.3795 52.3308 64.6524 53.7688Z" fill="black" stroke="black" stroke-width="0.5" stroke-linecap="round" stroke-linejoin="round"/>
<path d="M53.2479 46.7717C53.2479 46.7717 54.4662 47.1179 55.152 48.2097C55.8377 49.3016 55.7378 50.2936 55.7378 50.2936" stroke="black" stroke-width="0.5" stroke-linecap="round" stroke-linejoin="round"/>
<path d="M53.9603 49.2017L54.9523 47.9234" stroke="black" stroke-width="0.5" stroke-linecap="round" stroke-linejoin="round"/>
<path d="M61.2171 44.7277C61.7497 44.1818 63.0946 43.9488 63.8402 43.9488" stroke="black" stroke-width="0.5" stroke-linecap="round" stroke-linejoin="round"/>
<path d="M67.3554 43.5094C67.9413 42.9835 68.7668 42.857 69.5258 43.09" stroke="black" stroke-width="0.5" stroke-linecap="round" stroke-linejoin="round"/>
<path d="M66.9227 51.9114C66.5299 51.8381 66.2103 51.8714 65.7776 51.958" stroke="black" stroke-width="0.5" stroke-linecap="round" stroke-linejoin="round"/>
<path d="M58.6472 55.4C58.6472 55.4 59.546 56.4785 61.0706 57.1443C62.6019 57.8034 64.5992 57.85 64.5992 57.85" stroke="black" stroke-width="0.5" stroke-linecap="round" stroke-linejoin="round"/>
<path d="M56.6832 60.0137C56.6832 60.0137 57.0627 54.3081 56.9961 54.1483C56.9362 53.9819 53.9935 51.7183 53.9935 51.7183C53.9935 51.7183 51.2772 49.0952 51.417 46.2857C51.5635 43.4695 55.6979 37.5774 55.6979 37.5774L68.0345 36.9982L69.9453 39.2818C69.9453 39.2818 71.0171 44.4548 70.4912 50.8528C70.165 54.8141 69.0664 58.2628 64.5992 57.85C64.5992 57.85 64.5925 58.5757 64.5659 59.561" stroke="black" stroke-width="0.5" stroke-linecap="round" stroke-linejoin="round"/>
<path fill-rule="evenodd" clip-rule="evenodd" d="M68.7535 97.6227L68.4806 100.692L68.0811 104.72C68.0811 104.72 72.6682 105.206 76.25 104.92C79.8385 104.627 81.1501 102.563 81.2633 102.469C82.1487 101.73 82.4283 101.557 82.6547 100.585C83.387 99.7399 83.6334 99.0674 82.5815 98.7812C82.5815 98.7812 82.7013 97.696 80.9836 98.1287C79.266 98.5615 76.6961 98.5149 76.6961 98.5149L77.1821 96.704C76.3166 96.6108 75.1449 96.5841 74.093 96.8837C72.109 97.4496 70.4446 97.5562 70.4446 97.5562C69.4459 97.7159 68.7535 97.6227 68.7535 97.6227Z" fill="white"/>
<path d="M75.8506 103.568C76.8359 103.848 79.7919 103.102 81.1767 102.569" stroke="black" stroke-width="0.5" stroke-linecap="round" stroke-linejoin="round"/>
<path d="M76.0637 101.837C78.6069 101.91 80.9437 101.344 82.6547 100.585" stroke="black" stroke-width="0.5" stroke-linecap="round" stroke-linejoin="round"/>
<path d="M76.3699 100.273C78.7 100.213 81.2832 99.7732 82.5815 98.7812" stroke="black" stroke-width="0.5" stroke-linecap="round" stroke-linejoin="round"/>
<path d="M74.7255 97.9357C75.1848 98.4882 76.1835 98.5149 76.6961 98.5149" stroke="black" stroke-width="0.5" stroke-linecap="round" stroke-linejoin="round"/>
<path d="M76.8825 96.6774C76.057 96.6108 75.025 96.6175 74.093 96.8838C72.109 97.4497 70.4446 97.5562 70.4446 97.5562C70.0385 97.6228 69.6789 97.6428 69.3993 97.6494M68.5139 104.76C69.7389 104.873 73.334 105.153 76.25 104.92C79.8385 104.627 81.1501 102.563 81.2632 102.47C82.1487 101.731 82.4283 101.557 82.6547 100.585C83.387 99.7399 83.6334 99.0675 82.5815 98.7812C82.5815 98.7812 82.7013 97.696 80.9836 98.1288C79.266 98.5615 76.6961 98.5149 76.6961 98.5149L68.5139 104.76Z" stroke="black" stroke-width="0.5" stroke-linecap="round" stroke-linejoin="round"/>
<path d="M145.297 80.8189C145.297 80.8189 151.342 81.4447 155.982 80.2929C160.622 79.1411 160.742 77.5766 160.742 77.5766" stroke="#6CA3B7" stroke-width="0.5" stroke-linecap="round" stroke-linejoin="round"/>
<path d="M153.326 46.4721C151.695 46.0327 149.631 45.4135 147.813 45.0806" stroke="white" stroke-width="0.5" stroke-linecap="round" stroke-linejoin="round"/>
<path d="M149.577 47.3841C149.577 47.3841 146.595 47.2576 145.077 47.0712C143.566 46.8782 143.326 46.8049 143.326 46.8049" stroke="white" stroke-width="0.5" stroke-linecap="round" stroke-linejoin="round"/>
<path d="M147.953 48.8954C146.415 48.6957 145.583 48.8688 143.792 49.5545" stroke="white" stroke-width="0.5" stroke-linecap="round" stroke-linejoin="round"/>
<path d="M162.234 56.9578C162.234 56.9578 162.28 58.5423 161.967 60.6595C161.654 62.7766 161.222 63.8352 161.222 63.8352" stroke="white" stroke-width="0.5" stroke-linecap="round" stroke-linejoin="round"/>
<path d="M160.223 54.5944C160.223 54.5944 160.369 56.5451 160.176 57.9631C159.983 59.3812 159.91 59.9338 159.91 59.9338" stroke="white" stroke-width="0.5" stroke-linecap="round" stroke-linejoin="round"/>
<path d="M156.734 55.9658L156.595 57.8167" stroke="white" stroke-width="0.5" stroke-linecap="round" stroke-linejoin="round"/>
<path d="M151.701 71.9575C150.623 73.2691 148.932 73.8217 146.861 74.0414" stroke="black" stroke-width="0.5" stroke-linecap="round" stroke-linejoin="round"/>
<path d="M66.5032 36.3458C66.5032 36.3458 65.6577 35.3072 64.1664 34.688C62.6751 34.0622 61.6898 34.3019 61.6898 34.3019" stroke="white" stroke-width="0.5" stroke-linecap="round" stroke-linejoin="round"/>
<path d="M62.8283 36.459C62.8283 36.459 61.8696 35.9996 60.7111 35.6667C59.5593 35.3272 59.3663 35.3072 59.3663 35.3072" stroke="white" stroke-width="0.5" stroke-linecap="round" stroke-linejoin="round"/>
<path d="M59.9454 37.5175C58.6272 36.9916 58.0746 37.0382 56.7231 37.0382" stroke="white" stroke-width="0.5" stroke-linecap="round" stroke-linejoin="round"/>
<path d="M50.0189 36.9117C50.0189 36.9117 48.7739 36.5988 48.2879 35.0143C47.8086 33.4297 48.0749 32.1781 48.0749 32.1781" stroke="white" stroke-width="0.5" stroke-linecap="round" stroke-linejoin="round"/>
<path d="M51.2972 34.2419C51.2972 34.2419 50.0456 34.0755 49.7127 33.2366C49.3732 32.3911 49.3998 31.7187 49.3998 31.7187" stroke="white" stroke-width="0.5" stroke-linecap="round" stroke-linejoin="round"/>
<path d="M55.405 43.0434C54.7658 43.1832 52.9217 42.1379 52.3624 41.7119" stroke="white" stroke-width="0.5" stroke-linecap="round" stroke-linejoin="round"/>
</svg>
