<svg width="64" height="19" viewBox="0 0 64 19" fill="none" xmlns="http://www.w3.org/2000/svg">
<path d="M0.321023 18V0.545454H7.53125C8.83807 0.545454 9.96591 0.78125 10.9148 1.25284C11.8693 1.71875 12.6051 2.3892 13.1222 3.2642C13.6392 4.13352 13.8977 5.16477 13.8977 6.35795C13.8977 7.56818 13.6335 8.59659 13.1051 9.44318C12.5767 10.2841 11.8267 10.9261 10.8551 11.3693C9.88352 11.8068 8.73295 12.0256 7.40341 12.0256H2.84375V8.7017H6.61932C7.25568 8.7017 7.78693 8.61932 8.21307 8.45455C8.64489 8.28409 8.97159 8.02841 9.19318 7.6875C9.41477 7.34091 9.52557 6.89773 9.52557 6.35795C9.52557 5.81818 9.41477 5.37216 9.19318 5.01989C8.97159 4.66193 8.64489 4.39489 8.21307 4.21875C7.78125 4.03693 7.25 3.94602 6.61932 3.94602H4.53977V18H0.321023ZM10.1477 10.0227L14.4943 18H9.89205L5.63068 10.0227H10.1477ZM21.9398 18.2472C20.5705 18.2472 19.3887 17.9773 18.3944 17.4375C17.4057 16.892 16.6444 16.1165 16.1103 15.1108C15.5819 14.0994 15.3177 12.8977 15.3177 11.5057C15.3177 10.1534 15.5847 8.97159 16.1188 7.96023C16.6529 6.94318 17.4057 6.15341 18.3773 5.59091C19.3489 5.02273 20.4938 4.73864 21.812 4.73864C22.7438 4.73864 23.5961 4.88352 24.3688 5.17329C25.1415 5.46307 25.8091 5.89205 26.3716 6.46023C26.9341 7.02841 27.3716 7.73011 27.6841 8.56534C27.9966 9.39489 28.1529 10.3466 28.1529 11.4205V12.4602H16.775V10.0398H24.275C24.2694 9.59659 24.1643 9.2017 23.9597 8.85511C23.7552 8.50852 23.4739 8.23864 23.116 8.04545C22.7637 7.84659 22.3574 7.74716 21.8972 7.74716C21.4313 7.74716 21.0137 7.85227 20.6444 8.0625C20.275 8.26705 19.9824 8.5483 19.7665 8.90625C19.5506 9.25852 19.437 9.65909 19.4256 10.108V12.571C19.4256 13.1051 19.5307 13.5739 19.741 13.9773C19.9512 14.375 20.2495 14.6847 20.6358 14.9062C21.0222 15.1278 21.4824 15.2386 22.0165 15.2386C22.3858 15.2386 22.7211 15.1875 23.0222 15.0852C23.3233 14.983 23.5819 14.8324 23.7978 14.6335C24.0137 14.4347 24.1756 14.1903 24.2836 13.9006L28.1103 14.0114C27.9512 14.8693 27.6018 15.6165 27.062 16.2528C26.5279 16.8835 25.8262 17.375 24.9569 17.7273C24.0875 18.0739 23.0819 18.2472 21.9398 18.2472ZM33.8384 18.2216C33.0032 18.2216 32.2617 18.0824 31.614 17.804C30.972 17.5199 30.4634 17.0937 30.0884 16.5256C29.7191 15.9517 29.5345 15.233 29.5345 14.3693C29.5345 13.642 29.6623 13.0284 29.918 12.5284C30.1737 12.0284 30.5259 11.6222 30.9748 11.3097C31.4237 10.9972 31.9407 10.7614 32.5259 10.6023C33.1112 10.4375 33.7362 10.3267 34.4009 10.2699C35.1453 10.2017 35.7447 10.1307 36.1992 10.0568C36.6538 9.97727 36.9833 9.86648 37.1879 9.72443C37.3981 9.5767 37.5032 9.36932 37.5032 9.10227V9.05966C37.5032 8.62216 37.3527 8.28409 37.0515 8.04545C36.7504 7.80682 36.3441 7.6875 35.8328 7.6875C35.2816 7.6875 34.8384 7.80682 34.5032 8.04545C34.168 8.28409 33.9549 8.61364 33.864 9.03409L30.0203 8.89773C30.1339 8.10227 30.4265 7.39205 30.8981 6.76705C31.3754 6.13636 32.0288 5.64205 32.8583 5.28409C33.6936 4.92045 34.6964 4.73864 35.8669 4.73864C36.7021 4.73864 37.472 4.83807 38.1765 5.03693C38.8811 5.23011 39.4947 5.5142 40.0174 5.8892C40.5402 6.25852 40.9436 6.71307 41.2277 7.25284C41.5174 7.79261 41.6623 8.40909 41.6623 9.10227V18H37.7419V16.1761H37.6396C37.4066 16.6193 37.1083 16.9943 36.7447 17.3011C36.3867 17.608 35.9634 17.8381 35.4748 17.9915C34.9919 18.1449 34.4464 18.2216 33.8384 18.2216ZM35.1254 15.4943C35.5742 15.4943 35.9777 15.4034 36.3356 15.2216C36.6992 15.0398 36.989 14.7898 37.2049 14.4716C37.4208 14.1477 37.5288 13.7727 37.5288 13.3466V12.1023C37.4095 12.1648 37.2646 12.2216 37.0941 12.2727C36.9294 12.3239 36.7475 12.3722 36.5487 12.4176C36.3498 12.4631 36.1453 12.5028 35.935 12.5369C35.7248 12.571 35.5231 12.6023 35.3299 12.6307C34.9379 12.6932 34.6027 12.7898 34.3242 12.9205C34.0515 13.0511 33.8413 13.2216 33.6936 13.4318C33.5515 13.6364 33.4805 13.8807 33.4805 14.1648C33.4805 14.5966 33.6339 14.9261 33.9407 15.1534C34.2532 15.3807 34.6481 15.4943 35.1254 15.4943ZM48.8585 18.1875C47.8926 18.1875 47.0148 17.9375 46.225 17.4375C45.4352 16.9375 44.8045 16.1875 44.333 15.1875C43.8614 14.1875 43.6256 12.946 43.6256 11.4631C43.6256 9.9233 43.8699 8.65625 44.3585 7.66193C44.8472 6.66761 45.4864 5.93182 46.2761 5.45454C47.0716 4.97727 47.9267 4.73864 48.8415 4.73864C49.529 4.73864 50.117 4.85795 50.6057 5.09659C51.0943 5.32955 51.4977 5.63068 51.8159 6C52.1341 6.36932 52.3756 6.75284 52.5403 7.15057H52.6256V0.545454H56.7932V18H52.6682V15.8778H52.5403C52.3642 16.2812 52.1142 16.6591 51.7903 17.0114C51.4665 17.3636 51.0602 17.6477 50.5716 17.8636C50.0886 18.0795 49.5176 18.1875 48.8585 18.1875ZM50.3074 14.9403C50.8131 14.9403 51.2449 14.7983 51.6028 14.5142C51.9608 14.2244 52.2364 13.8182 52.4295 13.2955C52.6227 12.7727 52.7193 12.1591 52.7193 11.4545C52.7193 10.7386 52.6227 10.1222 52.4295 9.60511C52.242 9.08807 51.9665 8.69034 51.6028 8.41193C51.2449 8.13352 50.8131 7.99432 50.3074 7.99432C49.7903 7.99432 49.3528 8.13636 48.9949 8.42045C48.6369 8.70455 48.3642 9.10511 48.1767 9.62216C47.9949 10.1392 47.904 10.75 47.904 11.4545C47.904 12.1591 47.9977 12.7727 48.1852 13.2955C48.3727 13.8182 48.6426 14.2244 48.9949 14.5142C49.3528 14.7983 49.7903 14.9403 50.3074 14.9403ZM61.6393 18.2472C61.0256 18.2472 60.5 18.0312 60.0625 17.5994C59.6307 17.1676 59.4177 16.6449 59.4233 16.0312C59.4177 15.429 59.6307 14.9148 60.0625 14.4886C60.5 14.0568 61.0256 13.8409 61.6393 13.8409C62.2188 13.8409 62.7302 14.0568 63.1733 14.4886C63.6222 14.9148 63.8495 15.429 63.8552 16.0312C63.8495 16.4403 63.7415 16.8125 63.5313 17.1477C63.3268 17.483 63.0569 17.75 62.7216 17.9489C62.3921 18.1477 62.0313 18.2472 61.6393 18.2472Z" fill="#2B4ED0"/>
</svg>
