<svg width="218" height="165" viewBox="0 0 218 165" fill="none" xmlns="http://www.w3.org/2000/svg">
<g clip-path="url(#clip0_92_2035)">
<path fill-rule="evenodd" clip-rule="evenodd" d="M37.5848 117.793L142.784 88.3734L145.395 23.1981L38.1681 46.083L37.5848 117.793Z" fill="white"/>
<path fill-rule="evenodd" clip-rule="evenodd" d="M38.1681 46.083L145.395 23.1981L145.919 10.1882L38.2874 31.6217L38.1681 46.083Z" fill="#D7F0F7"/>
<path d="M63.1672 26.6643L38.2874 31.6217L37.5848 117.793L142.784 88.3734L145.919 10.1882L93.5744 20.6134" stroke="black" stroke-width="0.5" stroke-linecap="round" stroke-linejoin="round"/>
<path fill-rule="evenodd" clip-rule="evenodd" d="M134.082 98.5997L134.784 95.7896L138.317 94.5569L134.082 98.5997Z" fill="black" stroke="black" stroke-width="0.5" stroke-linecap="round" stroke-linejoin="round"/>
<path fill-rule="evenodd" clip-rule="evenodd" d="M47.9636 52.0809L47.5129 87.2798L71.9288 80.6655L73.0422 45.8643L47.9636 52.0809Z" fill="white" stroke="black" stroke-width="0.5" stroke-linecap="round" stroke-linejoin="round"/>
<path fill-rule="evenodd" clip-rule="evenodd" d="M74.6196 98.0498C74.6196 98.0498 74.2153 96.5652 75.0703 93.5828C75.9319 90.6004 76.1837 87.7506 75.4746 87.1673C74.7721 86.5907 72.7772 86.6106 72.7772 86.6106C72.7772 86.6106 70.1725 80.0626 69.0127 78.8498C67.8529 77.6369 67.1437 79.1016 67.7734 80.5928C68.403 82.0774 68.9862 84.6157 69.0989 85.6297C69.2115 86.6371 69.2248 87.5981 69.2248 87.5981C68.0849 86.9751 66.1297 86.8691 65.8447 88.5061C64.3668 87.8632 63.1208 88.7447 62.7497 90.0105C62.7497 90.0105 60.9072 90.1497 60.6289 91.7668C60.3505 93.3773 61.623 96.1211 62.0803 96.5519C62.5376 96.9761 63.2666 96.817 63.2666 96.817C63.2666 96.817 64.7578 101.741 67.157 101.867C69.5562 101.993 74.6196 98.0498 74.6196 98.0498Z" fill="white" stroke="black" stroke-width="0.5" stroke-linecap="round" stroke-linejoin="round"/>
<path d="M73.2212 87.8102L72.7771 86.6106" stroke="black" stroke-width="0.5" stroke-linecap="round" stroke-linejoin="round"/>
<path fill-rule="evenodd" clip-rule="evenodd" d="M150.916 61.1608C156.284 62.1417 159.207 65.4223 159.731 68.8554L159.737 68.862C161.149 74.84 155.661 80.7783 155.661 80.7783L156.264 91.283L144.6 93.3044L144.494 86.5907C144.494 86.5907 140.458 87.2203 139.775 86.5112C139.092 85.8086 139.245 83.8336 139.066 83.383C138.894 82.9257 138.536 82.634 138.536 82.5081C138.536 82.3822 141.087 80.2746 141.087 80.2746C141.087 80.2746 138.774 79.5191 138.35 79.3004C137.919 79.0883 138.496 77.8357 138.496 77.8357C138.496 77.8357 136.011 77.0802 135.958 76.7024C135.911 76.3246 138.648 72.812 138.748 72.2818C139 70.9894 139.119 69.7302 139.238 68.5505C139.298 67.9739 139.357 67.4172 139.43 66.887C140.027 64.3685 142.327 60.0076 150.916 61.1608Z" fill="white" stroke="black" stroke-width="0.5" stroke-linecap="round" stroke-linejoin="round"/>
<path d="M140.582 73.6911C140.915 73.7837 141.273 73.5384 141.383 73.1433C141.493 72.7481 141.313 72.3527 140.981 72.2602C140.649 72.1676 140.29 72.4129 140.18 72.808C140.07 73.2032 140.25 73.5985 140.582 73.6911Z" fill="black"/>
<path d="M140.173 70.5254C140.173 70.5254 140.981 70.6778 141.591 70.8767C142.194 71.0821 142.559 71.261 142.559 71.261" stroke="black" stroke-width="0.5" stroke-linecap="round" stroke-linejoin="round"/>
<path fill-rule="evenodd" clip-rule="evenodd" d="M155.602 59.6033C155.602 59.6033 152.626 55.713 146.058 58.1917C139.49 60.6637 138.774 61.7109 136.653 62.2411C134.533 62.7713 134.811 66.0785 137.714 66.887C140.617 67.6956 144.302 66.94 145.163 68.809C146.018 70.678 144.984 72.8253 145.846 73.7333C146.701 74.6413 146.853 74.1641 146.88 75.7547C146.906 77.3453 147.284 77.3917 147.715 76.6892C148.139 75.98 148.974 72.9512 151.526 73.7863C154.077 74.6147 151.93 78.419 150.77 79.4263C149.604 80.4337 149.087 80.4868 149.087 80.4868C149.087 80.4868 149.451 85.2984 150.638 85.7026C151.831 86.1069 152.255 84.4368 153.521 84.7151C154.78 84.9935 156.119 84.9471 156.324 83.6282C156.523 82.316 160.513 78.0478 161.679 74.7672C162.839 71.4865 163.999 61.2337 155.602 59.6033Z" fill="#50AA75"/>
<path fill-rule="evenodd" clip-rule="evenodd" d="M136.574 95.624C136.574 95.624 141.975 91.6342 152.838 89.7653C163.694 87.8963 168.645 89.361 172.482 97.8509C176.326 106.334 171.673 147.385 171.673 147.385H133.492L133.293 124.818L127.733 124.613C127.733 124.613 128.747 109.012 130.463 103.809C132.18 98.6064 135.109 96.585 136.574 95.624Z" fill="black"/>
<path fill-rule="evenodd" clip-rule="evenodd" d="M138.138 127.277L142.234 123.99C142.234 123.99 148.026 127.33 152.076 127.933C156.125 128.536 152.579 135.204 152.579 135.204C152.579 135.204 141.922 132.526 139.802 130.253C137.681 127.98 138.138 127.277 138.138 127.277Z" fill="white"/>
<path fill-rule="evenodd" clip-rule="evenodd" d="M162.561 52.8299C164.741 53.1016 169.692 53.3932 172.111 50.8548C175.266 47.5411 173.025 43.1802 167.359 42.2921C154.177 40.2375 152.805 50.3777 159.949 52.3792L160.811 55.1495L162.561 52.8299Z" fill="white" stroke="black" stroke-width="0.5" stroke-linecap="round" stroke-linejoin="round"/>
<path fill-rule="evenodd" clip-rule="evenodd" d="M161.136 47.0241C161.52 47.0705 161.785 47.4284 161.739 47.8194C161.686 48.2104 161.334 48.4821 160.957 48.4357C160.572 48.3827 160.307 48.0315 160.354 47.6404C160.407 47.2494 160.758 46.9711 161.136 47.0241ZM168.585 46.8849C168.969 46.9313 169.234 47.2892 169.188 47.6736C169.135 48.0646 168.784 48.343 168.406 48.2899C168.022 48.2435 167.757 47.8857 167.803 47.4946C167.856 47.1102 168.207 46.8319 168.585 46.8849ZM164.781 47.0042C165.165 47.0572 165.43 47.4151 165.384 47.7995C165.331 48.1905 164.98 48.4689 164.602 48.4159C164.217 48.3695 163.952 48.0116 163.999 47.6206C164.052 47.2362 164.403 46.9578 164.781 47.0042Z" fill="black"/>
<path fill-rule="evenodd" clip-rule="evenodd" d="M142.234 123.99C142.181 125.799 141.969 130.346 141.14 134.435C140.08 139.691 137.204 147.385 137.204 147.385H126.898C126.898 147.385 129.628 135.144 129.575 131.658C129.529 128.172 129.827 124.693 129.827 124.693L133.293 124.818C133.293 124.818 135.6 124.865 137.402 124.666C138.728 124.514 141.074 124.162 142.234 123.99Z" fill="white"/>
<path fill-rule="evenodd" clip-rule="evenodd" d="M158.849 103.69C154.435 99.1696 145.654 93.3308 139.225 92.9331C138.025 93.4368 136.766 94.0068 134.785 95.7896C140.604 96.3198 146.92 100.495 146.92 100.495C149.001 101.907 151.108 103.809 153.647 106.745L158.849 103.69Z" fill="white" stroke="black" stroke-width="0.5" stroke-linecap="round" stroke-linejoin="round"/>
<path fill-rule="evenodd" clip-rule="evenodd" d="M159.273 103.186C159.273 103.186 159.605 95.9885 159.691 94.1924C159.784 92.403 159.187 88.4265 159.187 88.4265C159.187 88.4265 160.818 88.0951 162.733 88.4662C164.655 88.8307 165.55 89.4471 165.55 89.4471C165.55 89.4471 166.173 94.1858 166.067 97.8442C165.967 101.509 165.894 102.57 165.894 102.57L159.273 103.186Z" fill="white" stroke="black" stroke-width="0.5" stroke-linecap="round" stroke-linejoin="round"/>
<path d="M151.168 74.6543C151.168 74.6543 149.942 74.7139 149.339 76.4305C148.729 78.1536 149.06 79.4791 149.06 79.4791" stroke="black" stroke-width="0.5" stroke-linecap="round" stroke-linejoin="round"/>
<path d="M151.102 77.2724L149.339 76.4307" stroke="black" stroke-width="0.5" stroke-linecap="round" stroke-linejoin="round"/>
<path d="M140.391 105.413C140.391 105.413 141.604 108.998 142.062 112.968C142.512 116.932 142.771 122.863 142.771 122.863" stroke="white" stroke-width="0.5" stroke-linecap="round" stroke-linejoin="round"/>
<path d="M51.4298 58.5429L59.4558 56.4751" stroke="black" stroke-width="0.5" stroke-linecap="round" stroke-linejoin="round"/>
<path d="M51.3701 66.8737L59.0846 64.8125" stroke="black" stroke-width="0.5" stroke-linecap="round" stroke-linejoin="round"/>
<path d="M51.2045 71.1683L59.2569 69.0608" stroke="black" stroke-width="0.5" stroke-linecap="round" stroke-linejoin="round"/>
<path d="M51.1249 75.801L59.078 73.488" stroke="black" stroke-width="0.5" stroke-linecap="round" stroke-linejoin="round"/>
<path d="M51.0321 80.8113L58.9852 78.4121" stroke="black" stroke-width="0.5" stroke-linecap="round" stroke-linejoin="round"/>
<path d="M63.9824 62.8972L65.573 64.6867L69.0591 60.0408" stroke="black" stroke-width="0.5" stroke-linecap="round" stroke-linejoin="round"/>
<path d="M64.2342 67.51L65.8248 69.3061L69.3109 64.6602" stroke="black" stroke-width="0.5" stroke-linecap="round" stroke-linejoin="round"/>
<path d="M64.2144 71.8511L65.805 73.6471L69.2844 69.0012" stroke="black" stroke-width="0.5" stroke-linecap="round" stroke-linejoin="round"/>
<path d="M63.8167 76.636L65.4073 78.4321L68.8934 73.7795" stroke="black" stroke-width="0.5" stroke-linecap="round" stroke-linejoin="round"/>
<path d="M69.6092 50.7157C67.6408 47.826 63.6377 50.9542 63.3064 54.7253C62.637 62.4067 71.9421 58.397 69.7749 51.9815" stroke="black" stroke-width="0.5" stroke-linecap="round" stroke-linejoin="round"/>
<path d="M65.2615 57.3036L67.2365 51.2659L68.118 56.0112" stroke="black" stroke-width="0.5" stroke-linecap="round" stroke-linejoin="round"/>
<path d="M65.288 55.0038L68.5488 53.718" stroke="black" stroke-width="0.5" stroke-linecap="round" stroke-linejoin="round"/>
<path d="M62.4382 93.417L63.2666 96.8169" stroke="black" stroke-width="0.5" stroke-linecap="round" stroke-linejoin="round"/>
<path d="M61.782 94.0068L62.8557 95.1136" stroke="black" stroke-width="0.5" stroke-linecap="round" stroke-linejoin="round"/>
<path fill-rule="evenodd" clip-rule="evenodd" d="M79.6631 44.8835L79.2191 79.4793L103.582 73.2163L104.742 38.6669L79.6631 44.8835Z" fill="white" stroke="black" stroke-width="0.5" stroke-linecap="round" stroke-linejoin="round"/>
<path d="M83.1294 51.3454L91.162 49.2776" stroke="black" stroke-width="0.5" stroke-linecap="round" stroke-linejoin="round"/>
<path d="M83.0697 59.6762L90.7842 57.615" stroke="black" stroke-width="0.5" stroke-linecap="round" stroke-linejoin="round"/>
<path d="M82.904 63.9708L90.9631 61.8633" stroke="black" stroke-width="0.5" stroke-linecap="round" stroke-linejoin="round"/>
<path d="M82.8245 68.6035L90.7776 66.2905" stroke="black" stroke-width="0.5" stroke-linecap="round" stroke-linejoin="round"/>
<path d="M82.7317 73.6138L90.6848 71.2146" stroke="black" stroke-width="0.5" stroke-linecap="round" stroke-linejoin="round"/>
<path d="M95.9338 60.3123L97.531 62.1083L101.01 57.4558" stroke="black" stroke-width="0.5" stroke-linecap="round" stroke-linejoin="round"/>
<path d="M95.9139 64.6536L97.5046 66.4496L100.991 61.8037" stroke="black" stroke-width="0.5" stroke-linecap="round" stroke-linejoin="round"/>
<path d="M95.5163 69.4385L97.1069 71.2279L100.593 66.582" stroke="black" stroke-width="0.5" stroke-linecap="round" stroke-linejoin="round"/>
<path d="M101.309 43.5181C99.3404 40.6285 95.3373 43.7567 95.0126 47.5278C94.3366 55.2025 103.642 51.1995 101.474 44.784" stroke="#50AA75" stroke-width="0.5" stroke-linecap="round" stroke-linejoin="round"/>
<path fill-rule="evenodd" clip-rule="evenodd" d="M111.369 37.6859L110.574 71.6256L135.003 65.389L136.441 31.4692L111.369 37.6859Z" fill="white" stroke="black" stroke-width="0.5" stroke-linecap="round" stroke-linejoin="round"/>
<path d="M114.829 44.1478L122.862 42.08" stroke="black" stroke-width="0.5" stroke-linecap="round" stroke-linejoin="round"/>
<path d="M114.769 52.4787L122.484 50.4175" stroke="black" stroke-width="0.5" stroke-linecap="round" stroke-linejoin="round"/>
<path d="M114.604 56.7733L122.663 54.6658" stroke="black" stroke-width="0.5" stroke-linecap="round" stroke-linejoin="round"/>
<path d="M114.524 61.406L122.477 59.093" stroke="black" stroke-width="0.5" stroke-linecap="round" stroke-linejoin="round"/>
<path d="M114.431 66.4163L122.384 64.0171" stroke="black" stroke-width="0.5" stroke-linecap="round" stroke-linejoin="round"/>
<path d="M127.388 48.502L128.979 50.2914L132.465 45.6455" stroke="black" stroke-width="0.5" stroke-linecap="round" stroke-linejoin="round"/>
<path d="M127.64 53.1148L129.231 54.9108L132.717 50.2583" stroke="black" stroke-width="0.5" stroke-linecap="round" stroke-linejoin="round"/>
<path d="M127.216 62.241L128.806 64.0304L132.293 59.3845" stroke="black" stroke-width="0.5" stroke-linecap="round" stroke-linejoin="round"/>
<path d="M133.008 36.3206C131.04 33.431 127.037 36.5592 126.712 40.3303C126.036 48.005 135.341 43.9953 133.174 37.5865" stroke="#50AA75" stroke-width="0.5" stroke-linecap="round" stroke-linejoin="round"/>
<path fill-rule="evenodd" clip-rule="evenodd" d="M110.654 68.6962C110.654 68.6962 105.63 68.0401 103.529 71.0755C101.435 74.1043 100.248 78.346 100.248 78.346C100.248 78.346 96.7755 81.0699 96.7092 81.4675C96.6496 81.8586 99.1018 83.4624 99.1018 83.4624C99.1018 83.4624 98.5318 85.961 98.618 85.9743C98.7107 85.9875 102.091 86.7298 102.091 86.7298C102.091 86.7298 99.3536 88.3867 99.2277 88.5126C99.1018 88.6385 99.4663 89.4935 99.6518 89.6857C99.844 89.8713 98.5914 93.8147 100.765 93.9671C102.939 94.1195 104.835 94.4443 104.835 94.4443L104.808 102.225L115.618 99.4481L114.305 89.699C126.268 82.0176 123.703 70.4658 110.654 68.6962Z" fill="white" stroke="black" stroke-width="0.5" stroke-linecap="round" stroke-linejoin="round"/>
<path d="M102.531 80.2001C102.863 80.2927 103.222 80.0474 103.332 79.6523C103.442 79.2571 103.262 78.8618 102.93 78.7692C102.598 78.6766 102.239 78.9219 102.129 79.317C102.019 79.7122 102.199 80.1076 102.531 80.2001Z" fill="black"/>
<path d="M102.396 76.7024C102.396 76.7024 103.078 76.888 103.655 77.3188C104.238 77.7495 104.669 78.1406 104.669 78.1406" stroke="black" stroke-width="0.5" stroke-linecap="round" stroke-linejoin="round"/>
<path d="M111.018 86.7763C111.018 86.7763 110.667 85.6165 111.323 84.0457C111.979 82.4816 113.543 82.5346 113.543 82.5346" stroke="black" stroke-width="0.5" stroke-linecap="round" stroke-linejoin="round"/>
<path d="M112.834 85.0332L111.509 83.6746" stroke="black" stroke-width="0.5" stroke-linecap="round" stroke-linejoin="round"/>
<path fill-rule="evenodd" clip-rule="evenodd" d="M91.374 134.455L89.2465 147.385H129.655L129.456 137.232C129.456 137.232 131.325 133.547 131.981 130.565C132.637 127.582 132.18 108.998 128.846 102.735C125.512 96.4724 119.654 95.9157 114.146 97.228C110.296 98.1492 102.667 100.807 98.4456 102.311C96.1326 103.133 92.2024 106.162 92.1825 106.175C91.6258 106.719 91.0161 107.355 90.36 108.091C87.3312 111.471 83.5667 116.348 83.5667 116.348L82.5394 117.734L75.0172 97.3937C75.0172 97.3937 71.5112 97.3406 68.7276 98.7059C65.9507 100.071 64.592 102.948 64.592 102.948C64.7842 103.604 65.0096 104.465 65.2681 105.486C65.9507 108.183 66.8587 111.994 67.9986 116.063C69.0921 119.854 74.0363 135.913 80.0475 136.755C86.8672 137.716 91.9174 130.995 91.9174 130.995L91.533 133.302L91.374 134.455Z" fill="#D7F0F7"/>
<path d="M79.2324 122.207L82.5395 117.733" stroke="black" stroke-width="0.5" stroke-linecap="round" stroke-linejoin="round"/>
<path d="M65.2681 105.486C65.2681 105.486 67.2961 102.232 70.5039 100.972C73.0356 99.9716 75.1365 99.7927 75.9053 99.7595" stroke="#6CA3B7" stroke-width="0.5" stroke-linecap="round" stroke-linejoin="round"/>
<path d="M67.3292 99.594L68.2173 102.291" stroke="#6CA3B7" stroke-width="0.5" stroke-linecap="round" stroke-linejoin="round"/>
<path d="M69.1187 98.5269L70.2322 101.078" stroke="#6CA3B7" stroke-width="0.5" stroke-linecap="round" stroke-linejoin="round"/>
<path d="M71.0473 97.884L72.1674 100.403" stroke="#6CA3B7" stroke-width="0.5" stroke-linecap="round" stroke-linejoin="round"/>
<path d="M73.0953 97.5195L74.1093 99.9585" stroke="#6CA3B7" stroke-width="0.5" stroke-linecap="round" stroke-linejoin="round"/>
<path d="M65.7188 101.218L66.4478 103.955" stroke="#6CA3B7" stroke-width="0.5" stroke-linecap="round" stroke-linejoin="round"/>
<path d="M128.084 109.621C129.489 119.317 129.602 128.921 129.456 137.232" stroke="black" stroke-width="0.5" stroke-linecap="round" stroke-linejoin="round"/>
<path d="M98.0811 124.825L91.9175 130.995" stroke="black" stroke-width="0.5" stroke-linecap="round" stroke-linejoin="round"/>
<path fill-rule="evenodd" clip-rule="evenodd" d="M101.932 67.9805C101.932 67.9805 100.083 68.2589 100.765 69.7434C101.448 71.2346 105.06 71.4401 107.028 73.203C107.439 73.5675 107.817 73.9586 108.148 74.3496C107.645 74.3628 107.128 74.5219 107.022 75.0587C106.79 76.1655 109.394 77.0006 109.62 77.7296C109.646 77.8158 109.693 77.8622 109.752 77.8688C109.752 78.2134 109.686 78.5514 109.553 78.8629C108.851 80.5265 108.466 81.4145 108.997 82.0972C109.534 82.7798 109.229 83.1576 109.534 83.3829C109.832 83.6083 110.316 81.3151 112.735 81.3151C115.16 81.3151 115.339 83.4823 114.378 85.6032C113.417 87.724 110.919 88.1548 110.919 88.1548C110.919 88.1548 111.171 91.5017 111.661 92.8669C112.158 94.2322 113.218 94.1262 113.682 93.5231C114.153 92.9133 114.948 94.1262 115.744 93.6888C116.539 93.2447 116.234 90.9847 120.071 88.3602C123.909 85.7291 127.547 78.0014 124.77 72.4475C121.993 66.8936 114.597 65.3494 111.661 63.2816C108.732 61.2072 107.93 60.4516 106.869 61.2337C105.802 62.0157 105.829 63.8847 105.829 63.8847C105.829 63.8847 102.17 62.6984 101.309 64.2426C100.454 65.7802 101.932 67.9805 101.932 67.9805Z" fill="black" stroke="black" stroke-width="0.2" stroke-linecap="round" stroke-linejoin="round"/>
<path fill-rule="evenodd" clip-rule="evenodd" d="M97.0605 45.3407L97.5111 49.7812C97.5111 49.7812 100.036 49.2046 100.142 47.7863C100.242 46.3746 97.816 47.2561 97.816 47.2561C97.816 47.2561 99.632 46.8054 99.5325 45.3871C99.4331 43.9754 97.0605 45.3407 97.0605 45.3407Z" stroke="#50AA75" stroke-width="0.5" stroke-linecap="round" stroke-linejoin="round"/>
<path fill-rule="evenodd" clip-rule="evenodd" d="M128.727 38.0902L129.178 42.5372C129.178 42.5372 131.703 41.954 131.809 40.5424C131.908 39.1241 129.482 40.0121 129.482 40.0121C129.482 40.0121 131.298 39.5548 131.199 38.1432C131.1 36.7249 128.727 38.0902 128.727 38.0902Z" stroke="#50AA75" stroke-width="0.5" stroke-linecap="round" stroke-linejoin="round"/>
<path d="M96.1658 54.752L99.062 56.9854" stroke="black" stroke-width="0.5" stroke-linecap="round" stroke-linejoin="round"/>
<path d="M96.2188 57.8468L98.8764 54.0625" stroke="black" stroke-width="0.5" stroke-linecap="round" stroke-linejoin="round"/>
<path d="M127.991 56.7932L130.887 59.0333" stroke="black" stroke-width="0.5" stroke-linecap="round" stroke-linejoin="round"/>
<path d="M128.044 59.8883L130.702 56.104" stroke="black" stroke-width="0.5" stroke-linecap="round" stroke-linejoin="round"/>
<path fill-rule="evenodd" clip-rule="evenodd" d="M54.6177 37.7655C53.6567 37.9643 52.6957 38.1631 51.7479 38.3619C51.5557 38.7994 51.3768 39.2368 51.1978 39.6742C50.7008 39.7736 50.217 39.873 49.7332 39.9791C50.1905 38.9518 50.6544 37.9245 51.1117 36.8972C51.5756 35.8766 52.0329 34.8493 52.4902 33.8221C52.9608 33.7226 53.4313 33.6232 53.9085 33.5305C54.3658 34.3655 54.8231 35.194 55.287 36.029C55.7443 36.8641 56.2083 37.6992 56.6722 38.5343C56.1751 38.6337 55.6714 38.7397 55.1677 38.8457C54.9822 38.4879 54.8032 38.1233 54.6177 37.7655ZM54.167 36.8774C54.0013 36.5592 53.829 36.2345 53.6765 35.9097C53.5175 35.585 53.3452 35.2669 53.1927 34.9421C53.027 35.3331 52.8614 35.7242 52.6957 36.1152C52.5366 36.5062 52.3709 36.8972 52.2052 37.2816C52.8547 37.1491 53.5109 37.0099 54.167 36.8774ZM62.9949 31.6283C62.9949 32.5628 62.9949 33.4907 62.9949 34.4252C62.9949 35.353 62.9949 36.2809 62.9949 37.2154C62.6039 37.2949 62.2062 37.3744 61.8218 37.4606C61.3049 37.0033 60.7813 36.546 60.271 36.0887C59.7606 35.6314 59.2437 35.1741 58.7334 34.7168C58.7334 35.2801 58.7334 35.8435 58.7334 36.4068C58.7334 36.9701 58.7334 37.5335 58.7334 38.1035C58.2562 38.2029 57.7923 38.2957 57.3217 38.3951C57.3217 37.4672 57.3217 36.5327 57.3217 35.6049C57.3217 34.677 57.3217 33.7425 57.3217 32.8147C57.7194 32.7285 58.1104 32.649 58.508 32.5695C59.0117 33.0268 59.5287 33.4841 60.039 33.948C60.5493 34.3987 61.0663 34.856 61.5832 35.3133C61.5832 34.7499 61.5832 34.1866 61.5832 33.6232C61.5832 33.0533 61.5832 32.4899 61.5832 31.9266C62.0538 31.8272 62.5177 31.7278 62.9949 31.6283ZM70.1526 30.1371C70.1526 31.0716 70.1526 31.9995 70.1526 32.9273C70.1526 33.8618 70.1526 34.7897 70.1526 35.7242C69.755 35.8037 69.364 35.8832 68.9663 35.9694C68.4494 35.5121 67.9324 35.0548 67.4221 34.5975C66.9118 34.1402 66.3948 33.6829 65.8911 33.219C65.8911 33.7889 65.8911 34.3523 65.8911 34.9156C65.8911 35.4789 65.8911 36.0423 65.8911 36.6123C65.4139 36.7117 64.9368 36.8111 64.4662 36.9039C64.4662 35.976 64.4662 35.0482 64.4662 34.1137C64.4662 33.1858 64.4662 32.258 64.4662 31.3235C64.8639 31.2439 65.2549 31.1644 65.6592 31.0783C66.1695 31.5356 66.6732 31.9929 67.1835 32.4568C67.6938 32.9141 68.2108 33.3714 68.7277 33.8287C68.7277 33.2587 68.7277 32.6954 68.7277 32.132C68.7277 31.5687 68.7277 30.9987 68.7277 30.4354C69.1983 30.3426 69.6755 30.2366 70.1526 30.1371ZM74.6196 34.8825C73.9701 35.015 73.3935 35.015 72.8766 34.8758C72.3596 34.73 71.9553 34.4716 71.6703 34.0938C71.5245 33.9016 71.4052 33.6961 71.3323 33.4642C71.2594 33.2322 71.2263 32.9804 71.2263 32.7086C71.2263 32.4369 71.2594 32.1652 71.3323 31.9067C71.4052 31.6416 71.5245 31.3898 71.6703 31.1379C71.962 30.6408 72.3596 30.21 72.8766 29.8522C73.3935 29.4943 73.9701 29.2491 74.6196 29.1099C75.2558 28.9773 75.8324 28.984 76.3494 29.1231C76.8597 29.2689 77.2706 29.5274 77.5556 29.9052C77.7014 30.0974 77.8141 30.3095 77.887 30.5414C77.9599 30.7668 77.9997 31.0186 77.9997 31.297C77.9997 31.5687 77.9599 31.8338 77.887 32.0989C77.8141 32.3574 77.7014 32.6158 77.5556 32.8677C77.2706 33.3648 76.8597 33.7956 76.3494 34.1534C75.8324 34.5113 75.2558 34.7499 74.6196 34.8825ZM74.6196 33.7823C74.9775 33.7094 75.3155 33.5636 75.6005 33.3515C75.8987 33.1394 76.1373 32.8809 76.303 32.5761C76.4621 32.2712 76.5548 31.9398 76.5548 31.5952C76.5548 31.2506 76.4687 30.959 76.303 30.727C76.1373 30.4884 75.8987 30.3293 75.6005 30.2366C75.3155 30.1438 74.9775 30.1371 74.6196 30.2167C74.2485 30.2896 73.9171 30.4354 73.6255 30.6475C73.3272 30.8595 73.1019 31.118 72.9362 31.4229C72.7639 31.7344 72.6777 32.0591 72.6777 32.4038C72.6777 32.7484 72.7639 33.04 72.9362 33.2786C73.1019 33.5106 73.3272 33.6763 73.6255 33.769C73.9171 33.8552 74.2485 33.8618 74.6196 33.7823ZM81.837 33.378C80.9489 33.5636 80.2597 33.4907 79.7692 33.1527C79.524 32.9804 79.3318 32.755 79.2059 32.4634C79.0866 32.1784 79.0269 31.8272 79.0269 31.4163C79.0269 30.8927 79.0269 30.3757 79.0269 29.8522C79.0269 29.3352 79.0269 28.8116 79.0269 28.2881C79.5041 28.1886 79.9813 28.0892 80.4651 27.9898C80.4651 28.5068 80.4651 29.0171 80.4651 29.5274C80.4651 30.0444 80.4651 30.5547 80.4651 31.065C80.4651 31.5687 80.5778 31.92 80.8097 32.1188C81.0417 32.3242 81.3863 32.3706 81.8436 32.2778C82.2877 32.1851 82.6323 31.9929 82.8709 31.7012C83.1095 31.4096 83.2222 31.0054 83.2222 30.495C83.2222 29.9781 83.2222 29.4678 83.2222 28.9574C83.2222 28.4405 83.2222 27.9302 83.2222 27.4132C83.6927 27.3204 84.1633 27.221 84.6405 27.1216C84.6405 27.6452 84.6405 28.1621 84.6405 28.6857C84.6405 29.2027 84.6405 29.7262 84.6405 30.2432C84.6405 30.6541 84.5742 31.0319 84.4483 31.3699C84.329 31.7079 84.1434 32.0194 83.8982 32.2911C83.4077 32.8346 82.7251 33.1924 81.837 33.378ZM91.7319 25.637C91.7319 26.5715 91.7319 27.4994 91.7319 28.4339C91.7319 29.3617 91.7319 30.2962 91.7319 31.2241C91.3409 31.3036 90.9433 31.3898 90.5589 31.4693C90.0419 31.012 89.5183 30.5547 89.008 30.0974C88.4977 29.6401 87.9807 29.1828 87.4704 28.7188C87.4704 29.2888 87.4704 29.8522 87.4704 30.4155C87.4704 30.9855 87.4704 31.5488 87.4704 32.1122C86.9932 32.2116 86.5293 32.311 86.0588 32.4038C86.0588 31.4759 86.0588 30.5481 86.0588 29.6136C86.0588 28.6857 86.0588 27.7579 86.0588 26.8234C86.4498 26.7438 86.8474 26.6577 87.2385 26.5782C87.7488 27.0355 88.2657 27.4928 88.7761 27.9567C89.2864 28.414 89.8033 28.8647 90.3203 29.322C90.3203 28.7586 90.3203 28.1953 90.3203 27.6319C90.3203 27.0686 90.3203 26.4986 90.3203 25.9353C90.7908 25.8359 91.2548 25.7431 91.7319 25.637ZM96.1658 30.389C95.5362 30.5215 94.9662 30.5215 94.4492 30.3824C93.9389 30.2432 93.5479 29.9781 93.2496 29.6003C93.1038 29.4147 92.9912 29.2027 92.9249 28.9707C92.8586 28.7321 92.8189 28.4803 92.8189 28.2085C92.8189 27.9302 92.8586 27.6584 92.9249 27.4C92.9912 27.1349 93.1038 26.8764 93.2496 26.6312C93.5479 26.1275 93.9389 25.7033 94.4492 25.3521C94.9662 24.9942 95.5362 24.7556 96.179 24.6164C96.7092 24.5104 97.193 24.4905 97.6305 24.57C98.0679 24.6495 98.4258 24.8219 98.724 25.0737C98.4125 25.3984 98.1076 25.7166 97.8028 26.0347C97.3852 25.6834 96.8683 25.5774 96.2519 25.7033C95.8609 25.7828 95.5229 25.9353 95.2247 26.1474C94.9198 26.3661 94.6812 26.6245 94.5155 26.9294C94.3498 27.2343 94.2637 27.559 94.2637 27.9037C94.2637 28.2483 94.3564 28.5399 94.5155 28.7785C94.6812 29.0105 94.9198 29.1762 95.2247 29.2623C95.5163 29.3485 95.8609 29.3551 96.2519 29.2756C96.8683 29.143 97.3852 28.8183 97.8028 28.2881C98.1076 28.4803 98.4125 28.6725 98.724 28.8647C98.4258 29.2491 98.0679 29.5738 97.6305 29.8323C97.193 30.0908 96.7026 30.283 96.1658 30.389ZM104.49 27.5259C104.49 27.8705 104.49 28.2152 104.49 28.5598C102.886 28.8978 101.282 29.2292 99.6916 29.5605C99.6916 28.6327 99.6916 27.7048 99.6916 26.7703C99.6916 25.8425 99.6916 24.9146 99.6916 23.9802C101.249 23.6554 102.813 23.3307 104.371 23.0059C104.371 23.3505 104.371 23.7018 104.371 24.0398C103.277 24.2718 102.197 24.4971 101.11 24.7224C101.11 25.1267 101.11 25.531 101.11 25.9353C102.064 25.7365 103.025 25.5376 103.986 25.3322C103.986 25.6702 103.986 26.0016 103.986 26.3396C103.025 26.5384 102.064 26.7438 101.11 26.9427C101.11 27.3735 101.11 27.7976 101.11 28.2284C102.237 27.9964 103.363 27.7645 104.49 27.5259ZM111.263 27.1481C111.257 26.5914 111.257 26.0347 111.257 25.478C111.257 24.9213 111.257 24.3645 111.257 23.8012C110.952 24.3314 110.647 24.8484 110.342 25.3719C110.037 25.8955 109.732 26.4191 109.434 26.9427C109.209 26.9891 108.997 27.0355 108.785 27.0752C108.48 26.6974 108.168 26.313 107.87 25.922C107.578 25.5376 107.26 25.1532 106.969 24.7688C106.969 25.3123 106.969 25.8624 106.969 26.4058C106.969 26.9559 106.969 27.4994 106.969 28.0428C106.518 28.1423 106.067 28.235 105.623 28.3278C105.623 27.4 105.623 26.4655 105.623 25.5376C105.623 24.6031 105.623 23.6753 105.623 22.7474C106.014 22.6613 106.412 22.5817 106.81 22.4956C107.194 22.9993 107.585 23.4963 107.969 23.9868C108.354 24.4905 108.738 24.9875 109.129 25.4846C109.507 24.8285 109.885 24.1724 110.263 23.5162C110.64 22.8535 111.025 22.1973 111.409 21.5412C111.794 21.4551 112.191 21.3755 112.582 21.296C112.582 22.2239 112.582 23.1517 112.582 24.0862C112.582 25.014 112.595 25.9419 112.602 26.8698C112.151 26.9625 111.707 27.062 111.263 27.1481ZM118.865 24.5302C118.865 24.8749 118.865 25.2195 118.865 25.5641C117.268 25.9021 115.664 26.2335 114.073 26.5649C114.073 25.637 114.073 24.7026 114.073 23.7747C114.073 22.8468 114.073 21.9124 114.073 20.9845C115.631 20.6597 117.195 20.3284 118.752 20.0036C118.752 20.3549 118.752 20.6995 118.752 21.0441C117.666 21.2695 116.585 21.4948 115.498 21.7202C115.498 22.1311 115.498 22.5287 115.498 22.933C116.453 22.7342 117.414 22.5353 118.375 22.3365C118.375 22.6679 118.375 23.0059 118.375 23.3439C117.414 23.5427 116.453 23.7416 115.498 23.9404C115.498 24.3712 115.498 24.802 115.498 25.2328C116.618 25.0008 117.745 24.7622 118.865 24.5302ZM125.692 18.5588C125.692 19.4933 125.692 20.4212 125.692 21.3556C125.692 22.2835 125.692 23.2114 125.692 24.1458C125.3 24.2254 124.903 24.3049 124.512 24.3911C123.995 23.9338 123.465 23.4765 122.954 23.0192C122.451 22.5619 121.934 22.1046 121.423 21.6406C121.423 22.2106 121.423 22.7739 121.423 23.3373C121.423 23.9072 121.423 24.4706 121.423 25.0339C120.946 25.1333 120.476 25.2328 120.012 25.3255C120.012 24.3977 120.012 23.4698 120.012 22.5353C120.012 21.6075 120.012 20.6796 120.012 19.7451C120.403 19.6656 120.8 19.5795 121.191 19.4999C121.702 19.9572 122.219 20.4145 122.729 20.8718C123.239 21.3291 123.756 21.7864 124.273 22.2504C124.273 21.6804 124.273 21.117 124.273 20.5537C124.273 19.9904 124.273 19.4204 124.273 18.8571C124.737 18.7576 125.214 18.6582 125.692 18.5588ZM128.442 19.0426C127.779 19.1752 127.11 19.3144 126.454 19.4535C126.454 19.1023 126.454 18.7576 126.454 18.3998C128.256 18.0286 130.052 17.6508 131.862 17.2731C131.862 17.631 131.862 17.9756 131.862 18.3269C131.192 18.466 130.53 18.6052 129.873 18.7444C129.873 19.4999 129.873 20.2555 129.873 21.0044C129.873 21.7599 129.873 22.5155 129.873 23.271C129.396 23.3704 128.919 23.4698 128.442 23.5692C128.442 22.8137 128.442 22.0582 128.442 21.3092C128.442 20.5537 128.442 19.7982 128.442 19.0426Z" fill="black"/>
<path d="M102.462 100.9C106.008 101.602 115.704 100.197 116.804 96.7573" stroke="#6CA3B7" stroke-width="0.5" stroke-linecap="round" stroke-linejoin="round"/>
<path fill-rule="evenodd" clip-rule="evenodd" d="M149.816 128.006C149.816 128.006 149.107 117.349 149.915 112.2C150.724 107.05 151.433 105.585 154.515 103.968C157.597 102.351 165.881 99.879 169.665 102.046C173.456 104.22 174.716 109.071 175.12 112.001C175.524 114.93 175.802 117.985 175.802 117.985C175.802 117.985 178.175 119.324 178.931 122.578C179.693 125.839 179.666 135.966 174.112 140.208C168.552 144.449 158.809 146.219 154.515 143.236C152.732 141.997 151.546 140.632 150.75 139.286C150.697 139.194 150.644 139.101 150.578 138.995C150.412 138.69 150.26 138.385 150.127 138.087C148.974 135.21 148.981 130.054 149.027 128.092L149.816 128.006Z" fill="#50AA75"/>
<path d="M170.215 102.391C170.666 103.1 171.143 104.067 171.521 105.34C172.528 108.78 172.177 116.328 172.177 116.328C172.177 116.328 169.148 117.389 165.914 118.502C162.68 119.609 159.121 120.139 158.796 119.914C158.465 119.689 157.099 112.643 154.223 109.157C153.103 107.799 152.155 107.056 151.42 106.652" stroke="white" stroke-width="0.5" stroke-linecap="round" stroke-linejoin="round"/>
<path d="M175.802 117.985C175.802 117.985 168.419 118.701 163.594 121.001C158.77 123.301 156.145 125.448 156.092 127.012C156.039 128.576 156.496 134.435 157.126 138.425C157.762 142.414 158.664 144.621 158.664 144.621" stroke="white" stroke-width="0.5" stroke-linecap="round" stroke-linejoin="round"/>
<path d="M162.315 144.628C162.315 144.628 158.239 135.814 161.116 129.385C163.992 122.956 171.799 121.684 174.503 121.531C177.201 121.379 178.818 122.141 178.818 122.141" stroke="white" stroke-width="0.5" stroke-linecap="round" stroke-linejoin="round"/>
<path d="M149.816 128.006C149.816 128.006 152.149 128.298 153.415 128.371C154.674 128.45 156.125 128.536 156.125 128.536" stroke="white" stroke-width="0.5" stroke-linecap="round" stroke-linejoin="round"/>
<path fill-rule="evenodd" clip-rule="evenodd" d="M164.198 117.064C164.198 117.064 164.701 118.403 164.927 119.443C165.159 120.477 165.331 121.332 165.331 121.332L169.751 119.821C169.751 119.821 169.573 117.899 169.374 117.144C169.168 116.388 168.698 115.626 168.698 115.626L164.198 117.064Z" fill="black"/>
<path d="M137.402 124.666C138.728 124.514 141.074 124.162 142.234 123.99C142.181 125.799 141.969 130.346 141.14 134.435C140.365 138.286 138.609 143.448 137.727 145.934" stroke="black" stroke-width="0.5" stroke-linecap="round" stroke-linejoin="round"/>
<path d="M158.77 109.747C162.6 108.316 165.119 107.792 168.95 107.07" stroke="white" stroke-width="0.5" stroke-linecap="round" stroke-linejoin="round"/>
<path d="M139.649 63.7986C139.649 63.7986 141.419 65.4621 145.355 65.4621C149.299 65.4621 150.207 64.9584 150.207 64.9584" stroke="white" stroke-width="0.5" stroke-linecap="round" stroke-linejoin="round"/>
<path d="M143.824 62.5327C143.824 62.5327 145.031 63.4937 147.277 63.2684C149.524 63.0364 150.737 62.7117 150.737 62.7117" stroke="white" stroke-width="0.5" stroke-linecap="round" stroke-linejoin="round"/>
<path d="M148.464 61.2469C148.464 61.2469 150.684 61.015 151.592 61.0945" stroke="white" stroke-width="0.5" stroke-linecap="round" stroke-linejoin="round"/>
<path d="M155.257 69.7832C155.257 69.7832 155.708 70.943 155.708 72.4607C155.708 73.9718 155.708 74.4291 155.708 74.4291" stroke="white" stroke-width="0.5" stroke-linecap="round" stroke-linejoin="round"/>
<path d="M157.437 71.5725C157.437 71.5725 157.437 72.9775 157.351 74.2235C157.265 75.4761 157.027 76.1323 157.027 76.1323" stroke="white" stroke-width="0.5" stroke-linecap="round" stroke-linejoin="round"/>
<path d="M159.32 73.9983C159.32 73.9983 159.386 73.5542 159.485 72.6131C159.585 71.6654 159.585 71.1948 159.585 71.1948" stroke="white" stroke-width="0.5" stroke-linecap="round" stroke-linejoin="round"/>
<path d="M106.24 67.9009C106.24 67.9009 108.281 70.3995 109.52 71.0556C110.76 71.7117 111.668 72.0895 111.668 72.0895" stroke="white" stroke-width="0.5" stroke-linecap="round" stroke-linejoin="round"/>
<path d="M110.342 68.4907C110.342 68.4907 111.562 69.3192 113.073 70.1211C114.577 70.923 114.968 71.0755 114.968 71.0755" stroke="white" stroke-width="0.5" stroke-linecap="round" stroke-linejoin="round"/>
<path d="M113.934 68.2986C113.934 68.2986 114.796 68.7824 116.161 69.18C117.52 69.5843 117.778 69.7633 117.778 69.7633" stroke="white" stroke-width="0.5" stroke-linecap="round" stroke-linejoin="round"/>
<path d="M117.235 83.2041C117.235 83.2041 117.559 82.8727 117.937 81.5869C118.315 80.2946 118.315 79.8174 118.315 79.8174" stroke="white" stroke-width="0.5" stroke-linecap="round" stroke-linejoin="round"/>
<path d="M117.864 85.5766C117.864 85.5766 118.772 84.5626 119.375 83.1509C119.985 81.7392 120.085 81.156 120.085 81.156" stroke="white" stroke-width="0.5" stroke-linecap="round" stroke-linejoin="round"/>
<path d="M121.35 83.078C122.451 81.5139 122.537 80.1288 122.537 78.2532" stroke="white" stroke-width="0.5" stroke-linecap="round" stroke-linejoin="round"/>
</g>
<defs>
<clipPath id="clip0_92_2035">
<rect width="218" height="164.188" fill="white"/>
</clipPath>
</defs>
</svg>
