<svg width="218" height="165" viewBox="0 0 218 165" fill="none" xmlns="http://www.w3.org/2000/svg">
<g clip-path="url(#clip0_92_2283)">
<path fill-rule="evenodd" clip-rule="evenodd" d="M143.281 39.091L130.815 45.0823L130.211 44.5852L141.989 38.1234L139.934 21.296L141.319 23.0192L143.281 39.091Z" fill="white"/>
<path d="M142.525 38.4879L143.281 39.091" stroke="#D7F0F7" stroke-width="0.5" stroke-linecap="round" stroke-linejoin="round"/>
<path fill-rule="evenodd" clip-rule="evenodd" d="M168.3 54.3543L168.353 54.3675C169.042 52.5913 170.56 48.4093 170.6 45.6722C170.646 42.1331 169.519 39.1374 166.477 38.8259C160.168 38.183 157.563 43.8761 156.185 48.9727C157.358 50.0265 157.954 51.7496 157.616 53.5324C157.119 56.1437 154.793 57.8934 152.427 57.4427C150.054 56.992 148.537 54.5067 149.034 51.8954C149.511 49.3902 151.678 47.6737 153.951 47.9454C154.647 45.6523 157.212 38.8325 163.177 38.1565C170.361 37.3413 172.847 42.1331 172.8 46.8254C172.767 50.2717 171.382 54.003 170.653 55.7394C171.561 56.8064 171.992 58.3308 171.693 59.9015C171.196 62.5061 168.87 64.2624 166.504 63.8118C164.131 63.3545 162.614 60.8758 163.111 58.2645C163.608 55.6533 165.934 53.9036 168.3 54.3543Z" fill="#50AA75"/>
<path fill-rule="evenodd" clip-rule="evenodd" d="M173.556 138.213L173.145 153.383L153.627 142.156L173.556 138.213Z" fill="black"/>
<path fill-rule="evenodd" clip-rule="evenodd" d="M132.882 85.1592L80.982 99.1367C80.982 99.1367 53.312 104.691 54.3658 116.66C55.4196 128.629 86.3503 156.498 86.3503 156.498H178.559L114.756 119.795C107.419 115.573 101.594 112.902 112.523 108.031C119.892 103.822 156.152 93.1056 156.152 93.1056L135.838 86.1666L132.882 85.1592Z" fill="#50AA75"/>
<path fill-rule="evenodd" clip-rule="evenodd" d="M127.315 104.008L124.061 113.293L109.507 122.055L112.668 129C112.668 129 130.788 122.83 133.698 119.715C136.607 116.6 138.662 109.078 138.662 109.078L127.315 104.008Z" fill="white" stroke="black" stroke-width="0.5" stroke-linecap="round" stroke-linejoin="round"/>
<path fill-rule="evenodd" clip-rule="evenodd" d="M106.776 80.6458L107.916 79.148C107.916 79.148 107.777 75.695 108.307 74.7075C108.831 73.7266 113.079 72.4011 113.079 72.4011L117.599 76.1589C117.599 76.1589 115.989 79.1413 114.054 80.7187C112.112 82.2961 111.224 83.542 111.224 83.542L106.776 80.6458Z" fill="white" stroke="black" stroke-width="0.5" stroke-linecap="round" stroke-linejoin="round"/>
<path fill-rule="evenodd" clip-rule="evenodd" d="M79.007 67.669L76.8928 67.5298C71.3191 68.8951 68.5686 70.0152 66.0303 73.8459C63.4986 77.6766 59.9992 91.7999 61.391 97.1616C62.7762 102.523 67.8529 103.047 73.9833 103.193C80.1072 103.338 89.7304 102.855 89.7304 102.855L91.4668 96.3133L92.9713 95.909L93.1303 93.1387C93.1303 93.1387 98.9758 98.7854 103.377 95.9156C107.784 93.0393 113.795 82.3888 113.795 82.3888L107.38 78.8431L99.9567 86.6967C99.9567 86.6967 96.57 72.5137 93.3159 70.1212C90.0552 67.7286 85.8665 67.5232 85.8665 67.5232C85.8665 67.5232 80.9356 69.5446 79.007 67.669Z" fill="#D7F0F7"/>
<path fill-rule="evenodd" clip-rule="evenodd" d="M95.4632 79.7377L96.2983 80.8644L115.134 64.7926L119.362 50.7687L118.448 50.2849C118.448 50.2849 116.963 51.0405 115.598 53.0751C114.232 55.1098 113.828 56.9058 113.696 58.0193C113.563 59.1327 113.59 60.1865 113.59 60.1865C109.401 59.9744 103.834 60.7299 100.275 62.9833L95.4632 79.7377Z" fill="white" stroke="black" stroke-width="0.5" stroke-linecap="round" stroke-linejoin="round"/>
<path d="M70.8485 64.8258C70.8485 65.3295 70.4442 65.7338 69.9472 65.7338C69.4435 65.7338 69.0392 65.3295 69.0392 64.8258V58.6224C54.5447 58.6423 41.0047 58.6953 40.9318 58.6953C40.4347 58.6953 40.0304 58.291 40.0304 57.794C40.0304 57.2969 40.4347 56.8926 40.9318 56.8926C41.0047 56.8926 54.5381 56.8396 69.0392 56.8197V36.9238C54.4851 36.9172 41.0047 36.9039 40.9318 36.9039C40.4347 36.9039 40.0304 36.4996 40.0304 36.0026C40.0304 35.5055 40.4347 35.1012 40.9318 35.1012C41.0047 35.1012 54.4851 35.1145 69.0392 35.1211V13.734H40.8456C40.3485 13.734 39.9443 13.3297 39.9443 12.8327C39.9443 12.329 40.3485 11.9247 40.8456 11.9247H69.9472H102.694C103.191 11.9247 103.595 12.329 103.595 12.8327V59.1791C103.595 59.6762 103.191 60.0805 102.694 60.0805C102.19 60.0805 101.786 59.6762 101.786 59.1791V58.6754C96.8086 58.6025 83.6596 58.5959 70.8485 58.6158V64.8258ZM70.8485 13.734V35.1211C83.2619 35.1277 96.0929 35.1277 101.786 35.1079V13.734H70.8485ZM101.786 36.9105C96.0862 36.9304 83.2619 36.9304 70.8485 36.9238V56.8131C83.6397 56.7932 96.7755 56.7998 101.786 56.8727V36.9105Z" fill="#D7F0F7"/>
<path d="M167.659 62.4813C169.315 62.7965 170.94 61.5729 171.287 59.7483C171.634 57.9237 170.573 56.189 168.916 55.8738C167.26 55.5585 165.635 56.7821 165.288 58.6068C164.941 60.4314 166.002 62.1661 167.659 62.4813Z" stroke="white" stroke-width="0.476914" stroke-linecap="round" stroke-linejoin="round"/>
<path d="M153.273 55.9019C154.799 56.1923 156.296 55.0648 156.616 53.3835C156.936 51.7022 155.958 50.1038 154.431 49.8133C152.905 49.5228 151.408 50.6503 151.088 52.3316C150.768 54.013 151.746 55.6114 153.273 55.9019Z" stroke="white" stroke-width="0.439455" stroke-linecap="round" stroke-linejoin="round"/>
<path d="M41.3957 20.5405H45.18V33.3715" stroke="black" stroke-width="0.5" stroke-linecap="round" stroke-linejoin="round"/>
<path d="M46.426 23.0259H50.2103V33.3715" stroke="black" stroke-width="0.5" stroke-linecap="round" stroke-linejoin="round"/>
<path fill-rule="evenodd" clip-rule="evenodd" d="M89.9093 102.185C91.0294 102.238 93.1303 102.324 94.5486 102.318C96.5568 102.305 97.1665 102.603 97.7166 102.477C98.2667 102.344 98.4722 101.801 98.4722 101.801C98.4722 101.801 98.9361 101.986 99.0488 101.556C99.1548 101.118 99.0488 99.9849 98.5583 99.362C98.0679 98.739 96.8948 97.0489 95.2048 96.7374C93.5147 96.4326 91.5795 95.9421 91.5795 95.9421L91.4668 96.3133L89.9093 102.185Z" fill="white" stroke="black" stroke-width="0.5" stroke-linecap="round" stroke-linejoin="round"/>
<path d="M93.5015 100.846C93.5015 100.846 95.4036 100.899 96.6164 101.165C97.8293 101.423 98.3595 101.781 98.3595 101.781" stroke="black" stroke-width="0.5" stroke-linecap="round" stroke-linejoin="round"/>
<path d="M94.0714 99.2095C94.0714 99.2095 97.2659 99.9518 98.0347 100.363C98.7969 100.767 98.8565 100.979 98.9692 100.972" stroke="black" stroke-width="0.5" stroke-linecap="round" stroke-linejoin="round"/>
<path d="M94.5884 97.957C94.5884 97.957 96.5037 98.4276 97.5045 98.865C98.5119 99.3024 98.7107 99.594 98.7107 99.594" stroke="black" stroke-width="0.5" stroke-linecap="round" stroke-linejoin="round"/>
<path fill-rule="evenodd" clip-rule="evenodd" d="M91.4602 50.8351C91.4602 50.8351 90.9896 57.6813 90.4064 60.2661C89.8166 62.8442 88.5507 64.5409 87.4571 65.0512C86.3636 65.5681 84.9055 65.3892 84.9055 65.3892L84.9586 67.2449L85.8665 67.5233C85.2966 69.8959 83.527 70.7111 81.1411 70.3864C78.5298 70.0285 77.3899 68.6301 76.8928 67.5299L77.5224 67.3642C77.6815 66.1978 77.7677 61.5452 77.7875 59.9877C77.0651 59.3714 75.4745 57.8603 75.4679 56.4486C75.4679 54.6128 77.032 54.5664 77.032 54.5664C77.032 54.5664 75.7198 47.1899 83.4939 46.9513C91.268 46.7194 91.4602 50.8351 91.4602 50.8351Z" fill="white"/>
<path fill-rule="evenodd" clip-rule="evenodd" d="M79.6035 55.1562C79.5438 55.5141 79.4975 55.8322 79.4511 56.0642C79.2522 56.9921 78.8148 56.5745 78.6558 55.9184C78.4901 55.2623 77.9135 54.7122 77.032 54.5664C77.032 54.5664 75.4679 54.6128 75.4679 56.4486C75.4745 58.2778 77.7875 59.9877 77.7875 59.9877C77.7875 59.9877 77.7279 61.3729 77.7345 62.8707C76.2102 61.6512 74.5135 59.0002 73.7116 54.805C72.903 50.6031 73.7116 48.8004 75.6535 46.6001C77.5953 44.3997 79.7029 44.2407 82.957 44.4859C86.2178 44.7311 90.1082 45.0293 90.1082 45.0293C93.6672 45.4402 95.3704 44.804 95.7018 45.9307C96.0266 47.0574 94.2239 47.6472 94.2239 47.6472C94.2239 47.6472 96.2917 48.2172 96.232 49.3439C96.179 50.4772 93.1834 50.4109 93.1834 50.4109C93.1834 50.4109 94.6282 51.6503 94.0582 52.2269C93.4948 52.8101 91.3409 52.4257 91.3409 52.4257C91.3409 52.4257 90.4661 52.1805 88.902 51.7696C88.3121 51.6171 87.6096 51.3586 86.8474 51.1068C86.9004 51.3255 86.8673 51.5707 86.6221 51.7961C85.9394 52.4058 82.8377 50.8483 82.8377 50.8483C82.8377 50.8483 82.0689 52.313 80.4253 51.6503C79.9017 52.4986 79.683 53.7181 79.6035 55.1562Z" fill="black" stroke="black" stroke-width="0.2" stroke-linecap="round" stroke-linejoin="round"/>
<path d="M83.8567 57.3107C83.5718 57.301 83.352 56.9665 83.3657 56.5637C83.3794 56.1608 83.6215 55.8421 83.9064 55.8518C84.1914 55.8615 84.4112 56.196 84.3975 56.5988C84.3837 57.0017 84.1416 57.3204 83.8567 57.3107Z" fill="black"/>
<path d="M89.2482 56.8017C88.9633 56.792 88.7435 56.4575 88.7572 56.0546C88.7709 55.6518 89.013 55.3331 89.298 55.3428C89.5829 55.3525 89.8027 55.6869 89.789 56.0898C89.7752 56.4927 89.5331 56.8114 89.2482 56.8017Z" fill="black"/>
<path d="M87.086 56.1238C87.086 56.1238 87.5831 59.0598 87.1258 59.5767C86.6751 60.0937 85.8798 59.7358 85.8798 59.7358" stroke="black" stroke-width="0.5" stroke-linecap="round" stroke-linejoin="round"/>
<path d="M76.5084 55.6665C77.6749 56.1437 78.3642 57.509 78.2183 58.7218" stroke="black" stroke-width="0.5" stroke-linecap="round" stroke-linejoin="round"/>
<path d="M76.8 57.3234L77.8141 56.8926" stroke="black" stroke-width="0.5" stroke-linecap="round" stroke-linejoin="round"/>
<path d="M84.4946 54.4603C84.4946 54.4603 84.15 54.3741 83.5535 54.4272C82.9637 54.4802 82.6455 54.6724 82.6455 54.6724" stroke="black" stroke-width="0.5" stroke-linecap="round" stroke-linejoin="round"/>
<path d="M90.1214 54.308C89.5316 54.0429 88.8489 54.1092 88.2524 54.3146" stroke="black" stroke-width="0.5" stroke-linecap="round" stroke-linejoin="round"/>
<path d="M80.4319 62.7249C80.4319 62.7249 80.982 63.8051 82.2479 64.5077C83.5138 65.2168 84.9055 65.3891 84.9055 65.3891" stroke="black" stroke-width="0.5" stroke-linecap="round" stroke-linejoin="round"/>
<path d="M91.7982 49.3106C90.9565 48.628 89.6575 47.8658 87.8482 47.3555" stroke="white" stroke-width="0.5" stroke-linecap="round" stroke-linejoin="round"/>
<path d="M91.8446 46.8717C90.8306 46.5337 90.1811 46.3349 88.9152 46.1626" stroke="white" stroke-width="0.5" stroke-linecap="round" stroke-linejoin="round"/>
<path d="M88.3121 49.4632C87.8217 49.0523 87.1589 48.6149 86.3172 48.2239" stroke="white" stroke-width="0.5" stroke-linecap="round" stroke-linejoin="round"/>
<path d="M77.4827 53.8041C77.4032 53.3336 77.3435 52.7967 77.3303 52.2467C77.3236 51.9882 77.3236 51.7231 77.3435 51.4646" stroke="white" stroke-width="0.5" stroke-linecap="round" stroke-linejoin="round"/>
<path d="M76.2566 53.1347C76.1572 52.4388 76.0909 51.5905 76.1638 50.7952" stroke="white" stroke-width="0.5" stroke-linecap="round" stroke-linejoin="round"/>
<path d="M75.3619 53.9102C75.2028 53.221 75.0636 52.3859 75.0769 51.584" stroke="white" stroke-width="0.5" stroke-linecap="round" stroke-linejoin="round"/>
<path d="M91.4602 50.835C91.4602 50.835 90.9896 57.6812 90.4064 60.266C89.8166 62.8441 88.5507 64.5407 87.4571 65.0511C86.3636 65.568 84.9055 65.3891 84.9055 65.3891L84.9586 67.2448M77.5224 67.3641C77.6815 66.1976 77.7677 61.5451 77.7875 59.9876C77.0651 59.3712 75.4745 57.8602 75.4679 56.4485C75.4679 54.6127 77.032 54.5663 77.032 54.5663L77.5224 67.3641Z" stroke="black" stroke-width="0.5" stroke-linecap="round" stroke-linejoin="round"/>
<path fill-rule="evenodd" clip-rule="evenodd" d="M84.2892 62.1086C84.1169 62.9437 87.3578 62.8708 87.444 62.1219C87.5831 60.803 84.4417 61.3796 84.2892 62.1086Z" fill="black"/>
<path fill-rule="evenodd" clip-rule="evenodd" d="M101.282 64.0106L96.2983 80.8645C101.799 78.3195 106.16 75.9204 112.33 75.8607L113.079 72.4011C114.133 71.6853 114.862 71.4534 114.862 71.4534L119.362 50.7688C119.362 50.7688 116.658 53.1415 115.584 55.8919C114.504 58.649 115.034 61.6181 115.034 61.6181C115.034 61.6181 108.4 60.73 101.282 64.0106Z" fill="black" stroke="black" stroke-width="0.5" stroke-linecap="round" stroke-linejoin="round"/>
<path fill-rule="evenodd" clip-rule="evenodd" d="M115.399 72.6331C115.399 72.6331 114.988 71.4004 114.285 70.9364C113.576 70.4659 112.065 71.2811 111.124 71.7185C110.176 72.1625 110.316 72.6861 110.554 73.0241C110.793 73.3555 113.165 72.4807 113.165 72.4807L113.57 73.1766C113.57 73.1766 111.992 74.4027 111.104 75.8806C110.223 77.3652 111.893 76.9012 111.893 76.9012C111.893 76.9012 111.787 77.9285 112.397 78.1472C113.006 78.3593 113.788 77.5839 113.788 77.5839C113.788 77.5839 114.107 79.1546 114.902 78.5515C115.969 77.7496 117.559 76.7223 117.632 76.0131C117.699 75.3106 117.149 74.8931 117.149 74.8931C117.149 74.8931 117.188 74.2171 116.956 73.9454C116.731 73.667 116.214 73.6339 116.214 73.6339C116.214 73.6339 115.969 72.7988 115.399 72.6331Z" fill="white" stroke="black" stroke-width="0.5" stroke-linecap="round" stroke-linejoin="round"/>
<path d="M75.786 67.7883C78.5232 73.4151 86.2509 72.6794 86.9004 67.616" stroke="#6CA3B7" stroke-width="0.5" stroke-linecap="round" stroke-linejoin="round"/>
<path d="M74.1623 79.2207L72.2072 92.7277" stroke="black" stroke-width="0.5" stroke-linecap="round" stroke-linejoin="round"/>
<path d="M93.1237 78.7437V92.0982" stroke="black" stroke-width="0.5" stroke-linecap="round" stroke-linejoin="round"/>
<path fill-rule="evenodd" clip-rule="evenodd" d="M163.044 90.1562C170.083 94.6032 173.151 99.8258 175.829 104.041C178.513 108.249 178.99 109.449 178.99 109.449L173.098 114.38C173.098 114.38 174.821 135.064 174.729 139.85C174.656 143.528 164.429 144.436 155.953 143.488L134.294 131.035C134.115 124.924 133.167 112.034 133.167 112.034C133.167 112.034 130.775 111.073 128.859 109.403C126.944 107.726 125.413 104.803 125.413 104.803C125.413 104.803 129.363 92.3764 133.287 89.3609C138.463 85.3843 144.58 84.3504 150.571 85.3048C154.926 85.9941 159.22 87.7305 163.044 90.1562Z" fill="#D7F0F7"/>
<path fill-rule="evenodd" clip-rule="evenodd" d="M71.0076 109.416L70.9744 111.663L74.1557 120.57L74.2683 118.893L71.0076 109.416Z" fill="white"/>
<path fill-rule="evenodd" clip-rule="evenodd" d="M36.0671 82.7666L44.4974 99.6933C44.4974 99.6933 46.7772 100.668 49.7 99.1035C52.6161 97.5327 53.0204 95.909 53.0204 95.909L48.5667 78.3857C48.5667 78.3857 42.4362 83.5022 36.0671 82.7666Z" fill="white" stroke="black" stroke-width="0.5" stroke-linecap="round" stroke-linejoin="round"/>
<path fill-rule="evenodd" clip-rule="evenodd" d="M37.9626 88.4065L41.1041 94.6961C41.1041 94.6961 43.5695 95.2462 47.3737 93.6821C51.1713 92.1113 52.4173 90.3749 52.4173 90.3749L50.5815 83.5552C50.5815 83.5552 44.5968 88.2674 37.9626 88.4065Z" fill="#50AA75"/>
<path fill-rule="evenodd" clip-rule="evenodd" d="M38.5392 78.0277L36.8757 78.7037L35.8816 81.0366C35.8816 81.0366 35.6363 81.991 37.2336 82.614C38.8308 83.237 45.4451 80.46 45.4451 80.46L48.1757 78.379L48.1028 76.4967L45.4517 75.3369L38.5392 78.0277Z" fill="white" stroke="black" stroke-width="0.5" stroke-linecap="round" stroke-linejoin="round"/>
<path fill-rule="evenodd" clip-rule="evenodd" d="M35.8816 81.0367C35.8816 81.0367 34.218 81.8121 35.358 83.184C36.4979 84.5559 41.1239 83.6081 45.1137 81.5801C49.1035 79.5521 49.8723 78.0609 49.4415 77.2258C49.0174 76.3907 48.1028 76.4968 48.1028 76.4968C48.116 79.1147 37.1408 83.8998 35.8816 81.0367Z" fill="white" stroke="black" stroke-width="0.5" stroke-linecap="round" stroke-linejoin="round"/>
<path fill-rule="evenodd" clip-rule="evenodd" d="M40.8257 76.1588C43.1984 75.2309 45.2662 74.8598 45.4517 75.337C45.6373 75.8075 44.7293 77.0469 41.6144 78.1868C38.4994 79.3268 37.0613 79.1743 36.8757 78.7038C36.6901 78.2266 38.4597 77.0933 40.8257 76.1588Z" fill="white" stroke="black" stroke-width="0.5" stroke-linecap="round" stroke-linejoin="round"/>
<path fill-rule="evenodd" clip-rule="evenodd" d="M129.019 29.1695L130.211 44.5852L141.989 38.1234L139.934 21.296L129.019 29.1695Z" fill="#D7F0F7"/>
<path fill-rule="evenodd" clip-rule="evenodd" d="M131.676 30.6409L137.952 26.1407L139.185 35.8501L132.399 39.8134L131.676 30.6409Z" fill="white"/>
<path d="M51.8805 25.1864L54.0874 24.7026L56.0028 33.2721" stroke="black" stroke-width="0.5" stroke-linecap="round" stroke-linejoin="round"/>
<path d="M72.8567 20.5405H75.2956V33.3715" stroke="black" stroke-width="0.5" stroke-linecap="round" stroke-linejoin="round"/>
<path d="M77.1646 17.4255H79.6035V33.3714" stroke="black" stroke-width="0.5" stroke-linecap="round" stroke-linejoin="round"/>
<path d="M81.3267 22.4558H85.2038V33.3714" stroke="black" stroke-width="0.5" stroke-linecap="round" stroke-linejoin="round"/>
<path d="M87.0727 21.3026H89.0146V33.3714" stroke="black" stroke-width="0.5" stroke-linecap="round" stroke-linejoin="round"/>
<path d="M90.7577 21.3026H92.6995V33.3714" stroke="black" stroke-width="0.5" stroke-linecap="round" stroke-linejoin="round"/>
<path d="M42.4958 42.5374H44.9414V55.3683" stroke="black" stroke-width="0.5" stroke-linecap="round" stroke-linejoin="round"/>
<path d="M46.5453 44.625H49.6072V55.3683" stroke="black" stroke-width="0.5" stroke-linecap="round" stroke-linejoin="round"/>
<path d="M50.8068 41.848H53.8687V55.3682" stroke="black" stroke-width="0.5" stroke-linecap="round" stroke-linejoin="round"/>
<path d="M56.0757 47.0176H57.2223V55.3683" stroke="black" stroke-width="0.5" stroke-linecap="round" stroke-linejoin="round"/>
<path d="M59.184 45.3872H62.6304V55.3683" stroke="black" stroke-width="0.5" stroke-linecap="round" stroke-linejoin="round"/>
<path d="M125.029 72.0962C126.407 72.2619 129.019 72.368 131.769 71.3539C135.785 69.8694 135.885 69.6772 135.885 69.6772C135.885 69.6772 136.004 70.8966 137.27 70.7044C138.542 70.5122 139.165 69.9158 139.165 69.9158C139.165 69.9158 139.954 72.0233 140.908 72.9777C141.869 73.9387 142.512 76.1191 143.162 76.3113C143.811 76.4969 143.639 76.6891 143.95 75.304C144.262 73.9122 145.342 73.3223 146.409 73.329C146.409 73.329 145.846 66.5622 141.75 65.5151C140.299 65.1373 138.708 65.0777 137.257 65.1572C134.069 65.4289 129.814 66.1579 127.547 68.0667C125.771 69.5579 125.068 70.7442 125.029 72.0962ZM125.029 72.0962C125.029 72.0962 120.827 70.8768 124.273 66.5622C127.72 62.2543 131.119 63.4539 134.446 62.4465C137.773 61.4391 145.196 61.2734 146.727 63.1424C148.258 65.0114 150.704 73.3886 149.551 78.7503C148.815 82.2099 148.629 84.0523 148.139 84.8543L146.959 80.8711C146.959 80.8711 149.087 78.7171 148.371 75.8673" stroke="#CCCCCC" stroke-width="0.2" stroke-linecap="round" stroke-linejoin="round"/>
<path fill-rule="evenodd" clip-rule="evenodd" d="M137.257 65.1572C134.069 65.429 129.814 66.158 127.547 68.0667C123.617 71.3672 124.936 73.1434 127.09 78.6443C127.507 79.718 128.263 81.3019 129.118 82.9058C131.749 87.6644 134.161 89.6063 135.818 90.3817C137.104 90.8257 138.112 90.8655 138.112 90.8655L138.105 91.5481L138.098 91.5548V91.5614C138.098 91.853 138.012 99.309 144.779 98.0365C145.879 97.8311 146.721 97.3671 147.364 96.7309L147.377 96.7242C150.916 93.7153 149.398 87.3993 149.398 87.3993L148.139 84.8543L146.959 80.8711C146.959 80.8711 149.087 78.7172 148.371 75.8673C147.655 73.0175 146.409 73.329 146.409 73.329C146.409 73.329 145.846 66.5623 141.75 65.5151C140.299 65.1373 138.708 65.0777 137.257 65.1572Z" fill="white"/>
<path fill-rule="evenodd" clip-rule="evenodd" d="M135.46 69.9025C135.46 69.9025 135.089 71.0955 136.494 71.2148C137.893 71.3341 139.112 70.4857 139.112 70.4857C139.112 70.4857 139.556 72.9976 141.246 73.6206C142.93 74.2436 143.049 76.6162 143.447 76.7952C143.844 76.9741 143.778 75.2841 144.607 74.3496C145.435 73.4218 146.409 73.329 146.409 73.329C146.409 73.329 147.655 73.0175 148.371 75.8673C149.087 78.7172 146.959 80.8711 146.959 80.8711L147.814 83.7541C148.305 82.8992 149.279 80.9241 149.564 78.3659C149.842 75.8342 149.61 72.9379 149.305 70.4261C149.769 70.5587 150.266 70.5255 150.134 69.6772C149.988 68.7427 149.319 67.7552 148.828 67.1388C148.769 66.9002 148.689 66.6683 148.596 66.4429C149.067 66.2507 149.796 65.6675 148.245 63.9576C147.383 63.0099 146.436 62.5261 145.614 62.2941C144.633 61.4789 143.38 60.783 141.79 60.4052C136.09 59.0665 131.974 60.7565 131.292 61.2801C130.609 61.8103 131.298 62.4068 131.298 62.4068C131.298 62.4068 127.328 63.0629 125.917 64.2824C125.334 64.7861 125.307 65.2831 125.479 65.694C125.479 65.694 122.775 66.3038 122.557 70.3731C122.345 74.4424 128.74 72.0366 128.74 72.0366C128.74 72.0366 128.926 74.1574 131.007 73.2428C133.088 72.3348 135.46 69.9025 135.46 69.9025Z" fill="#50AA75"/>
<path fill-rule="evenodd" clip-rule="evenodd" d="M129.608 78.6774C129.96 78.5713 130.344 78.7967 130.457 79.1811C130.576 79.5655 130.384 79.9697 130.026 80.0758C129.675 80.1818 129.29 79.9565 129.178 79.5721C129.058 79.1811 129.25 78.7834 129.608 78.6774ZM137.21 78.1273C137.561 78.0212 137.946 78.2466 138.059 78.631C138.178 79.0154 137.986 79.413 137.628 79.5257C137.276 79.6317 136.892 79.4064 136.779 79.0154C136.66 78.631 136.852 78.2333 137.21 78.1273Z" fill="black"/>
<path d="M133.167 79.6052C133.2 80.8247 133.346 83.4956 133.877 83.8734C134.566 84.3572 135.56 83.9198 135.56 83.9198" stroke="black" stroke-width="0.5" stroke-linecap="round" stroke-linejoin="round"/>
<path d="M144.964 85.802C143.877 88.4398 141.465 90.9914 138.112 90.8655" stroke="black" stroke-width="0.5" stroke-linecap="round" stroke-linejoin="round"/>
<path d="M140.272 92.244L139.636 90.7329" stroke="black" stroke-width="0.5" stroke-linecap="round" stroke-linejoin="round"/>
<path d="M146.462 74.522C144.892 74.913 144.381 78.7238 146.754 79.4595" stroke="black" stroke-width="0.5" stroke-linecap="round" stroke-linejoin="round"/>
<path d="M147.185 77.2988L145.13 76.8547" stroke="black" stroke-width="0.5" stroke-linecap="round" stroke-linejoin="round"/>
<path fill-rule="evenodd" clip-rule="evenodd" d="M135.878 85.9743L140.04 84.4897C139.947 87.1142 136.501 87.492 135.878 85.9743Z" fill="black" stroke="black" stroke-width="0.5" stroke-linecap="round" stroke-linejoin="round"/>
<path d="M114.266 69.6108L115.127 63.1025" stroke="white" stroke-width="0.5" stroke-linecap="round" stroke-linejoin="round"/>
<path d="M117.149 74.8931C116.3 75.2841 115.71 75.7016 114.915 76.3511C114.723 76.5102 114.564 76.6427 114.445 76.762" stroke="black" stroke-width="0.5" stroke-linecap="round" stroke-linejoin="round"/>
<path d="M116.214 73.6338C115.339 73.9055 113.676 75.0985 112.609 76.0661" stroke="black" stroke-width="0.5" stroke-linecap="round" stroke-linejoin="round"/>
<path d="M114.551 72.6528L113.57 73.1764" stroke="black" stroke-width="0.5" stroke-linecap="round" stroke-linejoin="round"/>
<path d="M106.021 80.2812L112.861 83.9728" stroke="#6CA3B7" stroke-width="0.5" stroke-linecap="round" stroke-linejoin="round"/>
<path d="M108.453 79.4395L107.399 81.0566" stroke="#6CA3B7" stroke-width="0.5" stroke-linecap="round" stroke-linejoin="round"/>
<path d="M109.547 80.0493L108.659 81.6996" stroke="#6CA3B7" stroke-width="0.5" stroke-linecap="round" stroke-linejoin="round"/>
<path d="M110.872 80.7783L109.991 82.422" stroke="#6CA3B7" stroke-width="0.5" stroke-linecap="round" stroke-linejoin="round"/>
<path d="M111.999 81.4014L111.118 83.0251" stroke="#6CA3B7" stroke-width="0.5" stroke-linecap="round" stroke-linejoin="round"/>
<path d="M113.046 81.9778L112.178 83.6015" stroke="#6CA3B7" stroke-width="0.5" stroke-linecap="round" stroke-linejoin="round"/>
<path d="M87.4704 102.961C87.4704 102.961 88.6369 99.004 89.1074 97.6255C89.5713 96.2469 89.8497 95.3655 89.8497 95.3655" stroke="#6CA3B7" stroke-width="0.5" stroke-linecap="round" stroke-linejoin="round"/>
<path d="M91.2415 97.1616C91.2415 97.1616 89.5912 96.7042 89.5117 96.6777" stroke="#6CA3B7" stroke-width="0.5" stroke-linecap="round" stroke-linejoin="round"/>
<path d="M90.9631 98.2221L89.0676 97.7383" stroke="#6CA3B7" stroke-width="0.5" stroke-linecap="round" stroke-linejoin="round"/>
<path d="M90.6914 99.2493L88.7164 98.845" stroke="#6CA3B7" stroke-width="0.5" stroke-linecap="round" stroke-linejoin="round"/>
<path d="M90.3269 100.608L88.3055 100.17" stroke="#6CA3B7" stroke-width="0.5" stroke-linecap="round" stroke-linejoin="round"/>
<path d="M90.0088 101.814L87.9078 101.483" stroke="#6CA3B7" stroke-width="0.5" stroke-linecap="round" stroke-linejoin="round"/>
<path d="M67.8396 92.509C67.8396 92.509 76.1704 92.7741 82.1087 93.755C88.047 94.7359 91.5795 95.9421 91.5795 95.9421L89.7304 102.855L84.6802 103.06" stroke="black" stroke-width="0.5" stroke-linecap="round" stroke-linejoin="round"/>
<path d="M97.4648 89.4605L99.9567 86.6968" stroke="black" stroke-width="0.5" stroke-linecap="round" stroke-linejoin="round"/>
<path d="M132.035 81.6591C132.876 80.4906 132.526 78.6054 131.254 77.4484C129.981 76.2914 128.269 76.3008 127.428 77.4694C126.588 78.6379 126.937 80.5231 128.21 81.6801C129.482 82.837 131.195 82.8277 132.035 81.6591Z" stroke="black" stroke-width="0.862012" stroke-linecap="round" stroke-linejoin="round"/>
<path d="M144.441 74.5684L139.762 78.0412" stroke="black" stroke-width="0.5" stroke-linecap="round" stroke-linejoin="round"/>
<path d="M139.593 80.9159C140.434 79.7474 140.084 77.8622 138.812 76.7052C137.54 75.5483 135.827 75.5576 134.986 76.7262C134.146 77.8947 134.496 79.7799 135.768 80.9369C137.04 82.0939 138.753 82.0845 139.593 80.9159Z" stroke="black" stroke-width="0.862012" stroke-linecap="round" stroke-linejoin="round"/>
<path d="M132.299 79.0287C132.67 78.2997 134.002 78.3792 134.586 78.863" stroke="black" stroke-width="0.5" stroke-linecap="round" stroke-linejoin="round"/>
<path fill-rule="evenodd" clip-rule="evenodd" d="M101.435 116.276L99.5458 113.863L101.123 112.902C101.123 112.902 106.916 116.083 109.865 117.714C112.808 119.344 116.088 122.691 116.088 122.691C116.088 122.691 124.803 121.233 129.688 120.802C134.566 120.371 139 120.371 139 120.371L139.43 122.141L121.377 141.679L101.435 116.276Z" fill="white" stroke="black" stroke-width="0.5" stroke-linecap="round" stroke-linejoin="round"/>
<path fill-rule="evenodd" clip-rule="evenodd" d="M99.5458 113.863C99.5458 113.863 103.589 116.229 106.657 117.813C109.719 119.39 115.538 124.441 115.538 124.441C115.538 124.441 122.649 123.029 127.965 122.598C133.273 122.167 139.43 122.141 139.43 122.141L140.338 129.637L140.769 132.844L142.638 145.748C142.638 145.748 133.877 146.152 129.999 146.133C126.116 146.106 120.469 146.636 120.469 146.636L105.65 137.106L99.5458 113.863Z" fill="black" stroke="black" stroke-width="0.2" stroke-linecap="round" stroke-linejoin="round"/>
<path fill-rule="evenodd" clip-rule="evenodd" d="M101.759 122.287C101.759 122.287 99.4729 124.248 99.2807 124.726C99.0885 125.209 99.6916 126.714 99.6916 126.714C99.6916 126.714 98.8764 127.529 98.9957 128.331C99.115 129.133 99.6187 129.345 99.6187 129.345C99.6187 129.345 99.1879 130.326 99.3271 130.763C99.4729 131.194 100.48 131.552 100.48 131.552C100.48 131.552 100.169 133.103 101.269 133.679C102.369 134.256 105.1 133.898 105.173 133.54C105.246 133.176 104.516 131.956 104.516 131.956C104.516 131.956 105.232 131.791 105.219 131.24C105.206 130.69 104.536 130.326 104.536 130.326C104.536 130.326 105.544 129.875 105.305 129.398C105.067 128.914 104.106 128.271 104.106 128.271C104.106 128.271 104.967 127.622 104.371 126.787C103.774 125.945 102.541 125.269 102.541 125.269L101.759 122.287Z" fill="white" stroke="black" stroke-width="0.5" stroke-linecap="round" stroke-linejoin="round"/>
<path d="M99.6916 126.714C100.639 127.343 102.482 128.086 103.615 128.304" stroke="black" stroke-width="0.5" stroke-linecap="round" stroke-linejoin="round"/>
<path d="M99.6187 129.345C100.944 130.114 102.641 130.187 104.106 130.372" stroke="black" stroke-width="0.5" stroke-linecap="round" stroke-linejoin="round"/>
<path d="M100.48 131.552C101.428 131.97 102.979 131.989 104 132.029" stroke="black" stroke-width="0.5" stroke-linecap="round" stroke-linejoin="round"/>
<path fill-rule="evenodd" clip-rule="evenodd" d="M118.375 125.455L117.659 126.8L121.39 143.912L122.663 145.013C122.663 145.013 128.144 144.582 131.351 144.635C134.559 144.681 139.371 144.443 139.371 144.443L140.444 143.124L137.906 125.05L135.686 123.539C135.686 123.539 124.909 123.95 118.375 125.455Z" fill="#D7F0F7"/>
<path d="M127.733 115.613C126.507 114.592 125.579 113.85 124.061 113.293" stroke="black" stroke-width="0.5" stroke-linecap="round" stroke-linejoin="round"/>
<path fill-rule="evenodd" clip-rule="evenodd" d="M165.251 119.119C167.531 118.018 170.752 116.342 173.098 114.38L177.605 110.609C177.605 110.609 183.391 124.812 176.79 130.611C170.182 136.403 150.797 140.526 150.797 140.526C150.797 140.526 146.482 142.481 141.737 142.454C136.998 142.434 136.163 140.565 136.163 140.565C136.163 140.565 134.188 140.062 133.804 139.333C133.419 138.604 134.725 138.378 134.725 138.378C134.725 138.378 133.419 138.067 132.849 137.272C132.273 136.483 134.115 136.198 134.115 136.198C134.115 136.198 132.942 135.741 133.326 134.833C133.711 133.925 136.315 133.925 137.966 133.567C139.623 133.202 140.769 132.844 140.769 132.844L140.338 129.637C140.338 129.637 143.215 129.802 144.719 130.498C146.23 131.194 148.265 132.248 148.265 132.248C148.265 132.248 154.727 129.325 159.565 126.933C164.396 124.54 167.392 122.936 167.392 122.936L165.251 119.119Z" fill="white"/>
<path d="M177.605 110.609C177.605 110.609 183.391 124.812 176.79 130.611C170.182 136.403 150.797 140.526 150.797 140.526C150.797 140.526 146.482 142.481 141.737 142.454C136.998 142.434 136.163 140.565 136.163 140.565C136.163 140.565 134.188 140.062 133.804 139.333C133.419 138.604 134.725 138.378 134.725 138.378C134.725 138.378 133.419 138.067 132.849 137.272C132.273 136.483 134.115 136.198 134.115 136.198C134.115 136.198 132.942 135.741 133.326 134.833C133.711 133.925 136.315 133.925 137.966 133.567C139.623 133.202 140.769 132.844 140.769 132.844L140.338 129.637C140.338 129.637 143.215 129.802 144.719 130.498C146.23 131.194 148.265 132.248 148.265 132.248C148.265 132.248 154.727 129.325 159.565 126.933C164.396 124.54 167.392 122.936 167.392 122.936L165.251 119.119C166.451 118.535 167.922 117.8 169.38 116.938" stroke="black" stroke-width="0.5" stroke-linecap="round" stroke-linejoin="round"/>
<path d="M120.005 145.377L115.717 126.343" stroke="white" stroke-width="0.5" stroke-linecap="round" stroke-linejoin="round"/>
<path d="M169.93 123.334C169.056 123.095 168.287 123.016 167.392 122.936" stroke="black" stroke-width="0.5" stroke-linecap="round" stroke-linejoin="round"/>
<path d="M141.545 135.555C141.545 135.555 140.325 135.74 137.919 135.966C136.587 136.092 135.686 136.138 135.149 136.158" stroke="black" stroke-width="0.5" stroke-linecap="round" stroke-linejoin="round"/>
<path d="M141.737 137.775C141.737 137.775 139.954 138.206 138.039 138.285C136.952 138.332 136.117 138.345 135.593 138.345" stroke="black" stroke-width="0.5" stroke-linecap="round" stroke-linejoin="round"/>
<path d="M142.134 140.426C142.134 140.426 141.048 140.645 139.311 140.645C138.35 140.645 137.601 140.599 137.124 140.565" stroke="black" stroke-width="0.5" stroke-linecap="round" stroke-linejoin="round"/>
<path d="M150.339 85.2651C152.699 90.872 151.433 99.4083 143.824 99.8391C139.57 100.078 136.004 96.7175 136.441 90.5738" stroke="#6CA3B7" stroke-width="0.5" stroke-linecap="round" stroke-linejoin="round"/>
<path d="M143.155 105.678L143.261 99.8457" stroke="#6CA3B7" stroke-width="0.5" stroke-linecap="round" stroke-linejoin="round"/>
<path d="M126.003 103.073C126.003 103.073 127.713 106.394 129.721 107.925C131.736 109.456 133.154 110.132 133.154 110.132" stroke="#6CA3B7" stroke-width="0.5" stroke-linecap="round" stroke-linejoin="round"/>
<path d="M177.479 106.705C177.479 106.705 173.025 111.278 170.275 113.147C167.525 115.01 163.369 116.918 163.369 116.918" stroke="#6CA3B7" stroke-width="0.5" stroke-linecap="round" stroke-linejoin="round"/>
<path d="M133.585 98.9775L133.505 116.839" stroke="black" stroke-width="0.5" stroke-linecap="round" stroke-linejoin="round"/>
<path d="M157.577 106.301L164.131 118.323" stroke="black" stroke-width="0.5" stroke-linecap="round" stroke-linejoin="round"/>
<path d="M145.064 103.285C145.441 103.285 145.746 102.98 145.746 102.603C145.746 102.226 145.441 101.92 145.064 101.92C144.687 101.92 144.381 102.226 144.381 102.603C144.381 102.98 144.687 103.285 145.064 103.285Z" fill="black"/>
<path d="M148.139 84.8542L146.959 80.871C146.959 80.871 149.087 78.7171 148.371 75.8672C147.655 73.0174 146.409 73.3289 146.409 73.3289M125.241 73.7C125.572 75.0056 126.275 76.5565 127.09 78.6442C127.507 79.7178 128.263 81.3018 129.118 82.9057C130.934 86.1863 133.91 90.6997 138.112 90.8654L138.098 91.5546L125.241 73.7Z" stroke="black" stroke-width="0.5" stroke-linecap="round" stroke-linejoin="round"/>
<path d="M127.832 68.6035C127.832 68.6035 129.456 67.6226 130.921 67.3111C132.379 66.9996 133.956 66.9797 133.956 66.9797" stroke="white" stroke-width="0.5" stroke-linecap="round" stroke-linejoin="round"/>
<path d="M131.61 65.0378C131.61 65.0378 133.479 64.766 134.818 65.0179C136.163 65.2631 136.998 65.568 136.998 65.568" stroke="white" stroke-width="0.5" stroke-linecap="round" stroke-linejoin="round"/>
<path d="M132.882 62.453C132.882 62.453 133.85 62.3205 134.745 62.4994C135.646 62.6783 135.885 62.7778 135.885 62.7778" stroke="white" stroke-width="0.5" stroke-linecap="round" stroke-linejoin="round"/>
<path d="M143.592 69.0874C143.592 69.0874 144.189 69.9954 144.288 70.5189C144.381 71.0492 144.408 71.3076 144.408 71.3076" stroke="white" stroke-width="0.5" stroke-linecap="round" stroke-linejoin="round"/>
<path d="M145.998 69.5381C145.998 69.5381 146.157 69.8496 146.31 70.3798C146.462 70.9034 146.442 71.2613 146.442 71.2613" stroke="white" stroke-width="0.5" stroke-linecap="round" stroke-linejoin="round"/>
<path d="M147.887 70.3398C147.887 70.3398 147.973 71.0026 148 71.2478C148.02 71.4997 148.046 71.8045 148.046 71.8045" stroke="white" stroke-width="0.5" stroke-linecap="round" stroke-linejoin="round"/>
<path d="M135.308 86.1865L135.878 85.9744" stroke="black" stroke-width="0.5" stroke-linecap="round" stroke-linejoin="round"/>
<path fill-rule="evenodd" clip-rule="evenodd" d="M71.0076 109.416L74.2683 118.893L74.1557 120.57L96.4242 118.867L96.4839 117.263L92.0766 108.071L71.0076 109.416Z" fill="black" stroke="black" stroke-width="0.5" stroke-linecap="round" stroke-linejoin="round"/>
<path fill-rule="evenodd" clip-rule="evenodd" d="M73.4266 110.755L75.7264 117.124L78.9076 116.859L76.4223 110.549L73.4266 110.755Z" fill="white"/>
<path d="M70.9744 111.663L74.1557 120.57" stroke="black" stroke-width="0.5" stroke-linecap="round" stroke-linejoin="round"/>
<path d="M75.8788 119.059L95.2246 117.621" stroke="white" stroke-width="0.5" stroke-linecap="round" stroke-linejoin="round"/>
<path d="M130.815 45.0823L143.281 39.091L141.319 23.0192" stroke="#D7F0F7" stroke-width="0.5" stroke-linecap="round" stroke-linejoin="round"/>
<path d="M55.34 152.846L54.6044 115.878" stroke="#50AA75" stroke-width="0.5" stroke-linecap="round" stroke-linejoin="round"/>
<path d="M77.9003 140.499C77.9003 140.499 81.1544 144.191 84.3621 146.868C87.5699 149.552 90.3004 152.614 90.3004 152.614" stroke="white" stroke-width="0.75" stroke-linecap="round" stroke-linejoin="round"/>
<path d="M92.1693 148.929L96.7158 153.43" stroke="white" stroke-width="0.75" stroke-linecap="round" stroke-linejoin="round"/>
<path d="M116.87 92.9133L127.216 89.8447" stroke="white" stroke-width="0.75" stroke-linecap="round" stroke-linejoin="round"/>
<path d="M111.031 97.2676L119.985 94.5901" stroke="white" stroke-width="0.75" stroke-linecap="round" stroke-linejoin="round"/>
<path d="M62.246 112.398C62.246 112.398 58.508 114.599 60.1384 118.145C61.7622 121.684 63.8697 123.506 63.8697 123.506" stroke="white" stroke-width="0.75" stroke-linecap="round" stroke-linejoin="round"/>
<path d="M68.1776 124.129L65.8844 121.736C64.9698 120.683 61.9742 116.998 63.631 115.652" stroke="white" stroke-width="0.75" stroke-linecap="round" stroke-linejoin="round"/>
<path d="M150.843 147.345L159.936 152.422" stroke="white" stroke-width="0.5" stroke-linecap="round" stroke-linejoin="round"/>
<path d="M70.4243 149.625L77.7345 156.299" stroke="black" stroke-width="0.5" stroke-linecap="round" stroke-linejoin="round"/>
<path d="M70.6563 153.642L73.2411 155.941" stroke="black" stroke-width="0.5" stroke-linecap="round" stroke-linejoin="round"/>
<path d="M64.8307 150.613C66.819 152.893 67.6209 153.933 69.6423 155.955" stroke="black" stroke-width="0.5" stroke-linecap="round" stroke-linejoin="round"/>
</g>
<defs>
<clipPath id="clip0_92_2283">
<rect width="218" height="164.188" fill="white"/>
</clipPath>
</defs>
</svg>
