<svg width="218" height="165" viewBox="0 0 218 165" fill="none" xmlns="http://www.w3.org/2000/svg">
<g clip-path="url(#clip0_92_1242)">
<path fill-rule="evenodd" clip-rule="evenodd" d="M149.789 50.3314L171.004 44.7775L158.889 64.3552L149.789 50.3314ZM154.077 51.796L158.869 58.8014L165.351 48.6281L154.077 51.796Z" fill="#D7F0F7"/>
<path d="M161.235 58.1716L162.136 59.1061" stroke="#6CA3B7" stroke-width="0.5" stroke-linecap="round" stroke-linejoin="round"/>
<path d="M163.362 55.7527L163.906 56.2497" stroke="#6CA3B7" stroke-width="0.5" stroke-linecap="round" stroke-linejoin="round"/>
<path d="M164.648 52.6509L165.55 53.5854" stroke="#6CA3B7" stroke-width="0.5" stroke-linecap="round" stroke-linejoin="round"/>
<path d="M166.67 50.4043L167.213 50.9014" stroke="#6CA3B7" stroke-width="0.5" stroke-linecap="round" stroke-linejoin="round"/>
<path d="M168.028 47.1899L168.93 48.1244" stroke="#6CA3B7" stroke-width="0.5" stroke-linecap="round" stroke-linejoin="round"/>
<path fill-rule="evenodd" clip-rule="evenodd" d="M145.601 20.2092C145.601 20.2092 153.454 18.0552 156.423 23.3241C159.393 28.593 156.808 34.2397 149.484 33.0401C148.278 32.8479 147.198 32.5629 146.244 32.2116L142.393 34.0011L143.195 30.5879C138.807 27.2344 139.967 21.8395 145.601 20.2092Z" fill="#50AA75"/>
<path fill-rule="evenodd" clip-rule="evenodd" d="M153.792 29.2956L150.465 22.0848C150.465 22.0848 150.147 21.263 149.577 21.7402C149.007 22.2173 144.693 28.7057 144.693 28.7057C144.693 28.7057 144.017 29.5805 145.408 29.8456C146.8 30.1108 153.401 30.23 153.401 30.23C153.401 30.23 154.296 30.4488 153.792 29.2956Z" fill="white"/>
<path fill-rule="evenodd" clip-rule="evenodd" d="M150.406 23.9405L149.107 23.861L149.12 27.0687L149.981 27.1217L150.406 23.9405ZM149.438 28.8515C149.63 28.8648 149.796 28.8117 149.928 28.6991C150.068 28.5798 150.141 28.434 150.147 28.255C150.16 28.0827 150.107 27.9303 149.988 27.8044C149.869 27.6784 149.716 27.6055 149.518 27.5923C149.325 27.579 149.16 27.632 149.027 27.7381C148.895 27.8507 148.822 27.9966 148.808 28.1755C148.795 28.3478 148.848 28.5069 148.974 28.6328C149.093 28.7653 149.246 28.8383 149.438 28.8515Z" fill="#50AA75"/>
<path fill-rule="evenodd" clip-rule="evenodd" d="M166.497 81.4543C168.585 81.441 173.271 81.1097 175.239 78.4321C177.797 74.9394 175.166 71.1087 169.732 70.9629C157.086 70.6315 157.027 80.3342 163.985 81.3416L165.132 83.8468L166.497 81.4543Z" fill="white" stroke="black" stroke-width="0.5" stroke-linecap="round" stroke-linejoin="round"/>
<path fill-rule="evenodd" clip-rule="evenodd" d="M164.456 76.1655C164.821 76.1655 165.112 76.4704 165.112 76.8415C165.112 77.2127 164.821 77.5175 164.456 77.5175C164.092 77.5175 163.793 77.2127 163.793 76.8415C163.793 76.4704 164.092 76.1655 164.456 76.1655ZM171.441 75.125C171.806 75.125 172.098 75.4299 172.098 75.801C172.098 76.1722 171.806 76.477 171.441 76.477C171.077 76.477 170.779 76.1722 170.779 75.801C170.779 75.4299 171.077 75.125 171.441 75.125ZM167.876 75.7082C168.24 75.7082 168.539 76.0065 168.539 76.3842C168.539 76.7554 168.24 77.0536 167.876 77.0536C167.511 77.0536 167.22 76.7554 167.22 76.3842C167.22 76.0065 167.511 75.7082 167.876 75.7082Z" fill="black"/>
<path fill-rule="evenodd" clip-rule="evenodd" d="M82.0491 57.7409C84.6073 54.2482 81.9762 50.4175 76.5416 50.2717C68.1577 50.0529 65.3079 54.2416 66.3683 57.383L64.9434 59.9678L67.8992 59.4839C68.6482 60.0605 69.6224 60.4847 70.8021 60.6504C74.3943 60.8028 79.7228 60.9089 82.0491 57.7409Z" fill="white" stroke="black" stroke-width="0.5" stroke-linecap="round" stroke-linejoin="round"/>
<path fill-rule="evenodd" clip-rule="evenodd" d="M71.266 55.4744C71.6305 55.4744 71.9222 55.7792 71.9222 56.1504C71.9222 56.5215 71.6305 56.8198 71.266 56.8198C70.9015 56.8198 70.6033 56.5215 70.6033 56.1504C70.6033 55.7792 70.9015 55.4744 71.266 55.4744ZM78.2515 54.4338C78.616 54.4338 78.9076 54.7387 78.9076 55.1098C78.9076 55.481 78.616 55.7859 78.2515 55.7859C77.887 55.7859 77.5887 55.481 77.5887 55.1098C77.5887 54.7387 77.887 54.4338 78.2515 54.4338ZM74.6925 55.0171C75.057 55.0171 75.3486 55.3153 75.3486 55.6931C75.3486 56.0642 75.057 56.3625 74.6925 56.3625C74.328 56.3625 74.0297 56.0642 74.0297 55.6931C74.0297 55.3153 74.328 55.0171 74.6925 55.0171Z" fill="black"/>
<path fill-rule="evenodd" clip-rule="evenodd" d="M76.124 24.7689L74.9311 38.3157L86.2576 36.281L87.3312 22.6614L76.124 24.7689Z" fill="#50AA75"/>
<path fill-rule="evenodd" clip-rule="evenodd" d="M77.0254 25.7962L76.6874 29.4414L85.9262 27.7778L86.2178 24.0664L77.0254 25.7962Z" fill="white"/>
<path d="M78.0394 30.1439L77.9201 31.5225L76.5416 31.6881" stroke="black" stroke-width="0.5" stroke-linecap="round" stroke-linejoin="round"/>
<path d="M80.4187 29.8324L80.2994 31.2043L78.9209 31.37" stroke="black" stroke-width="0.5" stroke-linecap="round" stroke-linejoin="round"/>
<path d="M82.851 29.3287L82.7317 30.7073L81.3532 30.873" stroke="black" stroke-width="0.5" stroke-linecap="round" stroke-linejoin="round"/>
<path d="M85.2237 28.8317L85.1044 30.2102L83.7258 30.3759" stroke="black" stroke-width="0.5" stroke-linecap="round" stroke-linejoin="round"/>
<path d="M77.9201 32.4768L77.8008 33.8487L76.4223 34.021" stroke="black" stroke-width="0.5" stroke-linecap="round" stroke-linejoin="round"/>
<path d="M80.2994 32.1587L80.1801 33.5372L78.8016 33.7029" stroke="black" stroke-width="0.5" stroke-linecap="round" stroke-linejoin="round"/>
<path d="M82.7317 31.6616L82.6124 33.0335L81.2339 33.1992" stroke="black" stroke-width="0.5" stroke-linecap="round" stroke-linejoin="round"/>
<path d="M85.1044 31.1646L84.9851 32.5431L83.6066 32.7088" stroke="black" stroke-width="0.5" stroke-linecap="round" stroke-linejoin="round"/>
<path d="M77.7942 34.75L77.6749 36.1285L76.2964 36.2942" stroke="black" stroke-width="0.5" stroke-linecap="round" stroke-linejoin="round"/>
<path d="M80.1668 34.4385L80.0475 35.8104L78.669 35.9827" stroke="black" stroke-width="0.5" stroke-linecap="round" stroke-linejoin="round"/>
<path d="M82.5991 33.9348L82.4798 35.3133L81.1013 35.479" stroke="black" stroke-width="0.5" stroke-linecap="round" stroke-linejoin="round"/>
<path d="M84.9718 33.4445L84.8526 34.8164L83.4807 34.9887" stroke="black" stroke-width="0.5" stroke-linecap="round" stroke-linejoin="round"/>
<path fill-rule="evenodd" clip-rule="evenodd" d="M112.039 53.274L108.904 56.5746C108.904 56.5746 102.449 48.9661 101.66 47.6472C100.871 46.3284 100.606 45.8048 100.606 45.8048C100.606 45.8048 100.513 42.7627 100.772 41.6162C101.037 40.463 101.912 39.0049 101.706 38.594C101.501 38.1897 100.725 37.9644 100.043 38.9055C99.3602 39.8532 98.7041 41.1324 98.7041 41.1324C98.7041 41.1324 95.4235 37.1161 94.4757 36.6588C93.5346 36.2015 92.958 36.6455 92.958 36.6455C92.958 36.6455 92.3615 35.9629 91.5066 36.4997C90.6583 37.0432 91.8313 37.9047 92.7194 39.3893C93.6009 40.8739 94.1907 42.2127 94.1907 42.2127C94.1907 42.2127 91.0692 39.0248 90.3335 38.7995C89.6045 38.5741 88.9815 39.1574 89.7834 40.1051C90.5854 41.0528 91.0692 41.5897 91.6988 42.3916C92.335 43.1935 92.6333 43.8298 92.6333 43.8298C92.6333 43.8298 90.539 42.7495 89.3394 42.6567C88.1464 42.5573 88.5507 43.7171 89.114 43.8894C89.6774 44.0551 92.3483 45.5993 93.5412 46.5338C94.7408 47.4683 95.3903 48.2106 95.3903 48.2106L103.741 61.976C104.51 63.2352 106.617 65.3759 110.276 63.6462C113.941 61.923 118.587 58.2845 118.587 58.2845L112.039 53.274Z" fill="white" stroke="black" stroke-width="0.5" stroke-linecap="round" stroke-linejoin="round"/>
<path fill-rule="evenodd" clip-rule="evenodd" d="M102.946 128.484C102.946 128.484 102.203 135.8 101.13 139.2C100.063 142.6 98.7107 146.424 102.807 145.954C106.909 145.49 108.911 140.831 109.799 137.895C110.68 134.959 111.104 133.05 111.104 133.05L110.587 127.364L102.946 128.484Z" fill="white" stroke="black" stroke-width="0.5" stroke-linecap="round" stroke-linejoin="round"/>
<path fill-rule="evenodd" clip-rule="evenodd" d="M110.614 128.404C110.614 128.404 110.269 132.825 109.48 137.007C108.692 141.189 106.631 147.014 110.746 146.696C114.869 146.378 117.221 140.493 117.95 136.51C118.673 132.526 118.852 131.029 118.852 131.029L118.494 126.098L110.614 128.404Z" fill="white" stroke="black" stroke-width="0.5" stroke-linecap="round" stroke-linejoin="round"/>
<path fill-rule="evenodd" clip-rule="evenodd" d="M138.701 74.9793C139.132 74.8865 139.755 79.7644 139.371 84.3639C138.986 88.9635 135.494 92.6948 131.802 95.5181C128.117 98.3414 120.217 101.171 120.217 101.171C119.965 109.834 119.236 118.675 119.117 127.264C118.355 130.863 111.634 131.943 110.137 128.841C110.137 128.841 108.009 130.445 105.279 130.492C102.548 130.545 101.852 129.299 101.852 129.299C101.057 122.651 95.2578 95.4651 99.8308 89.8118C105.067 83.3566 113.788 79.2077 119.76 76.7224L138.701 74.9793Z" fill="#D7F0F7"/>
<path d="M111.489 89.4075C110.939 89.7388 106.677 92.4495 107.227 99.2229C107.777 106.003 110.037 127.728 110.077 128.079" stroke="black" stroke-width="0.5" stroke-linecap="round" stroke-linejoin="round"/>
<path fill-rule="evenodd" clip-rule="evenodd" d="M131.67 47.0906L136.567 45.2349C136.567 45.2349 141.704 46.3748 143.5 50.6562C145.289 54.9442 145.846 57.6019 145.846 57.6019L139.258 60.8096C139.258 60.8096 137.131 67.0064 138.085 70.9829C139.046 74.9594 139.497 75.1251 138.973 76.1789C138.443 77.2327 135.958 79.9102 128.581 80.8712C121.211 81.8256 118.096 78.2864 117.858 77.7562C117.619 77.2327 118.931 71.5065 118.885 69.0211C118.839 66.5292 118.501 64.183 118.501 64.183C118.501 64.183 116.804 62.9901 116.254 61.8634C115.704 60.7367 116.466 58.1785 116.466 58.1785L110.932 53.7778C110.932 53.7778 113.331 50.4441 114.862 48.8866C116.393 47.3292 118.129 46.0368 120.794 45.5198C120.794 45.5198 121.191 45.4867 121.881 45.4403C125.201 45.4536 131.67 47.0906 131.67 47.0906Z" fill="black" stroke="black" stroke-width="0.2" stroke-linecap="round" stroke-linejoin="round"/>
<path d="M110.329 58.2181L108.904 56.5745" stroke="black" stroke-width="0.5" stroke-linecap="round" stroke-linejoin="round"/>
<path d="M96.3248 44.5124C96.3248 44.5124 97.5443 43.3592 97.9883 42.5838C98.4324 41.8017 98.7041 41.1323 98.7041 41.1323" stroke="black" stroke-width="0.5" stroke-linecap="round" stroke-linejoin="round"/>
<path d="M96.0995 41.1854C95.3704 39.9792 94.1443 38.0307 92.958 36.6455" stroke="black" stroke-width="0.5" stroke-linecap="round" stroke-linejoin="round"/>
<path d="M118.288 51.3188C118.288 51.3188 118.083 53.4132 117.752 54.7055C117.553 55.4544 117.195 56.3823 116.923 57.0384" stroke="white" stroke-width="0.5" stroke-linecap="round" stroke-linejoin="round"/>
<path fill-rule="evenodd" clip-rule="evenodd" d="M96.2983 68.8818L95.503 69.6374L100.851 87.1407L125.632 90.7196L137.84 81.0964L123.04 79.592L120.761 72.1227L96.2983 68.8818Z" fill="#50AA75"/>
<path d="M96.3116 69.7434L120.012 72.9048L125.327 89.8978" stroke="white" stroke-width="0.5" stroke-linecap="round" stroke-linejoin="round"/>
<path fill-rule="evenodd" clip-rule="evenodd" d="M117.705 32.7618C118.037 34.5313 118.381 36.049 118.779 37.3016C119.097 38.203 119.607 39.2965 120.363 40.2376C121.98 42.2391 124.406 42.1265 124.406 42.1265L124.552 44.519L120.794 45.5198C120.794 45.5198 118.467 53.9036 125.89 53.5192C133.313 53.1348 136.567 45.2348 136.567 45.2348L131.06 44.0418C131.06 44.0418 130.51 40.1581 130.463 38.8458C130.417 37.527 130.51 36.619 130.51 36.619C130.51 36.619 131.948 36.44 132.332 34.6639C132.71 32.8943 132.107 31.9532 131.842 31.6483C135.368 19.838 114.902 17.757 117.705 32.7618Z" fill="white"/>
<path fill-rule="evenodd" clip-rule="evenodd" d="M124.406 42.1265C124.406 42.1265 121.98 42.2392 120.363 40.2377C119.607 39.2965 119.097 38.203 118.779 37.3017C118.381 36.049 118.037 34.5313 117.705 32.7618C117.553 31.9598 117.473 31.2109 117.453 30.5084C117.526 30.3361 118.885 27.2013 121.881 25.9752C121.881 25.9752 121.828 28.5864 124.174 29.9782C126.52 31.3634 128.555 31.2706 128.555 31.2706C128.555 31.2706 128.521 32.4901 128.667 33.2655C128.806 34.0475 129.237 34.4386 129.31 34.3789C129.383 34.3193 129.085 32.331 130.245 31.6881C131.404 31.0386 131.842 31.6484 131.842 31.6484C132.107 31.9532 132.71 32.8943 132.332 34.6639C131.948 36.4401 130.51 36.619 130.51 36.619C130.51 36.619 130.417 37.527 130.463 38.8459C130.503 39.9262 130.881 42.7429 131.013 43.7105C135.063 42.5971 137.151 40.3371 137.151 40.3371C137.051 34.5313 134.785 17.3196 125.771 21.2564C125.771 21.2564 122.802 19.0096 119.733 21.6142C116.671 24.2255 115.399 29.0636 114.829 34.4452C114.252 39.8334 113.126 43.0875 113.126 43.0875C113.126 43.0875 114.027 43.4984 114.769 42.6368C115.512 41.7752 116.585 39.2568 116.585 39.2568C116.585 39.2568 116.181 43.3526 116.897 43.8828C117.387 44.2407 120.834 44.5986 124.552 44.4992L124.406 42.1265Z" fill="#50AA75"/>
<path d="M130.377 35.3863C130.377 35.3863 130.125 34.5843 130.443 33.4113C130.768 32.2382 131.497 32.4503 131.497 32.4503" stroke="black" stroke-width="0.5" stroke-linecap="round" stroke-linejoin="round"/>
<path d="M131.398 34.3392L130.404 33.577" stroke="black" stroke-width="0.5" stroke-linecap="round" stroke-linejoin="round"/>
<path fill-rule="evenodd" clip-rule="evenodd" d="M119.21 33.0998C119.488 33.0004 119.8 33.1793 119.906 33.4908C120.018 33.8089 119.886 34.1403 119.607 34.2397C119.329 34.3325 119.018 34.1536 118.912 33.8421C118.799 33.524 118.931 33.1926 119.21 33.0998ZM124.121 33.3318C124.399 33.2323 124.711 33.4113 124.823 33.7294C124.929 34.0409 124.797 34.3723 124.525 34.4717C124.247 34.5645 123.935 34.3922 123.823 34.074C123.716 33.7625 123.849 33.4245 124.121 33.3318Z" fill="black"/>
<path d="M121.529 33.2124C121.529 33.2124 121.423 34.9952 121.317 35.7773C121.211 36.5527 121.065 37.0696 121.065 37.0696C121.496 37.1823 122.033 37.1823 122.49 37.0431" stroke="black" stroke-width="0.5" stroke-linecap="round" stroke-linejoin="round"/>
<path d="M119.654 35.5517C120.721 35.0431 121.142 33.6814 120.594 32.5102C120.045 31.3391 118.735 30.802 117.667 31.3106C116.599 31.8193 116.178 33.181 116.727 34.3521C117.276 35.5232 118.586 36.0603 119.654 35.5517Z" stroke="black" stroke-width="0.6776" stroke-linecap="round" stroke-linejoin="round"/>
<path d="M125.595 35.5453C126.663 35.0367 127.084 33.675 126.535 32.5039C125.987 31.3327 124.676 30.7957 123.609 31.3043C122.541 31.8129 122.12 33.1746 122.669 34.3457C123.217 35.5169 124.528 36.0539 125.595 35.5453Z" stroke="black" stroke-width="0.6776" stroke-linecap="round" stroke-linejoin="round"/>
<path d="M129.681 32.2581L126.759 33.2721" stroke="black" stroke-width="0.5" stroke-linecap="round" stroke-linejoin="round"/>
<path d="M120.833 33.4377L122.437 33.4775" stroke="black" stroke-width="0.5" stroke-linecap="round" stroke-linejoin="round"/>
<path d="M128.919 39.2369C128.124 40.748 126.706 41.6759 125.042 42.0338" stroke="black" stroke-width="0.5" stroke-linecap="round" stroke-linejoin="round"/>
<path d="M123.849 39.8005C124.188 39.6875 124.365 39.2648 124.244 38.8565C124.123 38.4481 123.75 38.2086 123.411 38.3216C123.073 38.4346 122.896 38.8573 123.017 39.2657C123.138 39.6741 123.51 39.9135 123.849 39.8005Z" fill="black" stroke="black" stroke-width="0.616691" stroke-linecap="round" stroke-linejoin="round"/>
<path d="M122.411 38.3554L123.491 38.3024" stroke="black" stroke-width="0.5" stroke-linecap="round" stroke-linejoin="round"/>
<path d="M136.574 56.6011L137.939 60.8626" stroke="white" stroke-width="0.5" stroke-linecap="round" stroke-linejoin="round"/>
<path fill-rule="evenodd" clip-rule="evenodd" d="M138.754 61.0017L140.371 67.722L132.326 77.1994C132.326 77.1994 127.203 79.0883 126.507 79.7643C125.817 80.4337 124.452 81.8586 124.28 82.064C124.114 82.2695 124.472 82.6141 124.783 82.6738C125.095 82.7334 125.347 82.6738 125.347 82.6738C125.347 82.6738 124.339 84.4102 124.512 84.8145C124.677 85.2254 125.479 84.8542 125.479 84.8542C125.479 84.8542 125.552 85.5236 125.943 85.5501C126.341 85.57 126.937 85.0199 126.937 85.0199C126.937 85.0199 127.057 85.57 127.719 85.464C128.376 85.3579 128.707 84.6952 128.707 84.6952C128.707 84.6952 129.131 85.6694 130.099 84.6885C132.399 82.3556 131.696 83.4426 134.082 81.5471C135.235 80.6391 135.905 79.804 135.905 79.804C135.905 79.804 146.721 73.8194 147.032 68.9083C147.344 64.004 145.349 57.8403 145.349 57.8403L138.754 61.0017Z" fill="white" stroke="black" stroke-width="0.5" stroke-linecap="round" stroke-linejoin="round"/>
<path d="M130.98 81.8586C130.569 82.1436 129.443 83.2372 128.707 84.6952" stroke="black" stroke-width="0.5" stroke-linecap="round" stroke-linejoin="round"/>
<path d="M129.562 81.5208C128.707 82.2299 127.421 83.7675 126.937 85.0201" stroke="black" stroke-width="0.5" stroke-linecap="round" stroke-linejoin="round"/>
<path d="M128.362 81.3284C126.931 82.5346 126.169 83.4558 125.479 84.8542" stroke="black" stroke-width="0.5" stroke-linecap="round" stroke-linejoin="round"/>
<path d="M127.216 80.8181C126.586 81.3152 125.778 82.0111 125.347 82.6738" stroke="black" stroke-width="0.5" stroke-linecap="round" stroke-linejoin="round"/>
<path d="M125.4 21.5679C125.4 21.5679 124.479 21.9191 123.544 22.847C122.61 23.7815 122.133 24.875 122.133 24.875" stroke="white" stroke-width="0.5" stroke-linecap="round" stroke-linejoin="round"/>
<path d="M124.386 25.425C124.386 25.425 124.956 28.0098 127.66 28.9907C130.371 29.9715 131.325 29.7064 131.325 29.7064" stroke="white" stroke-width="0.5" stroke-linecap="round" stroke-linejoin="round"/>
<path d="M127.541 26.068C127.541 26.068 127.971 27.314 129.575 27.7713C131.179 28.2219 131.875 28.275 131.875 28.275" stroke="white" stroke-width="0.5" stroke-linecap="round" stroke-linejoin="round"/>
<path d="M130.848 26.3794C130.848 26.3794 131.756 26.5252 132.471 27.1482C133.194 27.7712 133.459 28.0827 133.459 28.0827" stroke="white" stroke-width="0.5" stroke-linecap="round" stroke-linejoin="round"/>
<path d="M134.533 35.9563C134.533 35.9563 134.818 37.3216 134.818 38.5212C134.818 39.7141 134.818 39.7141 134.818 39.7141V39.5948" stroke="white" stroke-width="0.5" stroke-linecap="round" stroke-linejoin="round"/>
<path d="M133.24 37.0365C133.24 37.0365 133.34 37.9644 133.432 38.5675C133.525 39.1639 133.525 39.2103 133.525 39.2103" stroke="white" stroke-width="0.5" stroke-linecap="round" stroke-linejoin="round"/>
<path d="M118.713 40.8673L118.686 42.279" stroke="white" stroke-width="0.5" stroke-linecap="round" stroke-linejoin="round"/>
<path d="M141.81 67.7222H140.372" stroke="black" stroke-width="0.5" stroke-linecap="round" stroke-linejoin="round"/>
<path d="M133.658 44.6251L131.053 44.0617C131.053 44.0617 130.51 40.1581 130.463 38.8458C130.417 37.527 130.51 36.619 130.51 36.619C130.51 36.619 131.948 36.44 132.332 34.6639C132.71 32.8943 132.107 31.9532 131.842 31.6483M124.485 43.2266L124.578 44.5522L122.225 45.1818L124.485 43.2266Z" stroke="black" stroke-width="0.5" stroke-linecap="round" stroke-linejoin="round"/>
<path d="M119.945 107.938C120.051 105.672 120.151 103.412 120.217 101.171C120.217 101.171 128.117 98.3415 131.802 95.5182C135.494 92.6948 138.986 88.9635 139.371 84.364C139.755 79.7645 139.318 77.6702 139.318 77.6702M101.574 87.8766C100.957 88.4996 100.374 89.1425 99.8308 89.8118C98.0413 92.0254 97.8425 97.5396 98.3064 103.829L101.574 87.8766Z" stroke="black" stroke-width="0.5" stroke-linecap="round" stroke-linejoin="round"/>
<path fill-rule="evenodd" clip-rule="evenodd" d="M149.12 89.5068C149.12 89.5068 147.615 90.3418 146.608 92.4494C145.607 94.557 145.004 97.6454 145.004 97.6454C145.004 97.6454 142.347 100.641 142.154 101.238C141.962 101.834 144.189 102.232 144.189 102.232C144.189 102.232 143.771 103.597 143.798 103.749C143.818 103.908 147.317 104.134 147.602 104.28C147.589 104.584 144.812 105.903 144.308 106.241C143.805 106.573 144.752 107.626 144.752 107.626C144.752 107.626 143.559 111.457 144.799 111.915C146.045 112.372 151.241 111.51 151.241 111.51L151.552 115.507L161.533 113.492L160.771 105.83C160.771 105.83 165.795 100.038 164.025 94.1991C162.249 88.3602 153.825 86.7298 149.12 89.5068Z" fill="white" stroke="black" stroke-width="0.5" stroke-linecap="round" stroke-linejoin="round"/>
<path d="M147.926 99.0811C148.299 99.118 148.638 98.773 148.684 98.3106C148.729 97.8481 148.464 97.4433 148.091 97.4064C147.718 97.3695 147.379 97.7145 147.333 98.1769C147.287 98.6394 147.553 99.0442 147.926 99.0811Z" fill="black"/>
<path d="M147.277 95.4518C147.277 95.4518 147.735 95.18 148.57 95.3722C149.411 95.5644 149.61 95.9952 149.61 95.9952" stroke="black" stroke-width="0.5" stroke-linecap="round" stroke-linejoin="round"/>
<path fill-rule="evenodd" clip-rule="evenodd" d="M107.221 106.599C107.221 106.599 110.753 126.747 110.349 126.787C109.951 126.827 137.641 120.464 137.641 120.464L134.652 100.23L107.221 106.599Z" fill="#50AA75"/>
<path fill-rule="evenodd" clip-rule="evenodd" d="M145.972 86.8293C145.541 90.037 147.291 90.8522 148.941 91.3426C150.591 91.833 153.408 91.8132 153.236 93.9207C153.07 96.0217 152.401 96.2404 152.97 97.3869C153.547 98.5401 152.712 100.595 153.574 100.767C154.435 100.933 154.362 98.4937 156.854 99.4216C159.34 100.356 158.12 103.756 156.974 104.664C155.82 105.579 155.608 105.36 155.893 106.652C156.185 107.945 156.921 109.787 158.001 109.86C159.081 109.933 158.743 108.979 160.108 109.071C161.474 109.164 161.712 108.786 162.547 107.01C163.389 105.241 165.231 105.267 165.994 103.902C166.762 102.537 166.378 101.078 167.193 99.7331C168.008 98.3943 170.474 96.6712 169.705 94.8154C168.943 92.9597 167.432 91.6674 167.458 90.8058C167.478 89.9442 167.472 87.4191 165.616 87.3462C163.76 87.2733 161.686 88.2343 160.261 86.5907C158.842 84.9537 157.63 83.1311 155.953 84.2114C152.937 86.1466 146.615 82.0508 145.972 86.8293Z" fill="black" stroke="black" stroke-width="0.2" stroke-linecap="round" stroke-linejoin="round"/>
<path d="M155.337 103.922C155.337 103.922 154.859 102.258 155.575 101.277C156.298 100.297 157.192 100.953 157.192 100.953" stroke="black" stroke-width="0.5" stroke-linecap="round" stroke-linejoin="round"/>
<path d="M156.728 102.861L155.443 101.496" stroke="black" stroke-width="0.5" stroke-linecap="round" stroke-linejoin="round"/>
<path fill-rule="evenodd" clip-rule="evenodd" d="M140.862 123.294C140.862 123.294 136.919 122.784 136.494 122.379C136.07 121.975 135.706 121.08 136.375 120.444C137.051 119.808 138.754 118.27 138.754 118.27C138.754 118.27 135.752 116.083 134.838 115.381C133.916 114.678 132.783 113.995 132.982 113.326C133.187 112.65 134.791 113.492 136.057 114.002C137.323 114.512 140.007 115.732 140.007 115.732C140.007 115.732 140.458 115.102 141.008 114.91C141.564 114.718 141.743 114.93 141.995 114.791C142.254 114.652 142.764 113.929 143.148 114.101C143.533 114.274 143.778 114.459 144.162 114.208C144.54 113.949 145.236 113.909 145.819 114.327C146.403 114.738 149.186 118.747 149.133 118.403C149.074 118.052 140.862 123.294 140.862 123.294Z" fill="white" stroke="black" stroke-width="0.5" stroke-linecap="round" stroke-linejoin="round"/>
<path d="M109.872 107.845L128.687 103.584" stroke="black" stroke-width="0.5" stroke-linecap="round" stroke-linejoin="round"/>
<path d="M130.589 102.53L132.478 103.65" stroke="black" stroke-width="0.5" stroke-linecap="round" stroke-linejoin="round"/>
<path d="M132.173 102.112L130.848 104.067" stroke="black" stroke-width="0.5" stroke-linecap="round" stroke-linejoin="round"/>
<path fill-rule="evenodd" clip-rule="evenodd" d="M110.548 110.556L112.483 121.902L122.537 119.649L120.641 108.229L110.548 110.556Z" fill="white"/>
<path fill-rule="evenodd" clip-rule="evenodd" d="M123.425 107.56L123.663 108.806L133.121 106.579L132.902 105.287L123.425 107.56Z" fill="white"/>
<path fill-rule="evenodd" clip-rule="evenodd" d="M124.048 110.788L124.286 112.034L130.609 110.549L130.39 109.257L124.048 110.788Z" fill="white"/>
<path d="M124.777 114.307L132.544 112.511" stroke="white" stroke-width="0.5" stroke-linecap="round" stroke-linejoin="round"/>
<path d="M125.208 116.275L131.729 114.731" stroke="white" stroke-width="0.5" stroke-linecap="round" stroke-linejoin="round"/>
<path d="M125.532 118.337L132.962 116.587" stroke="white" stroke-width="0.5" stroke-linecap="round" stroke-linejoin="round"/>
<path fill-rule="evenodd" clip-rule="evenodd" d="M118.302 125.355C118.302 125.355 116.221 123.009 115.286 119.921C114.352 116.832 114.186 114.44 113.397 114.605C112.602 114.771 112.344 115.871 112.344 117.217C112.344 118.555 112.529 119.682 112.529 119.682L108.937 116.68L108.639 114.897C108.639 114.897 106.737 115.52 106.379 116.335C106.021 117.15 106.544 118.608 106.544 118.608C106.544 118.608 105.922 118.953 105.922 119.801C105.922 120.656 106.644 121.418 106.644 121.418C106.644 121.418 106.16 122.055 106.206 122.638C106.26 123.228 106.843 123.897 106.843 123.897C106.843 123.897 106.445 125.892 107.585 126.734C108.725 127.575 112.012 130.226 112.012 130.226L118.302 125.355Z" fill="white" stroke="black" stroke-width="0.5" stroke-linecap="round" stroke-linejoin="round"/>
<path fill-rule="evenodd" clip-rule="evenodd" d="M136.706 126.668C136.706 126.668 139.722 121.021 143.486 119.318C144.507 118.86 146.376 118.31 148.649 117.76C148.649 117.76 149.047 115.281 150.074 114.877C151.108 114.473 160.493 113.008 160.493 113.008C160.493 113.008 163.024 112.412 163.601 112.988C164.178 113.558 164.946 114.751 164.946 114.751C165.669 114.665 166.292 114.605 166.776 114.579C171.13 114.34 174.868 115.487 175.875 122.287C176.757 128.285 175.935 145.437 175.723 149.413H125.685C119.859 143.502 116.115 138.73 110.846 130.207C111.283 124.646 117.023 123.533 118.209 124.56L132.425 136.821C132.425 136.821 136.064 127.695 136.706 126.668Z" fill="#50AA75"/>
<path d="M130.47 141.917L132.425 136.821" stroke="black" stroke-width="0.5" stroke-linecap="round" stroke-linejoin="round"/>
<path d="M147.277 135.403L142.393 149.413" stroke="black" stroke-width="0.5" stroke-linecap="round" stroke-linejoin="round"/>
<path d="M112.059 132.148C112.059 132.148 112.211 129.1 114.551 127.251C116.897 125.401 119.641 125.799 119.641 125.799" stroke="#A94D4D" stroke-width="0.5" stroke-linecap="round" stroke-linejoin="round"/>
<path d="M111.111 128.722L112.476 130.259" stroke="#A94D4D" stroke-width="0.5" stroke-linecap="round" stroke-linejoin="round"/>
<path d="M111.893 127.012L113.404 128.464" stroke="#A94D4D" stroke-width="0.5" stroke-linecap="round" stroke-linejoin="round"/>
<path d="M113.218 125.574L114.69 127.145" stroke="#A94D4D" stroke-width="0.5" stroke-linecap="round" stroke-linejoin="round"/>
<path d="M114.875 124.626L116.227 126.283" stroke="#A94D4D" stroke-width="0.5" stroke-linecap="round" stroke-linejoin="round"/>
<path d="M116.764 124.222L118.004 125.826" stroke="#A94D4D" stroke-width="0.5" stroke-linecap="round" stroke-linejoin="round"/>
<path d="M108.089 116.077L108.937 116.68" stroke="black" stroke-width="0.5" stroke-linecap="round" stroke-linejoin="round"/>
<path d="M140.789 116.077L140.007 115.732" stroke="black" stroke-width="0.5" stroke-linecap="round" stroke-linejoin="round"/>
<path d="M156.483 87.565C156.483 87.565 158.007 87.4324 158.902 88.0223C159.79 88.6121 160.122 89.6991 160.122 89.6991" stroke="white" stroke-width="0.5" stroke-linecap="round" stroke-linejoin="round"/>
<path d="M162.693 98.1755C162.693 98.1755 163.005 99.8722 162.594 100.595C162.189 101.31 161.666 101.622 161.666 101.622" stroke="white" stroke-width="0.5" stroke-linecap="round" stroke-linejoin="round"/>
<path d="M164.502 99.7397C164.502 99.7397 165.198 98.3744 165.079 97.3737C164.96 96.3663 164.317 95.5378 164.317 95.5378" stroke="white" stroke-width="0.5" stroke-linecap="round" stroke-linejoin="round"/>
<path d="M156.496 89.9176C156.178 89.1157 154.886 88.9036 154.024 89.1157" stroke="white" stroke-width="0.5" stroke-linecap="round" stroke-linejoin="round"/>
<path d="M150.651 117.389C155.9 116.256 159.651 115.586 164.946 114.751" stroke="#A94D4D" stroke-width="0.5" stroke-linecap="round" stroke-linejoin="round"/>
<path fill-rule="evenodd" clip-rule="evenodd" d="M49.1698 113.028C49.1698 113.028 50.555 123.42 54.3857 132.321C56.9505 138.279 60.8409 145.947 63.134 150.374H92.1826L79.239 106.613L49.1698 113.028Z" fill="black"/>
<path fill-rule="evenodd" clip-rule="evenodd" d="M51.443 69.3194L49.6934 69.0741C49.6934 69.0741 38.632 74.0117 38.685 82.2431C38.7314 90.4811 40.0702 94.6896 42.0849 97.8974C44.0931 101.105 47.0622 102.689 47.0622 102.689L47.9702 113.459C47.9702 113.459 47.9238 115.997 49.7663 116.044C51.6087 116.097 65.2548 116.189 72.6777 113.22C80.1006 110.251 80.7169 108.959 80.4783 107.282C80.2397 105.605 77.4628 95.359 77.4628 95.359C77.4628 95.359 84.1168 92.9201 83.1161 87.2204C82.1087 81.5273 76.7735 72.9778 72.7241 69.8893C68.6813 66.8009 60.536 67.6426 60.536 67.6426C60.536 67.6426 56.1618 71.2082 51.443 69.3194Z" fill="#D7F0F7"/>
<path fill-rule="evenodd" clip-rule="evenodd" d="M61.5832 48.2769C61.5832 48.2769 63.0943 55.6931 63.2269 58.6026C63.3594 61.5187 62.5111 63.6926 61.5037 64.5541C60.4897 65.4223 58.8924 65.6676 58.8924 65.6676L59.4955 67.6161L60.5361 67.6426C60.5361 67.6426 61.3976 72.6596 55.9167 73.3356C50.4357 74.005 49.6934 69.0741 49.6934 69.0741L50.4622 68.6168L49.7464 62.0092C48.7987 61.5717 46.658 60.4318 46.2404 58.9273C45.697 56.9855 47.3539 56.4752 47.3539 56.4752C47.3539 56.4752 43.7882 49.0258 51.9799 46.4941C60.1649 43.9623 61.5832 48.2769 61.5832 48.2769Z" fill="white"/>
<path fill-rule="evenodd" clip-rule="evenodd" d="M50.2501 56.3426C50.2965 56.7468 50.3428 57.0981 50.3561 57.3566C50.4158 58.3971 49.8325 58.0856 49.468 57.4361C49.1035 56.7866 48.3281 56.3691 47.3538 56.4751C47.3538 56.4751 45.6969 56.9854 46.2404 58.9273C46.7839 60.8758 49.7464 62.0091 49.7464 62.0091C49.7464 62.0091 49.9054 63.5268 50.0777 65.0975C48.1094 64.2492 45.9753 61.923 43.8876 57.7012C41.7999 53.4795 42.1313 51.3255 43.5496 48.4226C44.9679 45.5131 47.155 44.7245 50.6875 44.0286C54.22 43.3327 58.4417 42.5109 58.4417 42.5109C62.3453 41.9011 63.9691 40.7214 64.6451 41.8216C65.3277 42.9218 63.5847 44.075 63.5847 44.075C63.5847 44.075 65.9441 44.075 66.2158 45.2944C66.4876 46.5139 63.2865 47.3225 63.2865 47.3225C63.2865 47.3225 65.1886 48.2106 64.7511 48.9992C64.3204 49.7813 61.9212 50.0066 61.9212 50.0066C61.9212 50.0066 60.9204 50 59.1376 50.0265C58.4682 50.0331 57.6464 49.9669 56.7583 49.9205C56.8842 50.1392 56.9174 50.4109 56.7186 50.7158C56.1751 51.5641 52.4239 50.8218 52.4239 50.8218C52.4239 50.8218 52.0395 52.598 50.0976 52.3793C49.7928 53.4331 49.9187 54.7917 50.2501 56.3426Z" fill="black" stroke="black" stroke-width="0.2" stroke-linecap="round" stroke-linejoin="round"/>
<path d="M55.5243 56.8994C55.2188 56.9727 54.8871 56.6819 54.7835 56.2499C54.6799 55.818 54.8435 55.4084 55.1491 55.3351C55.4546 55.2618 55.7862 55.5526 55.8898 55.9845C55.9935 56.4165 55.8298 56.8261 55.5243 56.8994Z" fill="black"/>
<path d="M60.9826 55.2654C60.6771 55.3386 60.3454 55.0479 60.2418 54.6159C60.1381 54.1839 60.3018 53.7743 60.6073 53.7011C60.9128 53.6278 61.2445 53.9185 61.3481 54.3505C61.4517 54.7825 61.2881 55.1921 60.9826 55.2654Z" fill="black"/>
<path d="M58.4881 54.8579C58.4881 54.8579 59.8733 57.8271 59.5485 58.5097C59.2171 59.1923 58.2694 59.0465 58.2694 59.0465" stroke="black" stroke-width="0.5" stroke-linecap="round" stroke-linejoin="round"/>
<path d="M47.1152 57.7939C48.5004 57.9663 49.6337 59.2056 49.8325 60.5444" stroke="black" stroke-width="0.5" stroke-linecap="round" stroke-linejoin="round"/>
<path d="M47.9106 59.4709L48.8649 58.7153" stroke="black" stroke-width="0.5" stroke-linecap="round" stroke-linejoin="round"/>
<path d="M55.3665 53.6848C55.3665 53.6848 54.9755 53.6914 54.3591 53.9234C53.7428 54.1554 53.4644 54.4536 53.4644 54.4536" stroke="black" stroke-width="0.5" stroke-linecap="round" stroke-linejoin="round"/>
<path d="M61.1789 52.3595C60.4764 52.2468 59.7672 52.5252 59.1973 52.9162" stroke="black" stroke-width="0.5" stroke-linecap="round" stroke-linejoin="round"/>
<path d="M61.4904 46.5604C60.4035 46.0832 58.793 45.6524 56.7252 45.6392" stroke="white" stroke-width="0.5" stroke-linecap="round" stroke-linejoin="round"/>
<path d="M60.821 43.9556C59.6479 43.8894 58.9056 43.8695 57.5139 44.0617" stroke="white" stroke-width="0.5" stroke-linecap="round" stroke-linejoin="round"/>
<path d="M57.8386 47.74C57.1891 47.455 56.3607 47.1833 55.3533 47.011" stroke="white" stroke-width="0.5" stroke-linecap="round" stroke-linejoin="round"/>
<path d="M47.208 55.1563C47.1417 54.6327 47.0887 54.0362 47.0953 53.4331C47.0953 53.1481 47.1086 52.8565 47.1417 52.5715" stroke="white" stroke-width="0.5" stroke-linecap="round" stroke-linejoin="round"/>
<path d="M45.8825 54.3743C45.7964 53.6055 45.7566 52.671 45.8627 51.7961" stroke="white" stroke-width="0.5" stroke-linecap="round" stroke-linejoin="round"/>
<path d="M44.272 54.023C44.2058 53.506 44.1726 52.9626 44.1925 52.4324" stroke="white" stroke-width="0.5" stroke-linecap="round" stroke-linejoin="round"/>
<path d="M58.3357 62.5856C58.7603 62.5856 59.1045 62.1642 59.1045 61.6445C59.1045 61.1247 58.7603 60.7034 58.3357 60.7034C57.9111 60.7034 57.5669 61.1247 57.5669 61.6445C57.5669 62.1642 57.9111 62.5856 58.3357 62.5856Z" fill="black" stroke="black" stroke-width="0.5" stroke-linecap="round" stroke-linejoin="round"/>
<path d="M59.4491 60.5312C58.9322 60.4517 58.3026 60.6041 58.0375 60.7764" stroke="black" stroke-width="0.5" stroke-linecap="round" stroke-linejoin="round"/>
<path fill-rule="evenodd" clip-rule="evenodd" d="M50.1639 83.3961L48.5799 91.7733C48.5799 91.7733 46.8568 92.4692 46.0681 92.6614C45.2794 92.8536 45.0408 92.3632 45.0408 92.3632C45.0408 92.3632 44.4245 92.5156 44.1726 92.1909C43.9274 91.8728 43.9937 91.2233 43.9937 91.2233C43.9937 91.2233 43.5629 91.0708 43.4966 90.5671C43.4237 90.0634 43.6225 89.3808 43.6225 89.3808C43.6225 89.3808 43.0526 87.1075 45.2529 85.1657C47.4532 83.2304 50.1639 83.3961 50.1639 83.3961Z" fill="white"/>
<path d="M47.7051 89.9443C47.7051 89.9443 46.426 90.6734 45.9223 91.1969C45.4186 91.7271 45.0408 92.3634 45.0408 92.3634" stroke="black" stroke-width="0.5" stroke-linecap="round" stroke-linejoin="round"/>
<path d="M47.8973 87.3462C47.8973 87.3462 46.5121 88.221 45.6373 89.0694C44.7624 89.9177 43.9937 91.2233 43.9937 91.2233" stroke="black" stroke-width="0.5" stroke-linecap="round" stroke-linejoin="round"/>
<path d="M47.9702 85.3911C47.9702 85.3911 46.8104 85.6562 45.7301 86.5774C44.6565 87.4987 43.6226 89.3809 43.6226 89.3809" stroke="black" stroke-width="0.5" stroke-linecap="round" stroke-linejoin="round"/>
<path d="M77.4628 95.3589C77.4628 95.3589 74.1225 96.6911 68.9994 96.5983C63.883 96.4989 59.3166 94.5371 59.3166 94.5371" stroke="black" stroke-width="0.5" stroke-linecap="round" stroke-linejoin="round"/>
<path d="M78.8679 85.3713L60.1318 85.484" stroke="black" stroke-width="0.5" stroke-linecap="round" stroke-linejoin="round"/>
<path d="M71.4449 75.4829L74.4605 85.3977" stroke="black" stroke-width="0.5" stroke-linecap="round" stroke-linejoin="round"/>
<path d="M47.7449 79.698L48.1492 83.648" stroke="black" stroke-width="0.5" stroke-linecap="round" stroke-linejoin="round"/>
<path d="M52.0063 75.231C52.0063 75.231 55.4328 75.8871 57.262 76.3046C59.0912 76.7288 60.3769 77.0734 60.3769 77.0734" stroke="#6CA3B7" stroke-width="0.5" stroke-linecap="round" stroke-linejoin="round"/>
<path d="M53.7759 73.8394L53.4976 75.5228" stroke="#6CA3B7" stroke-width="0.5" stroke-linecap="round" stroke-linejoin="round"/>
<path d="M54.9887 74.0977L54.7435 75.7744" stroke="#6CA3B7" stroke-width="0.5" stroke-linecap="round" stroke-linejoin="round"/>
<path d="M56.3673 74.3828L56.1287 76.0596" stroke="#6CA3B7" stroke-width="0.5" stroke-linecap="round" stroke-linejoin="round"/>
<path d="M57.6796 74.6611L57.4277 76.3445" stroke="#6CA3B7" stroke-width="0.5" stroke-linecap="round" stroke-linejoin="round"/>
<path d="M58.8394 74.9128L58.687 76.6426" stroke="#6CA3B7" stroke-width="0.5" stroke-linecap="round" stroke-linejoin="round"/>
<path d="M71.16 117.435V121.644L79.2522 150.374" stroke="white" stroke-width="0.5" stroke-linecap="round" stroke-linejoin="round"/>
<path d="M53.5241 118.416C53.5241 118.416 54.3128 118.986 55.5057 119.47C56.7053 119.947 57.832 120.279 57.832 120.279" stroke="white" stroke-width="0.5" stroke-linecap="round" stroke-linejoin="round"/>
<path d="M54.1404 121.074C54.1404 121.074 55.0882 121.63 55.5786 121.816C56.0691 121.995 56.2414 122.114 56.2414 122.114" stroke="white" stroke-width="0.5" stroke-linecap="round" stroke-linejoin="round"/>
<path d="M61.5832 48.2769C61.5832 48.2769 63.0943 55.6931 63.2269 58.6026C63.3594 61.5187 62.5111 63.6925 61.5037 64.5541C60.4897 65.4223 58.8924 65.6675 58.8924 65.6675M50.4622 68.6168L49.7464 62.0091C48.7987 61.5717 46.658 60.4318 46.2404 58.9273C45.697 56.9855 47.3539 56.4751 47.3539 56.4751L50.4622 68.6168Z" stroke="black" stroke-width="0.5" stroke-linecap="round" stroke-linejoin="round"/>
<path d="M53.3584 64.1431C53.3584 64.1431 54.2531 65.1306 55.804 65.5083C57.3548 65.8861 58.8924 65.6674 58.8924 65.6674" stroke="black" stroke-width="0.5" stroke-linecap="round" stroke-linejoin="round"/>
<path d="M58.8394 74.3033C61.0464 73.508 62.4978 70.6913 62.4978 67.5432M48.3215 69.7701C48.3215 69.7701 49.2626 73.223 52.1323 74.6811L48.3215 69.7701Z" stroke="#6CA3B7" stroke-width="0.5" stroke-linecap="round" stroke-linejoin="round"/>
<path fill-rule="evenodd" clip-rule="evenodd" d="M53.1927 73.7201L58.6737 74.8666C58.6737 74.8666 58.9123 73.5014 58.9123 73.4218C58.9123 73.3357 61.8483 71.6258 62.0405 70.9895C62.226 70.3533 61.7886 69.8032 61.7886 69.8032C61.7886 69.8032 62.1067 69.2995 61.9543 68.7892C61.7952 68.2722 61.6097 68.1662 61.6097 68.1662C61.6097 68.1662 61.8682 67.5167 61.6097 67.1919C61.3446 66.8738 60.9535 66.781 60.9535 66.781C60.9535 66.781 61.7555 65.6544 61.6494 65.1573C61.5434 64.6536 60.6619 64.9651 60.6619 64.9651L56.6191 66.4894C56.6191 66.4894 55.0219 63.0564 53.8488 63.5335C52.7818 63.9643 54.6507 66.0321 54.6507 67.8083C54.6507 69.5779 53.1927 73.7201 53.1927 73.7201Z" fill="white" stroke="black" stroke-width="0.5" stroke-linecap="round" stroke-linejoin="round"/>
<path d="M48.1028 94.1063L48.5799 91.7734L50.1639 83.3962L52.0064 75.231L52.3908 73.541L53.1927 73.72L58.6737 74.8665L60.3836 75.3636C60.3836 75.3636 60.4565 87.6908 59.1641 95.5445C57.8718 103.398 53.8223 104.352 51.5756 104.425C49.3222 104.498 47.3605 102.914 47.3605 102.914" stroke="black" stroke-width="0.5" stroke-linecap="round" stroke-linejoin="round"/>
<path fill-rule="evenodd" clip-rule="evenodd" d="M60.5957 115.056L75.4812 119.715L97.4316 109.171L101.044 95.5313L102.031 91.4554L100.692 90.6733L98.8963 91.4554C94.5221 93.3111 79.7825 99.7531 79.7825 99.7531L78.8745 100.19C78.6823 101.218 78.3907 102.159 78.0858 103.08L77.2706 106.685L76.9591 106.838L60.5957 115.056Z" fill="#50AA75"/>
<path d="M75.733 118.675L80.1138 100.847L101.15 91.8066" stroke="white" stroke-width="0.5" stroke-linecap="round" stroke-linejoin="round"/>
<path d="M77.0652 107.421L74.7057 117.601" stroke="black" stroke-width="0.5" stroke-linecap="round" stroke-linejoin="round"/>
<path d="M71.783 111.053L76.8531 108.336" stroke="black" stroke-width="0.5" stroke-linecap="round" stroke-linejoin="round"/>
<path d="M74.2087 116.554L72.4524 116.004L74.1358 114.996" stroke="black" stroke-width="0.5" stroke-linecap="round" stroke-linejoin="round"/>
<path d="M71.7167 115.825L70.1924 115.407L72.0746 114.387" stroke="black" stroke-width="0.5" stroke-linecap="round" stroke-linejoin="round"/>
<path d="M69.4037 115.189L68.0385 114.764L70.0002 113.77" stroke="black" stroke-width="0.5" stroke-linecap="round" stroke-linejoin="round"/>
<path d="M74.3942 114.353L72.8765 113.929L74.7521 112.915" stroke="black" stroke-width="0.5" stroke-linecap="round" stroke-linejoin="round"/>
<path d="M72.0878 113.717L70.7159 113.293L72.6777 112.292" stroke="black" stroke-width="0.5" stroke-linecap="round" stroke-linejoin="round"/>
<path d="M74.9841 112.12L73.6122 111.703L75.5739 110.702" stroke="black" stroke-width="0.5" stroke-linecap="round" stroke-linejoin="round"/>
</g>
<defs>
<clipPath id="clip0_92_1242">
<rect width="218" height="164.188" fill="white"/>
</clipPath>
</defs>
</svg>
