<svg width="103" height="117" viewBox="0 0 103 117" fill="none" xmlns="http://www.w3.org/2000/svg">
<path fill-rule="evenodd" clip-rule="evenodd" d="M15.8351 0.43988C15.8351 0.43988 19.5727 11.0829 20.6655 15.1982C21.7582 19.3136 22.7638 23.551 22.7638 23.551L9.41215 26.3237L0.972168 10.2226L15.8351 0.43988Z" fill="#ED712E"/>
<path fill-rule="evenodd" clip-rule="evenodd" d="M17.2651 1.20135L16.6605 1.55011L16.4513 0.957214L0.972168 10.2226L8.65651 31.7178L24.2809 24.359L18.6543 6.06073C18.9217 5.85729 19.1367 5.68872 19.1367 5.68872L18.0556 1.55592L17.4511 1.84655L17.2651 1.20135Z" fill="white"/>
<path fill-rule="evenodd" clip-rule="evenodd" d="M17.9799 36.5481C17.9799 36.5481 16.4686 32.8513 15.0387 30.9215C14.6842 30.4448 14.3645 29.9624 14.0854 29.5148L14.1726 29.4799L14.254 29.4392L14.3354 29.4044L14.411 29.3753L14.4168 29.3695L14.504 29.3346L14.5853 29.2997L14.6725 29.2649L14.7539 29.2242L14.783 29.2125L14.8411 29.1893L14.9225 29.1544L15.0097 29.1137L15.091 29.0789L15.1608 29.0498L15.1782 29.044L15.2654 29.0033L15.3468 28.9684L15.434 28.9335L15.5212 28.8928L15.5386 28.887L15.6084 28.858L15.7769 28.7824L15.8641 28.7475L15.9222 28.7185L15.9513 28.7068L16.0385 28.672L16.1257 28.6313L16.6953 28.3871L16.736 28.3697L16.8232 28.329L16.9104 28.2941L16.9976 28.2535L17.079 28.2186H17.0848L17.172 28.1779L17.2592 28.143L17.3463 28.1023L17.4335 28.0674L17.4684 28.05L17.5207 28.0268L17.6021 27.9919L17.6893 27.9512L17.7765 27.9163L17.8521 27.8814L17.8637 27.8756L17.9509 27.8408L18.0381 27.8001L18.1252 27.7652L18.2124 27.7303L18.2357 27.7187L18.2996 27.6896L18.381 27.6547L18.4682 27.6141L18.5554 27.5792L18.6135 27.5501L18.7239 27.5036L18.8111 27.4629L18.8983 27.4281L18.9797 27.3932L18.9913 27.3874L19.0669 27.3525L19.1483 27.3176L19.2355 27.2827L19.3168 27.242L19.3692 27.2246L19.404 27.2072L19.4854 27.1723L19.5726 27.1374C20.491 26.7305 21.3629 26.3469 22.1418 26.0098C22.1767 26.9282 22.1999 27.9396 22.136 28.3174C22.0081 29.073 21.3396 31.2993 21.9674 32.7292C22.5952 34.1533 17.9799 36.5481 17.9799 36.5481Z" fill="white"/>
<path d="M22.1418 26.0098C22.1767 26.9282 22.1999 27.9396 22.136 28.3174C22.0081 29.073 21.3396 31.2993 21.9674 32.7292C22.5952 34.1533 17.9799 36.5481 17.9799 36.5481C17.9799 36.5481 16.4686 32.8513 15.0387 30.9215C14.6842 30.4448 14.3645 29.9624 14.0854 29.5148" stroke="black" stroke-width="0.5" stroke-linecap="round" stroke-linejoin="round"/>
<path fill-rule="evenodd" clip-rule="evenodd" d="M15.4512 110.398C15.4512 110.398 19.0666 116.356 22.4671 116.356C25.8675 116.356 26.6405 114.089 27.0823 112.938C27.5241 111.781 27.6113 110.729 27.6113 110.729L23.9551 110.939C23.9551 110.939 23.2866 113.984 22.1299 114.281C20.9732 114.571 20.049 113.229 19.212 111.59C18.3691 109.956 15.4512 110.398 15.4512 110.398Z" fill="#ED712E"/>
<path fill-rule="evenodd" clip-rule="evenodd" d="M44.1719 81.2708C44.1719 81.2708 44.4218 92.5241 44.7996 99.7434C45.1775 106.969 46.898 116.414 46.898 116.414H75.7056C76.5484 106.498 79.321 84.584 78.5189 75.894C78.1934 72.3948 44.1719 81.2708 44.1719 81.2708Z" fill="black" stroke="black" stroke-width="0.5" stroke-linecap="round" stroke-linejoin="round"/>
<path fill-rule="evenodd" clip-rule="evenodd" d="M44.8342 36.5889C43.195 38.6059 35.0282 48.7896 35.0282 48.7896C35.0282 48.7896 28.2216 36.926 26.6522 34.5544C25.077 32.1829 24.0888 30.7936 24.0888 30.7936C24.0888 30.7936 21.7347 32.241 19.7235 33.607C17.7065 34.9729 16.4858 36.2517 16.4858 36.2517C16.4858 36.2517 23.4378 60.7754 32.5927 62.2053C36.6907 62.8447 41.4396 59.9848 44.8284 57.2413C44.5668 62.3913 43.0904 80.0211 43.724 81.6661C44.2297 82.9681 46.206 84.1016 54.9366 84.648C63.673 85.1944 75.3855 80.7012 76.6469 79.7769C77.9082 78.8527 79.187 77.5333 79.0591 74.5746C78.9371 71.6102 80.7913 54.3756 80.7913 54.3756C80.7913 54.3756 84.151 47.5283 81.8783 39.8905C80.5763 35.4961 75.5018 33.171 71.4155 31.991L71.4039 31.9852C71.0551 31.8806 70.6947 31.7818 70.3343 31.6946C67.8175 31.0552 65.8993 30.8576 65.8993 30.8576L65.4633 30.9506C60.447 30.5495 55.7911 31.0843 55.7911 31.0843C52.1291 31.2528 47.1593 33.7232 44.8342 36.5889Z" fill="#D7F0F7"/>
<path fill-rule="evenodd" clip-rule="evenodd" d="M40.7303 72.3076C40.7303 72.3076 45.0957 78.1028 46.2756 92.5473C47.4498 106.992 44.0494 115.438 39.8061 116.234C35.5687 117.03 34.8537 114.845 33.8888 113.798C32.9181 112.746 31.6626 110.189 31.6626 110.189L34.6852 109.346C34.6852 109.346 36.4871 114.804 38.2542 114.554C40.0154 114.298 42.3288 107.457 42.1196 98.9296C41.9045 90.4083 38.6727 83.0145 38.6727 83.0145L40.7303 72.3076Z" fill="#ED712E"/>
<path fill-rule="evenodd" clip-rule="evenodd" d="M21.6823 66.989C21.6823 66.989 31.9242 64.6407 37.3009 67.7447C42.6776 70.8545 42.1719 75.1384 41.6662 80.4279C41.1663 85.7174 39.4574 91.8091 39.4574 91.8091L25.7105 96.2558L13.6201 92.2276L16.8926 74.592C16.8926 74.592 17.8169 68.3725 21.6823 66.989Z" fill="black"/>
<path fill-rule="evenodd" clip-rule="evenodd" d="M25.1235 67.704C25.1235 67.704 32.43 67.1983 35.6619 68.8375C38.8937 70.4766 37.8881 72.7843 36.8825 75.8069C35.8711 78.8294 30.2445 93.6517 30.2445 93.6517L15.8872 91.8033L19.5782 73.0807C19.5782 73.0807 20.1653 68.419 25.1235 67.704Z" fill="black" stroke="black" stroke-width="0.2" stroke-linecap="round" stroke-linejoin="round"/>
<path fill-rule="evenodd" clip-rule="evenodd" d="M8.65651 31.7178C8.94714 31.8457 25.2865 24.6264 25.2865 24.6264L18.9972 1.99188C18.9972 1.99188 5.90712 7.69992 0.972168 10.2226L8.65651 31.7178Z" fill="#ED712E"/>
<path fill-rule="evenodd" clip-rule="evenodd" d="M4.8374 11.6699L6.63933 17.128C6.63933 17.128 13.8412 14.7971 15.8815 14.024C17.9159 13.2451 18.8169 12.8034 18.8169 12.8034L17.0149 6.69427C17.0149 6.69427 9.2434 9.75755 4.8374 11.6699Z" fill="white"/>
<path fill-rule="evenodd" clip-rule="evenodd" d="M94.3463 75.214C94.3463 75.214 93.3582 74.7722 92.8525 75.6964C92.3526 76.6206 87.749 84.8514 87.749 84.8514L85.4704 88.6761C84.9066 89.0598 84.5811 89.2806 84.5811 89.2806L84.1567 90.4606C84.1567 90.4606 84.2962 90.9489 84.7671 91.4023C84.8194 91.4488 84.8717 91.4953 84.9356 91.5359C85.9122 92.2102 92.0213 95.0642 92.0213 95.0642C92.0213 95.0642 93.3059 95.9884 94.2708 94.3958C95.2357 92.7973 102.228 80.3466 102.228 80.3466C102.228 80.3466 102.682 79.6432 102.513 79.0387C102.513 79.0387 102.362 78.3586 101.92 78.068C101.885 78.0448 101.746 78.1029 101.513 78.2191C99.6824 77.417 94.3463 75.214 94.3463 75.214Z" fill="white" stroke="#ED712E" stroke-width="0.5" stroke-linecap="round" stroke-linejoin="round"/>
<path fill-rule="evenodd" clip-rule="evenodd" d="M79.2161 16.5002C79.2161 16.5002 77.8385 15.3319 77.6641 14.4542C77.4839 13.5707 78.5011 12.9487 79.2277 13.3382C79.9485 13.7276 80.6867 15.2621 80.6867 15.2621L79.2161 16.5002Z" fill="black"/>
<path fill-rule="evenodd" clip-rule="evenodd" d="M86.5923 25.6261L87.7955 26.8119L87.9176 26.6608L87.2259 25.1669L86.5923 25.6261Z" fill="black"/>
<path d="M49.0366 38.6814C49.0366 38.6814 47.444 44.4359 46.729 47.6678C46.0141 50.8996 45.6362 52.8875 45.6362 52.8875" stroke="black" stroke-width="0.5" stroke-linecap="round" stroke-linejoin="round"/>
<path d="M17.2764 30.1077C17.2764 30.1077 19.0551 27.8117 19.5259 27.1549" stroke="black" stroke-width="0.5" stroke-linecap="round" stroke-linejoin="round"/>
<path d="M56.7793 30.9912C57.9244 38.5244 69.3811 35.6413 69.2475 31.433" stroke="#6CA3B7" stroke-width="0.5" stroke-linecap="round" stroke-linejoin="round"/>
<path d="M54.2334 91.2046C54.2334 91.2046 55.239 93.89 56.1225 95.1514C57.006 96.4127 57.7152 97.4183 57.7152 97.4183L60.203 115.85" stroke="white" stroke-width="0.5" stroke-linecap="round" stroke-linejoin="round"/>
<path d="M72.8341 87.717L69.1372 93.0123" stroke="white" stroke-width="0.5" stroke-linecap="round" stroke-linejoin="round"/>
<path d="M73.9032 90.8675C73.9032 90.8675 72.2059 92.5067 71.7816 93.0298C71.3631 93.5587 70.6074 94.3144 70.6074 94.3144" stroke="white" stroke-width="0.5" stroke-linecap="round" stroke-linejoin="round"/>
<path d="M17.1021 38.2629C17.1021 38.2629 20.578 35.4844 22.2579 34.3044C23.9377 33.1303 25.1526 32.3281 25.1526 32.3281" stroke="#6CA3B7" stroke-width="0.5" stroke-linecap="round" stroke-linejoin="round"/>
<path fill-rule="evenodd" clip-rule="evenodd" d="M45.2937 52.7539C45.2937 52.7539 40.8238 50.4869 39.202 49.7313C37.5861 48.9756 37.1676 55.8869 36.5805 58.491C35.9934 61.0892 34.145 65.2918 34.145 65.2918L36.1388 64.8268C36.1388 64.8268 36.9351 65.0825 37.6733 64.9546C40.7017 64.4373 42.1665 63.2806 43.951 60.7056L45.2763 61.2287L46.9561 53.3874L45.2937 52.7539Z" fill="white" stroke="black" stroke-width="0.5" stroke-linecap="round" stroke-linejoin="round"/>
<path fill-rule="evenodd" clip-rule="evenodd" d="M21.0433 52.4283L35.325 52.7887C35.6447 52.4865 35.8249 52.3237 35.8249 52.3237L37.9756 52.1377C37.9756 52.1377 39.0916 52.8875 39.1148 53.5327C39.1788 53.7071 39.1962 53.9164 39.1323 54.1838C38.7951 55.5904 30.4075 80.3233 30.4075 80.3233C30.4075 80.3233 29.9018 81.4974 28.7916 81.4103C27.6755 81.3289 12.644 79.7304 12.644 79.7304C12.644 79.7304 12.1441 79.7188 11.6907 79.5153C11.6907 79.5153 11.6675 79.5095 11.6326 79.4863C11.5919 79.4688 11.557 79.4514 11.5221 79.4281C11.2083 79.2479 10.5572 78.7829 10.2317 77.8936C10.1562 77.6902 10.8421 76.8183 12.0395 75.5104C14.1843 69.4711 19.2588 54.6023 19.2588 54.6023C19.2588 54.6023 19.7645 52.1842 21.0433 52.4283Z" fill="#ED712E"/>
<path d="M39.0915 59.1478C39.0915 59.1478 38.0452 61.5368 37.3942 62.6935C36.7432 63.8502 36.1387 64.8267 36.1387 64.8267" stroke="black" stroke-width="0.5" stroke-linecap="round" stroke-linejoin="round"/>
<path d="M40.6261 59.8395C40.6261 59.8395 39.8879 61.7925 39.0101 63.0946C38.1266 64.3966 37.4175 64.9837 37.4175 64.9837" stroke="black" stroke-width="0.5" stroke-linecap="round" stroke-linejoin="round"/>
<path d="M42.2419 60.3626C42.2419 60.3626 41.6141 61.7693 40.8352 62.7807C40.0563 63.7863 39.167 64.6059 39.167 64.6059" stroke="black" stroke-width="0.5" stroke-linecap="round" stroke-linejoin="round"/>
<path d="M46.7817 64.0421C46.7817 64.0421 47.5141 61.4147 48.2058 58.6595C48.8975 55.9101 49.287 53.4165 49.287 53.4165" stroke="#6CA3B7" stroke-width="0.5" stroke-linecap="round" stroke-linejoin="round"/>
<path fill-rule="evenodd" clip-rule="evenodd" d="M52.4487 11.6525C52.4487 11.6525 52.7103 19.4822 53.2799 22.4466C53.8496 25.4111 55.2272 27.3932 56.4537 28.021C57.6801 28.6488 59.3542 28.5093 59.3542 28.5093L59.2147 30.6134L58.1742 30.8983C58.7264 33.6244 60.7143 34.6242 63.4521 34.3452C66.4456 34.0371 67.7942 32.4851 68.4045 31.2586L67.6954 31.0436C67.5558 29.7067 67.643 24.3997 67.6779 22.621C68.5266 21.9468 70.3982 20.2901 70.4564 18.6742C70.5319 16.5817 68.7474 16.4712 68.7474 16.4712C68.7474 16.4712 70.5319 8.11262 61.6792 7.53717C52.8266 6.96753 52.4487 11.6525 52.4487 11.6525Z" fill="white"/>
<path fill-rule="evenodd" clip-rule="evenodd" d="M65.7948 17.0408C65.8472 17.4535 65.8879 17.8197 65.9344 18.0871C66.1262 19.1508 66.6377 18.6916 66.8469 17.9534C67.0562 17.2094 67.7421 16.6049 68.7477 16.4712C68.7477 16.4712 70.5322 16.5816 70.4566 18.6742C70.381 20.7609 67.6782 22.621 67.6782 22.621C67.6782 22.621 67.6898 24.202 67.6317 25.911C69.4103 24.5799 71.4506 21.627 72.5317 16.8665C73.6129 12.1117 72.7584 10.0308 70.631 7.44413C68.5035 4.86331 66.1087 4.59593 62.3828 4.74706C58.6569 4.89819 54.216 5.09 54.216 5.09C50.1355 5.42133 48.2174 4.62499 47.7989 5.89796C47.3862 7.17094 49.4148 7.90915 49.4148 7.90915C49.4148 7.90915 47.0432 8.47879 47.0606 9.77501C47.0781 11.0654 50.5017 11.1003 50.5017 11.1003C50.5017 11.1003 48.7986 12.4605 49.4264 13.1464C50.0542 13.8264 52.5187 13.4777 52.5187 13.4777C52.5187 13.4777 53.5301 13.2335 55.3262 12.8208C56.0005 12.6697 56.8143 12.4023 57.6978 12.1408C57.6281 12.3965 57.6571 12.6755 57.9303 12.9371C58.6802 13.6579 62.2782 12.0071 62.2782 12.0071C62.2782 12.0071 63.0978 13.7044 64.9927 13.0127C65.5565 14.0008 65.76 15.3959 65.7948 17.0408Z" fill="black" stroke="black" stroke-width="0.2" stroke-linecap="round" stroke-linejoin="round"/>
<path d="M60.8654 19.3311C61.1896 19.3311 61.4525 18.9589 61.4525 18.4999C61.4525 18.0408 61.1896 17.6686 60.8654 17.6686C60.5412 17.6686 60.2783 18.0408 60.2783 18.4999C60.2783 18.9589 60.5412 19.3311 60.8654 19.3311Z" fill="black"/>
<path d="M54.7331 18.5405C55.0573 18.5405 55.3202 18.1684 55.3202 17.7093C55.3202 17.2503 55.0573 16.8781 54.7331 16.8781C54.4088 16.8781 54.146 17.2503 54.146 17.7093C54.146 18.1684 54.4088 18.5405 54.7331 18.5405Z" fill="black"/>
<path d="M57.2268 17.8546C57.2268 17.8546 56.5467 21.1795 57.0408 21.7898C57.5349 22.4001 58.4591 22.0165 58.4591 22.0165" stroke="black" stroke-width="0.5" stroke-linecap="round" stroke-linejoin="round"/>
<path d="M58.5698 23.9288C58.5698 23.9288 59.029 24.0974 59.6917 23.7196C60.3601 23.3418 60.738 22.7314 60.738 22.7314" stroke="black" stroke-width="0.5" stroke-linecap="round" stroke-linejoin="round"/>
<path d="M69.3057 17.7442C67.9513 18.2441 67.1143 19.767 67.2364 21.162" stroke="black" stroke-width="0.5" stroke-linecap="round" stroke-linejoin="round"/>
<path d="M68.9102 19.6217L67.7651 19.0927" stroke="black" stroke-width="0.5" stroke-linecap="round" stroke-linejoin="round"/>
<path d="M60.2437 16.0643C60.2437 16.0643 60.6447 15.9713 61.319 16.0585C61.9933 16.1457 62.3478 16.3782 62.3478 16.3782" stroke="black" stroke-width="0.5" stroke-linecap="round" stroke-linejoin="round"/>
<path d="M53.8379 15.6632C54.518 15.3842 55.2969 15.4888 55.9653 15.7504" stroke="black" stroke-width="0.5" stroke-linecap="round" stroke-linejoin="round"/>
<path d="M64.5568 25.6378C64.5568 25.6378 63.8884 26.8468 62.4178 27.6024C60.9472 28.3581 59.3545 28.5092 59.3545 28.5092" stroke="black" stroke-width="0.5" stroke-linecap="round" stroke-linejoin="round"/>
<path fill-rule="evenodd" clip-rule="evenodd" d="M78.8384 16.634C78.8384 16.634 78.8384 16.0353 79.5185 15.3319C80.2044 14.6286 80.7914 14.7332 80.7914 14.7332L87.4702 25.2309L86.6564 25.9342L78.8384 16.634Z" fill="#ED712E"/>
<path fill-rule="evenodd" clip-rule="evenodd" d="M20.212 51.4111L36.7606 51.8296C36.7606 51.8296 38.6381 51.7541 38.301 53.1607C37.9638 54.5674 29.5762 79.3003 29.5762 79.3003C29.5762 79.3003 29.0763 80.4802 27.9602 80.3931C26.85 80.3117 11.8185 78.7132 11.8185 78.7132C11.8185 78.7132 9.56897 78.6493 10.3246 76.888C11.0803 75.1268 18.4275 53.5851 18.4275 53.5851C18.4275 53.5851 18.9332 51.167 20.212 51.4111Z" fill="#ED712E"/>
<path d="M24.8876 66.6866C25.772 66.1581 26.1392 65.1447 25.7079 64.4231C25.2767 63.7015 24.2101 63.545 23.3258 64.0736C22.4415 64.6021 22.0742 65.6155 22.5055 66.3371C22.9368 67.0587 24.0033 67.2152 24.8876 66.6866Z" fill="white"/>
<path fill-rule="evenodd" clip-rule="evenodd" d="M39.2194 51.0391L39.0915 49.6905C39.0915 49.6905 37.6035 48.7954 36.4235 50.0974C35.2493 51.3995 34.2437 52.9921 33.738 53.5618C33.2323 54.1256 34.3484 54.8813 35.7725 54.0035C37.2024 53.12 37.9755 52.1377 37.9755 52.1377L39.2194 51.0391Z" fill="white"/>
<path fill-rule="evenodd" clip-rule="evenodd" d="M2.66925 70.436C2.66925 70.436 19.4678 70.3953 22.6183 72.8308C25.7688 75.2663 30.4712 92.1462 30.4712 92.1462L39.4576 91.8091C39.4576 91.8091 37.9463 108.526 34.3308 110.456C31.3722 112.037 17.9042 113.258 10.8128 110.7C6.06385 108.515 3.63415 101.859 2.44837 97.0114C1.26259 92.1579 1.86129 90.9256 1.86129 90.9256L3.23889 87.1939C3.23889 87.1939 0.553441 74.8013 0.884763 72.9993C1.2219 71.1916 2.66925 70.436 2.66925 70.436Z" fill="black"/>
<path fill-rule="evenodd" clip-rule="evenodd" d="M3.23889 87.1939C3.23889 87.1939 0.553441 74.8013 0.884763 72.9993C0.919639 72.8133 0.96614 72.6389 1.02427 72.482C5.80227 71.8194 18.8808 72.8831 20.4211 74.8187C22.2056 77.0682 24.2633 88.7168 24.2633 88.7168C24.2633 88.7168 21.2175 88.804 15.614 88.4029C10.0048 88.0076 3.23889 87.1939 3.23889 87.1939Z" fill="black"/>
<path fill-rule="evenodd" clip-rule="evenodd" d="M39.1493 94.5527C38.5448 99.3772 37.0219 109.015 34.3306 110.456C33.6157 110.84 32.2729 111.2 30.5582 111.497C30.1804 111.113 29.7909 110.596 29.448 109.904C28.3145 107.596 27.896 96.8836 27.896 96.8836L39.1493 94.5527Z" fill="black"/>
<path fill-rule="evenodd" clip-rule="evenodd" d="M26.3383 112.002C21.2174 112.398 14.9397 112.188 10.8127 110.7C6.06376 108.515 3.63406 101.859 2.44828 97.0115C1.72751 94.0644 1.66357 92.4543 1.72751 91.6406C3.68057 91.6638 8.99915 91.8091 14.9804 92.681C22.5194 93.7796 22.8565 95.5002 23.9493 99.1098C24.7166 101.656 25.7745 108.288 26.3383 112.002Z" fill="black"/>
<path fill-rule="evenodd" clip-rule="evenodd" d="M19.5723 27.1375L20.0373 26.5213C20.0373 26.5213 20.0722 24.5973 20.479 23.2313C20.8859 21.8712 22.5077 22.0049 22.3275 22.8128C22.1473 23.6208 22.1415 26.0098 22.1415 26.0098C21.3626 26.3469 20.4907 26.7306 19.5723 27.1375Z" fill="white"/>
<path fill-rule="evenodd" clip-rule="evenodd" d="M93.9688 74.6269C93.9688 74.6269 92.9807 74.1851 92.475 75.1093C91.9751 76.0336 87.3714 84.2643 87.3714 84.2643L84.4535 89.1527C84.4535 89.1527 83.5816 90.2804 84.5581 90.9488C85.5346 91.6231 91.6438 94.4771 91.6438 94.4771C91.6438 94.4771 92.9284 95.4013 93.8933 93.8087C94.8582 92.2102 101.851 79.7595 101.851 79.7595C101.851 79.7595 102.74 78.3644 101.554 77.818C100.369 77.2716 93.9688 74.6269 93.9688 74.6269Z" fill="white" stroke="#ED712E" stroke-width="0.5" stroke-linecap="round" stroke-linejoin="round"/>
<path fill-rule="evenodd" clip-rule="evenodd" d="M99.4852 76.9287C98.3459 76.4463 96.9741 75.8766 95.8872 75.4232L95.7012 76.3591L98.7005 77.5972L99.4852 76.9287Z" fill="#ED712E" stroke="#ED712E" stroke-width="0.5" stroke-linecap="round" stroke-linejoin="round"/>
<path d="M80.5181 14.8262C80.5181 14.8262 81.1051 13.7276 81.948 14.0008C82.413 14.1519 82.5583 14.9018 82.7153 15.733C82.8489 16.4305 83.0001 17.192 83.3198 17.593C83.7092 18.0755 83.715 17.378 83.715 17.378L84.1103 17.3838C84.1103 17.3896 84.0987 19.1857 83.0117 17.843C82.6281 17.3605 82.4711 16.5467 82.3258 15.8027C82.1921 15.0936 82.0642 14.4542 81.8259 14.3786C81.3028 14.2101 80.8668 15.018 80.861 15.018L80.5181 14.8262Z" fill="black"/>
<path d="M67.0038 59.4384L65.5332 58.7409" stroke="black" stroke-width="0.5" stroke-linecap="round" stroke-linejoin="round"/>
<path d="M67.1433 58.5375C66.6376 58.52 66.0447 58.52 65.5332 58.7409" stroke="black" stroke-width="0.5" stroke-linecap="round" stroke-linejoin="round"/>
<path d="M39.0915 49.6905C39.0915 49.6905 37.6035 48.7954 36.4235 50.0974C35.2493 51.3995 34.2438 52.9921 33.738 53.5618C33.2323 54.1256 34.3484 54.8813 35.7725 54.0035C37.2024 53.12 37.9755 52.1377 37.9755 52.1377" stroke="black" stroke-width="0.5" stroke-linecap="round" stroke-linejoin="round"/>
<path d="M19.5723 27.1375L20.0373 26.5213C20.0373 26.5213 20.0722 24.5973 20.479 23.2313C20.8859 21.8712 22.5077 22.0049 22.3275 22.8128C22.1473 23.6208 22.1415 26.0098 22.1415 26.0098" stroke="black" stroke-width="0.5" stroke-linecap="round" stroke-linejoin="round"/>
<path d="M35.6622 68.8375C38.894 70.4766 37.8884 72.7843 36.8828 75.8068C36.0632 78.2656 32.2327 88.3389 30.8086 92.0939" stroke="white" stroke-width="0.5" stroke-linecap="round" stroke-linejoin="round"/>
<path d="M22.5254 72.8366C25.67 75.2721 30.3725 92.1521 30.3725 92.1521L32.2326 92.0823" stroke="white" stroke-width="0.5" stroke-linecap="round" stroke-linejoin="round"/>
<path d="M30.5582 111.497C30.1804 111.113 29.7909 110.596 29.448 109.904C28.3145 107.596 27.896 96.8836 27.896 96.8836L39.1493 94.5527" stroke="white" stroke-width="0.5" stroke-linecap="round" stroke-linejoin="round"/>
<path d="M1.72754 91.6406C3.68059 91.6638 8.99918 91.8091 14.9804 92.681C22.5194 93.7796 22.8566 95.5002 23.9493 99.1098C24.7166 101.656 25.7745 108.288 26.3384 112.002" stroke="white" stroke-width="0.5" stroke-linecap="round" stroke-linejoin="round"/>
<path d="M1.02441 72.482C5.80242 71.8194 18.8809 72.8831 20.4213 74.8187C22.2058 77.0682 24.2634 88.7168 24.2634 88.7168C24.2634 88.7168 21.2176 88.804 15.6142 88.4029C10.005 88.0076 3.23904 87.1939 3.23904 87.1939" stroke="white" stroke-width="0.5" stroke-linecap="round" stroke-linejoin="round"/>
<path d="M38.3007 53.1607C37.9636 54.5674 29.5759 79.3003 29.5759 79.3003C29.5759 79.3003 29.076 80.4802 27.96 80.393" stroke="white" stroke-width="0.5" stroke-linecap="round" stroke-linejoin="round"/>
<path d="M35.7317 49.7545L35.0283 48.7896" stroke="black" stroke-width="0.5" stroke-linecap="round" stroke-linejoin="round"/>
<path d="M17.5557 35.2635L18.3636 37.2631" stroke="#6CA3B7" stroke-width="0.5" stroke-linecap="round" stroke-linejoin="round"/>
<path d="M18.8052 34.2579L19.6538 36.2517" stroke="#6CA3B7" stroke-width="0.5" stroke-linecap="round" stroke-linejoin="round"/>
<path d="M20.0435 33.3918L20.9851 35.2345" stroke="#6CA3B7" stroke-width="0.5" stroke-linecap="round" stroke-linejoin="round"/>
<path d="M21.3569 32.5258L22.2579 34.3044" stroke="#6CA3B7" stroke-width="0.5" stroke-linecap="round" stroke-linejoin="round"/>
<path d="M22.5776 31.7411L23.5367 33.4151" stroke="#6CA3B7" stroke-width="0.5" stroke-linecap="round" stroke-linejoin="round"/>
<path d="M45.2412 61.3798L47.264 62.2691" stroke="#6CA3B7" stroke-width="0.5" stroke-linecap="round" stroke-linejoin="round"/>
<path d="M45.6362 59.5314L47.7462 60.444" stroke="#6CA3B7" stroke-width="0.5" stroke-linecap="round" stroke-linejoin="round"/>
<path d="M45.9736 57.9736L48.2057 58.6595" stroke="#6CA3B7" stroke-width="0.5" stroke-linecap="round" stroke-linejoin="round"/>
<path d="M46.3223 56.3345L48.595 57.0029" stroke="#6CA3B7" stroke-width="0.5" stroke-linecap="round" stroke-linejoin="round"/>
<path d="M46.6538 54.7825L48.9208 55.4684" stroke="#6CA3B7" stroke-width="0.5" stroke-linecap="round" stroke-linejoin="round"/>
<path d="M46.9209 53.5269L49.153 54.2128" stroke="#6CA3B7" stroke-width="0.5" stroke-linecap="round" stroke-linejoin="round"/>
<path d="M80.7913 54.3756C80.7913 54.3756 77.6699 67.2274 69.2706 70.2906C60.8713 73.3539 44.9214 62.8969 44.9214 62.8969L47.1011 52.7015L65.5331 58.7409L72.7989 42.8258" stroke="black" stroke-width="0.5" stroke-linecap="round" stroke-linejoin="round"/>
<path d="M0.972168 10.2226L8.65651 31.7178L19.5262 27.1549" stroke="black" stroke-width="0.5" stroke-linecap="round" stroke-linejoin="round"/>
<path d="M52.1235 9.90869C53.1059 9.16467 54.6172 8.33927 56.6981 7.82776" stroke="white" stroke-width="0.5" stroke-linecap="round" stroke-linejoin="round"/>
<path d="M52.1641 7.11864C53.3324 6.77569 54.0764 6.57224 55.5238 6.43274" stroke="white" stroke-width="0.5" stroke-linecap="round" stroke-linejoin="round"/>
<path d="M56.0874 10.2109C56.6629 9.76336 57.4359 9.29254 58.4067 8.87402" stroke="white" stroke-width="0.5" stroke-linecap="round" stroke-linejoin="round"/>
<path d="M83.8199 21.4004L84.6918 22.5803M80.373 16.7328L83.012 20.3134L80.373 16.7328Z" stroke="white" stroke-width="0.5" stroke-linecap="round" stroke-linejoin="round"/>
<path d="M41.3001 114.641C39.0855 115.554 37.4753 114.327 37.4753 114.327C37.4753 114.327 36.3709 113.403 35.6676 111.764C34.9643 110.119 34.7725 109.59 34.7725 109.59" stroke="black" stroke-width="0.5" stroke-linecap="round" stroke-linejoin="round"/>
<path d="M24.7283 115.1C22.7229 115.513 21.1361 114.13 21.1361 114.13C21.1361 114.13 20.3804 113.607 19.9387 112.868C19.4969 112.13 19.4155 111.985 19.4155 111.985" stroke="black" stroke-width="0.5" stroke-linecap="round" stroke-linejoin="round"/>
<path d="M41.6489 88.8737C41.4164 88.0251 40.8874 85.8511 40.3701 85.2059" stroke="black" stroke-width="0.5" stroke-linecap="round" stroke-linejoin="round"/>
<path d="M42.2304 86.9381C41.9979 86.0953 41.4515 84.2933 40.9517 83.2761" stroke="black" stroke-width="0.5" stroke-linecap="round" stroke-linejoin="round"/>
<path d="M42.6664 84.7061C42.4281 83.8632 41.8585 81.9915 41.3818 81.0441" stroke="black" stroke-width="0.5" stroke-linecap="round" stroke-linejoin="round"/>
<path d="M43.3 82.5844C43.0675 81.7416 42.1956 79.0852 41.6841 78.0331" stroke="black" stroke-width="0.5" stroke-linecap="round" stroke-linejoin="round"/>
<path d="M18.2532 2.31738L18.0556 1.55592L17.4511 1.84655L17.2651 1.20135L16.6605 1.55011L16.4513 0.957214L15.5271 1.50942L0.972168 10.2226" stroke="black" stroke-width="0.5" stroke-linecap="round" stroke-linejoin="round"/>
<path d="M68.271 15.5877C68.3756 15.0529 68.4628 14.4368 68.5035 13.8148C68.521 13.5184 68.5268 13.2219 68.5151 12.9255" stroke="white" stroke-width="0.5" stroke-linecap="round" stroke-linejoin="round"/>
<path d="M69.6895 14.8727C69.829 14.0764 69.9394 13.1173 69.8813 12.2047" stroke="white" stroke-width="0.5" stroke-linecap="round" stroke-linejoin="round"/>
<path d="M70.6831 15.7853C70.8866 15.0064 71.0784 14.059 71.0958 13.1464" stroke="white" stroke-width="0.5" stroke-linecap="round" stroke-linejoin="round"/>
<path d="M52.4487 11.6525C52.4487 11.6525 52.7103 19.4822 53.2799 22.4466C53.8496 25.4111 55.2272 27.3932 56.4537 28.021C57.6801 28.6488 59.3542 28.5092 59.3542 28.5092L59.2147 30.6134M67.6954 31.0436C67.5558 29.7067 67.643 24.3997 67.6779 22.621C68.5266 21.9468 70.3982 20.2901 70.4564 18.6742C70.5319 16.5817 68.7474 16.4712 68.7474 16.4712L67.6954 31.0436Z" stroke="black" stroke-width="0.5" stroke-linecap="round" stroke-linejoin="round"/>
<path d="M18.5902 102.842C18.5902 102.842 17.5381 98.1391 12.08 96.6685C6.62196 95.1979 3.69819 96.1977 2.35547 96.6278" stroke="white" stroke-width="0.5" stroke-linecap="round" stroke-linejoin="round"/>
</svg>
