<svg width="24" height="24" viewBox="0 0 24 24" fill="none" xmlns="http://www.w3.org/2000/svg">
<path d="M21.4632 10.3916H20.7059V10.353H12.2353V14.1177H17.5551C16.7776 16.3088 14.693 17.8824 12.2353 17.8824C9.1158 17.8824 6.58822 15.3548 6.58822 12.2353C6.58822 9.11583 9.1158 6.58825 12.2353 6.58825C13.6746 6.58825 14.9853 7.13053 15.9816 8.0184L18.6434 5.35664C16.9632 3.79046 14.7151 2.82355 12.2353 2.82355C7.03675 2.82355 2.82352 7.03678 2.82352 12.2353C2.82352 17.4338 7.03675 21.6471 12.2353 21.6471C17.4338 21.6471 21.647 17.4338 21.647 12.2353C21.647 11.6048 21.5827 10.989 21.4632 10.3916Z" fill="#FBBC05"/>
<path d="M3.90808 7.8548L7.00183 10.1232C7.83823 8.05149 9.86396 6.58825 12.2353 6.58825C13.6746 6.58825 14.9853 7.13053 15.9816 8.0184L18.6434 5.35664C16.9632 3.79046 14.7151 2.82355 12.2353 2.82355C8.61948 2.82355 5.48529 4.86399 3.90808 7.8548Z" fill="#EA4335"/>
<path d="M12.2353 21.647C14.6654 21.647 16.875 20.7169 18.5459 19.204L15.6323 16.739C14.6875 17.454 13.5128 17.8823 12.2353 17.8823C9.78675 17.8823 7.70954 16.3217 6.92645 14.1434L3.8566 16.5073C5.41358 19.5551 8.57719 21.647 12.2353 21.647Z" fill="#34A853"/>
<path d="M21.4632 10.3916H20.7059V10.353H12.2353V14.1177H17.5551C17.182 15.171 16.5037 16.0772 15.6305 16.739C15.6323 16.739 15.6323 16.739 15.6323 16.739L18.546 19.2041C18.3401 19.3897 21.6471 16.9412 21.6471 12.2353C21.6471 11.6048 21.5827 10.989 21.4632 10.3916Z" fill="#4285F4"/>
</svg>
