<svg width="134" height="140" viewBox="0 0 134 140" fill="none" xmlns="http://www.w3.org/2000/svg">
<path fill-rule="evenodd" clip-rule="evenodd" d="M4.05484 41.5193L10.8017 35.7931C10.8017 35.7931 7.2692 34.8983 5.99671 34.5073C4.72422 34.1163 0.767576 33.0294 0.820596 32.9034C0.866989 32.7775 4.05484 41.5193 4.05484 41.5193ZM83.4794 44.0112L80.8814 33.9506C84.5729 35.1767 87.3698 35.7135 90.9818 36.6944L83.4794 44.0112ZM104.416 38.9544C104.416 38.9544 109.658 39.5509 110.692 39.6437C111.726 39.7364 115.762 40.0678 115.762 40.0678L108.631 47.7889L104.416 38.9544ZM66.4864 36.489L74.5985 42.911L78.6943 33.1685C78.6943 33.1685 72.6434 34.9845 66.4864 36.489ZM43.9129 39.0472L50.3748 47.3117L55.7564 38.2254C55.7564 38.2254 48.7444 39.2195 43.9129 39.0472ZM20.0803 37.6156L25.6673 46.9804L31.8508 38.8616C31.8508 38.8616 24.9515 38.7887 20.0803 37.6156Z" fill="#D7F0F7"/>
<path fill-rule="evenodd" clip-rule="evenodd" d="M97.8678 34.8652L101.5 23.4061C101.5 23.4061 96.993 25.7125 95.6012 26.3686C94.2028 27.0248 88.1187 29.689 88.1187 29.689L97.8678 34.8652Z" fill="#D7F0F7"/>
<path fill-rule="evenodd" clip-rule="evenodd" d="M117.598 24.6919L118.917 12.6761C118.917 12.6761 116.929 14.1342 115.205 15.2609C113.482 16.3942 109.095 19.1314 109.095 19.1314L117.598 24.6919Z" fill="#D7F0F7"/>
<path fill-rule="evenodd" clip-rule="evenodd" d="M61.0518 33.0227C61.2904 33.0227 68.5939 28.4695 68.5939 28.4695C68.5939 28.4695 65.0548 26.2559 63.9613 25.6992C62.8677 25.1425 59.9052 22.9355 59.9052 22.9355L61.0518 33.0227Z" fill="#D7F0F7"/>
<path d="M0.270508 32.5323C0.270508 32.5323 22.4861 42.2019 56.9559 38.0862C91.4325 33.9639 119.772 12.0399 119.772 12.0399" stroke="black" stroke-width="0.5" stroke-linecap="round" stroke-linejoin="round"/>
<path d="M126.956 40.5715C126.956 40.5715 98.6101 40.3793 79.5559 33.4866C64.3192 27.9725 55.5178 19.9267 44.5691 9.19666" stroke="black" stroke-width="0.5" stroke-linecap="round" stroke-linejoin="round"/>
<path fill-rule="evenodd" clip-rule="evenodd" d="M114.238 86.0365C114.238 86.0365 115.862 82.5769 115.742 80.9863C115.623 79.4023 114.927 78.322 115.073 76.632C115.212 74.9419 116.703 74.8028 116.796 74.8956C116.882 74.9817 119.957 72.397 119.957 72.397L127.201 79.7668C127.201 79.7668 125.286 83.8361 123.212 84.6911C121.137 85.546 120.647 89.2906 120.647 89.2906L114.238 86.0365Z" fill="white" stroke="black" stroke-width="0.5" stroke-linecap="round" stroke-linejoin="round"/>
<path fill-rule="evenodd" clip-rule="evenodd" d="M36.2249 43.3749C36.2249 43.3749 37.398 39.9219 38.9091 37.6288C40.4135 35.3291 41.0829 33.3408 40.7714 32.8636C40.4599 32.3864 39.3134 33.2944 38.5976 34.441C37.8752 35.5942 36.6358 36.2171 36.6358 36.2171C36.6358 36.2171 37.5637 30.2987 37.6366 28.7678C37.7095 27.2368 36.2514 28.337 36.2514 28.337C36.2514 28.337 35.9731 27.3561 35.3766 27.3892C34.7801 27.429 34.4686 28.3237 34.4686 28.3237C34.4686 28.3237 33.6866 27.4622 33.0172 28.3502C32.3478 29.2383 31.758 30.5771 31.758 30.5771C31.758 30.5771 30.8367 29.8216 29.783 32.625C28.7358 35.4218 28.5105 39.8424 28.2785 41.2872C28.0465 42.732 27.6555 44.3757 27.6555 44.3757L36.2249 43.3749Z" fill="white" stroke="black" stroke-width="0.5" stroke-linecap="round" stroke-linejoin="round"/>
<path d="M32.1888 40.5118C32.1888 40.5118 32.9642 39.1332 34.1837 38.0596C35.4031 36.9793 36.5563 36.2039 36.5563 36.2039" stroke="black" stroke-width="0.5" stroke-linecap="round" stroke-linejoin="round"/>
<path d="M30.7175 36.8269C30.7175 36.8269 30.9826 34.6928 31.2676 33.2082C31.5592 31.7236 31.758 31.0344 31.7646 30.8157" stroke="black" stroke-width="0.5" stroke-linecap="round" stroke-linejoin="round"/>
<path d="M32.8383 35.952C33.1299 33.4071 33.7595 30.7759 34.4687 28.3237" stroke="black" stroke-width="0.5" stroke-linecap="round" stroke-linejoin="round"/>
<path d="M34.8133 35.0175C34.8133 35.0175 34.979 33.8312 35.4628 31.9556C35.94 30.0734 36.2117 28.5292 36.2117 28.5292" stroke="black" stroke-width="0.5" stroke-linecap="round" stroke-linejoin="round"/>
<path fill-rule="evenodd" clip-rule="evenodd" d="M60.6342 91.6764C60.6342 91.6764 55.2725 91.915 49.2348 84.0613C43.2038 76.2077 39.7574 69.5072 39.7574 69.5072L38.1271 42.8844C38.1271 42.8844 33.2227 41.4528 29.7498 42.2415C26.277 43.0302 24.2225 44.7799 24.2225 44.7799C24.2225 44.7799 23.6459 74.1266 24.6002 77.911C25.5612 81.6887 40.2611 104.819 40.2611 104.819C40.2611 104.819 39.0615 124.542 38.2464 128.804C37.4378 133.065 36.1918 139.812 36.1918 139.812H88.9537L85.693 119.227C85.693 119.227 106.139 123.919 110.4 117.358C114.662 110.804 123.662 88.4885 123.662 88.4885L111.693 83.7962L101.307 104.719C101.307 104.719 90.4847 102.327 84.215 99.5499C77.9388 96.773 74.108 93.8502 60.6342 91.6764Z" fill="black" stroke="black" stroke-width="0.2" stroke-linecap="round" stroke-linejoin="round"/>
<path d="M63.1262 138.427C63.1262 138.427 64.2993 115.297 64.7566 111.586C65.2139 107.881 65.7905 103.341 65.7838 103.116" stroke="white" stroke-width="0.5" stroke-linecap="round" stroke-linejoin="round"/>
<path fill-rule="evenodd" clip-rule="evenodd" d="M62.9539 90.2448C62.9539 90.2448 60.0113 89.4495 58.2881 92.2795C56.5583 95.1028 53.4036 103.672 53.4036 103.672C53.4036 103.672 57.685 102.28 61.3036 102.188C64.9156 102.088 65.8634 102.075 65.8634 102.075C65.8634 102.075 70.9467 104.865 73.3923 106.469C75.8312 108.073 76.7922 108.696 76.7922 108.696C76.7922 108.696 76.8121 97.449 75.5462 94.8642C74.2737 92.2795 70.5888 91.6035 70.5888 91.6035L62.9539 90.2448Z" fill="#ED712E" stroke="black" stroke-width="0.5" stroke-linecap="round" stroke-linejoin="round"/>
<path fill-rule="evenodd" clip-rule="evenodd" d="M74.8172 71.4757C74.8172 71.4757 69.6941 67.983 64.1402 68.6524C58.5863 69.3218 58.8713 71.3829 58.3941 77.2218C57.9169 83.0673 58.8713 86.9908 60.283 89.0984C61.6946 91.2059 63.4443 91.3716 63.4443 91.3716L62.881 93.4527L65.8634 102.075C65.8634 102.075 67.9245 99.603 69.4754 97.237C71.0328 94.8643 71.3443 94.3408 71.3443 94.3408L73.4055 86.1756C73.4055 86.1756 75.7053 86.5136 76.7325 84.0946C77.7598 81.6755 76.421 80.0253 76.421 80.0253C76.421 80.0253 78.8666 74.8293 74.8172 71.4757Z" fill="white"/>
<path fill-rule="evenodd" clip-rule="evenodd" d="M58.6924 73.6958C61.4627 73.4705 64.9753 72.7348 64.9753 72.7348C64.9753 72.7348 64.5445 74.1465 66.9105 74.0736C69.2832 74.0007 71.8679 74.8424 72.2722 75.989C72.6831 77.1355 71.9872 78.2357 72.2059 78.978C72.418 79.7203 72.5837 80.8271 72.6566 81.9273C72.7295 83.0274 73.1603 82.1393 73.8761 80.9464C74.5985 79.7468 75.586 79.2961 76.421 80.0252C76.421 80.0252 77.7598 81.6754 76.7325 84.0945C75.7053 86.5135 73.4055 86.1755 73.4055 86.1755L72.6036 89.3567C73.8694 88.8663 74.9497 88.3361 77.0507 85.3338C79.1582 82.3382 81.1929 75.3262 80.835 73.9411C80.4771 72.5493 81.0736 70.3754 76.6199 67.5256C72.1662 64.6757 64.9156 64.3377 61.0849 64.583C57.2542 64.8216 54.6694 63.284 54.8351 64.6028C55.0074 65.9217 57.168 67.0219 57.168 67.0219C57.168 67.0219 52.8734 66.8164 52.9065 68.5661C52.9463 70.3158 57.6253 70.7201 57.6253 70.7201C57.6253 70.7201 55.0671 71.9661 55.4714 73.0662C55.8756 74.1664 58.6924 73.6958 58.6924 73.6958Z" fill="black" stroke="black" stroke-width="0.2" stroke-linecap="round" stroke-linejoin="round"/>
<path d="M74.0483 85.2744C74.0483 85.2744 73.5844 83.8362 74.4062 82.4775C75.2347 81.1123 75.9637 80.8472 75.9637 80.8472" stroke="black" stroke-width="0.5" stroke-linecap="round" stroke-linejoin="round"/>
<path d="M75.4402 84.0416L74.4063 82.4775" stroke="black" stroke-width="0.5" stroke-linecap="round" stroke-linejoin="round"/>
<path d="M63.4443 78.6201C63.4443 78.6201 62.7352 80.5355 62.3574 81.3109C61.973 82.093 61.7079 82.6033 61.7079 82.6033L63.4907 83.0738" stroke="black" stroke-width="0.5" stroke-linecap="round" stroke-linejoin="round"/>
<path d="M66.0887 80.0452C66.0887 80.0452 66.7382 78.1564 67.7655 78.5606C68.7927 78.9649 68.7132 80.476 68.7132 80.476" stroke="black" stroke-width="0.5" stroke-linecap="round" stroke-linejoin="round"/>
<path d="M59.4678 79.0775C59.4678 79.0775 59.819 77.5068 60.7734 77.7454C61.7344 77.984 61.7675 79.2697 61.7675 79.2697" stroke="black" stroke-width="0.5" stroke-linecap="round" stroke-linejoin="round"/>
<path fill-rule="evenodd" clip-rule="evenodd" d="M62.9539 84.9495C62.9539 84.9495 63.948 85.0356 65.1211 84.8567C66.2942 84.6777 67.3943 84.4988 67.3943 84.4988C67.3943 84.4988 67.4208 87.1299 65.3464 87.1896C63.2786 87.2492 62.9539 84.9495 62.9539 84.9495Z" fill="white" stroke="black" stroke-width="0.5" stroke-linecap="round" stroke-linejoin="round"/>
<path d="M59.713 76.0356C59.713 76.0356 60.3228 76.029 60.7536 76.0952C61.1777 76.1615 61.4694 76.2344 61.4694 76.2344" stroke="black" stroke-width="0.5" stroke-linecap="round" stroke-linejoin="round"/>
<path d="M66.4731 76.7512C66.4731 76.7512 67.4275 76.8109 67.9311 76.8705C68.4348 76.9302 68.8391 77.0892 68.8391 77.0892" stroke="black" stroke-width="0.5" stroke-linecap="round" stroke-linejoin="round"/>
<path d="M71.2714 88.3164C69.8929 90.9078 67.2684 91.7097 64.1402 91.4115" stroke="black" stroke-width="0.5" stroke-linecap="round" stroke-linejoin="round"/>
<path d="M60.1305 71.0051C60.1305 71.0051 62.4966 70.0706 64.054 69.9977C65.6115 69.9248 66.9967 70.0971 66.9967 70.0971" stroke="white" stroke-width="0.5" stroke-linecap="round" stroke-linejoin="round"/>
<path d="M60.1504 67.9895C60.1504 67.9895 63.5769 68.6125 65.1078 68.4667" stroke="white" stroke-width="0.5" stroke-linecap="round" stroke-linejoin="round"/>
<path d="M64.0342 67.0685C64.9289 66.9956 65.7773 67.1414 65.7773 67.1414" stroke="white" stroke-width="0.5" stroke-linecap="round" stroke-linejoin="round"/>
<path d="M75.2678 75.863C75.2678 75.863 75.4401 76.8704 75.3938 77.2151C75.3407 77.5597 75.248 77.7055 75.248 77.7055" stroke="white" stroke-width="0.5" stroke-linecap="round" stroke-linejoin="round"/>
<path d="M76.6331 78.4744C76.9645 77.5797 77.0573 76.0355 77.0109 75.0679" stroke="white" stroke-width="0.5" stroke-linecap="round" stroke-linejoin="round"/>
<path d="M78.2834 76.0952C78.2834 76.0952 78.4093 75.4656 78.343 74.6438C78.2767 73.8153 78.1906 73.5171 78.1906 73.5171" stroke="white" stroke-width="0.5" stroke-linecap="round" stroke-linejoin="round"/>
<path d="M58.8779 72.4897C58.6327 73.696 58.5598 75.2402 58.3941 77.2218C57.9169 83.0673 58.8713 86.9908 60.283 89.0984C61.6946 91.206 63.4443 91.3716 63.4443 91.3716L62.881 93.4527L65.8634 102.075C65.8634 102.075 67.9245 99.6031 69.4754 97.237C71.0329 94.8644 71.3443 94.3408 71.3443 94.3408L73.4055 86.1756C73.4055 86.1756 75.7053 86.5136 76.7325 84.0946C77.7598 81.6755 76.4211 80.0253 76.4211 80.0253" stroke="black" stroke-width="0.5" stroke-linecap="round" stroke-linejoin="round"/>
<path d="M26.2107 46.9273C26.2107 46.9273 29.1268 45.4295 31.9038 45.0583C34.6807 44.6872 36.5961 44.8927 36.5961 44.8927" stroke="#ED712E" stroke-width="0.5" stroke-linecap="round" stroke-linejoin="round"/>
<path d="M111.991 87.1831C111.991 87.1831 115.921 88.9328 118.029 89.6751C120.136 90.4173 121.667 90.9674 121.667 90.9674" stroke="#ED712E" stroke-width="0.5" stroke-linecap="round" stroke-linejoin="round"/>
<path d="M62.1519 91.7097L62.881 93.4528" stroke="black" stroke-width="0.5" stroke-linecap="round" stroke-linejoin="round"/>
<path d="M72.1728 93.1545L71.3444 94.3409" stroke="black" stroke-width="0.5" stroke-linecap="round" stroke-linejoin="round"/>
<path d="M85.7725 117.981L85.0501 111.997" stroke="white" stroke-width="0.5" stroke-linecap="round" stroke-linejoin="round"/>
<path d="M40.904 103.427C40.904 103.427 41.7192 100.405 41.58 98.0587C41.4342 95.7126 40.904 94.281 40.904 94.281" stroke="white" stroke-width="0.5" stroke-linecap="round" stroke-linejoin="round"/>
<path d="M103.408 107.702L101.805 105.402" stroke="white" stroke-width="0.5" stroke-linecap="round" stroke-linejoin="round"/>
<path d="M56.777 101.518C56.777 101.518 58.6923 100.909 60.7071 100.816C62.7153 100.716 64.054 100.909 64.054 100.909" stroke="white" stroke-width="0.5" stroke-linecap="round" stroke-linejoin="round"/>
<path d="M68.8921 101.929C68.8921 101.929 70.3899 102.824 72.0866 103.977C73.7899 105.124 75.1485 106.197 75.1485 106.197" stroke="white" stroke-width="0.5" stroke-linecap="round" stroke-linejoin="round"/>
<path fill-rule="evenodd" clip-rule="evenodd" d="M113.761 63.3171C113.761 63.3171 111.825 63.516 110.831 65.3518C109.831 67.181 110.195 68.5264 110.195 68.5264C110.195 68.5264 118.871 76.6849 122.045 80.3499C125.22 84.015 128.925 88.1638 128.925 88.1638C128.925 88.1638 130.469 88.6741 132.039 86.6792C133.604 84.6844 132.503 82.3647 132.503 82.3647C132.503 82.3647 121.044 71.1509 119.48 69.726C117.91 68.3011 113.761 63.3171 113.761 63.3171Z" fill="white" stroke="black" stroke-width="0.5" stroke-linecap="round" stroke-linejoin="round"/>
<path fill-rule="evenodd" clip-rule="evenodd" d="M115.51 74.14C115.51 74.14 115.61 72.9205 117.2 71.1112C118.784 69.2952 119.805 69.1958 119.805 69.1958L127.519 76.95C127.519 76.95 125.525 78.2557 124.61 79.495C123.689 80.7344 123.185 81.9803 123.185 81.9803L115.51 74.14Z" fill="#ED712E"/>
<path d="M129.084 87.4946C129.084 87.4946 128.62 86.4739 129.229 84.7044C129.839 82.9348 132.199 82.4841 132.199 82.4841" stroke="black" stroke-width="0.5" stroke-linecap="round" stroke-linejoin="round"/>
<path d="M132.198 82.4841C132.212 83.1999 132.384 84.9297 131.549 86.0497C130.714 87.1698 129.733 87.5343 129.673 86.5998C129.614 85.6587 130.548 83.6439 131.059 83.9488C131.569 84.2537 131.383 85.3737 131.383 85.3737L130.197 84.7242" stroke="black" stroke-width="0.5" stroke-linecap="round" stroke-linejoin="round"/>
<path d="M130.323 83.3059L131.059 83.9488" stroke="black" stroke-width="0.5" stroke-linecap="round" stroke-linejoin="round"/>
<path fill-rule="evenodd" clip-rule="evenodd" d="M128.103 78.0636C128.103 78.0636 128.567 76.1549 128.096 75.1144C127.626 74.0805 126.936 74.4052 126.936 74.4052C126.936 74.4052 127.142 73.8154 126.592 73.1592C126.042 72.5097 125.246 72.8345 125.246 72.8345C125.246 72.8345 124.994 71.8403 124.424 71.4825C123.854 71.1312 122.907 71.3632 122.907 71.3632C122.907 71.3632 122.887 70.1371 121.866 69.9648C120.852 69.7924 120.242 71.0053 119.427 72.8411C118.619 74.6703 118.811 75.4921 119.268 75.7771C119.726 76.0621 120.269 75.6313 120.269 75.6313C119.891 76.811 121.363 77.2352 122.032 76.579C122.032 76.579 121.826 77.6196 122.41 77.8648C122.986 78.11 123.424 77.6394 123.424 77.6394C123.278 80.4694 126.154 77.7057 126.824 76.8176L128.103 78.0636Z" fill="white" stroke="black" stroke-width="0.5" stroke-linecap="round" stroke-linejoin="round"/>
<path fill-rule="evenodd" clip-rule="evenodd" d="M119.228 75.2202C119.845 75.3196 121.522 75.9492 121.561 76.1546C121.601 76.3535 120.706 77.626 119.487 77.4338C118.267 77.2416 115.066 76.7246 115.066 76.7246C115.285 73.4108 117.823 74.9816 119.228 75.2202Z" fill="white"/>
<path d="M120.627 75.2136C120.958 73.2453 121.906 72.2445 122.907 71.363" stroke="black" stroke-width="0.5" stroke-linecap="round" stroke-linejoin="round"/>
<path d="M122.178 75.85C122.178 75.85 122.688 74.3986 123.563 73.643C124.438 72.8941 125.246 72.8345 125.246 72.8345" stroke="black" stroke-width="0.5" stroke-linecap="round" stroke-linejoin="round"/>
<path d="M123.821 77.129C123.821 77.129 124.749 75.9559 125.352 75.3461C125.949 74.7364 126.936 74.405 126.936 74.405" stroke="black" stroke-width="0.5" stroke-linecap="round" stroke-linejoin="round"/>
<path d="M127.785 76.1084L126.824 76.8176" stroke="black" stroke-width="0.5" stroke-linecap="round" stroke-linejoin="round"/>
<path d="M115.066 76.7246C115.285 73.4108 117.823 74.9816 119.228 75.2202C119.845 75.3196 121.522 75.9492 121.561 76.1546C121.601 76.3535 120.706 77.626 119.487 77.4338C118.977 77.3542 118.128 77.2151 117.306 77.0825" stroke="black" stroke-width="0.5" stroke-linecap="round" stroke-linejoin="round"/>
<path d="M120.17 82.2389C119.891 80.5622 119.659 78.5872 118.499 77.2749" stroke="black" stroke-width="0.5" stroke-linecap="round" stroke-linejoin="round"/>
<path fill-rule="evenodd" clip-rule="evenodd" d="M87.8867 43.4942L84.8248 64.6559L101.148 60.9246L103.952 39.2327L87.8867 43.4942Z" fill="white" stroke="black" stroke-width="0.5" stroke-linecap="round" stroke-linejoin="round"/>
<path d="M91.1673 47.0133L98.6101 44.9985" stroke="#ED712E" stroke-width="0.5" stroke-linecap="round" stroke-linejoin="round"/>
<path d="M90.7631 49.9362L98.2125 47.9214" stroke="black" stroke-width="0.5" stroke-linecap="round" stroke-linejoin="round"/>
<path d="M90.4847 51.7984L97.9275 49.7903" stroke="black" stroke-width="0.5" stroke-linecap="round" stroke-linejoin="round"/>
<path d="M90.8757 53.9591L97.1255 52.269" stroke="black" stroke-width="0.5" stroke-linecap="round" stroke-linejoin="round"/>
<path d="M90.1335 56.8885L91.5981 59.5926L96.549 55.2847" stroke="#ED712E" stroke-width="0.5" stroke-linecap="round" stroke-linejoin="round"/>
<path fill-rule="evenodd" clip-rule="evenodd" d="M63.3382 45.085L60.1769 49.4459L62.238 50.5925L65.5386 46.2382L63.3382 45.085Z" fill="#D7F0F7"/>
<path fill-rule="evenodd" clip-rule="evenodd" d="M47.2731 26.7928L50.3814 31.5315L52.3962 29.2848L49.6193 25.1691L47.2731 26.7928Z" fill="#ED712E"/>
<path fill-rule="evenodd" clip-rule="evenodd" d="M118.373 34.2156L117.081 35.6272L119.427 37.4962L120.309 36.1111L118.373 34.2156Z" fill="#D7F0F7"/>
<path fill-rule="evenodd" clip-rule="evenodd" d="M123.377 49.8766L125.074 48.2197L125.505 51.0232L127.036 52.3421L125.266 53.1042L124.597 55.689L123.424 53.9923L120.739 54.496L121.966 52.0041L121.243 49.3729L123.377 49.8766Z" fill="#ED712E"/>
<path fill-rule="evenodd" clip-rule="evenodd" d="M19.7423 110.399L18.0456 108.742L17.6148 111.546L16.0839 112.865L17.8534 113.627L18.5228 116.212L19.6959 114.515L22.38 115.019L21.1539 112.527L21.8763 109.896L19.7423 110.399Z" fill="#ED712E"/>
<path fill-rule="evenodd" clip-rule="evenodd" d="M7.68011 87.773C7.68011 87.773 8.36938 89.6353 9.64187 90.9078C10.9077 92.1736 11.5771 92.2466 11.5771 92.2466L12.7038 90.2384C12.7038 90.2384 10.9806 88.8731 10.4305 87.9585C9.88046 87.0506 9.52257 86.1426 9.52257 86.1426L7.68011 87.773Z" fill="black"/>
<path fill-rule="evenodd" clip-rule="evenodd" d="M18.5493 131.004L18.6686 135.147L21.0611 134.451L20.6038 131.197L18.5493 131.004Z" fill="black"/>
<path fill-rule="evenodd" clip-rule="evenodd" d="M101.122 128.38L99.3988 130.965C99.3988 130.965 100.883 132.257 100.956 132.111C101.029 131.965 102.295 129.5 102.295 129.5L101.122 128.38Z" fill="#D7F0F7"/>
<path fill-rule="evenodd" clip-rule="evenodd" d="M117.631 125.523C117.631 125.523 119.374 124.278 119.785 123.701C120.189 123.124 120.527 122.481 120.527 122.481L122.993 124.039C122.993 124.039 122.323 125.523 121.462 126.286C120.6 127.054 119.997 127.147 119.997 127.147L117.631 125.523Z" fill="#ED712E"/>
<path fill-rule="evenodd" clip-rule="evenodd" d="M96.2043 77.593C96.2043 77.593 96.4694 78.4546 97.1852 79.2433C97.9009 80.0386 98.4577 80.3965 98.4577 80.3965L96.9731 82.6432C96.9731 82.6432 95.462 81.6425 95.0047 81.0659C94.554 80.4893 94.2624 79.5548 94.2624 79.5548L96.2043 77.593Z" fill="#ED712E"/>
<path fill-rule="evenodd" clip-rule="evenodd" d="M115.716 11.7881C115.716 11.7881 115.643 12.9612 115.046 13.5841C114.443 14.2005 113.873 14.4921 113.873 14.4921L115.305 15.0886C115.305 15.0886 115.881 14.8964 116.478 13.9619C117.081 13.0274 117.101 12.9081 117.101 12.9081L115.716 11.7881Z" fill="#D7F0F7"/>
<path fill-rule="evenodd" clip-rule="evenodd" d="M75.4269 14.5583C75.4269 14.5583 75.2811 15.7314 74.5388 16.4737C73.7965 17.216 73.77 17.2425 73.77 17.2425L75.4932 17.7197C75.4932 17.7197 76.2156 17.269 76.6199 16.2351C77.0308 15.2078 77.1501 14.8036 77.1501 14.8036C77.1501 14.8036 75.4203 14.5716 75.4269 14.5583Z" fill="black"/>
<path fill-rule="evenodd" clip-rule="evenodd" d="M7.64697 18.1968L7.83254 18.1438L10.2914 17.3883L10.4703 12.9611L8.25008 13.8359C8.25008 13.8359 7.73976 18.1703 7.64697 18.1968Z" fill="#ED712E"/>
<path d="M14.8843 73.8816C14.8843 73.8816 10.6691 69.8586 9.80756 64.7355C8.94598 59.6191 13.7841 60.3348 14.6921 63.304C15.6 66.2731 9.46956 67.8969 7.17643 61.435C4.87667 54.9732 9.18457 49.8501 11.7693 51.5732C14.3541 53.2964 14.3077 58.3201 10.4769 56.1661C6.64622 54.0122 6.88481 47.5503 8.36938 43.5738C9.85396 39.6039 13.6383 40.6046 13.6383 40.6046" stroke="black" stroke-width="0.5" stroke-linecap="round" stroke-linejoin="round"/>
<path d="M123.563 120.274C123.563 120.274 128.547 117.166 129.6 113.528C130.654 109.889 127.877 107.251 125.047 110.128C122.224 112.997 129.117 115.489 131.37 109.359C133.623 103.235 126.393 100.458 126.393 100.458" stroke="#ED712E" stroke-width="0.5" stroke-linecap="round" stroke-linejoin="round"/>
<path d="M22.2673 19.3037C22.4065 19.0982 22.6849 19.0452 22.8903 19.1844C23.0958 19.3236 23.1488 19.6019 23.0096 19.8074C23.0096 19.814 21.9757 21.3185 19.9411 24.5925C18.4234 27.0513 15.9115 27.8665 14.5794 28.1316C13.8835 28.4829 12.6508 29.1655 12.6508 29.1655C12.6508 29.1655 12.0079 29.0396 11.6235 28.1316C11.2391 27.2236 12.0941 26.4813 12.0941 26.4813C12.0941 26.4813 14.2613 26.9519 14.871 27.1441C16.1037 26.826 17.9859 26.0373 19.1723 24.1219C21.1738 20.8943 22.2607 19.3103 22.2673 19.3037Z" fill="#ED712E"/>
<path fill-rule="evenodd" clip-rule="evenodd" d="M38.4982 19.4694L32.9244 22.9687L31.7646 19.2639L19.106 20.9539L37.2125 0.912231L62.0724 4.30554L52.1576 10.5421L52.8601 12.875L38.4982 19.4694Z" fill="black" stroke="black" stroke-width="0.2"/>
<path fill-rule="evenodd" clip-rule="evenodd" d="M41.5734 15.1482C47.0743 12.3381 52.2835 11.7284 52.8336 12.802C53.3837 13.8823 49.374 17.0304 43.8732 19.8338C38.3789 22.6439 33.4745 24.049 32.9244 22.9687C32.3744 21.895 36.0792 17.9583 41.5734 15.1482Z" fill="#ED712E"/>
<path d="M31.4134 18.3294L30.8699 16.8316C34.6211 8.97128 43.111 6.27387 51.1038 7.7253L51.9521 10.0582" stroke="white" stroke-width="0.5"/>
<path fill-rule="evenodd" clip-rule="evenodd" d="M97.5165 13.4317L100.141 15.0886C100.141 15.0886 101.394 13.5709 101.248 13.5046C101.109 13.4383 98.6101 12.2255 98.6101 12.2255L97.5165 13.4317Z" fill="#D7F0F7"/>
<path d="M86.76 94.0426C86.76 94.0426 85.4014 90.53 86.2563 88.2502C87.1179 85.9769 89.5568 85.6919 89.9015 88.2568C90.2527 90.8216 85.746 89.4497 86.9522 85.4335C88.1518 81.4172 92.9369 82.7692 92.9369 82.7692" stroke="black" stroke-width="0.5" stroke-linecap="round" stroke-linejoin="round"/>
</svg>
