<svg width="147" height="164" viewBox="0 0 147 164" fill="none" xmlns="http://www.w3.org/2000/svg">
<path fill-rule="evenodd" clip-rule="evenodd" d="M75.8743 105.309C103.543 100.749 112.717 86.2618 112.717 86.2618C112.717 86.2618 70.6215 78.8453 47.6664 81.262C24.7113 83.6787 13.6398 86.2618 13.6398 86.2618L0.557802 100.209C21.1029 109.017 48.2057 109.869 75.8743 105.309Z" fill="#D7F0F7"/>
<path fill-rule="evenodd" clip-rule="evenodd" d="M111.073 130.301C111.073 130.301 108.403 133.237 105.633 134.629C102.871 136.027 101.04 137.085 101.692 138.743C102.338 140.401 107.418 139.948 111.073 138.743C114.728 137.538 117.417 135.641 117.657 135.088C117.897 134.535 117.517 130.468 117.084 129.436C116.652 128.404 111.073 130.301 111.073 130.301Z" fill="white" stroke="black" stroke-width="0.5" stroke-linecap="round" stroke-linejoin="round"/>
<path fill-rule="evenodd" clip-rule="evenodd" d="M137.09 120.248C137.09 120.248 137.929 124.842 137.783 127.751C137.643 130.661 137.017 133.117 139.087 133.836C141.151 134.555 144.107 131.506 145.359 126.047C146.61 120.588 145.965 116.161 145.938 115.894C145.911 115.635 142.643 114.476 142.376 114.43C142.117 114.383 137.09 120.248 137.09 120.248Z" fill="white" stroke="black" stroke-width="0.5" stroke-linecap="round" stroke-linejoin="round"/>
<path fill-rule="evenodd" clip-rule="evenodd" d="M102.078 60.7834C102.078 60.7834 99.7215 64.2454 102.218 82.9064C104.721 101.567 109.748 130.641 109.941 130.834C111.046 131.939 116.492 130.554 117.95 129.675C116.751 112.845 116.225 96.2747 115.353 79.4644L116.026 79.3712C116.026 79.3712 118.09 93.392 120.739 101.088C123.382 108.777 136.178 120.854 136.797 121.234C137.423 121.62 139.54 120.275 141.564 118.398C143.581 116.52 143.315 114.237 143.315 114.237C143.315 114.237 131.485 99.3305 131.198 96.6874C130.912 94.0377 129.421 68.0202 128.841 64.5583C128.262 61.0964 128.122 60.8034 128.122 60.8034L102.078 60.7834Z" fill="black" stroke="black" stroke-width="0.2" stroke-linecap="round" stroke-linejoin="round"/>
<path fill-rule="evenodd" clip-rule="evenodd" d="M97.4846 39.5925L96.7123 47.0489L90.6806 67.2146L94.6152 69.9442C94.6152 69.9442 103.543 51.5228 104.455 47.5283C105.367 43.5404 105.607 40.458 105.607 40.458L97.4846 39.5925Z" fill="white" stroke="black" stroke-width="0.5" stroke-linecap="round" stroke-linejoin="round"/>
<path fill-rule="evenodd" clip-rule="evenodd" d="M102.877 27.3161C102.877 27.3161 109.441 22.6891 117.783 24.1871C128.608 26.1311 131.485 30.758 130.726 41.1637L126.778 41.6431C126.778 41.6431 126.152 46.5497 127.017 52.0355C127.483 54.9781 128.103 57.6877 128.575 59.5651C128.582 59.6783 128.615 59.8114 128.682 59.9779C128.755 60.2775 128.828 60.5504 128.895 60.7968C129.021 61.9285 128.289 62.5876 127.663 62.9338C125.306 63.9191 120.566 65.5169 114.754 65.4504C108.975 65.3838 104.455 64.1521 102.211 63.3932C100.514 62.6875 101.226 61.2828 101.659 60.0578C102.165 58.5332 103.35 55.4042 103.523 53.9795C103.743 52.2285 103.743 50.6374 103.743 50.6374C103.743 50.6374 100.953 48.7666 100.54 46.5497C100.134 44.3394 100.9 41.2636 100.9 41.2636L96.0932 40.2517C96.0932 40.2517 96.8055 30.9777 102.877 27.3161Z" fill="#D7F0F7"/>
<path fill-rule="evenodd" clip-rule="evenodd" d="M120.173 42.382L126.778 41.6431L129.561 41.3035C129.561 41.3035 129.261 49.5722 124.168 56.7357C119.068 63.8991 113.636 67.6074 113.636 67.6074C113.636 67.6074 113.702 69.578 113.609 70.1306C113.516 70.6831 113.296 71.502 113.296 71.502C113.296 71.502 114.308 71.3822 114.068 72.514C113.829 73.6391 112.504 74.8907 111.492 75.4233C110.48 75.9492 109.788 75.1171 109.788 75.1171C109.788 75.1171 109.009 75.0505 108.596 74.8641C108.19 74.6843 107.997 74.3714 107.997 74.3714C107.997 74.3714 106.952 74.3115 106.446 73.7856C105.94 73.2529 105.534 71.1425 105.534 71.1425C105.534 71.1425 101.539 74.5512 100.58 74.5978C99.615 74.6444 99.8547 74.0319 100.587 73.0799C101.319 72.1345 104.475 69.3383 105.387 68.353C106.299 67.3677 111.159 61.0164 111.159 61.0164L119.647 48.5602L120.173 42.382Z" fill="white"/>
<path fill-rule="evenodd" clip-rule="evenodd" d="M101.546 5.333C97.458 7.92943 97.5046 10.2862 98.1304 13.9412C98.7828 17.7293 102.205 25.1657 106.985 24.7397C103.556 33.4876 112.83 34.18 114.748 27.649C115.227 26.0112 115.327 23.9474 115.327 23.9474L113.569 16.9703C113.569 16.9703 115.899 15.7853 115.853 13.4485C115.806 11.1184 113.882 11.2582 113.882 11.2582C114.148 4.50747 106.319 2.30383 101.546 5.333Z" fill="white"/>
<path d="M106.624 16.0098C106.945 15.9707 107.169 15.6327 107.123 15.2551C107.077 14.8774 106.779 14.603 106.457 14.6421C106.136 14.6813 105.913 15.0192 105.959 15.3969C106.005 15.7746 106.303 16.049 106.624 16.0098Z" fill="black"/>
<path d="M100.77 16.9249C101.091 16.8857 101.314 16.5478 101.268 16.1701C101.222 15.7924 100.924 15.518 100.603 15.5572C100.282 15.5964 100.058 15.9343 100.104 16.312C100.15 16.6897 100.448 16.9641 100.77 16.9249Z" fill="black"/>
<path d="M103.104 15.4457C103.104 15.4457 103.217 17.0835 103.217 17.8291C103.217 18.5748 103.13 18.9543 103.13 18.9543L104.681 19.1007" stroke="black" stroke-width="0.5" stroke-linecap="round" stroke-linejoin="round"/>
<path fill-rule="evenodd" clip-rule="evenodd" d="M105.327 20.4456L107.544 19.367C107.544 19.367 107.877 20.9182 106.798 21.3044C105.713 21.6839 105.327 20.4456 105.327 20.4456Z" stroke="black" stroke-width="0.5" stroke-linecap="round" stroke-linejoin="round"/>
<path d="M105.387 12.8959C105.387 12.8959 105.98 12.7628 106.652 12.7628C107.324 12.7628 107.504 12.8027 107.504 12.8027" stroke="black" stroke-width="0.5" stroke-linecap="round" stroke-linejoin="round"/>
<path d="M101.026 13.6016C101.026 13.6016 100.554 13.6349 99.9545 13.8413C99.3554 14.0477 99.0757 14.274 99.0757 14.274" stroke="black" stroke-width="0.5" stroke-linecap="round" stroke-linejoin="round"/>
<path d="M113.536 15.6189C113.536 15.6189 113.296 14.6935 113.449 13.7548C113.609 12.816 114.368 12.3367 114.368 12.3367" stroke="black" stroke-width="0.5" stroke-linecap="round" stroke-linejoin="round"/>
<path d="M114.508 14.0809L113.449 13.7547" stroke="black" stroke-width="0.5" stroke-linecap="round" stroke-linejoin="round"/>
<path d="M104.801 20.6852L105.327 20.4456" stroke="black" stroke-width="0.5" stroke-linecap="round" stroke-linejoin="round"/>
<path d="M110.899 21.2711C110.36 23.0686 109.235 23.8542 107.697 24.4734" stroke="black" stroke-width="0.5" stroke-linecap="round" stroke-linejoin="round"/>
<path d="M107.584 26.6237L107.131 25.2123" stroke="black" stroke-width="0.5" stroke-linecap="round" stroke-linejoin="round"/>
<path d="M102.191 36.3437L101.239 40.3915" stroke="black" stroke-width="0.5" stroke-linecap="round" stroke-linejoin="round"/>
<path d="M112.424 37.4289C112.817 37.4289 113.136 37.0891 113.136 36.6699C113.136 36.2507 112.817 35.9109 112.424 35.9109C112.031 35.9109 111.712 36.2507 111.712 36.6699C111.712 37.0891 112.031 37.4289 112.424 37.4289Z" fill="black"/>
<path d="M107.251 72.0546C107.251 72.0546 107.404 73.1465 107.551 73.5193C107.691 73.8921 107.997 74.3714 107.997 74.3714" stroke="black" stroke-width="0.5" stroke-linecap="round" stroke-linejoin="round"/>
<path d="M109.175 72.5606C109.175 72.5606 109.342 73.6524 109.461 74.0519C109.581 74.4447 109.788 75.1171 109.788 75.1171" stroke="black" stroke-width="0.5" stroke-linecap="round" stroke-linejoin="round"/>
<path d="M111.179 74.2317C111.179 74.2317 111.998 73.6058 112.504 72.8868C113.01 72.1612 113.296 71.5021 113.296 71.5021" stroke="black" stroke-width="0.5" stroke-linecap="round" stroke-linejoin="round"/>
<path d="M105.307 26.0046C102.97 37.4888 118.722 34.4663 117.55 24.1471" stroke="#6CA3B7" stroke-width="0.5" stroke-linecap="round" stroke-linejoin="round"/>
<path d="M109.342 40.7443C109.528 38.3143 109.475 38.0347 109.681 33.3478" stroke="#6CA3B7" stroke-width="0.5" stroke-linecap="round" stroke-linejoin="round"/>
<path d="M129.561 41.3035C129.561 41.3035 129.261 49.5722 124.168 56.7357C119.068 63.8991 113.636 67.6074 113.636 67.6074C113.636 67.6074 113.702 69.578 113.609 70.1306C113.516 70.6831 113.296 71.502 113.296 71.502C113.296 71.502 114.308 71.3822 114.068 72.514C113.829 73.6391 112.504 74.8907 111.492 75.4233C110.48 75.9492 109.788 75.1171 109.788 75.1171C109.788 75.1171 109.009 75.0505 108.596 74.8641C108.19 74.6843 107.997 74.3714 107.997 74.3714C107.997 74.3714 106.952 74.3115 106.446 73.7856C105.94 73.2529 105.534 71.1425 105.534 71.1425C105.534 71.1425 101.539 74.5512 100.58 74.5978C99.615 74.6444 99.8547 74.0319 100.587 73.0799C101.319 72.1345 104.475 69.3383 105.387 68.353C106.299 67.3677 111.159 61.0164 111.159 61.0164L119.647 48.5602L120.173 42.382" stroke="black" stroke-width="0.5" stroke-linecap="round" stroke-linejoin="round"/>
<path d="M121.512 49.0063L119.647 48.5602" stroke="black" stroke-width="0.5" stroke-linecap="round" stroke-linejoin="round"/>
<path d="M98.2103 47.3153L96.7123 47.049" stroke="black" stroke-width="0.5" stroke-linecap="round" stroke-linejoin="round"/>
<path d="M119.421 37.1226L119.168 42.3022L124.967 41.8495" stroke="black" stroke-width="0.5" stroke-linecap="round" stroke-linejoin="round"/>
<path fill-rule="evenodd" clip-rule="evenodd" d="M100.474 2.98288C95.3276 7.17046 94.5087 16.8838 96.1464 24.48C96.7589 27.3361 97.8508 29.4798 99.2755 30.8512C100.194 29.4798 101.366 28.2215 102.877 27.3161C102.877 27.3161 104.329 26.3241 106.739 25.4121C106.812 25.1924 106.892 24.966 106.985 24.7396C102.205 25.1657 98.7828 17.7293 98.1304 13.9412C98.0039 13.1755 97.8974 12.4632 97.8508 11.7974L97.8574 11.904C99.2355 11.4845 102.864 10.3195 104.522 9.18103C106.585 7.76298 107.744 6.53799 107.744 6.53799C107.744 6.53799 107.644 8.82152 108.656 10.5724C109.668 12.33 110.287 11.2515 110.287 11.2515C110.287 11.2515 111.419 14.1609 111.951 14.4738C112.451 14.7667 112.344 12.6496 112.83 11.8973C113.05 11.5844 113.376 11.3314 113.882 11.2582C113.882 11.2582 115.806 11.1184 115.853 13.4485C115.899 15.7853 113.569 16.9703 113.569 16.9703L113.176 17.2832C113.176 17.2832 111.878 23.6079 111.878 27.9353C111.878 32.2693 111.013 37.8416 114.714 38.8536C116.086 39.2331 117.071 38.9934 117.763 38.554C119.095 38.6339 120.3 38.341 121.012 37.9016C122.404 37.0361 123.462 35.7845 123.462 35.7845C123.462 35.7845 120.773 34.2932 120.819 26.5971C120.866 18.901 120.074 8.75495 117.45 5.33964C114.834 1.92434 111.971 2.0242 111.971 2.0242C108.396 -0.465713 103.796 0.286587 100.474 2.98288Z" fill="#ED712E"/>
<path d="M108.296 5.33297C108.296 5.33297 108.922 4.27443 109.688 3.45555C110.46 2.63668 111.272 2.3038 111.272 2.3038" stroke="white" stroke-width="0.5" stroke-linecap="round" stroke-linejoin="round"/>
<path d="M105.167 5.47946C105.167 5.47946 101.945 7.16381 100.887 8.07589C99.828 8.98797 99.4951 9.34748 99.4951 9.34748" stroke="white" stroke-width="0.5" stroke-linecap="round" stroke-linejoin="round"/>
<path d="M106.466 3.62866C106.466 3.62866 104.901 3.50882 103.896 3.91493C102.884 4.32104 101.699 5.23978 101.699 5.23978" stroke="white" stroke-width="0.5" stroke-linecap="round" stroke-linejoin="round"/>
<path d="M105.454 1.96429C105.454 1.96429 106.419 1.84445 107.185 1.99092C107.957 2.13738 108.416 2.23059 108.416 2.23059" stroke="white" stroke-width="0.5" stroke-linecap="round" stroke-linejoin="round"/>
<path d="M111.658 6.2251C111.658 6.2251 112.331 7.52331 112.524 7.90945C112.717 8.28893 113.03 8.70169 113.03 8.70169" stroke="white" stroke-width="0.5" stroke-linecap="round" stroke-linejoin="round"/>
<path d="M113.822 6.12521C113.822 6.12521 115.313 8.28891 115.673 9.18101C116.039 10.0731 116.472 10.7455 116.472 10.7455" stroke="white" stroke-width="0.5" stroke-linecap="round" stroke-linejoin="round"/>
<path d="M114.807 24.52C114.807 24.52 114.754 28.5145 114.614 30.099C114.481 31.6901 114.668 32.2693 114.668 32.2693" stroke="white" stroke-width="0.5" stroke-linecap="round" stroke-linejoin="round"/>
<path d="M116.538 21.5906L116.492 27.1696" stroke="white" stroke-width="0.5" stroke-linecap="round" stroke-linejoin="round"/>
<path d="M118.456 24.3136C118.456 24.3136 118.223 26.1577 118.416 27.1696C118.609 28.1749 118.709 28.6609 118.709 28.6609" stroke="white" stroke-width="0.5" stroke-linecap="round" stroke-linejoin="round"/>
<path d="M114.315 4.80704C114.315 4.80704 114.927 5.09331 115.36 5.73243C115.793 6.3649 115.926 6.73772 115.926 6.73772" stroke="white" stroke-width="0.5" stroke-linecap="round" stroke-linejoin="round"/>
<path d="M99.3021 26.0645C98.6896 25.0792 98.3301 23.6411 98.2502 22.4694" stroke="white" stroke-width="0.5" stroke-linecap="round" stroke-linejoin="round"/>
<path d="M100.694 24.1871L100.48 23.3948" stroke="white" stroke-width="0.5" stroke-linecap="round" stroke-linejoin="round"/>
<path d="M126.065 66.2692C126.065 66.2692 125.413 67.4942 124.907 68.0468C124.401 68.5994 124.088 68.8657 124.088 68.8657" stroke="white" stroke-width="0.5" stroke-linecap="round" stroke-linejoin="round"/>
<path d="M126.278 68.646L125.127 70.1173" stroke="white" stroke-width="0.5" stroke-linecap="round" stroke-linejoin="round"/>
<path fill-rule="evenodd" clip-rule="evenodd" d="M72.2925 138.037C72.2925 138.037 72.0262 141.646 72.7985 144.915C73.5641 148.183 76.813 154.148 79.0233 154.168C81.2402 154.195 83.5238 153.449 83.5238 151.312C83.5238 149.169 81.1138 138.996 81.1138 138.996L72.2925 138.037Z" fill="white" stroke="black" stroke-width="0.5" stroke-linecap="round" stroke-linejoin="round"/>
<path fill-rule="evenodd" clip-rule="evenodd" d="M87.5116 133.95C87.5116 133.95 87.4917 138.443 87.8512 138.996C88.2107 139.549 93.4302 149.888 96.8654 149.142C100.307 148.396 100.208 146.113 99.5151 143.616C98.8161 141.113 95.7603 134.016 95.7603 134.016L87.5116 133.95Z" fill="white" stroke="black" stroke-width="0.5" stroke-linecap="round" stroke-linejoin="round"/>
<path fill-rule="evenodd" clip-rule="evenodd" d="M52.7394 80.9757C52.7394 80.9757 51.1549 93.332 56.0083 97.6128C60.8682 101.894 71.9796 106.035 71.9796 106.035C71.9796 106.035 71.4737 137.458 71.7866 138.257C72.0995 139.049 73.9037 140.853 77.2191 141.12C80.5412 141.379 81.6197 139.096 81.6197 139.096L87.272 107.066C87.272 107.066 87.0057 133.856 87.2254 134.429C87.4384 135.008 89.389 137.052 92.325 137.005C95.2543 136.952 96.6258 134.722 96.6258 134.722C96.6258 134.722 102.278 104.896 101.845 99.8031C101.413 94.7035 99.3953 90.7622 92.9508 87.1073C86.5063 83.4456 81.5531 79.4578 81.5531 79.4578L52.7394 80.9757Z" fill="black" stroke="black" stroke-width="0.5" stroke-linecap="round" stroke-linejoin="round"/>
<path fill-rule="evenodd" clip-rule="evenodd" d="M61.5473 92.4L75.2751 99.9496L98.9892 93.9379L105.261 81.2354L107.045 77.4139L105.88 76.3754L103.956 76.7881C99.2755 77.7402 83.4838 81.1555 83.4838 81.1555L82.4985 81.4018C82.1124 82.3738 81.6397 83.2459 81.147 84.0914L79.6291 87.4801L79.2963 87.5667L61.5473 92.4Z" fill="#ED712E"/>
<path d="M75.7278 98.9776L83.597 82.3006L106.099 77.587" stroke="white" stroke-width="0.5" stroke-linecap="round" stroke-linejoin="round"/>
<path fill-rule="evenodd" clip-rule="evenodd" d="M66.9798 89.9767C67.6722 90.6358 69.31 92.2402 70.0822 93.159C71.0676 94.3373 71.3805 94.9232 72.0462 94.9632C72.7053 94.9964 72.8318 94.8367 72.9649 94.7501C72.9649 94.7501 73.4043 95.2161 73.9835 95.1363C74.5561 95.0564 74.7092 94.7634 74.7092 94.7634C74.7092 94.7634 75.0754 94.8633 75.4216 94.7368C75.7744 94.6103 75.7877 94.324 75.7877 94.324C75.7877 94.324 76.4668 94.1576 76.6665 93.4452C76.8729 92.7395 76.6133 91.7276 76.6133 91.7276C76.6133 91.7276 77.2457 90.8488 76.7531 89.6837C76.307 88.6252 74.4695 85.8157 72.7519 84.5242L66.9798 89.9767Z" fill="white"/>
<path d="M70.2221 90.9686C70.8745 91.7209 72.6587 93.8846 72.965 94.7501" stroke="black" stroke-width="0.5" stroke-linecap="round" stroke-linejoin="round"/>
<path d="M71.8465 90.1897C71.8465 90.1897 72.4923 90.8155 73.4043 92.1204C74.3231 93.4319 74.4762 94.2308 74.6759 94.81" stroke="black" stroke-width="0.5" stroke-linecap="round" stroke-linejoin="round"/>
<path d="M73.3244 89.2643C74.4562 90.4626 75.5214 92.6929 75.7877 94.324" stroke="black" stroke-width="0.5" stroke-linecap="round" stroke-linejoin="round"/>
<path d="M74.5162 88.3922C75.2751 89.2044 76.1472 90.7156 76.6133 91.7276" stroke="black" stroke-width="0.5" stroke-linecap="round" stroke-linejoin="round"/>
<path d="M66.9798 89.9767C67.6722 90.6358 69.31 92.2402 70.0822 93.159C71.0676 94.3373 71.3805 94.9232 72.0462 94.9632C72.7053 94.9964 72.8318 94.8367 72.9649 94.7501C72.9649 94.7501 73.4043 95.2161 73.9835 95.1363C74.5561 95.0564 74.7092 94.7634 74.7092 94.7634C74.7092 94.7634 75.0754 94.8633 75.4216 94.7368C75.7744 94.6103 75.7877 94.324 75.7877 94.324C75.7877 94.324 76.4668 94.1576 76.6665 93.4452C76.8729 92.7395 76.6133 91.7276 76.6133 91.7276C76.6133 91.7276 77.2457 90.8488 76.7531 89.6837C76.307 88.6252 74.4695 85.8157 72.7519 84.5242" stroke="black" stroke-width="0.5" stroke-linecap="round" stroke-linejoin="round"/>
<path fill-rule="evenodd" clip-rule="evenodd" d="M59.6899 49.9716C59.6899 49.9716 63.7776 46.3633 72.2393 45.2581C80.7076 44.153 89.1227 45.9505 92.345 54.0128C95.5672 62.0684 94.8349 72.2277 94.4554 78.792L85.521 80.7161L84.7554 68.373C84.7554 68.373 83.4505 78.539 83.4039 79.8839C83.3573 81.2287 81.5265 82.194 79.4094 83.0129C77.2923 83.8251 73.4709 83.8517 73.4709 83.8517L66.88 90.0699C66.88 90.0699 50.2895 84.138 48.5119 76.5884C46.7277 69.0388 54.4504 53.1406 59.6899 49.9716Z" fill="#D7F0F7"/>
<path d="M62.5393 62.6209L58.8843 73.5858C58.8843 73.5858 65.6683 78.1795 68.0251 79.8372C70.3818 81.495 73.4709 83.8517 73.4709 83.8517" stroke="black" stroke-width="0.5" stroke-linecap="round" stroke-linejoin="round"/>
<path d="M86.7527 56.03L85.3945 63.7593L84.2694 71.9481" stroke="black" stroke-width="0.5" stroke-linecap="round" stroke-linejoin="round"/>
<path d="M67.5124 46.2168C67.5124 46.2168 69.4032 51.7359 74.0701 51.8358C78.737 51.929 78.6771 48.2607 78.6971 47.2288C78.7237 46.1968 78.5306 44.8054 78.5306 44.8054" stroke="#6CA3B7" stroke-width="0.5" stroke-linecap="round" stroke-linejoin="round"/>
<path fill-rule="evenodd" clip-rule="evenodd" d="M76.094 67.128L73.2046 77.7335L96.679 72.727L99.6616 62.7274L76.094 67.128Z" fill="#ED712E"/>
<path fill-rule="evenodd" clip-rule="evenodd" d="M78.5173 68.7592L78.018 70.59L80.215 70.124L80.7343 68.2865L78.5173 68.7592Z" fill="white"/>
<path fill-rule="evenodd" clip-rule="evenodd" d="M77.6319 72.4541L77.1326 74.2849L79.3362 73.8122L79.8488 71.9814L77.6319 72.4541Z" fill="white"/>
<path d="M83.0245 68.7126L95.3142 66.3092" stroke="white" stroke-width="0.5" stroke-linecap="round" stroke-linejoin="round"/>
<path d="M82.5851 72.3009L94.8682 69.8976" stroke="white" stroke-width="0.5" stroke-linecap="round" stroke-linejoin="round"/>
<path fill-rule="evenodd" clip-rule="evenodd" d="M78.2377 27.1763C85.2148 27.6556 85.1682 30.3985 84.9751 34.0069C84.782 37.6153 83.8433 41.6764 81.8927 44.4925C80.4613 46.563 78.4641 46.796 77.512 46.776C77.7917 48.1675 77.3722 50.7306 73.6507 50.5176C69.9358 50.2979 68.6243 45.9305 68.6243 45.9305C68.6243 45.9305 69.1569 45.8107 69.4831 45.7175C69.6229 44.2928 70.0689 39.8389 70.0423 39.7856C70.0223 39.7257 68.1249 39.1265 68.1249 37.0095C68.1249 34.8924 69.7893 35.1587 69.7893 35.1587C70.4617 30.2654 71.973 26.7436 78.2377 27.1763Z" fill="white"/>
<path fill-rule="evenodd" clip-rule="evenodd" d="M85.0017 31.6834C83.7368 31.7567 82.2389 31.6967 80.6877 31.5769C80.7875 31.8232 80.8408 32.1561 80.661 32.4823C80.2949 33.1215 77.6385 31.8898 77.6385 31.8898C77.6385 31.8898 77.3855 32.8818 76.054 32.6954C75.0155 32.5556 74.2499 32.023 73.9569 31.7833L73.897 31.7966C73.897 31.7966 72.5655 36.2705 72.479 36.8164C72.3991 37.3556 71.3871 35.5048 69.7893 35.1587C69.7893 35.1587 68.1249 34.8924 68.1249 37.0094C68.1249 39.1265 70.0223 39.7257 70.0423 39.7856C70.0556 39.8123 69.9624 40.7976 69.8492 41.9893C69.8492 41.9893 68.8373 41.47 67.7055 39.1132C66.5804 36.7565 65.7349 30.8512 68.3779 27.9153C71.0276 24.9793 76.3869 24.6464 77.805 24.2337C79.2297 23.8276 85.6342 22.1232 86.5862 23.1152C87.5383 24.1138 85.7807 25.452 85.7807 25.452C85.7807 25.452 87.7846 25.4387 88.1707 26.2775C88.5569 27.123 86.5396 27.842 86.513 28.1083C86.4864 28.3746 87.8711 29.0803 88.0043 30.332C88.1374 31.5836 85.0017 31.6834 85.0017 31.6834Z" fill="black" stroke="black" stroke-width="0.5" stroke-linecap="round" stroke-linejoin="round"/>
<path d="M79.729 37.835C79.7556 39.1598 79.8222 40.0652 80.0485 41.3701C79.6291 41.5033 79.0033 41.5765 78.5772 41.47" stroke="black" stroke-width="0.5" stroke-linecap="round" stroke-linejoin="round"/>
<path d="M76.301 38.8329C76.5896 38.8584 76.8476 38.6062 76.8774 38.2696C76.9072 37.9329 76.6975 37.6393 76.4089 37.6138C76.1204 37.5882 75.8623 37.8404 75.8325 38.1771C75.8027 38.5137 76.0124 38.8073 76.301 38.8329Z" fill="black"/>
<path d="M75.1353 36.5967C75.5081 36.4036 76.2072 36.1772 76.8529 36.0175" stroke="black" stroke-width="0.5" stroke-linecap="round" stroke-linejoin="round"/>
<path d="M82.139 36.0108C82.2189 36.0241 82.2988 36.0374 82.3654 36.0507C82.7981 36.1306 83.1043 36.2438 83.1043 36.2438" stroke="black" stroke-width="0.5" stroke-linecap="round" stroke-linejoin="round"/>
<path fill-rule="evenodd" clip-rule="evenodd" d="M78.8036 43.4806C78.8036 43.4806 77.4188 42.8414 76.7597 42.5685C76.1006 42.2889 75.7012 42.0625 75.7012 42.0625C75.7012 42.0625 75.4482 43.5405 76.5933 43.9998C77.7317 44.4526 78.8036 43.4806 78.8036 43.4806Z" fill="white" stroke="black" stroke-width="0.5" stroke-linecap="round" stroke-linejoin="round"/>
<path d="M69.1435 36.1307C69.1435 36.1307 69.8892 36.5501 70.3951 37.2358C70.8945 37.9216 71.0875 38.8469 71.0875 38.8469" stroke="black" stroke-width="0.5" stroke-linecap="round" stroke-linejoin="round"/>
<path d="M69.4897 38.2078L70.3951 37.2358" stroke="black" stroke-width="0.5" stroke-linecap="round" stroke-linejoin="round"/>
<path d="M71.5602 42.5352C71.5602 42.5352 72.1594 44.4592 73.6041 45.6376C75.0421 46.816 77.512 46.7761 77.512 46.7761" stroke="black" stroke-width="0.5" stroke-linecap="round" stroke-linejoin="round"/>
<path d="M81.7242 38.6045C82.0128 38.6301 82.2709 38.3779 82.3007 38.0412C82.3305 37.7046 82.1207 37.411 81.8321 37.3854C81.5436 37.3599 81.2855 37.6121 81.2557 37.9487C81.2259 38.2854 81.4357 38.579 81.7242 38.6045Z" fill="black"/>
<path d="M79.3096 43.6669L78.8036 43.4805" stroke="black" stroke-width="0.5" stroke-linecap="round" stroke-linejoin="round"/>
<path d="M64.6364 89.1844C64.6364 89.1844 66.8467 86.5347 68.8173 84.8504C70.788 83.166 71.7666 82.5668 71.7666 82.5668" stroke="#6CA3B7" stroke-width="0.5" stroke-linecap="round" stroke-linejoin="round"/>
<path d="M72.6387 84.6373L70.9144 83.166" stroke="#6CA3B7" stroke-width="0.5" stroke-linecap="round" stroke-linejoin="round"/>
<path d="M67.6656 89.3242L65.6084 88.0659" stroke="#6CA3B7" stroke-width="0.5" stroke-linecap="round" stroke-linejoin="round"/>
<path d="M68.5843 88.4587L66.607 86.9808" stroke="#6CA3B7" stroke-width="0.5" stroke-linecap="round" stroke-linejoin="round"/>
<path d="M69.6295 87.4734L67.5857 85.9888" stroke="#6CA3B7" stroke-width="0.5" stroke-linecap="round" stroke-linejoin="round"/>
<path d="M70.6481 86.5147L68.7507 84.9103" stroke="#6CA3B7" stroke-width="0.5" stroke-linecap="round" stroke-linejoin="round"/>
<path d="M71.6801 85.5427L69.8759 83.9716" stroke="#6CA3B7" stroke-width="0.5" stroke-linecap="round" stroke-linejoin="round"/>
<path d="M84.9618 31.2906C85.0683 32.1162 85.0284 33.0283 84.9751 34.0069C84.782 37.6153 83.8433 41.6764 81.8927 44.4925C80.4613 46.563 78.4641 46.796 77.512 46.776M69.4831 45.7175C69.6229 44.2928 70.0689 39.8389 70.0423 39.7856C70.0223 39.7257 68.1249 39.1265 68.1249 37.0095C68.1249 34.8924 69.7893 35.1587 69.7893 35.1587L69.4831 45.7175Z" stroke="black" stroke-width="0.5" stroke-linecap="round" stroke-linejoin="round"/>
<path d="M79.2829 88.1658L74.9289 97.7127" stroke="black" stroke-width="0.5" stroke-linecap="round" stroke-linejoin="round"/>
<path d="M53.4185 75.0238C55.9017 73.912 57.1467 73.6324 58.8843 73.5858" stroke="black" stroke-width="0.5" stroke-linecap="round" stroke-linejoin="round"/>
<path d="M86.5396 98.0389C86.5396 98.0389 88.204 100.256 87.8911 102.872C87.5782 105.495 87.2254 108.864 87.0922 108.837" stroke="white" stroke-width="0.5" stroke-linecap="round" stroke-linejoin="round"/>
<path d="M85.0017 28.2815C83.6836 27.7755 81.7595 27.3494 79.3029 27.4359" stroke="white" stroke-width="0.5" stroke-linecap="round" stroke-linejoin="round"/>
<path d="M84.0764 25.2256C82.6783 25.2123 81.7995 25.2256 80.1551 25.5252" stroke="white" stroke-width="0.5" stroke-linecap="round" stroke-linejoin="round"/>
<path d="M80.7276 29.8659C79.9553 29.5597 78.9567 29.2801 77.7517 29.127" stroke="white" stroke-width="0.5" stroke-linecap="round" stroke-linejoin="round"/>
<path d="M70.8745 34.5395C70.9144 33.9204 70.9877 33.2147 71.1341 32.509C71.2007 32.1761 71.2806 31.8432 71.3805 31.5237" stroke="white" stroke-width="0.5" stroke-linecap="round" stroke-linejoin="round"/>
<path d="M69.756 33.3611C69.8293 32.4424 69.9957 31.3439 70.3219 30.3519" stroke="white" stroke-width="0.5" stroke-linecap="round" stroke-linejoin="round"/>
<path d="M68.5177 34.0868C68.5177 33.5675 68.5444 32.995 68.6043 32.4091" stroke="white" stroke-width="0.5" stroke-linecap="round" stroke-linejoin="round"/>
<path fill-rule="evenodd" clip-rule="evenodd" d="M55.1428 64.9311C55.1428 64.9311 54.031 77.4339 53.5982 81.961C53.1655 86.4815 53.5982 92.3933 53.5982 92.3933C53.5982 92.3933 56.1481 95.9085 56.6341 97.5396C57.1134 99.1774 55.935 100.715 55.935 100.715C55.935 100.715 55.6687 101.8 55.2626 101.867C54.8499 101.94 54.3439 101.774 54.3439 101.774C54.3439 101.774 54.1242 102.18 53.7181 102.32C53.3186 102.46 52.8992 102.067 52.8992 102.067C52.8992 102.067 52.3866 102.373 52.1269 102.12C51.8673 101.867 51.4479 101.228 51.4479 101.228C51.4479 101.228 50.4892 100.948 49.6836 100.243C48.8781 99.5302 47.0206 98.0589 46.8209 94.6236C46.6212 91.1883 45.7623 90.2496 46.002 84.431C46.2417 78.6123 46.8209 65.4304 46.8209 65.4304L55.1428 64.9311Z" fill="white"/>
<path d="M49.4772 96.9404C49.4772 96.9404 50.4692 98.2054 50.9752 99.3505C51.4811 100.489 51.4479 101.228 51.4479 101.228" stroke="black" stroke-width="0.5" stroke-linecap="round" stroke-linejoin="round"/>
<path d="M51.8873 96.8605C51.8873 96.8605 52.3599 97.9257 52.6462 99.417C52.9325 100.908 53.0057 101.727 53.0057 101.727" stroke="black" stroke-width="0.5" stroke-linecap="round" stroke-linejoin="round"/>
<path d="M53.5516 96.8006C53.5516 96.8006 54.224 98.3119 54.3572 99.4436C54.4837 100.575 54.4038 101.501 54.4038 101.501" stroke="black" stroke-width="0.5" stroke-linecap="round" stroke-linejoin="round"/>
<path d="M55.0163 96.1948C55.0163 96.1948 55.489 97.6195 55.6887 98.4983C55.8818 99.3837 55.8951 100.342 55.8951 100.342" stroke="black" stroke-width="0.5" stroke-linecap="round" stroke-linejoin="round"/>
<path d="M55.1428 64.9311C55.1428 64.9311 54.031 77.4339 53.5982 81.961C53.1655 86.4815 53.5982 92.3933 53.5982 92.3933C53.5982 92.3933 56.1481 95.9085 56.6341 97.5396C57.1134 99.1774 55.935 100.715 55.935 100.715C55.935 100.715 55.6687 101.8 55.2626 101.867C54.8499 101.94 54.3439 101.774 54.3439 101.774C54.3439 101.774 54.1242 102.18 53.7181 102.32C53.3186 102.46 52.8992 102.067 52.8992 102.067C52.8992 102.067 52.3866 102.373 52.1269 102.12C51.8673 101.867 51.4479 101.228 51.4479 101.228C51.4479 101.228 50.4892 100.948 49.6836 100.243C48.8781 99.5302 47.0206 98.0589 46.8209 94.6236C46.6212 91.1883 45.7623 90.2496 46.002 84.431C46.2417 78.6123 46.8209 65.4304 46.8209 65.4304" stroke="black" stroke-width="0.5" stroke-linecap="round" stroke-linejoin="round"/>
<path fill-rule="evenodd" clip-rule="evenodd" d="M63.2649 149.462C63.2649 149.462 67.1862 150.347 71.6534 150.374C76.1273 150.4 77.4055 151.892 76.0807 153.549C74.7558 155.207 66.6803 157.757 62.4461 157.97C58.2119 158.19 56.5542 152.757 56.5542 152.757L63.2649 149.462Z" fill="white" stroke="black" stroke-width="0.5" stroke-linecap="round" stroke-linejoin="round"/>
<path fill-rule="evenodd" clip-rule="evenodd" d="M48.5718 157.604C48.5718 157.604 49.1244 160.966 54.3172 162.364C59.5101 163.755 69.4897 161.665 70.8146 159.814C72.1394 157.963 71.6801 156.665 70.0689 156.106C68.4578 155.553 58.5781 154.521 56.7739 153.849C54.9697 153.176 48.5718 157.604 48.5718 157.604Z" fill="white" stroke="black" stroke-width="0.5" stroke-linecap="round" stroke-linejoin="round"/>
<path fill-rule="evenodd" clip-rule="evenodd" d="M15.5638 85.1832C15.5638 85.1832 14.2656 95.8086 22.1548 113.99C30.0439 132.172 41.1021 150.76 44.2777 154.342C47.4533 157.923 49.0112 159.128 49.0112 159.128L57.9123 154.148L57.5528 153.516C57.5528 153.516 59.104 152.95 61.4941 151.599C63.8908 150.254 64.5831 149.701 64.5831 149.701C64.5831 149.701 47.9726 97.1002 46.9141 92.4799C45.8555 87.8662 45.6625 86.6146 45.6625 86.6146L15.5638 85.1832Z" fill="black" stroke="black" stroke-width="0.2" stroke-linecap="round" stroke-linejoin="round"/>
<path fill-rule="evenodd" clip-rule="evenodd" d="M27.7804 50.0715C27.7804 50.0715 37.4937 50.6507 47.8794 48.8732C54.1375 49.7386 56.1614 53.1739 56.8072 57.0353C57.4529 60.8966 56.7805 66.8085 56.7805 66.8085C56.7805 66.8085 54.6634 67.7938 52.4731 68.2532C50.2895 68.7126 48.9912 68.879 48.9912 68.879L46.9208 87.1539C46.9208 87.1539 46.8741 89.6105 41.4416 90.4227C36.0024 91.2416 28.1665 91.4813 22.248 90.0433C16.3361 88.5986 14.1724 87.3004 14.6984 85.1833C15.2243 83.0662 19.6516 67.3678 19.6516 67.3678L13.1006 64.8113L11.7225 64.2187L19.1722 54.1126C19.1722 54.1126 23.1135 49.8785 27.7804 50.0715Z" fill="#ED712E"/>
<path fill-rule="evenodd" clip-rule="evenodd" d="M38.0929 71.1625C38.0929 71.1625 38.3059 70.0707 39.1048 69.831C39.9037 69.598 46.2949 68.4462 46.2949 68.4462C46.8142 68.3064 47.4733 68.7258 47.7596 69.1319C47.8994 69.365 47.9393 69.4914 47.946 69.7711C47.9793 70.9228 46.255 84.837 46.255 84.837C46.255 84.837 46.1751 85.5161 45.5293 85.8157C44.9901 86.062 39.7706 86.8409 38.1994 87.074C38.1661 87.0806 38.1328 87.0806 38.0929 87.0939L37.7134 87.1472C37.5936 87.1538 37.4937 87.1472 37.4072 87.1272C37.4072 87.1272 36.1622 87.0407 36.2421 86.0354C36.2088 85.7824 36.2554 85.5494 36.2554 85.5494L38.0929 71.1625Z" fill="#D7F0F7" stroke="black" stroke-width="0.5" stroke-linecap="round" stroke-linejoin="round"/>
<path fill-rule="evenodd" clip-rule="evenodd" d="M14.0193 65.1707L11.4695 70.1971C11.4695 70.1971 8.20064 76.0158 13.7796 78.4658C19.3586 80.9157 32.7269 86.3083 32.7269 86.3083C32.7269 86.3083 36.5949 86.9874 40.0369 86.5014C43.4722 86.0221 43.9448 84.4442 43.9448 84.4442C43.9448 84.4442 44.544 84.1979 44.6039 83.6786C44.6638 83.1593 44.3509 82.7732 44.3509 82.7732C44.7437 82.2606 44.7637 81.3684 44.0846 81.2486C43.7451 81.1887 43.9182 80.2367 42.5734 80.1901C41.2286 80.1435 40.0568 80.503 39.0249 80.4897C37.993 80.4763 36.9278 80.2899 36.9278 80.2899L37.3805 76.7748C37.3805 76.7748 33.3993 80.696 32.94 80.5762C32.4873 80.4564 20.4704 72.5872 20.4704 72.5872L23.1201 68.7192L14.0193 65.1707Z" fill="white"/>
<path d="M37.8599 82.1208C38.4457 82.1541 39.3112 82.1607 40.4097 82.0209C42.5268 81.7546 43.8849 81.202 43.8849 81.202" stroke="black" stroke-width="0.5" stroke-linecap="round" stroke-linejoin="round"/>
<path d="M37.8865 83.8051C39.8904 83.8584 43.4189 83.4523 44.3909 82.72" stroke="black" stroke-width="0.5" stroke-linecap="round" stroke-linejoin="round"/>
<path d="M37.8266 85.2165C40.1234 85.3763 41.9076 85.0035 43.9848 84.391" stroke="black" stroke-width="0.5" stroke-linecap="round" stroke-linejoin="round"/>
<path d="M29.2118 61.9818L24.6713 69.0854L19.6382 67.401" stroke="black" stroke-width="0.5" stroke-linecap="round" stroke-linejoin="round"/>
<path d="M50.0964 62.1083L49.191 67.6473" stroke="black" stroke-width="0.5" stroke-linecap="round" stroke-linejoin="round"/>
<path d="M34.5644 50.1248C33.6457 56.5692 37.4005 59.0525 40.9756 58.9926C46.255 58.906 48.0658 54.2657 46.974 49.6787" stroke="#A94D4D" stroke-width="0.5" stroke-linecap="round" stroke-linejoin="round"/>
<path fill-rule="evenodd" clip-rule="evenodd" d="M46.468 30.059C52.1735 31.0576 52.9591 33.8338 52.806 39.8056C52.6462 45.7708 51.4678 50.5908 49.8434 52.1087C48.219 53.6266 45.7357 52.9476 45.7357 52.9476C46.0286 56.0034 42.7531 57.8209 39.957 57.2949C39.9503 57.2949 39.9437 57.2883 39.9304 57.2883C39.8971 57.2816 39.8638 57.2749 39.8305 57.2683C39.8039 57.2616 39.7839 57.255 39.7573 57.255C34.9772 56.1765 35.8892 50.4443 35.8892 50.4443L37.8599 46.3167C37.3073 45.9904 36.4818 45.3114 36.0757 44.0331C35.4166 41.9893 36.9877 40.9441 36.9877 40.9441C33.2529 34.2266 39.7107 28.8873 46.468 30.059Z" fill="white"/>
<path d="M37.3472 41.916C37.3472 41.916 38.2793 41.9293 38.712 43.161C39.1381 44.3926 38.2127 45.338 38.2127 45.338" stroke="black" stroke-width="0.5" stroke-linecap="round" stroke-linejoin="round"/>
<path d="M37.4138 43.9599L38.712 43.161" stroke="black" stroke-width="0.5" stroke-linecap="round" stroke-linejoin="round"/>
<path d="M44.2444 42.8481C44.2444 42.8481 44.3643 41.6564 45.3962 41.5632C46.4347 41.47 46.4214 42.4952 46.4214 42.4952" stroke="black" stroke-width="0.5" stroke-linecap="round" stroke-linejoin="round"/>
<path d="M49.5505 42.3887C49.5505 42.3887 49.6703 41.197 50.7022 41.1038C51.7341 41.0172 51.7208 42.0358 51.7208 42.0358" stroke="black" stroke-width="0.5" stroke-linecap="round" stroke-linejoin="round"/>
<path d="M48.3521 41.5898C48.3521 41.5898 48.5319 43.3341 49.0711 44.5524C49.6104 45.7641 48.3654 45.9106 48.3654 45.9106" stroke="black" stroke-width="0.5" stroke-linecap="round" stroke-linejoin="round"/>
<path fill-rule="evenodd" clip-rule="evenodd" d="M48.5452 48.1541C48.2522 48.0876 47.9127 47.9877 47.5532 47.8346C46.6278 47.4418 45.6292 46.6562 45.6292 46.6562C45.6292 46.6562 44.9634 48.3073 46.6411 49.2593C46.8608 49.3858 47.0672 49.459 47.2603 49.4989L48.5452 48.1541Z" stroke="black" stroke-width="0.5" stroke-linecap="round" stroke-linejoin="round"/>
<path d="M45.7357 52.9475C44.2378 52.5348 42.6333 51.8823 41.0621 50.0648" stroke="black" stroke-width="0.5" stroke-linecap="round" stroke-linejoin="round"/>
<path fill-rule="evenodd" clip-rule="evenodd" d="M52.3732 34.3531C50.7089 33.9869 44.9701 32.8884 42.5667 34.5129C39.7373 36.4236 40.6294 39.8056 40.8624 40.7443C41.1021 41.6897 40.3964 42.2622 40.1301 42.7083C40.1301 42.7083 39.1115 40.1185 36.9877 40.944C36.9877 40.944 36.1356 41.5099 35.9492 42.6217V42.6284V42.635C35.9425 42.675 35.9358 42.7149 35.9292 42.7615V42.7682C35.9225 42.8281 35.9159 42.8947 35.9159 42.9613C35.9159 43.0212 35.9092 43.0811 35.9159 43.1477V43.1543C35.9159 43.2475 35.9225 43.3474 35.9425 43.4539V43.4606C35.9492 43.5005 35.9558 43.5471 35.9625 43.5937V43.6004V43.607V43.6137L35.9691 43.6204V43.627V43.6337V43.6403V43.647L35.9758 43.6536V43.6603V43.667V43.6736V43.6803L35.9824 43.6869V43.6936V43.7002V43.7069L35.9891 43.7136V43.7202V43.7269V43.7335V43.7402L35.9958 43.7468V43.7535V43.7602V43.7668L36.0024 43.7735V43.7801V43.7868V43.7934L36.0091 43.8001V43.8068V43.8134V43.8201L36.0157 43.8267V43.8334V43.8401L36.0224 43.8467V43.8534V43.86V43.8667L36.029 43.8733V43.88V43.8867V43.8933V43.9L36.0357 43.9066V43.9133V43.9199L36.0424 43.9266V43.9333V43.9399L36.049 43.9466V43.9532V43.9599L36.0557 43.9665V43.9732V43.9799L36.0623 43.9865V43.9932V43.9998L36.069 44.0065V44.0131V44.0198V44.0265L36.0756 44.0331L36.089 44.0797V44.093L36.0956 44.1064L36.1089 44.133V44.1463L36.1156 44.153L36.1223 44.1796L36.1289 44.2062H36.1356L36.1489 44.2528L36.1555 44.2661L36.1622 44.2794L36.1755 44.3194V44.3261L36.1955 44.3727L36.2021 44.3793L36.2221 44.4259V44.4326V44.4392L36.2354 44.4592L36.2421 44.4858L36.2487 44.4925L36.2621 44.5258L36.2687 44.5391L36.2754 44.5524L36.2887 44.5724L36.2953 44.5857V44.5924L36.3087 44.619L36.3153 44.639L36.322 44.6456L36.3353 44.6789L36.3419 44.6922L36.3486 44.6989L36.3619 44.7188L36.3686 44.7388V44.7455L36.3952 44.7854L36.4019 44.8054L36.4152 44.8254L36.4218 44.8387L36.4285 44.8453L36.4352 44.8653L36.4485 44.8853L36.4618 44.9053L36.4684 44.9252L36.4751 44.9319L36.4818 44.9452L36.4951 44.9585L36.5017 44.9718L36.5084 44.9785L36.515 44.9985L36.5284 45.0184L36.5417 45.0384L36.555 45.0584V45.065L36.5616 45.0717L36.575 45.0917L36.5883 45.105V45.1116L36.6016 45.125L36.6149 45.1449V45.1516L36.6216 45.1649L36.6349 45.1782L36.6415 45.1915L36.6482 45.1982L36.6615 45.2182L36.6748 45.2315L36.6881 45.2514L36.7015 45.2648V45.2714L36.7081 45.2847L36.7214 45.298L36.7281 45.3114L36.7347 45.318L36.7481 45.3313L36.7614 45.3513C37.1275 45.824 37.5403 46.1302 37.8599 46.3166L36.8213 48.4937C36.3486 48.1475 35.5497 47.4884 35.4166 46.8892C35.2301 46.0237 35.4898 45.2514 35.4898 45.2514C35.4898 45.2514 33.0332 43.1543 33.8187 41.1105C33.4925 41.0639 33.0398 40.8974 33.0132 40.265C32.9732 39.2663 33.8121 38.5207 33.8121 38.5207C33.8121 38.5207 32.1877 38.1279 32.7136 35.0388C33.2329 31.9497 35.6829 32.6155 35.9092 31.2906C36.1289 29.9724 37.2807 27.9819 39.937 28.4279C42.5934 28.874 43.7118 28.5477 44.3776 27.6423C45.0433 26.7369 47.0606 26.1377 48.1191 27.0631C49.1843 27.9952 50.3227 29.2268 51.3147 29.2268C52.3133 29.2268 54.1308 29.4865 54.4437 31.9764C54.7566 34.4596 52.3732 34.3531 52.3732 34.3531Z" fill="black" stroke="black" stroke-width="0.5" stroke-linecap="round" stroke-linejoin="round"/>
<path d="M43.7451 40.0053C43.7451 40.0053 43.9581 39.6658 44.8103 39.3662C45.6558 39.0666 46.1685 39.1665 46.1685 39.1665" stroke="black" stroke-width="0.5" stroke-linecap="round" stroke-linejoin="round"/>
<path d="M49.7502 38.9601C49.7502 38.9601 50.5557 38.8003 51.1083 38.9468C51.6609 39.0866 51.8673 39.2863 51.8673 39.2863" stroke="black" stroke-width="0.5" stroke-linecap="round" stroke-linejoin="round"/>
<path d="M44.5906 54.1526L45.07 52.8011" stroke="black" stroke-width="0.5" stroke-linecap="round" stroke-linejoin="round"/>
<path d="M17.8141 71.0294L20.5037 72.5273" stroke="black" stroke-width="0.5" stroke-linecap="round" stroke-linejoin="round"/>
<path d="M52.1336 33.7539C52.7261 35.2518 52.8459 37.2291 52.806 39.8056C52.7061 45.7707 51.4678 50.5908 49.8434 52.1087C48.219 53.6266 45.7357 52.9475 45.7357 52.9475M35.8892 50.4443L37.8599 46.3166C37.3073 45.9904 36.4818 45.3114 36.0756 44.0331C35.4166 41.9893 36.9877 40.944 36.9877 40.944L35.8892 50.4443Z" stroke="black" stroke-width="0.5" stroke-linecap="round" stroke-linejoin="round"/>
<path d="M14.0592 65.1108L11.5094 70.1373C11.5094 70.1373 8.24058 75.9559 13.8196 78.4126C19.3986 80.8625 32.7602 86.2551 32.7602 86.2551C32.7602 86.2551 36.6349 86.9275 40.0768 86.4482C43.5121 85.9688 43.9848 84.391 43.9848 84.391C43.9848 84.391 44.584 84.138 44.6439 83.6187C44.7038 83.1061 44.3909 82.72 44.3909 82.72C44.7837 82.2007 44.8036 81.3152 44.1246 81.1887C43.785 81.1288 43.9581 80.1835 42.6133 80.1369C41.2619 80.0836 40.0968 80.4431 39.0649 80.4364C38.033 80.4231 36.9678 80.2301 36.9678 80.2301L37.3539 76.9945C37.3539 76.9945 33.4393 80.6362 32.9799 80.5163C32.5272 80.3965 20.5037 72.5273 20.5037 72.5273L23.1601 68.6593" stroke="black" stroke-width="0.5" stroke-linecap="round" stroke-linejoin="round"/>
<path d="M39.0449 93.2189L36.6415 97.8392C36.6415 97.8392 46.2616 129.675 49.7236 136.599C53.1855 143.53 56.6008 151.798 56.6008 151.798" stroke="white" stroke-width="0.5" stroke-linecap="round" stroke-linejoin="round"/>
<path d="M46.5013 69.2052L39.6973 70.5966C39.6973 70.5966 39.0782 70.6832 38.9251 71.6485C38.7653 72.6072 38.4457 75.3101 38.4457 75.3101L37.9997 79.4245" stroke="#6CA3B7" stroke-width="0.5" stroke-linecap="round" stroke-linejoin="round"/>
<path d="M41.7479 32.3026C41.7479 32.3026 42.3737 31.3639 43.5254 31.1242C44.6838 30.8846 45.4295 31.4371 45.4295 31.4371" stroke="white" stroke-width="0.5" stroke-linecap="round" stroke-linejoin="round"/>
<path d="M38.7986 34.6061C38.3192 35.2452 38.1395 35.8976 38.1395 36.6166" stroke="white" stroke-width="0.5" stroke-linecap="round" stroke-linejoin="round"/>
<path d="M35.816 36.5168C35.3167 37.4688 35.4032 38.5274 35.816 39.2331" stroke="white" stroke-width="0.5" stroke-linecap="round" stroke-linejoin="round"/>
<path d="M47.4334 29.4266C48.2855 29.3134 49.3507 29.9592 49.2842 30.8979" stroke="white" stroke-width="0.5" stroke-linecap="round" stroke-linejoin="round"/>
<path d="M40.1432 73.3479C40.3999 73.6533 40.8919 73.6283 41.2421 73.292C41.5923 72.9557 41.668 72.4355 41.4112 72.1301C41.1544 71.8247 40.6624 71.8497 40.3123 72.186C39.9621 72.5223 39.8864 73.0425 40.1432 73.3479Z" fill="black"/>
<path d="M19.8646 91.4746C19.8646 91.4746 20.5104 92.2203 21.3093 92.7995C22.1015 93.3787 22.5542 93.7115 22.5542 93.7115" stroke="white" stroke-width="0.5" stroke-linecap="round" stroke-linejoin="round"/>
<path d="M20.6369 94.7568L22.1814 95.5757" stroke="white" stroke-width="0.5" stroke-linecap="round" stroke-linejoin="round"/>
<path fill-rule="evenodd" clip-rule="evenodd" d="M41.7745 18.7545C43.8716 18.7479 48.5785 18.415 50.5557 15.7254C53.1255 12.2169 50.4825 8.36882 45.0234 8.22235C32.3208 7.88948 32.2609 17.6361 39.2579 18.648L40.403 21.1646L41.7745 18.7545Z" fill="white" stroke="black" stroke-width="0.5" stroke-linecap="round" stroke-linejoin="round"/>
<path fill-rule="evenodd" clip-rule="evenodd" d="M39.724 13.4485C40.0901 13.4485 40.3831 13.7547 40.3831 14.1276C40.3831 14.5004 40.0901 14.8 39.724 14.8C39.3578 14.8 39.0582 14.5004 39.0582 14.1276C39.0582 13.7547 39.3578 13.4485 39.724 13.4485ZM46.741 12.4033C47.1072 12.4033 47.4001 12.7095 47.4001 13.0823C47.4001 13.4551 47.1072 13.7614 46.741 13.7614C46.3748 13.7614 46.0752 13.4551 46.0752 13.0823C46.0752 12.7095 46.3748 12.4033 46.741 12.4033ZM43.1659 12.9891C43.5321 12.9891 43.825 13.2887 43.825 13.6682C43.825 14.041 43.5321 14.3406 43.1659 14.3406C42.7997 14.3406 42.5002 14.041 42.5002 13.6682C42.5002 13.2887 42.7997 12.9891 43.1659 12.9891Z" fill="black"/>
<path fill-rule="evenodd" clip-rule="evenodd" d="M143.182 19.0941C145.758 15.5855 143.109 11.7375 137.649 11.591C129.234 11.3647 126.372 15.5722 127.43 18.7345L125.999 21.331L128.975 20.845C129.72 21.4242 130.706 21.8436 131.884 22.0167C135.499 22.1698 140.852 22.2763 143.182 19.0941Z" fill="white" stroke="black" stroke-width="0.5" stroke-linecap="round" stroke-linejoin="round"/>
<path fill-rule="evenodd" clip-rule="evenodd" d="M132.35 16.8172C132.716 16.8172 133.016 17.1168 133.016 17.4896C133.016 17.8691 132.716 18.1686 132.35 18.1686C131.984 18.1686 131.691 17.8691 131.691 17.4896C131.691 17.1168 131.984 16.8172 132.35 16.8172ZM139.367 15.7719C139.733 15.7719 140.033 16.0782 140.033 16.451C140.033 16.8238 139.733 17.1234 139.367 17.1234C139.001 17.1234 138.708 16.8238 138.708 16.451C138.708 16.0782 139.001 15.7719 139.367 15.7719ZM135.792 16.3578C136.158 16.3578 136.458 16.6574 136.458 17.0302C136.458 17.403 136.158 17.7093 135.792 17.7093C135.426 17.7093 135.126 17.403 135.126 17.0302C135.126 16.6574 135.426 16.3578 135.792 16.3578Z" fill="black"/>
</svg>
