<svg width="139" height="132" viewBox="0 0 139 132" fill="none" xmlns="http://www.w3.org/2000/svg">
<path fill-rule="evenodd" clip-rule="evenodd" d="M111.789 31.3314L133.004 25.7775L120.889 45.3552L111.789 31.3314ZM116.077 32.796L120.869 39.8014L127.351 29.6281L116.077 32.796Z" fill="#D7F0F7"/>
<path d="M123.235 39.1716L124.136 40.1061" stroke="#6CA3B7" stroke-width="0.5" stroke-linecap="round" stroke-linejoin="round"/>
<path d="M125.362 36.7527L125.906 37.2497" stroke="#6CA3B7" stroke-width="0.5" stroke-linecap="round" stroke-linejoin="round"/>
<path d="M126.648 33.6509L127.55 34.5854" stroke="#6CA3B7" stroke-width="0.5" stroke-linecap="round" stroke-linejoin="round"/>
<path d="M128.67 31.4043L129.213 31.9014" stroke="#6CA3B7" stroke-width="0.5" stroke-linecap="round" stroke-linejoin="round"/>
<path d="M130.028 28.1899L130.93 29.1244" stroke="#6CA3B7" stroke-width="0.5" stroke-linecap="round" stroke-linejoin="round"/>
<path fill-rule="evenodd" clip-rule="evenodd" d="M107.601 1.20916C107.601 1.20916 115.454 -0.944798 118.423 4.3241C121.393 9.59301 118.808 15.2397 111.484 14.0401C110.278 13.8479 109.198 13.5629 108.244 13.2116L104.393 15.0011L105.195 11.5879C100.807 8.23436 101.967 2.83953 107.601 1.20916Z" fill="#ED712E"/>
<path fill-rule="evenodd" clip-rule="evenodd" d="M115.792 10.2956L112.465 3.08479C112.465 3.08479 112.147 2.26297 111.577 2.74016C111.007 3.21734 106.693 9.70571 106.693 9.70571C106.693 9.70571 106.017 10.5805 107.408 10.8456C108.8 11.1108 115.401 11.23 115.401 11.23C115.401 11.23 116.296 11.4488 115.792 10.2956Z" fill="white"/>
<path fill-rule="evenodd" clip-rule="evenodd" d="M112.406 4.94049L111.107 4.86096L111.12 8.06869L111.981 8.12172L112.406 4.94049ZM111.438 9.85151C111.63 9.86476 111.796 9.81174 111.928 9.69907C112.068 9.57978 112.141 9.43397 112.147 9.25503C112.16 9.08271 112.107 8.93028 111.988 8.80435C111.869 8.67843 111.716 8.60553 111.518 8.59227C111.325 8.57902 111.16 8.63204 111.027 8.73808C110.895 8.85075 110.822 8.99655 110.808 9.1755C110.795 9.34781 110.848 9.50687 110.974 9.6328C111.093 9.76535 111.246 9.83825 111.438 9.85151Z" fill="#ED712E"/>
<path fill-rule="evenodd" clip-rule="evenodd" d="M128.497 62.4543C130.585 62.441 135.271 62.1097 137.239 59.4321C139.797 55.9394 137.166 52.1087 131.732 51.9629C119.086 51.6315 119.027 61.3342 125.985 62.3416L127.132 64.8468L128.497 62.4543Z" fill="white" stroke="black" stroke-width="0.5" stroke-linecap="round" stroke-linejoin="round"/>
<path fill-rule="evenodd" clip-rule="evenodd" d="M126.456 57.1655C126.821 57.1655 127.112 57.4704 127.112 57.8415C127.112 58.2127 126.821 58.5175 126.456 58.5175C126.092 58.5175 125.793 58.2127 125.793 57.8415C125.793 57.4704 126.092 57.1655 126.456 57.1655ZM133.441 56.125C133.806 56.125 134.098 56.4299 134.098 56.801C134.098 57.1722 133.806 57.477 133.441 57.477C133.077 57.477 132.779 57.1722 132.779 56.801C132.779 56.4299 133.077 56.125 133.441 56.125ZM129.876 56.7082C130.24 56.7082 130.539 57.0065 130.539 57.3842C130.539 57.7554 130.24 58.0536 129.876 58.0536C129.511 58.0536 129.22 57.7554 129.22 57.3842C129.22 57.0065 129.511 56.7082 129.876 56.7082Z" fill="black"/>
<path fill-rule="evenodd" clip-rule="evenodd" d="M44.0491 38.7409C46.6073 35.2482 43.9762 31.4175 38.5416 31.2717C30.1577 31.0529 27.3079 35.2416 28.3683 38.383L26.9434 40.9678L29.8992 40.4839C30.6482 41.0605 31.6224 41.4847 32.8021 41.6504C36.3943 41.8028 41.7228 41.9089 44.0491 38.7409Z" fill="white" stroke="black" stroke-width="0.5" stroke-linecap="round" stroke-linejoin="round"/>
<path fill-rule="evenodd" clip-rule="evenodd" d="M33.266 36.4744C33.6305 36.4744 33.9222 36.7792 33.9222 37.1504C33.9222 37.5215 33.6305 37.8198 33.266 37.8198C32.9015 37.8198 32.6033 37.5215 32.6033 37.1504C32.6033 36.7792 32.9015 36.4744 33.266 36.4744ZM40.2515 35.4338C40.616 35.4338 40.9076 35.7387 40.9076 36.1098C40.9076 36.481 40.616 36.7859 40.2515 36.7859C39.887 36.7859 39.5887 36.481 39.5887 36.1098C39.5887 35.7387 39.887 35.4338 40.2515 35.4338ZM36.6925 36.0171C37.057 36.0171 37.3486 36.3153 37.3486 36.6931C37.3486 37.0642 37.057 37.3625 36.6925 37.3625C36.328 37.3625 36.0297 37.0642 36.0297 36.6931C36.0297 36.3153 36.328 36.0171 36.6925 36.0171Z" fill="black"/>
<path fill-rule="evenodd" clip-rule="evenodd" d="M38.124 5.76894L36.9311 19.3157L48.2576 17.281L49.3312 3.66138L38.124 5.76894Z" fill="#ED712E"/>
<path fill-rule="evenodd" clip-rule="evenodd" d="M39.0254 6.7962L38.6874 10.4414L47.9262 8.77784L48.2178 5.06641L39.0254 6.7962Z" fill="white"/>
<path d="M40.0394 11.1439L39.9201 12.5225L38.5416 12.6881" stroke="black" stroke-width="0.5" stroke-linecap="round" stroke-linejoin="round"/>
<path d="M42.4187 10.8324L42.2994 12.2043L40.9209 12.37" stroke="black" stroke-width="0.5" stroke-linecap="round" stroke-linejoin="round"/>
<path d="M44.851 10.3287L44.7317 11.7073L43.3532 11.873" stroke="black" stroke-width="0.5" stroke-linecap="round" stroke-linejoin="round"/>
<path d="M47.2237 9.83167L47.1044 11.2102L45.7258 11.3759" stroke="black" stroke-width="0.5" stroke-linecap="round" stroke-linejoin="round"/>
<path d="M39.9201 13.4768L39.8008 14.8487L38.4223 15.021" stroke="black" stroke-width="0.5" stroke-linecap="round" stroke-linejoin="round"/>
<path d="M42.2994 13.1587L42.1801 14.5372L40.8016 14.7029" stroke="black" stroke-width="0.5" stroke-linecap="round" stroke-linejoin="round"/>
<path d="M44.7317 12.6616L44.6124 14.0335L43.2339 14.1992" stroke="black" stroke-width="0.5" stroke-linecap="round" stroke-linejoin="round"/>
<path d="M47.1044 12.1646L46.9851 13.5431L45.6066 13.7088" stroke="black" stroke-width="0.5" stroke-linecap="round" stroke-linejoin="round"/>
<path d="M39.7942 15.75L39.6749 17.1285L38.2964 17.2942" stroke="black" stroke-width="0.5" stroke-linecap="round" stroke-linejoin="round"/>
<path d="M42.1668 15.4385L42.0475 16.8104L40.669 16.9827" stroke="black" stroke-width="0.5" stroke-linecap="round" stroke-linejoin="round"/>
<path d="M44.5991 14.9348L44.4798 16.3133L43.1013 16.479" stroke="black" stroke-width="0.5" stroke-linecap="round" stroke-linejoin="round"/>
<path d="M46.9718 14.4445L46.8526 15.8164L45.4807 15.9887" stroke="black" stroke-width="0.5" stroke-linecap="round" stroke-linejoin="round"/>
<path fill-rule="evenodd" clip-rule="evenodd" d="M74.0387 34.274L70.9039 37.5746C70.9039 37.5746 64.4487 29.9661 63.66 28.6472C62.8713 27.3284 62.6062 26.8048 62.6062 26.8048C62.6062 26.8048 62.5134 23.7627 62.7719 22.6162C63.037 21.463 63.9118 20.0049 63.7064 19.594C63.5009 19.1897 62.7255 18.9644 62.0429 19.9055C61.3602 20.8532 60.7041 22.1324 60.7041 22.1324C60.7041 22.1324 57.4235 18.1161 56.4757 17.6588C55.5346 17.2015 54.958 17.6455 54.958 17.6455C54.958 17.6455 54.3615 16.9629 53.5066 17.4997C52.6583 18.0432 53.8313 18.9047 54.7194 20.3893C55.6009 21.8739 56.1907 23.2127 56.1907 23.2127C56.1907 23.2127 53.0692 20.0248 52.3335 19.7995C51.6045 19.5741 50.9815 20.1574 51.7834 21.1051C52.5854 22.0528 53.0692 22.5897 53.6988 23.3916C54.335 24.1935 54.6333 24.8298 54.6333 24.8298C54.6333 24.8298 52.539 23.7495 51.3394 23.6567C50.1464 23.5573 50.5507 24.7171 51.114 24.8894C51.6774 25.0551 54.3483 26.5993 55.5412 27.5338C56.7408 28.4683 57.3903 29.2106 57.3903 29.2106L65.741 42.976C66.5098 44.2352 68.6174 46.3759 72.2758 44.6462C75.9408 42.923 80.5867 39.2845 80.5867 39.2845L74.0387 34.274Z" fill="white" stroke="black" stroke-width="0.5" stroke-linecap="round" stroke-linejoin="round"/>
<path fill-rule="evenodd" clip-rule="evenodd" d="M64.9457 109.484C64.9457 109.484 64.2034 116.8 63.1298 120.2C62.0627 123.6 60.7107 127.424 64.8065 126.954C68.909 126.49 70.9105 121.831 71.7986 118.895C72.6801 115.959 73.1042 114.05 73.1042 114.05L72.5873 108.364L64.9457 109.484Z" fill="white" stroke="black" stroke-width="0.5" stroke-linecap="round" stroke-linejoin="round"/>
<path fill-rule="evenodd" clip-rule="evenodd" d="M72.6138 109.404C72.6138 109.404 72.2692 113.825 71.4805 118.007C70.6918 122.189 68.6306 128.014 72.7463 127.696C76.8687 127.378 79.2215 121.493 79.9505 117.51C80.6729 113.526 80.8518 112.029 80.8518 112.029L80.4939 107.098L72.6138 109.404Z" fill="white" stroke="black" stroke-width="0.5" stroke-linecap="round" stroke-linejoin="round"/>
<path fill-rule="evenodd" clip-rule="evenodd" d="M100.701 55.9793C101.132 55.8865 101.755 60.7644 101.371 65.3639C100.986 69.9635 97.4936 73.6948 93.8021 76.5181C90.1172 79.3414 82.2172 82.1714 82.2172 82.1714C81.9653 90.8336 81.2363 99.6748 81.117 108.264C80.3548 111.863 73.6345 112.943 72.1367 109.841C72.1367 109.841 70.0092 111.445 67.2787 111.492C64.5481 111.545 63.8522 110.299 63.8522 110.299C63.0569 103.651 57.2578 76.4651 61.8308 70.8118C67.0666 64.3566 75.7884 60.2077 81.7599 57.7224L100.701 55.9793Z" fill="#D7F0F7"/>
<path d="M73.4886 70.4075C72.9386 70.7388 68.677 73.4495 69.2271 80.2229C69.7772 87.0029 72.0372 108.728 72.077 109.079" stroke="black" stroke-width="0.5" stroke-linecap="round" stroke-linejoin="round"/>
<path fill-rule="evenodd" clip-rule="evenodd" d="M93.6696 28.0906L98.5673 26.2349C98.5673 26.2349 103.704 27.3748 105.5 31.6562C107.289 35.9442 107.846 38.6019 107.846 38.6019L101.258 41.8096C101.258 41.8096 99.1307 48.0064 100.085 51.9829C101.046 55.9594 101.497 56.1251 100.973 57.1789C100.443 58.2327 97.9576 60.9102 90.5811 61.8712C83.2113 62.8256 80.0963 59.2864 79.8577 58.7562C79.6191 58.2327 80.9314 52.5065 80.885 50.0211C80.8386 47.5292 80.5006 45.183 80.5006 45.183C80.5006 45.183 78.804 43.9901 78.2539 42.8634C77.7038 41.7367 78.466 39.1785 78.466 39.1785L72.9319 34.7778C72.9319 34.7778 75.3311 31.4441 76.8621 29.8866C78.393 28.3292 80.1295 27.0368 82.7937 26.5198C82.7937 26.5198 83.1914 26.4867 83.8807 26.4403C87.2011 26.4536 93.6696 28.0906 93.6696 28.0906Z" fill="black" stroke="black" stroke-width="0.2" stroke-linecap="round" stroke-linejoin="round"/>
<path d="M72.3288 39.2181L70.9039 37.5745" stroke="black" stroke-width="0.5" stroke-linecap="round" stroke-linejoin="round"/>
<path d="M58.3248 25.5124C58.3248 25.5124 59.5443 24.3592 59.9883 23.5838C60.4324 22.8017 60.7041 22.1323 60.7041 22.1323" stroke="black" stroke-width="0.5" stroke-linecap="round" stroke-linejoin="round"/>
<path d="M58.0995 22.1854C57.3704 20.9792 56.1443 19.0307 54.958 17.6455" stroke="black" stroke-width="0.5" stroke-linecap="round" stroke-linejoin="round"/>
<path d="M80.2885 32.3188C80.2885 32.3188 80.083 34.4132 79.7517 35.7055C79.5528 36.4544 79.1949 37.3823 78.9232 38.0384" stroke="white" stroke-width="0.5" stroke-linecap="round" stroke-linejoin="round"/>
<path fill-rule="evenodd" clip-rule="evenodd" d="M58.2983 49.8818L57.503 50.6374L62.8514 68.1407L87.6318 71.7196L99.8398 62.0964L85.0405 60.592L82.7606 53.1227L58.2983 49.8818Z" fill="#ED712E"/>
<path d="M58.3116 50.7434L82.0117 53.9048L87.327 70.8978" stroke="white" stroke-width="0.5" stroke-linecap="round" stroke-linejoin="round"/>
<path fill-rule="evenodd" clip-rule="evenodd" d="M79.7053 13.7618C80.0367 15.5313 80.3813 17.049 80.7789 18.3016C81.0971 19.203 81.6074 20.2965 82.3629 21.2376C83.9801 23.2391 86.4057 23.1265 86.4057 23.1265L86.5515 25.519L82.7937 26.5198C82.7937 26.5198 80.4675 34.9036 87.8903 34.5192C95.3132 34.1348 98.5673 26.2348 98.5673 26.2348L93.0598 25.0418C93.0598 25.0418 92.5097 21.1581 92.4633 19.8458C92.4169 18.527 92.5097 17.619 92.5097 17.619C92.5097 17.619 93.9479 17.44 94.3323 15.6639C94.7101 13.8943 94.1069 12.9532 93.8418 12.6483C97.3677 0.838028 76.9018 -1.24302 79.7053 13.7618Z" fill="white"/>
<path fill-rule="evenodd" clip-rule="evenodd" d="M86.4058 23.1265C86.4058 23.1265 83.9801 23.2392 82.363 21.2377C81.6074 20.2965 81.0971 19.203 80.779 18.3017C80.3813 17.049 80.0367 15.5313 79.7053 13.7618C79.5529 12.9598 79.4733 12.2109 79.4535 11.5084C79.5264 11.3361 80.885 8.20127 83.8807 6.97517C83.8807 6.97517 83.8276 9.58642 86.1738 10.9782C88.52 12.3634 90.5546 12.2706 90.5546 12.2706C90.5546 12.2706 90.5215 13.4901 90.6673 14.2655C90.8065 15.0475 91.2372 15.4386 91.3102 15.3789C91.3831 15.3193 91.0848 13.331 92.2446 12.6881C93.4045 12.0386 93.8419 12.6484 93.8419 12.6484C94.107 12.9532 94.7101 13.8943 94.3323 15.6639C93.9479 17.4401 92.5097 17.619 92.5097 17.619C92.5097 17.619 92.417 18.527 92.4633 19.8459C92.5031 20.9262 92.8809 23.7429 93.0134 24.7105C97.0629 23.5971 99.1505 21.3371 99.1505 21.3371C99.0511 15.5313 96.7845 -1.68041 87.771 2.25635C87.771 2.25635 84.8019 0.00961256 81.7333 2.61424C78.6714 5.2255 77.3989 10.0636 76.829 15.4452C76.2524 20.8334 75.1257 24.0875 75.1257 24.0875C75.1257 24.0875 76.027 24.4984 76.7693 23.6368C77.5116 22.7752 78.5853 20.2568 78.5853 20.2568C78.5853 20.2568 78.181 24.3526 78.8967 24.8828C79.3872 25.2407 82.8335 25.5986 86.5516 25.4992L86.4058 23.1265Z" fill="#ED712E"/>
<path d="M92.3771 16.3863C92.3771 16.3863 92.1253 15.5843 92.4434 14.4113C92.7682 13.2382 93.4972 13.4503 93.4972 13.4503" stroke="black" stroke-width="0.5" stroke-linecap="round" stroke-linejoin="round"/>
<path d="M93.3978 15.3392L92.4037 14.577" stroke="black" stroke-width="0.5" stroke-linecap="round" stroke-linejoin="round"/>
<path fill-rule="evenodd" clip-rule="evenodd" d="M81.2098 14.0998C81.4881 14.0004 81.7996 14.1793 81.9057 14.4908C82.0183 14.8089 81.8858 15.1403 81.6074 15.2397C81.3291 15.3325 81.0176 15.1536 80.9115 14.8421C80.7989 14.524 80.9314 14.1926 81.2098 14.0998ZM86.1208 14.3318C86.3991 14.2323 86.7106 14.4113 86.8233 14.7294C86.9293 15.0409 86.7968 15.3723 86.5251 15.4717C86.2467 15.5645 85.9352 15.3922 85.8225 15.074C85.7165 14.7625 85.849 14.4245 86.1208 14.3318Z" fill="black"/>
<path d="M83.5294 14.2124C83.5294 14.2124 83.4233 15.9952 83.3173 16.7773C83.2112 17.5527 83.0654 18.0696 83.0654 18.0696C83.4962 18.1823 84.033 18.1823 84.4903 18.0431" stroke="black" stroke-width="0.5" stroke-linecap="round" stroke-linejoin="round"/>
<path d="M81.6537 16.5517C82.7214 16.0431 83.1422 14.6814 82.5936 13.5102C82.045 12.3391 80.7347 11.802 79.667 12.3106C78.5993 12.8193 78.1784 14.181 78.727 15.3521C79.2757 16.5232 80.5859 17.0603 81.6537 16.5517Z" stroke="black" stroke-width="0.6776" stroke-linecap="round" stroke-linejoin="round"/>
<path d="M87.5952 16.5453C88.663 16.0367 89.0838 14.675 88.5352 13.5039C87.9866 12.3327 86.6763 11.7957 85.6086 12.3043C84.5408 12.8129 84.12 14.1746 84.6686 15.3457C85.2172 16.5169 86.5275 17.0539 87.5952 16.5453Z" stroke="black" stroke-width="0.6776" stroke-linecap="round" stroke-linejoin="round"/>
<path d="M91.6813 13.2581L88.7585 14.2721" stroke="black" stroke-width="0.5" stroke-linecap="round" stroke-linejoin="round"/>
<path d="M82.8335 14.4377L84.4374 14.4775" stroke="black" stroke-width="0.5" stroke-linecap="round" stroke-linejoin="round"/>
<path d="M90.9191 20.2369C90.1238 21.748 88.7055 22.6759 87.042 23.0338" stroke="black" stroke-width="0.5" stroke-linecap="round" stroke-linejoin="round"/>
<path d="M85.8492 20.8005C86.1879 20.6875 86.3645 20.2648 86.2437 19.8565C86.1228 19.4481 85.7502 19.2086 85.4115 19.3216C85.0727 19.4346 84.8961 19.8573 85.0169 20.2657C85.1378 20.6741 85.5104 20.9135 85.8492 20.8005Z" fill="black" stroke="black" stroke-width="0.616691" stroke-linecap="round" stroke-linejoin="round"/>
<path d="M84.4108 19.3554L85.4911 19.3024" stroke="black" stroke-width="0.5" stroke-linecap="round" stroke-linejoin="round"/>
<path d="M98.5739 37.6011L99.9392 41.8626" stroke="white" stroke-width="0.5" stroke-linecap="round" stroke-linejoin="round"/>
<path fill-rule="evenodd" clip-rule="evenodd" d="M100.754 42.0017L102.371 48.722L94.3256 58.1994C94.3256 58.1994 89.2025 60.0883 88.5066 60.7643C87.8174 61.4337 86.4521 62.8586 86.2798 63.064C86.1141 63.2695 86.472 63.6141 86.7835 63.6738C87.095 63.7334 87.3468 63.6738 87.3468 63.6738C87.3468 63.6738 86.3394 65.4102 86.5118 65.8145C86.6774 66.2254 87.4794 65.8542 87.4794 65.8542C87.4794 65.8542 87.5523 66.5236 87.9433 66.5501C88.341 66.57 88.9374 66.0199 88.9374 66.0199C88.9374 66.0199 89.0567 66.57 89.7195 66.464C90.3756 66.3579 90.707 65.6952 90.707 65.6952C90.707 65.6952 91.1312 66.6694 92.0988 65.6885C94.3985 63.3556 93.696 64.4426 96.0819 62.5471C97.2351 61.6391 97.9045 60.804 97.9045 60.804C97.9045 60.804 108.721 54.8194 109.032 49.9083C109.344 45.004 107.349 38.8403 107.349 38.8403L100.754 42.0017Z" fill="white" stroke="black" stroke-width="0.5" stroke-linecap="round" stroke-linejoin="round"/>
<path d="M92.9803 62.8586C92.5694 63.1436 91.4427 64.2372 90.707 65.6952" stroke="black" stroke-width="0.5" stroke-linecap="round" stroke-linejoin="round"/>
<path d="M91.562 62.5208C90.707 63.2299 89.4213 64.7675 88.9374 66.0201" stroke="black" stroke-width="0.5" stroke-linecap="round" stroke-linejoin="round"/>
<path d="M90.3624 62.3284C88.9308 63.5346 88.1686 64.4558 87.4794 65.8542" stroke="black" stroke-width="0.5" stroke-linecap="round" stroke-linejoin="round"/>
<path d="M89.2158 61.8181C88.5862 62.3152 87.7777 63.0111 87.3469 63.6738" stroke="black" stroke-width="0.5" stroke-linecap="round" stroke-linejoin="round"/>
<path d="M87.3999 2.56787C87.3999 2.56787 86.4787 2.91913 85.5442 3.84699C84.6097 4.78147 84.1325 5.87502 84.1325 5.87502" stroke="white" stroke-width="0.5" stroke-linecap="round" stroke-linejoin="round"/>
<path d="M86.3859 6.42505C86.3859 6.42505 86.9558 9.00979 89.6599 9.99067C92.3705 10.9715 93.3249 10.7064 93.3249 10.7064" stroke="white" stroke-width="0.5" stroke-linecap="round" stroke-linejoin="round"/>
<path d="M89.5406 7.06799C89.5406 7.06799 89.9714 8.31397 91.5752 8.77127C93.1791 9.22194 93.875 9.27497 93.875 9.27497" stroke="white" stroke-width="0.5" stroke-linecap="round" stroke-linejoin="round"/>
<path d="M92.8477 7.37939C92.8477 7.37939 93.7557 7.5252 94.4715 8.14819C95.1939 8.77118 95.459 9.08268 95.459 9.08268" stroke="white" stroke-width="0.5" stroke-linecap="round" stroke-linejoin="round"/>
<path d="M96.5327 16.9563C96.5327 16.9563 96.8176 18.3216 96.8176 19.5212C96.8176 20.7141 96.8176 20.7141 96.8176 20.7141V20.5948" stroke="white" stroke-width="0.5" stroke-linecap="round" stroke-linejoin="round"/>
<path d="M95.2402 18.0365C95.2402 18.0365 95.3397 18.9644 95.4324 19.5675C95.5252 20.1639 95.5252 20.2103 95.5252 20.2103" stroke="white" stroke-width="0.5" stroke-linecap="round" stroke-linejoin="round"/>
<path d="M80.7127 21.8673L80.6862 23.279" stroke="white" stroke-width="0.5" stroke-linecap="round" stroke-linejoin="round"/>
<path d="M103.81 48.7222H102.372" stroke="black" stroke-width="0.5" stroke-linecap="round" stroke-linejoin="round"/>
<path d="M95.6578 25.6251L93.0532 25.0617C93.0532 25.0617 92.5097 21.1581 92.4633 19.8458C92.4169 18.527 92.5097 17.619 92.5097 17.619C92.5097 17.619 93.9479 17.44 94.3323 15.6639C94.7101 13.8943 94.107 12.9532 93.8419 12.6483M86.4853 24.2266L86.5781 25.5522L84.2253 26.1818L86.4853 24.2266Z" stroke="black" stroke-width="0.5" stroke-linecap="round" stroke-linejoin="round"/>
<path d="M81.9454 88.9382C82.0514 86.6716 82.1508 84.4116 82.2171 82.1715C82.2171 82.1715 90.1171 79.3415 93.8021 76.5182C97.4936 73.6948 100.986 69.9635 101.371 65.364C101.755 60.7645 101.318 58.6702 101.318 58.6702M63.5738 68.8766C62.9574 69.4996 62.3742 70.1425 61.8308 70.8118C60.0413 73.0254 59.8425 78.5396 60.3064 84.8291L63.5738 68.8766Z" stroke="black" stroke-width="0.5" stroke-linecap="round" stroke-linejoin="round"/>
<path fill-rule="evenodd" clip-rule="evenodd" d="M111.12 70.5068C111.12 70.5068 109.615 71.3418 108.608 73.4494C107.607 75.557 107.004 78.6454 107.004 78.6454C107.004 78.6454 104.347 81.6411 104.154 82.2375C103.962 82.834 106.189 83.2317 106.189 83.2317C106.189 83.2317 105.771 84.5969 105.798 84.7494C105.818 84.9084 109.317 85.1338 109.602 85.2796C109.589 85.5844 106.812 86.9033 106.308 87.2413C105.805 87.5727 106.752 88.6265 106.752 88.6265C106.752 88.6265 105.559 92.4572 106.799 92.9145C108.045 93.3718 113.241 92.5102 113.241 92.5102L113.552 96.5066L123.533 94.4919L122.771 86.8304C122.771 86.8304 127.795 81.038 126.025 75.1991C124.249 69.3602 115.825 67.7298 111.12 70.5068Z" fill="white" stroke="black" stroke-width="0.5" stroke-linecap="round" stroke-linejoin="round"/>
<path d="M109.926 80.0811C110.299 80.118 110.638 79.773 110.684 79.3106C110.729 78.8481 110.464 78.4433 110.091 78.4064C109.718 78.3695 109.379 78.7145 109.333 79.1769C109.287 79.6394 109.553 80.0442 109.926 80.0811Z" fill="black"/>
<path d="M109.277 76.4518C109.277 76.4518 109.735 76.18 110.57 76.3722C111.411 76.5644 111.61 76.9952 111.61 76.9952" stroke="black" stroke-width="0.5" stroke-linecap="round" stroke-linejoin="round"/>
<path fill-rule="evenodd" clip-rule="evenodd" d="M69.2205 87.5993C69.2205 87.5993 72.753 107.747 72.3487 107.787C71.9511 107.827 99.641 101.464 99.641 101.464L96.652 81.2302L69.2205 87.5993Z" fill="#ED712E"/>
<path fill-rule="evenodd" clip-rule="evenodd" d="M107.972 67.8293C107.541 71.037 109.291 71.8522 110.941 72.3426C112.591 72.833 115.408 72.8132 115.236 74.9207C115.07 77.0217 114.401 77.2404 114.97 78.3869C115.547 79.5401 114.712 81.5947 115.574 81.767C116.435 81.9327 116.362 79.4937 118.854 80.4216C121.34 81.3561 120.12 84.756 118.974 85.664C117.82 86.5786 117.608 86.3599 117.893 87.6522C118.185 88.9446 118.921 90.7871 120.001 90.86C121.081 90.9329 120.743 89.9785 122.108 90.0713C123.474 90.1641 123.712 89.7863 124.547 88.0101C125.389 86.2406 127.231 86.2671 127.994 84.9018C128.762 83.5365 128.378 82.0785 129.193 80.7331C130.008 79.3943 132.474 77.6712 131.705 75.8154C130.943 73.9597 129.432 72.6674 129.458 71.8058C129.478 70.9442 129.472 68.4191 127.616 68.3462C125.76 68.2733 123.686 69.2343 122.261 67.5907C120.842 65.9537 119.63 64.1311 117.953 65.2114C114.937 67.1466 108.615 63.0508 107.972 67.8293Z" fill="black" stroke="black" stroke-width="0.2" stroke-linecap="round" stroke-linejoin="round"/>
<path d="M117.337 84.9218C117.337 84.9218 116.859 83.2583 117.575 82.2774C118.298 81.2965 119.192 81.9527 119.192 81.9527" stroke="black" stroke-width="0.5" stroke-linecap="round" stroke-linejoin="round"/>
<path d="M118.728 83.8614L117.443 82.4961" stroke="black" stroke-width="0.5" stroke-linecap="round" stroke-linejoin="round"/>
<path fill-rule="evenodd" clip-rule="evenodd" d="M102.862 104.294C102.862 104.294 98.9186 103.784 98.4944 103.379C98.0702 102.975 97.7057 102.08 98.3751 101.444C99.0511 100.808 100.754 99.2702 100.754 99.2702C100.754 99.2702 97.7521 97.0831 96.8375 96.3806C95.9163 95.6781 94.783 94.9955 94.9818 94.3261C95.1873 93.6501 96.7911 94.4918 98.057 95.0021C99.3229 95.5124 102.007 96.7319 102.007 96.7319C102.007 96.7319 102.458 96.1023 103.008 95.9101C103.564 95.7179 103.743 95.9299 103.995 95.7908C104.254 95.6516 104.764 94.9292 105.148 95.1015C105.533 95.2738 105.778 95.4594 106.162 95.2075C106.54 94.9491 107.236 94.9093 107.819 95.3268C108.403 95.7377 111.186 99.7474 111.133 99.4028C111.074 99.0515 102.862 104.294 102.862 104.294Z" fill="white" stroke="black" stroke-width="0.5" stroke-linecap="round" stroke-linejoin="round"/>
<path d="M71.8715 88.8453L90.6871 84.5837" stroke="black" stroke-width="0.5" stroke-linecap="round" stroke-linejoin="round"/>
<path d="M92.5892 83.53L94.4781 84.6501" stroke="black" stroke-width="0.5" stroke-linecap="round" stroke-linejoin="round"/>
<path d="M94.1732 83.1123L92.8477 85.0674" stroke="black" stroke-width="0.5" stroke-linecap="round" stroke-linejoin="round"/>
<path fill-rule="evenodd" clip-rule="evenodd" d="M72.5475 91.5558L74.4828 102.902L84.5368 100.649L82.6413 89.2295L72.5475 91.5558Z" fill="white"/>
<path fill-rule="evenodd" clip-rule="evenodd" d="M85.4249 88.5601L85.6635 89.8061L95.121 87.5792L94.9023 86.2869L85.4249 88.5601Z" fill="white"/>
<path fill-rule="evenodd" clip-rule="evenodd" d="M86.0479 91.7878L86.2864 93.0338L92.6091 91.5492L92.3904 90.2568L86.0479 91.7878Z" fill="white"/>
<path d="M86.7769 95.307L94.5444 93.511" stroke="white" stroke-width="0.5" stroke-linecap="round" stroke-linejoin="round"/>
<path d="M87.2077 97.2754L93.7292 95.7312" stroke="white" stroke-width="0.5" stroke-linecap="round" stroke-linejoin="round"/>
<path d="M87.5324 99.3366L94.9619 97.5869" stroke="white" stroke-width="0.5" stroke-linecap="round" stroke-linejoin="round"/>
<path fill-rule="evenodd" clip-rule="evenodd" d="M80.3018 106.355C80.3018 106.355 78.2207 104.009 77.2862 100.921C76.3518 97.8321 76.1861 95.4396 75.3974 95.6053C74.6021 95.771 74.3436 96.8711 74.3436 98.2165C74.3436 99.5553 74.5292 100.682 74.5292 100.682L70.937 97.6797L70.6388 95.8969C70.6388 95.8969 68.7367 96.5199 68.3788 97.3351C68.0209 98.1503 68.5445 99.6083 68.5445 99.6083C68.5445 99.6083 67.9215 99.953 67.9215 100.801C67.9215 101.656 68.6439 102.418 68.6439 102.418C68.6439 102.418 68.1601 103.055 68.2065 103.638C68.2595 104.228 68.8427 104.897 68.8427 104.897C68.8427 104.897 68.4451 106.892 69.585 107.734C70.725 108.575 74.0122 111.226 74.0122 111.226L80.3018 106.355Z" fill="white" stroke="black" stroke-width="0.5" stroke-linecap="round" stroke-linejoin="round"/>
<path fill-rule="evenodd" clip-rule="evenodd" d="M98.7065 107.668C98.7065 107.668 101.722 102.021 105.486 100.318C106.507 99.8603 108.376 99.3102 110.649 98.7601C110.649 98.7601 111.047 96.2814 112.074 95.8771C113.108 95.4728 122.493 94.0082 122.493 94.0082C122.493 94.0082 125.024 93.4117 125.601 93.9883C126.178 94.5582 126.946 95.7512 126.946 95.7512C127.669 95.665 128.292 95.6054 128.776 95.5789C133.13 95.3403 136.868 96.4869 137.875 103.287C138.757 109.285 137.935 126.437 137.723 130.413H87.6848C81.8592 124.502 78.1147 119.73 72.8458 111.207C73.2832 105.646 79.0226 104.533 80.209 105.56L94.4251 117.821C94.4251 117.821 98.0636 108.695 98.7065 107.668Z" fill="#ED712E"/>
<path d="M92.47 122.917L94.4251 117.821" stroke="black" stroke-width="0.5" stroke-linecap="round" stroke-linejoin="round"/>
<path d="M109.277 116.403L104.393 130.413" stroke="black" stroke-width="0.5" stroke-linecap="round" stroke-linejoin="round"/>
<path d="M74.0587 113.148C74.0587 113.148 74.2111 110.1 76.5506 108.251C78.8968 106.401 81.6406 106.799 81.6406 106.799" stroke="#A94D4D" stroke-width="0.5" stroke-linecap="round" stroke-linejoin="round"/>
<path d="M73.1109 109.722L74.4762 111.259" stroke="#A94D4D" stroke-width="0.5" stroke-linecap="round" stroke-linejoin="round"/>
<path d="M73.8929 108.012L75.404 109.464" stroke="#A94D4D" stroke-width="0.5" stroke-linecap="round" stroke-linejoin="round"/>
<path d="M75.2184 106.574L76.6898 108.145" stroke="#A94D4D" stroke-width="0.5" stroke-linecap="round" stroke-linejoin="round"/>
<path d="M76.8754 105.626L78.2274 107.283" stroke="#A94D4D" stroke-width="0.5" stroke-linecap="round" stroke-linejoin="round"/>
<path d="M78.7642 105.222L80.0035 106.826" stroke="#A94D4D" stroke-width="0.5" stroke-linecap="round" stroke-linejoin="round"/>
<path d="M70.0887 97.0767L70.9371 97.6798" stroke="black" stroke-width="0.5" stroke-linecap="round" stroke-linejoin="round"/>
<path d="M102.789 97.0766L102.007 96.7319" stroke="black" stroke-width="0.5" stroke-linecap="round" stroke-linejoin="round"/>
<path d="M118.483 68.565C118.483 68.565 120.007 68.4324 120.902 69.0223C121.79 69.6121 122.122 70.6991 122.122 70.6991" stroke="white" stroke-width="0.5" stroke-linecap="round" stroke-linejoin="round"/>
<path d="M124.693 79.1755C124.693 79.1755 125.005 80.8722 124.594 81.5946C124.189 82.3104 123.666 82.6219 123.666 82.6219" stroke="white" stroke-width="0.5" stroke-linecap="round" stroke-linejoin="round"/>
<path d="M126.502 80.7397C126.502 80.7397 127.198 79.3744 127.079 78.3737C126.96 77.3663 126.317 76.5378 126.317 76.5378" stroke="white" stroke-width="0.5" stroke-linecap="round" stroke-linejoin="round"/>
<path d="M118.496 70.9176C118.178 70.1157 116.886 69.9036 116.024 70.1157" stroke="white" stroke-width="0.5" stroke-linecap="round" stroke-linejoin="round"/>
<path d="M112.651 98.389C117.9 97.2557 121.651 96.5863 126.946 95.7512" stroke="#A94D4D" stroke-width="0.5" stroke-linecap="round" stroke-linejoin="round"/>
<path fill-rule="evenodd" clip-rule="evenodd" d="M11.1698 94.028C11.1698 94.028 12.555 104.42 16.3857 113.321C18.9505 119.279 22.8409 126.947 25.134 131.374H54.1826L41.239 87.6125L11.1698 94.028Z" fill="black"/>
<path fill-rule="evenodd" clip-rule="evenodd" d="M13.443 50.3194L11.6934 50.0741C11.6934 50.0741 0.631984 55.0117 0.685004 63.2431C0.731397 71.4811 2.07016 75.6896 4.08494 78.8974C6.09308 82.1051 9.06223 83.6891 9.06223 83.6891L9.9702 94.4588C9.9702 94.4588 9.92381 96.9972 11.7663 97.0436C13.6087 97.0966 27.2548 97.1894 34.6777 94.2202C42.1006 91.2511 42.7169 89.9587 42.4783 88.282C42.2397 86.6052 39.4628 76.359 39.4628 76.359C39.4628 76.359 46.1168 73.9201 45.1161 68.2204C44.1087 62.5273 38.7735 53.9778 34.7241 50.8893C30.6813 47.8009 22.536 48.6426 22.536 48.6426C22.536 48.6426 18.1618 52.2082 13.443 50.3194Z" fill="#D7F0F7"/>
<path fill-rule="evenodd" clip-rule="evenodd" d="M23.5832 29.2769C23.5832 29.2769 25.0943 36.6931 25.2269 39.6026C25.3594 42.5187 24.5111 44.6926 23.5037 45.5541C22.4897 46.4223 20.8924 46.6676 20.8924 46.6676L21.4955 48.6161L22.5361 48.6426C22.5361 48.6426 23.3976 53.6596 17.9167 54.3356C12.4357 55.005 11.6934 50.0741 11.6934 50.0741L12.4622 49.6168L11.7464 43.0092C10.7987 42.5717 8.65798 41.4318 8.24044 39.9273C7.69698 37.9855 9.35387 37.4752 9.35387 37.4752C9.35387 37.4752 5.78825 30.0258 13.9799 27.4941C22.1649 24.9623 23.5832 29.2769 23.5832 29.2769Z" fill="white"/>
<path fill-rule="evenodd" clip-rule="evenodd" d="M12.2501 37.3426C12.2965 37.7468 12.3428 38.0981 12.3561 38.3566C12.4158 39.3971 11.8325 39.0856 11.468 38.4361C11.1035 37.7866 10.3281 37.3691 9.35382 37.4751C9.35382 37.4751 7.69693 37.9854 8.24039 39.9273C8.78385 41.8758 11.7464 43.0091 11.7464 43.0091C11.7464 43.0091 11.9054 44.5268 12.0777 46.0975C10.1094 45.2492 7.97529 42.923 5.88761 38.7012C3.79994 34.4795 4.13131 32.3255 5.54961 29.4226C6.9679 26.5131 9.155 25.7245 12.6875 25.0286C16.22 24.3327 20.4417 23.5109 20.4417 23.5109C24.3453 22.9011 25.9691 21.7214 26.6451 22.8216C27.3277 23.9218 25.5847 25.075 25.5847 25.075C25.5847 25.075 27.9441 25.075 28.2158 26.2944C28.4876 27.5139 25.2865 28.3225 25.2865 28.3225C25.2865 28.3225 27.1886 29.2106 26.7511 29.9992C26.3204 30.7813 23.9212 31.0066 23.9212 31.0066C23.9212 31.0066 22.9204 31 21.1376 31.0265C20.4682 31.0331 19.6464 30.9669 18.7583 30.9205C18.8842 31.1392 18.9174 31.4109 18.7186 31.7158C18.1751 32.5641 14.4239 31.8218 14.4239 31.8218C14.4239 31.8218 14.0395 33.598 12.0976 33.3793C11.7928 34.4331 11.9187 35.7917 12.2501 37.3426Z" fill="black" stroke="black" stroke-width="0.2" stroke-linecap="round" stroke-linejoin="round"/>
<path d="M17.5243 37.8994C17.2188 37.9727 16.8871 37.6819 16.7835 37.2499C16.6799 36.818 16.8435 36.4084 17.1491 36.3351C17.4546 36.2618 17.7862 36.5526 17.8898 36.9845C17.9935 37.4165 17.8298 37.8261 17.5243 37.8994Z" fill="black"/>
<path d="M22.9826 36.2654C22.6771 36.3386 22.3454 36.0479 22.2418 35.6159C22.1381 35.1839 22.3018 34.7743 22.6073 34.7011C22.9128 34.6278 23.2445 34.9185 23.3481 35.3505C23.4517 35.7825 23.2881 36.1921 22.9826 36.2654Z" fill="black"/>
<path d="M20.4881 35.8579C20.4881 35.8579 21.8733 38.8271 21.5485 39.5097C21.2171 40.1923 20.2694 40.0465 20.2694 40.0465" stroke="black" stroke-width="0.5" stroke-linecap="round" stroke-linejoin="round"/>
<path d="M9.11523 38.7939C10.5004 38.9663 11.6337 40.2056 11.8325 41.5444" stroke="black" stroke-width="0.5" stroke-linecap="round" stroke-linejoin="round"/>
<path d="M9.91058 40.4709L10.8649 39.7153" stroke="black" stroke-width="0.5" stroke-linecap="round" stroke-linejoin="round"/>
<path d="M17.3665 34.6848C17.3665 34.6848 16.9755 34.6914 16.3591 34.9234C15.7428 35.1554 15.4644 35.4536 15.4644 35.4536" stroke="black" stroke-width="0.5" stroke-linecap="round" stroke-linejoin="round"/>
<path d="M23.1789 33.3595C22.4764 33.2468 21.7672 33.5252 21.1973 33.9162" stroke="black" stroke-width="0.5" stroke-linecap="round" stroke-linejoin="round"/>
<path d="M23.4904 27.5604C22.4035 27.0832 20.793 26.6524 18.7252 26.6392" stroke="white" stroke-width="0.5" stroke-linecap="round" stroke-linejoin="round"/>
<path d="M22.821 24.9556C21.6479 24.8894 20.9056 24.8695 19.5139 25.0617" stroke="white" stroke-width="0.5" stroke-linecap="round" stroke-linejoin="round"/>
<path d="M19.8386 28.74C19.1891 28.455 18.3607 28.1833 17.3533 28.011" stroke="white" stroke-width="0.5" stroke-linecap="round" stroke-linejoin="round"/>
<path d="M9.20802 36.1563C9.14174 35.6327 9.08872 35.0362 9.09535 34.4331C9.09535 34.1481 9.1086 33.8565 9.14174 33.5715" stroke="white" stroke-width="0.5" stroke-linecap="round" stroke-linejoin="round"/>
<path d="M7.88254 35.3743C7.79638 34.6055 7.75661 33.671 7.86265 32.7961" stroke="white" stroke-width="0.5" stroke-linecap="round" stroke-linejoin="round"/>
<path d="M6.27202 35.023C6.20575 34.506 6.17262 33.9626 6.1925 33.4324" stroke="white" stroke-width="0.5" stroke-linecap="round" stroke-linejoin="round"/>
<path d="M20.3357 43.5856C20.7603 43.5856 21.1045 43.1642 21.1045 42.6445C21.1045 42.1247 20.7603 41.7034 20.3357 41.7034C19.9111 41.7034 19.5669 42.1247 19.5669 42.6445C19.5669 43.1642 19.9111 43.5856 20.3357 43.5856Z" fill="black" stroke="black" stroke-width="0.5" stroke-linecap="round" stroke-linejoin="round"/>
<path d="M21.4491 41.5312C20.9322 41.4517 20.3026 41.6041 20.0375 41.7764" stroke="black" stroke-width="0.5" stroke-linecap="round" stroke-linejoin="round"/>
<path fill-rule="evenodd" clip-rule="evenodd" d="M12.1639 64.3961L10.5799 72.7733C10.5799 72.7733 8.85677 73.4692 8.06809 73.6614C7.27941 73.8536 7.04082 73.3632 7.04082 73.3632C7.04082 73.3632 6.42445 73.5156 6.17261 73.1909C5.92739 72.8728 5.99366 72.2233 5.99366 72.2233C5.99366 72.2233 5.56287 72.0708 5.4966 71.5671C5.42369 71.0634 5.62252 70.3808 5.62252 70.3808C5.62252 70.3808 5.05255 68.1075 7.2529 66.1657C9.45325 64.2304 12.1639 64.3961 12.1639 64.3961Z" fill="white"/>
<path d="M9.70511 70.9443C9.70511 70.9443 8.42599 71.6734 7.9223 72.1969C7.4186 72.7271 7.04083 73.3634 7.04083 73.3634" stroke="black" stroke-width="0.5" stroke-linecap="round" stroke-linejoin="round"/>
<path d="M9.89728 68.3462C9.89728 68.3462 8.51212 69.221 7.63728 70.0694C6.76245 70.9177 5.99365 72.2233 5.99365 72.2233" stroke="black" stroke-width="0.5" stroke-linecap="round" stroke-linejoin="round"/>
<path d="M9.97023 66.3911C9.97023 66.3911 8.81041 66.6562 7.73012 67.5774C6.65646 68.4987 5.62256 70.3809 5.62256 70.3809" stroke="black" stroke-width="0.5" stroke-linecap="round" stroke-linejoin="round"/>
<path d="M39.4628 76.3589C39.4628 76.3589 36.1225 77.6911 30.9994 77.5983C25.883 77.4989 21.3166 75.5371 21.3166 75.5371" stroke="black" stroke-width="0.5" stroke-linecap="round" stroke-linejoin="round"/>
<path d="M40.8679 66.3713L22.1318 66.484" stroke="black" stroke-width="0.5" stroke-linecap="round" stroke-linejoin="round"/>
<path d="M33.4449 56.4829L36.4605 66.3977" stroke="black" stroke-width="0.5" stroke-linecap="round" stroke-linejoin="round"/>
<path d="M9.74487 60.698L10.1492 64.648" stroke="black" stroke-width="0.5" stroke-linecap="round" stroke-linejoin="round"/>
<path d="M14.0063 56.231C14.0063 56.231 17.4328 56.8871 19.262 57.3046C21.0912 57.7288 22.3769 58.0734 22.3769 58.0734" stroke="#6CA3B7" stroke-width="0.5" stroke-linecap="round" stroke-linejoin="round"/>
<path d="M15.7759 54.8394L15.4976 56.5228" stroke="#6CA3B7" stroke-width="0.5" stroke-linecap="round" stroke-linejoin="round"/>
<path d="M16.9887 55.0977L16.7435 56.7744" stroke="#6CA3B7" stroke-width="0.5" stroke-linecap="round" stroke-linejoin="round"/>
<path d="M18.3673 55.3828L18.1287 57.0596" stroke="#6CA3B7" stroke-width="0.5" stroke-linecap="round" stroke-linejoin="round"/>
<path d="M19.6796 55.6611L19.4277 57.3445" stroke="#6CA3B7" stroke-width="0.5" stroke-linecap="round" stroke-linejoin="round"/>
<path d="M20.8394 55.9128L20.687 57.6426" stroke="#6CA3B7" stroke-width="0.5" stroke-linecap="round" stroke-linejoin="round"/>
<path d="M33.16 98.4353V102.644L41.2522 131.374" stroke="white" stroke-width="0.5" stroke-linecap="round" stroke-linejoin="round"/>
<path d="M15.5241 99.4163C15.5241 99.4163 16.3128 99.9862 17.5057 100.47C18.7053 100.947 19.832 101.279 19.832 101.279" stroke="white" stroke-width="0.5" stroke-linecap="round" stroke-linejoin="round"/>
<path d="M16.1404 102.074C16.1404 102.074 17.0882 102.63 17.5786 102.816C18.0691 102.995 18.2414 103.114 18.2414 103.114" stroke="white" stroke-width="0.5" stroke-linecap="round" stroke-linejoin="round"/>
<path d="M23.5832 29.2769C23.5832 29.2769 25.0943 36.6931 25.2269 39.6026C25.3594 42.5187 24.5111 44.6925 23.5037 45.5541C22.4897 46.4223 20.8924 46.6675 20.8924 46.6675M12.4622 49.6168L11.7464 43.0091C10.7987 42.5717 8.65798 41.4318 8.24044 39.9273C7.69698 37.9855 9.35387 37.4751 9.35387 37.4751L12.4622 49.6168Z" stroke="black" stroke-width="0.5" stroke-linecap="round" stroke-linejoin="round"/>
<path d="M15.3584 45.1431C15.3584 45.1431 16.2531 46.1306 17.804 46.5083C19.3548 46.8861 20.8924 46.6674 20.8924 46.6674" stroke="black" stroke-width="0.5" stroke-linecap="round" stroke-linejoin="round"/>
<path d="M20.8394 55.3033C23.0464 54.508 24.4978 51.6913 24.4978 48.5432M10.3215 50.7701C10.3215 50.7701 11.2626 54.223 14.1323 55.6811L10.3215 50.7701Z" stroke="#6CA3B7" stroke-width="0.5" stroke-linecap="round" stroke-linejoin="round"/>
<path fill-rule="evenodd" clip-rule="evenodd" d="M15.1927 54.7201L20.6737 55.8666C20.6737 55.8666 20.9123 54.5014 20.9123 54.4218C20.9123 54.3357 23.8483 52.6258 24.0405 51.9895C24.226 51.3533 23.7886 50.8032 23.7886 50.8032C23.7886 50.8032 24.1067 50.2995 23.9543 49.7892C23.7952 49.2722 23.6097 49.1662 23.6097 49.1662C23.6097 49.1662 23.8682 48.5167 23.6097 48.1919C23.3446 47.8738 22.9535 47.781 22.9535 47.781C22.9535 47.781 23.7555 46.6544 23.6494 46.1573C23.5434 45.6536 22.6619 45.9651 22.6619 45.9651L18.6191 47.4894C18.6191 47.4894 17.0219 44.0564 15.8488 44.5335C14.7818 44.9643 16.6507 47.0321 16.6507 48.8083C16.6507 50.5779 15.1927 54.7201 15.1927 54.7201Z" fill="white" stroke="black" stroke-width="0.5" stroke-linecap="round" stroke-linejoin="round"/>
<path d="M10.1028 75.1063L10.5799 72.7734L12.1639 64.3962L14.0064 56.231L14.3908 54.541L15.1927 54.72L20.6737 55.8665L22.3836 56.3636C22.3836 56.3636 22.4565 68.6908 21.1641 76.5445C19.8718 84.3981 15.8223 85.3525 13.5756 85.4254C11.3222 85.4983 9.36047 83.9143 9.36047 83.9143" stroke="black" stroke-width="0.5" stroke-linecap="round" stroke-linejoin="round"/>
<path fill-rule="evenodd" clip-rule="evenodd" d="M22.5957 96.0561L37.4812 100.715L59.4316 90.1708L63.0436 76.5313L64.0311 72.4554L62.6924 71.6733L60.8963 72.4554C56.5221 74.3111 41.7825 80.7531 41.7825 80.7531L40.8745 81.1905C40.6823 82.2178 40.3907 83.1589 40.0858 84.0801L39.2706 87.6855L38.9591 87.8379L22.5957 96.0561Z" fill="#ED712E"/>
<path d="M37.733 99.6747L42.1138 81.8466L63.1497 72.8066" stroke="white" stroke-width="0.5" stroke-linecap="round" stroke-linejoin="round"/>
<path d="M39.0652 88.4211L36.7057 98.6011" stroke="black" stroke-width="0.5" stroke-linecap="round" stroke-linejoin="round"/>
<path d="M33.783 92.053L38.8531 89.3357" stroke="black" stroke-width="0.5" stroke-linecap="round" stroke-linejoin="round"/>
<path d="M36.2087 97.5538L34.4524 97.0037L36.1358 95.9963" stroke="black" stroke-width="0.5" stroke-linecap="round" stroke-linejoin="round"/>
<path d="M33.7167 96.8249L32.1924 96.4074L34.0746 95.3867" stroke="black" stroke-width="0.5" stroke-linecap="round" stroke-linejoin="round"/>
<path d="M31.4037 96.1886L30.0385 95.7644L32.0002 94.7703" stroke="black" stroke-width="0.5" stroke-linecap="round" stroke-linejoin="round"/>
<path d="M36.3942 95.3535L34.8765 94.9293L36.7521 93.9153" stroke="black" stroke-width="0.5" stroke-linecap="round" stroke-linejoin="round"/>
<path d="M34.0878 94.7174L32.7159 94.2932L34.6777 93.2925" stroke="black" stroke-width="0.5" stroke-linecap="round" stroke-linejoin="round"/>
<path d="M36.9841 93.1202L35.6122 92.7027L37.5739 91.7019" stroke="black" stroke-width="0.5" stroke-linecap="round" stroke-linejoin="round"/>
</svg>
