<svg width="143" height="139" viewBox="0 0 143 139" fill="none" xmlns="http://www.w3.org/2000/svg">
<path fill-rule="evenodd" clip-rule="evenodd" d="M0.584839 108.793L105.784 79.3734L108.395 14.1981L1.16806 37.083L0.584839 108.793Z" fill="white"/>
<path fill-rule="evenodd" clip-rule="evenodd" d="M1.16808 37.083L108.395 14.1981L108.919 1.18823L1.28737 22.6217L1.16808 37.083Z" fill="#D7F0F7"/>
<path d="M26.1672 17.6643L1.28736 22.6217L0.584839 108.793L105.784 79.3734L108.919 1.18823L56.5744 11.6134" stroke="black" stroke-width="0.5" stroke-linecap="round" stroke-linejoin="round"/>
<path fill-rule="evenodd" clip-rule="evenodd" d="M97.082 89.5997L97.7845 86.7896L101.317 85.5569L97.082 89.5997Z" fill="black" stroke="black" stroke-width="0.5" stroke-linecap="round" stroke-linejoin="round"/>
<path fill-rule="evenodd" clip-rule="evenodd" d="M10.9636 43.0809L10.5129 78.2798L34.9288 71.6655L36.0422 36.8643L10.9636 43.0809Z" fill="white" stroke="black" stroke-width="0.5" stroke-linecap="round" stroke-linejoin="round"/>
<path fill-rule="evenodd" clip-rule="evenodd" d="M37.6196 89.0498C37.6196 89.0498 37.2153 87.5652 38.0703 84.5828C38.9319 81.6004 39.1837 78.7506 38.4746 78.1673C37.7721 77.5907 35.7772 77.6106 35.7772 77.6106C35.7772 77.6106 33.1725 71.0626 32.0127 69.8498C30.8529 68.6369 30.1437 70.1016 30.7734 71.5928C31.403 73.0774 31.9862 75.6157 32.0989 76.6297C32.2115 77.6371 32.2248 78.5981 32.2248 78.5981C31.0849 77.9751 29.1297 77.8691 28.8447 79.5061C27.3668 78.8632 26.1208 79.7447 25.7497 81.0105C25.7497 81.0105 23.9072 81.1497 23.6289 82.7668C23.3505 84.3773 24.623 87.1211 25.0803 87.5519C25.5376 87.9761 26.2666 87.817 26.2666 87.817C26.2666 87.817 27.7578 92.7413 30.157 92.8672C32.5562 92.9932 37.6196 89.0498 37.6196 89.0498Z" fill="white" stroke="black" stroke-width="0.5" stroke-linecap="round" stroke-linejoin="round"/>
<path d="M36.2212 78.8102L35.7771 77.6106" stroke="black" stroke-width="0.5" stroke-linecap="round" stroke-linejoin="round"/>
<path fill-rule="evenodd" clip-rule="evenodd" d="M113.916 52.1608C119.284 53.1417 122.207 56.4223 122.731 59.8554L122.737 59.862C124.149 65.84 118.661 71.7783 118.661 71.7783L119.264 82.283L107.6 84.3044L107.494 77.5907C107.494 77.5907 103.458 78.2203 102.775 77.5112C102.092 76.8086 102.245 74.8336 102.066 74.383C101.894 73.9257 101.536 73.634 101.536 73.5081C101.536 73.3822 104.087 71.2746 104.087 71.2746C104.087 71.2746 101.774 70.5191 101.35 70.3004C100.919 70.0883 101.496 68.8357 101.496 68.8357C101.496 68.8357 99.0106 68.0802 98.9576 67.7024C98.9112 67.3246 101.648 63.812 101.748 63.2818C102 61.9894 102.119 60.7302 102.238 59.5505C102.298 58.9739 102.357 58.4172 102.43 57.887C103.027 55.3685 105.327 51.0076 113.916 52.1608Z" fill="white" stroke="black" stroke-width="0.5" stroke-linecap="round" stroke-linejoin="round"/>
<path d="M103.582 64.6911C103.915 64.7837 104.273 64.5384 104.383 64.1433C104.493 63.7481 104.313 63.3527 103.981 63.2602C103.649 63.1676 103.29 63.4129 103.18 63.808C103.07 64.2032 103.25 64.5985 103.582 64.6911Z" fill="black"/>
<path d="M103.173 61.5254C103.173 61.5254 103.981 61.6778 104.591 61.8767C105.194 62.0821 105.559 62.261 105.559 62.261" stroke="black" stroke-width="0.5" stroke-linecap="round" stroke-linejoin="round"/>
<path fill-rule="evenodd" clip-rule="evenodd" d="M118.602 50.6033C118.602 50.6033 115.626 46.713 109.058 49.1917C102.49 51.6637 101.774 52.7109 99.6535 53.2411C97.5326 53.7713 97.811 57.0785 100.714 57.887C103.617 58.6956 107.302 57.94 108.163 59.809C109.018 61.678 107.984 63.8253 108.846 64.7333C109.701 65.6413 109.853 65.1641 109.88 66.7547C109.906 68.3453 110.284 68.3917 110.715 67.6892C111.139 66.98 111.974 63.9512 114.526 64.7863C117.077 65.6147 114.93 69.419 113.77 70.4263C112.604 71.4337 112.087 71.4868 112.087 71.4868C112.087 71.4868 112.451 76.2984 113.638 76.7026C114.831 77.1069 115.255 75.4368 116.521 75.7151C117.78 75.9935 119.119 75.9471 119.324 74.6282C119.523 73.316 123.513 69.0478 124.679 65.7672C125.839 62.4865 126.999 52.2337 118.602 50.6033Z" fill="#ED712E"/>
<path fill-rule="evenodd" clip-rule="evenodd" d="M99.5739 86.624C99.5739 86.624 104.975 82.6342 115.838 80.7653C126.694 78.8963 131.645 80.361 135.482 88.8509C139.326 97.3342 134.673 138.385 134.673 138.385H96.4921L96.2933 115.818L90.7328 115.613C90.7328 115.613 91.7468 100.012 93.4633 94.8091C95.1799 89.6064 98.1093 87.585 99.5739 86.624Z" fill="black"/>
<path fill-rule="evenodd" clip-rule="evenodd" d="M101.138 118.277L105.234 114.99C105.234 114.99 111.026 118.33 115.076 118.933C119.125 119.536 115.579 126.204 115.579 126.204C115.579 126.204 104.922 123.526 102.802 121.253C100.681 118.98 101.138 118.277 101.138 118.277Z" fill="white"/>
<path fill-rule="evenodd" clip-rule="evenodd" d="M125.561 43.8299C127.741 44.1016 132.692 44.3932 135.111 41.8548C138.266 38.5411 136.025 34.1802 130.359 33.2921C117.177 31.2375 115.805 41.3777 122.949 43.3792L123.811 46.1495L125.561 43.8299Z" fill="white" stroke="black" stroke-width="0.5" stroke-linecap="round" stroke-linejoin="round"/>
<path fill-rule="evenodd" clip-rule="evenodd" d="M124.136 38.0241C124.52 38.0705 124.785 38.4284 124.739 38.8194C124.686 39.2104 124.334 39.4821 123.957 39.4357C123.572 39.3827 123.307 39.0315 123.354 38.6404C123.407 38.2494 123.758 37.9711 124.136 38.0241ZM131.585 37.8849C131.969 37.9313 132.234 38.2892 132.188 38.6736C132.135 39.0646 131.784 39.343 131.406 39.2899C131.022 39.2435 130.757 38.8857 130.803 38.4946C130.856 38.1102 131.207 37.8319 131.585 37.8849ZM127.781 38.0042C128.165 38.0572 128.43 38.4151 128.384 38.7995C128.331 39.1905 127.98 39.4689 127.602 39.4159C127.217 39.3695 126.952 39.0116 126.999 38.6206C127.052 38.2362 127.403 37.9578 127.781 38.0042Z" fill="black"/>
<path fill-rule="evenodd" clip-rule="evenodd" d="M105.234 114.99C105.181 116.799 104.969 121.346 104.14 125.435C103.08 130.691 100.204 138.385 100.204 138.385H89.8977C89.8977 138.385 92.6283 126.144 92.5752 122.658C92.5289 119.172 92.8271 115.693 92.8271 115.693L96.2933 115.818C96.2933 115.818 98.5997 115.865 100.402 115.666C101.728 115.514 104.074 115.162 105.234 114.99Z" fill="white"/>
<path fill-rule="evenodd" clip-rule="evenodd" d="M121.849 94.6896C117.435 90.1696 108.654 84.3308 102.225 83.9331C101.025 84.4368 99.7662 85.0068 97.7845 86.7896C103.604 87.3198 109.92 91.4951 109.92 91.4951C112.001 92.9068 114.108 94.8089 116.647 97.7449L121.849 94.6896Z" fill="white" stroke="black" stroke-width="0.5" stroke-linecap="round" stroke-linejoin="round"/>
<path fill-rule="evenodd" clip-rule="evenodd" d="M122.273 94.186C122.273 94.186 122.605 86.9885 122.691 85.1924C122.784 83.403 122.187 79.4265 122.187 79.4265C122.187 79.4265 123.818 79.0951 125.733 79.4662C127.655 79.8307 128.55 80.4471 128.55 80.4471C128.55 80.4471 129.173 85.1858 129.067 88.8442C128.967 92.5092 128.894 93.5696 128.894 93.5696L122.273 94.186Z" fill="white" stroke="black" stroke-width="0.5" stroke-linecap="round" stroke-linejoin="round"/>
<path d="M114.168 65.6543C114.168 65.6543 112.942 65.7139 112.339 67.4305C111.729 69.1536 112.06 70.4791 112.06 70.4791" stroke="black" stroke-width="0.5" stroke-linecap="round" stroke-linejoin="round"/>
<path d="M114.102 68.2724L112.339 67.4307" stroke="black" stroke-width="0.5" stroke-linecap="round" stroke-linejoin="round"/>
<path d="M103.391 96.4128C103.391 96.4128 104.604 99.9983 105.062 103.968C105.512 107.932 105.771 113.863 105.771 113.863" stroke="white" stroke-width="0.5" stroke-linecap="round" stroke-linejoin="round"/>
<path d="M14.4298 49.5429L22.4558 47.4751" stroke="black" stroke-width="0.5" stroke-linecap="round" stroke-linejoin="round"/>
<path d="M14.3701 57.8737L22.0846 55.8125" stroke="black" stroke-width="0.5" stroke-linecap="round" stroke-linejoin="round"/>
<path d="M14.2045 62.1683L22.2569 60.0608" stroke="black" stroke-width="0.5" stroke-linecap="round" stroke-linejoin="round"/>
<path d="M14.1249 66.801L22.078 64.488" stroke="black" stroke-width="0.5" stroke-linecap="round" stroke-linejoin="round"/>
<path d="M14.0321 71.8113L21.9852 69.4121" stroke="black" stroke-width="0.5" stroke-linecap="round" stroke-linejoin="round"/>
<path d="M26.9824 53.8972L28.573 55.6867L32.0591 51.0408" stroke="black" stroke-width="0.5" stroke-linecap="round" stroke-linejoin="round"/>
<path d="M27.2342 58.51L28.8248 60.3061L32.3109 55.6602" stroke="black" stroke-width="0.5" stroke-linecap="round" stroke-linejoin="round"/>
<path d="M27.2144 62.8511L28.805 64.6471L32.2844 60.0012" stroke="black" stroke-width="0.5" stroke-linecap="round" stroke-linejoin="round"/>
<path d="M26.8167 67.636L28.4073 69.4321L31.8934 64.7795" stroke="black" stroke-width="0.5" stroke-linecap="round" stroke-linejoin="round"/>
<path d="M32.6092 41.7157C30.6408 38.826 26.6377 41.9542 26.3064 45.7253C25.637 53.4067 34.9421 49.397 32.7749 42.9815" stroke="black" stroke-width="0.5" stroke-linecap="round" stroke-linejoin="round"/>
<path d="M28.2615 48.3036L30.2365 42.2659L31.118 47.0112" stroke="black" stroke-width="0.5" stroke-linecap="round" stroke-linejoin="round"/>
<path d="M28.288 46.0038L31.5488 44.718" stroke="black" stroke-width="0.5" stroke-linecap="round" stroke-linejoin="round"/>
<path d="M25.4382 84.417L26.2666 87.8169" stroke="black" stroke-width="0.5" stroke-linecap="round" stroke-linejoin="round"/>
<path d="M24.782 85.0068L25.8557 86.1136" stroke="black" stroke-width="0.5" stroke-linecap="round" stroke-linejoin="round"/>
<path fill-rule="evenodd" clip-rule="evenodd" d="M42.6631 35.8835L42.2191 70.4793L66.582 64.2163L67.7418 29.6669L42.6631 35.8835Z" fill="white" stroke="black" stroke-width="0.5" stroke-linecap="round" stroke-linejoin="round"/>
<path d="M46.1294 42.3454L54.162 40.2776" stroke="black" stroke-width="0.5" stroke-linecap="round" stroke-linejoin="round"/>
<path d="M46.0697 50.6762L53.7842 48.615" stroke="black" stroke-width="0.5" stroke-linecap="round" stroke-linejoin="round"/>
<path d="M45.904 54.9708L53.9631 52.8633" stroke="black" stroke-width="0.5" stroke-linecap="round" stroke-linejoin="round"/>
<path d="M45.8245 59.6035L53.7776 57.2905" stroke="black" stroke-width="0.5" stroke-linecap="round" stroke-linejoin="round"/>
<path d="M45.7317 64.6138L53.6848 62.2146" stroke="black" stroke-width="0.5" stroke-linecap="round" stroke-linejoin="round"/>
<path d="M58.9338 51.3123L60.531 53.1083L64.0105 48.4558" stroke="black" stroke-width="0.5" stroke-linecap="round" stroke-linejoin="round"/>
<path d="M58.9139 55.6536L60.5046 57.4496L63.9907 52.8037" stroke="black" stroke-width="0.5" stroke-linecap="round" stroke-linejoin="round"/>
<path d="M58.5163 60.4385L60.1069 62.2279L63.5929 57.582" stroke="black" stroke-width="0.5" stroke-linecap="round" stroke-linejoin="round"/>
<path d="M64.3087 34.5181C62.3404 31.6285 58.3373 34.7567 58.0126 38.5278C57.3366 46.2025 66.6416 42.1995 64.4744 35.784" stroke="#ED712E" stroke-width="0.5" stroke-linecap="round" stroke-linejoin="round"/>
<path fill-rule="evenodd" clip-rule="evenodd" d="M74.3694 28.6859L73.5741 62.6256L98.0032 56.389L99.4414 22.4692L74.3694 28.6859Z" fill="white" stroke="black" stroke-width="0.5" stroke-linecap="round" stroke-linejoin="round"/>
<path d="M77.8289 35.1478L85.8615 33.08" stroke="black" stroke-width="0.5" stroke-linecap="round" stroke-linejoin="round"/>
<path d="M77.7693 43.4787L85.4837 41.4175" stroke="black" stroke-width="0.5" stroke-linecap="round" stroke-linejoin="round"/>
<path d="M77.6036 47.7733L85.6627 45.6658" stroke="black" stroke-width="0.5" stroke-linecap="round" stroke-linejoin="round"/>
<path d="M77.5241 52.406L85.4771 50.093" stroke="black" stroke-width="0.5" stroke-linecap="round" stroke-linejoin="round"/>
<path d="M77.4313 57.4163L85.3843 55.0171" stroke="black" stroke-width="0.5" stroke-linecap="round" stroke-linejoin="round"/>
<path d="M90.3882 39.502L91.9788 41.2914L95.4649 36.6455" stroke="black" stroke-width="0.5" stroke-linecap="round" stroke-linejoin="round"/>
<path d="M90.64 44.1148L92.2306 45.9108L95.7167 41.2583" stroke="black" stroke-width="0.5" stroke-linecap="round" stroke-linejoin="round"/>
<path d="M90.2158 53.241L91.8064 55.0304L95.2925 50.3845" stroke="black" stroke-width="0.5" stroke-linecap="round" stroke-linejoin="round"/>
<path d="M96.0083 27.3206C94.0399 24.431 90.0369 27.5592 89.7121 31.3303C89.0361 39.005 98.3412 34.9953 96.174 28.5865" stroke="#ED712E" stroke-width="0.5" stroke-linecap="round" stroke-linejoin="round"/>
<path fill-rule="evenodd" clip-rule="evenodd" d="M73.6536 59.6962C73.6536 59.6962 68.6299 59.0401 66.529 62.0755C64.4347 65.1043 63.2483 69.346 63.2483 69.346C63.2483 69.346 59.7755 72.0699 59.7092 72.4675C59.6496 72.8586 62.1018 74.4624 62.1018 74.4624C62.1018 74.4624 61.5318 76.961 61.618 76.9743C61.7107 76.9875 65.0908 77.7298 65.0908 77.7298C65.0908 77.7298 62.3536 79.3867 62.2277 79.5126C62.1018 79.6385 62.4663 80.4935 62.6518 80.6857C62.844 80.8713 61.5914 84.8147 63.7653 84.9671C65.9391 85.1195 67.8346 85.4443 67.8346 85.4443L67.8081 93.225L78.6176 90.4481L77.3054 80.699C89.2681 73.0176 86.7032 61.4658 73.6536 59.6962Z" fill="white" stroke="black" stroke-width="0.5" stroke-linecap="round" stroke-linejoin="round"/>
<path d="M65.5309 71.2001C65.8631 71.2927 66.2216 71.0474 66.3318 70.6523C66.4419 70.2571 66.2619 69.8618 65.9298 69.7692C65.5976 69.6766 65.2391 69.9219 65.1289 70.317C65.0188 70.7122 65.1988 71.1076 65.5309 71.2001Z" fill="black"/>
<path d="M65.3956 67.7024C65.3956 67.7024 66.0783 67.888 66.6549 68.3188C67.2381 68.7495 67.6689 69.1406 67.6689 69.1406" stroke="black" stroke-width="0.5" stroke-linecap="round" stroke-linejoin="round"/>
<path d="M74.0181 77.7763C74.0181 77.7763 73.6668 76.6165 74.323 75.0457C74.9791 73.4816 76.5432 73.5346 76.5432 73.5346" stroke="black" stroke-width="0.5" stroke-linecap="round" stroke-linejoin="round"/>
<path d="M75.834 76.0332L74.5085 74.6746" stroke="black" stroke-width="0.5" stroke-linecap="round" stroke-linejoin="round"/>
<path fill-rule="evenodd" clip-rule="evenodd" d="M54.374 125.455L52.2465 138.385H92.6547L92.4559 128.232C92.4559 128.232 94.3249 124.547 94.981 121.565C95.6371 118.582 95.1798 99.9985 91.8462 93.7355C88.5125 87.4724 82.6537 86.9157 77.1462 88.228C73.2956 89.1492 65.6673 91.8068 61.4456 93.3113C59.1326 94.1331 55.2024 97.1619 55.1825 97.1752C54.6258 97.7186 54.0161 98.3549 53.36 99.0905C50.3312 102.471 46.5667 107.348 46.5667 107.348L45.5394 108.734L38.0172 88.3937C38.0172 88.3937 34.5112 88.3406 31.7276 89.7059C28.9507 91.0712 27.592 93.9475 27.592 93.9475C27.7842 94.6037 28.0096 95.4652 28.2681 96.4859C28.9507 99.1833 29.8587 102.994 30.9986 107.063C32.0921 110.854 37.0363 126.913 43.0475 127.755C49.8672 128.716 54.9174 121.995 54.9174 121.995L54.533 124.302L54.374 125.455Z" fill="#D7F0F7"/>
<path d="M42.2324 113.207L45.5395 108.733" stroke="black" stroke-width="0.5" stroke-linecap="round" stroke-linejoin="round"/>
<path d="M28.2681 96.4857C28.2681 96.4857 30.2961 93.2316 33.5039 91.9724C36.0356 90.9716 38.1365 90.7927 38.9053 90.7595" stroke="#6CA3B7" stroke-width="0.5" stroke-linecap="round" stroke-linejoin="round"/>
<path d="M30.3292 90.594L31.2173 93.2914" stroke="#6CA3B7" stroke-width="0.5" stroke-linecap="round" stroke-linejoin="round"/>
<path d="M32.1187 89.5269L33.2322 92.0785" stroke="#6CA3B7" stroke-width="0.5" stroke-linecap="round" stroke-linejoin="round"/>
<path d="M34.0473 88.884L35.1674 91.4025" stroke="#6CA3B7" stroke-width="0.5" stroke-linecap="round" stroke-linejoin="round"/>
<path d="M36.0953 88.5195L37.1093 90.9585" stroke="#6CA3B7" stroke-width="0.5" stroke-linecap="round" stroke-linejoin="round"/>
<path d="M28.7188 92.2175L29.4478 94.9547" stroke="#6CA3B7" stroke-width="0.5" stroke-linecap="round" stroke-linejoin="round"/>
<path d="M91.084 100.621C92.4891 110.317 92.6017 119.921 92.4559 128.232" stroke="black" stroke-width="0.5" stroke-linecap="round" stroke-linejoin="round"/>
<path d="M61.0811 115.825L54.9175 121.995" stroke="black" stroke-width="0.5" stroke-linecap="round" stroke-linejoin="round"/>
<path fill-rule="evenodd" clip-rule="evenodd" d="M64.9317 58.9805C64.9317 58.9805 63.0826 59.2589 63.7653 60.7434C64.4479 62.2346 68.0599 62.4401 70.0283 64.203C70.4392 64.5675 70.817 64.9586 71.1484 65.3496C70.6447 65.3628 70.1277 65.5219 70.0217 66.0587C69.7897 67.1655 72.3943 68.0006 72.6197 68.7296C72.6462 68.8158 72.6926 68.8622 72.7522 68.8688C72.7522 69.2134 72.6859 69.5514 72.5534 69.8629C71.8509 71.5265 71.4665 72.4145 71.9967 73.0972C72.5335 73.7798 72.2286 74.1576 72.5335 74.3829C72.8318 74.6083 73.3156 72.3151 75.7346 72.3151C78.1603 72.3151 78.3392 74.4823 77.3783 76.6032C76.4173 78.724 73.9187 79.1548 73.9187 79.1548C73.9187 79.1548 74.1705 82.5017 74.661 83.8669C75.158 85.2322 76.2184 85.1262 76.6824 84.5231C77.1529 83.9133 77.9482 85.1262 78.7435 84.6888C79.5388 84.2447 79.234 81.9847 83.0713 79.3602C86.9087 76.7291 90.5472 69.0014 87.7702 63.4475C84.9933 57.8936 77.597 56.3494 74.661 54.2816C71.7316 52.2072 70.9296 51.4516 69.8692 52.2337C68.8022 53.0157 68.8287 54.8847 68.8287 54.8847C68.8287 54.8847 65.1703 53.6984 64.3087 55.2426C63.4538 56.7802 64.9317 58.9805 64.9317 58.9805Z" fill="black" stroke="black" stroke-width="0.2" stroke-linecap="round" stroke-linejoin="round"/>
<path fill-rule="evenodd" clip-rule="evenodd" d="M60.0605 36.3407L60.5111 40.7812C60.5111 40.7812 63.0362 40.2046 63.1423 38.7863C63.2417 37.3746 60.816 38.2561 60.816 38.2561C60.816 38.2561 62.632 37.8054 62.5325 36.3871C62.4331 34.9754 60.0605 36.3407 60.0605 36.3407Z" stroke="#ED712E" stroke-width="0.5" stroke-linecap="round" stroke-linejoin="round"/>
<path fill-rule="evenodd" clip-rule="evenodd" d="M91.7269 29.0902L92.1776 33.5372C92.1776 33.5372 94.7027 32.954 94.8087 31.5424C94.9081 30.1241 92.4825 31.0121 92.4825 31.0121C92.4825 31.0121 94.2984 30.5548 94.199 29.1432C94.0996 27.7249 91.7269 29.0902 91.7269 29.0902Z" stroke="#ED712E" stroke-width="0.5" stroke-linecap="round" stroke-linejoin="round"/>
<path d="M59.1658 45.752L62.062 47.9854" stroke="black" stroke-width="0.5" stroke-linecap="round" stroke-linejoin="round"/>
<path d="M59.2188 48.8468L61.8764 45.0625" stroke="black" stroke-width="0.5" stroke-linecap="round" stroke-linejoin="round"/>
<path d="M90.9912 47.7932L93.8875 50.0333" stroke="black" stroke-width="0.5" stroke-linecap="round" stroke-linejoin="round"/>
<path d="M91.0443 50.8883L93.702 47.104" stroke="black" stroke-width="0.5" stroke-linecap="round" stroke-linejoin="round"/>
<path fill-rule="evenodd" clip-rule="evenodd" d="M17.6177 28.7655C16.6567 28.9643 15.6957 29.1631 14.7479 29.3619C14.5557 29.7994 14.3768 30.2368 14.1978 30.6742C13.7008 30.7736 13.217 30.873 12.7332 30.9791C13.1905 29.9518 13.6544 28.9245 14.1117 27.8972C14.5756 26.8766 15.0329 25.8493 15.4902 24.8221C15.9608 24.7226 16.4313 24.6232 16.9085 24.5305C17.3658 25.3655 17.8231 26.194 18.287 27.029C18.7443 27.8641 19.2083 28.6992 19.6722 29.5343C19.1751 29.6337 18.6714 29.7397 18.1677 29.8457C17.9822 29.4879 17.8032 29.1233 17.6177 28.7655ZM17.167 27.8774C17.0013 27.5592 16.829 27.2345 16.6765 26.9097C16.5175 26.585 16.3452 26.2669 16.1927 25.9421C16.027 26.3331 15.8614 26.7242 15.6957 27.1152C15.5366 27.5062 15.3709 27.8972 15.2052 28.2816C15.8547 28.1491 16.5109 28.0099 17.167 27.8774ZM25.9949 22.6283C25.9949 23.5628 25.9949 24.4907 25.9949 25.4252C25.9949 26.353 25.9949 27.2809 25.9949 28.2154C25.6039 28.2949 25.2062 28.3744 24.8218 28.4606C24.3049 28.0033 23.7813 27.546 23.271 27.0887C22.7606 26.6314 22.2437 26.1741 21.7334 25.7168C21.7334 26.2801 21.7334 26.8435 21.7334 27.4068C21.7334 27.9701 21.7334 28.5335 21.7334 29.1035C21.2562 29.2029 20.7923 29.2957 20.3217 29.3951C20.3217 28.4672 20.3217 27.5327 20.3217 26.6049C20.3217 25.677 20.3217 24.7425 20.3217 23.8147C20.7194 23.7285 21.1104 23.649 21.508 23.5695C22.0117 24.0268 22.5287 24.4841 23.039 24.948C23.5493 25.3987 24.0663 25.856 24.5832 26.3133C24.5832 25.7499 24.5832 25.1866 24.5832 24.6232C24.5832 24.0533 24.5832 23.4899 24.5832 22.9266C25.0538 22.8272 25.5177 22.7278 25.9949 22.6283ZM33.1526 21.1371C33.1526 22.0716 33.1526 22.9995 33.1526 23.9273C33.1526 24.8618 33.1526 25.7897 33.1526 26.7242C32.755 26.8037 32.364 26.8832 31.9663 26.9694C31.4494 26.5121 30.9324 26.0548 30.4221 25.5975C29.9118 25.1402 29.3948 24.6829 28.8911 24.219C28.8911 24.7889 28.8911 25.3523 28.8911 25.9156C28.8911 26.4789 28.8911 27.0423 28.8911 27.6123C28.4139 27.7117 27.9368 27.8111 27.4662 27.9039C27.4662 26.976 27.4662 26.0482 27.4662 25.1137C27.4662 24.1858 27.4662 23.258 27.4662 22.3235C27.8639 22.2439 28.2549 22.1644 28.6592 22.0783C29.1695 22.5356 29.6732 22.9929 30.1835 23.4568C30.6938 23.9141 31.2108 24.3714 31.7277 24.8287C31.7277 24.2587 31.7277 23.6954 31.7277 23.132C31.7277 22.5687 31.7277 21.9987 31.7277 21.4354C32.1983 21.3426 32.6755 21.2366 33.1526 21.1371ZM37.6196 25.8825C36.9701 26.015 36.3935 26.015 35.8766 25.8758C35.3596 25.73 34.9553 25.4716 34.6703 25.0938C34.5245 24.9016 34.4052 24.6961 34.3323 24.4642C34.2594 24.2322 34.2263 23.9804 34.2263 23.7086C34.2263 23.4369 34.2594 23.1652 34.3323 22.9067C34.4052 22.6416 34.5245 22.3898 34.6703 22.1379C34.962 21.6408 35.3596 21.21 35.8766 20.8522C36.3935 20.4943 36.9701 20.2491 37.6196 20.1099C38.2558 19.9773 38.8324 19.984 39.3494 20.1231C39.8597 20.2689 40.2706 20.5274 40.5556 20.9052C40.7014 21.0974 40.8141 21.3095 40.887 21.5414C40.9599 21.7668 40.9997 22.0186 40.9997 22.297C40.9997 22.5687 40.9599 22.8338 40.887 23.0989C40.8141 23.3574 40.7014 23.6158 40.5556 23.8677C40.2706 24.3648 39.8597 24.7956 39.3494 25.1534C38.8324 25.5113 38.2558 25.7499 37.6196 25.8825ZM37.6196 24.7823C37.9775 24.7094 38.3155 24.5636 38.6005 24.3515C38.8987 24.1394 39.1373 23.8809 39.303 23.5761C39.4621 23.2712 39.5548 22.9398 39.5548 22.5952C39.5548 22.2506 39.4687 21.959 39.303 21.727C39.1373 21.4884 38.8987 21.3293 38.6005 21.2366C38.3155 21.1438 37.9775 21.1371 37.6196 21.2167C37.2485 21.2896 36.9171 21.4354 36.6255 21.6475C36.3272 21.8595 36.1019 22.118 35.9362 22.4229C35.7639 22.7344 35.6777 23.0591 35.6777 23.4038C35.6777 23.7484 35.7639 24.04 35.9362 24.2786C36.1019 24.5106 36.3272 24.6763 36.6255 24.769C36.9171 24.8552 37.2485 24.8618 37.6196 24.7823ZM44.837 24.378C43.9489 24.5636 43.2597 24.4907 42.7692 24.1527C42.524 23.9804 42.3318 23.755 42.2059 23.4634C42.0866 23.1784 42.0269 22.8272 42.0269 22.4163C42.0269 21.8927 42.0269 21.3757 42.0269 20.8522C42.0269 20.3352 42.0269 19.8116 42.0269 19.2881C42.5041 19.1886 42.9813 19.0892 43.4651 18.9898C43.4651 19.5068 43.4651 20.0171 43.4651 20.5274C43.4651 21.0444 43.4651 21.5547 43.4651 22.065C43.4651 22.5687 43.5778 22.92 43.8097 23.1188C44.0417 23.3242 44.3863 23.3706 44.8436 23.2778C45.2877 23.1851 45.6323 22.9929 45.8709 22.7012C46.1095 22.4096 46.2222 22.0054 46.2222 21.495C46.2222 20.9781 46.2222 20.4678 46.2222 19.9574C46.2222 19.4405 46.2222 18.9302 46.2222 18.4132C46.6927 18.3204 47.1633 18.221 47.6405 18.1216C47.6405 18.6452 47.6405 19.1621 47.6405 19.6857C47.6405 20.2027 47.6405 20.7262 47.6405 21.2432C47.6405 21.6541 47.5742 22.0319 47.4483 22.3699C47.329 22.7079 47.1434 23.0194 46.8982 23.2911C46.4077 23.8346 45.7251 24.1924 44.837 24.378ZM54.7319 16.637C54.7319 17.5715 54.7319 18.4994 54.7319 19.4339C54.7319 20.3617 54.7319 21.2962 54.7319 22.2241C54.3409 22.3036 53.9433 22.3898 53.5589 22.4693C53.0419 22.012 52.5183 21.5547 52.008 21.0974C51.4977 20.6401 50.9807 20.1828 50.4704 19.7188C50.4704 20.2888 50.4704 20.8522 50.4704 21.4155C50.4704 21.9855 50.4704 22.5488 50.4704 23.1122C49.9932 23.2116 49.5293 23.311 49.0588 23.4038C49.0588 22.4759 49.0588 21.5481 49.0588 20.6136C49.0588 19.6857 49.0588 18.7579 49.0588 17.8234C49.4498 17.7438 49.8474 17.6577 50.2385 17.5782C50.7488 18.0355 51.2657 18.4928 51.7761 18.9567C52.2864 19.414 52.8033 19.8647 53.3203 20.322C53.3203 19.7586 53.3203 19.1953 53.3203 18.6319C53.3203 18.0686 53.3203 17.4986 53.3203 16.9353C53.7908 16.8359 54.2548 16.7431 54.7319 16.637ZM59.1658 21.389C58.5362 21.5215 57.9662 21.5215 57.4492 21.3824C56.9389 21.2432 56.5479 20.9781 56.2496 20.6003C56.1038 20.4147 55.9912 20.2027 55.9249 19.9707C55.8586 19.7321 55.8189 19.4803 55.8189 19.2085C55.8189 18.9302 55.8586 18.6584 55.9249 18.4C55.9912 18.1349 56.1038 17.8764 56.2496 17.6312C56.5479 17.1275 56.9389 16.7033 57.4492 16.3521C57.9662 15.9942 58.5362 15.7556 59.179 15.6164C59.7092 15.5104 60.193 15.4905 60.6305 15.57C61.0679 15.6495 61.4258 15.8219 61.724 16.0737C61.4125 16.3984 61.1076 16.7166 60.8028 17.0347C60.3852 16.6834 59.8683 16.5774 59.2519 16.7033C58.8609 16.7828 58.5229 16.9353 58.2247 17.1474C57.9198 17.3661 57.6812 17.6245 57.5155 17.9294C57.3498 18.2343 57.2637 18.559 57.2637 18.9037C57.2637 19.2483 57.3564 19.5399 57.5155 19.7785C57.6812 20.0105 57.9198 20.1762 58.2247 20.2623C58.5163 20.3485 58.8609 20.3551 59.2519 20.2756C59.8683 20.143 60.3852 19.8183 60.8028 19.2881C61.1076 19.4803 61.4125 19.6725 61.724 19.8647C61.4258 20.2491 61.0679 20.5738 60.6305 20.8323C60.193 21.0908 59.7026 21.283 59.1658 21.389ZM67.49 18.5259C67.49 18.8705 67.49 19.2152 67.49 19.5598C65.8861 19.8978 64.2822 20.2292 62.6916 20.5605C62.6916 19.6327 62.6916 18.7048 62.6916 17.7703C62.6916 16.8425 62.6916 15.9146 62.6916 14.9802C64.2491 14.6554 65.8132 14.3307 67.3707 14.0059C67.3707 14.3505 67.3707 14.7018 67.3707 15.0398C66.2771 15.2718 65.1968 15.4971 64.1099 15.7224C64.1099 16.1267 64.1099 16.531 64.1099 16.9353C65.0643 16.7365 66.0253 16.5376 66.9863 16.3322C66.9863 16.6702 66.9863 17.0016 66.9863 17.3396C66.0253 17.5384 65.0643 17.7438 64.1099 17.9427C64.1099 18.3735 64.1099 18.7976 64.1099 19.2284C65.2366 18.9964 66.3633 18.7645 67.49 18.5259ZM74.2633 18.1481C74.2567 17.5914 74.2567 17.0347 74.2567 16.478C74.2567 15.9213 74.2567 15.3645 74.2567 14.8012C73.9518 15.3314 73.647 15.8484 73.3421 16.3719C73.0372 16.8955 72.7324 17.4191 72.4341 17.9427C72.2088 17.9891 71.9967 18.0355 71.7846 18.0752C71.4798 17.6974 71.1683 17.313 70.87 16.922C70.5784 16.5376 70.2603 16.1532 69.9687 15.7688C69.9687 16.3123 69.9687 16.8624 69.9687 17.4058C69.9687 17.9559 69.9687 18.4994 69.9687 19.0428C69.518 19.1423 69.0673 19.235 68.6233 19.3278C68.6233 18.4 68.6233 17.4655 68.6233 16.5376C68.6233 15.6031 68.6233 14.6753 68.6233 13.7474C69.0143 13.6613 69.412 13.5817 69.8096 13.4956C70.194 13.9993 70.585 14.4963 70.9694 14.9868C71.3538 15.4905 71.7382 15.9875 72.1293 16.4846C72.507 15.8285 72.8848 15.1724 73.2626 14.5162C73.6403 13.8535 74.0247 13.1973 74.4091 12.5412C74.7935 12.4551 75.1912 12.3755 75.5822 12.296C75.5822 13.2239 75.5822 14.1517 75.5822 15.0862C75.5822 16.014 75.5955 16.9419 75.6021 17.8698C75.1514 17.9625 74.7074 18.062 74.2633 18.1481ZM81.8651 15.5302C81.8651 15.8749 81.8651 16.2195 81.8651 16.5641C80.2679 16.9021 78.664 17.2335 77.0734 17.5649C77.0734 16.637 77.0734 15.7026 77.0734 14.7747C77.0734 13.8468 77.0734 12.9124 77.0734 11.9845C78.6309 11.6597 80.195 11.3284 81.7525 11.0036C81.7525 11.3549 81.7525 11.6995 81.7525 12.0441C80.6655 12.2695 79.5853 12.4948 78.4983 12.7202C78.4983 13.1311 78.4983 13.5287 78.4983 13.933C79.4527 13.7342 80.4137 13.5353 81.3747 13.3365C81.3747 13.6679 81.3747 14.0059 81.3747 14.3439C80.4137 14.5427 79.4527 14.7416 78.4983 14.9404C78.4983 15.3712 78.4983 15.802 78.4983 16.2328C79.6184 16.0008 80.7451 15.7622 81.8651 15.5302ZM88.6915 9.55882C88.6915 10.4933 88.6915 11.4212 88.6915 12.3556C88.6915 13.2835 88.6915 14.2114 88.6915 15.1458C88.3005 15.2254 87.9028 15.3049 87.5118 15.3911C86.9949 14.9338 86.4647 14.4765 85.9543 14.0192C85.4506 13.5619 84.9337 13.1046 84.4234 12.6406C84.4234 13.2106 84.4234 13.7739 84.4234 14.3373C84.4234 14.9072 84.4234 15.4706 84.4234 16.0339C83.9462 16.1333 83.4756 16.2328 83.0117 16.3255C83.0117 15.3977 83.0117 14.4698 83.0117 13.5353C83.0117 12.6075 83.0117 11.6796 83.0117 10.7451C83.4027 10.6656 83.8004 10.5795 84.1914 10.4999C84.7017 10.9572 85.2187 11.4145 85.729 11.8718C86.2393 12.3291 86.7563 12.7864 87.2732 13.2504C87.2732 12.6804 87.2732 12.117 87.2732 11.5537C87.2732 10.9904 87.2732 10.4204 87.2732 9.85706C87.7371 9.75764 88.2143 9.65823 88.6915 9.55882ZM91.4419 10.0426C90.7792 10.1752 90.1098 10.3144 89.4537 10.4535C89.4537 10.1023 89.4537 9.75764 89.4537 9.39975C91.2564 9.02861 93.0524 8.65084 94.8618 8.27307C94.8618 8.63096 94.8618 8.97559 94.8618 9.32685C94.1924 9.46603 93.5296 9.60521 92.8735 9.74439C92.8735 10.4999 92.8735 11.2555 92.8735 12.0044C92.8735 12.7599 92.8735 13.5155 92.8735 14.271C92.3963 14.3704 91.9191 14.4698 91.4419 14.5692C91.4419 13.8137 91.4419 13.0582 91.4419 12.3092C91.4419 11.5537 91.4419 10.7982 91.4419 10.0426Z" fill="black"/>
<path d="M65.4619 91.8995C69.0077 92.6021 78.7038 91.197 79.8039 87.7573" stroke="#6CA3B7" stroke-width="0.5" stroke-linecap="round" stroke-linejoin="round"/>
<path fill-rule="evenodd" clip-rule="evenodd" d="M112.816 119.006C112.816 119.006 112.107 108.349 112.915 103.2C113.724 98.05 114.433 96.5853 117.515 94.9682C120.597 93.3511 128.881 90.879 132.665 93.0462C136.456 95.22 137.716 100.071 138.12 103.001C138.524 105.93 138.802 108.985 138.802 108.985C138.802 108.985 141.175 110.324 141.931 113.578C142.693 116.839 142.666 126.966 137.112 131.208C131.552 135.449 121.809 137.219 117.515 134.236C115.732 132.997 114.546 131.632 113.75 130.286C113.697 130.194 113.644 130.101 113.578 129.995C113.412 129.69 113.26 129.385 113.127 129.087C111.974 126.21 111.981 121.054 112.027 119.092L112.816 119.006Z" fill="#ED712E"/>
<path d="M133.215 93.3906C133.666 94.0998 134.143 95.0674 134.521 96.3399C135.528 99.7796 135.177 107.328 135.177 107.328C135.177 107.328 132.148 108.389 128.914 109.502C125.68 110.609 122.121 111.139 121.796 110.914C121.465 110.689 120.099 103.643 117.223 100.157C116.103 98.7987 115.155 98.0564 114.42 97.6521" stroke="white" stroke-width="0.5" stroke-linecap="round" stroke-linejoin="round"/>
<path d="M138.802 108.985C138.802 108.985 131.419 109.701 126.594 112.001C121.77 114.301 119.145 116.448 119.092 118.012C119.039 119.576 119.496 125.435 120.126 129.425C120.762 133.414 121.664 135.621 121.664 135.621" stroke="white" stroke-width="0.5" stroke-linecap="round" stroke-linejoin="round"/>
<path d="M125.315 135.628C125.315 135.628 121.239 126.814 124.116 120.385C126.992 113.956 134.799 112.684 137.503 112.531C140.201 112.379 141.818 113.141 141.818 113.141" stroke="white" stroke-width="0.5" stroke-linecap="round" stroke-linejoin="round"/>
<path d="M112.816 119.006C112.816 119.006 115.149 119.298 116.415 119.371C117.674 119.45 119.125 119.536 119.125 119.536" stroke="white" stroke-width="0.5" stroke-linecap="round" stroke-linejoin="round"/>
<path fill-rule="evenodd" clip-rule="evenodd" d="M127.198 108.064C127.198 108.064 127.701 109.403 127.927 110.443C128.159 111.477 128.331 112.332 128.331 112.332L132.751 110.821C132.751 110.821 132.573 108.899 132.374 108.144C132.168 107.388 131.698 106.626 131.698 106.626L127.198 108.064Z" fill="black"/>
<path d="M100.402 115.666C101.728 115.514 104.074 115.162 105.234 114.99C105.181 116.799 104.969 121.346 104.14 125.435C103.365 129.286 101.609 134.448 100.727 136.934" stroke="black" stroke-width="0.5" stroke-linecap="round" stroke-linejoin="round"/>
<path d="M121.77 100.747C125.6 99.3158 128.119 98.7922 131.95 98.0698" stroke="white" stroke-width="0.5" stroke-linecap="round" stroke-linejoin="round"/>
<path d="M102.649 54.7986C102.649 54.7986 104.419 56.4621 108.355 56.4621C112.299 56.4621 113.207 55.9584 113.207 55.9584" stroke="white" stroke-width="0.5" stroke-linecap="round" stroke-linejoin="round"/>
<path d="M106.824 53.5327C106.824 53.5327 108.031 54.4937 110.277 54.2684C112.524 54.0364 113.737 53.7117 113.737 53.7117" stroke="white" stroke-width="0.5" stroke-linecap="round" stroke-linejoin="round"/>
<path d="M111.464 52.2469C111.464 52.2469 113.684 52.015 114.592 52.0945" stroke="white" stroke-width="0.5" stroke-linecap="round" stroke-linejoin="round"/>
<path d="M118.257 60.7832C118.257 60.7832 118.708 61.943 118.708 63.4607C118.708 64.9718 118.708 65.4291 118.708 65.4291" stroke="white" stroke-width="0.5" stroke-linecap="round" stroke-linejoin="round"/>
<path d="M120.437 62.5725C120.437 62.5725 120.437 63.9775 120.351 65.2235C120.265 66.4761 120.027 67.1323 120.027 67.1323" stroke="white" stroke-width="0.5" stroke-linecap="round" stroke-linejoin="round"/>
<path d="M122.32 64.9983C122.32 64.9983 122.386 64.5542 122.485 63.6131C122.585 62.6654 122.585 62.1948 122.585 62.1948" stroke="white" stroke-width="0.5" stroke-linecap="round" stroke-linejoin="round"/>
<path d="M69.2396 58.9009C69.2396 58.9009 71.2809 61.3995 72.5203 62.0556C73.7596 62.7117 74.6676 63.0895 74.6676 63.0895" stroke="white" stroke-width="0.5" stroke-linecap="round" stroke-linejoin="round"/>
<path d="M73.3421 59.4907C73.3421 59.4907 74.5616 60.3192 76.0726 61.1211C77.5771 61.923 77.9681 62.0755 77.9681 62.0755" stroke="white" stroke-width="0.5" stroke-linecap="round" stroke-linejoin="round"/>
<path d="M76.9342 59.2986C76.9342 59.2986 77.7958 59.7824 79.1611 60.18C80.5197 60.5843 80.7782 60.7633 80.7782 60.7633" stroke="white" stroke-width="0.5" stroke-linecap="round" stroke-linejoin="round"/>
<path d="M80.2347 74.2041C80.2347 74.2041 80.5595 73.8727 80.9373 72.5869C81.315 71.2946 81.315 70.8174 81.315 70.8174" stroke="white" stroke-width="0.5" stroke-linecap="round" stroke-linejoin="round"/>
<path d="M80.8643 76.5766C80.8643 76.5766 81.7723 75.5626 82.3754 74.1509C82.9852 72.7392 83.0846 72.156 83.0846 72.156" stroke="white" stroke-width="0.5" stroke-linecap="round" stroke-linejoin="round"/>
<path d="M84.3504 74.078C85.4506 72.5139 85.5368 71.1288 85.5368 69.2532" stroke="white" stroke-width="0.5" stroke-linecap="round" stroke-linejoin="round"/>
</svg>
