<svg width="114" height="130" viewBox="0 0 114 130" fill="none" xmlns="http://www.w3.org/2000/svg">
<path d="M71.9872 69.4673C71.9872 69.4673 79.2937 73.2455 77.3639 77.698C75.4283 82.1505 44.8595 86.2659 38.4772 92.561C32.0949 98.8619 44.3538 112.801 44.3538 112.801" stroke="#ED712E" stroke-width="0.5" stroke-linecap="round" stroke-linejoin="round"/>
<path d="M57.9205 69.6765C57.9205 69.6765 65.7328 74.3383 64.4714 76.3088C63.2101 78.2851 29.7814 83.4351 18.72 90.9392C7.65846 98.4434 15.6974 114.225 15.6974 114.225" stroke="#ED712E" stroke-width="0.5" stroke-linecap="round" stroke-linejoin="round"/>
<path fill-rule="evenodd" clip-rule="evenodd" d="M45.7663 14.4737L46.0162 68.514H57.5195V57.8942H71.8012V68.514H111.606V40.7992L94.4764 27.279V38.5323L78.1835 27.1976V38.5323L62.3091 27.4475V39.7936H59.3679V14.4737H45.7663Z" fill="#D7F0F7"/>
<path d="M38.5295 68.514H113.53" stroke="#D7F0F7" stroke-width="0.5" stroke-linecap="round" stroke-linejoin="round"/>
<path fill-rule="evenodd" clip-rule="evenodd" d="M41.7904 53.7266C41.7904 53.7266 43.5865 52.9477 44.7374 51.4771C45.8942 50.0065 46.83 48.3615 47.3241 48.6347C47.8181 48.9079 47.1148 49.8263 46.7777 50.5296C46.4405 51.2329 46.6382 51.1283 47.7658 50.3029C48.8877 49.4717 49.6259 48.9602 50.0444 48.9602C50.4687 48.9602 50.3002 49.5763 50.3002 49.5763C51.079 49.1869 51.5092 49.4019 51.1256 50.332C51.1256 50.332 51.4859 50.3145 51.6894 50.5645C52.0556 51.0179 51.2999 51.7386 51.2999 51.7386C51.2999 51.7386 51.8289 52.1513 51.6138 52.7035C51.4046 53.2616 44.6037 56.9584 44.6037 56.9584L41.7904 53.7266Z" fill="white" stroke="black" stroke-width="0.5" stroke-linecap="round" stroke-linejoin="round"/>
<path d="M46.7428 53.9358C46.83 53.0116 46.6789 51.9595 46.6847 51.0004" stroke="black" stroke-width="0.5" stroke-linecap="round" stroke-linejoin="round"/>
<path d="M47.5566 51.7909L50.335 49.5473" stroke="black" stroke-width="0.5" stroke-linecap="round" stroke-linejoin="round"/>
<path d="M48.3413 52.4943L51.1255 50.332" stroke="black" stroke-width="0.5" stroke-linecap="round" stroke-linejoin="round"/>
<path d="M48.8993 53.2092L51.2999 51.7386" stroke="black" stroke-width="0.5" stroke-linecap="round" stroke-linejoin="round"/>
<path fill-rule="evenodd" clip-rule="evenodd" d="M9.00119 119.572C9.00119 119.572 9.26857 123.141 10.6985 125.623C12.1284 128.1 16.3891 130.221 16.9355 127.344C17.4819 124.467 14.436 119.677 14.436 119.677L9.00119 119.572Z" fill="white" stroke="black" stroke-width="0.5" stroke-linecap="round" stroke-linejoin="round"/>
<path fill-rule="evenodd" clip-rule="evenodd" d="M20.208 117.056L19.9581 121.252C19.9581 121.252 22.8121 122.891 26.91 122.932C31.0021 122.973 31.6938 122.473 31.2753 121.38C30.8568 120.287 25.5847 118.253 25.0616 117.811C24.5326 117.369 20.208 117.056 20.208 117.056Z" fill="white" stroke="black" stroke-width="0.5" stroke-linecap="round" stroke-linejoin="round"/>
<path fill-rule="evenodd" clip-rule="evenodd" d="M9.29181 68.1769C9.29181 68.1769 8.78611 84.4291 8.70473 92.3226C8.61754 100.216 8.74542 120.078 8.74542 120.078C8.74542 120.078 10.5067 121.09 12.2505 120.938C13.9943 120.793 14.9592 119.892 14.9592 119.892L18.72 90.9392L19.2198 107.732L19.8709 117.369C19.8709 117.369 21.0276 118.084 23.2538 118.148C25.4801 118.212 25.9625 117.875 25.9625 117.875C25.9625 117.875 27.9795 80.3369 28.0435 75.2974C28.1016 70.2578 27.7703 67.5665 27.7703 67.5665L9.29181 68.1769Z" fill="black" stroke="black" stroke-width="0.2" stroke-linecap="round" stroke-linejoin="round"/>
<path fill-rule="evenodd" clip-rule="evenodd" d="M13.8082 43.6997C12.6748 44.2112 10.9135 45.118 9.11743 46.4666C6.09485 48.7335 2.96764 57.0921 3.67678 62.0038C4.39174 66.9155 8.75705 66.7934 8.75705 66.7934C8.75705 66.7934 8.53035 69.2289 9.30344 69.6649C10.0823 70.1066 16.8831 71.0541 21.6321 70.3392C26.3752 69.6242 28.2236 68.6825 28.3283 67.9269C28.4329 67.1713 28.0783 62.7827 28.0783 62.7827C28.0783 62.7827 30.1767 65.846 35.2163 63.8755C40.2559 61.8992 45.5047 57.2781 45.5047 57.2781L42.9181 52.8314L32.3158 56.8828C32.3158 56.8828 29.1479 47.1815 26.166 45.0599C24.6837 44.0078 23.0446 43.351 21.2136 43.0487C20.8648 42.6011 20.58 42.0141 18.9466 41.5374C17.1447 41.0201 15.9066 41.1363 15.9066 41.1363C15.9066 41.1363 13.9361 43.0022 13.785 43.444C13.7734 43.4905 13.7792 43.5777 13.8082 43.6997Z" fill="#D7F0F7"/>
<path fill-rule="evenodd" clip-rule="evenodd" d="M19.7953 49.0299L17.7783 61.2482L20.58 61.4283L19.8069 65.7995L19.5686 66.8051L16.8483 66.9039L16.8308 66.9911L19.9813 69.6998L22.8586 66.2761L20.8241 48.873C20.8241 48.873 21.0218 47.5593 21.045 46.9083C21.0508 46.7165 21.0508 46.5828 21.0566 46.4898C20.4405 46.4026 19.8592 46.3852 19.8592 46.3852C19.8592 46.3852 19.1094 46.5072 18.4409 46.7688C18.4119 46.7804 18.3886 46.7921 18.3654 46.8037C18.5514 47.1641 18.906 47.8267 19.2082 48.2743C19.6384 48.9137 19.7953 49.0299 19.7953 49.0299Z" fill="black"/>
<path d="M12.047 51.8549L10.2218 60.7773L20.58 61.4283L19.5686 66.8051" stroke="black" stroke-width="0.5" stroke-linecap="round" stroke-linejoin="round"/>
<path fill-rule="evenodd" clip-rule="evenodd" d="M25.0616 62.1607C25.0616 62.1607 28.0144 61.9922 28.7701 61.7713C29.5257 61.5504 29.2234 62.3584 29.2234 62.3584C29.2234 62.3584 29.6419 62.4572 29.6419 62.7711C29.6419 63.0849 29.3804 63.2419 29.3804 63.2419C29.3804 63.2419 29.5489 63.6895 29.3629 63.8697C29.1769 64.0499 28.9502 64.137 28.9502 64.137C28.9502 64.137 28.9793 64.5323 28.2876 64.9624C27.5959 65.3926 25.7707 65.7704 24.8465 65.8983C24.2478 65.9797 23.5735 66.0029 23.1783 66.0029C23.0795 66.0494 22.9632 66.0727 22.8353 66.0668C21.6321 66.0087 19.8069 65.7995 19.8069 65.7995L20.4986 61.8934C20.4986 61.8934 21.0392 61.8875 21.4926 61.8527C21.9402 61.8178 22.3238 61.6957 22.3238 61.6957C22.3238 61.6957 23.6607 61.1203 24.9569 60.8064C26.259 60.4925 26.5671 60.9343 26.1544 61.2598C25.7475 61.5853 25.0616 62.1607 25.0616 62.1607Z" fill="white" stroke="black" stroke-width="0.5" stroke-linecap="round" stroke-linejoin="round"/>
<path d="M24.9918 63.2535C24.9918 63.2535 26.2822 63.1489 27.3983 62.9803C28.5085 62.8118 29.2234 62.3584 29.2234 62.3584" stroke="black" stroke-width="0.5" stroke-linecap="round" stroke-linejoin="round"/>
<path d="M25.0964 64.0847C25.0964 64.0847 26.474 64.015 27.6191 63.7883C28.77 63.5616 29.299 63.2477 29.299 63.2477" stroke="black" stroke-width="0.5" stroke-linecap="round" stroke-linejoin="round"/>
<path d="M25.2418 64.9508C25.2418 64.9508 26.5496 64.852 27.4331 64.6253C28.3167 64.3928 28.9502 64.137 28.9502 64.137" stroke="black" stroke-width="0.5" stroke-linecap="round" stroke-linejoin="round"/>
<path d="M8.87912 60.5623L10.2276 60.7483" stroke="black" stroke-width="0.5" stroke-linecap="round" stroke-linejoin="round"/>
<path fill-rule="evenodd" clip-rule="evenodd" d="M15.8659 31.2141C19.0164 29.8598 22.7714 29.0867 23.0504 33.5276C23.1957 35.8584 23.7654 41.0027 22.4401 41.6944C21.1206 42.3861 20.2603 42.1361 20.2603 42.1361C20.2603 42.1361 20.4173 43.9729 20.301 44.8448C20.1848 45.7167 19.8592 46.3852 19.8592 46.3852C19.8592 46.3852 17.0227 44.6763 16.3716 44.0485C15.7264 43.4149 15.5753 42.1245 15.5753 42.1245L15.3544 38.2823C15.3544 38.2823 13.9013 37.4976 13.7676 36.4513C13.6281 35.3992 14.2675 35.0098 14.2675 35.0098C14.2675 35.0098 14.2675 34.9459 14.2675 34.8354C14.2616 34.2309 14.3721 32.2372 15.8659 31.2141Z" fill="white"/>
<path fill-rule="evenodd" clip-rule="evenodd" d="M22.5214 31.4931C21.1496 31.7489 19.278 31.3594 18.1678 31.4873C16.982 31.6268 16.3716 32.8417 16.2554 33.3881C16.1391 33.9344 16.6739 34.7192 16.3833 35.0272C16.2786 35.1319 16.2554 35.3237 16.2612 35.5271V35.5329V35.5387C16.267 35.6608 16.3658 37.0326 17.6039 38.1661C18.906 39.3518 19.4233 38.5323 20.952 38.23C21.9169 38.0382 22.783 38.0324 23.2945 38.0556C23.3061 39.7878 23.126 41.334 22.4401 41.6944C21.1206 42.3861 20.2603 42.1361 20.2603 42.1361C20.2603 42.1361 17.6562 41.2526 16.8599 39.625C16.0636 37.9975 15.8659 36.5792 15.8659 36.5792C15.8659 36.5792 15.4707 35.4981 15.4649 35.469C15.459 35.4341 15.2498 35.1028 14.9708 34.9982C14.6918 34.8935 14.2675 35.0098 14.2675 35.0098C14.2675 35.0098 13.6281 35.3992 13.7676 36.4513C13.9013 37.4976 15.3544 38.2823 15.3544 38.2823L15.4416 39.7471C14.436 39.3635 12.8782 37.6894 12.1923 35.2539C11.5123 32.8242 13.2735 30.6154 13.4944 30.226C13.4944 30.226 13.4944 28.9472 15.0812 28.4124C16.6681 27.8777 16.8657 28.2032 19.0396 28.3601C21.2136 28.517 23.6142 28.5461 23.8583 29.7784C24.0967 31.0049 22.9225 31.3711 22.5214 31.4931Z" fill="black" stroke="black" stroke-width="0.2" stroke-linecap="round" stroke-linejoin="round"/>
<path d="M18.9176 36.1665C19.1327 36.1665 19.307 35.9609 19.307 35.7073C19.307 35.4537 19.1327 35.2481 18.9176 35.2481C18.7025 35.2481 18.5281 35.4537 18.5281 35.7073C18.5281 35.9609 18.7025 36.1665 18.9176 36.1665Z" fill="black"/>
<path d="M22.0041 35.8119C22.2192 35.8119 22.3936 35.6064 22.3936 35.3527C22.3936 35.0991 22.2192 34.8935 22.0041 34.8935C21.789 34.8935 21.6147 35.0991 21.6147 35.3527C21.6147 35.6064 21.789 35.8119 22.0041 35.8119Z" fill="black"/>
<path d="M20.8939 35.6841C20.9578 35.8119 21.7077 37.2709 21.7193 37.3058C21.7367 37.3349 21.0101 37.5209 21.0101 37.5209" stroke="black" stroke-width="0.5" stroke-linecap="round" stroke-linejoin="round"/>
<path d="M17.912 34.6029C17.912 34.6029 18.2317 34.4111 18.5979 34.3297C18.9641 34.2425 19.2605 34.2832 19.2605 34.2832" stroke="black" stroke-width="0.5" stroke-linecap="round" stroke-linejoin="round"/>
<path d="M21.1903 34.0914C21.1903 34.0914 21.4519 33.9345 21.8297 33.888C22.2134 33.8415 22.3994 33.8996 22.3994 33.8996" stroke="black" stroke-width="0.5" stroke-linecap="round" stroke-linejoin="round"/>
<path fill-rule="evenodd" clip-rule="evenodd" d="M21.8879 39.3809C21.8879 39.3809 20.2719 39.2705 20.1615 39.2123C20.0511 39.1542 20.0278 39.9447 20.7893 40.0319C21.5507 40.1191 21.8879 39.3809 21.8879 39.3809Z" fill="white"/>
<path d="M14.4767 35.5911C14.4767 35.5911 14.9882 35.748 15.1859 36.3409C15.3777 36.9338 15.2498 37.5906 15.2498 37.5906" stroke="black" stroke-width="0.5" stroke-linecap="round" stroke-linejoin="round"/>
<path d="M14.5406 36.7594L15.1859 36.3409" stroke="black" stroke-width="0.5" stroke-linecap="round" stroke-linejoin="round"/>
<path d="M27.2704 51.0992L27.904 61.0505" stroke="black" stroke-width="0.5" stroke-linecap="round" stroke-linejoin="round"/>
<path d="M13.8489 44.1996L15.9706 48.1232L17.7841 47.0129" stroke="black" stroke-width="0.5" stroke-linecap="round" stroke-linejoin="round"/>
<path d="M21.5565 46.4433L22.876 46.8444L21.4519 43.38" stroke="black" stroke-width="0.5" stroke-linecap="round" stroke-linejoin="round"/>
<path d="M30.508 57.6908L32.3158 56.8828" stroke="black" stroke-width="0.5" stroke-linecap="round" stroke-linejoin="round"/>
<path d="M9.69289 66.9504L19.5686 66.8051" stroke="black" stroke-width="0.5" stroke-linecap="round" stroke-linejoin="round"/>
<path d="M22.4401 31.3536C22.7714 31.871 22.9923 32.5801 23.0504 33.5276C23.1957 35.8584 23.7654 41.0027 22.4401 41.6944C21.1206 42.3861 20.2603 42.1361 20.2603 42.1361C20.2603 42.1361 20.4173 43.9729 20.301 44.8448M15.5753 42.1245L15.3544 38.2823C15.3544 38.2823 13.9013 37.4976 13.7676 36.4513C13.6281 35.3992 14.2675 35.0098 14.2675 35.0098L15.5753 42.1245Z" stroke="black" stroke-width="0.5" stroke-linecap="round" stroke-linejoin="round"/>
<path d="M21.603 75.9426L19.9697 80.0172L18.72 90.9392" stroke="white" stroke-width="0.5" stroke-linecap="round" stroke-linejoin="round"/>
<path d="M10.559 72.2922C10.559 72.2922 11.0996 72.7107 11.5994 72.92C12.1051 73.1292 12.3435 73.2048 12.3435 73.2048" stroke="white" stroke-width="0.5" stroke-linecap="round" stroke-linejoin="round"/>
<path d="M10.9077 73.8558L11.6518 74.1988" stroke="white" stroke-width="0.5" stroke-linecap="round" stroke-linejoin="round"/>
<path d="M27.3983 71.1994C27.3983 71.1994 27.3401 71.6586 27.1774 72.0481C27.0204 72.4375 26.8984 72.5945 26.8984 72.5945" stroke="white" stroke-width="0.5" stroke-linecap="round" stroke-linejoin="round"/>
<path d="M27.5145 73.3734L27.1774 74.1406" stroke="white" stroke-width="0.5" stroke-linecap="round" stroke-linejoin="round"/>
<path fill-rule="evenodd" clip-rule="evenodd" d="M73.0742 79.4011L74.6261 78.8082C74.6261 78.8082 75.4283 78.5699 75.748 79.0814C76.0619 79.5987 75.6666 80.1858 75.1086 80.4823C74.5564 80.7729 73.6612 81.1216 73.6612 81.1216L73.0742 79.4011Z" fill="black"/>
<path fill-rule="evenodd" clip-rule="evenodd" d="M93.2092 48.7102C85.9085 48.036 84.5832 49.4426 83.8276 50.8958C83.072 52.3431 82.5662 56.6445 81.6827 57.6094C80.805 58.5801 78.6427 60.6146 78.6427 60.6146L80.5318 61.9805C80.5318 61.9805 80.0901 63.4686 79.9215 63.8057C79.7529 64.1429 81.3921 64.6427 82.1245 64.9159C82.8627 65.1891 83.1766 65.317 83.1766 65.317C83.1766 65.317 81.5781 66.0727 80.5958 66.0727C79.6076 66.0727 80.3226 67.4503 80.3226 67.4503C80.3226 67.4503 79.3112 70.345 79.9447 71.0832C80.5725 71.8156 84.4554 72.0481 85.2517 73.2455C86.0538 74.4429 85.5888 80.3195 85.5888 80.3195L96.2551 79.186C96.2551 79.186 94.9124 68.5198 96.0865 66.4621C97.6385 63.7476 101.097 63.5325 101.3 57.034C101.411 53.3778 99.7601 49.3148 93.2092 48.7102Z" fill="white"/>
<path d="M84.3025 58.5322C84.3138 58.909 84.6134 59.1901 84.9716 59.1601C85.3299 59.1301 85.6111 58.8003 85.5999 58.4235C85.5886 58.0467 85.289 57.7656 84.9307 57.7956C84.5725 57.8256 84.2912 58.1554 84.3025 58.5322Z" fill="black"/>
<path d="M84.5774 56.2202C85.5307 56.2841 86.2282 56.5515 87.0304 57.0456" stroke="black" stroke-width="0.5" stroke-linecap="round" stroke-linejoin="round"/>
<path fill-rule="evenodd" clip-rule="evenodd" d="M81.8397 48.594C81.8397 48.594 80.1714 48.5824 80.7992 49.9135C81.4328 51.2446 84.7983 51.2387 85.9667 51.3201C87.1292 51.4073 89.617 52.256 89.617 52.256C89.617 52.256 88.3905 52.6629 89.7216 53.4301C91.0586 54.1974 91.5294 54.6682 91.5294 55.8017C91.5294 56.9352 89.7042 58.4813 89.8495 59.3532C89.9948 60.2251 90.0065 61.4632 89.9948 62.091C89.9832 62.7188 90.3203 62.7188 91.2329 61.6318C92.1513 60.539 94.0404 59.9054 94.9182 61.376C95.8017 62.8466 94.1625 65.2182 93.1976 65.9739C92.2327 66.7295 91.2446 66.5609 91.2446 66.5609C91.2446 66.5609 91.3724 71.4145 92.9477 72.4433C94.5229 73.4722 95.0867 72.019 95.0867 72.019C95.0867 72.019 95.9296 72.734 96.9352 72.0423C97.9407 71.3506 98.5743 67.7409 100.545 65.3461C102.521 62.9513 105.125 55.3948 103.027 51.3608C100.923 47.3326 92.9884 45.6528 91.8549 45.2285C90.7214 44.8099 88.4719 43.7811 86.019 43.1708C83.5602 42.5663 83.6474 43.5951 83.7055 44.3914C83.7695 45.1878 84.1066 45.7342 84.1066 45.7342C84.1066 45.7342 82.0315 45.0192 81.2526 46.3038C80.4737 47.5826 81.8397 48.594 81.8397 48.594Z" fill="black" stroke="black" stroke-width="0.2" stroke-linecap="round" stroke-linejoin="round"/>
<path fill-rule="evenodd" clip-rule="evenodd" d="M44.5747 69.7753L48.94 100.094L69.5168 95.4731L66.1571 65.5728L44.5747 69.7753Z" fill="white" stroke="black" stroke-width="0.5" stroke-linecap="round" stroke-linejoin="round"/>
<path fill-rule="evenodd" clip-rule="evenodd" d="M50.3525 67.3921L50.8582 70.4787L60.391 68.5256L60.048 65.5321L57.5951 66.0029C57.3335 65.6076 56.7522 65.1078 55.4734 65.1891C53.997 65.2821 53.2588 66.311 52.9624 66.8922L50.3525 67.3921Z" fill="#ED712E"/>
<path d="M50.8582 79.0698L62.9311 76.239" stroke="black" stroke-width="0.5" stroke-linecap="round" stroke-linejoin="round"/>
<path d="M51.3464 81.5343L63.4135 78.6978" stroke="black" stroke-width="0.5" stroke-linecap="round" stroke-linejoin="round"/>
<path d="M51.794 84.0687L63.8669 81.2321" stroke="black" stroke-width="0.5" stroke-linecap="round" stroke-linejoin="round"/>
<path d="M52.6659 88.5154L64.7388 85.6788" stroke="black" stroke-width="0.5" stroke-linecap="round" stroke-linejoin="round"/>
<path d="M52.8519 91.0264L64.9248 88.1898" stroke="black" stroke-width="0.5" stroke-linecap="round" stroke-linejoin="round"/>
<path d="M61.4198 92.8342L65.57 91.8576" stroke="#ED712E" stroke-width="0.5" stroke-linecap="round" stroke-linejoin="round"/>
<path fill-rule="evenodd" clip-rule="evenodd" d="M77.0094 84.2779C77.0094 84.2779 69.7028 80.3311 66.3896 79.157C63.0706 77.9828 61.9371 78.2967 61.9371 78.2967C61.9371 78.2967 59.9608 78.3606 59.5016 79.3023C59.0366 80.2497 59.0366 82.1389 59.0366 82.1389C59.0366 82.1389 57.5486 84.3244 57.5486 85.2254C57.5486 86.1263 59.7516 84.8185 59.7516 84.8185C59.7516 84.8185 63.8669 86.2019 65.57 88.091C67.2673 89.9801 70.3364 91.2589 70.3364 91.2589L77.0094 84.2779Z" fill="white" stroke="black" stroke-width="0.5" stroke-linecap="round" stroke-linejoin="round"/>
<path fill-rule="evenodd" clip-rule="evenodd" d="M73.4404 78.8547L74.2948 81.0228L59.7457 87.5272L59.0075 85.4056L73.4404 78.8547Z" fill="#ED712E"/>
<path fill-rule="evenodd" clip-rule="evenodd" d="M59.6934 87.3935L56.8452 87.5679L59.054 85.5567L59.6934 87.3935Z" fill="black"/>
<path fill-rule="evenodd" clip-rule="evenodd" d="M67.5231 85.3823C67.5231 85.3823 64.7621 84.9813 63.6867 85.4579C62.6172 85.9287 61.1408 85.7485 60.7804 86.231C60.4258 86.7134 60.4374 87.597 61.8964 87.7365C63.3554 87.8701 64.7388 87.3935 65.4654 87.9806C66.1978 88.5735 67.5231 85.3823 67.5231 85.3823Z" fill="white"/>
<path fill-rule="evenodd" clip-rule="evenodd" d="M49.3178 89.2361C49.3178 89.2361 48.6668 85.5858 49.2771 83.6327C49.8816 81.6797 50.5559 78.2967 49.7596 77.3318C48.9632 76.3669 46.394 82.4121 46.394 82.4121L45.2955 74.7975C45.2955 74.7975 43.6912 76.1344 43.2087 77.0295C42.7263 77.9189 42.8948 78.6629 42.8948 78.6629C42.8948 78.6629 42.0752 79.3372 41.9474 79.8719C41.8253 80.4067 42.0346 80.9124 42.0346 80.9124C42.0346 80.9124 41.4126 81.5111 41.2673 82.1912C41.122 82.8771 41.3719 83.3072 41.3719 83.3072C41.3719 83.3072 40.8546 85.1614 41.401 87.0738C41.9474 88.9862 44.4236 93.2643 44.4236 93.2643L49.3178 89.2361Z" fill="white" stroke="black" stroke-width="0.5" stroke-linecap="round" stroke-linejoin="round"/>
<path d="M91.5061 65.4042C91.5061 65.4042 91.5061 63.9162 92.2211 62.7536C92.936 61.5853 93.9649 61.5562 93.9649 61.5562" stroke="black" stroke-width="0.5" stroke-linecap="round" stroke-linejoin="round"/>
<path d="M93.2383 64.0731L92.0409 63.0791" stroke="black" stroke-width="0.5" stroke-linecap="round" stroke-linejoin="round"/>
<path d="M67.0697 83.3246L72.9695 80.6159" stroke="white" stroke-width="0.5" stroke-linecap="round" stroke-linejoin="round"/>
<path d="M43.1332 79.7092L42.8948 78.6629" stroke="black" stroke-width="0.5" stroke-linecap="round" stroke-linejoin="round"/>
<path d="M42.2961 81.7262L42.0346 80.9124" stroke="black" stroke-width="0.5" stroke-linecap="round" stroke-linejoin="round"/>
<path d="M41.7672 84.4581L41.3719 83.3072" stroke="black" stroke-width="0.5" stroke-linecap="round" stroke-linejoin="round"/>
<path d="M96.2551 79.186C96.2551 79.186 96.1621 78.4246 96.04 77.2795C95.7203 74.1116 95.2262 67.9734 96.0865 66.4621C97.6385 63.7476 101.097 63.5325 101.3 57.034C101.411 53.3778 99.7601 49.3148 93.2092 48.7102C87.9081 48.222 85.7574 48.8323 84.6879 49.7507C84.2868 50.0995 84.0369 50.4947 83.8276 50.8958C83.072 52.3432 82.5662 56.6445 81.6827 57.6094C80.805 58.5801 78.6427 60.6146 78.6427 60.6146L80.5318 61.9805C80.5318 61.9805 80.0901 63.4686 79.9215 63.8057C79.7529 64.1429 81.3921 64.6427 82.1245 64.9159C82.8627 65.1891 83.1766 65.317 83.1766 65.317C83.1766 65.317 81.5781 66.0727 80.5958 66.0727C79.6076 66.0727 80.3226 67.4503 80.3226 67.4503C80.3226 67.4503 79.3112 70.345 79.9447 71.0832C80.5725 71.8156 84.4554 72.0481 85.2517 73.2455C86.0538 74.4429 85.5888 80.3195 85.5888 80.3195" stroke="black" stroke-width="0.5" stroke-linecap="round" stroke-linejoin="round"/>
<path d="M48.1262 73.9895L53.1774 72.8037" stroke="#ED712E" stroke-width="0.5" stroke-linecap="round" stroke-linejoin="round"/>
<path d="M60.1061 71.3796L63.5065 70.5833" stroke="#ED712E" stroke-width="0.5" stroke-linecap="round" stroke-linejoin="round"/>
<path d="M67.5231 85.3823C67.5231 85.3823 64.7621 84.9813 63.6867 85.4579C62.6172 85.9287 61.1408 85.7485 60.7804 86.231C60.4258 86.7134 60.4374 87.597 61.8964 87.7365C63.3554 87.8701 64.7388 87.3935 65.4654 87.9806" stroke="black" stroke-width="0.5" stroke-linecap="round" stroke-linejoin="round"/>
<path d="M63.6925 78.4013C60.9896 78.4246 59.8794 80.7496 59.0366 82.1389" stroke="black" stroke-width="0.5" stroke-linecap="round" stroke-linejoin="round"/>
<path d="M65.8083 81.9645L63.088 81.1681L59.7515 84.8185" stroke="black" stroke-width="0.5" stroke-linecap="round" stroke-linejoin="round"/>
<path d="M63.7449 80.5636L63.088 81.1681" stroke="black" stroke-width="0.5" stroke-linecap="round" stroke-linejoin="round"/>
<path d="M61.536 83.9117L61.5884 82.8073" stroke="black" stroke-width="0.5" stroke-linecap="round" stroke-linejoin="round"/>
<path d="M63.3205 83.0863L63.3438 81.2437" stroke="black" stroke-width="0.5" stroke-linecap="round" stroke-linejoin="round"/>
<path fill-rule="evenodd" clip-rule="evenodd" d="M62.3789 102.634C62.3789 102.634 69.4296 88.6897 73.8414 84.7429C78.2474 80.7961 82.9499 79.0349 93.4941 77.9014C104.032 76.768 108.229 79.5813 110.665 87.2191C113.1 94.8628 108.671 108.11 108.671 108.11L108.462 129.739C108.462 129.739 70.3364 128.896 70.3364 129.739C70.3364 130.576 72.0976 113.824 72.0976 113.824C72.0976 113.824 69.3657 121.299 59.8387 118.148C50.306 114.998 45.6849 100.263 44.8479 97.5715C44.005 94.886 43.418 92.1541 43.418 92.1541C43.418 92.1541 45.4524 89.7418 46.9463 89.0501C48.4343 88.3584 49.4864 88.2945 49.4864 88.2945L62.3789 102.634Z" fill="#D7F0F7"/>
<path d="M79.4274 100.426L72.7894 112.818" stroke="black" stroke-width="0.5" stroke-linecap="round" stroke-linejoin="round"/>
<path d="M108.316 93.4561L108.607 106.052" stroke="black" stroke-width="0.5" stroke-linecap="round" stroke-linejoin="round"/>
<path d="M60.4374 106.633L62.2742 102.832L62.251 102.884" stroke="black" stroke-width="0.5" stroke-linecap="round" stroke-linejoin="round"/>
<path d="M43.9934 94.5605C43.9934 94.5605 45.807 91.6716 47.5798 90.666C49.3527 89.6604 50.5443 89.4686 50.5443 89.4686" stroke="#6CA3B7" stroke-width="0.5" stroke-linecap="round" stroke-linejoin="round"/>
<path d="M44.1039 91.3926L44.7781 93.4387" stroke="#6CA3B7" stroke-width="0.5" stroke-linecap="round" stroke-linejoin="round"/>
<path d="M44.97 90.5265L45.6965 92.218" stroke="#6CA3B7" stroke-width="0.5" stroke-linecap="round" stroke-linejoin="round"/>
<path d="M46.0453 89.6081L46.8184 91.2008" stroke="#6CA3B7" stroke-width="0.5" stroke-linecap="round" stroke-linejoin="round"/>
<path d="M47.2543 88.9106L47.9867 90.4452" stroke="#6CA3B7" stroke-width="0.5" stroke-linecap="round" stroke-linejoin="round"/>
<path d="M48.4634 88.4863L49.3004 89.8465" stroke="#6CA3B7" stroke-width="0.5" stroke-linecap="round" stroke-linejoin="round"/>
<path d="M83.0661 79.7266C86.2631 79.9707 96.3422 80.087 98.3418 77.6689" stroke="#6CA3B7" stroke-width="0.5" stroke-linecap="round" stroke-linejoin="round"/>
<path d="M84.1996 48.9892C86.2224 49.0299 88.3382 49.1578 90.2041 50.0181" stroke="white" stroke-width="0.5" stroke-linecap="round" stroke-linejoin="round"/>
<path d="M87.8965 47.6523C89.7798 47.7511 91.4422 48.3382 93.029 49.3554" stroke="white" stroke-width="0.5" stroke-linecap="round" stroke-linejoin="round"/>
<path d="M87.4721 45.3389C88.5475 46.0945 89.2741 46.3038 90.4947 46.6584" stroke="white" stroke-width="0.5" stroke-linecap="round" stroke-linejoin="round"/>
<path d="M96.5224 56.6561C96.5224 56.6561 96.9235 57.5804 96.8363 58.8185C96.755 60.0566 96.5224 60.4518 96.5224 60.4518" stroke="white" stroke-width="0.5" stroke-linecap="round" stroke-linejoin="round"/>
<path d="M98.6208 59.5509C98.5976 60.725 98.0686 62.5618 97.5687 63.6255" stroke="white" stroke-width="0.5" stroke-linecap="round" stroke-linejoin="round"/>
<path d="M99.8415 62.3526C100.469 61.0505 100.713 60.2077 100.806 58.6092" stroke="white" stroke-width="0.5" stroke-linecap="round" stroke-linejoin="round"/>
<path fill-rule="evenodd" clip-rule="evenodd" d="M40.5349 33.0451C42.7786 29.9818 40.4709 26.6221 35.7046 26.4942C28.3515 26.3024 25.8521 29.9702 26.7821 32.7312L25.5324 34.9982L28.1248 34.5738C28.7817 35.0795 29.6361 35.4457 30.665 35.5969C33.8213 35.7306 38.4946 35.8236 40.5349 33.0451Z" fill="white" stroke="black" stroke-width="0.5" stroke-linecap="round" stroke-linejoin="round"/>
<path fill-rule="evenodd" clip-rule="evenodd" d="M31.0777 31.0572C31.3974 31.0572 31.6531 31.3188 31.6531 31.6501C31.6531 31.9756 31.3974 32.2372 31.0777 32.2372C30.758 32.2372 30.4964 31.9756 30.4964 31.6501C30.4964 31.3188 30.758 31.0572 31.0777 31.0572ZM37.2042 30.1446C37.5239 30.1446 37.7797 30.412 37.7797 30.7375C37.7797 31.063 37.5239 31.3304 37.2042 31.3304C36.8845 31.3304 36.623 31.063 36.623 30.7375C36.623 30.412 36.8845 30.1446 37.2042 30.1446ZM34.0828 30.6561C34.4025 30.6561 34.6583 30.9177 34.6583 31.2432C34.6583 31.5745 34.4025 31.8361 34.0828 31.8361C33.7573 31.8361 33.5016 31.5745 33.5016 31.2432C33.5016 30.9177 33.7573 30.6561 34.0828 30.6561Z" fill="black"/>
<path fill-rule="evenodd" clip-rule="evenodd" d="M7.59453 19.7981C6.46687 18.839 5.71123 17.7346 5.3799 16.6418C5.04858 15.549 5.12996 14.4562 5.68797 13.5262C6.12392 12.7996 6.9377 12.4334 7.92004 12.4741C8.90819 12.5206 10.0707 12.974 11.1926 13.8982C12.0935 14.648 12.7678 15.6827 13.0642 16.758C13.3665 17.8334 13.2968 18.9552 12.7329 19.8678C11.8436 21.3152 9.34995 21.2861 7.59453 19.7981ZM0.805336 14.9154C1.1541 16.014 1.49704 17.1068 1.83999 18.1996C3.47916 18.6123 3.39197 18.1879 3.96161 19.054C4.65913 20.1236 4.71145 19.862 4.57776 20.3386C4.47894 20.6874 4.2755 21.2628 4.07205 21.5942C5.01952 22.4138 5.96117 23.2217 6.90863 24.0355C7.02489 23.8437 7.79797 22.9834 7.92004 22.9427C8.44899 23.152 8.97794 23.3554 9.5069 23.5588C9.55921 23.7158 9.48364 23.524 9.59408 23.7855C9.63477 23.896 9.64059 23.9018 9.6929 24.0122C9.90797 24.5179 10.123 25.0178 10.3381 25.5177C11.303 25.5235 12.2679 25.5177 13.2328 25.5177C13.2909 25.2038 13.227 24.9074 13.1805 24.5819C13.1456 24.361 13.1107 24.1343 13.0759 23.9076C13.0526 23.7449 13.0526 23.739 13.0236 23.6053C13.1805 23.4833 13.413 23.4252 13.6164 23.3205C13.7676 23.2333 14.0059 22.995 14.2035 23.0125C14.4767 23.0415 15.7032 23.9367 15.9648 24.1575C16.4588 23.367 16.9587 22.5707 17.4528 21.7744C16.9994 21.4023 16.5867 20.9373 16.2438 20.5711C15.8427 20.1468 15.9183 20.4258 15.9357 19.9724C15.9415 19.7574 16.0113 19.612 16.0113 19.2982C16.0113 18.6239 16.0694 18.6936 16.6507 18.6065C17.011 18.5541 17.4296 18.4902 17.7551 18.4146C17.4179 17.3219 17.0692 16.2233 16.7262 15.1305C16.4065 15.0607 15.9764 14.991 15.5986 14.9329C14.5755 14.7875 14.9534 14.8399 14.0989 13.7006C13.7908 13.2995 13.785 13.4216 13.8955 13.0321C14.0001 12.6834 14.2035 12.1079 14.407 11.7708C13.4304 10.9744 12.4481 10.1781 11.4658 9.38176C11.2449 9.74796 10.9194 10.0444 10.6694 10.3002C10.2219 10.7536 10.6811 10.5327 9.46039 10.1258C8.81519 9.91072 8.87331 9.91653 8.56524 9.27713C8.37343 8.87606 8.17579 8.33548 7.9026 8.01579C6.93188 7.98672 5.95536 7.96347 4.98464 7.93441C5.01952 8.20179 5.07764 8.51568 5.14158 8.85862C5.17646 9.06788 5.1939 9.13182 5.22296 9.3062C5.25784 9.48058 5.29271 9.65496 5.32178 9.82353C4.93814 10.0153 4.5545 10.213 4.17087 10.4048C3.89767 10.3757 2.6712 9.48058 2.40382 9.2597C1.94462 10.0328 1.48542 10.8117 1.0204 11.5906C1.47379 11.9742 1.88649 12.4334 2.22944 12.7996C2.75258 13.3576 2.53751 12.8577 2.46776 14.0668C2.42707 14.7352 2.46195 14.6597 1.86905 14.741C1.52029 14.7875 1.12503 14.8457 0.805336 14.9154Z" fill="#ED712E"/>
<path fill-rule="evenodd" clip-rule="evenodd" d="M6.51918 13.5669C6.71681 13.5378 6.92606 13.5262 7.14113 13.532C8.12928 13.5785 9.29182 14.0319 10.4137 14.9561C11.3146 15.7059 11.9889 16.7406 12.2853 17.8159C12.3783 18.1589 12.4365 18.5018 12.4539 18.839C12.6283 18.2286 12.5876 17.5602 12.419 16.9382C12.1458 15.9675 11.5413 15.0549 10.7624 14.4155C9.97771 13.7645 8.93725 13.1949 7.89096 13.1484C7.39108 13.1251 6.87956 13.2356 6.51918 13.5669ZM0.0264282 15.9733C0.375188 17.0719 0.718135 18.1647 1.06108 19.2633C2.70025 19.6702 2.61306 19.2517 3.18271 20.1178C3.42684 20.4898 3.58959 20.699 3.70003 20.8327C3.79304 20.606 3.87441 20.3561 3.92673 20.1643C3.89766 20.1236 3.8686 20.0887 3.83954 20.0538C3.68841 19.8504 3.53728 19.6411 3.39777 19.426C3.35709 19.3563 3.24083 19.1819 3.17689 19.118C3.08389 19.0947 2.88626 19.0773 2.79907 19.0657C2.41543 19.0192 2.04924 18.9494 1.67141 18.8564L1.31103 18.7634L1.19477 18.403C0.933204 17.566 0.671634 16.7348 0.410064 15.8978C0.276373 15.921 0.142682 15.9501 0.0264282 15.9733ZM3.57215 22.0534C3.48496 22.2743 3.39196 22.4951 3.29315 22.6521C4.2348 23.4717 5.18226 24.2796 6.12973 25.0934C6.17623 25.0178 6.3448 24.8144 6.5308 24.6051L6.46686 24.547C5.52521 23.7332 4.57775 22.9195 3.63028 22.1057L3.57215 22.0534ZM7.6294 24.1924C7.99559 24.3377 8.36179 24.4772 8.72799 24.6168C8.7803 24.7737 8.70474 24.5819 8.81518 24.8434C8.85587 24.9539 8.86168 24.9597 8.91399 25.0701C9.12906 25.5758 9.34413 26.0757 9.5592 26.5756C10.5241 26.5814 11.489 26.5756 12.4539 26.5756C12.4772 26.4477 12.483 26.3199 12.4713 26.192C11.7622 26.192 11.0472 26.192 10.3381 26.192H9.89633L9.72196 25.7851C9.50689 25.2852 9.29182 24.7795 9.07094 24.2796C9.04187 24.2099 9.01281 24.1401 8.98375 24.082C8.67568 23.9599 8.3676 23.8379 8.05953 23.7158C7.91422 23.8611 7.75146 24.0471 7.6294 24.1924ZM13.8083 24.2506C14.2791 24.5296 14.994 25.0527 15.1859 25.2155L15.5288 24.6691C15.2905 24.4714 14.5697 23.9367 14.1919 23.7332C14.1105 23.7914 14.0233 23.8611 13.942 23.9076L13.9303 23.9134C13.8896 23.9367 13.8315 23.9599 13.7676 23.9832L13.8083 24.2506ZM16.6681 19.5365C16.7785 19.519 16.8832 19.4958 16.9762 19.4725L16.9064 19.2517L16.7437 19.2749C16.7262 19.2749 16.703 19.2807 16.6855 19.2807C16.6855 19.2865 16.6855 19.2924 16.6855 19.2982C16.6797 19.3854 16.6797 19.4609 16.6681 19.5365ZM4.48474 9.00394L4.20574 8.99232C4.22899 9.17251 4.26386 9.37014 4.30455 9.58521L4.56612 9.45152C4.56612 9.45152 4.56612 9.4457 4.56612 9.43989L4.56031 9.42827V9.41664C4.53706 9.27714 4.50799 9.14345 4.48474 9.00394ZM0.572819 12.0905L0.241497 12.6485C0.694885 13.0321 1.10758 13.4971 1.45053 13.8575C1.55516 13.968 1.63072 14.0377 1.68304 14.09L1.78185 14.0726C1.78767 14.0726 1.79348 14.0726 1.79348 14.0726C1.79929 14.0551 1.79929 14.0435 1.79929 14.0319C1.81092 13.7994 1.83998 13.6018 1.86904 13.3867C1.82254 13.346 1.78185 13.3053 1.74116 13.2588C1.36915 12.8636 1.00296 12.4567 0.590257 12.1021L0.572819 12.0905Z" fill="#ED712E"/>
<path d="M50.614 17.13C50.7012 12.2823 52.6078 6.02205 59.5365 6.2313C66.4652 6.44637 70.1213 5.89998 74.6959 3.04015C79.2763 0.186133 84.2694 -0.360257 85.74 2.07525C87.2106 4.51075 86.4549 6.65563 93.8021 4.8072C101.149 2.95877 103.922 11.8173 98.1674 14.1307C92.4187 16.4383 84.5251 17.9496 80.0726 12.073C75.6201 6.19061 74.8645 13.6657 69.4878 13.625C64.1169 13.5843 60.8385 10.9396 57.2695 12.7008C53.7006 14.462 53.7645 17.4032 53.7238 19.0599" stroke="#D7F0F7" stroke-width="0.5" stroke-linecap="round" stroke-linejoin="round"/>
<path d="M14.7732 30.1853C14.7732 30.1853 15.2789 29.3134 16.3077 29.0286C17.3365 28.7437 17.726 28.8949 17.726 28.8949" stroke="white" stroke-width="0.5" stroke-linecap="round" stroke-linejoin="round"/>
<path d="M16.639 30.1562C16.639 30.1562 17.4063 29.7145 18.5398 29.8656C19.6732 30.0109 20.7951 30.0865 20.7951 30.0865" stroke="white" stroke-width="0.5" stroke-linecap="round" stroke-linejoin="round"/>
<path d="M14.3372 32.1267C14.128 32.336 13.9826 32.9812 13.9245 33.3881" stroke="white" stroke-width="0.5" stroke-linecap="round" stroke-linejoin="round"/>
<path d="M13.07 32.6731C12.8259 33.2718 12.791 33.6787 12.884 34.3181" stroke="white" stroke-width="0.5" stroke-linecap="round" stroke-linejoin="round"/>
<path d="M89.9018 69.0546C88.2452 71.5889 85.3331 72.1353 81.8338 71.8098" stroke="black" stroke-width="0.5" stroke-linecap="round" stroke-linejoin="round"/>
</svg>
