<svg width="122" height="116" viewBox="0 0 122 116" fill="none" xmlns="http://www.w3.org/2000/svg">
<path fill-rule="evenodd" clip-rule="evenodd" d="M98.2374 27.1428L116.825 22.2718L106.21 39.4424L98.2374 27.1428ZM101.994 28.4274L106.193 34.5714L111.872 25.649L101.994 28.4274Z" fill="#D7F0F7"/>
<path d="M108.266 34.0192L109.055 34.8388" stroke="#6CA3B7" stroke-width="0.5" stroke-linecap="round" stroke-linejoin="round"/>
<path d="M110.13 31.8976L110.606 32.3335" stroke="#6CA3B7" stroke-width="0.5" stroke-linecap="round" stroke-linejoin="round"/>
<path d="M111.256 29.1772L112.046 29.9968" stroke="#6CA3B7" stroke-width="0.5" stroke-linecap="round" stroke-linejoin="round"/>
<path d="M113.027 27.2068L113.503 27.6427" stroke="#6CA3B7" stroke-width="0.5" stroke-linecap="round" stroke-linejoin="round"/>
<path d="M114.217 24.3876L115.007 25.2072" stroke="#6CA3B7" stroke-width="0.5" stroke-linecap="round" stroke-linejoin="round"/>
<path fill-rule="evenodd" clip-rule="evenodd" d="M94.5676 0.724262C94.5676 0.724262 101.448 -1.16485 104.05 3.45621C106.651 8.07728 104.387 13.0297 97.9703 11.9776C96.9135 11.809 95.967 11.5591 95.1308 11.251L91.7571 12.8204L92.4597 9.82689C88.6157 6.88569 89.6319 2.15418 94.5676 0.724262Z" fill="#ED712E"/>
<path fill-rule="evenodd" clip-rule="evenodd" d="M101.745 8.69342L98.8297 2.36925C98.8297 2.36925 98.551 1.64848 98.0516 2.06699C97.5522 2.4855 93.772 8.1761 93.772 8.1761C93.772 8.1761 93.1798 8.94337 94.3992 9.17587C95.6186 9.40838 101.402 9.51301 101.402 9.51301C101.402 9.51301 102.186 9.70483 101.745 8.69342Z" fill="white"/>
<path fill-rule="evenodd" clip-rule="evenodd" d="M98.7774 3.99679L97.6393 3.92704L97.6509 6.74037L98.4058 6.78687L98.7774 3.99679ZM97.9296 8.30397C98.098 8.3156 98.2432 8.2691 98.3593 8.17028C98.4813 8.06565 98.5452 7.93778 98.551 7.78083C98.5626 7.6297 98.5161 7.49601 98.4116 7.38557C98.3071 7.27513 98.1735 7.21119 97.9993 7.19957C97.8309 7.18794 97.6858 7.23444 97.5696 7.32745C97.4535 7.42626 97.3896 7.55414 97.378 7.71108C97.3664 7.86221 97.4129 8.00171 97.5232 8.11216C97.6277 8.22841 97.7613 8.29235 97.9296 8.30397Z" fill="#ED712E"/>
<path fill-rule="evenodd" clip-rule="evenodd" d="M112.876 54.4391C114.705 54.4275 118.811 54.1368 120.535 51.7885C122.776 48.7252 120.471 45.3655 115.71 45.2376C104.631 44.947 104.578 53.4567 110.675 54.3403L111.68 56.5375L112.876 54.4391Z" fill="white" stroke="black" stroke-width="0.5" stroke-linecap="round" stroke-linejoin="round"/>
<path fill-rule="evenodd" clip-rule="evenodd" d="M111.088 49.8006C111.407 49.8006 111.662 50.068 111.662 50.3935C111.662 50.719 111.407 50.9864 111.088 50.9864C110.768 50.9864 110.507 50.719 110.507 50.3935C110.507 50.068 110.768 49.8006 111.088 49.8006ZM117.208 48.888C117.527 48.888 117.783 49.1554 117.783 49.4809C117.783 49.8064 117.527 50.0738 117.208 50.0738C116.888 50.0738 116.627 49.8064 116.627 49.4809C116.627 49.1554 116.888 48.888 117.208 48.888ZM114.084 49.3995C114.403 49.3995 114.665 49.6611 114.665 49.9924C114.665 50.3179 114.403 50.5795 114.084 50.5795C113.764 50.5795 113.509 50.3179 113.509 49.9924C113.509 49.6611 113.764 49.3995 114.084 49.3995Z" fill="black"/>
<path fill-rule="evenodd" clip-rule="evenodd" d="M38.887 33.6414C41.1284 30.5781 38.8231 27.2184 34.0616 27.0905C26.7162 26.8987 24.2193 30.5723 25.1483 33.3275L23.8999 35.5944L26.4897 35.1701C27.1459 35.6758 27.9994 36.0478 29.033 36.1931C32.1803 36.3268 36.8489 36.4198 38.887 33.6414Z" fill="white" stroke="black" stroke-width="0.5" stroke-linecap="round" stroke-linejoin="round"/>
<path fill-rule="evenodd" clip-rule="evenodd" d="M29.4395 31.6534C29.7589 31.6534 30.0144 31.9208 30.0144 32.2463C30.0144 32.5718 29.7589 32.8334 29.4395 32.8334C29.1201 32.8334 28.8588 32.5718 28.8588 32.2463C28.8588 31.9208 29.1201 31.6534 29.4395 31.6534ZM35.5598 30.7409C35.8791 30.7409 36.1346 31.0082 36.1346 31.3337C36.1346 31.6593 35.8791 31.9266 35.5598 31.9266C35.2404 31.9266 34.9791 31.6593 34.9791 31.3337C34.9791 31.0082 35.2404 30.7409 35.5598 30.7409ZM32.4416 31.2524C32.7609 31.2524 33.0164 31.5139 33.0164 31.8453C33.0164 32.1708 32.7609 32.4323 32.4416 32.4323C32.1222 32.4323 31.8609 32.1708 31.8609 31.8453C31.8609 31.5139 32.1222 31.2524 32.4416 31.2524Z" fill="black"/>
<path fill-rule="evenodd" clip-rule="evenodd" d="M33.6958 4.72338L32.6506 16.6045L42.5742 14.82L43.5149 2.87495L33.6958 4.72338Z" fill="#ED712E"/>
<path fill-rule="evenodd" clip-rule="evenodd" d="M34.4855 5.62434L34.1893 8.8213L42.2839 7.36232L42.5394 4.10723L34.4855 5.62434Z" fill="white"/>
<path d="M35.3739 9.43745L35.2694 10.6465L34.0616 10.7918" stroke="black" stroke-width="0.5" stroke-linecap="round" stroke-linejoin="round"/>
<path d="M37.4585 9.16425L37.354 10.3675L36.1462 10.5128" stroke="black" stroke-width="0.5" stroke-linecap="round" stroke-linejoin="round"/>
<path d="M39.5896 8.72249L39.4851 9.93152L38.2773 10.0768" stroke="black" stroke-width="0.5" stroke-linecap="round" stroke-linejoin="round"/>
<path d="M41.6684 8.28654L41.5639 9.49557L40.3561 9.64089" stroke="black" stroke-width="0.5" stroke-linecap="round" stroke-linejoin="round"/>
<path d="M35.2694 11.4835L35.1649 12.6867L33.9571 12.8379" stroke="black" stroke-width="0.5" stroke-linecap="round" stroke-linejoin="round"/>
<path d="M37.354 11.2045L37.2495 12.4135L36.0417 12.5589" stroke="black" stroke-width="0.5" stroke-linecap="round" stroke-linejoin="round"/>
<path d="M39.4851 10.7685L39.3805 11.9718L38.1727 12.1171" stroke="black" stroke-width="0.5" stroke-linecap="round" stroke-linejoin="round"/>
<path d="M41.5638 10.3326L41.4593 11.5416L40.2515 11.6869" stroke="black" stroke-width="0.5" stroke-linecap="round" stroke-linejoin="round"/>
<path d="M35.1591 13.4772L35.0545 14.6863L33.8467 14.8316" stroke="black" stroke-width="0.5" stroke-linecap="round" stroke-linejoin="round"/>
<path d="M37.2379 13.204L37.1333 14.4073L35.9255 14.5584" stroke="black" stroke-width="0.5" stroke-linecap="round" stroke-linejoin="round"/>
<path d="M39.3689 12.7623L39.2644 13.9713L38.0566 14.1166" stroke="black" stroke-width="0.5" stroke-linecap="round" stroke-linejoin="round"/>
<path d="M41.4477 12.3322L41.3432 13.5354L40.1412 13.6865" stroke="black" stroke-width="0.5" stroke-linecap="round" stroke-linejoin="round"/>
<path fill-rule="evenodd" clip-rule="evenodd" d="M65.1624 29.7236L62.4158 32.6183C62.4158 32.6183 56.7601 25.9454 56.0691 24.7887C55.3781 23.632 55.1458 23.1728 55.1458 23.1728C55.1458 23.1728 55.0645 20.5048 55.291 19.4992C55.5232 18.4878 56.2897 17.209 56.1097 16.8486C55.9297 16.494 55.2503 16.2964 54.6522 17.1218C54.0541 17.953 53.4793 19.0748 53.4793 19.0748C53.4793 19.0748 50.605 15.5524 49.7746 15.1513C48.95 14.7502 48.4449 15.1397 48.4449 15.1397C48.4449 15.1397 47.9223 14.541 47.1732 15.0118C46.4299 15.4884 47.4577 16.2441 48.2358 17.5461C49.0081 18.8481 49.5249 20.0223 49.5249 20.0223C49.5249 20.0223 46.79 17.2264 46.1454 17.0288C45.5067 16.8311 44.9608 17.3427 45.6634 18.1739C46.3661 19.0051 46.79 19.4759 47.3416 20.1792C47.899 20.8826 48.1603 21.4406 48.1603 21.4406C48.1603 21.4406 46.3254 20.4931 45.2744 20.4117C44.2292 20.3246 44.5834 21.3418 45.077 21.4929C45.5705 21.6382 47.9106 22.9926 48.9559 23.8122C50.0069 24.6317 50.5759 25.2828 50.5759 25.2828L57.8924 37.3557C58.5659 38.4601 60.4125 40.3376 63.6178 38.8204C66.8289 37.3092 70.8994 34.118 70.8994 34.118L65.1624 29.7236Z" fill="white" stroke="black" stroke-width="0.5" stroke-linecap="round" stroke-linejoin="round"/>
<path fill-rule="evenodd" clip-rule="evenodd" d="M57.1956 95.6857C57.1956 95.6857 56.5452 102.103 55.6045 105.085C54.6697 108.067 53.4851 111.421 57.0736 111.008C60.668 110.601 62.4216 106.515 63.1997 103.94C63.972 101.365 64.3436 99.6907 64.3436 99.6907L63.8907 94.7034L57.1956 95.6857Z" fill="white" stroke="black" stroke-width="0.5" stroke-linecap="round" stroke-linejoin="round"/>
<path fill-rule="evenodd" clip-rule="evenodd" d="M63.914 95.616C63.914 95.616 63.612 99.493 62.921 103.161C62.23 106.829 60.4241 111.938 64.0301 111.659C67.6419 111.38 69.7032 106.218 70.342 102.725C70.9749 99.2315 71.1317 97.9178 71.1317 97.9178L70.8181 93.5932L63.914 95.616Z" fill="white" stroke="black" stroke-width="0.5" stroke-linecap="round" stroke-linejoin="round"/>
<path fill-rule="evenodd" clip-rule="evenodd" d="M88.5228 48.7601C88.9002 48.6787 89.4461 52.9568 89.1093 56.9908C88.7725 61.0248 85.7123 64.2974 82.478 66.7735C79.2495 69.2497 72.3279 71.7317 72.3279 71.7317C72.1072 79.3289 71.4685 87.083 71.364 94.6162C70.6962 97.7725 64.8082 98.7199 63.4959 95.9996C63.4959 95.9996 61.6319 97.4063 59.2396 97.447C56.8472 97.4935 56.2375 96.4007 56.2375 96.4007C55.5407 90.5706 50.4598 66.727 54.4665 61.7688C59.0538 56.1073 66.6954 52.4686 71.9272 50.2888L88.5228 48.7601Z" fill="#D7F0F7"/>
<path d="M64.6804 61.4143C64.1985 61.7049 60.4647 64.0823 60.9467 70.0228C61.4287 75.9692 63.4088 95.0231 63.4436 95.3312" stroke="black" stroke-width="0.5" stroke-linecap="round" stroke-linejoin="round"/>
<path fill-rule="evenodd" clip-rule="evenodd" d="M82.3618 24.3004L86.653 22.6729C86.653 22.6729 91.1532 23.6727 92.7268 27.4276C94.2946 31.1884 94.7824 33.5193 94.7824 33.5193L89.0105 36.3326C89.0105 36.3326 87.1465 41.7675 87.9827 45.2551C88.8247 48.7427 89.2195 48.888 88.7608 49.8122C88.2963 50.7364 86.1188 53.0847 79.6559 53.9276C73.1988 54.7646 70.4697 51.6606 70.2606 51.1956C70.0516 50.7364 71.2013 45.7143 71.1607 43.5345C71.12 41.349 70.8239 39.2913 70.8239 39.2913C70.8239 39.2913 69.3374 38.245 68.8554 37.2569C68.3735 36.2687 69.0412 34.025 69.0412 34.025L64.1926 30.1654C64.1926 30.1654 66.2947 27.2416 67.636 25.8757C68.9774 24.5097 70.4987 23.3762 72.833 22.9228C72.833 22.9228 73.1814 22.8938 73.7853 22.8531C76.6945 22.8647 82.3618 24.3004 82.3618 24.3004Z" fill="black" stroke="black" stroke-width="0.2" stroke-linecap="round" stroke-linejoin="round"/>
<path d="M63.6642 34.0599L62.4158 32.6183" stroke="black" stroke-width="0.5" stroke-linecap="round" stroke-linejoin="round"/>
<path d="M51.3947 22.0393C51.3947 22.0393 52.4631 21.0279 52.8521 20.3478C53.2412 19.6619 53.4792 19.0748 53.4792 19.0748" stroke="black" stroke-width="0.5" stroke-linecap="round" stroke-linejoin="round"/>
<path d="M51.1973 19.1213C50.5585 18.0634 49.4843 16.3545 48.4449 15.1397" stroke="black" stroke-width="0.5" stroke-linecap="round" stroke-linejoin="round"/>
<path d="M70.6381 28.0089C70.6381 28.0089 70.4581 29.8457 70.1677 30.9792C69.9935 31.636 69.68 32.4498 69.4419 33.0252" stroke="white" stroke-width="0.5" stroke-linecap="round" stroke-linejoin="round"/>
<path fill-rule="evenodd" clip-rule="evenodd" d="M51.3714 43.4125L50.6746 44.0751L55.3606 59.4263L77.0719 62.5652L87.7679 54.1252L74.8015 52.8057L72.804 46.2548L51.3714 43.4125Z" fill="#ED712E"/>
<path d="M51.3831 44.1681L72.1478 46.9407L76.8048 61.8444" stroke="white" stroke-width="0.5" stroke-linecap="round" stroke-linejoin="round"/>
<path fill-rule="evenodd" clip-rule="evenodd" d="M70.1271 11.7334C70.4175 13.2854 70.7194 14.6165 71.0678 15.7151C71.3466 16.5056 71.7937 17.4647 72.4556 18.2901C73.8725 20.0455 75.9977 19.9467 75.9977 19.9467L76.1255 22.0451L72.8331 22.9228C72.8331 22.9228 70.7949 30.2758 77.2984 29.9387C83.8019 29.6016 86.653 22.6729 86.653 22.6729L81.8277 21.6266C81.8277 21.6266 81.3457 18.2204 81.305 17.0695C81.2644 15.9127 81.3457 15.1164 81.3457 15.1164C81.3457 15.1164 82.6058 14.9595 82.9425 13.4017C83.2735 11.8497 82.7451 11.0243 82.5128 10.7569C85.602 0.39875 67.6709 -1.42643 70.1271 11.7334Z" fill="white"/>
<path fill-rule="evenodd" clip-rule="evenodd" d="M75.9977 19.9467C75.9977 19.9467 73.8724 20.0456 72.4556 18.2901C71.7936 17.4647 71.3465 16.5056 71.0678 15.7151C70.7194 14.6165 70.4175 13.2854 70.1271 11.7334C69.9936 11.0301 69.9239 10.3733 69.9065 9.75714C69.9703 9.60601 71.1607 6.85662 73.7853 5.78128C73.7853 5.78128 73.7389 8.07147 75.7945 9.29213C77.85 10.507 79.6327 10.4256 79.6327 10.4256C79.6327 10.4256 79.6037 11.4951 79.7314 12.1752C79.8534 12.8611 80.2308 13.2041 80.2947 13.1517C80.3585 13.0994 80.0972 11.3556 81.1134 10.7918C82.1296 10.2222 82.5128 10.7569 82.5128 10.7569C82.7451 11.0243 83.2735 11.8497 82.9425 13.4017C82.6057 14.9595 81.3457 15.1164 81.3457 15.1164C81.3457 15.1164 81.2644 15.9128 81.305 17.0695C81.3399 18.0169 81.6709 20.4873 81.787 21.336C85.3349 20.3594 87.164 18.3773 87.164 18.3773C87.0769 13.2854 85.091 -1.81006 77.1939 1.64266C77.1939 1.64266 74.5925 -0.327831 71.904 1.95655C69.2213 4.24674 68.1064 8.48998 67.607 13.2099C67.1018 17.9356 66.1147 20.7896 66.1147 20.7896C66.1147 20.7896 66.9044 21.15 67.5547 20.3943C68.2051 19.6387 69.1458 17.4299 69.1458 17.4299C69.1458 17.4299 68.7916 21.0221 69.4187 21.4871C69.8484 21.801 72.8679 22.1149 76.1255 22.0277L75.9977 19.9467Z" fill="#ED712E"/>
<path d="M81.2295 14.0353C81.2295 14.0353 81.0088 13.3319 81.2876 12.3031C81.5721 11.2742 82.2108 11.4602 82.2108 11.4602" stroke="black" stroke-width="0.5" stroke-linecap="round" stroke-linejoin="round"/>
<path d="M82.1237 13.1169L81.2527 12.4484" stroke="black" stroke-width="0.5" stroke-linecap="round" stroke-linejoin="round"/>
<path fill-rule="evenodd" clip-rule="evenodd" d="M71.4453 12.0299C71.6891 11.9427 71.9621 12.0996 72.055 12.3728C72.1537 12.6518 72.0375 12.9425 71.7937 13.0297C71.5498 13.111 71.2769 12.9541 71.184 12.6809C71.0852 12.4019 71.2014 12.1113 71.4453 12.0299ZM75.748 12.2333C75.9919 12.1461 76.2648 12.3031 76.3635 12.5821C76.4564 12.8553 76.3403 13.1459 76.1022 13.2331C75.8584 13.3145 75.5854 13.1634 75.4867 12.8844C75.3938 12.6112 75.51 12.3147 75.748 12.2333Z" fill="black"/>
<path d="M73.4776 12.1287C73.4776 12.1287 73.3847 13.6923 73.2918 14.3782C73.1989 15.0583 73.0711 15.5117 73.0711 15.5117C73.4485 15.6105 73.9189 15.6105 74.3195 15.4884" stroke="black" stroke-width="0.5" stroke-linecap="round" stroke-linejoin="round"/>
<path d="M71.8342 14.1803C72.7697 13.7342 73.1384 12.5399 72.6577 11.5128C72.177 10.4856 71.029 10.0146 70.0936 10.4607C69.1581 10.9068 68.7894 12.101 69.27 13.1282C69.7507 14.1553 70.8987 14.6263 71.8342 14.1803Z" stroke="black" stroke-width="0.6776" stroke-linecap="round" stroke-linejoin="round"/>
<path d="M77.0399 14.1748C77.9753 13.7287 78.344 12.5344 77.8634 11.5073C77.3827 10.4802 76.2347 10.0091 75.2992 10.4552C74.3638 10.9013 73.9951 12.0956 74.4757 13.1227C74.9564 14.1498 76.1044 14.6209 77.0399 14.1748Z" stroke="black" stroke-width="0.6776" stroke-linecap="round" stroke-linejoin="round"/>
<path d="M80.6198 11.2917L78.0591 12.181" stroke="black" stroke-width="0.5" stroke-linecap="round" stroke-linejoin="round"/>
<path d="M72.8679 12.3263L74.2731 12.3612" stroke="black" stroke-width="0.5" stroke-linecap="round" stroke-linejoin="round"/>
<path d="M79.952 17.4124C79.2552 18.7377 78.0126 19.5515 76.5551 19.8654" stroke="black" stroke-width="0.5" stroke-linecap="round" stroke-linejoin="round"/>
<path d="M75.5101 17.9067C75.8069 17.8076 75.9616 17.4369 75.8557 17.0788C75.7498 16.7206 75.4234 16.5106 75.1266 16.6097C74.8298 16.7088 74.675 17.0795 74.7809 17.4377C74.8868 17.7958 75.2133 18.0058 75.5101 17.9067Z" fill="black" stroke="black" stroke-width="0.616691" stroke-linecap="round" stroke-linejoin="round"/>
<path d="M74.2499 16.6393L75.1964 16.5928" stroke="black" stroke-width="0.5" stroke-linecap="round" stroke-linejoin="round"/>
<path d="M86.6588 32.6416L87.855 36.3791" stroke="white" stroke-width="0.5" stroke-linecap="round" stroke-linejoin="round"/>
<path fill-rule="evenodd" clip-rule="evenodd" d="M88.5692 36.5012L89.986 42.3952L82.9367 50.7073C82.9367 50.7073 78.4481 52.3639 77.8384 52.9568C77.2345 53.5439 76.0383 54.7936 75.8873 54.9738C75.7422 55.154 76.0557 55.4563 76.3286 55.5086C76.6016 55.5609 76.8222 55.5086 76.8222 55.5086C76.8222 55.5086 75.9396 57.0315 76.0906 57.3861C76.2357 57.7465 76.9383 57.421 76.9383 57.421C76.9383 57.421 77.0022 58.008 77.3448 58.0313C77.6932 58.0487 78.2158 57.5663 78.2158 57.5663C78.2158 57.5663 78.3203 58.0487 78.901 57.9557C79.4759 57.8627 79.7662 57.2815 79.7662 57.2815C79.7662 57.2815 80.1378 58.1359 80.9856 57.2756C83.0005 55.2296 82.385 56.1829 84.4754 54.5204C85.4858 53.7241 86.0723 52.9917 86.0723 52.9917C86.0723 52.9917 95.5488 47.7429 95.8217 43.4357C96.0947 39.1343 94.3468 33.7286 94.3468 33.7286L88.5692 36.5012Z" fill="white" stroke="black" stroke-width="0.5" stroke-linecap="round" stroke-linejoin="round"/>
<path d="M81.7579 54.7936C81.3979 55.0436 80.4108 56.0027 79.7662 57.2815" stroke="black" stroke-width="0.5" stroke-linecap="round" stroke-linejoin="round"/>
<path d="M80.5153 54.4972C79.7662 55.1192 78.6397 56.4677 78.2158 57.5663" stroke="black" stroke-width="0.5" stroke-linecap="round" stroke-linejoin="round"/>
<path d="M79.4643 54.3286C78.21 55.3865 77.5423 56.1945 76.9384 57.421" stroke="black" stroke-width="0.5" stroke-linecap="round" stroke-linejoin="round"/>
<path d="M78.4597 53.8811C77.9081 54.317 77.1996 54.9273 76.8222 55.5086" stroke="black" stroke-width="0.5" stroke-linecap="round" stroke-linejoin="round"/>
<path d="M76.8687 1.91586C76.8687 1.91586 76.0616 2.22393 75.2428 3.0377C74.4241 3.85729 74.006 4.81638 74.006 4.81638" stroke="white" stroke-width="0.5" stroke-linecap="round" stroke-linejoin="round"/>
<path d="M75.9803 5.29883C75.9803 5.29883 76.4797 7.56577 78.8488 8.42604C81.2237 9.28632 82.0599 9.05381 82.0599 9.05381" stroke="white" stroke-width="0.5" stroke-linecap="round" stroke-linejoin="round"/>
<path d="M78.7443 5.86266C78.7443 5.86266 79.1217 6.95544 80.5269 7.35651C81.9321 7.75177 82.5418 7.79827 82.5418 7.79827" stroke="white" stroke-width="0.5" stroke-linecap="round" stroke-linejoin="round"/>
<path d="M81.6418 6.13585C81.6418 6.13585 82.4373 6.26373 83.0644 6.81012C83.6974 7.35651 83.9296 7.6297 83.9296 7.6297" stroke="white" stroke-width="0.5" stroke-linecap="round" stroke-linejoin="round"/>
<path d="M84.8704 14.5351C84.8704 14.5351 85.12 15.7326 85.12 16.7846C85.12 17.8309 85.12 17.8309 85.12 17.8309V17.7263" stroke="white" stroke-width="0.5" stroke-linecap="round" stroke-linejoin="round"/>
<path d="M83.738 15.4826C83.738 15.4826 83.8251 16.2964 83.9064 16.8253C83.9877 17.3485 83.9877 17.3892 83.9877 17.3892" stroke="white" stroke-width="0.5" stroke-linecap="round" stroke-linejoin="round"/>
<path d="M71.0097 18.8423L70.9865 20.0804" stroke="white" stroke-width="0.5" stroke-linecap="round" stroke-linejoin="round"/>
<path d="M91.2461 42.3952H89.986" stroke="black" stroke-width="0.5" stroke-linecap="round" stroke-linejoin="round"/>
<path d="M84.1039 22.1381L81.8218 21.644C81.8218 21.644 81.3457 18.2204 81.305 17.0695C81.2644 15.9128 81.3457 15.1164 81.3457 15.1164C81.3457 15.1164 82.6057 14.9595 82.9425 13.4017C83.2735 11.8497 82.7451 11.0243 82.5128 10.7569M76.0674 20.9116L76.1487 22.0742L74.0873 22.6264L76.0674 20.9116Z" stroke="black" stroke-width="0.5" stroke-linecap="round" stroke-linejoin="round"/>
<path d="M72.0898 77.6665C72.1827 75.6785 72.2698 73.6964 72.3279 71.7317C72.3279 71.7317 79.2495 69.2497 82.478 66.7735C85.7123 64.2973 88.7725 61.0248 89.1092 56.9908C89.446 52.9568 89.0628 51.12 89.0628 51.12M55.9936 60.0715C55.4536 60.6179 54.9426 61.1818 54.4664 61.7688C52.8986 63.7103 52.7244 68.5464 53.1309 74.0626L55.9936 60.0715Z" stroke="black" stroke-width="0.5" stroke-linecap="round" stroke-linejoin="round"/>
<path fill-rule="evenodd" clip-rule="evenodd" d="M97.6509 61.5015C97.6509 61.5015 96.3328 62.2339 95.4501 64.0823C94.5733 65.9307 94.0449 68.6394 94.0449 68.6394C94.0449 68.6394 91.7164 71.2667 91.548 71.7899C91.3796 72.313 93.3307 72.6618 93.3307 72.6618C93.3307 72.6618 92.9649 73.8592 92.9881 73.9929C93.0055 74.1324 96.0714 74.33 96.3211 74.4579C96.3095 74.7253 93.8765 75.882 93.4352 76.1784C92.9939 76.4691 93.8243 77.3933 93.8243 77.3933C93.8243 77.3933 92.779 80.753 93.8649 81.1541C94.9566 81.5551 99.509 80.7995 99.509 80.7995L99.7819 84.3045L108.527 82.5375L107.859 75.818C107.859 75.818 112.261 70.7378 110.71 65.6168C109.154 60.4959 101.774 59.066 97.6509 61.5015Z" fill="white" stroke="black" stroke-width="0.5" stroke-linecap="round" stroke-linejoin="round"/>
<path d="M96.6045 69.8987C96.9313 69.931 97.2287 69.6285 97.2687 69.2229C97.3088 68.8173 97.0764 68.4623 96.7497 68.4299C96.4229 68.3975 96.1255 68.7001 96.0854 69.1057C96.0454 69.5113 96.2778 69.8663 96.6045 69.8987Z" fill="black"/>
<path d="M96.0366 66.7154C96.0366 66.7154 96.4373 66.4771 97.1689 66.6457C97.9064 66.8142 98.0806 67.1921 98.0806 67.1921" stroke="black" stroke-width="0.5" stroke-linecap="round" stroke-linejoin="round"/>
<path fill-rule="evenodd" clip-rule="evenodd" d="M60.9409 76.4923C60.9409 76.4923 64.0358 94.1628 63.6816 94.1977C63.3332 94.2326 87.5936 88.6524 87.5936 88.6524L84.9748 70.9063L60.9409 76.4923Z" fill="#ED712E"/>
<path fill-rule="evenodd" clip-rule="evenodd" d="M94.8927 59.1532C94.5152 61.9665 96.0482 62.6814 97.4941 63.1116C98.9399 63.5417 101.408 63.5243 101.257 65.3727C101.112 67.2153 100.525 67.4071 101.025 68.4127C101.53 69.4241 100.798 71.2261 101.553 71.3772C102.308 71.5225 102.244 69.3834 104.427 70.1972C106.605 71.0168 105.536 73.9987 104.532 74.795C103.521 75.5972 103.336 75.4054 103.585 76.5388C103.841 77.6723 104.485 79.2882 105.432 79.3522C106.378 79.4161 106.082 78.5791 107.278 78.6604C108.475 78.7418 108.684 78.4105 109.415 76.8527C110.153 75.3007 111.767 75.324 112.435 74.1266C113.108 72.9292 112.772 71.6504 113.486 70.4704C114.2 69.2962 116.36 67.785 115.686 66.1574C115.019 64.5299 113.695 63.3964 113.718 62.6408C113.735 61.8851 113.73 59.6705 112.104 59.6065C110.478 59.5426 108.66 60.3854 107.412 58.9439C106.169 57.5082 105.107 55.9097 103.638 56.8572C100.996 58.5544 95.4559 54.9622 94.8927 59.1532Z" fill="black" stroke="black" stroke-width="0.2" stroke-linecap="round" stroke-linejoin="round"/>
<path d="M103.098 74.144C103.098 74.144 102.679 72.685 103.307 71.8248C103.94 70.9645 104.723 71.5399 104.723 71.5399" stroke="black" stroke-width="0.5" stroke-linecap="round" stroke-linejoin="round"/>
<path d="M104.317 73.214L103.19 72.0166" stroke="black" stroke-width="0.5" stroke-linecap="round" stroke-linejoin="round"/>
<path fill-rule="evenodd" clip-rule="evenodd" d="M90.4157 91.1344C90.4157 91.1344 86.9607 90.6868 86.5891 90.3323C86.2174 89.9777 85.8981 89.193 86.4845 88.635C87.0768 88.077 88.5691 86.7284 88.5691 86.7284C88.5691 86.7284 85.9387 84.8102 85.1374 84.1941C84.3302 83.578 83.3373 82.9792 83.5115 82.3922C83.6915 81.7993 85.0967 82.5375 86.2058 82.9851C87.3149 83.4326 89.6666 84.5022 89.6666 84.5022C89.6666 84.5022 90.0615 83.95 90.5434 83.7814C91.0312 83.6128 91.188 83.7988 91.4086 83.6768C91.6351 83.5547 92.0822 82.9211 92.419 83.0722C92.7558 83.2234 92.9706 83.3861 93.3074 83.1653C93.6384 82.9386 94.2481 82.9037 94.7591 83.2699C95.2701 83.6303 97.7089 87.1469 97.6624 86.8447C97.6102 86.5366 90.4157 91.1344 90.4157 91.1344Z" fill="white" stroke="black" stroke-width="0.5" stroke-linecap="round" stroke-linejoin="round"/>
<path d="M63.2635 77.5851L79.7488 73.8475" stroke="black" stroke-width="0.5" stroke-linecap="round" stroke-linejoin="round"/>
<path d="M81.4153 72.9233L83.0702 73.9057" stroke="black" stroke-width="0.5" stroke-linecap="round" stroke-linejoin="round"/>
<path d="M82.8031 72.5572L81.6418 74.2719" stroke="black" stroke-width="0.5" stroke-linecap="round" stroke-linejoin="round"/>
<path fill-rule="evenodd" clip-rule="evenodd" d="M63.8558 79.9625L65.5514 89.9137L74.3602 87.9374L72.6994 77.9222L63.8558 79.9625Z" fill="white"/>
<path fill-rule="evenodd" clip-rule="evenodd" d="M75.1382 77.3352L75.3473 78.4279L83.6335 76.4749L83.4418 75.3414L75.1382 77.3352Z" fill="white"/>
<path fill-rule="evenodd" clip-rule="evenodd" d="M75.6841 80.1659L75.8931 81.2587L81.4327 79.9567L81.2411 78.8232L75.6841 80.1659Z" fill="white"/>
<path d="M76.3228 83.2524L83.1283 81.6772" stroke="white" stroke-width="0.5" stroke-linecap="round" stroke-linejoin="round"/>
<path d="M76.7003 84.9788L82.414 83.6245" stroke="white" stroke-width="0.5" stroke-linecap="round" stroke-linejoin="round"/>
<path d="M76.9848 86.7865L83.4941 85.252" stroke="white" stroke-width="0.5" stroke-linecap="round" stroke-linejoin="round"/>
<path fill-rule="evenodd" clip-rule="evenodd" d="M70.6497 92.9421C70.6497 92.9421 68.8264 90.8845 68.0076 88.1758C67.1889 85.4671 67.0437 83.3687 66.3527 83.514C65.6559 83.6593 65.4294 84.6242 65.4294 85.8042C65.4294 86.9784 65.592 87.9665 65.592 87.9665L62.4448 85.3334L62.1835 83.7698C62.1835 83.7698 60.517 84.3162 60.2034 85.0311C59.8898 85.7461 60.3486 87.0249 60.3486 87.0249C60.3486 87.0249 59.8027 87.3271 59.8027 88.0711C59.8027 88.821 60.4357 89.4894 60.4357 89.4894C60.4357 89.4894 60.0118 90.0474 60.0524 90.559C60.0989 91.0763 60.6099 91.6634 60.6099 91.6634C60.6099 91.6634 60.2615 93.413 61.2602 94.1512C62.259 94.8894 65.1391 97.2145 65.1391 97.2145L70.6497 92.9421Z" fill="white" stroke="black" stroke-width="0.5" stroke-linecap="round" stroke-linejoin="round"/>
<path fill-rule="evenodd" clip-rule="evenodd" d="M86.7749 94.0931C86.7749 94.0931 89.4169 89.1407 92.7152 87.6468C93.6094 87.2457 95.2469 86.7633 97.2386 86.2808C97.2386 86.2808 97.587 84.1069 98.487 83.7523C99.3929 83.3978 107.615 82.1132 107.615 82.1132C107.615 82.1132 109.833 81.59 110.339 82.0957C110.844 82.5956 111.517 83.6419 111.517 83.6419C112.15 83.5663 112.696 83.514 113.12 83.4908C116.935 83.2815 120.21 84.2871 121.093 90.2509C121.865 95.5113 121.145 110.555 120.959 114.042H77.1183C72.0142 108.857 68.7335 104.672 64.1171 97.197C64.5004 92.3202 69.529 91.3437 70.5684 92.2446L83.0238 102.998C83.0238 102.998 86.2116 94.994 86.7749 94.0931Z" fill="#ED712E"/>
<path d="M81.3108 107.468L83.0238 102.998" stroke="black" stroke-width="0.5" stroke-linecap="round" stroke-linejoin="round"/>
<path d="M96.0366 101.754L91.757 114.042" stroke="black" stroke-width="0.5" stroke-linecap="round" stroke-linejoin="round"/>
<path d="M65.1797 98.9001C65.1797 98.9001 65.3133 96.2263 67.3631 94.6046C69.4186 92.9828 71.8226 93.3316 71.8226 93.3316" stroke="#A94D4D" stroke-width="0.5" stroke-linecap="round" stroke-linejoin="round"/>
<path d="M64.3494 95.895L65.5455 97.2435" stroke="#A94D4D" stroke-width="0.5" stroke-linecap="round" stroke-linejoin="round"/>
<path d="M65.0346 94.3953L66.3585 95.6683" stroke="#A94D4D" stroke-width="0.5" stroke-linecap="round" stroke-linejoin="round"/>
<path d="M66.1959 93.134L67.485 94.5116" stroke="#A94D4D" stroke-width="0.5" stroke-linecap="round" stroke-linejoin="round"/>
<path d="M67.6476 92.3028L68.8322 93.7559" stroke="#A94D4D" stroke-width="0.5" stroke-linecap="round" stroke-linejoin="round"/>
<path d="M69.3025 91.9482L70.3884 93.3549" stroke="#A94D4D" stroke-width="0.5" stroke-linecap="round" stroke-linejoin="round"/>
<path d="M61.7015 84.8044L62.4448 85.3334" stroke="black" stroke-width="0.5" stroke-linecap="round" stroke-linejoin="round"/>
<path d="M90.3518 84.8044L89.6666 84.5022" stroke="black" stroke-width="0.5" stroke-linecap="round" stroke-linejoin="round"/>
<path d="M104.102 59.7983C104.102 59.7983 105.438 59.6821 106.222 60.1994C107 60.7168 107.29 61.67 107.29 61.67" stroke="white" stroke-width="0.5" stroke-linecap="round" stroke-linejoin="round"/>
<path d="M109.543 69.1044C109.543 69.1044 109.816 70.5925 109.456 71.226C109.102 71.8538 108.643 72.127 108.643 72.127" stroke="white" stroke-width="0.5" stroke-linecap="round" stroke-linejoin="round"/>
<path d="M111.128 70.4762C111.128 70.4762 111.738 69.2788 111.633 68.4011C111.529 67.5176 110.966 66.791 110.966 66.791" stroke="white" stroke-width="0.5" stroke-linecap="round" stroke-linejoin="round"/>
<path d="M104.114 61.8618C103.835 61.1585 102.703 60.9725 101.948 61.1585" stroke="white" stroke-width="0.5" stroke-linecap="round" stroke-linejoin="round"/>
<path d="M98.9922 85.9553C103.591 84.9614 106.878 84.3743 111.517 83.6419" stroke="#A94D4D" stroke-width="0.5" stroke-linecap="round" stroke-linejoin="round"/>
<path fill-rule="evenodd" clip-rule="evenodd" d="M10.08 82.1306C10.08 82.1306 11.2936 91.2449 14.6498 99.0513C16.897 104.277 20.3056 111.002 22.3147 114.885H47.7655L36.425 76.5039L10.08 82.1306Z" fill="black"/>
<path fill-rule="evenodd" clip-rule="evenodd" d="M12.0716 43.7961L10.5387 43.581C10.5387 43.581 0.847268 47.9115 0.893721 55.1308C0.934368 62.3559 2.10732 66.047 3.87256 68.8603C5.63199 71.6736 8.2334 73.0628 8.2334 73.0628L9.02892 82.5084C9.02892 82.5084 8.98827 84.7347 10.6025 84.7754C12.2168 84.8219 24.1728 84.9032 30.6763 82.2992C37.1798 79.6951 37.7199 78.5616 37.5108 77.091C37.3018 75.6204 34.8688 66.634 34.8688 66.634C34.8688 66.634 40.6987 64.495 39.8219 59.4961C38.9393 54.503 34.2649 47.0047 30.717 44.296C27.1749 41.5873 20.0384 42.3255 20.0384 42.3255C20.0384 42.3255 16.206 45.4527 12.0716 43.7961Z" fill="#D7F0F7"/>
<path fill-rule="evenodd" clip-rule="evenodd" d="M20.9559 25.3409C20.9559 25.3409 22.2798 31.8453 22.396 34.397C22.5121 36.9546 21.7688 38.8611 20.8862 39.6168C19.9978 40.3782 18.5984 40.5933 18.5984 40.5933L19.1268 42.3022L20.0384 42.3255C20.0384 42.3255 20.7933 46.7257 15.9912 47.3186C11.189 47.9056 10.5387 43.581 10.5387 43.581L11.2123 43.18L10.5851 37.3847C9.75477 37.0011 7.87921 36.0013 7.51338 34.6818C7.03723 32.9787 8.48891 32.5312 8.48891 32.5312C8.48891 32.5312 5.3649 25.9977 12.542 23.7773C19.7133 21.5569 20.9559 25.3409 20.9559 25.3409Z" fill="white"/>
<path fill-rule="evenodd" clip-rule="evenodd" d="M11.0264 32.4149C11.067 32.7695 11.1077 33.0775 11.1193 33.3042C11.1716 34.2168 10.6606 33.9436 10.3412 33.374C10.0218 32.8044 9.34245 32.4382 8.48886 32.5312C8.48886 32.5312 7.03719 32.9787 7.51334 34.6818C7.98949 36.3908 10.5851 37.3847 10.5851 37.3847C10.5851 37.3847 10.7244 38.7158 10.8754 40.0934C9.15083 39.3494 7.28107 37.3092 5.45196 33.6065C3.62284 29.9038 3.91318 28.0147 5.15581 25.4688C6.39845 22.917 8.31466 22.2253 11.4096 21.615C14.5046 21.0046 18.2035 20.2839 18.2035 20.2839C21.6236 19.7491 23.0463 18.7145 23.6386 19.6794C24.2367 20.6443 22.7095 21.6557 22.7095 21.6557C22.7095 21.6557 24.7767 21.6557 25.0148 22.7252C25.2528 23.7947 22.4482 24.5039 22.4482 24.5039C22.4482 24.5039 24.1147 25.2828 23.7315 25.9745C23.354 26.6604 21.252 26.858 21.252 26.858C21.252 26.858 20.3752 26.8522 18.8132 26.8754C18.2267 26.8812 17.5067 26.8231 16.7286 26.7824C16.8389 26.9742 16.8679 27.2126 16.6937 27.48C16.2176 28.224 12.931 27.573 12.931 27.573C12.931 27.573 12.5942 29.1307 10.8928 28.9389C10.6257 29.8631 10.7361 31.0547 11.0264 32.4149Z" fill="black" stroke="black" stroke-width="0.2" stroke-linecap="round" stroke-linejoin="round"/>
<path d="M15.6474 32.9033C15.3797 32.9675 15.0892 32.7125 14.9984 32.3337C14.9076 31.9548 15.051 31.5956 15.3186 31.5313C15.5863 31.467 15.8769 31.722 15.9677 32.1009C16.0585 32.4798 15.9151 32.839 15.6474 32.9033Z" fill="black"/>
<path d="M20.4296 31.4701C20.162 31.5344 19.8714 31.2793 19.7806 30.9005C19.6898 30.5216 19.8332 30.1624 20.1009 30.0981C20.3685 30.0338 20.6591 30.2889 20.7499 30.6677C20.8407 31.0466 20.6973 31.4058 20.4296 31.4701Z" fill="black"/>
<path d="M18.2442 31.1129C18.2442 31.1129 19.4578 33.7169 19.1732 34.3156C18.8829 34.9143 18.0526 34.7865 18.0526 34.7865" stroke="black" stroke-width="0.5" stroke-linecap="round" stroke-linejoin="round"/>
<path d="M8.27985 33.6879C9.49345 33.839 10.4864 34.926 10.6606 36.1001" stroke="black" stroke-width="0.5" stroke-linecap="round" stroke-linejoin="round"/>
<path d="M8.97668 35.1585L9.81285 34.4958" stroke="black" stroke-width="0.5" stroke-linecap="round" stroke-linejoin="round"/>
<path d="M15.5092 30.084C15.5092 30.084 15.1666 30.0898 14.6266 30.2933C14.0865 30.4967 13.8427 30.7583 13.8427 30.7583" stroke="black" stroke-width="0.5" stroke-linecap="round" stroke-linejoin="round"/>
<path d="M20.6017 28.9215C19.9862 28.8227 19.3649 29.0668 18.8655 29.4098" stroke="black" stroke-width="0.5" stroke-linecap="round" stroke-linejoin="round"/>
<path d="M20.8746 23.8354C19.9223 23.4169 18.5113 23.0391 16.6996 23.0275" stroke="white" stroke-width="0.5" stroke-linecap="round" stroke-linejoin="round"/>
<path d="M20.2881 21.551C19.2603 21.4929 18.61 21.4755 17.3906 21.644" stroke="white" stroke-width="0.5" stroke-linecap="round" stroke-linejoin="round"/>
<path d="M17.6751 24.8701C17.106 24.6201 16.3802 24.3818 15.4976 24.2307" stroke="white" stroke-width="0.5" stroke-linecap="round" stroke-linejoin="round"/>
<path d="M8.36117 31.3744C8.3031 30.9152 8.25665 30.3921 8.26245 29.8631C8.26245 29.6132 8.27407 29.3574 8.3031 29.1075" stroke="white" stroke-width="0.5" stroke-linecap="round" stroke-linejoin="round"/>
<path d="M7.19981 30.6885C7.12432 30.0143 7.08947 29.1947 7.18239 28.4274" stroke="white" stroke-width="0.5" stroke-linecap="round" stroke-linejoin="round"/>
<path d="M5.78874 30.3805C5.73068 29.9271 5.70165 29.4504 5.71907 28.9854" stroke="white" stroke-width="0.5" stroke-linecap="round" stroke-linejoin="round"/>
<path d="M18.1106 37.8904C18.4826 37.8904 18.7842 37.5209 18.7842 37.065C18.7842 36.6092 18.4826 36.2396 18.1106 36.2396C17.7386 36.2396 17.437 36.6092 17.437 37.065C17.437 37.5209 17.7386 37.8904 18.1106 37.8904Z" fill="black" stroke="black" stroke-width="0.5" stroke-linecap="round" stroke-linejoin="round"/>
<path d="M19.0861 36.0885C18.6332 36.0188 18.0816 36.1524 17.8493 36.3036" stroke="black" stroke-width="0.5" stroke-linecap="round" stroke-linejoin="round"/>
<path fill-rule="evenodd" clip-rule="evenodd" d="M10.951 56.1422L9.56316 63.4894C9.56316 63.4894 8.05342 64.0997 7.36242 64.2683C6.67142 64.4369 6.46238 64.0067 6.46238 64.0067C6.46238 64.0067 5.92235 64.1404 5.7017 63.8556C5.48685 63.5766 5.54492 63.0069 5.54492 63.0069C5.54492 63.0069 5.16748 62.8733 5.10941 62.4315C5.04554 61.9897 5.21974 61.391 5.21974 61.391C5.21974 61.391 4.72036 59.3973 6.64819 57.6942C8.57602 55.9969 10.951 56.1422 10.951 56.1422Z" fill="white"/>
<path d="M8.79664 61.8851C8.79664 61.8851 7.67595 62.5245 7.23463 62.9837C6.79332 63.4487 6.46234 64.0067 6.46234 64.0067" stroke="black" stroke-width="0.5" stroke-linecap="round" stroke-linejoin="round"/>
<path d="M8.96507 59.6065C8.96507 59.6065 7.75147 60.3738 6.98499 61.1178C6.2185 61.8619 5.54492 63.007 5.54492 63.007" stroke="black" stroke-width="0.5" stroke-linecap="round" stroke-linejoin="round"/>
<path d="M9.02893 57.8918C9.02893 57.8918 8.01276 58.1243 7.06626 58.9323C6.12557 59.7402 5.21973 61.391 5.21973 61.391" stroke="black" stroke-width="0.5" stroke-linecap="round" stroke-linejoin="round"/>
<path d="M34.8687 66.6341C34.8687 66.6341 31.9422 67.8024 27.4536 67.721C22.9708 67.6338 18.97 65.9133 18.97 65.9133" stroke="black" stroke-width="0.5" stroke-linecap="round" stroke-linejoin="round"/>
<path d="M36.0998 57.8744L19.6842 57.9732" stroke="black" stroke-width="0.5" stroke-linecap="round" stroke-linejoin="round"/>
<path d="M29.5963 49.2019L32.2383 57.8976" stroke="black" stroke-width="0.5" stroke-linecap="round" stroke-linejoin="round"/>
<path d="M8.83148 52.8987L9.1857 56.3631" stroke="black" stroke-width="0.5" stroke-linecap="round" stroke-linejoin="round"/>
<path d="M12.5652 48.981C12.5652 48.981 15.5673 49.5564 17.1699 49.9226C18.7726 50.2946 19.8991 50.5969 19.8991 50.5969" stroke="#6CA3B7" stroke-width="0.5" stroke-linecap="round" stroke-linejoin="round"/>
<path d="M14.1156 47.7603L13.8717 49.2367" stroke="#6CA3B7" stroke-width="0.5" stroke-linecap="round" stroke-linejoin="round"/>
<path d="M15.1782 47.987L14.9634 49.4576" stroke="#6CA3B7" stroke-width="0.5" stroke-linecap="round" stroke-linejoin="round"/>
<path d="M16.386 48.237L16.1769 49.7076" stroke="#6CA3B7" stroke-width="0.5" stroke-linecap="round" stroke-linejoin="round"/>
<path d="M17.5357 48.4811L17.3151 49.9575" stroke="#6CA3B7" stroke-width="0.5" stroke-linecap="round" stroke-linejoin="round"/>
<path d="M18.5519 48.702L18.4183 50.2191" stroke="#6CA3B7" stroke-width="0.5" stroke-linecap="round" stroke-linejoin="round"/>
<path d="M29.3466 85.996V89.6871L36.4365 114.885" stroke="white" stroke-width="0.5" stroke-linecap="round" stroke-linejoin="round"/>
<path d="M13.895 86.8563C13.895 86.8563 14.586 87.3562 15.6312 87.7805C16.6822 88.199 17.6693 88.4897 17.6693 88.4897" stroke="white" stroke-width="0.5" stroke-linecap="round" stroke-linejoin="round"/>
<path d="M14.4349 89.1872C14.4349 89.1872 15.2653 89.6754 15.695 89.8382C16.1247 89.9951 16.2757 90.0998 16.2757 90.0998" stroke="white" stroke-width="0.5" stroke-linecap="round" stroke-linejoin="round"/>
<path d="M20.9559 25.3409C20.9559 25.3409 22.2798 31.8453 22.396 34.397C22.5121 36.9546 21.7688 38.8611 20.8862 39.6168C19.9978 40.3782 18.5984 40.5933 18.5984 40.5933M11.2123 43.18L10.5851 37.3847C9.75477 37.0011 7.87921 36.0013 7.51338 34.6818C7.03723 32.9787 8.48891 32.5312 8.48891 32.5312L11.2123 43.18Z" stroke="black" stroke-width="0.5" stroke-linecap="round" stroke-linejoin="round"/>
<path d="M13.7498 39.2564C13.7498 39.2564 14.5337 40.1225 15.8924 40.4538C17.2512 40.7851 18.5984 40.5933 18.5984 40.5933" stroke="black" stroke-width="0.5" stroke-linecap="round" stroke-linejoin="round"/>
<path d="M18.5519 48.1672C20.4856 47.4697 21.7572 44.9993 21.7572 42.2383M9.33667 44.1914C9.33667 44.1914 10.1612 47.2198 12.6755 48.4985L9.33667 44.1914Z" stroke="#6CA3B7" stroke-width="0.5" stroke-linecap="round" stroke-linejoin="round"/>
<path fill-rule="evenodd" clip-rule="evenodd" d="M13.6046 47.6557L18.4068 48.6613C18.4068 48.6613 18.6158 47.4639 18.6158 47.3941C18.6158 47.3186 21.1882 45.8189 21.3566 45.2609C21.5192 44.7029 21.1359 44.2204 21.1359 44.2204C21.1359 44.2204 21.4146 43.7787 21.2811 43.3311C21.1417 42.8777 20.9791 42.7847 20.9791 42.7847C20.9791 42.7847 21.2056 42.2151 20.9791 41.9302C20.7469 41.6512 20.4043 41.5698 20.4043 41.5698C20.4043 41.5698 21.1069 40.5817 21.014 40.1457C20.9211 39.704 20.1488 39.9772 20.1488 39.9772L16.6067 41.3141C16.6067 41.3141 15.2073 38.3031 14.1795 38.7216C13.2446 39.0995 14.8821 40.913 14.8821 42.4708C14.8821 44.0228 13.6046 47.6557 13.6046 47.6557Z" fill="white" stroke="black" stroke-width="0.5" stroke-linecap="round" stroke-linejoin="round"/>
<path d="M9.14504 65.5355L9.56312 63.4894L10.9509 56.1422L12.5652 48.981L12.902 47.4988L13.6046 47.6557L18.4067 48.6613L19.9049 49.0972C19.9049 49.0972 19.9688 59.9088 18.8364 66.7968C17.7041 73.6848 14.1562 74.5218 12.1878 74.5858C10.2135 74.6497 8.49469 73.2605 8.49469 73.2605" stroke="black" stroke-width="0.5" stroke-linecap="round" stroke-linejoin="round"/>
<path fill-rule="evenodd" clip-rule="evenodd" d="M20.0907 83.9093L33.1326 87.9956L52.3644 78.7476L55.529 66.7852L56.3942 63.2104L55.2213 62.5245L53.6477 63.2104C49.8152 64.8379 36.9011 70.4878 36.9011 70.4878L36.1056 70.8715C35.9372 71.7724 35.6817 72.5978 35.4146 73.4058L34.7004 76.5679L34.4275 76.7016L20.0907 83.9093Z" fill="#ED712E"/>
<path d="M33.3532 87.083L37.1914 71.4469L55.6219 63.5185" stroke="white" stroke-width="0.5" stroke-linecap="round" stroke-linejoin="round"/>
<path d="M34.5204 77.2131L32.4532 86.1413" stroke="black" stroke-width="0.5" stroke-linecap="round" stroke-linejoin="round"/>
<path d="M29.8924 80.3984L34.3345 78.0152" stroke="black" stroke-width="0.5" stroke-linecap="round" stroke-linejoin="round"/>
<path d="M32.0177 85.2229L30.4789 84.7405L31.9538 83.857" stroke="black" stroke-width="0.5" stroke-linecap="round" stroke-linejoin="round"/>
<path d="M29.8343 84.5836L28.4988 84.2174L30.1479 83.3222" stroke="black" stroke-width="0.5" stroke-linecap="round" stroke-linejoin="round"/>
<path d="M27.8078 84.0255L26.6116 83.6535L28.3304 82.7816" stroke="black" stroke-width="0.5" stroke-linecap="round" stroke-linejoin="round"/>
<path d="M32.1803 83.2931L30.8505 82.9211L32.4938 82.0318" stroke="black" stroke-width="0.5" stroke-linecap="round" stroke-linejoin="round"/>
<path d="M30.1595 82.7351L28.9575 82.3631L30.6763 81.4854" stroke="black" stroke-width="0.5" stroke-linecap="round" stroke-linejoin="round"/>
<path d="M32.6971 81.3343L31.4951 80.9681L33.2139 80.0904" stroke="black" stroke-width="0.5" stroke-linecap="round" stroke-linejoin="round"/>
</svg>
