<svg width="144" height="142" viewBox="0 0 144 142" fill="none" xmlns="http://www.w3.org/2000/svg">
<path fill-rule="evenodd" clip-rule="evenodd" d="M45.2325 80.942C45.2325 80.942 43.9809 96.4274 44.0807 108.544C44.1407 116.64 44.64 131.845 44.9595 141.059H85.3707C84.3321 123.737 81.8555 83.0325 81.4028 81.5146C80.8236 79.5906 45.2325 80.942 45.2325 80.942Z" fill="black"/>
<path d="M61.2238 95.4088L61.8963 136.772" stroke="white" stroke-width="0.5" stroke-linecap="round" stroke-linejoin="round"/>
<path fill-rule="evenodd" clip-rule="evenodd" d="M116.501 79.4307C116.501 79.4307 106.448 89.9363 105.004 100.708C103.559 111.48 111.355 117.059 111.355 117.059L128.571 113.404L130.016 83.9712L116.501 79.4307Z" fill="#ED712E"/>
<path fill-rule="evenodd" clip-rule="evenodd" d="M114.817 84.344C114.045 86.3879 113.272 89.0375 112.6 89.7566C111.927 90.4756 110.703 91.6073 110.703 91.6073L112.553 92.7857C112.553 92.7857 112.147 94.6498 112.147 94.8096C112.147 94.9627 112.706 95.5153 112.706 95.5153C112.706 95.5153 112.334 96.3209 112.334 96.4207C112.334 96.5139 112.793 97.679 112.6 98.6643C112.407 99.6496 112.467 101.154 114.005 101.587C115.549 102.02 118.705 102.12 118.705 102.12C119.837 104.689 119.564 107.432 119.237 110.149L130.635 109.256L128.977 98.2782C128.977 98.2782 136.407 91.6073 133.764 84.344C130.868 76.4082 118.405 74.8104 114.817 84.344Z" fill="white"/>
<path d="M116.348 94.5034C116.348 94.5034 115.483 95.249 114.364 95.4088C113.246 95.5619 112.706 95.5153 112.706 95.5153" stroke="black" stroke-width="0.5" stroke-linecap="round" stroke-linejoin="round"/>
<path d="M116.981 89.144C117.33 89.144 117.613 88.8102 117.613 88.3984C117.613 87.9866 117.33 87.6528 116.981 87.6528C116.631 87.6528 116.348 87.9866 116.348 88.3984C116.348 88.8102 116.631 89.144 116.981 89.144Z" fill="black"/>
<path d="M116.022 86.015C116.022 86.015 116.954 85.822 117.899 86.0616C118.851 86.3013 119.211 86.8672 119.211 86.8672" stroke="black" stroke-width="0.5" stroke-linecap="round" stroke-linejoin="round"/>
<path fill-rule="evenodd" clip-rule="evenodd" d="M102.833 134.349L106.202 119.389C106.202 119.389 107.693 114.003 112.6 111.6C117.506 109.196 123.898 108.091 128.178 107.898C132.459 107.705 139.962 107.945 142.079 116.074C144.196 124.203 142.559 141.059 142.559 141.059H114.617L115.05 134.974L102.833 134.349Z" fill="black" stroke="black" stroke-width="0.2" stroke-linecap="round" stroke-linejoin="round"/>
<path fill-rule="evenodd" clip-rule="evenodd" d="M114.617 141.059L115.05 134.974L104.185 134.422L103.639 141.059H114.617Z" fill="white"/>
<path d="M124.557 95.0226C124.557 95.0226 124.217 93.9375 124.59 92.7125C124.963 91.4875 125.868 91.2212 125.868 91.2212" stroke="black" stroke-width="0.5" stroke-linecap="round" stroke-linejoin="round"/>
<path d="M126.001 93.6845L124.59 92.7125" stroke="black" stroke-width="0.5" stroke-linecap="round" stroke-linejoin="round"/>
<path d="M107.866 102.779C107.866 102.779 107.647 104.629 108.013 106.261C108.372 107.898 108.998 108.864 108.998 108.864" stroke="white" stroke-width="0.5" stroke-linecap="round" stroke-linejoin="round"/>
<path d="M109.983 102.319C109.983 102.319 109.884 103.591 110.057 104.53C110.223 105.468 110.343 105.761 110.343 105.761" stroke="white" stroke-width="0.5" stroke-linecap="round" stroke-linejoin="round"/>
<path fill-rule="evenodd" clip-rule="evenodd" d="M29.6073 22.1828C29.6073 22.1828 30.2997 20.7847 31.791 19.7062C33.2823 18.621 33.5486 17.669 33.1757 17.0964C32.8029 16.5172 31.3249 16.5438 31.3249 16.5438C31.3249 16.5438 32.1039 15.8115 32.1771 14.4734C32.2503 13.1418 31.9042 12.09 31.3383 11.6972C30.7724 11.2977 29.9535 11.5374 29.9535 11.5374C29.9535 11.5374 29.2811 11.1912 28.7019 11.1912C28.1293 11.1912 27.5368 11.3976 27.5368 11.3976C27.5368 11.3976 26.7179 10.9981 26.1321 11.2178C25.5396 11.4309 25.2999 11.7171 25.2999 11.7171C25.2999 11.7171 23.5689 11.1313 22.9232 11.9502C22.2707 12.769 21.9845 14.1871 22.1043 16.444C22.2241 18.7075 23.2094 21.4238 23.2094 21.4238L22.9964 24.5462L29.6805 25.172L29.6073 22.1828Z" fill="white" stroke="black" stroke-width="0.5" stroke-linecap="round" stroke-linejoin="round"/>
<path fill-rule="evenodd" clip-rule="evenodd" d="M84.4453 42.5747L83.886 35.8373C83.886 35.8373 81.4627 32.5485 81.4627 31.2436C81.4627 29.9454 82.974 28.8403 83.5532 28.8869C84.1324 28.9401 90.2706 29.0932 90.2706 29.0932L91.449 33.2542L89.6714 36.0171L90.6368 40.0382L84.4453 42.5747Z" fill="white" stroke="black" stroke-width="0.5" stroke-linecap="round" stroke-linejoin="round"/>
<path fill-rule="evenodd" clip-rule="evenodd" d="M61.9628 39.0928L59.859 37.8812C59.859 37.8812 52.3627 38.6135 47.3629 39.9583C42.3631 41.3031 33.8947 44.1925 33.8947 44.1925C33.8947 44.1925 31.4647 31.683 31.1319 28.8935C30.7923 26.104 30.4128 22.935 30.4128 22.935L21.5583 22.0895C21.5583 22.0895 19.9273 41.7159 21.4651 49.2189C23.003 56.7219 28.1027 57.0548 34.0146 56.9084C39.9331 56.7685 47.7224 55.7566 47.7224 55.7566C47.7224 55.7566 44.1207 76.5347 44.1673 81.5811C44.1673 81.5811 43.7678 84.3107 44.9662 85.6755C46.1712 87.0469 51.2908 87.0536 51.2908 87.0536C55.6715 87.3532 66.8827 87.9923 73.6934 87.3066C82.3015 86.4411 82.448 84.5637 82.4946 82.6397C82.5479 80.7156 81.2496 64.2183 81.2496 64.2183C81.2496 64.2183 85.9632 72.1341 91.5155 69.4178C97.0679 66.6949 95.5766 54.8179 95.0973 51.1629C94.6179 47.5079 91.2026 38.8665 91.2026 38.8665C88.2467 39.672 86.5291 40.7173 83.8194 42.0954L83.7862 44.3589C83.7862 44.3589 80.3908 39.8584 76.6892 39.0462C72.9877 38.2274 69.6922 38.001 69.6922 38.001L61.9628 39.0928Z" fill="#D7F0F7"/>
<path d="M58.1481 38.0676C60.7312 45.1978 70.6709 44.0926 71.0969 38.1341" stroke="#6CA3B7" stroke-width="0.5" stroke-linecap="round" stroke-linejoin="round"/>
<path d="M34.4074 46.6691L33.8947 44.1925" stroke="black" stroke-width="0.5" stroke-linecap="round" stroke-linejoin="round"/>
<path d="M80.2444 50.0645L81.2497 64.2183" stroke="black" stroke-width="0.5" stroke-linecap="round" stroke-linejoin="round"/>
<path d="M23.0297 13.2084L23.995 15.3388C23.995 15.3388 22.9831 15.6784 23.1029 16.3708C23.276 17.3561 25.2799 17.1963 25.9989 16.6837C25.9989 16.6837 27.4569 17.1097 28.3557 16.8434C29.2611 16.5771 31.3249 16.5439 31.3249 16.5439" stroke="black" stroke-width="0.5" stroke-linecap="round" stroke-linejoin="round"/>
<path d="M31.6645 18.4745C31.6645 18.4745 29.0414 18.9006 28.0561 18.5877C27.0708 18.2748 27.2505 17.7422 27.4236 17.4559C27.6034 17.1696 28.1826 16.8834 28.1826 16.8834" stroke="black" stroke-width="0.5" stroke-linecap="round" stroke-linejoin="round"/>
<path d="M27.0708 19.5264C27.0708 19.5264 27.4036 19.2201 27.6633 19.0071C27.9229 18.7874 28.1959 18.621 28.1959 18.621" stroke="black" stroke-width="0.5" stroke-linecap="round" stroke-linejoin="round"/>
<path d="M25.9989 16.6836C25.9989 16.6836 26.4117 15.9913 26.1987 14.733C25.979 13.4681 25.473 12.2764 25.473 12.2764" stroke="black" stroke-width="0.5" stroke-linecap="round" stroke-linejoin="round"/>
<path d="M27.7632 12.0567C27.8564 12.4361 28.0894 13.5147 28.0694 14.6265C28.0494 16.0046 27.6034 16.93 27.6034 16.93" stroke="black" stroke-width="0.5" stroke-linecap="round" stroke-linejoin="round"/>
<path d="M30.0467 12.1099C30.0933 12.536 30.2131 13.9075 30.04 14.8395C29.8403 15.958 29.4675 16.6503 29.4675 16.6503" stroke="black" stroke-width="0.5" stroke-linecap="round" stroke-linejoin="round"/>
<path d="M24.3279 16.1111L23.995 15.3388" stroke="black" stroke-width="0.5" stroke-linecap="round" stroke-linejoin="round"/>
<path d="M30.9455 19.2068L30.4927 18.6276" stroke="black" stroke-width="0.5" stroke-linecap="round" stroke-linejoin="round"/>
<path fill-rule="evenodd" clip-rule="evenodd" d="M78.833 20.7381C78.833 20.7381 75.8504 21.9764 76.9822 24.5462C78.1073 27.1227 80.4241 26.2705 81.6025 25.2852C82.7809 24.2999 78.833 20.7381 78.833 20.7381Z" fill="black" stroke="black" stroke-width="0.5" stroke-linecap="round" stroke-linejoin="round"/>
<path fill-rule="evenodd" clip-rule="evenodd" d="M82.2882 25.7778L87.6742 38.041C87.6742 38.041 90.943 36.6695 90.943 36.5031C90.943 36.33 85.1243 25.0056 85.1243 25.0056L82.2882 25.7778Z" fill="black" stroke="black" stroke-width="0.5" stroke-linecap="round" stroke-linejoin="round"/>
<path d="M21.4252 23.8671L30.6392 24.8325" stroke="#6CA3B7" stroke-width="0.5" stroke-linecap="round" stroke-linejoin="round"/>
<path d="M22.8965 22.2161L22.79 24.0136" stroke="#6CA3B7" stroke-width="0.5" stroke-linecap="round" stroke-linejoin="round"/>
<path d="M24.4544 22.3691L24.3878 24.18" stroke="#6CA3B7" stroke-width="0.5" stroke-linecap="round" stroke-linejoin="round"/>
<path d="M25.8924 22.5023L25.8391 24.3265" stroke="#6CA3B7" stroke-width="0.5" stroke-linecap="round" stroke-linejoin="round"/>
<path d="M27.3704 22.6422L27.3837 24.4929" stroke="#6CA3B7" stroke-width="0.5" stroke-linecap="round" stroke-linejoin="round"/>
<path d="M28.9549 22.7952L29.0481 24.666" stroke="#6CA3B7" stroke-width="0.5" stroke-linecap="round" stroke-linejoin="round"/>
<path d="M91.8351 40.5176C91.8351 40.5176 88.8592 41.7825 87.2547 42.4549C85.6569 43.1273 83.7862 44.2591 83.7862 44.2591" stroke="#6CA3B7" stroke-width="0.5" stroke-linecap="round" stroke-linejoin="round"/>
<path d="M84.8114 41.5828L84.9379 43.6" stroke="#6CA3B7" stroke-width="0.5" stroke-linecap="round" stroke-linejoin="round"/>
<path d="M86.0497 40.9436L86.2628 42.9076" stroke="#6CA3B7" stroke-width="0.5" stroke-linecap="round" stroke-linejoin="round"/>
<path d="M87.2814 40.3312L87.6209 42.3018" stroke="#6CA3B7" stroke-width="0.5" stroke-linecap="round" stroke-linejoin="round"/>
<path d="M88.6195 39.7386L89.019 41.7093" stroke="#6CA3B7" stroke-width="0.5" stroke-linecap="round" stroke-linejoin="round"/>
<path d="M89.9444 39.246L90.4703 41.0968" stroke="#6CA3B7" stroke-width="0.5" stroke-linecap="round" stroke-linejoin="round"/>
<path fill-rule="evenodd" clip-rule="evenodd" d="M73.1741 16.444C73.1741 16.444 74.0928 27.815 73.2739 31.0106C72.4551 34.2129 68.6337 34.1397 68.6337 34.1397L68.9066 37.8878L69.6922 38.001C69.6922 38.001 68.8467 41.9556 64.5925 41.4363C60.3384 40.9237 59.8591 37.8812 59.8591 37.8812L60.598 37.7347L60.5315 28.8869C60.5315 28.8869 57.742 28.6672 57.5223 26.1706C57.3092 23.6674 58.5542 23.5675 58.5542 23.5675C58.5542 23.5675 56.8033 13.4481 64.5459 12.6292C72.2886 11.8103 73.1741 16.444 73.1741 16.444Z" fill="white"/>
<path fill-rule="evenodd" clip-rule="evenodd" d="M73.1807 16.4906C70.6975 15.6051 67.8148 16.3375 67.8148 16.3375C67.8081 16.3441 64.2796 17.0299 63.3209 17.7822C61.5634 19.1536 62.5753 21.5769 62.0427 22.5423C61.5168 23.501 61.2039 24.8857 60.8044 24.9789C60.405 25.0788 60.3384 24.0469 59.6593 23.7073C58.9869 23.3678 58.5542 23.5675 58.5542 23.5675C58.5542 23.5675 57.3092 23.6674 57.5222 26.1706C57.7419 28.6672 60.5314 28.8869 60.5314 28.8869L60.5448 31.0905C59.4529 30.498 57.3225 28.8536 55.8446 24.6927C53.7741 18.874 56.8765 13.3682 59.8124 12.2631C62.7417 11.1579 65.9906 9.0608 68.6803 7.88242C71.3765 6.70404 71.1102 9.25387 71.1102 9.25387C71.1102 9.25387 73.0809 7.88242 74.2127 8.94097C75.3444 9.99951 73.6601 13.0087 73.6601 13.0087C73.6601 13.0087 75.9969 13.508 75.8837 15.2789C75.7772 17.0432 73.1807 16.4906 73.1807 16.4906Z" fill="black" stroke="black" stroke-width="0.2" stroke-linecap="round" stroke-linejoin="round"/>
<path d="M66.1704 23.694C66.4682 23.694 66.7096 23.4049 66.7096 23.0482C66.7096 22.6916 66.4682 22.4025 66.1704 22.4025C65.8726 22.4025 65.6311 22.6916 65.6311 23.0482C65.6311 23.4049 65.8726 23.694 66.1704 23.694Z" fill="black"/>
<path d="M71.796 23.4078C72.0938 23.4078 72.3352 23.1186 72.3352 22.762C72.3352 22.4053 72.0938 22.1162 71.796 22.1162C71.4981 22.1162 71.2567 22.4053 71.2567 22.762C71.2567 23.1186 71.4981 23.4078 71.796 23.4078Z" fill="black"/>
<path d="M68.5937 30.6178C69.1452 30.6178 69.5923 30.1111 69.5923 29.486C69.5923 28.861 69.1452 28.3542 68.5937 28.3542C68.0422 28.3542 67.5951 28.861 67.5951 29.486C67.5951 30.1111 68.0422 30.6178 68.5937 30.6178Z" fill="black" stroke="black" stroke-width="0.5" stroke-linecap="round" stroke-linejoin="round"/>
<path d="M69.8121 28.2078L68.3607 28.3876" stroke="black" stroke-width="0.5" stroke-linecap="round" stroke-linejoin="round"/>
<path d="M69.3061 22.449L70.6509 25.8444L69.3061 26.3703" stroke="black" stroke-width="0.5" stroke-linecap="round" stroke-linejoin="round"/>
<path d="M64.8722 21.0976C65.6311 20.8845 66.4966 20.7847 67.1957 21.2374" stroke="black" stroke-width="0.5" stroke-linecap="round" stroke-linejoin="round"/>
<path d="M72.1755 20.565C71.6761 20.6316 71.1968 20.8113 70.8306 21.1908" stroke="black" stroke-width="0.5" stroke-linecap="round" stroke-linejoin="round"/>
<path d="M58.674 24.5062C58.674 24.5062 59.5528 24.9789 59.7925 25.9376C60.0321 26.9029 59.7192 27.8483 59.7192 27.8483" stroke="black" stroke-width="0.5" stroke-linecap="round" stroke-linejoin="round"/>
<path d="M58.6474 26.5634L59.7459 25.7845" stroke="black" stroke-width="0.5" stroke-linecap="round" stroke-linejoin="round"/>
<path d="M63.0946 31.5099C63.4608 32.0492 64.1199 32.8614 65.0519 33.3541C66.0505 33.88 67.2156 34.0598 67.8547 34.1264" stroke="black" stroke-width="0.5" stroke-linecap="round" stroke-linejoin="round"/>
<path fill-rule="evenodd" clip-rule="evenodd" d="M88.1069 26.1373C88.1069 26.1373 89.1388 26.0641 89.5716 26.7166C90.0043 27.3623 89.5716 27.9149 89.5716 27.9149C89.5716 27.9149 90.3372 28.0547 90.5302 28.5008C90.7233 28.9468 90.6434 29.3529 90.6434 29.3529C90.6434 29.3529 91.1827 29.9654 91.3624 30.2783C91.5422 30.5912 91.2626 31.3102 91.2626 31.3102C91.2626 31.3102 92.0016 32.0559 91.8884 32.7549C91.7819 33.454 90.2639 35.0984 90.2639 35.0984L89.7313 34.0265C89.7313 34.0265 88.4997 34.5125 87.9937 34.2329C87.4877 33.9599 87.7274 33.1877 87.7274 33.1877C87.7274 33.1877 87.0484 33.5472 86.4891 33.0545C85.9365 32.5619 86.4425 32.0359 86.4425 32.0359C86.4425 32.0359 85.7235 32.2356 85.364 31.4567C84.9978 30.6778 85.6702 30.0853 85.6702 30.0853C85.6702 30.0853 84.1457 29.8722 84.7249 28.5141C85.2974 27.1559 87.6209 26.144 88.1069 26.1373Z" fill="white" stroke="black" stroke-width="0.5" stroke-linecap="round" stroke-linejoin="round"/>
<path fill-rule="evenodd" clip-rule="evenodd" d="M83.1604 28.9734C83.1604 28.9734 83.8927 28.5806 84.8181 29.1265C85.7435 29.6658 86.4425 32.0225 86.2561 32.3687C86.0697 32.7216 85.3574 33.1144 84.5518 32.0691C83.7462 31.0239 83.7862 30.8708 83.7862 30.8708L83.1604 28.9734Z" fill="white"/>
<path d="M91.2625 31.3102C91.2625 31.3102 90.2373 31.2836 89.3252 31.7762C88.4131 32.2689 87.7274 33.1876 87.7274 33.1876" stroke="black" stroke-width="0.5" stroke-linecap="round" stroke-linejoin="round"/>
<path d="M90.6434 29.3529C90.6434 29.3529 88.8925 29.6924 88.1135 30.3515C87.328 31.0173 86.4425 32.0359 86.4425 32.0359" stroke="black" stroke-width="0.5" stroke-linecap="round" stroke-linejoin="round"/>
<path d="M89.5716 27.9149C88.2267 27.835 86.5424 29.1266 85.6703 30.0853" stroke="black" stroke-width="0.5" stroke-linecap="round" stroke-linejoin="round"/>
<path d="M91.1028 33.2142L90.4703 33.4406L89.7313 34.0265" stroke="black" stroke-width="0.5" stroke-linecap="round" stroke-linejoin="round"/>
<path d="M83.0872 29C83.0872 29 83.8261 28.6139 84.7515 29.1532C85.6769 29.6991 86.376 32.0558 86.1896 32.402C85.4572 33.7535 84.0791 31.5299 83.713 30.8974" stroke="black" stroke-width="0.5" stroke-linecap="round" stroke-linejoin="round"/>
<path d="M83.2336 31.6098L84.5118 32.0625" stroke="black" stroke-width="0.5" stroke-linecap="round" stroke-linejoin="round"/>
<path fill-rule="evenodd" clip-rule="evenodd" d="M82.5479 26.5434C82.4879 26.57 82.428 26.59 82.3615 26.61C80.7503 27.056 78.9461 25.6513 78.3337 23.4676C77.821 21.6435 78.307 19.846 79.4188 19.0471L79.4388 19.0337L79.4588 19.0138C84.2322 15.685 86.2628 12.3762 89.2586 7.47629L96.4221 24.4596C96.4221 24.4596 92.7472 24.4996 90.1374 24.6926C87.8206 24.8657 83.4932 26.2372 82.5479 26.5434Z" fill="#ED712E"/>
<path d="M97.6989 24.2651C101.574 23.1811 103.525 18.0479 102.057 12.7997C100.589 7.55161 96.2576 4.1759 92.3825 5.2599C88.5074 6.3439 86.5562 11.4771 88.0242 16.7253C89.4923 21.9734 93.8238 25.3491 97.6989 24.2651Z" fill="#001EBD"/>
<path fill-rule="evenodd" clip-rule="evenodd" d="M89.7447 20.4718C89.0123 19.3866 88.4132 18.1217 88.027 16.7236C87.9272 16.3774 87.8473 16.0312 87.7807 15.6917L91.6953 13.8076L93.7259 18.0617L89.7447 20.4718Z" fill="black"/>
<path d="M93.2023 18.3444C94.1434 18.0812 94.6173 16.8346 94.2607 15.56C93.9042 14.2855 92.8523 13.4657 91.9112 13.7289C90.9701 13.9922 90.4963 15.2388 90.8528 16.5133C91.2093 17.7879 92.2613 18.6077 93.2023 18.3444Z" fill="white"/>
<path d="M60.598 37.7347L60.5315 28.8869M73.1741 16.444C73.1741 16.444 74.0928 27.815 73.274 31.0106C72.4551 34.2129 68.6337 34.1396 68.6337 34.1396L68.9066 37.8878L73.1741 16.444Z" stroke="black" stroke-width="0.5" stroke-linecap="round" stroke-linejoin="round"/>
<path d="M84.2389 64.205C84.2389 64.205 83.6131 60.6233 83.6397 55.8099C83.6597 51.0032 83.7861 44.359 83.7861 44.359L83.8194 42.0954L87.2813 40.3312" stroke="black" stroke-width="0.5" stroke-linecap="round" stroke-linejoin="round"/>
<path d="M48.721 50.7701L47.7224 55.7566" stroke="black" stroke-width="0.5" stroke-linecap="round" stroke-linejoin="round"/>
<path d="M97.7004 24.2666C93.8257 25.3451 89.4917 21.9697 88.027 16.7236C86.9285 12.8023 87.7407 8.94097 89.8378 6.79059" stroke="black" stroke-width="0.5" stroke-linecap="round" stroke-linejoin="round"/>
<path d="M92.8138 6.93704C96.0094 6.03827 99.5778 8.82111 100.789 13.1485C101.994 17.4692 100.39 21.7034 97.1944 22.5955" stroke="white" stroke-width="0.5" stroke-linecap="round" stroke-linejoin="round"/>
<path d="M80.7636 22.9217L85.5105 20.4185" stroke="black" stroke-width="0.5" stroke-linecap="round" stroke-linejoin="round"/>
<path d="M81.7357 20.5783C81.7357 20.5783 82.6211 20.1789 83.7662 19.2335C84.9046 18.2881 85.5837 17.376 85.5837 17.376" stroke="black" stroke-width="0.5" stroke-linecap="round" stroke-linejoin="round"/>
<path d="M64.546 12.6292C64.546 12.6292 65.9108 12.5227 67.209 11.9701C68.5072 11.4175 69.0331 10.6719 69.0331 10.6719" stroke="white" stroke-width="0.5" stroke-linecap="round" stroke-linejoin="round"/>
<path d="M67.6617 13.1751C67.6617 13.1751 69.2728 12.6425 70.2381 12.2631C71.1968 11.8769 71.8958 11.4908 71.8958 11.4908" stroke="white" stroke-width="0.5" stroke-linecap="round" stroke-linejoin="round"/>
<path d="M69.2661 14.2204C69.2661 14.2204 70.0917 14.0939 70.7374 14.1471C71.3832 14.2004 72.1888 14.3801 72.1888 14.3801" stroke="white" stroke-width="0.5" stroke-linecap="round" stroke-linejoin="round"/>
<path d="M60.2385 18.5211C60.2985 19.7062 60.0122 20.7847 59.8258 22.1495" stroke="white" stroke-width="0.5" stroke-linecap="round" stroke-linejoin="round"/>
<path d="M58.8671 18.4745C58.8604 18.8141 58.7606 20.4785 58.674 20.9977" stroke="white" stroke-width="0.5" stroke-linecap="round" stroke-linejoin="round"/>
<path d="M57.1894 20.7314L57.0629 21.9897" stroke="white" stroke-width="0.5" stroke-linecap="round" stroke-linejoin="round"/>
<path d="M102.041 5.93842L104.451 2.51645L105.776 4.09428L109.491 0.818787" stroke="#ED712E" stroke-width="0.5" stroke-linecap="round" stroke-linejoin="round"/>
<path d="M104.325 20.6981L108.985 20.6582L108.346 18.7009L112.673 19.0404" stroke="#ED712E" stroke-width="0.5" stroke-linecap="round" stroke-linejoin="round"/>
<path d="M105.47 12.7158L110.17 10.9981" stroke="#ED712E" stroke-width="0.5" stroke-linecap="round" stroke-linejoin="round"/>
<path fill-rule="evenodd" clip-rule="evenodd" d="M69.5724 84.8699C69.5724 84.8699 68.4872 87.9723 68.1543 89.4636C67.8148 90.9549 67.4286 93.5247 67.4286 93.5247C67.4286 93.5247 63.7737 98.2848 63.6339 98.5977C63.4874 98.9106 66.0106 100.329 66.0106 100.329C66.0106 100.329 65.5512 102.06 65.5512 102.299C65.5512 102.546 69.3527 103.651 69.4725 103.964C69.5923 104.277 66.1304 105.908 65.964 106.367C65.7975 106.82 66.8295 107.619 66.8295 107.619C66.8295 107.619 65.7443 110.961 66.47 111.413C67.189 111.873 73.0076 112.093 73.0076 112.093L72.748 119.855L86.8353 117.791C86.8353 117.791 86.0164 110.475 86.0164 108.937C86.0164 107.399 92.0814 98.8906 89.0988 90.5221C86.1163 82.1536 69.5724 84.8699 69.5724 84.8699Z" fill="white" stroke="black" stroke-width="0.5" stroke-linecap="round" stroke-linejoin="round"/>
<path fill-rule="evenodd" clip-rule="evenodd" d="M52.9153 141.059C54.1069 137.498 58.0881 128.696 61.3304 126.047C64.5726 123.397 66.6297 122.991 70.2847 121.839L71.3566 118.444C71.3566 118.444 71.6961 117.392 72.5616 117.006C73.3006 116.673 87.1948 113.903 87.9138 115.228C88.2467 115.841 89.1122 117.658 89.3052 118.51C93.2465 118.337 96.8083 119.223 99.5179 121.999C104.684 127.292 104.085 134.495 104.531 141.059H52.9153Z" fill="#D7F0F7"/>
<path d="M72.3153 121.1C72.3153 121.1 77.6812 119.848 81.476 119.296C85.2775 118.743 88.8592 118.577 88.8592 118.577" stroke="#6CA3B7" stroke-width="0.5" stroke-linecap="round" stroke-linejoin="round"/>
<path fill-rule="evenodd" clip-rule="evenodd" d="M24.9071 72.973C27.0042 72.9663 31.7111 72.6334 33.6817 69.9438C36.2582 66.4353 33.6151 62.5872 28.156 62.4408C15.4534 62.1079 15.3935 71.8478 22.3839 72.8664L23.5357 75.3763L24.9071 72.973Z" fill="white" stroke="black" stroke-width="0.5" stroke-linecap="round" stroke-linejoin="round"/>
<path fill-rule="evenodd" clip-rule="evenodd" d="M22.8566 67.6669C23.2227 67.6669 23.5157 67.9665 23.5157 68.3393C23.5157 68.7188 23.2227 69.0184 22.8566 69.0184C22.4838 69.0184 22.1908 68.7188 22.1908 68.3393C22.1908 67.9665 22.4838 67.6669 22.8566 67.6669ZM29.8736 66.6217C30.2398 66.6217 30.5327 66.9279 30.5327 67.3008C30.5327 67.6736 30.2398 67.9798 29.8736 67.9798C29.5074 67.9798 29.2078 67.6736 29.2078 67.3008C29.2078 66.9279 29.5074 66.6217 29.8736 66.6217ZM26.2919 67.2076C26.658 67.2076 26.9576 67.5072 26.9576 67.88C26.9576 68.2528 26.658 68.559 26.2919 68.559C25.9257 68.559 25.6328 68.2528 25.6328 67.88C25.6328 67.5072 25.9257 67.2076 26.2919 67.2076Z" fill="black"/>
<path fill-rule="evenodd" clip-rule="evenodd" d="M85.2708 74.4975C83.1737 74.4909 78.4668 74.158 76.4895 71.4684C73.9197 67.9532 76.5628 64.1051 82.0219 63.9653C94.7245 63.6258 94.7844 73.3724 87.794 74.391L86.6423 76.9009L85.2708 74.4975Z" fill="white" stroke="black" stroke-width="0.5" stroke-linecap="round" stroke-linejoin="round"/>
<path fill-rule="evenodd" clip-rule="evenodd" d="M87.3213 69.1915C86.9552 69.1915 86.6622 69.4911 86.6622 69.8639C86.6622 70.2367 86.9552 70.5429 87.3213 70.5429C87.6875 70.5429 87.9871 70.2367 87.9871 69.8639C87.9871 69.4911 87.6875 69.1915 87.3213 69.1915ZM80.3043 68.1462C79.9381 68.1462 79.6452 68.4458 79.6452 68.8253C79.6452 69.1981 79.9381 69.4977 80.3043 69.4977C80.6705 69.4977 80.97 69.1981 80.97 68.8253C80.97 68.4458 80.6705 68.1462 80.3043 68.1462ZM83.886 68.7254C83.5199 68.7254 83.2203 69.0317 83.2203 69.4045C83.2203 69.7773 83.5199 70.0836 83.886 70.0836C84.2522 70.0836 84.5451 69.7773 84.5451 69.4045C84.5451 69.0317 84.2522 68.7254 83.886 68.7254Z" fill="black"/>
<path fill-rule="evenodd" clip-rule="evenodd" d="M74.6454 79.018C74.6454 79.018 68.7269 80.5026 67.9146 81.4213C67.0958 82.3334 68.5338 86.6608 70.5577 88.2985C72.5749 89.9296 76.5694 92.0933 76.5694 92.0933C76.5694 92.0933 76.1833 94.3303 76.423 95.3688C76.6626 96.4007 76.9289 98.8507 76.9289 98.8507C76.9289 98.8507 77.8676 98.8507 77.8676 98.2981C77.8676 97.7456 78.8529 94.6432 80.8968 94.6698C82.9407 94.6898 83.6131 98.4912 82.4613 100.202C81.3029 101.907 79.2391 102.486 79.2391 102.486C79.2391 102.486 79.4921 110.395 80.5107 111.287C81.5359 112.172 82.3282 110.408 82.3282 110.408C82.3282 110.408 83.3135 111.553 84.0258 111.334C84.7315 111.114 85.1643 109.989 85.1643 109.989C85.1643 109.989 85.3241 111.034 86.5357 110.868C87.7474 110.694 93.0867 100.282 94.7711 96.434C96.4554 92.586 91.8418 85.762 89.0523 83.5451C86.2628 81.3348 77.4615 78.3056 74.6454 79.018Z" fill="#ED712E"/>
<path d="M79.2724 101.048C79.2724 101.048 78.7797 98.8973 79.5121 97.6124C80.251 96.3275 81.283 96.1212 81.283 96.1212" stroke="black" stroke-width="0.5" stroke-linecap="round" stroke-linejoin="round"/>
<path d="M81.0433 99.1636L79.3456 97.9852" stroke="black" stroke-width="0.5" stroke-linecap="round" stroke-linejoin="round"/>
<path d="M70.2714 96.3009C70.7163 96.3009 71.077 95.8597 71.077 95.3156C71.077 94.7714 70.7163 94.3303 70.2714 94.3303C69.8265 94.3303 69.4659 94.7714 69.4659 95.3156C69.4659 95.8597 69.8265 96.3009 70.2714 96.3009Z" fill="black"/>
<path d="M69.2794 92.3929C69.2794 92.3929 70.4645 92.2997 71.27 92.6126C72.0756 92.9255 72.3086 93.1186 72.3086 93.1186" stroke="black" stroke-width="0.5" stroke-linecap="round" stroke-linejoin="round"/>
<path d="M73.72 85.1495C73.72 85.1495 74.1994 87.22 76.6493 88.951C79.106 90.6819 81.6092 91.594 81.6092 91.594" stroke="white" stroke-width="0.5" stroke-linecap="round" stroke-linejoin="round"/>
<path d="M78.4335 86.0616C78.4335 86.0616 79.6851 87.6528 81.4627 88.6581C83.2403 89.67 83.5332 89.8631 83.5332 89.8631" stroke="white" stroke-width="0.5" stroke-linecap="round" stroke-linejoin="round"/>
<path d="M86.1762 98.8574C86.1762 98.8574 85.8899 100.488 84.9712 102.752C84.0591 105.009 83.8661 106.121 83.8661 106.121" stroke="white" stroke-width="0.5" stroke-linecap="round" stroke-linejoin="round"/>
<path d="M86.8486 103.471C86.8486 103.471 87.4478 102.246 87.7873 101.334C88.1202 100.422 88.6528 99.0504 88.6528 99.0504" stroke="white" stroke-width="0.5" stroke-linecap="round" stroke-linejoin="round"/>
<path d="M90.8431 100.662L91.3691 98.6843" stroke="white" stroke-width="0.5" stroke-linecap="round" stroke-linejoin="round"/>
<path fill-rule="evenodd" clip-rule="evenodd" d="M14.8942 91.3544C14.8942 91.3544 15.6132 82.653 25.5662 82.0272C35.5258 81.4014 36.3913 84.9565 37.0637 88.8045C37.7361 92.6526 37.8559 94.4568 37.8559 94.4568C37.8559 94.4568 39.4538 97.406 39.9131 97.9453C40.3725 98.4846 40.5656 98.8441 40.5656 98.8441L37.8426 99.9026L38.1822 102.306C38.1822 102.306 34.8601 103.271 34.3807 103.704C33.9014 104.137 35.2129 104.57 36.1982 104.823C37.1835 105.075 37.6962 105.149 37.7694 105.475C37.8426 105.801 37.1303 106.46 37.1303 106.46C37.1303 106.46 37.7494 109.589 37.1236 110.188C36.4978 110.788 32.9627 110.481 32.9627 110.481L32.8229 115.315L21.1589 114.542L21.9245 104.829C21.9245 104.829 13.556 103.91 14.8942 91.3544Z" fill="white" stroke="black" stroke-width="0.5" stroke-linecap="round" stroke-linejoin="round"/>
<path fill-rule="evenodd" clip-rule="evenodd" d="M0.647095 141.059C1.64572 136.812 5.10763 123.111 8.79589 120.188C10.7931 118.61 13.7957 117.811 17.0446 117.452L18.6357 113.697C18.6357 113.697 19.3547 112.425 21.4918 112.186C23.6355 111.946 28.9748 112.499 31.4048 113.364C33.8282 114.23 34.6004 114.636 34.8135 115.767C34.9333 116.367 34.9466 117.325 34.9333 118.091C39.3872 118.77 43.8144 120.168 46.311 123.657C49.0339 127.458 49.9793 136.419 50.2989 141.059H0.647095Z" fill="#D7F0F7"/>
<path d="M18.6091 117.086C18.6091 117.086 23.7287 116.779 27.3371 117.066C30.9454 117.352 34.1677 117.905 34.1677 117.905" stroke="#6CA3B7" stroke-width="0.5" stroke-linecap="round" stroke-linejoin="round"/>
<path fill-rule="evenodd" clip-rule="evenodd" d="M25.0536 96.5738C25.0536 96.5738 23.489 95.0826 21.9978 96.0745C20.5065 97.0598 20.7461 99.3633 21.6649 100.835C22.577 102.299 24.5942 102.612 24.5942 102.612C24.5942 102.612 25.919 106.727 24.9603 107.972C23.995 109.223 21.9045 108.404 21.9045 108.404C21.9045 108.404 20.1936 109.969 18.2962 109.203C16.3988 108.431 15.7929 106.82 15.7929 106.82C15.7929 106.82 13.5627 106.653 13.2964 103.764C13.0301 100.881 12.6439 100.595 10.893 98.0917C9.13543 95.5885 10.1673 92.8257 11.5388 91.8869C12.9102 90.9482 13.4628 89.3371 13.6293 86.2347C13.8024 83.1323 16.9048 82.2469 18.1763 82.2202C19.4479 82.1936 22.1908 81.7609 23.5889 79.9367C24.9803 78.1059 27.3371 77.9661 28.7818 79.4773C30.2264 80.9952 33.6151 79.0712 35.153 79.717C36.6909 80.3694 37.0571 81.3281 37.1769 83.1123C37.2967 84.8899 38.2088 86.2081 35.1796 86.4544C32.1505 86.6941 28.6153 87.2933 28.6153 89.3837C28.6153 91.4742 27.124 91.6939 27.5568 93.7111C27.9895 95.735 27.1507 96.2876 26.931 97.2462C26.7179 98.2116 27.4569 99.6762 26.6913 99.2901C25.919 98.9106 25.9124 97.0931 25.0536 96.5738Z" fill="black" stroke="black" stroke-width="0.5" stroke-linecap="round" stroke-linejoin="round"/>
<path d="M35.2262 95.3888C35.6233 95.3888 35.9453 94.9686 35.9453 94.4501C35.9453 93.9317 35.6233 93.5114 35.2262 93.5114C34.8291 93.5114 34.5072 93.9317 34.5072 94.4501C34.5072 94.9686 34.8291 95.3888 35.2262 95.3888Z" fill="black"/>
<path d="M32.45 93.052C32.45 93.052 33.2556 92.0401 34.1477 91.7072C35.0332 91.3677 35.4593 91.3477 35.4593 91.3477" stroke="black" stroke-width="0.5" stroke-linecap="round" stroke-linejoin="round"/>
<path d="M22.6902 96.9134C22.6902 96.9134 24.0217 97.1664 24.5409 98.5844C25.0536 100.002 24.5875 101.421 24.5875 101.421" stroke="black" stroke-width="0.5" stroke-linecap="round" stroke-linejoin="round"/>
<path d="M22.7101 99.7761L24.5409 98.5844" stroke="black" stroke-width="0.5" stroke-linecap="round" stroke-linejoin="round"/>
<path d="M20.9858 112.266L20.1137 117.019" stroke="#6CA3B7" stroke-width="0.5" stroke-linecap="round" stroke-linejoin="round"/>
<path d="M23.8485 112.152L22.9764 116.946" stroke="#6CA3B7" stroke-width="0.5" stroke-linecap="round" stroke-linejoin="round"/>
<path d="M26.4982 112.379L25.9323 116.986" stroke="#6CA3B7" stroke-width="0.5" stroke-linecap="round" stroke-linejoin="round"/>
<path d="M28.9615 113.637L28.7884 117.199" stroke="#6CA3B7" stroke-width="0.5" stroke-linecap="round" stroke-linejoin="round"/>
<path d="M31.4048 113.364L31.4314 117.505" stroke="#6CA3B7" stroke-width="0.5" stroke-linecap="round" stroke-linejoin="round"/>
<path d="M35.1131 129.921C34.6137 134.961 34.9067 141.059 34.9067 141.059" stroke="black" stroke-width="0.5" stroke-linecap="round" stroke-linejoin="round"/>
<path d="M25.1401 85.316C25.1401 85.316 26.2719 83.8047 27.883 83.5384C29.4941 83.2721 30.3862 83.9911 30.3862 83.9911" stroke="white" stroke-width="0.5" stroke-linecap="round" stroke-linejoin="round"/>
<path d="M19.2549 90.8683C19.2549 90.8683 19.0818 92.0001 17.5173 93.4182C15.9594 94.8362 17.4507 96.9533 17.4507 96.9533" stroke="white" stroke-width="0.5" stroke-linecap="round" stroke-linejoin="round"/>
<path d="M15.2337 94.8629C15.2337 94.8629 14.6745 97.1664 15.3069 98.3447C15.9328 99.5298 16.6318 99.8161 16.6318 99.8161" stroke="white" stroke-width="0.5" stroke-linecap="round" stroke-linejoin="round"/>
<path d="M21.3653 85.2893C21.3653 85.2893 22.2108 85.1229 23.1229 83.9911C24.035 82.866 24.3479 82.5531 24.3479 82.5531" stroke="white" stroke-width="0.5" stroke-linecap="round" stroke-linejoin="round"/>
<path d="M116.148 134.149L117.713 125.854" stroke="white" stroke-width="0.5" stroke-linecap="round" stroke-linejoin="round"/>
<path fill-rule="evenodd" clip-rule="evenodd" d="M115.682 79.1511C115.682 79.1511 116.208 81.6544 118.445 84.9698C120.682 88.2919 122.293 89.3039 122.293 89.3039C122.293 89.3039 122.14 90.3557 122.513 91.1546C122.886 91.9469 122.606 92.6526 122.906 92.8323C123.205 93.0188 123.751 90.0828 125.662 90.2159C127.573 90.3491 127.719 93.1985 126.514 94.7564C125.309 96.3209 123.751 96.2476 123.751 96.2476C123.751 96.2476 122.56 106.653 121.115 112.472C119.67 118.291 116.428 127.858 115.969 128.41C115.516 128.969 119.843 129.276 121.98 129.036C124.124 128.796 129.403 129.076 132.865 125.734C136.327 122.392 137.239 119.502 137.239 119.502C137.239 119.502 136.713 122.545 136.168 124.262C135.628 125.987 135.049 127.292 134.836 127.558C134.616 127.824 138.311 128.224 140.355 124.036C142.399 119.855 143.311 113.384 142.159 105.854C141.001 98.3314 140.934 89.8631 137.732 84.3373C134.536 78.805 125.302 73.8984 115.682 79.1511Z" fill="#ED712E"/>
<path d="M122.34 127.764C122.34 127.764 124.071 126.273 125.902 122.711C127.732 119.156 129.17 114.922 129.17 114.922" stroke="white" stroke-width="0.5" stroke-linecap="round" stroke-linejoin="round"/>
<path d="M138.744 114.01C138.684 115.834 138.058 117.379 137.419 119.056" stroke="white" stroke-width="0.5" stroke-linecap="round" stroke-linejoin="round"/>
<path d="M120.596 80.8022C120.596 80.8022 121.627 83.3254 122.979 84.9831C124.324 86.6408 127.4 87.6528 127.4 87.6528" stroke="white" stroke-width="0.5" stroke-linecap="round" stroke-linejoin="round"/>
<path d="M123.864 81.9073C123.864 81.9073 124.517 83.2788 125.715 84.091C126.92 84.9099 129.037 85.3226 129.037 85.3226" stroke="white" stroke-width="0.5" stroke-linecap="round" stroke-linejoin="round"/>
<path d="M46.9901 89.8764C46.9901 89.8764 48.1219 91.0282 48.5746 91.4875C49.0339 91.9469 49.3202 92.3996 49.3202 92.3996" stroke="white" stroke-width="0.5" stroke-linecap="round" stroke-linejoin="round"/>
<path d="M47.1565 93.2917L48.3083 94.6165" stroke="white" stroke-width="0.5" stroke-linecap="round" stroke-linejoin="round"/>
<path d="M122.546 98.0851C122.699 99.8094 120.995 100.815 119.164 101.367" stroke="black" stroke-width="0.5" stroke-linecap="round" stroke-linejoin="round"/>
</svg>
