<svg width="147" height="146" viewBox="0 0 147 146" fill="none" xmlns="http://www.w3.org/2000/svg">
<path fill-rule="evenodd" clip-rule="evenodd" d="M109.281 28.091L96.8146 34.0823L96.2115 33.5852L107.989 27.1234L105.934 10.296L107.319 12.0192L109.281 28.091Z" fill="white"/>
<path d="M108.525 27.4879L109.281 28.091" stroke="#D7F0F7" stroke-width="0.5" stroke-linecap="round" stroke-linejoin="round"/>
<path fill-rule="evenodd" clip-rule="evenodd" d="M134.3 43.3543L134.353 43.3675C135.042 41.5913 136.56 37.4093 136.6 34.6722C136.646 31.1331 135.519 28.1374 132.477 27.8259C126.168 27.183 123.563 32.8761 122.185 37.9727C123.358 39.0265 123.954 40.7496 123.616 42.5324C123.119 45.1437 120.793 46.8934 118.427 46.4427C116.054 45.992 114.537 43.5067 115.034 40.8954C115.511 38.3902 117.678 36.6737 119.951 36.9454C120.647 34.6523 123.212 27.8325 129.177 27.1565C136.361 26.3413 138.847 31.1331 138.8 35.8254C138.767 39.2717 137.382 43.003 136.653 44.7394C137.561 45.8064 137.992 47.3308 137.693 48.9015C137.196 51.5061 134.87 53.2624 132.504 52.8118C130.131 52.3545 128.614 49.8758 129.111 47.2645C129.608 44.6533 131.934 42.9036 134.3 43.3543Z" fill="#ED712E"/>
<path fill-rule="evenodd" clip-rule="evenodd" d="M139.556 127.213L139.145 142.383L119.627 131.156L139.556 127.213Z" fill="black"/>
<path fill-rule="evenodd" clip-rule="evenodd" d="M98.8824 74.1592L46.982 88.1367C46.982 88.1367 19.312 93.6906 20.3658 105.66C21.4196 117.629 52.3503 145.498 52.3503 145.498H144.559L80.756 108.795C73.4193 104.573 67.5937 101.902 78.5225 97.0309C85.8924 92.8224 122.152 82.1056 122.152 82.1056L101.838 75.1666L98.8824 74.1592Z" fill="#ED712E"/>
<path fill-rule="evenodd" clip-rule="evenodd" d="M93.3152 93.0078L90.0611 102.293L75.507 111.055L78.6683 118C78.6683 118 96.7881 111.83 99.6976 108.715C102.607 105.6 104.662 98.0779 104.662 98.0779L93.3152 93.0078Z" fill="white" stroke="black" stroke-width="0.5" stroke-linecap="round" stroke-linejoin="round"/>
<path fill-rule="evenodd" clip-rule="evenodd" d="M72.7765 69.6458L73.9164 68.148C73.9164 68.148 73.7772 64.695 74.3074 63.7075C74.831 62.7266 79.0793 61.4011 79.0793 61.4011L83.5993 65.1589C83.5993 65.1589 81.9888 68.1413 80.0535 69.7187C78.1116 71.2961 77.2235 72.542 77.2235 72.542L72.7765 69.6458Z" fill="white" stroke="black" stroke-width="0.5" stroke-linecap="round" stroke-linejoin="round"/>
<path fill-rule="evenodd" clip-rule="evenodd" d="M45.007 56.669L42.8928 56.5298C37.3191 57.8951 34.5686 59.0152 32.0303 62.8459C29.4986 66.6766 25.9992 80.7999 27.391 86.1616C28.7762 91.5233 33.8529 92.0469 39.9833 92.1927C46.1072 92.3385 55.7304 91.8547 55.7304 91.8547L57.4668 85.3133L58.9713 84.909L59.1303 82.1387C59.1303 82.1387 64.9758 87.7854 69.3765 84.9156C73.7839 82.0393 79.795 71.3888 79.795 71.3888L73.3796 67.8431L65.9567 75.6967C65.9567 75.6967 62.57 61.5137 59.3159 59.1212C56.0552 56.7286 51.8665 56.5232 51.8665 56.5232C51.8665 56.5232 46.9356 58.5446 45.007 56.669Z" fill="#D7F0F7"/>
<path fill-rule="evenodd" clip-rule="evenodd" d="M61.4632 68.7377L62.2983 69.8644L81.1338 53.7926L85.3622 39.7687L84.4476 39.2849C84.4476 39.2849 82.963 40.0405 81.5977 42.0751C80.2325 44.1098 79.8282 45.9058 79.6956 47.0193C79.5631 48.1327 79.5896 49.1865 79.5896 49.1865C75.401 48.9744 69.8338 49.7299 66.2748 51.9833L61.4632 68.7377Z" fill="white" stroke="black" stroke-width="0.5" stroke-linecap="round" stroke-linejoin="round"/>
<path d="M36.8485 53.8258C36.8485 54.3295 36.4442 54.7338 35.9472 54.7338C35.4435 54.7338 35.0392 54.3295 35.0392 53.8258V47.6224C20.5447 47.6423 7.00466 47.6953 6.93176 47.6953C6.43469 47.6953 6.03041 47.291 6.03041 46.794C6.03041 46.2969 6.43469 45.8926 6.93176 45.8926C7.00466 45.8926 20.5381 45.8396 35.0392 45.8197V25.9238C20.4851 25.9172 7.00466 25.9039 6.93176 25.9039C6.43469 25.9039 6.03041 25.4996 6.03041 25.0026C6.03041 24.5055 6.43469 24.1012 6.93176 24.1012C7.00466 24.1012 20.4851 24.1145 35.0392 24.1211V2.734H6.8456C6.34853 2.734 5.94425 2.32972 5.94425 1.83266C5.94425 1.32896 6.34853 0.924683 6.8456 0.924683H35.9472H68.6939C69.191 0.924683 69.5952 1.32896 69.5952 1.83266V48.1791C69.5952 48.6762 69.191 49.0805 68.6939 49.0805C68.1902 49.0805 67.7859 48.6762 67.7859 48.1791V47.6754C62.8086 47.6025 49.6596 47.5959 36.8485 47.6158V53.8258ZM36.8485 2.734V24.1211C49.2619 24.1277 62.0929 24.1277 67.7859 24.1079V2.734H36.8485ZM67.7859 25.9105C62.0862 25.9304 49.2619 25.9304 36.8485 25.9238V45.8131C49.6397 45.7932 62.7755 45.7998 67.7859 45.8727V25.9105Z" fill="#D7F0F7"/>
<path d="M133.659 51.4813C135.315 51.7965 136.94 50.5729 137.287 48.7483C137.634 46.9237 136.573 45.189 134.916 44.8738C133.26 44.5585 131.635 45.7821 131.288 47.6068C130.941 49.4314 132.002 51.1661 133.659 51.4813Z" stroke="white" stroke-width="0.476914" stroke-linecap="round" stroke-linejoin="round"/>
<path d="M119.273 44.9019C120.799 45.1923 122.296 44.0648 122.616 42.3835C122.936 40.7022 121.958 39.1038 120.431 38.8133C118.905 38.5228 117.408 39.6503 117.088 41.3316C116.768 43.013 117.746 44.6114 119.273 44.9019Z" stroke="white" stroke-width="0.439455" stroke-linecap="round" stroke-linejoin="round"/>
<path d="M7.39568 9.54053H11.18V22.3715" stroke="black" stroke-width="0.5" stroke-linecap="round" stroke-linejoin="round"/>
<path d="M12.426 12.0259H16.2103V22.3715" stroke="black" stroke-width="0.5" stroke-linecap="round" stroke-linejoin="round"/>
<path fill-rule="evenodd" clip-rule="evenodd" d="M55.9093 91.1853C57.0294 91.2383 59.1303 91.3245 60.5486 91.3178C62.5568 91.3046 63.1665 91.6028 63.7166 91.4769C64.2667 91.3444 64.4722 90.8009 64.4722 90.8009C64.4722 90.8009 64.9361 90.9865 65.0488 90.5557C65.1548 90.1183 65.0488 88.9849 64.5583 88.362C64.0679 87.739 62.8948 86.0489 61.2048 85.7374C59.5147 85.4326 57.5795 84.9421 57.5795 84.9421L57.4668 85.3133L55.9093 91.1853Z" fill="white" stroke="black" stroke-width="0.5" stroke-linecap="round" stroke-linejoin="round"/>
<path d="M59.5015 89.8464C59.5015 89.8464 61.4036 89.8995 62.6164 90.1646C63.8293 90.423 64.3595 90.7809 64.3595 90.7809" stroke="black" stroke-width="0.5" stroke-linecap="round" stroke-linejoin="round"/>
<path d="M60.0714 88.2095C60.0714 88.2095 63.2659 88.9518 64.0347 89.3627C64.7969 89.767 64.8565 89.979 64.9692 89.9724" stroke="black" stroke-width="0.5" stroke-linecap="round" stroke-linejoin="round"/>
<path d="M60.5884 86.957C60.5884 86.957 62.5037 87.4276 63.5045 87.865C64.5119 88.3024 64.7107 88.594 64.7107 88.594" stroke="black" stroke-width="0.5" stroke-linecap="round" stroke-linejoin="round"/>
<path fill-rule="evenodd" clip-rule="evenodd" d="M57.4602 39.8351C57.4602 39.8351 56.9896 46.6813 56.4064 49.2661C55.8166 51.8442 54.5507 53.5409 53.4571 54.0512C52.3636 54.5681 50.9055 54.3892 50.9055 54.3892L50.9586 56.2449L51.8665 56.5233C51.2966 58.8959 49.527 59.7111 47.1411 59.3864C44.5298 59.0285 43.3899 57.6301 42.8928 56.5299L43.5224 56.3642C43.6815 55.1978 43.7677 50.5452 43.7875 48.9877C43.0651 48.3714 41.4745 46.8603 41.4679 45.4486C41.4679 43.6128 43.032 43.5664 43.032 43.5664C43.032 43.5664 41.7198 36.1899 49.4939 35.9513C57.268 35.7194 57.4602 39.8351 57.4602 39.8351Z" fill="white"/>
<path fill-rule="evenodd" clip-rule="evenodd" d="M45.6035 44.1562C45.5438 44.5141 45.4975 44.8322 45.4511 45.0642C45.2522 45.9921 44.8148 45.5745 44.6558 44.9184C44.4901 44.2623 43.9135 43.7122 43.032 43.5664C43.032 43.5664 41.4679 43.6128 41.4679 45.4486C41.4745 47.2778 43.7875 48.9877 43.7875 48.9877C43.7875 48.9877 43.7279 50.3729 43.7345 51.8707C42.2102 50.6512 40.5135 48.0002 39.7116 43.805C38.903 39.6031 39.7116 37.8004 41.6535 35.6001C43.5953 33.3997 45.7029 33.2407 48.957 33.4859C52.2178 33.7311 56.1082 34.0293 56.1082 34.0293C59.6672 34.4402 61.3704 33.804 61.7018 34.9307C62.0266 36.0574 60.2239 36.6472 60.2239 36.6472C60.2239 36.6472 62.2917 37.2172 62.232 38.3439C62.179 39.4772 59.1834 39.4109 59.1834 39.4109C59.1834 39.4109 60.6282 40.6503 60.0582 41.2269C59.4948 41.8101 57.3409 41.4257 57.3409 41.4257C57.3409 41.4257 56.4661 41.1805 54.902 40.7696C54.3121 40.6171 53.6096 40.3586 52.8474 40.1068C52.9004 40.3255 52.8673 40.5707 52.6221 40.7961C51.9394 41.4058 48.8377 39.8483 48.8377 39.8483C48.8377 39.8483 48.0689 41.313 46.4253 40.6503C45.9017 41.4986 45.683 42.7181 45.6035 44.1562Z" fill="black" stroke="black" stroke-width="0.2" stroke-linecap="round" stroke-linejoin="round"/>
<path d="M49.8567 46.3107C49.5718 46.301 49.352 45.9665 49.3657 45.5637C49.3794 45.1608 49.6215 44.8421 49.9064 44.8518C50.1914 44.8615 50.4112 45.196 50.3975 45.5988C50.3837 46.0017 50.1416 46.3204 49.8567 46.3107Z" fill="black"/>
<path d="M55.2482 45.8017C54.9633 45.792 54.7435 45.4575 54.7572 45.0546C54.7709 44.6518 55.013 44.3331 55.298 44.3428C55.5829 44.3525 55.8027 44.6869 55.789 45.0898C55.7752 45.4927 55.5331 45.8114 55.2482 45.8017Z" fill="black"/>
<path d="M53.086 45.1238C53.086 45.1238 53.5831 48.0598 53.1258 48.5767C52.6751 49.0937 51.8798 48.7358 51.8798 48.7358" stroke="black" stroke-width="0.5" stroke-linecap="round" stroke-linejoin="round"/>
<path d="M42.5084 44.6665C43.6749 45.1437 44.3642 46.509 44.2183 47.7218" stroke="black" stroke-width="0.5" stroke-linecap="round" stroke-linejoin="round"/>
<path d="M42.8 46.3234L43.8141 45.8926" stroke="black" stroke-width="0.5" stroke-linecap="round" stroke-linejoin="round"/>
<path d="M50.4946 43.4603C50.4946 43.4603 50.15 43.3741 49.5535 43.4272C48.9637 43.4802 48.6455 43.6724 48.6455 43.6724" stroke="black" stroke-width="0.5" stroke-linecap="round" stroke-linejoin="round"/>
<path d="M56.1214 43.308C55.5316 43.0429 54.8489 43.1092 54.2524 43.3146" stroke="black" stroke-width="0.5" stroke-linecap="round" stroke-linejoin="round"/>
<path d="M46.4319 51.7249C46.4319 51.7249 46.982 52.8051 48.2479 53.5077C49.5138 54.2168 50.9055 54.3891 50.9055 54.3891" stroke="black" stroke-width="0.5" stroke-linecap="round" stroke-linejoin="round"/>
<path d="M57.7982 38.3106C56.9565 37.628 55.6575 36.8658 53.8482 36.3555" stroke="white" stroke-width="0.5" stroke-linecap="round" stroke-linejoin="round"/>
<path d="M57.8446 35.8717C56.8306 35.5337 56.1811 35.3349 54.9152 35.1626" stroke="white" stroke-width="0.5" stroke-linecap="round" stroke-linejoin="round"/>
<path d="M54.3121 38.4632C53.8217 38.0523 53.1589 37.6149 52.3172 37.2239" stroke="white" stroke-width="0.5" stroke-linecap="round" stroke-linejoin="round"/>
<path d="M43.4827 42.8041C43.4032 42.3336 43.3435 41.7967 43.3303 41.2467C43.3236 40.9882 43.3236 40.7231 43.3435 40.4646" stroke="white" stroke-width="0.5" stroke-linecap="round" stroke-linejoin="round"/>
<path d="M42.2566 42.1347C42.1572 41.4388 42.0909 40.5905 42.1638 39.7952" stroke="white" stroke-width="0.5" stroke-linecap="round" stroke-linejoin="round"/>
<path d="M41.3619 42.9102C41.2028 42.221 41.0636 41.3859 41.0769 40.584" stroke="white" stroke-width="0.5" stroke-linecap="round" stroke-linejoin="round"/>
<path d="M57.4602 39.835C57.4602 39.835 56.9896 46.6812 56.4064 49.266C55.8166 51.8441 54.5507 53.5407 53.4571 54.0511C52.3636 54.568 50.9055 54.3891 50.9055 54.3891L50.9586 56.2448M43.5224 56.3641C43.6815 55.1976 43.7677 50.5451 43.7875 48.9876C43.0651 48.3712 41.4745 46.8602 41.4679 45.4485C41.4679 43.6127 43.032 43.5663 43.032 43.5663L43.5224 56.3641Z" stroke="black" stroke-width="0.5" stroke-linecap="round" stroke-linejoin="round"/>
<path fill-rule="evenodd" clip-rule="evenodd" d="M50.2892 51.1086C50.1169 51.9437 53.3578 51.8708 53.444 51.1219C53.5831 49.803 50.4417 50.3796 50.2892 51.1086Z" fill="black"/>
<path fill-rule="evenodd" clip-rule="evenodd" d="M67.2822 53.0106L62.2983 69.8645C67.7992 67.3195 72.1601 64.9204 78.3304 64.8607L79.0793 61.4011C80.1331 60.6853 80.8621 60.4534 80.8621 60.4534L85.3622 39.7688C85.3622 39.7688 82.6581 42.1415 81.5845 44.8919C80.5042 47.649 81.0344 50.6181 81.0344 50.6181C81.0344 50.6181 74.4002 49.73 67.2822 53.0106Z" fill="black" stroke="black" stroke-width="0.5" stroke-linecap="round" stroke-linejoin="round"/>
<path fill-rule="evenodd" clip-rule="evenodd" d="M81.3989 61.6331C81.3989 61.6331 80.988 60.4004 80.2855 59.9364C79.5763 59.4659 78.0652 60.2811 77.1241 60.7185C76.1764 61.1625 76.3156 61.6861 76.5541 62.0241C76.7927 62.3555 79.1654 61.4807 79.1654 61.4807L79.5697 62.1766C79.5697 62.1766 77.9923 63.4027 77.1042 64.8806C76.2228 66.3652 77.8929 65.9012 77.8929 65.9012C77.8929 65.9012 77.7869 66.9285 78.3966 67.1472C79.0063 67.3593 79.7884 66.5839 79.7884 66.5839C79.7884 66.5839 80.1065 68.1546 80.9018 67.5515C81.9689 66.7496 83.5595 65.7223 83.6324 65.0131C83.6987 64.3106 83.1486 63.8931 83.1486 63.8931C83.1486 63.8931 83.1883 63.2171 82.9564 62.9454C82.731 62.667 82.2141 62.6339 82.2141 62.6339C82.2141 62.6339 81.9689 61.7988 81.3989 61.6331Z" fill="white" stroke="black" stroke-width="0.5" stroke-linecap="round" stroke-linejoin="round"/>
<path d="M41.786 56.7883C44.5232 62.4151 52.2509 61.6794 52.9004 56.616" stroke="#6CA3B7" stroke-width="0.5" stroke-linecap="round" stroke-linejoin="round"/>
<path d="M40.1623 68.2207L38.2072 81.7277" stroke="black" stroke-width="0.5" stroke-linecap="round" stroke-linejoin="round"/>
<path d="M59.1237 67.7437V81.0982" stroke="black" stroke-width="0.5" stroke-linecap="round" stroke-linejoin="round"/>
<path fill-rule="evenodd" clip-rule="evenodd" d="M129.044 79.1562C136.083 83.6032 139.151 88.8258 141.829 93.0409C144.513 97.2494 144.99 98.449 144.99 98.449L139.098 103.38C139.098 103.38 140.821 124.064 140.729 128.85C140.656 132.528 130.429 133.436 121.953 132.488L100.294 120.035C100.115 113.924 99.1673 101.034 99.1673 101.034C99.1673 101.034 96.7748 100.073 94.8594 98.4026C92.9441 96.7258 91.4131 93.803 91.4131 93.803C91.4131 93.803 95.3631 81.3764 99.2866 78.3609C104.463 74.3843 110.58 73.3504 116.571 74.3048C120.926 74.9941 125.22 76.7305 129.044 79.1562Z" fill="#D7F0F7"/>
<path fill-rule="evenodd" clip-rule="evenodd" d="M37.0076 98.416L36.9744 100.663L40.1557 109.57L40.2683 107.893L37.0076 98.416Z" fill="white"/>
<path fill-rule="evenodd" clip-rule="evenodd" d="M2.06712 71.7666L10.4974 88.6933C10.4974 88.6933 12.7772 89.6676 15.7 88.1035C18.6161 86.5327 19.0204 84.909 19.0204 84.909L14.5667 67.3857C14.5667 67.3857 8.4362 72.5022 2.06712 71.7666Z" fill="white" stroke="black" stroke-width="0.5" stroke-linecap="round" stroke-linejoin="round"/>
<path fill-rule="evenodd" clip-rule="evenodd" d="M3.96261 77.4065L7.10407 83.6961C7.10407 83.6961 9.56952 84.2462 13.3737 82.6821C17.1713 81.1113 18.4173 79.3749 18.4173 79.3749L16.5815 72.5552C16.5815 72.5552 10.5968 77.2674 3.96261 77.4065Z" fill="#ED712E"/>
<path fill-rule="evenodd" clip-rule="evenodd" d="M4.53921 67.0277L2.87569 67.7037L1.88156 70.0366C1.88156 70.0366 1.63634 70.991 3.23358 71.614C4.83082 72.237 11.4451 69.46 11.4451 69.46L14.1757 67.379L14.1028 65.4967L11.4517 64.3369L4.53921 67.0277Z" fill="white" stroke="black" stroke-width="0.5" stroke-linecap="round" stroke-linejoin="round"/>
<path fill-rule="evenodd" clip-rule="evenodd" d="M1.88155 70.0367C1.88155 70.0367 0.21804 70.8121 1.35798 72.184C2.49792 73.5559 7.12395 72.6081 11.1137 70.5801C15.1035 68.5521 15.8723 67.0609 15.4415 66.2258C15.0174 65.3907 14.1028 65.4968 14.1028 65.4968C14.116 68.1147 3.14079 72.8998 1.88155 70.0367Z" fill="white" stroke="black" stroke-width="0.5" stroke-linecap="round" stroke-linejoin="round"/>
<path fill-rule="evenodd" clip-rule="evenodd" d="M6.82571 65.1588C9.19838 64.2309 11.2662 63.8598 11.4517 64.337C11.6373 64.8075 10.7293 66.0469 7.61439 67.1868C4.49944 68.3268 3.06127 68.1743 2.87569 67.7038C2.69012 67.2266 4.45968 66.0933 6.82571 65.1588Z" fill="white" stroke="black" stroke-width="0.5" stroke-linecap="round" stroke-linejoin="round"/>
<path fill-rule="evenodd" clip-rule="evenodd" d="M95.0185 18.1695L96.2115 33.5852L107.989 27.1234L105.934 10.296L95.0185 18.1695Z" fill="#D7F0F7"/>
<path fill-rule="evenodd" clip-rule="evenodd" d="M97.6762 19.6409L103.952 15.1407L105.185 24.8501L98.3986 28.8134L97.6762 19.6409Z" fill="white"/>
<path d="M17.8805 14.1864L20.0874 13.7026L22.0028 22.2721" stroke="black" stroke-width="0.5" stroke-linecap="round" stroke-linejoin="round"/>
<path d="M38.8567 9.54053H41.2956V22.3715" stroke="black" stroke-width="0.5" stroke-linecap="round" stroke-linejoin="round"/>
<path d="M43.1646 6.42554H45.6035V22.3714" stroke="black" stroke-width="0.5" stroke-linecap="round" stroke-linejoin="round"/>
<path d="M47.3267 11.4558H51.2038V22.3714" stroke="black" stroke-width="0.5" stroke-linecap="round" stroke-linejoin="round"/>
<path d="M53.0727 10.3026H55.0146V22.3714" stroke="black" stroke-width="0.5" stroke-linecap="round" stroke-linejoin="round"/>
<path d="M56.7577 10.3026H58.6995V22.3714" stroke="black" stroke-width="0.5" stroke-linecap="round" stroke-linejoin="round"/>
<path d="M8.49585 31.5374H10.9414V44.3683" stroke="black" stroke-width="0.5" stroke-linecap="round" stroke-linejoin="round"/>
<path d="M12.5453 33.625H15.6072V44.3683" stroke="black" stroke-width="0.5" stroke-linecap="round" stroke-linejoin="round"/>
<path d="M16.8068 30.848H19.8687V44.3682" stroke="black" stroke-width="0.5" stroke-linecap="round" stroke-linejoin="round"/>
<path d="M22.0757 36.0176H23.2223V44.3683" stroke="black" stroke-width="0.5" stroke-linecap="round" stroke-linejoin="round"/>
<path d="M25.184 34.3872H28.6304V44.3683" stroke="black" stroke-width="0.5" stroke-linecap="round" stroke-linejoin="round"/>
<path d="M91.0287 61.0962C92.4073 61.2619 95.0185 61.368 97.7689 60.3539C101.785 58.8694 101.885 58.6772 101.885 58.6772C101.885 58.6772 102.004 59.8966 103.27 59.7044C104.542 59.5122 105.165 58.9158 105.165 58.9158C105.165 58.9158 105.954 61.0233 106.908 61.9777C107.869 62.9387 108.512 65.1191 109.162 65.3113C109.811 65.4969 109.639 65.6891 109.95 64.304C110.262 62.9122 111.342 62.3223 112.409 62.329C112.409 62.329 111.846 55.5622 107.75 54.5151C106.299 54.1373 104.708 54.0777 103.257 54.1572C100.069 54.4289 95.8138 55.1579 93.5472 57.0667C91.771 58.5579 91.0685 59.7442 91.0287 61.0962ZM91.0287 61.0962C91.0287 61.0962 86.8269 59.8768 90.2732 55.5622C93.7195 51.2543 97.1194 52.4539 100.446 51.4465C103.773 50.4391 111.196 50.2734 112.727 52.1424C114.258 54.0114 116.704 62.3886 115.551 67.7503C114.815 71.2099 114.629 73.0523 114.139 73.8543L112.959 69.8711C112.959 69.8711 115.087 67.7171 114.371 64.8673" stroke="#CCCCCC" stroke-width="0.2" stroke-linecap="round" stroke-linejoin="round"/>
<path fill-rule="evenodd" clip-rule="evenodd" d="M103.257 54.1572C100.069 54.429 95.8138 55.158 93.5472 57.0667C89.6171 60.3672 90.9359 62.1434 93.0899 67.6443C93.5074 68.718 94.263 70.3019 95.1179 71.9058C97.7491 76.6644 100.161 78.6063 101.818 79.3817C103.104 79.8257 104.112 79.8655 104.112 79.8655L104.105 80.5481L104.098 80.5548V80.5614C104.098 80.853 104.012 88.309 110.779 87.0365C111.879 86.8311 112.721 86.3671 113.364 85.7309L113.377 85.7242C116.916 82.7153 115.398 76.3993 115.398 76.3993L114.139 73.8543L112.959 69.8711C112.959 69.8711 115.087 67.7172 114.371 64.8673C113.655 62.0175 112.409 62.329 112.409 62.329C112.409 62.329 111.846 55.5623 107.75 54.5151C106.299 54.1373 104.708 54.0777 103.257 54.1572Z" fill="white"/>
<path fill-rule="evenodd" clip-rule="evenodd" d="M101.46 58.9025C101.46 58.9025 101.089 60.0955 102.494 60.2148C103.893 60.3341 105.112 59.4857 105.112 59.4857C105.112 59.4857 105.556 61.9976 107.246 62.6206C108.93 63.2436 109.049 65.6162 109.447 65.7952C109.844 65.9741 109.778 64.2841 110.607 63.3496C111.435 62.4218 112.409 62.329 112.409 62.329C112.409 62.329 113.655 62.0175 114.371 64.8673C115.087 67.7172 112.959 69.8711 112.959 69.8711L113.814 72.7541C114.305 71.8992 115.279 69.9241 115.564 67.3659C115.842 64.8342 115.61 61.9379 115.305 59.4261C115.769 59.5587 116.266 59.5255 116.134 58.6772C115.988 57.7427 115.319 56.7552 114.828 56.1388C114.769 55.9002 114.689 55.6683 114.596 55.4429C115.067 55.2507 115.796 54.6675 114.245 52.9576C113.383 52.0099 112.436 51.5261 111.614 51.2941C110.633 50.4789 109.38 49.783 107.79 49.4052C102.09 48.0665 97.9744 49.7565 97.2918 50.2801C96.6091 50.8103 97.2984 51.4068 97.2984 51.4068C97.2984 51.4068 93.3285 52.0629 91.9168 53.2824C91.3336 53.7861 91.3071 54.2831 91.4794 54.694C91.4794 54.694 88.7754 55.3038 88.5566 59.3731C88.3446 63.4424 94.7401 61.0366 94.7401 61.0366C94.7401 61.0366 94.9257 63.1574 97.0068 62.2428C99.0878 61.3348 101.46 58.9025 101.46 58.9025Z" fill="#ED712E"/>
<path fill-rule="evenodd" clip-rule="evenodd" d="M95.6084 67.6774C95.9596 67.5713 96.344 67.7967 96.4567 68.1811C96.576 68.5655 96.3838 68.9697 96.0259 69.0758C95.6746 69.1818 95.2902 68.9565 95.1776 68.5721C95.0583 68.1811 95.2505 67.7834 95.6084 67.6774ZM103.21 67.1273C103.561 67.0212 103.946 67.2466 104.059 67.631C104.178 68.0154 103.986 68.413 103.628 68.5257C103.276 68.6317 102.892 68.4064 102.779 68.0154C102.66 67.631 102.852 67.2333 103.21 67.1273Z" fill="black"/>
<path d="M99.1674 68.6052C99.2005 69.8247 99.3463 72.4956 99.8765 72.8734C100.566 73.3572 101.56 72.9198 101.56 72.9198" stroke="black" stroke-width="0.5" stroke-linecap="round" stroke-linejoin="round"/>
<path d="M110.964 74.802C109.877 77.4398 107.465 79.9914 104.112 79.8655" stroke="black" stroke-width="0.5" stroke-linecap="round" stroke-linejoin="round"/>
<path d="M106.272 81.244L105.636 79.7329" stroke="black" stroke-width="0.5" stroke-linecap="round" stroke-linejoin="round"/>
<path d="M112.462 63.522C110.892 63.913 110.381 67.7238 112.754 68.4595" stroke="black" stroke-width="0.5" stroke-linecap="round" stroke-linejoin="round"/>
<path d="M113.185 66.2988L111.13 65.8547" stroke="black" stroke-width="0.5" stroke-linecap="round" stroke-linejoin="round"/>
<path fill-rule="evenodd" clip-rule="evenodd" d="M101.878 74.9743L106.04 73.4897C105.947 76.1142 102.501 76.492 101.878 74.9743Z" fill="black" stroke="black" stroke-width="0.5" stroke-linecap="round" stroke-linejoin="round"/>
<path d="M80.2656 58.6108L81.1272 52.1025" stroke="white" stroke-width="0.5" stroke-linecap="round" stroke-linejoin="round"/>
<path d="M83.1486 63.8931C82.3002 64.2841 81.7104 64.7016 80.9151 65.3511C80.7229 65.5102 80.5638 65.6427 80.4445 65.762" stroke="black" stroke-width="0.5" stroke-linecap="round" stroke-linejoin="round"/>
<path d="M82.2141 62.6338C81.3393 62.9055 79.6757 64.0985 78.6087 65.0661" stroke="black" stroke-width="0.5" stroke-linecap="round" stroke-linejoin="round"/>
<path d="M80.5506 61.6528L79.5697 62.1764" stroke="black" stroke-width="0.5" stroke-linecap="round" stroke-linejoin="round"/>
<path d="M72.0209 69.2812L78.8605 72.9728" stroke="#6CA3B7" stroke-width="0.5" stroke-linecap="round" stroke-linejoin="round"/>
<path d="M74.4532 68.4395L73.3994 70.0566" stroke="#6CA3B7" stroke-width="0.5" stroke-linecap="round" stroke-linejoin="round"/>
<path d="M75.5468 69.0493L74.6587 70.6996" stroke="#6CA3B7" stroke-width="0.5" stroke-linecap="round" stroke-linejoin="round"/>
<path d="M76.8723 69.7783L75.9908 71.422" stroke="#6CA3B7" stroke-width="0.5" stroke-linecap="round" stroke-linejoin="round"/>
<path d="M77.999 70.4014L77.1175 72.0251" stroke="#6CA3B7" stroke-width="0.5" stroke-linecap="round" stroke-linejoin="round"/>
<path d="M79.0461 70.9778L78.1779 72.6015" stroke="#6CA3B7" stroke-width="0.5" stroke-linecap="round" stroke-linejoin="round"/>
<path d="M53.4704 91.9606C53.4704 91.9606 54.6369 88.004 55.1074 86.6255C55.5713 85.2469 55.8497 84.3655 55.8497 84.3655" stroke="#6CA3B7" stroke-width="0.5" stroke-linecap="round" stroke-linejoin="round"/>
<path d="M57.2415 86.1616C57.2415 86.1616 55.5912 85.7042 55.5117 85.6777" stroke="#6CA3B7" stroke-width="0.5" stroke-linecap="round" stroke-linejoin="round"/>
<path d="M56.9631 87.2221L55.0676 86.7383" stroke="#6CA3B7" stroke-width="0.5" stroke-linecap="round" stroke-linejoin="round"/>
<path d="M56.6914 88.2493L54.7164 87.845" stroke="#6CA3B7" stroke-width="0.5" stroke-linecap="round" stroke-linejoin="round"/>
<path d="M56.3269 89.6078L54.3055 89.1704" stroke="#6CA3B7" stroke-width="0.5" stroke-linecap="round" stroke-linejoin="round"/>
<path d="M56.0088 90.8141L53.9078 90.4827" stroke="#6CA3B7" stroke-width="0.5" stroke-linecap="round" stroke-linejoin="round"/>
<path d="M33.8396 81.509C33.8396 81.509 42.1704 81.7741 48.1087 82.755C54.047 83.7359 57.5795 84.9421 57.5795 84.9421L55.7304 91.8547L50.6802 92.0601" stroke="black" stroke-width="0.5" stroke-linecap="round" stroke-linejoin="round"/>
<path d="M63.4648 78.4605L65.9567 75.6968" stroke="black" stroke-width="0.5" stroke-linecap="round" stroke-linejoin="round"/>
<path d="M98.0351 70.6591C98.8757 69.4906 98.5258 67.6054 97.2536 66.4484C95.9814 65.2914 94.2687 65.3008 93.4281 66.4694C92.5875 67.6379 92.9374 69.5231 94.2096 70.6801C95.4818 71.837 97.1945 71.8277 98.0351 70.6591Z" stroke="black" stroke-width="0.862012" stroke-linecap="round" stroke-linejoin="round"/>
<path d="M110.441 63.5684L105.762 67.0412" stroke="black" stroke-width="0.5" stroke-linecap="round" stroke-linejoin="round"/>
<path d="M105.593 69.9159C106.434 68.7474 106.084 66.8622 104.812 65.7052C103.54 64.5483 101.827 64.5576 100.986 65.7262C100.146 66.8947 100.496 68.7799 101.768 69.9369C103.04 71.0939 104.753 71.0845 105.593 69.9159Z" stroke="black" stroke-width="0.862012" stroke-linecap="round" stroke-linejoin="round"/>
<path d="M98.2991 68.0287C98.6703 67.2997 100.002 67.3792 100.586 67.863" stroke="black" stroke-width="0.5" stroke-linecap="round" stroke-linejoin="round"/>
<path fill-rule="evenodd" clip-rule="evenodd" d="M67.4347 105.276L65.5458 102.863L67.1232 101.902C67.1232 101.902 72.9156 105.083 75.8649 106.714C78.8075 108.344 82.0882 111.691 82.0882 111.691C82.0882 111.691 90.8034 110.233 95.6879 109.802C100.566 109.371 105 109.371 105 109.371L105.43 111.141L87.377 130.679L67.4347 105.276Z" fill="white" stroke="black" stroke-width="0.5" stroke-linecap="round" stroke-linejoin="round"/>
<path fill-rule="evenodd" clip-rule="evenodd" d="M65.5458 102.863C65.5458 102.863 69.5886 105.229 72.6572 106.813C75.7191 108.39 81.5381 113.441 81.5381 113.441C81.5381 113.441 88.6495 112.029 93.9647 111.598C99.2734 111.167 105.43 111.141 105.43 111.141L106.338 118.637L106.769 121.844L108.638 134.748C108.638 134.748 99.8765 135.152 95.9994 135.133C92.1157 135.106 86.469 135.636 86.469 135.636L71.6498 126.106L65.5458 102.863Z" fill="black" stroke="black" stroke-width="0.2" stroke-linecap="round" stroke-linejoin="round"/>
<path fill-rule="evenodd" clip-rule="evenodd" d="M67.7594 111.287C67.7594 111.287 65.4729 113.248 65.2807 113.726C65.0885 114.209 65.6916 115.714 65.6916 115.714C65.6916 115.714 64.8764 116.529 64.9957 117.331C65.115 118.133 65.6187 118.345 65.6187 118.345C65.6187 118.345 65.1879 119.326 65.3271 119.763C65.4729 120.194 66.4803 120.552 66.4803 120.552C66.4803 120.552 66.1688 122.103 67.269 122.679C68.3691 123.256 71.0997 122.898 71.1726 122.54C71.2455 122.176 70.5165 120.956 70.5165 120.956C70.5165 120.956 71.2323 120.791 71.219 120.24C71.2057 119.69 70.5364 119.326 70.5364 119.326C70.5364 119.326 71.5437 118.875 71.3052 118.398C71.0666 117.914 70.1056 117.271 70.1056 117.271C70.1056 117.271 70.9672 116.622 70.3707 115.787C69.7742 114.945 68.5415 114.269 68.5415 114.269L67.7594 111.287Z" fill="white" stroke="black" stroke-width="0.5" stroke-linecap="round" stroke-linejoin="round"/>
<path d="M65.6916 115.714C66.6394 116.343 68.4818 117.086 69.6151 117.304" stroke="black" stroke-width="0.5" stroke-linecap="round" stroke-linejoin="round"/>
<path d="M65.6187 118.345C66.9442 119.114 68.6409 119.187 70.1056 119.372" stroke="black" stroke-width="0.5" stroke-linecap="round" stroke-linejoin="round"/>
<path d="M66.4803 120.552C67.428 120.97 68.9789 120.989 69.9995 121.029" stroke="black" stroke-width="0.5" stroke-linecap="round" stroke-linejoin="round"/>
<path fill-rule="evenodd" clip-rule="evenodd" d="M84.3747 114.455L83.6589 115.8L87.3902 132.912L88.6627 134.013C88.6627 134.013 94.1437 133.582 97.3514 133.635C100.559 133.681 105.371 133.443 105.371 133.443L106.444 132.124L103.906 114.05L101.686 112.539C101.686 112.539 90.9094 112.95 84.3747 114.455Z" fill="#D7F0F7"/>
<path d="M93.7328 104.613C92.5067 103.592 91.5788 102.85 90.0611 102.293" stroke="black" stroke-width="0.5" stroke-linecap="round" stroke-linejoin="round"/>
<path fill-rule="evenodd" clip-rule="evenodd" d="M131.251 108.119C133.531 107.018 136.752 105.342 139.098 103.38L143.605 99.6089C143.605 99.6089 149.391 113.812 142.79 119.611C136.182 125.403 116.797 129.526 116.797 129.526C116.797 129.526 112.482 131.481 107.737 131.454C102.998 131.434 102.163 129.565 102.163 129.565C102.163 129.565 100.188 129.062 99.8036 128.333C99.4192 127.604 100.725 127.378 100.725 127.378C100.725 127.378 99.4192 127.067 98.8492 126.272C98.2726 125.483 100.115 125.198 100.115 125.198C100.115 125.198 98.942 124.741 99.3264 123.833C99.7108 122.925 102.315 122.925 103.966 122.567C105.623 122.202 106.769 121.844 106.769 121.844L106.338 118.637C106.338 118.637 109.215 118.802 110.719 119.498C112.23 120.194 114.265 121.248 114.265 121.248C114.265 121.248 120.727 118.325 125.565 115.933C130.396 113.54 133.392 111.936 133.392 111.936L131.251 108.119Z" fill="white"/>
<path d="M143.605 99.6089C143.605 99.6089 149.391 113.812 142.79 119.611C136.182 125.403 116.797 129.526 116.797 129.526C116.797 129.526 112.482 131.481 107.737 131.454C102.998 131.434 102.163 129.565 102.163 129.565C102.163 129.565 100.188 129.062 99.8036 128.333C99.4192 127.604 100.725 127.378 100.725 127.378C100.725 127.378 99.4192 127.067 98.8492 126.272C98.2726 125.483 100.115 125.198 100.115 125.198C100.115 125.198 98.942 124.741 99.3264 123.833C99.7108 122.925 102.315 122.925 103.966 122.567C105.623 122.202 106.769 121.844 106.769 121.844L106.338 118.637C106.338 118.637 109.215 118.802 110.719 119.498C112.23 120.194 114.265 121.248 114.265 121.248C114.265 121.248 120.727 118.325 125.565 115.933C130.396 113.54 133.392 111.936 133.392 111.936L131.251 108.119C132.451 107.535 133.922 106.8 135.38 105.938" stroke="black" stroke-width="0.5" stroke-linecap="round" stroke-linejoin="round"/>
<path d="M86.005 134.377L81.717 115.343" stroke="white" stroke-width="0.5" stroke-linecap="round" stroke-linejoin="round"/>
<path d="M135.93 112.334C135.056 112.095 134.287 112.016 133.392 111.936" stroke="black" stroke-width="0.5" stroke-linecap="round" stroke-linejoin="round"/>
<path d="M107.545 124.555C107.545 124.555 106.325 124.74 103.919 124.966C102.587 125.092 101.686 125.138 101.149 125.158" stroke="black" stroke-width="0.5" stroke-linecap="round" stroke-linejoin="round"/>
<path d="M107.737 126.775C107.737 126.775 105.954 127.206 104.039 127.285C102.952 127.332 102.117 127.345 101.593 127.345" stroke="black" stroke-width="0.5" stroke-linecap="round" stroke-linejoin="round"/>
<path d="M108.134 129.426C108.134 129.426 107.048 129.645 105.311 129.645C104.35 129.645 103.601 129.599 103.124 129.565" stroke="black" stroke-width="0.5" stroke-linecap="round" stroke-linejoin="round"/>
<path d="M116.339 74.2651C118.699 79.872 117.433 88.4083 109.824 88.8391C105.57 89.0777 102.004 85.7175 102.441 79.5738" stroke="#6CA3B7" stroke-width="0.5" stroke-linecap="round" stroke-linejoin="round"/>
<path d="M109.155 94.678L109.261 88.8457" stroke="#6CA3B7" stroke-width="0.5" stroke-linecap="round" stroke-linejoin="round"/>
<path d="M92.0029 92.0732C92.0029 92.0732 93.7128 95.3936 95.721 96.9246C97.7358 98.4556 99.1541 99.1316 99.1541 99.1316" stroke="#6CA3B7" stroke-width="0.5" stroke-linecap="round" stroke-linejoin="round"/>
<path d="M143.479 95.7053C143.479 95.7053 139.025 100.278 136.275 102.147C133.525 104.01 129.369 105.918 129.369 105.918" stroke="#6CA3B7" stroke-width="0.5" stroke-linecap="round" stroke-linejoin="round"/>
<path d="M99.5849 87.9775L99.5054 105.839" stroke="black" stroke-width="0.5" stroke-linecap="round" stroke-linejoin="round"/>
<path d="M123.577 95.301L130.131 107.323" stroke="black" stroke-width="0.5" stroke-linecap="round" stroke-linejoin="round"/>
<path d="M111.064 92.2854C111.441 92.2854 111.746 91.9798 111.746 91.6028C111.746 91.2258 111.441 90.9202 111.064 90.9202C110.687 90.9202 110.381 91.2258 110.381 91.6028C110.381 91.9798 110.687 92.2854 111.064 92.2854Z" fill="black"/>
<path d="M114.139 73.8542L112.959 69.871C112.959 69.871 115.087 67.7171 114.371 64.8672C113.655 62.0174 112.409 62.3289 112.409 62.3289M91.2408 62.7C91.5722 64.0056 92.2747 65.5565 93.0899 67.6442C93.5074 68.7178 94.263 70.3018 95.1179 71.9057C96.9339 75.1863 99.9097 79.6997 104.112 79.8654L104.098 80.5546L91.2408 62.7Z" stroke="black" stroke-width="0.5" stroke-linecap="round" stroke-linejoin="round"/>
<path d="M93.8322 57.6035C93.8322 57.6035 95.4559 56.6226 96.9206 56.3111C98.3787 55.9996 99.9561 55.9797 99.9561 55.9797" stroke="white" stroke-width="0.5" stroke-linecap="round" stroke-linejoin="round"/>
<path d="M97.6099 54.0378C97.6099 54.0378 99.4789 53.766 100.818 54.0179C102.163 54.2631 102.998 54.568 102.998 54.568" stroke="white" stroke-width="0.5" stroke-linecap="round" stroke-linejoin="round"/>
<path d="M98.8823 51.453C98.8823 51.453 99.8499 51.3205 100.745 51.4994C101.646 51.6783 101.885 51.7778 101.885 51.7778" stroke="white" stroke-width="0.5" stroke-linecap="round" stroke-linejoin="round"/>
<path d="M109.592 58.0874C109.592 58.0874 110.189 58.9954 110.288 59.5189C110.381 60.0492 110.408 60.3076 110.408 60.3076" stroke="white" stroke-width="0.5" stroke-linecap="round" stroke-linejoin="round"/>
<path d="M111.998 58.5381C111.998 58.5381 112.157 58.8496 112.31 59.3798C112.462 59.9034 112.442 60.2613 112.442 60.2613" stroke="white" stroke-width="0.5" stroke-linecap="round" stroke-linejoin="round"/>
<path d="M113.887 59.3398C113.887 59.3398 113.973 60.0026 114 60.2478C114.02 60.4997 114.046 60.8045 114.046 60.8045" stroke="white" stroke-width="0.5" stroke-linecap="round" stroke-linejoin="round"/>
<path d="M101.308 75.1865L101.878 74.9744" stroke="black" stroke-width="0.5" stroke-linecap="round" stroke-linejoin="round"/>
<path fill-rule="evenodd" clip-rule="evenodd" d="M37.0076 98.4159L40.2683 107.893L40.1557 109.57L62.4242 107.867L62.4839 106.263L58.0766 97.0706L37.0076 98.4159Z" fill="black" stroke="black" stroke-width="0.5" stroke-linecap="round" stroke-linejoin="round"/>
<path fill-rule="evenodd" clip-rule="evenodd" d="M39.4266 99.7548L41.7264 106.124L44.9076 105.859L42.4223 99.5493L39.4266 99.7548Z" fill="white"/>
<path d="M36.9744 100.663L40.1557 109.57" stroke="black" stroke-width="0.5" stroke-linecap="round" stroke-linejoin="round"/>
<path d="M41.8788 108.059L61.2246 106.621" stroke="white" stroke-width="0.5" stroke-linecap="round" stroke-linejoin="round"/>
<path d="M96.8146 34.0823L109.281 28.091L107.319 12.0192" stroke="#D7F0F7" stroke-width="0.5" stroke-linecap="round" stroke-linejoin="round"/>
<path d="M21.34 141.846L20.6044 104.878" stroke="#ED712E" stroke-width="0.5" stroke-linecap="round" stroke-linejoin="round"/>
<path d="M43.9003 129.499C43.9003 129.499 47.1544 133.191 50.3621 135.868C53.5699 138.552 56.3004 141.614 56.3004 141.614" stroke="white" stroke-width="0.75" stroke-linecap="round" stroke-linejoin="round"/>
<path d="M58.1693 137.929L62.7158 142.43" stroke="white" stroke-width="0.75" stroke-linecap="round" stroke-linejoin="round"/>
<path d="M82.8702 81.9133L93.2158 78.8447" stroke="white" stroke-width="0.75" stroke-linecap="round" stroke-linejoin="round"/>
<path d="M77.0313 86.2676L85.9852 83.5901" stroke="white" stroke-width="0.75" stroke-linecap="round" stroke-linejoin="round"/>
<path d="M28.246 101.398C28.246 101.398 24.508 103.599 26.1384 107.145C27.7622 110.684 29.8697 112.506 29.8697 112.506" stroke="white" stroke-width="0.75" stroke-linecap="round" stroke-linejoin="round"/>
<path d="M34.1776 113.129L31.8844 110.736C30.9698 109.683 27.9742 105.998 29.631 104.652" stroke="white" stroke-width="0.75" stroke-linecap="round" stroke-linejoin="round"/>
<path d="M116.843 136.345L125.936 141.422" stroke="white" stroke-width="0.5" stroke-linecap="round" stroke-linejoin="round"/>
<path d="M36.4243 138.625L43.7345 145.299" stroke="black" stroke-width="0.5" stroke-linecap="round" stroke-linejoin="round"/>
<path d="M36.6563 142.642L39.2411 144.941" stroke="black" stroke-width="0.5" stroke-linecap="round" stroke-linejoin="round"/>
<path d="M30.8307 139.613C32.819 141.893 33.6209 142.933 35.6423 144.955" stroke="black" stroke-width="0.5" stroke-linecap="round" stroke-linejoin="round"/>
</svg>
