<svg width="145" height="121" viewBox="0 0 145 121" fill="none" xmlns="http://www.w3.org/2000/svg">
<path d="M25.5593 120.742V109.617" stroke="#ED712E" stroke-width="0.5" stroke-linecap="round" stroke-linejoin="round"/>
<path d="M0.839478 120.329V80.5493" stroke="#ED712E" stroke-width="0.5" stroke-linecap="round" stroke-linejoin="round"/>
<path fill-rule="evenodd" clip-rule="evenodd" d="M137.674 100.709C137.674 100.709 140.064 112.373 138.553 120.642H69.5464C70.3786 118.984 72.9351 115.182 80.152 111.288C89.7723 106.095 106.796 104.557 106.796 104.557L137.674 100.709Z" fill="black" stroke="black" stroke-width="0.2" stroke-linecap="round" stroke-linejoin="round"/>
<path fill-rule="evenodd" clip-rule="evenodd" d="M62.0366 23.9127C64.6131 20.4041 61.9634 16.556 56.5041 16.4095C48.0822 16.1898 45.226 20.3974 46.2846 23.5532L44.8532 26.1496L47.8292 25.6636C48.5748 26.2429 49.5602 26.6689 50.7386 26.842C54.3537 26.9952 59.7064 27.095 62.0366 23.9127Z" fill="white" stroke="black" stroke-width="0.5" stroke-linecap="round" stroke-linejoin="round"/>
<path fill-rule="evenodd" clip-rule="evenodd" d="M51.2046 21.6358C51.5708 21.6358 51.8704 21.942 51.8704 22.3148C51.8704 22.6877 51.5708 22.9939 51.2046 22.9939C50.8385 22.9939 50.5455 22.6877 50.5455 22.3148C50.5455 21.942 50.8385 21.6358 51.2046 21.6358ZM58.2218 20.5972C58.588 20.5972 58.8876 20.8968 58.8876 21.2696C58.8876 21.6424 58.588 21.9487 58.2218 21.9487C57.8556 21.9487 57.5627 21.6424 57.5627 21.2696C57.5627 20.8968 57.8556 20.5972 58.2218 20.5972ZM54.6466 21.1764C55.0128 21.1764 55.3124 21.4826 55.3124 21.8555C55.3124 22.2283 55.0128 22.5345 54.6466 22.5345C54.2805 22.5345 53.9809 22.2283 53.9809 21.8555C53.9809 21.4826 54.2805 21.1764 54.6466 21.1764Z" fill="black"/>
<path fill-rule="evenodd" clip-rule="evenodd" d="M77.3958 12.1619C75.4184 22.0885 85.7578 28.5531 92.8948 23.5332C93.7603 23.9393 95.671 24.8248 95.8175 24.8048C95.964 24.7848 95.7709 22.2749 95.6777 21.1897C100.564 16.3563 101.317 10.9236 98.6603 6.92237C91.9494 -3.19725 79.4996 1.59626 77.3958 12.1619Z" fill="white" stroke="black" stroke-width="0.5" stroke-linecap="round" stroke-linejoin="round"/>
<path fill-rule="evenodd" clip-rule="evenodd" d="M141.802 29.5584C141.802 29.5584 141.609 27.4146 140.164 27.368C138.726 27.3214 139.059 30.1309 139.492 31.529C139.924 32.9205 139.998 33.2134 139.998 33.2134C139.998 33.2134 144.112 32.1748 144.232 30.3506C144.352 28.5198 141.802 29.5584 141.802 29.5584Z" fill="#ED712E"/>
<path d="M89.1133 7.69465C89.1133 7.69465 89.4661 5.81053 87.7817 6.18336C86.104 6.55619 85.6246 18.0872 87.2824 18.9194C88.9468 19.7517 88.9002 16.283 88.9002 16.283" stroke="#ED712E" stroke-width="0.5" stroke-linecap="round" stroke-linejoin="round"/>
<path d="M85.5647 8.54685C85.5647 8.54685 83.634 7.28189 83.3211 8.40038C83.0149 9.52552 87.349 14.1259 89.9388 16.2031C92.5353 18.2737 92.7617 17.2417 92.3689 16.283C91.9761 15.331 91.4767 14.7717 91.4767 14.7717" stroke="#ED712E" stroke-width="0.5" stroke-linecap="round" stroke-linejoin="round"/>
<path d="M92.1625 9.62535C92.1625 9.62535 93.9201 8.89966 93.3409 7.61474C92.7617 6.32981 89.2797 8.63336 86.3703 11.0368C83.4676 13.4402 81.9963 15.8502 81.9763 17.2217C81.9563 18.5865 85.0455 16.0167 85.0455 16.0167" stroke="#ED712E" stroke-width="0.5" stroke-linecap="round" stroke-linejoin="round"/>
<path d="M82.5755 13.2804C82.5755 13.2804 79.6661 12.3816 82.0961 11.5561C84.5328 10.7305 90.771 10.664 93.5273 11.3497C96.2902 12.0354 94.5259 13.0873 93.7603 13.1939C92.988 13.3004 91.6831 13.5068 91.6831 13.5068" stroke="#ED712E" stroke-width="0.5" stroke-linecap="round" stroke-linejoin="round"/>
<path d="M89.1931 13.9395L89.3995 10.1047" stroke="#ED712E" stroke-width="0.5" stroke-linecap="round" stroke-linejoin="round"/>
<path fill-rule="evenodd" clip-rule="evenodd" d="M0.832825 80.5227L25.7457 111.015L132.421 89.8567L101.35 60.9026L0.832825 80.5227Z" fill="#ED712E" stroke="#ED712E" stroke-width="0.5" stroke-linecap="round" stroke-linejoin="round"/>
<path fill-rule="evenodd" clip-rule="evenodd" d="M25.7857 31.6489C25.7857 31.6489 23.4488 31.6023 22.1573 32.3746C20.8723 33.1402 19.7539 35.0243 19.7539 35.0243C19.7539 35.0243 15.0136 36.742 11.8645 39.738C9.8739 41.9217 8.78871 45.4702 8.78871 45.4702C6.86465 51.6285 3.1297 62.8733 4.85404 68.7853C7.58367 78.126 26.1652 79.5174 34.0212 78.2591L34.4806 73.692L39.8267 72.6001C39.8267 72.6001 38.9545 62.2674 39.5337 61.3553C40.1063 60.4432 41.1182 59.2382 41.1182 59.2382C41.1182 59.2382 42.1768 61.8347 44.3405 63.8586C46.5043 65.8759 47.9956 66.1622 47.9956 66.1622L52.3697 61.0691C52.3697 61.0691 48.6214 53.759 45.2526 44.3317C41.8905 34.9045 33.5152 34.4718 33.5152 34.4718C33.5152 34.4718 31.7176 31.2495 25.7857 31.6489Z" fill="black"/>
<path fill-rule="evenodd" clip-rule="evenodd" d="M46.198 59.0051L66.4173 53.9254L58.8542 79.0047L39.3939 83.8248L43.5083 68.4989L46.198 59.0051Z" fill="#D7F0F7"/>
<path d="M19.9403 35.4837C19.9403 35.4837 20.4463 37.5742 21.8843 39.2852C23.329 40.9896 24.7738 42.0215 24.7738 42.0215C25.6925 40.943 27.4701 39.1121 29.1079 38.9856" stroke="white" stroke-width="0.5" stroke-linecap="round" stroke-linejoin="round"/>
<path d="M33.8747 35.1641C34.6537 36.6621 35.6923 38.8525 35.8321 40.3637C35.8321 40.3637 33.2489 38.726 32.0838 38.4996C31.5512 38.3997 31.1451 38.473 30.8522 38.5928" stroke="white" stroke-width="0.5" stroke-linecap="round" stroke-linejoin="round"/>
<path d="M17.8165 48.6125L14.7739 64.6242C22.1639 67.234 27.49 68.3325 34.0678 70.1101" stroke="white" stroke-width="0.5" stroke-linecap="round" stroke-linejoin="round"/>
<path d="M11.5583 65.736C11.5583 65.736 12.3639 65.2101 13.1095 64.9504C13.8552 64.6908 14.7806 64.5976 14.7806 64.5976" stroke="white" stroke-width="0.5" stroke-linecap="round" stroke-linejoin="round"/>
<path d="M38.9212 44.4781C38.9212 44.4781 39.4205 48.6325 41.2048 52.1944C42.9824 55.7562 41.5643 58.3261 41.5643 58.3261" stroke="white" stroke-width="0.5" stroke-linecap="round" stroke-linejoin="round"/>
<path d="M31.8242 47.7005C31.8242 47.7005 30.7922 45.0774 30.5259 43.2731C30.2596 41.4689 30.1398 39.6181 30.1398 39.6181" stroke="white" stroke-width="0.5" stroke-linecap="round" stroke-linejoin="round"/>
<path d="M32.1307 43.6514C32.427 43.6989 32.7103 43.4682 32.7635 43.1361C32.8168 42.804 32.6198 42.4963 32.3236 42.4488C32.0273 42.4013 31.744 42.632 31.6907 42.9641C31.6375 43.2961 31.8345 43.6038 32.1307 43.6514Z" fill="white"/>
<path fill-rule="evenodd" clip-rule="evenodd" d="M52.5694 59.2115L58.9474 57.6137L59.8795 54.5246L58.0686 54.984C57.9954 54.5645 57.7091 54.0652 56.7371 54.3115C55.8117 54.5446 55.3456 55.217 55.1259 55.7363L53.4349 56.1624L52.5694 59.2115Z" fill="black" stroke="black" stroke-width="0.2" stroke-linecap="round" stroke-linejoin="round"/>
<path fill-rule="evenodd" clip-rule="evenodd" d="M129.585 24.7449C129.585 24.7449 127.135 19.0726 119.392 19.026C111.649 18.9727 110.131 23.6663 109.432 27.874C108.733 32.0816 105.078 36.1694 105.078 36.1694L107.775 37.2013C107.775 37.2013 107.388 39.0788 107.535 39.0522C107.681 39.0322 110.83 40.7166 110.85 40.8364C110.877 40.9563 107.801 42.3277 107.968 42.7338C108.134 43.1466 108.567 43.0734 108.593 43.4795C108.613 43.8923 107.222 47.1612 110.324 47.1146C113.427 47.0613 114.146 46.6286 114.505 48.5526C114.872 50.4767 114.652 53.4593 114.652 53.4593L124.752 51.6351C124.752 51.6351 124.033 43.7458 124.033 42.3011C124.033 40.8564 132.688 34.0323 129.585 24.7449Z" fill="white" stroke="black" stroke-width="0.5" stroke-linecap="round" stroke-linejoin="round"/>
<path d="M111.163 33.3466C111.527 33.3466 111.822 33.0008 111.822 32.5743C111.822 32.1478 111.527 31.802 111.163 31.802C110.799 31.802 110.504 32.1478 110.504 32.5743C110.504 33.0008 110.799 33.3466 111.163 33.3466Z" fill="black" stroke="black" stroke-width="0.2" stroke-linecap="round" stroke-linejoin="round"/>
<path d="M111.083 29.5784C111.083 29.5784 111.936 29.9379 112.502 30.2907C113.067 30.6369 113.367 30.9498 113.367 30.9498" stroke="black" stroke-width="0.5" stroke-linecap="round" stroke-linejoin="round"/>
<path fill-rule="evenodd" clip-rule="evenodd" d="M126.123 18.5933C126.123 18.5933 121.989 16.9555 117.322 16.7158C112.655 16.4761 107.795 14.5055 106.929 15.7771C106.064 17.0487 107.555 18.2537 107.555 18.2537C107.555 18.2537 104.093 18.4002 104.745 20.1312C105.391 21.8622 107.242 22.1751 107.242 22.1751C107.242 22.1751 105.371 23.8794 106.476 24.4586C107.582 25.0379 113.061 25.2975 114.938 26.2629C116.816 27.2216 116.383 29.6982 116.383 31.336C116.383 32.9738 117.681 32.4412 117.994 34.0989C118.307 35.7633 117.728 35.9497 118.4 36.1961C119.073 36.4357 118.62 32.1083 121.935 32.8007C125.258 33.4997 122.874 38.0336 122.082 38.8658C121.29 39.6913 120.844 39.9576 120.844 39.9576C120.844 39.9576 120.291 45.7631 121.469 47.1346C122.648 48.5061 123.114 47.2344 123.753 47.3743C124.392 47.5141 125.511 47.6872 125.943 46.9415C126.376 46.1958 128.993 38.4796 130.917 35.0643C132.841 31.6489 134.818 20.3908 126.123 18.5933Z" fill="black" stroke="black" stroke-width="0.2" stroke-linecap="round" stroke-linejoin="round"/>
<path d="M120.344 38.4596C120.344 38.4596 119.532 37.3545 120.131 35.7167C120.73 34.0856 122.268 34.1788 122.268 34.1788" stroke="black" stroke-width="0.5" stroke-linecap="round" stroke-linejoin="round"/>
<path d="M121.816 36.489L120.218 35.5103" stroke="black" stroke-width="0.5" stroke-linecap="round" stroke-linejoin="round"/>
<path fill-rule="evenodd" clip-rule="evenodd" d="M86.0174 61.0691C86.0174 61.0691 85.365 59.3913 85.6113 57.201C85.851 55.0106 85.8243 50.2637 85.4981 48.6126C85.1785 46.9682 84.7791 45.3104 84.4063 45.0441C84.0334 44.7778 83.4409 45.63 83.3943 46.4955C83.3477 47.3676 83.2279 49.072 83.2279 49.072C83.2279 49.072 78.9204 42.4809 77.9816 41.7619C77.0496 41.0429 76.4703 41.5422 76.4703 41.5422C74.3 40.4836 75.3053 44.2984 75.6981 45.1906C75.6981 45.1906 74.726 45.6566 74.9191 47.3676C75.1122 49.072 74.7993 52.3875 75.4917 55.47C76.1907 58.5458 78.7672 61.2422 78.7672 61.2422L79.5595 66.0756L86.0174 61.0691Z" fill="white" stroke="black" stroke-width="0.5" stroke-linecap="round" stroke-linejoin="round"/>
<path d="M80.425 49.6978C79.0735 47.1346 77.7553 44.0388 76.4703 41.5422" stroke="black" stroke-width="0.5" stroke-linecap="round" stroke-linejoin="round"/>
<path d="M77.9217 51.1025C77.1694 49.3982 76.5835 47.2478 75.6981 45.1906" stroke="black" stroke-width="0.5" stroke-linecap="round" stroke-linejoin="round"/>
<path d="M76.1442 52.7603L74.9658 48.0667" stroke="black" stroke-width="0.5" stroke-linecap="round" stroke-linejoin="round"/>
<path fill-rule="evenodd" clip-rule="evenodd" d="M132.428 12.0022C134.618 12.2751 139.592 12.5681 142.022 10.0182C145.184 6.69602 142.94 2.30863 137.248 1.42317C123.999 -0.647362 122.628 9.53884 129.805 11.5494L130.664 14.3323L132.428 12.0022Z" fill="white" stroke="black" stroke-width="0.5" stroke-linecap="round" stroke-linejoin="round"/>
<path fill-rule="evenodd" clip-rule="evenodd" d="M130.996 6.17006C131.376 6.21667 131.649 6.57618 131.596 6.96898C131.549 7.36178 131.196 7.63475 130.81 7.58814C130.431 7.53488 130.158 7.18202 130.211 6.78922C130.257 6.39642 130.61 6.12346 130.996 6.17006ZM138.48 6.03025C138.859 6.07685 139.132 6.43637 139.079 6.82917C139.032 7.21531 138.679 7.49493 138.293 7.44833C137.914 7.39507 137.641 7.03556 137.694 6.64941C137.741 6.25661 138.094 5.97699 138.48 6.03025ZM134.658 6.15675C135.038 6.20335 135.311 6.56286 135.257 6.95566C135.211 7.34181 134.858 7.62143 134.472 7.56817C134.092 7.52156 133.819 7.16205 133.873 6.77591C133.919 6.38311 134.272 6.10349 134.658 6.15675Z" fill="black"/>
<path fill-rule="evenodd" clip-rule="evenodd" d="M116.516 52.3675C116.516 52.3675 125.457 49.6246 130.078 50.9228C134.692 52.221 137.195 58.619 138.347 66.8878C139.505 75.1633 139.552 100.509 139.119 103.105C138.686 105.702 124.738 110.948 114.785 110.176C104.825 109.404 102.708 106.374 102.948 104.31C103.194 102.24 103.241 94.0177 103.241 94.0177C103.241 94.0177 98.5738 103.199 89.7724 99.7366C80.971 96.2747 78.0815 63.3326 78.0815 63.3326C78.0815 63.3326 79.1401 61.069 82.5089 60.2502C85.8777 59.4379 86.5967 60.2036 86.5967 60.2036L93.1877 78.4322C93.1877 78.4322 98.5272 62.4672 104.246 57.8467C109.972 53.233 116.516 52.3675 116.516 52.3675Z" fill="#D7F0F7"/>
<path d="M89.2397 88.4852L92.948 79.2977" stroke="black" stroke-width="0.5" stroke-linecap="round" stroke-linejoin="round"/>
<path d="M111.01 76.0288L104.053 92.6929" stroke="black" stroke-width="0.5" stroke-linecap="round" stroke-linejoin="round"/>
<path d="M78.3145 65.5896C81.1174 63.4258 84.4329 61.7947 87.329 62.2341" stroke="#6CA3B7" stroke-width="0.5" stroke-linecap="round" stroke-linejoin="round"/>
<path d="M78.7806 62.3606L79.1867 64.8639" stroke="#6CA3B7" stroke-width="0.5" stroke-linecap="round" stroke-linejoin="round"/>
<path d="M79.9723 61.342L80.5315 64.0717" stroke="#6CA3B7" stroke-width="0.5" stroke-linecap="round" stroke-linejoin="round"/>
<path d="M81.437 60.583L82.0761 63.2461" stroke="#6CA3B7" stroke-width="0.5" stroke-linecap="round" stroke-linejoin="round"/>
<path d="M83.1547 60.1104L83.8138 62.567" stroke="#6CA3B7" stroke-width="0.5" stroke-linecap="round" stroke-linejoin="round"/>
<path d="M84.879 59.884L85.618 62.2008" stroke="#6CA3B7" stroke-width="0.5" stroke-linecap="round" stroke-linejoin="round"/>
<path fill-rule="evenodd" clip-rule="evenodd" d="M34.0345 9.99823L35.9453 12.2818C35.9453 12.2818 37.0171 17.4548 36.4912 23.8528C35.9586 30.2508 33.2889 30.597 32.4034 30.7634C31.5113 30.9365 30.5992 30.85 30.5992 30.85C30.5992 30.85 30.5725 33.4198 30.4527 35.4438C30.3329 37.461 30.0199 38.7859 30.0199 38.7859C30.0199 38.7859 26.052 36.9817 24.7537 35.8033C23.4555 34.6249 22.6832 33.0137 22.6832 33.0137C22.6832 33.0137 23.0627 27.3081 22.9961 27.1483C22.9362 26.9819 19.9935 24.7183 19.9935 24.7183C19.9935 24.7183 17.2772 22.0952 17.417 19.2857C17.5635 16.4695 21.6979 10.5774 21.6979 10.5774L34.0345 9.99823Z" fill="white"/>
<path fill-rule="evenodd" clip-rule="evenodd" d="M22.337 6.12347C22.4902 5.04493 22.3104 3.81992 21.2785 2.74139C18.7419 0.0983007 13.1894 1.54301 12.284 5.57089C11.5317 8.90637 13.9085 12.2285 17.1707 11.6293C15.1801 15.604 16.0056 22.2283 19.5874 25.1777C21.365 26.6423 22.9962 27.1483 22.9962 27.1483L22.1107 24.8381C22.1107 24.8381 18.3092 23.9993 18.0961 20.464C17.8764 16.9288 21.1986 17.8875 22.0841 19.3788C22.0841 19.3788 22.5634 22.0752 23.116 22.2882C23.6752 22.5079 22.6633 20.0779 23.7418 19.6451C24.827 19.2124 23.5554 15.6972 25.8589 13.6067C28.1691 11.5162 30.972 11.5961 32.4633 11.7159C33.7416 11.8158 36.1983 12.7012 36.3447 11.7891C36.3447 11.7891 37.0504 8.04087 30.486 5.65743C26.7045 4.28596 24.0214 5.10485 22.337 6.12347Z" fill="black" stroke="black" stroke-width="0.2" stroke-linecap="round" stroke-linejoin="round"/>
<path d="M32.2836 18.7664C32.2836 18.7664 33.2156 22.2084 32.7363 22.8808C32.2636 23.5465 31.2716 23.2137 31.2716 23.2137" stroke="black" stroke-width="0.5" stroke-linecap="round" stroke-linejoin="round"/>
<path d="M28.5704 20.5619C28.2296 20.5839 27.9281 20.2109 27.897 19.7289C27.866 19.2469 28.1172 18.8383 28.4581 18.8164C28.799 18.7945 29.1005 19.1674 29.1315 19.6494C29.1625 20.1314 28.9113 20.54 28.5704 20.5619Z" fill="black"/>
<path d="M34.9402 19.3205C34.5993 19.3424 34.2978 18.9694 34.2668 18.4874C34.2358 18.0054 34.487 17.5969 34.8278 17.5749C35.1687 17.553 35.4702 17.926 35.5012 18.408C35.5323 18.89 35.2811 19.2985 34.9402 19.3205Z" fill="black"/>
<path fill-rule="evenodd" clip-rule="evenodd" d="M30.6524 26.7688C30.9454 28.2867 32.2503 27.5877 32.4234 26.4226C32.8228 23.6663 30.3795 25.3308 30.6524 26.7688Z" fill="black" stroke="black" stroke-width="0.5" stroke-linecap="round" stroke-linejoin="round"/>
<path d="M19.2479 19.7717C19.2479 19.7717 20.4662 20.1179 21.152 21.2097C21.8377 22.3016 21.7378 23.2936 21.7378 23.2936" stroke="black" stroke-width="0.5" stroke-linecap="round" stroke-linejoin="round"/>
<path d="M19.9603 22.2017L20.9523 20.9234" stroke="black" stroke-width="0.5" stroke-linecap="round" stroke-linejoin="round"/>
<path d="M27.2171 17.7277C27.7497 17.1818 29.0946 16.9488 29.8402 16.9488" stroke="black" stroke-width="0.5" stroke-linecap="round" stroke-linejoin="round"/>
<path d="M33.3554 16.5094C33.9413 15.9835 34.7668 15.857 35.5258 16.09" stroke="black" stroke-width="0.5" stroke-linecap="round" stroke-linejoin="round"/>
<path d="M32.9227 24.9114C32.5299 24.8381 32.2103 24.8714 31.7776 24.958" stroke="black" stroke-width="0.5" stroke-linecap="round" stroke-linejoin="round"/>
<path d="M24.6472 28.4C24.6472 28.4 25.546 29.4785 27.0706 30.1443C28.6019 30.8034 30.5992 30.85 30.5992 30.85" stroke="black" stroke-width="0.5" stroke-linecap="round" stroke-linejoin="round"/>
<path d="M22.6832 33.0137C22.6832 33.0137 23.0627 27.3081 22.9961 27.1483C22.9362 26.9819 19.9935 24.7183 19.9935 24.7183C19.9935 24.7183 17.2772 22.0952 17.417 19.2857C17.5635 16.4695 21.6979 10.5774 21.6979 10.5774L34.0345 9.99823L35.9453 12.2818C35.9453 12.2818 37.0171 17.4548 36.4912 23.8528C36.165 27.8141 35.0664 31.2628 30.5992 30.85C30.5992 30.85 30.5925 31.5757 30.5659 32.561" stroke="black" stroke-width="0.5" stroke-linecap="round" stroke-linejoin="round"/>
<path fill-rule="evenodd" clip-rule="evenodd" d="M34.7535 70.6227L34.4806 73.6919L34.0811 77.7198C34.0811 77.7198 38.6682 78.2058 42.25 77.9195C45.8385 77.6266 47.1501 75.5627 47.2633 75.4695C48.1487 74.7305 48.4283 74.5574 48.6547 73.5854C49.387 72.7399 49.6334 72.0674 48.5815 71.7812C48.5815 71.7812 48.7013 70.696 46.9836 71.1287C45.266 71.5615 42.6961 71.5149 42.6961 71.5149L43.1821 69.704C42.3166 69.6108 41.1449 69.5841 40.093 69.8837C38.109 70.4496 36.4446 70.5562 36.4446 70.5562C35.4459 70.7159 34.7535 70.6227 34.7535 70.6227Z" fill="white"/>
<path d="M41.8506 76.568C42.8359 76.8477 45.7919 76.102 47.1767 75.5694" stroke="black" stroke-width="0.5" stroke-linecap="round" stroke-linejoin="round"/>
<path d="M42.0637 74.8371C44.6069 74.9103 46.9437 74.3444 48.6547 73.5854" stroke="black" stroke-width="0.5" stroke-linecap="round" stroke-linejoin="round"/>
<path d="M42.3699 73.2725C44.7 73.2126 47.2832 72.7732 48.5815 71.7812" stroke="black" stroke-width="0.5" stroke-linecap="round" stroke-linejoin="round"/>
<path d="M40.7255 70.9357C41.1848 71.4882 42.1835 71.5149 42.6961 71.5149" stroke="black" stroke-width="0.5" stroke-linecap="round" stroke-linejoin="round"/>
<path d="M42.8825 69.6774C42.057 69.6108 41.025 69.6175 40.093 69.8838C38.109 70.4497 36.4446 70.5562 36.4446 70.5562C36.0385 70.6228 35.6789 70.6428 35.3993 70.6494M34.5139 77.7598C35.7389 77.873 39.334 78.1526 42.25 77.9196C45.8385 77.6266 47.1501 75.5628 47.2632 75.4696C48.1487 74.7306 48.4283 74.5575 48.6547 73.5854C49.387 72.7399 49.6334 72.0675 48.5815 71.7812C48.5815 71.7812 48.7013 70.696 46.9836 71.1288C45.266 71.5615 42.6961 71.5149 42.6961 71.5149L34.5139 77.7598Z" stroke="black" stroke-width="0.5" stroke-linecap="round" stroke-linejoin="round"/>
<path d="M111.297 53.8189C111.297 53.8189 117.342 54.4447 121.982 53.2929C126.622 52.1411 126.742 50.5766 126.742 50.5766" stroke="#6CA3B7" stroke-width="0.5" stroke-linecap="round" stroke-linejoin="round"/>
<path d="M119.326 19.4721C117.695 19.0327 115.631 18.4135 113.813 18.0806" stroke="white" stroke-width="0.5" stroke-linecap="round" stroke-linejoin="round"/>
<path d="M115.577 20.3841C115.577 20.3841 112.595 20.2576 111.077 20.0712C109.566 19.8782 109.326 19.8049 109.326 19.8049" stroke="white" stroke-width="0.5" stroke-linecap="round" stroke-linejoin="round"/>
<path d="M113.953 21.8954C112.415 21.6957 111.583 21.8688 109.792 22.5545" stroke="white" stroke-width="0.5" stroke-linecap="round" stroke-linejoin="round"/>
<path d="M128.234 29.9578C128.234 29.9578 128.28 31.5423 127.967 33.6595C127.654 35.7766 127.222 36.8352 127.222 36.8352" stroke="white" stroke-width="0.5" stroke-linecap="round" stroke-linejoin="round"/>
<path d="M126.223 27.5944C126.223 27.5944 126.369 29.5451 126.176 30.9631C125.983 32.3812 125.91 32.9338 125.91 32.9338" stroke="white" stroke-width="0.5" stroke-linecap="round" stroke-linejoin="round"/>
<path d="M122.734 28.9658L122.595 30.8167" stroke="white" stroke-width="0.5" stroke-linecap="round" stroke-linejoin="round"/>
<path d="M117.701 44.9575C116.623 46.2691 114.932 46.8217 112.861 47.0414" stroke="black" stroke-width="0.5" stroke-linecap="round" stroke-linejoin="round"/>
<path d="M32.5032 9.34576C32.5032 9.34576 31.6577 8.30717 30.1664 7.68801C28.6751 7.06219 27.6898 7.30186 27.6898 7.30186" stroke="white" stroke-width="0.5" stroke-linecap="round" stroke-linejoin="round"/>
<path d="M28.8283 9.45896C28.8283 9.45896 27.8696 8.99958 26.7111 8.6667C25.5593 8.32716 25.3663 8.30719 25.3663 8.30719" stroke="white" stroke-width="0.5" stroke-linecap="round" stroke-linejoin="round"/>
<path d="M25.9454 10.5175C24.6272 9.99156 24.0746 10.0382 22.7231 10.0382" stroke="white" stroke-width="0.5" stroke-linecap="round" stroke-linejoin="round"/>
<path d="M16.0189 9.91168C16.0189 9.91168 14.7739 9.59877 14.2879 8.01426C13.8086 6.42974 14.0749 5.1781 14.0749 5.1781" stroke="white" stroke-width="0.5" stroke-linecap="round" stroke-linejoin="round"/>
<path d="M17.2972 7.24194C17.2972 7.24194 16.0456 7.07549 15.7127 6.23663C15.3732 5.39111 15.3998 4.71869 15.3998 4.71869" stroke="white" stroke-width="0.5" stroke-linecap="round" stroke-linejoin="round"/>
<path d="M21.405 16.0434C20.7658 16.1832 18.9217 15.1379 18.3624 14.7119" stroke="white" stroke-width="0.5" stroke-linecap="round" stroke-linejoin="round"/>
</svg>
