<svg width="123" height="113" viewBox="0 0 123 113" fill="none" xmlns="http://www.w3.org/2000/svg">
<path fill-rule="evenodd" clip-rule="evenodd" d="M89.9903 48.1091C89.9903 48.1091 91.2924 43.2788 91.2924 41.7268C91.2924 40.1748 89.9671 38.2217 90.1763 37.3382C90.3856 36.4547 91.5191 34.7341 92.2573 34.7341C92.9897 34.7341 96.8551 35.0073 96.8551 35.0073L100.883 41.4768C100.883 41.4768 98.1978 43.4938 97.5642 44.7901C96.9365 46.0921 96.6458 49.2426 96.6458 49.2426L89.9903 48.1091Z" fill="white" stroke="black" stroke-width="0.5" stroke-linecap="round" stroke-linejoin="round"/>
<path fill-rule="evenodd" clip-rule="evenodd" d="M48.0055 46.3711L44.9655 45.9293C44.9655 45.9293 44.3842 46.1386 43.4309 46.5397C39.8271 48.0626 30.9162 52.3814 28.0622 58.8858C24.4468 67.1165 17.6459 80.1369 21.5114 87.9026C25.371 95.6741 34.4969 92.2795 34.4969 92.2795L34.1946 95.1277L72.2792 87.1062L71.1864 68.9649C71.1864 68.9649 82.2304 80.9739 89.2405 78.2884C96.2564 75.5972 97.913 53.5846 98.1688 51.3584C98.4187 49.1321 98.4478 48.1788 98.4478 48.1788L88.5081 46.4699L84.0149 62.4664C84.0149 62.4664 72.2152 47.2256 67.3442 45.9235C62.4732 44.6215 57.4859 44.6796 57.4859 44.6796L48.0055 46.3711Z" fill="#D7F0F7"/>
<path fill-rule="evenodd" clip-rule="evenodd" d="M62.9905 20.621C62.9905 20.621 63.2811 30.2468 62.8161 33.9262C62.3511 37.6056 60.8224 40.1516 59.3692 41.0176C57.9102 41.8837 55.8526 41.8372 55.8526 41.8372L56.1839 44.418L57.4859 44.6796C57.0209 48.0684 54.661 49.4576 51.2838 49.3239C47.587 49.1844 45.8083 47.3883 44.9654 45.9293L45.8199 45.6096C45.878 43.9647 45.3549 37.4545 45.1747 35.2747C44.0819 34.5191 41.6522 32.63 41.4488 30.6537C41.193 28.0961 43.3728 27.8171 43.3728 27.8171C43.3728 27.8171 40.5246 17.7031 51.3419 16.3022C62.1535 14.9072 62.9905 20.621 62.9905 20.621Z" fill="white"/>
<path fill-rule="evenodd" clip-rule="evenodd" d="M47.0406 28.2821C47.0115 28.7994 46.9882 29.247 46.9534 29.5725C46.8022 30.8978 46.1396 30.3747 45.8199 29.4853C45.506 28.5902 44.6225 27.8985 43.3728 27.8171C43.3728 27.8171 41.193 28.0961 41.4488 30.6537C41.7103 33.2112 45.1747 35.2747 45.1747 35.2747C45.1747 35.2747 45.2793 37.2162 45.4944 39.3145C43.2042 37.8207 40.4664 34.3505 38.7691 28.6018C37.066 22.8531 37.9496 20.2316 40.356 16.8951C42.7624 13.5528 45.6746 13.0413 50.255 12.9309C54.8353 12.8262 60.3051 12.7042 60.3051 12.7042C65.333 12.7914 67.6232 11.6637 68.2335 13.1924C68.8497 14.7212 66.4142 15.7907 66.4142 15.7907C66.4142 15.7907 69.3728 16.3022 69.4484 17.8891C69.5298 19.4759 65.3388 19.7898 65.3388 19.7898C65.3388 19.7898 67.5302 21.3243 66.8152 22.2079C66.1003 23.0972 63.0428 22.8647 63.0428 22.8647C63.0428 22.8647 61.7873 22.6438 59.5552 22.2834C58.7124 22.1439 57.6952 21.8824 56.5908 21.6324C56.6954 21.9405 56.6838 22.2834 56.3699 22.6264C55.5038 23.5738 50.9583 21.83 50.9583 21.83C50.9583 21.83 50.0922 23.9749 47.709 23.2774C47.0987 24.5329 46.9592 26.2651 47.0406 28.2821Z" fill="black" stroke="black" stroke-width="0.2" stroke-linecap="round" stroke-linejoin="round"/>
<path d="M57.6196 28.6076C57.6196 28.6076 58.7124 32.6358 58.1544 33.4205C57.5964 34.2052 56.4338 33.8099 56.4338 33.8099" stroke="black" stroke-width="0.5" stroke-linecap="round" stroke-linejoin="round"/>
<path d="M42.7915 29.4214C44.4888 29.9329 45.6397 31.7348 45.599 33.4554" stroke="black" stroke-width="0.5" stroke-linecap="round" stroke-linejoin="round"/>
<path d="M43.4251 31.6999L44.7852 30.9559" stroke="black" stroke-width="0.5" stroke-linecap="round" stroke-linejoin="round"/>
<path d="M49.2436 38.7333C49.2436 38.7333 50.1562 40.1632 52.0162 40.9711C53.8821 41.7849 55.8526 41.8372 55.8526 41.8372" stroke="black" stroke-width="0.5" stroke-linecap="round" stroke-linejoin="round"/>
<path d="M63.2521 18.4529C61.9908 17.6159 60.0668 16.7265 57.4743 16.2615" stroke="white" stroke-width="0.5" stroke-linecap="round" stroke-linejoin="round"/>
<path d="M62.9789 15.035C61.5199 14.7037 60.5899 14.5177 58.8054 14.4596" stroke="white" stroke-width="0.5" stroke-linecap="round" stroke-linejoin="round"/>
<path d="M58.4101 19.1388C57.6661 18.6389 56.6838 18.1157 55.4573 17.6856" stroke="white" stroke-width="0.5" stroke-linecap="round" stroke-linejoin="round"/>
<path d="M43.8959 26.6952C43.7215 26.0442 43.5588 25.3002 43.4658 24.5387C43.4193 24.1784 43.3902 23.8122 43.3844 23.446" stroke="white" stroke-width="0.5" stroke-linecap="round" stroke-linejoin="round"/>
<path d="M42.094 25.928C41.8615 24.9689 41.6522 23.7947 41.6464 22.6729" stroke="white" stroke-width="0.5" stroke-linecap="round" stroke-linejoin="round"/>
<path d="M40.9489 27.1254C40.635 26.1895 40.3269 25.0386 40.2281 23.9226" stroke="white" stroke-width="0.5" stroke-linecap="round" stroke-linejoin="round"/>
<path d="M62.9905 20.621C62.9905 20.621 63.2811 30.2468 62.8161 33.9262C62.3511 37.6056 60.8224 40.1515 59.3692 41.0176C57.9102 41.8837 55.8526 41.8372 55.8526 41.8372L56.1839 44.418M45.8199 45.6096C45.878 43.9647 45.3549 37.4545 45.1747 35.2747C44.0819 34.5191 41.6522 32.63 41.4488 30.6537C41.193 28.0961 43.3728 27.8171 43.3728 27.8171L45.8199 45.6096Z" stroke="black" stroke-width="0.5" stroke-linecap="round" stroke-linejoin="round"/>
<path d="M43.582 46.4874C49.2959 54.7646 59.5145 50.5155 58.7938 44.7203" stroke="#6CA3B7" stroke-width="0.5" stroke-linecap="round" stroke-linejoin="round"/>
<path d="M38.3506 60.1413L36.5255 72.0979" stroke="black" stroke-width="0.5" stroke-linecap="round" stroke-linejoin="round"/>
<path d="M82.5734 68.0756L84.0149 62.4664" stroke="black" stroke-width="0.5" stroke-linecap="round" stroke-linejoin="round"/>
<path fill-rule="evenodd" clip-rule="evenodd" d="M92.1178 33.3624L99.2673 44.017L100.738 57.8337C100.738 57.8337 101.156 60.1413 103.592 59.2985C106.027 58.4615 110.939 55.125 113.543 52.393C116.147 49.6611 116.781 48.6962 116.38 47.522C115.979 46.3479 114.991 46.2839 114.991 46.2839L102.958 41.256L97.198 32.4498L95.7623 30.2526L92.1178 33.3624Z" fill="white" stroke="black" stroke-width="0.5" stroke-linecap="round" stroke-linejoin="round"/>
<path d="M90.2179 33.8314C90.9888 34.8642 93.1175 34.5791 94.9726 33.1945C96.8276 31.8099 97.7065 29.8502 96.9356 28.8174C96.1647 27.7845 94.036 28.0697 92.1809 29.4543C90.3259 30.8389 89.447 32.7986 90.2179 33.8314Z" fill="black"/>
<path fill-rule="evenodd" clip-rule="evenodd" d="M101.778 48.8008L102.238 54.5553C102.238 54.5553 102.028 56.8223 103.58 56.5491C105.138 56.2759 109.48 53.9857 111.433 52.0791C113.386 50.1668 114.206 49.1379 114.206 48.6322C114.206 46.499 103.266 46.8129 101.778 48.8008Z" fill="#ED712E"/>
<path fill-rule="evenodd" clip-rule="evenodd" d="M114.206 48.638V48.6322C114.206 46.5048 103.301 46.8129 101.784 48.795L101.79 48.8008C101.79 48.8008 101.511 50.3353 107.469 49.9575C112.34 49.6494 113.886 49.0856 114.206 48.638Z" fill="black"/>
<path fill-rule="evenodd" clip-rule="evenodd" d="M97.2794 32.5718C97.2794 32.5718 98.8488 31.9615 99.5638 32.4905C100.273 33.0136 100.099 33.8216 100.099 33.8216C100.099 33.8216 101.296 34.0599 101.546 34.6063C101.796 35.1527 101.505 36.0246 101.505 36.0246C101.505 36.0246 102.418 36.3617 102.691 36.8209C102.964 37.2859 102.796 38.338 102.796 38.338C102.796 38.338 104.162 38.5647 104.162 39.7854C104.162 41.0002 102.354 40.7677 102.162 40.4771C101.976 40.1806 101.714 39.5528 101.714 39.5528C101.714 39.5528 100.598 40.4538 100.116 40.2446C99.6336 40.0353 100.075 38.0299 100.075 38.0299C100.075 38.0299 99.1337 39.2157 98.5524 38.9774C97.9769 38.7333 98.4594 37.251 98.4594 37.251C98.4594 37.251 97.4712 38.6054 96.7912 37.966C96.1053 37.3266 98.1106 33.8448 98.1106 33.8448L97.2794 32.5718Z" fill="white" stroke="black" stroke-width="0.5" stroke-linecap="round" stroke-linejoin="round"/>
<path fill-rule="evenodd" clip-rule="evenodd" d="M92.6874 36.4663C92.6874 36.4663 95.5124 36.9604 95.8204 36.1699C96.1227 35.3852 95.6112 34.9202 94.7335 34.8678C93.8558 34.8097 92.2573 34.7341 92.2573 34.7341L91.5946 36.8732L92.6874 36.4663Z" fill="white"/>
<path d="M98.8604 36.6581L100.099 33.8216" stroke="black" stroke-width="0.5" stroke-linecap="round" stroke-linejoin="round"/>
<path d="M100.558 37.5824L101.505 36.0246" stroke="black" stroke-width="0.5" stroke-linecap="round" stroke-linejoin="round"/>
<path d="M102.116 39.2913L102.796 38.338" stroke="black" stroke-width="0.5" stroke-linecap="round" stroke-linejoin="round"/>
<path d="M92.2573 34.7341C92.2573 34.7341 93.8557 34.8097 94.7335 34.8678C95.6112 34.9202 96.1227 35.3852 95.8204 36.1699C95.5124 36.9604 92.6874 36.4663 92.6874 36.4663C92.6874 36.4663 93.7744 37.7277 94.4661 39.175C95.1578 40.6224 95.181 41.4187 95.181 41.4187" stroke="black" stroke-width="0.5" stroke-linecap="round" stroke-linejoin="round"/>
<path fill-rule="evenodd" clip-rule="evenodd" d="M48.6681 27.788C48.6681 27.788 48.3135 34.5481 51.3768 34.3215C54.4401 34.0889 55.8467 30.1421 58.9333 31.0257C62.0198 31.9034 63.5543 31.4616 64.124 29.1307C64.6878 26.8057 64.3332 24.4748 64.3332 24.4748C64.3332 24.4748 55.7886 25.1665 48.6681 27.788Z" fill="#ED712E"/>
<path d="M53.2736 30.7067C52.8746 30.7323 52.5218 30.2959 52.4855 29.7318C52.4492 29.1677 52.7431 28.6896 53.1421 28.6639C53.541 28.6382 53.8939 29.0747 53.9302 29.6388C53.9665 30.2029 53.6725 30.681 53.2736 30.7067Z" fill="black"/>
<path d="M60.7283 29.2538C60.3294 29.2795 59.9765 28.843 59.9402 28.2789C59.9039 27.7148 60.1979 27.2367 60.5968 27.211C60.9958 27.1853 61.3486 27.6218 61.3849 28.1859C61.4212 28.75 61.1273 29.2281 60.7283 29.2538Z" fill="black"/>
<path fill-rule="evenodd" clip-rule="evenodd" d="M44.2621 26.6546C44.2621 26.6546 48.5751 27.9217 48.6681 27.7996C48.6623 27.9159 48.61 29.1889 48.7902 30.5723H48.7844L44.1982 27.974L44.2621 26.6546ZM48.6681 27.788C48.6565 27.7706 48.6623 27.7706 48.6739 27.788H48.6681Z" fill="black" stroke="black" stroke-width="0.5" stroke-linecap="round" stroke-linejoin="round"/>
<path d="M64.3391 27.881C64.5658 26.0326 64.3274 24.4574 64.3274 24.4574C64.3274 24.4574 55.7828 25.1549 48.6623 27.7764C48.6623 27.7764 48.5577 29.7643 48.9529 31.5488" stroke="black" stroke-width="0.5" stroke-linecap="round" stroke-linejoin="round"/>
<path fill-rule="evenodd" clip-rule="evenodd" d="M58.1021 35.8618L53.3996 36.4082C53.3996 36.4082 54.0448 38.0474 56.2304 38.2973C58.4159 38.5531 58.1021 35.8618 58.1021 35.8618Z" fill="black" stroke="black" stroke-width="0.5" stroke-linecap="round" stroke-linejoin="round"/>
<path d="M59.0263 35.763L58.1021 35.8618" stroke="black" stroke-width="0.5" stroke-linecap="round" stroke-linejoin="round"/>
<path d="M71.1864 68.9649L70.297 55.8806" stroke="black" stroke-width="0.5" stroke-linecap="round" stroke-linejoin="round"/>
<path fill-rule="evenodd" clip-rule="evenodd" d="M59.9912 51.6374L74.4415 58.8218C74.4415 58.8218 75.604 59.4903 75.6621 60.8911C76.9235 61.5073 80.661 63.3441 80.8063 63.5068C80.9807 63.6986 79.946 64.5008 79.8124 64.5415C79.7019 64.5705 76.4294 63.129 75.0983 62.5419C74.1857 63.3906 72.4128 63.0825 71.6456 62.664C70.6807 62.1408 57.7475 56.4038 57.7475 56.4038L59.9912 51.6374Z" fill="white" stroke="black" stroke-width="0.5" stroke-linecap="round" stroke-linejoin="round"/>
<path d="M56.8618 56.7718C57.7209 57.2468 59.1291 56.3447 60.007 54.7568C60.8849 53.169 60.9001 51.4967 60.041 51.0217C59.1819 50.5467 57.7737 51.4488 56.8958 53.0367C56.0179 54.6245 56.0027 56.2968 56.8618 56.7718Z" fill="black" stroke="black" stroke-width="0.273037" stroke-linecap="round" stroke-linejoin="round"/>
<path d="M75.4819 61.7747C75.6389 61.5015 75.6447 61.1934 75.6621 60.8911" stroke="black" stroke-width="0.5" stroke-linecap="round" stroke-linejoin="round"/>
<path fill-rule="evenodd" clip-rule="evenodd" d="M82.056 66.3318C78.4638 72.2433 85.3634 71.6911 82.056 66.3318V66.3318Z" fill="#ED712E"/>
<path d="M62.014 54.2531L65.1819 55.7469" stroke="black" stroke-width="0.5" stroke-linecap="round" stroke-linejoin="round"/>
<path fill-rule="evenodd" clip-rule="evenodd" d="M70.2854 61.1236C70.2854 61.1236 72.7383 62.6117 73.8951 62.2978C75.0518 61.9839 74.9239 60.4203 74.517 59.9379C74.1043 59.4496 73.3312 59.2113 73.3312 59.2113L70.4482 58.0952L66.2398 59.252L70.2854 61.1236Z" fill="#ED712E"/>
<path fill-rule="evenodd" clip-rule="evenodd" d="M52.644 63.2627L55.3352 67.5989L57.6429 71.3249C57.6429 71.3249 63.1649 69.0812 66.8792 67.2095C70.5993 65.3436 71.2678 63.5591 71.2678 63.5591C71.2678 63.5591 73.401 62.8209 73.2324 62.0653C73.0639 61.3096 71.2794 61.7398 69.7913 62.1118C68.2975 62.478 65.5597 62.321 65.5597 62.321C65.5597 62.321 71.3317 59.5891 71.9304 58.6474C72.5291 57.7 71.4712 57.45 71.0411 57.4907C70.6109 57.5314 69.6925 57.607 69.6925 57.607C69.6925 57.607 70.4075 56.7002 69.4426 56.3049C68.4777 55.9039 59.6366 59.0136 59.6366 59.0136C59.6366 59.0136 60.0958 58.4033 60.5434 57.6477C59.6017 57.2291 58.8228 56.8804 58.323 56.6595C57.0209 58.6881 54.6319 61.4317 52.644 63.2627Z" fill="white" stroke="black" stroke-width="0.5" stroke-linecap="round" stroke-linejoin="round"/>
<path d="M66.0596 65.2913C66.0596 65.2913 67.3326 64.9309 68.8555 64.4078C70.3784 63.8847 71.2677 63.5592 71.2677 63.5592" stroke="black" stroke-width="0.5" stroke-linecap="round" stroke-linejoin="round"/>
<path d="M63.7927 59.6821L69.6925 57.607" stroke="black" stroke-width="0.5" stroke-linecap="round" stroke-linejoin="round"/>
<path d="M122.408 88.0479L113.671 78.7244L73.4475 86.7807L34.1946 95.1277L8.02017 101.231L13.4783 112.74" stroke="black" stroke-width="0.5" stroke-linecap="round" stroke-linejoin="round"/>
<path fill-rule="evenodd" clip-rule="evenodd" d="M45.7618 95.5113L53.7077 103.626L94.5649 94.5988C94.5649 94.5988 85.3809 86.9144 85.16 86.9144C84.9391 86.9144 45.7618 95.5113 45.7618 95.5113Z" fill="black"/>
<path d="M91.4493 86.833L82.8349 80.288L47.3021 87.8154" stroke="black" stroke-width="0.5" stroke-linecap="round" stroke-linejoin="round"/>
<path fill-rule="evenodd" clip-rule="evenodd" d="M53.6728 78.7825H58.8403C58.9914 78.7825 59.1135 78.9046 59.1135 79.0557V95.8136C59.1135 97.383 57.8289 98.6676 56.2595 98.6676C54.6842 98.6676 53.3996 97.383 53.3996 95.8136V79.0557C53.3996 78.9046 53.5275 78.7825 53.6728 78.7825Z" fill="white" stroke="black" stroke-width="0.5" stroke-linecap="round" stroke-linejoin="round"/>
<path fill-rule="evenodd" clip-rule="evenodd" d="M62.2814 76.9806H67.4488C67.5999 76.9806 67.722 77.1026 67.722 77.2538V94.0059C67.722 95.5753 66.4374 96.8599 64.868 96.8599C63.2928 96.8599 62.0082 95.5753 62.0082 94.0059V77.2538C62.0082 77.1026 62.1302 76.9806 62.2814 76.9806Z" fill="white" stroke="black" stroke-width="0.5" stroke-linecap="round" stroke-linejoin="round"/>
<path fill-rule="evenodd" clip-rule="evenodd" d="M70.8899 75.1728H76.0574C76.2085 75.1728 76.3306 75.2949 76.3306 75.446V92.1981C76.3306 93.7734 75.046 95.058 73.4766 95.058C71.9013 95.058 70.6167 93.7734 70.6167 92.1981V75.446C70.6167 75.2949 70.7388 75.1728 70.8899 75.1728Z" fill="white" stroke="black" stroke-width="0.5" stroke-linecap="round" stroke-linejoin="round"/>
<path fill-rule="evenodd" clip-rule="evenodd" d="M79.4985 73.3651H84.6659C84.8171 73.3651 84.9391 73.493 84.9391 73.6383V90.3962C84.9391 91.9656 83.6545 93.2502 82.0793 93.2502C80.5099 93.2502 79.2253 91.9656 79.2253 90.3962V73.6383C79.2253 73.493 79.3473 73.3651 79.4985 73.3651Z" fill="white" stroke="black" stroke-width="0.5" stroke-linecap="round" stroke-linejoin="round"/>
<path fill-rule="evenodd" clip-rule="evenodd" d="M79.8996 81.3866V90.3962C79.8996 91.5936 80.8819 92.576 82.0851 92.576C83.2825 92.576 84.2649 91.5936 84.2649 90.3962V81.3866H79.8996Z" fill="#ED712E"/>
<path d="M82.0851 82.5549C83.2922 82.5549 84.2707 82.0318 84.2707 81.3866C84.2707 80.7413 83.2922 80.2182 82.0851 80.2182C80.8781 80.2182 79.8996 80.7413 79.8996 81.3866C79.8996 82.0318 80.8781 82.5549 82.0851 82.5549Z" fill="black"/>
<path fill-rule="evenodd" clip-rule="evenodd" d="M71.2677 87.9491V92.1342C71.2677 93.3316 72.2501 94.3139 73.4475 94.3139C74.6507 94.3139 75.6331 93.3316 75.6331 92.1342V87.9491H71.2677Z" fill="#ED712E"/>
<path d="M73.4475 89.1174C74.6545 89.1174 75.633 88.5943 75.633 87.9491C75.633 87.3038 74.6545 86.7807 73.4475 86.7807C72.2404 86.7807 71.2619 87.3038 71.2619 87.9491C71.2619 88.5943 72.2404 89.1174 73.4475 89.1174Z" fill="black"/>
<path d="M56.2595 80.4856C58.1952 80.4856 59.7645 79.645 59.7645 78.6081C59.7645 77.5712 58.1952 76.7306 56.2595 76.7306C54.3237 76.7306 52.7544 77.5712 52.7544 78.6081C52.7544 79.645 54.3237 80.4856 56.2595 80.4856Z" fill="black" stroke="black" stroke-width="0.2" stroke-linecap="round" stroke-linejoin="round"/>
<path d="M64.868 78.6779C66.8038 78.6779 68.373 77.8373 68.373 76.8004C68.373 75.7635 66.8038 74.9229 64.868 74.9229C62.9322 74.9229 61.363 75.7635 61.363 76.8004C61.363 77.8373 62.9322 78.6779 64.868 78.6779Z" fill="black" stroke="black" stroke-width="0.2" stroke-linecap="round" stroke-linejoin="round"/>
<path d="M73.4766 76.8701C75.4123 76.8701 76.9816 76.0296 76.9816 74.9927C76.9816 73.9557 75.4123 73.1152 73.4766 73.1152C71.5408 73.1152 69.9715 73.9557 69.9715 74.9927C69.9715 76.0296 71.5408 76.8701 73.4766 76.8701Z" fill="black" stroke="black" stroke-width="0.2" stroke-linecap="round" stroke-linejoin="round"/>
<path d="M82.0851 75.0682C84.0209 75.0682 85.5901 74.2276 85.5901 73.1907C85.5901 72.1538 84.0209 71.3132 82.0851 71.3132C80.1493 71.3132 78.5801 72.1538 78.5801 73.1907C78.5801 74.2276 80.1493 75.0682 82.0851 75.0682Z" fill="black" stroke="black" stroke-width="0.2" stroke-linecap="round" stroke-linejoin="round"/>
<path d="M47.3021 87.8154L54.6086 94.4476L91.4493 86.833" stroke="black" stroke-width="0.5" stroke-linecap="round" stroke-linejoin="round"/>
<path fill-rule="evenodd" clip-rule="evenodd" d="M75.1041 4.70012L75.2727 27.2939L106.597 22.3416V0.0848694L75.1041 4.70012Z" fill="#ED712E"/>
<path fill-rule="evenodd" clip-rule="evenodd" d="M7.95623 48.08L4.21869 55.218L9.34546 60.0018L14.9314 58.3278L18.6225 51.4397L13.5015 46.6501L7.95623 48.08Z" stroke="#ED712E" stroke-width="0.5" stroke-linecap="round" stroke-linejoin="round"/>
<path fill-rule="evenodd" clip-rule="evenodd" d="M17.6169 39.8493L13.5015 46.6501L18.6225 51.4397L24.2084 49.7599L27.9053 42.8719L23.1564 38.4194L17.6169 39.8493Z" stroke="#ED712E" stroke-width="0.5" stroke-linecap="round" stroke-linejoin="round"/>
<path d="M31.5556 31.0082L26.6846 32.5195L23.1563 38.4194L27.9053 42.8719L30.5907 42.0116" stroke="#ED712E" stroke-width="0.5" stroke-linecap="round" stroke-linejoin="round"/>
<path d="M1.07404 44.4878L4.55582 43.4822L7.95623 48.08" stroke="#ED712E" stroke-width="0.5" stroke-linecap="round" stroke-linejoin="round"/>
<path d="M4.60233 67.163L7.28778 65.9888L9.34546 60.0018" stroke="#ED712E" stroke-width="0.5" stroke-linecap="round" stroke-linejoin="round"/>
<path d="M52.1441 33.653C49.54 34.8853 49.3831 29.7818 49.4238 28.3228C50.6095 27.8926 51.8941 27.4567 53.1439 27.1021" stroke="white" stroke-width="0.5" stroke-linecap="round" stroke-linejoin="round"/>
<path d="M50.7026 64.2915C50.7026 64.2915 52.487 67.6571 53.7077 69.7554C54.9226 71.8538 56.4571 74.0684 56.4571 74.0684" stroke="#6CA3B7" stroke-width="0.5" stroke-linecap="round" stroke-linejoin="round"/>
<path d="M53.5856 64.774L51.5512 65.8726" stroke="#6CA3B7" stroke-width="0.5" stroke-linecap="round" stroke-linejoin="round"/>
<path d="M54.4168 66.1225L52.5394 67.6803" stroke="#6CA3B7" stroke-width="0.5" stroke-linecap="round" stroke-linejoin="round"/>
<path d="M55.4515 67.7966L53.5856 69.5462" stroke="#6CA3B7" stroke-width="0.5" stroke-linecap="round" stroke-linejoin="round"/>
<path d="M56.3408 69.2207L54.475 71.0342" stroke="#6CA3B7" stroke-width="0.5" stroke-linecap="round" stroke-linejoin="round"/>
<path d="M57.236 70.668L55.5154 72.6676" stroke="#6CA3B7" stroke-width="0.5" stroke-linecap="round" stroke-linejoin="round"/>
<path d="M35.7059 91.7622C42.7625 87.2283 51.1559 80.9739 57.9916 72.1561L57.6429 71.3249L52.644 63.2627C52.0104 63.6056 51.3594 63.9486 50.7026 64.2915C41.3558 69.2149 30.2304 74.7892 23.4005 82.5666" stroke="black" stroke-width="0.5" stroke-linecap="round" stroke-linejoin="round"/>
<path d="M87.921 48.5508C87.921 48.5508 93.3268 49.6611 95.2682 50.0389C97.2096 50.4167 98.2559 50.5446 98.2559 50.5446" stroke="#6CA3B7" stroke-width="0.5" stroke-linecap="round" stroke-linejoin="round"/>
<path d="M89.9729 46.7199L89.5311 48.8822" stroke="#6CA3B7" stroke-width="0.5" stroke-linecap="round" stroke-linejoin="round"/>
<path d="M91.7923 47.0337L91.3389 49.2484" stroke="#6CA3B7" stroke-width="0.5" stroke-linecap="round" stroke-linejoin="round"/>
<path d="M93.4779 47.3244L93.0885 49.5506" stroke="#6CA3B7" stroke-width="0.5" stroke-linecap="round" stroke-linejoin="round"/>
<path d="M95.245 47.6266L94.7858 49.9459" stroke="#6CA3B7" stroke-width="0.5" stroke-linecap="round" stroke-linejoin="round"/>
<path d="M96.8551 47.9056L96.5586 50.2772" stroke="#6CA3B7" stroke-width="0.5" stroke-linecap="round" stroke-linejoin="round"/>
<path fill-rule="evenodd" clip-rule="evenodd" d="M84.6311 18.5226C85.0961 18.7319 85.4797 19.069 85.7064 19.5166C86.2993 20.6733 85.6192 22.1381 84.1893 22.7833C82.7652 23.4285 81.126 23.01 80.5389 21.8475C80.0565 20.9116 80.4111 19.7782 81.3178 19.0342V8.76899C81.3178 8.76899 81.0621 6.81594 82.6373 6.22886C84.2125 5.64178 84.6136 7.28095 84.6311 7.69946C84.6543 8.11797 84.6311 11.2917 84.6311 11.2917V18.5226Z" fill="white"/>
<path fill-rule="evenodd" clip-rule="evenodd" d="M83.6197 19.319C84.0556 19.4003 84.4276 19.6387 84.6136 20.0049C84.9566 20.6791 84.5613 21.522 83.7417 21.894C82.9163 22.266 81.9689 22.0277 81.6259 21.3534C81.312 20.7373 81.6259 19.9642 82.3234 19.5573V8.61205C82.3234 8.61205 82.2246 7.84477 82.8408 7.61808C83.4569 7.38557 83.6139 8.02497 83.6197 8.19353C83.6313 8.35629 83.6197 9.59439 83.6197 9.59439V19.319Z" fill="black"/>
<path fill-rule="evenodd" clip-rule="evenodd" d="M89.6939 6.92637L102.627 4.7815L102.615 5.76384L89.6881 7.97265L89.6939 6.92637Z" fill="black"/>
<path fill-rule="evenodd" clip-rule="evenodd" d="M89.6939 10.8092L99.029 9.08287L99.0232 10.0652L89.6881 11.8613L89.6939 10.8092Z" fill="black"/>
<path d="M89.7346 14.9188L101.366 12.5879" stroke="white" stroke-width="0.5" stroke-linecap="round" stroke-linejoin="round"/>
<path d="M89.7346 17.424L100.715 15.2734" stroke="white" stroke-width="0.5" stroke-linecap="round" stroke-linejoin="round"/>
<path d="M89.7346 19.9293L98.2792 18.3657" stroke="white" stroke-width="0.5" stroke-linecap="round" stroke-linejoin="round"/>
<path d="M83.4685 37.2685C84.8489 37.2685 85.968 36.1494 85.968 34.769C85.968 33.3886 84.8489 32.2696 83.4685 32.2696C82.0881 32.2696 80.9691 33.3886 80.9691 34.769C80.9691 36.1494 82.0881 37.2685 83.4685 37.2685Z" fill="#D7F0F7"/>
<path d="M82.5327 35.8967C82.2188 35.6351 82.027 35.2282 82.027 34.769C82.0328 34.2866 82.2537 33.8564 82.6141 33.6007" stroke="black" stroke-width="0.5" stroke-linecap="round" stroke-linejoin="round"/>
<path d="M111.236 31.5953C113.351 31.5953 115.066 29.8803 115.066 27.7648C115.066 25.6492 113.351 23.9342 111.236 23.9342C109.12 23.9342 107.405 25.6492 107.405 27.7648C107.405 29.8803 109.12 31.5953 111.236 31.5953Z" fill="#D7F0F7"/>
<path d="M109.8 29.4911C109.317 29.0901 109.021 28.4739 109.027 27.7648C109.033 27.0266 109.37 26.3697 109.922 25.9687" stroke="black" stroke-width="0.5" stroke-linecap="round" stroke-linejoin="round"/>
<path d="M105.609 35.8386C106.797 35.8386 107.76 34.8757 107.76 33.6879C107.76 32.5001 106.797 31.5372 105.609 31.5372C104.421 31.5372 103.458 32.5001 103.458 33.6879C103.458 34.8757 104.421 35.8386 105.609 35.8386Z" fill="#D7F0F7"/>
<path d="M104.801 34.6586C104.534 34.4319 104.365 34.0831 104.365 33.6879C104.371 33.2694 104.563 32.9032 104.871 32.6765" stroke="black" stroke-width="0.5" stroke-linecap="round" stroke-linejoin="round"/>
<path d="M111.73 70.3658C112.917 70.3658 113.88 69.4029 113.88 68.2151C113.88 67.0273 112.917 66.0644 111.73 66.0644C110.542 66.0644 109.579 67.0273 109.579 68.2151C109.579 69.4029 110.542 70.3658 111.73 70.3658Z" fill="#D7F0F7"/>
<path d="M110.922 69.1858C110.654 68.9591 110.486 68.6103 110.486 68.2151C110.492 67.7966 110.683 67.4304 110.991 67.2095" stroke="black" stroke-width="0.5" stroke-linecap="round" stroke-linejoin="round"/>
<path d="M13.2341 79.9392C14.4219 79.9392 15.3848 78.9763 15.3848 77.7885C15.3848 76.6008 14.4219 75.6379 13.2341 75.6379C12.0463 75.6379 11.0834 76.6008 11.0834 77.7885C11.0834 78.9763 12.0463 79.9392 13.2341 79.9392Z" fill="#D7F0F7"/>
<path d="M12.432 78.7593C12.1588 78.5326 11.996 78.1838 11.996 77.7885C12.0018 77.37 12.1879 77.0038 12.5017 76.783" stroke="black" stroke-width="0.5" stroke-linecap="round" stroke-linejoin="round"/>
<path d="M27.3356 11.065C27.9199 11.065 28.3935 10.5913 28.3935 10.0071C28.3935 9.42282 27.9199 8.94918 27.3356 8.94918C26.7514 8.94918 26.2777 9.42282 26.2777 10.0071C26.2777 10.5913 26.7514 11.065 27.3356 11.065Z" fill="white" stroke="black" stroke-width="0.5"/>
<path d="M24.2084 26.8347C24.7927 26.8347 25.2663 26.3611 25.2663 25.7768C25.2663 25.1926 24.7927 24.7189 24.2084 24.7189C23.6242 24.7189 23.1505 25.1926 23.1505 25.7768C23.1505 26.3611 23.6242 26.8347 24.2084 26.8347Z" fill="white" stroke="black" stroke-width="0.5"/>
<path d="M10.694 22.8182C11.2782 22.8182 11.7519 22.3446 11.7519 21.7603C11.7519 21.176 11.2782 20.7024 10.694 20.7024C10.1097 20.7024 9.63608 21.176 9.63608 21.7603C9.63608 22.3446 10.1097 22.8182 10.694 22.8182Z" fill="white" stroke="black" stroke-width="0.5"/>
<path d="M15.7568 14.0527C16.065 14.0527 16.3148 13.8029 16.3148 13.4947C16.3148 13.1865 16.065 12.9367 15.7568 12.9367C15.4486 12.9367 15.1988 13.1865 15.1988 13.4947C15.1988 13.8029 15.4486 14.0527 15.7568 14.0527Z" fill="white" stroke="black" stroke-width="0.5"/>
<path d="M25.1559 18.4645C25.4641 18.4645 25.7139 18.2147 25.7139 17.9065C25.7139 17.5983 25.4641 17.3485 25.1559 17.3485C24.8477 17.3485 24.5979 17.5983 24.5979 17.9065C24.5979 18.2147 24.8477 18.4645 25.1559 18.4645Z" fill="white" stroke="black" stroke-width="0.5"/>
<path d="M17.0821 27.3521C17.3903 27.3521 17.6401 27.1022 17.6401 26.7941C17.6401 26.4859 17.3903 26.236 17.0821 26.236C16.7739 26.236 16.5241 26.4859 16.5241 26.7941C16.5241 27.1022 16.7739 27.3521 17.0821 27.3521Z" fill="white" stroke="black" stroke-width="0.5"/>
<path d="M11.7461 21.7603L16.3788 20.3769" stroke="black" stroke-width="0.5" stroke-linecap="round" stroke-linejoin="round"/>
<path d="M26.5858 10.8325L19.8838 18.1739" stroke="black" stroke-width="0.5" stroke-linecap="round" stroke-linejoin="round"/>
<path d="M15.9544 14.012L17.396 17.8774" stroke="black" stroke-width="0.5" stroke-linecap="round" stroke-linejoin="round"/>
<path d="M24.6269 18.0751L20.5464 19.3538" stroke="black" stroke-width="0.5" stroke-linecap="round" stroke-linejoin="round"/>
<path d="M17.1867 26.2477L18.0238 21.8649" stroke="black" stroke-width="0.5" stroke-linecap="round" stroke-linejoin="round"/>
<path d="M23.5051 24.9863L20.0872 21.1267" stroke="black" stroke-width="0.5" stroke-linecap="round" stroke-linejoin="round"/>
<path d="M18.4364 21.8998C19.621 21.8998 20.5813 20.9395 20.5813 19.7549C20.5813 18.5703 19.621 17.61 18.4364 17.61C17.2519 17.61 16.2916 18.5703 16.2916 19.7549C16.2916 20.9395 17.2519 21.8998 18.4364 21.8998Z" fill="white" stroke="black" stroke-width="0.5"/>
</svg>
