<svg width="192" height="144" viewBox="0 0 192 144" fill="none" xmlns="http://www.w3.org/2000/svg">
<path d="M109.987 75.4673C109.987 75.4673 117.294 79.2455 115.364 83.698C113.428 88.1505 82.8595 92.2659 76.4772 98.561C70.0949 104.862 82.3538 118.801 82.3538 118.801" stroke="#50AA75" stroke-width="0.5" stroke-linecap="round" stroke-linejoin="round"/>
<path d="M95.9205 75.6765C95.9205 75.6765 103.733 80.3383 102.471 82.3088C101.21 84.2851 67.7814 89.4351 56.72 96.9392C45.6585 104.443 53.6974 120.225 53.6974 120.225" stroke="#50AA75" stroke-width="0.5" stroke-linecap="round" stroke-linejoin="round"/>
<path fill-rule="evenodd" clip-rule="evenodd" d="M83.7663 20.4737L84.0162 74.514H95.5195V63.8942H109.801V74.514H149.606V46.7992L132.476 33.279V44.5323L116.183 33.1976V44.5323L100.309 33.4475V45.7936H97.3679V20.4737H83.7663Z" fill="#D7F0F7"/>
<path d="M76.5295 74.514H151.53" stroke="#D7F0F7" stroke-width="0.5" stroke-linecap="round" stroke-linejoin="round"/>
<path fill-rule="evenodd" clip-rule="evenodd" d="M79.7904 59.7266C79.7904 59.7266 81.5865 58.9477 82.7374 57.4771C83.8942 56.0065 84.83 54.3615 85.3241 54.6347C85.8181 54.9079 85.1148 55.8263 84.7777 56.5296C84.4405 57.2329 84.6382 57.1283 85.7658 56.3029C86.8877 55.4717 87.6259 54.9602 88.0444 54.9602C88.4687 54.9602 88.3002 55.5763 88.3002 55.5763C89.079 55.1869 89.5092 55.4019 89.1256 56.332C89.1256 56.332 89.4859 56.3145 89.6894 56.5645C90.0556 57.0179 89.2999 57.7386 89.2999 57.7386C89.2999 57.7386 89.8289 58.1513 89.6138 58.7035C89.4046 59.2616 82.6037 62.9584 82.6037 62.9584L79.7904 59.7266Z" fill="white" stroke="black" stroke-width="0.5" stroke-linecap="round" stroke-linejoin="round"/>
<path d="M84.7428 59.9358C84.83 59.0116 84.6789 57.9595 84.6847 57.0004" stroke="black" stroke-width="0.5" stroke-linecap="round" stroke-linejoin="round"/>
<path d="M85.5566 57.7909L88.335 55.5473" stroke="black" stroke-width="0.5" stroke-linecap="round" stroke-linejoin="round"/>
<path d="M86.3413 58.4943L89.1255 56.332" stroke="black" stroke-width="0.5" stroke-linecap="round" stroke-linejoin="round"/>
<path d="M86.8993 59.2092L89.2999 57.7386" stroke="black" stroke-width="0.5" stroke-linecap="round" stroke-linejoin="round"/>
<path fill-rule="evenodd" clip-rule="evenodd" d="M47.0012 125.572C47.0012 125.572 47.2686 129.141 48.6985 131.623C50.1284 134.1 54.3891 136.221 54.9355 133.344C55.4819 130.467 52.436 125.677 52.436 125.677L47.0012 125.572Z" fill="white" stroke="black" stroke-width="0.5" stroke-linecap="round" stroke-linejoin="round"/>
<path fill-rule="evenodd" clip-rule="evenodd" d="M58.208 123.056L57.9581 127.252C57.9581 127.252 60.8121 128.891 64.91 128.932C69.0021 128.973 69.6938 128.473 69.2753 127.38C68.8568 126.287 63.5847 124.253 63.0616 123.811C62.5326 123.369 58.208 123.056 58.208 123.056Z" fill="white" stroke="black" stroke-width="0.5" stroke-linecap="round" stroke-linejoin="round"/>
<path fill-rule="evenodd" clip-rule="evenodd" d="M47.2918 74.1769C47.2918 74.1769 46.7861 90.4291 46.7047 98.3226C46.6175 106.216 46.7454 126.078 46.7454 126.078C46.7454 126.078 48.5067 127.09 50.2505 126.938C51.9943 126.793 52.9592 125.892 52.9592 125.892L56.72 96.9392L57.2198 113.732L57.8709 123.369C57.8709 123.369 59.0276 124.084 61.2538 124.148C63.4801 124.212 63.9625 123.875 63.9625 123.875C63.9625 123.875 65.9795 86.3369 66.0435 81.2974C66.1016 76.2578 65.7703 73.5665 65.7703 73.5665L47.2918 74.1769Z" fill="black" stroke="black" stroke-width="0.2" stroke-linecap="round" stroke-linejoin="round"/>
<path fill-rule="evenodd" clip-rule="evenodd" d="M51.8082 49.6997C50.6748 50.2112 48.9135 51.118 47.1174 52.4666C44.0948 54.7335 40.9676 63.0921 41.6768 68.0038C42.3917 72.9155 46.757 72.7934 46.757 72.7934C46.757 72.7934 46.5304 75.2289 47.3034 75.6649C48.0823 76.1066 54.8831 77.0541 59.6321 76.3392C64.3752 75.6242 66.2236 74.6825 66.3283 73.9269C66.4329 73.1713 66.0783 68.7827 66.0783 68.7827C66.0783 68.7827 68.1767 71.846 73.2163 69.8755C78.2559 67.8992 83.5047 63.2781 83.5047 63.2781L80.9181 58.8314L70.3158 62.8828C70.3158 62.8828 67.1479 53.1815 64.166 51.0599C62.6837 50.0078 61.0446 49.351 59.2136 49.0487C58.8648 48.6011 58.58 48.0141 56.9466 47.5374C55.1447 47.0201 53.9066 47.1363 53.9066 47.1363C53.9066 47.1363 51.9361 49.0022 51.785 49.444C51.7734 49.4905 51.7792 49.5777 51.8082 49.6997Z" fill="#D7F0F7"/>
<path fill-rule="evenodd" clip-rule="evenodd" d="M57.7953 55.0299L55.7783 67.2482L58.58 67.4283L57.8069 71.7995L57.5686 72.8051L54.8483 72.9039L54.8308 72.9911L57.9813 75.6998L60.8586 72.2761L58.8241 54.873C58.8241 54.873 59.0218 53.5593 59.045 52.9083C59.0508 52.7165 59.0508 52.5828 59.0566 52.4898C58.4405 52.4026 57.8592 52.3852 57.8592 52.3852C57.8592 52.3852 57.1094 52.5072 56.4409 52.7688C56.4119 52.7804 56.3886 52.7921 56.3654 52.8037C56.5514 53.1641 56.906 53.8267 57.2082 54.2743C57.6384 54.9137 57.7953 55.0299 57.7953 55.0299Z" fill="black"/>
<path d="M50.047 57.8549L48.2218 66.7773L58.58 67.4283L57.5686 72.8051" stroke="black" stroke-width="0.5" stroke-linecap="round" stroke-linejoin="round"/>
<path fill-rule="evenodd" clip-rule="evenodd" d="M63.0616 68.1607C63.0616 68.1607 66.0144 67.9922 66.7701 67.7713C67.5257 67.5504 67.2234 68.3584 67.2234 68.3584C67.2234 68.3584 67.6419 68.4572 67.6419 68.7711C67.6419 69.0849 67.3804 69.2419 67.3804 69.2419C67.3804 69.2419 67.5489 69.6895 67.3629 69.8697C67.1769 70.0499 66.9502 70.137 66.9502 70.137C66.9502 70.137 66.9793 70.5323 66.2876 70.9624C65.5959 71.3926 63.7707 71.7704 62.8465 71.8983C62.2478 71.9797 61.5735 72.0029 61.1783 72.0029C61.0795 72.0494 60.9632 72.0727 60.8353 72.0668C59.6321 72.0087 57.8069 71.7995 57.8069 71.7995L58.4986 67.8934C58.4986 67.8934 59.0392 67.8875 59.4926 67.8527C59.9402 67.8178 60.3238 67.6957 60.3238 67.6957C60.3238 67.6957 61.6607 67.1203 62.9569 66.8064C64.259 66.4925 64.5671 66.9343 64.1544 67.2598C63.7475 67.5853 63.0616 68.1607 63.0616 68.1607Z" fill="white" stroke="black" stroke-width="0.5" stroke-linecap="round" stroke-linejoin="round"/>
<path d="M62.9918 69.2535C62.9918 69.2535 64.2822 69.1489 65.3983 68.9803C66.5085 68.8118 67.2234 68.3584 67.2234 68.3584" stroke="black" stroke-width="0.5" stroke-linecap="round" stroke-linejoin="round"/>
<path d="M63.0964 70.0847C63.0964 70.0847 64.474 70.015 65.6191 69.7883C66.77 69.5616 67.299 69.2477 67.299 69.2477" stroke="black" stroke-width="0.5" stroke-linecap="round" stroke-linejoin="round"/>
<path d="M63.2418 70.9508C63.2418 70.9508 64.5496 70.852 65.4331 70.6253C66.3167 70.3928 66.9502 70.137 66.9502 70.137" stroke="black" stroke-width="0.5" stroke-linecap="round" stroke-linejoin="round"/>
<path d="M46.8791 66.5623L48.2276 66.7483" stroke="black" stroke-width="0.5" stroke-linecap="round" stroke-linejoin="round"/>
<path fill-rule="evenodd" clip-rule="evenodd" d="M53.8659 37.2141C57.0164 35.8598 60.7714 35.0867 61.0504 39.5276C61.1957 41.8584 61.7654 47.0027 60.4401 47.6944C59.1206 48.3861 58.2603 48.1361 58.2603 48.1361C58.2603 48.1361 58.4173 49.9729 58.301 50.8448C58.1848 51.7167 57.8592 52.3852 57.8592 52.3852C57.8592 52.3852 55.0227 50.6763 54.3716 50.0485C53.7264 49.4149 53.5753 48.1245 53.5753 48.1245L53.3544 44.2823C53.3544 44.2823 51.9013 43.4976 51.7676 42.4513C51.6281 41.3992 52.2675 41.0098 52.2675 41.0098C52.2675 41.0098 52.2675 40.9459 52.2675 40.8354C52.2616 40.2309 52.3721 38.2372 53.8659 37.2141Z" fill="white"/>
<path fill-rule="evenodd" clip-rule="evenodd" d="M60.5214 37.4931C59.1496 37.7489 57.278 37.3594 56.1678 37.4873C54.982 37.6268 54.3716 38.8417 54.2554 39.3881C54.1391 39.9344 54.6739 40.7192 54.3833 41.0272C54.2786 41.1319 54.2554 41.3237 54.2612 41.5271V41.5329V41.5387C54.267 41.6608 54.3658 43.0326 55.6039 44.1661C56.906 45.3518 57.4233 44.5323 58.952 44.23C59.9169 44.0382 60.783 44.0324 61.2945 44.0556C61.3061 45.7878 61.126 47.334 60.4401 47.6944C59.1206 48.3861 58.2603 48.1361 58.2603 48.1361C58.2603 48.1361 55.6562 47.2526 54.8599 45.625C54.0636 43.9975 53.8659 42.5792 53.8659 42.5792C53.8659 42.5792 53.4707 41.4981 53.4649 41.469C53.459 41.4341 53.2498 41.1028 52.9708 40.9982C52.6918 40.8935 52.2675 41.0098 52.2675 41.0098C52.2675 41.0098 51.6281 41.3992 51.7676 42.4513C51.9013 43.4976 53.3544 44.2823 53.3544 44.2823L53.4416 45.7471C52.436 45.3635 50.8782 43.6894 50.1923 41.2539C49.5123 38.8242 51.2735 36.6154 51.4944 36.226C51.4944 36.226 51.4944 34.9472 53.0812 34.4124C54.6681 33.8777 54.8657 34.2032 57.0396 34.3601C59.2136 34.517 61.6142 34.5461 61.8583 35.7784C62.0967 37.0049 60.9225 37.3711 60.5214 37.4931Z" fill="black" stroke="black" stroke-width="0.2" stroke-linecap="round" stroke-linejoin="round"/>
<path d="M56.9176 42.1665C57.1327 42.1665 57.307 41.9609 57.307 41.7073C57.307 41.4537 57.1327 41.2481 56.9176 41.2481C56.7025 41.2481 56.5281 41.4537 56.5281 41.7073C56.5281 41.9609 56.7025 42.1665 56.9176 42.1665Z" fill="black"/>
<path d="M60.0041 41.8119C60.2192 41.8119 60.3936 41.6064 60.3936 41.3527C60.3936 41.0991 60.2192 40.8935 60.0041 40.8935C59.789 40.8935 59.6147 41.0991 59.6147 41.3527C59.6147 41.6064 59.789 41.8119 60.0041 41.8119Z" fill="black"/>
<path d="M58.8939 41.6841C58.9578 41.8119 59.7077 43.2709 59.7193 43.3058C59.7367 43.3349 59.0101 43.5209 59.0101 43.5209" stroke="black" stroke-width="0.5" stroke-linecap="round" stroke-linejoin="round"/>
<path d="M55.912 40.6029C55.912 40.6029 56.2317 40.4111 56.5979 40.3297C56.9641 40.2425 57.2605 40.2832 57.2605 40.2832" stroke="black" stroke-width="0.5" stroke-linecap="round" stroke-linejoin="round"/>
<path d="M59.1903 40.0914C59.1903 40.0914 59.4519 39.9345 59.8297 39.888C60.2134 39.8415 60.3994 39.8996 60.3994 39.8996" stroke="black" stroke-width="0.5" stroke-linecap="round" stroke-linejoin="round"/>
<path fill-rule="evenodd" clip-rule="evenodd" d="M59.8879 45.3809C59.8879 45.3809 58.2719 45.2705 58.1615 45.2123C58.0511 45.1542 58.0278 45.9447 58.7893 46.0319C59.5507 46.1191 59.8879 45.3809 59.8879 45.3809Z" fill="white"/>
<path d="M52.4767 41.5911C52.4767 41.5911 52.9882 41.748 53.1859 42.3409C53.3777 42.9338 53.2498 43.5906 53.2498 43.5906" stroke="black" stroke-width="0.5" stroke-linecap="round" stroke-linejoin="round"/>
<path d="M52.5406 42.7594L53.1859 42.3409" stroke="black" stroke-width="0.5" stroke-linecap="round" stroke-linejoin="round"/>
<path d="M65.2704 57.0992L65.904 67.0505" stroke="black" stroke-width="0.5" stroke-linecap="round" stroke-linejoin="round"/>
<path d="M51.8489 50.1996L53.9706 54.1232L55.7841 53.0129" stroke="black" stroke-width="0.5" stroke-linecap="round" stroke-linejoin="round"/>
<path d="M59.5565 52.4433L60.876 52.8444L59.4519 49.38" stroke="black" stroke-width="0.5" stroke-linecap="round" stroke-linejoin="round"/>
<path d="M68.508 63.6908L70.3158 62.8828" stroke="black" stroke-width="0.5" stroke-linecap="round" stroke-linejoin="round"/>
<path d="M47.6929 72.9504L57.5686 72.8051" stroke="black" stroke-width="0.5" stroke-linecap="round" stroke-linejoin="round"/>
<path d="M60.4401 37.3536C60.7714 37.871 60.9923 38.5801 61.0504 39.5276C61.1957 41.8584 61.7654 47.0027 60.4401 47.6944C59.1206 48.3861 58.2603 48.1361 58.2603 48.1361C58.2603 48.1361 58.4173 49.9729 58.301 50.8448M53.5753 48.1245L53.3544 44.2823C53.3544 44.2823 51.9013 43.4976 51.7676 42.4513C51.6281 41.3992 52.2675 41.0098 52.2675 41.0098L53.5753 48.1245Z" stroke="black" stroke-width="0.5" stroke-linecap="round" stroke-linejoin="round"/>
<path d="M59.603 81.9426L57.9697 86.0172L56.72 96.9392" stroke="white" stroke-width="0.5" stroke-linecap="round" stroke-linejoin="round"/>
<path d="M48.559 78.2922C48.559 78.2922 49.0996 78.7107 49.5994 78.92C50.1051 79.1292 50.3435 79.2048 50.3435 79.2048" stroke="white" stroke-width="0.5" stroke-linecap="round" stroke-linejoin="round"/>
<path d="M48.9077 79.8558L49.6518 80.1988" stroke="white" stroke-width="0.5" stroke-linecap="round" stroke-linejoin="round"/>
<path d="M65.3983 77.1994C65.3983 77.1994 65.3401 77.6586 65.1774 78.0481C65.0204 78.4375 64.8984 78.5945 64.8984 78.5945" stroke="white" stroke-width="0.5" stroke-linecap="round" stroke-linejoin="round"/>
<path d="M65.5145 79.3734L65.1774 80.1406" stroke="white" stroke-width="0.5" stroke-linecap="round" stroke-linejoin="round"/>
<path fill-rule="evenodd" clip-rule="evenodd" d="M111.074 85.4011L112.626 84.8082C112.626 84.8082 113.428 84.5699 113.748 85.0814C114.062 85.5987 113.667 86.1858 113.109 86.4823C112.556 86.7729 111.661 87.1216 111.661 87.1216L111.074 85.4011Z" fill="black"/>
<path fill-rule="evenodd" clip-rule="evenodd" d="M131.209 54.7102C123.909 54.036 122.583 55.4426 121.828 56.8958C121.072 58.3431 120.566 62.6445 119.683 63.6094C118.805 64.5801 116.643 66.6146 116.643 66.6146L118.532 67.9805C118.532 67.9805 118.09 69.4686 117.921 69.8057C117.753 70.1429 119.392 70.6427 120.124 70.9159C120.863 71.1891 121.177 71.317 121.177 71.317C121.177 71.317 119.578 72.0727 118.596 72.0727C117.608 72.0727 118.323 73.4503 118.323 73.4503C118.323 73.4503 117.311 76.345 117.945 77.0832C118.573 77.8156 122.455 78.0481 123.252 79.2455C124.054 80.4429 123.589 86.3195 123.589 86.3195L134.255 85.186C134.255 85.186 132.912 74.5198 134.087 72.4621C135.638 69.7476 139.097 69.5325 139.3 63.034C139.411 59.3778 137.76 55.3148 131.209 54.7102Z" fill="white"/>
<path d="M122.303 64.5322C122.314 64.909 122.613 65.1901 122.972 65.1601C123.33 65.1301 123.611 64.8003 123.6 64.4235C123.589 64.0467 123.289 63.7656 122.931 63.7956C122.572 63.8256 122.291 64.1554 122.303 64.5322Z" fill="black"/>
<path d="M122.577 62.2202C123.531 62.2841 124.228 62.5515 125.03 63.0456" stroke="black" stroke-width="0.5" stroke-linecap="round" stroke-linejoin="round"/>
<path fill-rule="evenodd" clip-rule="evenodd" d="M119.84 54.594C119.84 54.594 118.171 54.5824 118.799 55.9135C119.433 57.2446 122.798 57.2387 123.967 57.3201C125.129 57.4073 127.617 58.256 127.617 58.256C127.617 58.256 126.391 58.6629 127.722 59.4301C129.059 60.1974 129.529 60.6682 129.529 61.8017C129.529 62.9352 127.704 64.4813 127.85 65.3532C127.995 66.2251 128.006 67.4632 127.995 68.091C127.983 68.7188 128.32 68.7188 129.233 67.6318C130.151 66.539 132.04 65.9054 132.918 67.376C133.802 68.8466 132.163 71.2182 131.198 71.9739C130.233 72.7295 129.245 72.5609 129.245 72.5609C129.245 72.5609 129.372 77.4145 130.948 78.4433C132.523 79.4722 133.087 78.019 133.087 78.019C133.087 78.019 133.93 78.734 134.935 78.0423C135.941 77.3506 136.574 73.7409 138.545 71.3461C140.521 68.9513 143.125 61.3948 141.027 57.3608C138.923 53.3326 130.988 51.6528 129.855 51.2285C128.721 50.8099 126.472 49.7811 124.019 49.1708C121.56 48.5663 121.647 49.5951 121.706 50.3914C121.769 51.1878 122.107 51.7342 122.107 51.7342C122.107 51.7342 120.031 51.0192 119.253 52.3038C118.474 53.5826 119.84 54.594 119.84 54.594Z" fill="black" stroke="black" stroke-width="0.2" stroke-linecap="round" stroke-linejoin="round"/>
<path fill-rule="evenodd" clip-rule="evenodd" d="M82.5747 75.7753L86.94 106.094L107.517 101.473L104.157 71.5728L82.5747 75.7753Z" fill="white" stroke="black" stroke-width="0.5" stroke-linecap="round" stroke-linejoin="round"/>
<path fill-rule="evenodd" clip-rule="evenodd" d="M88.3525 73.3921L88.8582 76.4787L98.391 74.5256L98.048 71.5321L95.5951 72.0029C95.3335 71.6076 94.7522 71.1078 93.4734 71.1891C91.997 71.2821 91.2588 72.311 90.9624 72.8922L88.3525 73.3921Z" fill="#50AA75"/>
<path d="M88.8582 85.0698L100.931 82.239" stroke="black" stroke-width="0.5" stroke-linecap="round" stroke-linejoin="round"/>
<path d="M89.3464 87.5343L101.414 84.6978" stroke="black" stroke-width="0.5" stroke-linecap="round" stroke-linejoin="round"/>
<path d="M89.794 90.0687L101.867 87.2321" stroke="black" stroke-width="0.5" stroke-linecap="round" stroke-linejoin="round"/>
<path d="M90.6659 94.5154L102.739 91.6788" stroke="black" stroke-width="0.5" stroke-linecap="round" stroke-linejoin="round"/>
<path d="M90.8519 97.0264L102.925 94.1898" stroke="black" stroke-width="0.5" stroke-linecap="round" stroke-linejoin="round"/>
<path d="M99.4198 98.8342L103.57 97.8576" stroke="#50AA75" stroke-width="0.5" stroke-linecap="round" stroke-linejoin="round"/>
<path fill-rule="evenodd" clip-rule="evenodd" d="M115.009 90.2779C115.009 90.2779 107.703 86.3311 104.39 85.157C101.071 83.9828 99.9371 84.2967 99.9371 84.2967C99.9371 84.2967 97.9608 84.3606 97.5016 85.3023C97.0366 86.2497 97.0366 88.1389 97.0366 88.1389C97.0366 88.1389 95.5486 90.3244 95.5486 91.2254C95.5486 92.1263 97.7516 90.8185 97.7516 90.8185C97.7516 90.8185 101.867 92.2019 103.57 94.091C105.267 95.9801 108.336 97.2589 108.336 97.2589L115.009 90.2779Z" fill="white" stroke="black" stroke-width="0.5" stroke-linecap="round" stroke-linejoin="round"/>
<path fill-rule="evenodd" clip-rule="evenodd" d="M111.44 84.8547L112.295 87.0228L97.7457 93.5272L97.0075 91.4056L111.44 84.8547Z" fill="#50AA75"/>
<path fill-rule="evenodd" clip-rule="evenodd" d="M97.6934 93.3935L94.8452 93.5679L97.054 91.5567L97.6934 93.3935Z" fill="black"/>
<path fill-rule="evenodd" clip-rule="evenodd" d="M105.523 91.3823C105.523 91.3823 102.762 90.9813 101.687 91.4579C100.617 91.9287 99.1408 91.7485 98.7804 92.231C98.4258 92.7134 98.4374 93.597 99.8964 93.7365C101.355 93.8701 102.739 93.3935 103.465 93.9806C104.198 94.5735 105.523 91.3823 105.523 91.3823Z" fill="white"/>
<path fill-rule="evenodd" clip-rule="evenodd" d="M87.3178 95.2361C87.3178 95.2361 86.6668 91.5858 87.2771 89.6327C87.8816 87.6797 88.5559 84.2967 87.7596 83.3318C86.9632 82.3669 84.394 88.4121 84.394 88.4121L83.2955 80.7975C83.2955 80.7975 81.6912 82.1344 81.2087 83.0295C80.7263 83.9189 80.8948 84.6629 80.8948 84.6629C80.8948 84.6629 80.0752 85.3372 79.9474 85.8719C79.8253 86.4067 80.0346 86.9124 80.0346 86.9124C80.0346 86.9124 79.4126 87.5111 79.2673 88.1912C79.122 88.8771 79.3719 89.3072 79.3719 89.3072C79.3719 89.3072 78.8546 91.1614 79.401 93.0738C79.9474 94.9862 82.4236 99.2643 82.4236 99.2643L87.3178 95.2361Z" fill="white" stroke="black" stroke-width="0.5" stroke-linecap="round" stroke-linejoin="round"/>
<path d="M129.506 71.4042C129.506 71.4042 129.506 69.9162 130.221 68.7536C130.936 67.5853 131.965 67.5562 131.965 67.5562" stroke="black" stroke-width="0.5" stroke-linecap="round" stroke-linejoin="round"/>
<path d="M131.238 70.0731L130.041 69.0791" stroke="black" stroke-width="0.5" stroke-linecap="round" stroke-linejoin="round"/>
<path d="M105.07 89.3246L110.97 86.6159" stroke="white" stroke-width="0.5" stroke-linecap="round" stroke-linejoin="round"/>
<path d="M81.1332 85.7092L80.8948 84.6629" stroke="black" stroke-width="0.5" stroke-linecap="round" stroke-linejoin="round"/>
<path d="M80.2961 87.7262L80.0346 86.9124" stroke="black" stroke-width="0.5" stroke-linecap="round" stroke-linejoin="round"/>
<path d="M79.7672 90.4581L79.3719 89.3072" stroke="black" stroke-width="0.5" stroke-linecap="round" stroke-linejoin="round"/>
<path d="M134.255 85.186C134.255 85.186 134.162 84.4246 134.04 83.2795C133.72 80.1116 133.226 73.9734 134.087 72.4621C135.638 69.7476 139.097 69.5325 139.3 63.034C139.411 59.3778 137.76 55.3148 131.209 54.7102C125.908 54.222 123.757 54.8323 122.688 55.7507C122.287 56.0995 122.037 56.4947 121.828 56.8958C121.072 58.3432 120.566 62.6445 119.683 63.6094C118.805 64.5801 116.643 66.6146 116.643 66.6146L118.532 67.9805C118.532 67.9805 118.09 69.4686 117.921 69.8057C117.753 70.1429 119.392 70.6427 120.124 70.9159C120.863 71.1891 121.177 71.317 121.177 71.317C121.177 71.317 119.578 72.0727 118.596 72.0727C117.608 72.0727 118.323 73.4503 118.323 73.4503C118.323 73.4503 117.311 76.345 117.945 77.0832C118.573 77.8156 122.455 78.0481 123.252 79.2455C124.054 80.4429 123.589 86.3195 123.589 86.3195" stroke="black" stroke-width="0.5" stroke-linecap="round" stroke-linejoin="round"/>
<path d="M86.1262 79.9895L91.1774 78.8037" stroke="#50AA75" stroke-width="0.5" stroke-linecap="round" stroke-linejoin="round"/>
<path d="M98.1061 77.3796L101.507 76.5833" stroke="#50AA75" stroke-width="0.5" stroke-linecap="round" stroke-linejoin="round"/>
<path d="M105.523 91.3823C105.523 91.3823 102.762 90.9813 101.687 91.4579C100.617 91.9287 99.1408 91.7485 98.7804 92.231C98.4258 92.7134 98.4374 93.597 99.8964 93.7365C101.355 93.8701 102.739 93.3935 103.465 93.9806" stroke="black" stroke-width="0.5" stroke-linecap="round" stroke-linejoin="round"/>
<path d="M101.693 84.4013C98.9896 84.4246 97.8794 86.7496 97.0366 88.1389" stroke="black" stroke-width="0.5" stroke-linecap="round" stroke-linejoin="round"/>
<path d="M103.808 87.9645L101.088 87.1681L97.7515 90.8185" stroke="black" stroke-width="0.5" stroke-linecap="round" stroke-linejoin="round"/>
<path d="M101.745 86.5636L101.088 87.1681" stroke="black" stroke-width="0.5" stroke-linecap="round" stroke-linejoin="round"/>
<path d="M99.536 89.9117L99.5884 88.8073" stroke="black" stroke-width="0.5" stroke-linecap="round" stroke-linejoin="round"/>
<path d="M101.321 89.0863L101.344 87.2437" stroke="black" stroke-width="0.5" stroke-linecap="round" stroke-linejoin="round"/>
<path fill-rule="evenodd" clip-rule="evenodd" d="M100.379 108.634C100.379 108.634 107.43 94.6897 111.841 90.7429C116.247 86.7961 120.95 85.0349 131.494 83.9014C142.032 82.768 146.229 85.5813 148.665 93.2191C151.1 100.863 146.671 114.11 146.671 114.11L146.462 135.739C146.462 135.739 108.336 134.896 108.336 135.739C108.336 136.576 110.098 119.824 110.098 119.824C110.098 119.824 107.366 127.299 97.8387 124.148C88.306 120.998 83.6849 106.263 82.8479 103.571C82.005 100.886 81.418 98.1541 81.418 98.1541C81.418 98.1541 83.4524 95.7418 84.9463 95.0501C86.4343 94.3584 87.4864 94.2945 87.4864 94.2945L100.379 108.634Z" fill="#D7F0F7"/>
<path d="M117.427 106.426L110.789 118.818" stroke="black" stroke-width="0.5" stroke-linecap="round" stroke-linejoin="round"/>
<path d="M146.316 99.4561L146.607 112.052" stroke="black" stroke-width="0.5" stroke-linecap="round" stroke-linejoin="round"/>
<path d="M98.4374 112.633L100.274 108.832L100.251 108.884" stroke="black" stroke-width="0.5" stroke-linecap="round" stroke-linejoin="round"/>
<path d="M81.9934 100.561C81.9934 100.561 83.807 97.6716 85.5798 96.666C87.3527 95.6604 88.5443 95.4686 88.5443 95.4686" stroke="#6CA3B7" stroke-width="0.5" stroke-linecap="round" stroke-linejoin="round"/>
<path d="M82.1039 97.3926L82.7781 99.4387" stroke="#6CA3B7" stroke-width="0.5" stroke-linecap="round" stroke-linejoin="round"/>
<path d="M82.97 96.5265L83.6965 98.218" stroke="#6CA3B7" stroke-width="0.5" stroke-linecap="round" stroke-linejoin="round"/>
<path d="M84.0453 95.6081L84.8184 97.2008" stroke="#6CA3B7" stroke-width="0.5" stroke-linecap="round" stroke-linejoin="round"/>
<path d="M85.2543 94.9106L85.9867 96.4452" stroke="#6CA3B7" stroke-width="0.5" stroke-linecap="round" stroke-linejoin="round"/>
<path d="M86.4634 94.4863L87.3004 95.8465" stroke="#6CA3B7" stroke-width="0.5" stroke-linecap="round" stroke-linejoin="round"/>
<path d="M121.066 85.7266C124.263 85.9707 134.342 86.087 136.342 83.6689" stroke="#6CA3B7" stroke-width="0.5" stroke-linecap="round" stroke-linejoin="round"/>
<path d="M122.2 54.9892C124.222 55.0299 126.338 55.1578 128.204 56.0181" stroke="white" stroke-width="0.5" stroke-linecap="round" stroke-linejoin="round"/>
<path d="M125.896 53.6523C127.78 53.7511 129.442 54.3382 131.029 55.3554" stroke="white" stroke-width="0.5" stroke-linecap="round" stroke-linejoin="round"/>
<path d="M125.472 51.3389C126.547 52.0945 127.274 52.3038 128.495 52.6584" stroke="white" stroke-width="0.5" stroke-linecap="round" stroke-linejoin="round"/>
<path d="M134.522 62.6561C134.522 62.6561 134.924 63.5804 134.836 64.8185C134.755 66.0566 134.522 66.4518 134.522 66.4518" stroke="white" stroke-width="0.5" stroke-linecap="round" stroke-linejoin="round"/>
<path d="M136.621 65.5509C136.598 66.725 136.069 68.5618 135.569 69.6255" stroke="white" stroke-width="0.5" stroke-linecap="round" stroke-linejoin="round"/>
<path d="M137.841 68.3526C138.469 67.0505 138.713 66.2077 138.806 64.6092" stroke="white" stroke-width="0.5" stroke-linecap="round" stroke-linejoin="round"/>
<path fill-rule="evenodd" clip-rule="evenodd" d="M78.5349 39.0451C80.7786 35.9818 78.4709 32.6221 73.7046 32.4942C66.3515 32.3024 63.8521 35.9702 64.7821 38.7312L63.5324 40.9982L66.1248 40.5738C66.7817 41.0795 67.6361 41.4457 68.665 41.5969C71.8213 41.7306 76.4946 41.8236 78.5349 39.0451Z" fill="white" stroke="black" stroke-width="0.5" stroke-linecap="round" stroke-linejoin="round"/>
<path fill-rule="evenodd" clip-rule="evenodd" d="M69.0777 37.0572C69.3974 37.0572 69.6531 37.3188 69.6531 37.6501C69.6531 37.9756 69.3974 38.2372 69.0777 38.2372C68.758 38.2372 68.4964 37.9756 68.4964 37.6501C68.4964 37.3188 68.758 37.0572 69.0777 37.0572ZM75.2042 36.1446C75.5239 36.1446 75.7797 36.412 75.7797 36.7375C75.7797 37.063 75.5239 37.3304 75.2042 37.3304C74.8845 37.3304 74.623 37.063 74.623 36.7375C74.623 36.412 74.8845 36.1446 75.2042 36.1446ZM72.0828 36.6561C72.4025 36.6561 72.6583 36.9177 72.6583 37.2432C72.6583 37.5745 72.4025 37.8361 72.0828 37.8361C71.7573 37.8361 71.5016 37.5745 71.5016 37.2432C71.5016 36.9177 71.7573 36.6561 72.0828 36.6561Z" fill="black"/>
<path fill-rule="evenodd" clip-rule="evenodd" d="M45.5945 25.7981C44.4669 24.839 43.7112 23.7346 43.3799 22.6418C43.0486 21.549 43.13 20.4562 43.688 19.5262C44.1239 18.7996 44.9377 18.4334 45.92 18.4741C46.9082 18.5206 48.0707 18.974 49.1926 19.8982C50.0935 20.648 50.7678 21.6827 51.0642 22.758C51.3665 23.8334 51.2968 24.9552 50.7329 25.8678C49.8436 27.3152 47.35 27.2861 45.5945 25.7981ZM38.8053 20.9154C39.1541 22.014 39.497 23.1068 39.84 24.1996C41.4792 24.6123 41.392 24.1879 41.9616 25.054C42.6591 26.1236 42.7114 25.862 42.5778 26.3386C42.4789 26.6874 42.2755 27.2628 42.0721 27.5942C43.0195 28.4138 43.9612 29.2217 44.9086 30.0355C45.0249 29.8437 45.798 28.9834 45.92 28.9427C46.449 29.152 46.9779 29.3554 47.5069 29.5588C47.5592 29.7158 47.4836 29.524 47.5941 29.7855C47.6348 29.896 47.6406 29.9018 47.6929 30.0122C47.908 30.5179 48.123 31.0178 48.3381 31.5177C49.303 31.5235 50.2679 31.5177 51.2328 31.5177C51.2909 31.2038 51.227 30.9074 51.1805 30.5819C51.1456 30.361 51.1107 30.1343 51.0759 29.9076C51.0526 29.7449 51.0526 29.739 51.0236 29.6053C51.1805 29.4833 51.413 29.4252 51.6164 29.3205C51.7676 29.2333 52.0059 28.995 52.2035 29.0125C52.4767 29.0415 53.7032 29.9367 53.9648 30.1575C54.4588 29.367 54.9587 28.5707 55.4528 27.7744C54.9994 27.4023 54.5867 26.9373 54.2438 26.5711C53.8427 26.1468 53.9183 26.4258 53.9357 25.9724C53.9415 25.7574 54.0113 25.612 54.0113 25.2982C54.0113 24.6239 54.0694 24.6936 54.6507 24.6065C55.011 24.5541 55.4296 24.4902 55.7551 24.4146C55.4179 23.3219 55.0692 22.2233 54.7262 21.1305C54.4065 21.0607 53.9764 20.991 53.5986 20.9329C52.5755 20.7875 52.9534 20.8399 52.0989 19.7006C51.7908 19.2995 51.785 19.4216 51.8955 19.0321C52.0001 18.6834 52.2035 18.1079 52.407 17.7708C51.4304 16.9744 50.4481 16.1781 49.4658 15.3818C49.2449 15.748 48.9194 16.0444 48.6694 16.3002C48.2219 16.7536 48.6811 16.5327 47.4604 16.1258C46.8152 15.9107 46.8733 15.9165 46.5652 15.2771C46.3734 14.8761 46.1758 14.3355 45.9026 14.0158C44.9319 13.9867 43.9554 13.9635 42.9846 13.9344C43.0195 14.2018 43.0776 14.5157 43.1416 14.8586C43.1765 15.0679 43.1939 15.1318 43.223 15.3062C43.2578 15.4806 43.2927 15.655 43.3218 15.8235C42.9381 16.0153 42.5545 16.213 42.1709 16.4048C41.8977 16.3757 40.6712 15.4806 40.4038 15.2597C39.9446 16.0328 39.4854 16.8117 39.0204 17.5906C39.4738 17.9742 39.8865 18.4334 40.2294 18.7996C40.7526 19.3576 40.5375 18.8577 40.4678 20.0668C40.4271 20.7352 40.4619 20.6597 39.8691 20.741C39.5203 20.7875 39.125 20.8457 38.8053 20.9154Z" fill="#50AA75"/>
<path fill-rule="evenodd" clip-rule="evenodd" d="M44.5192 19.5669C44.7168 19.5378 44.9261 19.5262 45.1411 19.532C46.1293 19.5785 47.2918 20.0319 48.4137 20.9561C49.3146 21.7059 49.9889 22.7406 50.2853 23.8159C50.3783 24.1589 50.4365 24.5018 50.4539 24.839C50.6283 24.2286 50.5876 23.5602 50.419 22.9382C50.1458 21.9675 49.5413 21.0549 48.7624 20.4155C47.9777 19.7645 46.9372 19.1949 45.891 19.1484C45.3911 19.1251 44.8796 19.2356 44.5192 19.5669ZM38.0264 21.9733C38.3752 23.0719 38.7181 24.1647 39.0611 25.2633C40.7003 25.6702 40.6131 25.2517 41.1827 26.1178C41.4268 26.4898 41.5896 26.699 41.7 26.8327C41.793 26.606 41.8744 26.3561 41.9267 26.1643C41.8977 26.1236 41.8686 26.0887 41.8395 26.0538C41.6884 25.8504 41.5373 25.6411 41.3978 25.426C41.3571 25.3563 41.2408 25.1819 41.1769 25.118C41.0839 25.0947 40.8863 25.0773 40.7991 25.0657C40.4154 25.0192 40.0492 24.9494 39.6714 24.8564L39.311 24.7634L39.1948 24.403C38.9332 23.566 38.6716 22.7348 38.4101 21.8978C38.2764 21.921 38.1427 21.9501 38.0264 21.9733ZM41.5722 28.0534C41.485 28.2743 41.392 28.4951 41.2931 28.6521C42.2348 29.4717 43.1823 30.2796 44.1297 31.0934C44.1762 31.0178 44.3448 30.8144 44.5308 30.6051L44.4669 30.547C43.5252 29.7332 42.5777 28.9195 41.6303 28.1057L41.5722 28.0534ZM45.6294 30.1924C45.9956 30.3377 46.3618 30.4772 46.728 30.6168C46.7803 30.7737 46.7047 30.5819 46.8152 30.8434C46.8559 30.9539 46.8617 30.9597 46.914 31.0701C47.1291 31.5758 47.3441 32.0757 47.5592 32.5756C48.5241 32.5814 49.489 32.5756 50.4539 32.5756C50.4772 32.4477 50.483 32.3199 50.4713 32.192C49.7622 32.192 49.0472 32.192 48.3381 32.192H47.8963L47.722 31.7851C47.5069 31.2852 47.2918 30.7795 47.0709 30.2796C47.0419 30.2099 47.0128 30.1401 46.9837 30.082C46.6757 29.9599 46.3676 29.8379 46.0595 29.7158C45.9142 29.8611 45.7515 30.0471 45.6294 30.1924ZM51.8083 30.2506C52.2791 30.5296 52.994 31.0527 53.1859 31.2155L53.5288 30.6691C53.2905 30.4714 52.5697 29.9367 52.1919 29.7332C52.1105 29.7914 52.0233 29.8611 51.942 29.9076L51.9303 29.9134C51.8896 29.9367 51.8315 29.9599 51.7676 29.9832L51.8083 30.2506ZM54.6681 25.5365C54.7785 25.519 54.8832 25.4958 54.9762 25.4725L54.9064 25.2517L54.7437 25.2749C54.7262 25.2749 54.703 25.2807 54.6855 25.2807C54.6855 25.2865 54.6855 25.2924 54.6855 25.2982C54.6797 25.3854 54.6797 25.4609 54.6681 25.5365ZM42.4847 15.0039L42.2057 14.9923C42.229 15.1725 42.2639 15.3701 42.3046 15.5852L42.5661 15.4515C42.5661 15.4515 42.5661 15.4457 42.5661 15.4399L42.5603 15.4283V15.4166C42.5371 15.2771 42.508 15.1434 42.4847 15.0039ZM38.5728 18.0905L38.2415 18.6485C38.6949 19.0321 39.1076 19.4971 39.4505 19.8575C39.5552 19.968 39.6307 20.0377 39.683 20.09L39.7819 20.0726C39.7877 20.0726 39.7935 20.0726 39.7935 20.0726C39.7993 20.0551 39.7993 20.0435 39.7993 20.0319C39.8109 19.7994 39.84 19.6018 39.869 19.3867C39.8225 19.346 39.7819 19.3053 39.7412 19.2588C39.3692 18.8636 39.003 18.4567 38.5903 18.1021L38.5728 18.0905Z" fill="#50AA75"/>
<path d="M88.614 23.13C88.7012 18.2823 90.6078 12.022 97.5365 12.2313C104.465 12.4464 108.121 11.9 112.696 9.04015C117.276 6.18613 122.269 5.63974 123.74 8.07525C125.211 10.5108 124.455 12.6556 131.802 10.8072C139.149 8.95877 141.922 17.8173 136.167 20.1307C130.419 22.4383 122.525 23.9496 118.073 18.073C113.62 12.1906 112.864 19.6657 107.488 19.625C102.117 19.5843 98.8385 16.9396 95.2695 18.7008C91.7006 20.462 91.7645 23.4032 91.7238 25.0599" stroke="#D7F0F7" stroke-width="0.5" stroke-linecap="round" stroke-linejoin="round"/>
<path d="M52.7732 36.1853C52.7732 36.1853 53.2789 35.3134 54.3077 35.0286C55.3365 34.7437 55.726 34.8949 55.726 34.8949" stroke="white" stroke-width="0.5" stroke-linecap="round" stroke-linejoin="round"/>
<path d="M54.639 36.1562C54.639 36.1562 55.4063 35.7145 56.5398 35.8656C57.6732 36.0109 58.7951 36.0865 58.7951 36.0865" stroke="white" stroke-width="0.5" stroke-linecap="round" stroke-linejoin="round"/>
<path d="M52.3372 38.1267C52.128 38.336 51.9826 38.9812 51.9245 39.3881" stroke="white" stroke-width="0.5" stroke-linecap="round" stroke-linejoin="round"/>
<path d="M51.07 38.6731C50.8259 39.2718 50.791 39.6787 50.884 40.3181" stroke="white" stroke-width="0.5" stroke-linecap="round" stroke-linejoin="round"/>
<path d="M127.902 75.0546C126.245 77.5889 123.333 78.1353 119.834 77.8098" stroke="black" stroke-width="0.5" stroke-linecap="round" stroke-linejoin="round"/>
</svg>
