<svg id="logo-colored" xmlns="http://www.w3.org/2000/svg" width="622.156" height="156.5" viewBox="0 0 622.156 156.5">
  <defs>
    <style>
      .cls-1 {
        fill: #1ab0e1;
      }

      .cls-1, .cls-2 {
        fill-rule: evenodd;
      }

      .cls-2 {
        fill: #383939;
      }
    </style>
  </defs>
  <path id="Ellipse_1_copy_8" data-name="Ellipse 1 copy 8" class="cls-1" d="M224.036,203.949v0.128h0a67.181,67.181,0,0,1-66.723,66.412V270.5h-1.751v-0.015a67.172,67.172,0,0,1-66.53-66.057H89.006V114h31.525v20.5h20.14V114H172.2v20.5h20.316V114h31.524v31.546h0v57.83h0V203.9h0C224.038,203.918,224.037,203.933,224.036,203.949Zm-11.263,8.44a56.569,56.569,0,0,0-50.468,46.962A56.606,56.606,0,0,0,212.773,212.389ZM149.85,259.283a56.586,56.586,0,0,0-49.568-46.816A56.62,56.62,0,0,0,149.85,259.283Zm63.677-134.768H203.02V145.02H161.688V124.515H151.18V145.02H110.023V124.515H99.514v77.319a66.663,66.663,0,0,1,19.9,4.683,84.1,84.1,0,0,1,36.5-37.482v13.146a72.682,72.682,0,0,0-26.332,29.455,67.435,67.435,0,0,1,26.5,30.725,67.437,67.437,0,0,1,26.208-30.555,72.657,72.657,0,0,0-26.375-29.633V169.024a84.051,84.051,0,0,1,36.49,37.6,66.777,66.777,0,0,1,21.129-4.854V124.515Z" transform="translate(-89 -114)"/>
  <path id="Studygate" class="cls-2" d="M261.319,221.747a49.464,49.464,0,0,0,9.142.815,42.743,42.743,0,0,0,8.9-.9,21.816,21.816,0,0,0,7.391-2.955,15.045,15.045,0,0,0,5.029-5.379,18.965,18.965,0,0,0,.794-14.425,14.577,14.577,0,0,0-3.054-4.748,22.41,22.41,0,0,0-4.785-3.728,51.309,51.309,0,0,0-6.292-3.118q-2.565-1.059-4.6-2.057a23.315,23.315,0,0,1-3.462-2.038,8.892,8.892,0,0,1-2.2-2.2,4.635,4.635,0,0,1-.773-2.629,4.392,4.392,0,0,1,.692-2.424,5.98,5.98,0,0,1,1.955-1.855,10.488,10.488,0,0,1,3.094-1.2,17.951,17.951,0,0,1,4.073-.428,25.8,25.8,0,0,1,3.441.245,27.1,27.1,0,0,1,3.644.754,25.5,25.5,0,0,1,3.563,1.283,19.767,19.767,0,0,1,3.2,1.793V164.371a31.838,31.838,0,0,0-6.495-1.691,52.846,52.846,0,0,0-8.083-.55,37.564,37.564,0,0,0-8.8,1,22.365,22.365,0,0,0-7.31,3.118,15.572,15.572,0,0,0-4.988,5.4,15.842,15.842,0,0,0-1.833,7.844,15.215,15.215,0,0,0,3.36,9.943q3.36,4.118,10.2,6.969,2.686,1.1,5.008,2.159a28,28,0,0,1,4.012,2.2,10.534,10.534,0,0,1,2.667,2.486,5.069,5.069,0,0,1,.977,3.056,4.669,4.669,0,0,1-.611,2.343,5.42,5.42,0,0,1-1.853,1.875,10.149,10.149,0,0,1-3.094,1.242,18.537,18.537,0,0,1-4.337.449,24.713,24.713,0,0,1-8.389-1.488,25,25,0,0,1-7.7-4.462V219.3A27.557,27.557,0,0,0,261.319,221.747Zm82.93-58.639H297.826v10.717H314.4v47.718h13.194V173.825h16.655V163.108Zm55.463,0H386.559V197.5q0,13.692-10.873,13.692-11.077,0-11.076-14.181v-33.9H351.416v33.741q0,25.713,23.781,25.713,24.515,0,24.515-26.324v-33.13ZM433.1,221.543q14.13,0,22.621-8.15t8.49-21.8q0-28.484-31.111-28.484H412.417v58.435H433.1ZM432,173.825q8.715,0,13.54,4.788t4.826,13.142q0,8.844-4.866,13.977t-13.418,5.135H425.57V173.825H432Zm72-10.717-9.57,21.964a21.177,21.177,0,0,0-1.262,4.6h-0.163q-1.1-4.156-1.344-4.768l-9.407-21.8H467.229l18.528,37.9v20.538H498.91V200.761l19.017-37.653H504Zm65.154,27.954H549.528v6.194h12.786v16.382a24.4,24.4,0,0,1-11.85,2.73q-9.978,0-15.8-6.336t-5.823-17.421q0-10.758,6.271-17.523a20.954,20.954,0,0,1,16.085-6.764,30.724,30.724,0,0,1,16.778,4.482v-7.579q-6.476-3.1-16-3.1-13.154,0-21.725,8.7t-8.572,22.27q0,13.285,7.717,21.353t20.218,8.068a39.017,39.017,0,0,0,19.546-4.971V191.062Zm36.284-27.954h-7.086l-22.4,58.435h7.615l5.823-16.381h24.759l6.19,16.381h7.574Zm-13.764,35.9,9.081-24.9a21.848,21.848,0,0,0,.936-3.912h0.163a23.852,23.852,0,0,0,.9,3.912l9.162,24.9H591.675Zm79.366-35.9H630.523V169.3h16.818v52.241h6.842V169.3h16.858v-6.194Zm40.111,52.241H687.045V194.893h21.094V188.74H687.045V169.3h22.8v-6.194H680.2v58.435h30.948v-6.194Z" transform="translate(-89 -114)"/>
</svg>
