<svg width="125" height="110" viewBox="0 0 125 110" fill="none" xmlns="http://www.w3.org/2000/svg">
<path fill-rule="evenodd" clip-rule="evenodd" d="M12.7808 72.3365C12.7808 72.3365 0.940394 91.2277 2.62025 100.888C4.30011 110.549 17.739 110.88 30.4222 108.195C43.0996 105.509 70.4773 92.8262 70.4773 92.8262C72.6861 91.9252 78.4581 86.6938 74.0928 78.6316C69.7216 70.5695 44.8667 69.4767 44.8667 69.4767L12.7808 72.3365Z" fill="black" stroke="black" stroke-width="0.2" stroke-linecap="round" stroke-linejoin="round"/>
<path d="M18.8667 92.2275L48.1741 88.9142" stroke="white" stroke-width="0.5" stroke-linecap="round" stroke-linejoin="round"/>
<path fill-rule="evenodd" clip-rule="evenodd" d="M54.144 89.0654C54.144 89.0654 55.1961 90.472 55.3182 93.1168C55.4461 95.7673 55.0218 99.5804 55.0218 99.5804C55.0218 99.5804 62.9851 100.615 69.2395 102.882C75.4998 105.149 79.1908 101.749 76.3775 97.174C73.5641 92.5936 67.176 89.5013 64.1593 88.6062C61.1425 87.711 59.6661 87.2634 59.6661 87.2634L54.144 89.0654Z" fill="white" stroke="black" stroke-width="0.5" stroke-linecap="round" stroke-linejoin="round"/>
<path fill-rule="evenodd" clip-rule="evenodd" d="M19.4072 84.5024L36.5662 93.9422L66.205 86.4264L74.0404 70.5462L76.2725 65.7682L74.8135 64.4778L72.4129 64.9893C66.5654 66.1867 46.8256 70.4474 46.8256 70.4474L45.5991 70.7613C45.1108 71.9761 44.5179 73.0573 43.9076 74.121L42.0069 78.3526L41.5883 78.463L19.4072 84.5024Z" fill="#ED712E"/>
<path d="M37.1362 92.7215L46.9654 71.8773L75.0987 65.9891" stroke="white" stroke-width="0.5" stroke-linecap="round" stroke-linejoin="round"/>
<path fill-rule="evenodd" clip-rule="evenodd" d="M26.1968 81.474C27.0629 82.3052 29.1147 84.3048 30.0738 85.4498C31.3061 86.9263 31.7014 87.6587 32.5326 87.7052C33.358 87.7517 33.5149 87.5482 33.6777 87.4436C33.6777 87.4436 34.2299 88.019 34.9506 87.926C35.6714 87.8272 35.8574 87.4552 35.8574 87.4552C35.8574 87.4552 36.3166 87.5831 36.7526 87.4262C37.1885 87.2692 37.2059 86.9088 37.2059 86.9088C37.2059 86.9088 38.0546 86.6996 38.3104 85.8102C38.5661 84.9267 38.2406 83.6654 38.2406 83.6654C38.2406 83.6654 39.0311 82.5668 38.415 81.1078C37.857 79.7883 35.5668 76.2775 33.4161 74.6616L26.1968 81.474Z" fill="white"/>
<path d="M30.248 82.718C31.0618 83.6538 33.2939 86.3625 33.6775 87.4436" stroke="black" stroke-width="0.5" stroke-linecap="round" stroke-linejoin="round"/>
<path d="M32.2769 81.7414C32.2769 81.7414 33.0906 82.5203 34.2299 84.1595C35.375 85.7986 35.5668 86.7926 35.8168 87.5192" stroke="black" stroke-width="0.5" stroke-linecap="round" stroke-linejoin="round"/>
<path d="M34.125 80.5905C35.5433 82.0843 36.8802 84.8744 37.2057 86.9088" stroke="black" stroke-width="0.5" stroke-linecap="round" stroke-linejoin="round"/>
<path d="M35.6133 79.4977C36.5666 80.5091 37.6535 82.404 38.2406 83.6654" stroke="black" stroke-width="0.5" stroke-linecap="round" stroke-linejoin="round"/>
<path d="M26.1968 81.474C27.0629 82.3052 29.1147 84.3048 30.0738 85.4498C31.3061 86.9263 31.7014 87.6587 32.5326 87.7052C33.358 87.7517 33.5149 87.5482 33.6777 87.4436C33.6777 87.4436 34.2299 88.019 34.9506 87.926C35.6714 87.8272 35.8574 87.4552 35.8574 87.4552C35.8574 87.4552 36.3166 87.5831 36.7526 87.4262C37.1885 87.2692 37.2059 86.9088 37.2059 86.9088C37.2059 86.9088 38.0546 86.6996 38.3104 85.8102C38.5661 84.9267 38.2406 83.6654 38.2406 83.6654C38.2406 83.6654 39.0311 82.5668 38.415 81.1078C37.857 79.7883 35.5668 76.2775 33.4161 74.6616" stroke="black" stroke-width="0.5" stroke-linecap="round" stroke-linejoin="round"/>
<path fill-rule="evenodd" clip-rule="evenodd" d="M17.0883 31.4735C17.0883 31.4735 22.1976 26.9629 32.7767 25.5795C43.3557 24.196 53.8767 26.4455 57.9048 36.5189C61.933 46.598 61.0146 59.2871 60.5438 67.5004L49.3718 69.8952L48.4186 54.4742C48.4186 54.4742 46.7852 67.1807 46.7271 68.8605C46.6631 70.5462 44.3788 71.7436 41.734 72.7666C39.0892 73.7897 34.3112 73.8187 34.3112 73.8187L26.0747 81.5903C26.0747 81.5903 5.33511 74.1791 3.11468 64.7452C0.888426 55.3054 10.5374 35.4377 17.0883 31.4735Z" fill="#D7F0F7"/>
<path d="M20.6513 47.2781L16.0825 60.9844C16.0825 60.9844 24.5574 66.7273 27.5044 68.8024C30.4456 70.8776 34.311 73.8188 34.311 73.8188" stroke="black" stroke-width="0.5" stroke-linecap="round" stroke-linejoin="round"/>
<path d="M50.9179 39.0474L49.2148 48.708L47.8081 58.9441" stroke="black" stroke-width="0.5" stroke-linecap="round" stroke-linejoin="round"/>
<path d="M26.8652 26.7827C28.859 34.7925 41.5538 36.8618 40.6412 25.0156" stroke="#6CA3B7" stroke-width="0.5" stroke-linecap="round" stroke-linejoin="round"/>
<path fill-rule="evenodd" clip-rule="evenodd" d="M39.4609 5.24676C47.3022 5.78734 47.2441 8.86805 47.029 12.9253C46.8139 16.9767 45.7618 21.5455 43.5705 24.7076C41.9604 27.0384 39.7167 27.3 38.6471 27.2768C38.9552 28.8404 38.4844 31.7234 34.3051 31.4793C30.1316 31.2352 28.6552 26.3235 28.6552 26.3235C28.6552 26.3235 29.2539 26.1898 29.6143 26.0852C29.777 24.4867 30.2769 19.482 30.2537 19.4238C30.2246 19.3541 28.0972 18.6798 28.0972 16.3024C28.0972 13.9251 29.963 14.2215 29.963 14.2215C30.7245 8.72273 32.4218 4.76431 39.4609 5.24676Z" fill="white"/>
<path fill-rule="evenodd" clip-rule="evenodd" d="M47.0585 10.3154C45.646 10.3968 43.9545 10.3328 42.2107 10.1933C42.3211 10.4723 42.3851 10.8443 42.1816 11.2105C41.7747 11.9255 38.787 10.5479 38.787 10.5479C38.787 10.5479 38.5022 11.6581 37.0025 11.4547C35.84 11.2977 34.9739 10.6932 34.6484 10.4317L34.5845 10.4433C34.5845 10.4433 33.0848 15.4712 32.9918 16.0816C32.893 16.6861 31.7595 14.6051 29.9634 14.2215C29.9634 14.2215 28.0976 13.9251 28.0976 16.3024C28.0976 18.6798 30.225 19.3541 30.254 19.4238C30.2599 19.4529 30.161 20.5573 30.0274 21.8942C30.0274 21.8942 28.8939 21.313 27.6209 18.6624C26.3538 16.0118 25.4063 9.37374 28.3824 6.07796C31.3526 2.78218 37.3804 2.40436 38.9789 1.94516C40.5715 1.48596 47.7734 -0.432219 48.8429 0.689625C49.9125 1.80566 47.9362 3.31114 47.9362 3.31114C47.9362 3.31114 50.1915 3.2937 50.6274 4.24116C51.0576 5.18863 48.7906 5.99659 48.7616 6.29303C48.7325 6.59529 50.2903 7.39163 50.4356 8.79829C50.5867 10.1991 47.0643 10.3154 47.0585 10.3154Z" fill="black" stroke="black" stroke-width="0.5" stroke-linecap="round" stroke-linejoin="round"/>
<path d="M29.2368 15.3085C29.2368 15.3085 30.0738 15.7793 30.6435 16.5524C31.2073 17.3255 31.4282 18.3659 31.4282 18.3659" stroke="black" stroke-width="0.5" stroke-linecap="round" stroke-linejoin="round"/>
<path d="M29.626 17.6451L30.6432 16.5524" stroke="black" stroke-width="0.5" stroke-linecap="round" stroke-linejoin="round"/>
<path d="M32.3521 22.0919C33.4971 25.0331 35.4851 27.1721 38.6472 27.2768" stroke="black" stroke-width="0.5" stroke-linecap="round" stroke-linejoin="round"/>
<path d="M23.2729 80.4801C23.2729 80.4801 26.034 77.1727 28.4985 75.0685C30.9631 72.9643 32.1779 72.2145 32.1779 72.2145" stroke="#6CA3B7" stroke-width="0.5" stroke-linecap="round" stroke-linejoin="round"/>
<path d="M33.2708 74.8011L31.1201 72.9585" stroke="#6CA3B7" stroke-width="0.5" stroke-linecap="round" stroke-linejoin="round"/>
<path d="M27.057 80.6661L24.4878 79.0908" stroke="#6CA3B7" stroke-width="0.5" stroke-linecap="round" stroke-linejoin="round"/>
<path d="M28.2018 79.5791L25.7314 77.7365" stroke="#6CA3B7" stroke-width="0.5" stroke-linecap="round" stroke-linejoin="round"/>
<path d="M29.5156 78.3468L26.958 76.4926" stroke="#6CA3B7" stroke-width="0.5" stroke-linecap="round" stroke-linejoin="round"/>
<path d="M30.7827 77.1494L28.4111 75.144" stroke="#6CA3B7" stroke-width="0.5" stroke-linecap="round" stroke-linejoin="round"/>
<path d="M32.0732 75.9287L29.8179 73.9757" stroke="#6CA3B7" stroke-width="0.5" stroke-linecap="round" stroke-linejoin="round"/>
<path d="M47.0174 9.87366C47.1336 10.7979 47.0871 11.8267 47.029 12.9253C46.8139 16.9767 45.7618 21.5455 43.5705 24.7076C41.9604 27.0384 39.7167 27.3 38.6471 27.2768M29.6143 26.0852C29.777 24.4867 30.2769 19.482 30.2537 19.4239C30.2246 19.3541 28.0972 18.6798 28.0972 16.3025C28.0972 13.9251 29.963 14.2215 29.963 14.2215L29.6143 26.0852Z" stroke="black" stroke-width="0.5" stroke-linecap="round" stroke-linejoin="round"/>
<path d="M41.5769 79.2129L36.1362 91.1463" stroke="black" stroke-width="0.5" stroke-linecap="round" stroke-linejoin="round"/>
<path d="M9.25244 62.7863C12.3564 61.3913 13.9084 61.0483 16.0823 60.9844" stroke="black" stroke-width="0.5" stroke-linecap="round" stroke-linejoin="round"/>
<path d="M47.0584 6.49067C45.582 5.92103 43.4197 5.43858 40.6587 5.5374" stroke="white" stroke-width="0.5" stroke-linecap="round" stroke-linejoin="round"/>
<path d="M46.0237 3.05537C44.4543 3.04374 43.4603 3.05537 41.6177 3.3925" stroke="white" stroke-width="0.5" stroke-linecap="round" stroke-linejoin="round"/>
<path d="M42.2626 8.27518C41.3849 7.92642 40.2689 7.61254 38.9146 7.44397" stroke="white" stroke-width="0.5" stroke-linecap="round" stroke-linejoin="round"/>
<path d="M31.1841 13.524C31.2248 12.8265 31.312 12.0301 31.4747 11.2454C31.5503 10.8676 31.6433 10.4956 31.7537 10.1294" stroke="white" stroke-width="0.5" stroke-linecap="round" stroke-linejoin="round"/>
<path d="M29.9282 12.1987C30.0096 11.1641 30.1956 9.93177 30.5618 8.81573" stroke="white" stroke-width="0.5" stroke-linecap="round" stroke-linejoin="round"/>
<path d="M28.5391 13.0125C28.5391 12.437 28.5623 11.786 28.6321 11.1292" stroke="white" stroke-width="0.5" stroke-linecap="round" stroke-linejoin="round"/>
<path fill-rule="evenodd" clip-rule="evenodd" d="M40.9142 51.4168L36.4326 67.8957L49.2844 65.1579L54.1205 48.9348L40.9142 51.4168Z" fill="white" stroke="black" stroke-width="0.5" stroke-linecap="round" stroke-linejoin="round"/>
<path d="M42.2451 54.3928L50.749 52.7304" stroke="black" stroke-width="0.5" stroke-linecap="round" stroke-linejoin="round"/>
<path d="M41.4141 57.3748L49.918 55.7123" stroke="black" stroke-width="0.5" stroke-linecap="round" stroke-linejoin="round"/>
<path d="M40.7979 60.3159L47.8079 58.9442" stroke="black" stroke-width="0.5" stroke-linecap="round" stroke-linejoin="round"/>
<path d="M39.8096 63.1932L44.948 62.1876" stroke="black" stroke-width="0.5" stroke-linecap="round" stroke-linejoin="round"/>
<path fill-rule="evenodd" clip-rule="evenodd" d="M55.1144 39.9658L50.6328 56.4447L63.4788 53.7069L68.3149 37.4838L55.1144 39.9658Z" fill="white" stroke="black" stroke-width="0.5" stroke-linecap="round" stroke-linejoin="round"/>
<path d="M56.4395 42.9477L64.9492 41.2794" stroke="black" stroke-width="0.5" stroke-linecap="round" stroke-linejoin="round"/>
<path d="M55.6143 45.9238L64.1182 44.2614" stroke="black" stroke-width="0.5" stroke-linecap="round" stroke-linejoin="round"/>
<path d="M54.998 48.865L62.0081 47.4932" stroke="black" stroke-width="0.5" stroke-linecap="round" stroke-linejoin="round"/>
<path d="M54.0044 51.748L59.1486 50.7424" stroke="black" stroke-width="0.5" stroke-linecap="round" stroke-linejoin="round"/>
<path fill-rule="evenodd" clip-rule="evenodd" d="M81.3473 34.746L76.8657 51.2249L89.7117 48.4872L94.5479 32.264L81.3473 34.746Z" fill="white" stroke="black" stroke-width="0.5" stroke-linecap="round" stroke-linejoin="round"/>
<path d="M82.6724 37.728L91.1821 36.0656" stroke="black" stroke-width="0.5" stroke-linecap="round" stroke-linejoin="round"/>
<path d="M81.8472 40.7099L90.3511 39.0416" stroke="black" stroke-width="0.5" stroke-linecap="round" stroke-linejoin="round"/>
<path d="M81.231 43.6452L88.241 42.2734" stroke="black" stroke-width="0.5" stroke-linecap="round" stroke-linejoin="round"/>
<path d="M80.2373 46.5283L85.3815 45.5227" stroke="black" stroke-width="0.5" stroke-linecap="round" stroke-linejoin="round"/>
<path d="M41.7399 16.9767C41.7805 18.7089 41.8619 19.8946 42.1584 21.5977C41.6062 21.7721 40.7924 21.8709 40.2344 21.7314" stroke="black" stroke-width="0.5" stroke-linecap="round" stroke-linejoin="round"/>
<path d="M38.0141 18.3046C38.3913 18.338 38.7287 18.0083 38.7677 17.5682C38.8066 17.1281 38.5324 16.7442 38.1552 16.7109C37.778 16.6775 37.4406 17.0072 37.4016 17.4473C37.3627 17.8873 37.6369 18.2712 38.0141 18.3046Z" fill="black"/>
<path d="M37.1943 15.1399C37.7465 15.1225 38.8044 15.0643 39.6647 15.2387" stroke="black" stroke-width="0.5" stroke-linecap="round" stroke-linejoin="round"/>
<path d="M43.5474 14.7214C43.9426 14.5296 44.8843 14.3436 45.5934 14.3842" stroke="black" stroke-width="0.5" stroke-linecap="round" stroke-linejoin="round"/>
<path d="M44.2812 17.6995C44.6584 17.7329 44.9958 17.4032 45.0348 16.9631C45.0737 16.523 44.7995 16.1391 44.4223 16.1057C44.0451 16.0724 43.7077 16.4021 43.6687 16.8421C43.6298 17.2822 43.904 17.6661 44.2812 17.6995Z" fill="black"/>
<path fill-rule="evenodd" clip-rule="evenodd" d="M37.9731 23.7485L41.577 23.33C41.577 23.33 41.3096 24.4925 39.8855 24.6262C38.4556 24.7541 37.9731 23.7485 37.9731 23.7485Z" stroke="black" stroke-width="0.5" stroke-linecap="round" stroke-linejoin="round"/>
<path fill-rule="evenodd" clip-rule="evenodd" d="M104.057 32.3687L102.232 48.8534C102.232 48.8534 103.453 50.6553 106.347 50.8878C109.248 51.1203 110.317 50.1089 110.317 50.1089L115.357 35.0774C115.357 35.0774 108.405 35.9376 104.057 32.3687Z" fill="white" stroke="black" stroke-width="0.5" stroke-linecap="round" stroke-linejoin="round"/>
<path fill-rule="evenodd" clip-rule="evenodd" d="M102.778 37.4315L102.104 43.5581C102.104 43.5581 103.662 45.1333 107.208 45.7843C110.759 46.4353 112.497 45.7436 112.497 45.7436L114.392 39.8438C114.392 39.8438 107.736 40.4715 102.778 37.4315Z" fill="#ED712E"/>
<path fill-rule="evenodd" clip-rule="evenodd" d="M108.132 30.0494L106.586 29.7588L104.743 31.0085C104.743 31.0085 104.109 31.5898 104.993 32.8104C105.876 34.0253 112.067 35.1239 112.067 35.1239L115.072 34.8914L115.915 33.4615L114.508 31.3515L108.132 30.0494Z" fill="white" stroke="black" stroke-width="0.5" stroke-linecap="round" stroke-linejoin="round"/>
<path fill-rule="evenodd" clip-rule="evenodd" d="M104.743 31.0085C104.743 31.0085 103.15 30.7876 103.336 32.3396C103.528 33.8916 107.388 35.3913 111.294 35.7923C115.2 36.1934 116.467 35.4552 116.554 34.6356C116.636 33.8219 115.915 33.4615 115.915 33.4615C114.677 35.3971 104.313 33.7114 104.743 31.0085Z" fill="white" stroke="black" stroke-width="0.5" stroke-linecap="round" stroke-linejoin="round"/>
<path fill-rule="evenodd" clip-rule="evenodd" d="M110.707 29.7588C112.893 30.2005 114.596 30.9097 114.508 31.3514C114.421 31.7874 113.166 32.2698 110.323 31.6304C107.487 30.9911 106.499 30.1947 106.586 29.7588C106.673 29.317 108.516 29.3228 110.707 29.7588Z" fill="white" stroke="black" stroke-width="0.5" stroke-linecap="round" stroke-linejoin="round"/>
<path d="M73.7968 25.7894C77.5563 28.0745 83.5683 26.1549 87.2251 21.5019C90.8819 16.8488 90.7986 11.2243 87.0391 8.93916C83.2796 6.65403 77.2675 8.57363 73.6108 13.2267C69.954 17.8798 70.0373 23.5043 73.7968 25.7894Z" stroke="#ED712E" stroke-width="0.683392" stroke-linecap="round" stroke-linejoin="round"/>
<path d="M73.4295 24.8367C77.0011 27.0076 82.7127 25.1839 86.1867 20.7634C89.6607 16.3429 89.5815 10.9995 86.0099 8.82855C82.4383 6.65764 76.7267 8.48131 73.2527 12.9018C69.7787 17.3223 69.8579 22.6658 73.4295 24.8367Z" fill="#ED712E"/>
<path d="M85.1892 17.837L78.7197 17.122" stroke="white" stroke-width="0.5" stroke-linecap="round" stroke-linejoin="round"/>
<path fill-rule="evenodd" clip-rule="evenodd" d="M81.1205 10.5595L84.4686 8.78082L84.6604 11.7046L84.4279 11.6988C84.4744 11.0303 84.1954 10.4723 83.742 10.3328L79.6267 16.2792C79.9057 16.5814 79.865 17.1336 79.4988 17.5928C79.0803 18.1276 78.3944 18.3485 77.9642 18.0869C77.5341 17.8253 77.5283 17.1801 77.9468 16.6512C78.2374 16.2733 78.6676 16.0525 79.0454 16.0467L83.0038 10.2514C82.2656 10.2805 81.7192 10.4258 81.26 10.6699L81.1205 10.5595Z" fill="white"/>
<path fill-rule="evenodd" clip-rule="evenodd" d="M73.9534 14.1401L77.348 16.657C77.4235 16.4884 77.5282 16.314 77.6735 16.1513L74.3603 13.5995C74.8776 13.1694 75.5984 13.0648 75.5984 13.0648L75.6391 12.8671L73.5 13.3786L73.5174 15.6398L73.7499 15.5003C73.7499 15.5003 73.5814 15.0527 73.9476 14.1459L73.9534 14.1401Z" fill="white"/>
<path d="M78.4264 17.4986C78.5943 17.6007 78.8629 17.5149 79.0263 17.307C79.1896 17.0992 79.1859 16.8479 79.018 16.7458C78.85 16.6437 78.5814 16.7295 78.4181 16.9374C78.2547 17.1452 78.2584 17.3965 78.4264 17.4986Z" fill="#ED712E"/>
<path fill-rule="evenodd" clip-rule="evenodd" d="M13.525 20.6387C11.1709 21.2723 5.77089 22.3534 2.72505 19.9412C-1.24499 16.7849 0.539493 11.6465 6.62535 9.80387C20.7966 5.50831 23.8657 16.4419 16.3209 19.7377L15.8035 22.9172L13.525 20.6387Z" fill="#D7F0F7"/>
<path d="M7.92123 17.1542C9.11095 17.9033 10.8221 17.3248 11.7431 15.862C12.6642 14.3993 12.4464 12.6062 11.2567 11.857C10.067 11.1079 8.35587 11.6864 7.4348 13.1492C6.51374 14.6119 6.73152 16.405 7.92123 17.1542Z" stroke="black" stroke-width="0.775772" stroke-linecap="round" stroke-linejoin="round"/>
<path d="M13.6239 18.1334L11.4268 16.2908" stroke="black" stroke-width="0.5" stroke-linecap="round" stroke-linejoin="round"/>
<path fill-rule="evenodd" clip-rule="evenodd" d="M104.098 69.4767L79.7021 77.0796L99.2269 87.1123L123.873 80.6079L104.098 69.4767Z" fill="white" stroke="black" stroke-width="0.5" stroke-linecap="round" stroke-linejoin="round"/>
<path fill-rule="evenodd" clip-rule="evenodd" d="M98.8085 91.2742L79.5337 81.2357L79.7023 77.0797L99.227 87.1123L98.8085 91.2742Z" fill="white" stroke="black" stroke-width="0.5" stroke-linecap="round" stroke-linejoin="round"/>
<path fill-rule="evenodd" clip-rule="evenodd" d="M123.873 80.6079L123.245 84.5082L98.8086 91.2741L99.2271 87.1123L123.873 80.6079Z" fill="white" stroke="black" stroke-width="0.5" stroke-linecap="round" stroke-linejoin="round"/>
<path d="M96.96 74.8534L107.12 81.0264" stroke="#ED712E" stroke-width="0.5" stroke-linecap="round" stroke-linejoin="round"/>
<path d="M96.5996 77.0797L102.546 80.6079" stroke="#ED712E" stroke-width="0.5" stroke-linecap="round" stroke-linejoin="round"/>
<path d="M92.7168 78.277L99.3956 82.0146" stroke="black" stroke-width="0.5" stroke-linecap="round" stroke-linejoin="round"/>
<path d="M92.3623 80.1022L95.1756 81.7995" stroke="black" stroke-width="0.5" stroke-linecap="round" stroke-linejoin="round"/>
<path fill-rule="evenodd" clip-rule="evenodd" d="M103.866 71.639L101.134 72.4993L114.951 80.3347L117.868 79.521L103.866 71.639Z" fill="#ED712E"/>
<path d="M81.4634 79.1141L92.7167 85.0953" stroke="#6CA3B7" stroke-width="0.5" stroke-linecap="round" stroke-linejoin="round"/>
<path d="M82.7192 80.8347L88.6423 84.0026" stroke="#6CA3B7" stroke-width="0.5" stroke-linecap="round" stroke-linejoin="round"/>
<path d="M102.436 87.804L112.201 85.3278" stroke="#6CA3B7" stroke-width="0.5" stroke-linecap="round" stroke-linejoin="round"/>
<path d="M108.713 87.2576L114.759 85.6649" stroke="#6CA3B7" stroke-width="0.5" stroke-linecap="round" stroke-linejoin="round"/>
<path fill-rule="evenodd" clip-rule="evenodd" d="M102.04 64.6464L77.6445 72.2493L97.1693 82.2878L121.815 75.7776L102.04 64.6464Z" fill="white" stroke="black" stroke-width="0.5" stroke-linecap="round" stroke-linejoin="round"/>
<path fill-rule="evenodd" clip-rule="evenodd" d="M96.7509 86.4438L77.4761 76.4054L77.6446 72.2493L97.1694 82.2878L96.7509 86.4438Z" fill="white" stroke="black" stroke-width="0.5" stroke-linecap="round" stroke-linejoin="round"/>
<path fill-rule="evenodd" clip-rule="evenodd" d="M121.815 75.7776L121.187 79.6838L96.751 86.4439L97.1695 82.2878L121.815 75.7776Z" fill="white" stroke="black" stroke-width="0.5" stroke-linecap="round" stroke-linejoin="round"/>
<path d="M94.9023 70.0231L105.063 76.1961" stroke="#ED712E" stroke-width="0.5" stroke-linecap="round" stroke-linejoin="round"/>
<path d="M94.542 72.2493L100.488 75.7776" stroke="#ED712E" stroke-width="0.5" stroke-linecap="round" stroke-linejoin="round"/>
<path d="M90.6592 73.4467L97.3379 77.1843" stroke="black" stroke-width="0.5" stroke-linecap="round" stroke-linejoin="round"/>
<path d="M90.3047 75.2719L93.118 76.975" stroke="black" stroke-width="0.5" stroke-linecap="round" stroke-linejoin="round"/>
<path fill-rule="evenodd" clip-rule="evenodd" d="M101.808 66.8087L99.0815 67.6747L112.892 75.5044L115.81 74.6964L101.808 66.8087Z" fill="#ED712E"/>
<path d="M79.4058 74.2838L90.6591 80.265" stroke="#6CA3B7" stroke-width="0.5" stroke-linecap="round" stroke-linejoin="round"/>
<path d="M80.6616 76.0043L86.5847 79.1722" stroke="#6CA3B7" stroke-width="0.5" stroke-linecap="round" stroke-linejoin="round"/>
<path d="M100.378 82.9737L110.143 80.4975" stroke="#6CA3B7" stroke-width="0.5" stroke-linecap="round" stroke-linejoin="round"/>
<path d="M106.656 82.4273L112.701 80.8347" stroke="#6CA3B7" stroke-width="0.5" stroke-linecap="round" stroke-linejoin="round"/>
<path fill-rule="evenodd" clip-rule="evenodd" d="M101.052 60.2404L76.6562 67.8433L96.181 77.8818L120.832 71.3716L101.052 60.2404Z" fill="white" stroke="black" stroke-width="0.5" stroke-linecap="round" stroke-linejoin="round"/>
<path fill-rule="evenodd" clip-rule="evenodd" d="M95.7626 82.0378L76.4878 71.9994L76.6564 67.8433L96.1811 77.8818L95.7626 82.0378Z" fill="white" stroke="black" stroke-width="0.5" stroke-linecap="round" stroke-linejoin="round"/>
<path fill-rule="evenodd" clip-rule="evenodd" d="M120.833 71.3716L120.199 75.2777L95.7627 82.0378L96.1812 77.8818L120.833 71.3716Z" fill="white" stroke="black" stroke-width="0.5" stroke-linecap="round" stroke-linejoin="round"/>
<path d="M93.9141 65.6171L104.075 71.7901" stroke="#ED712E" stroke-width="0.5" stroke-linecap="round" stroke-linejoin="round"/>
<path d="M93.5596 67.8433L99.5001 71.3716" stroke="#ED712E" stroke-width="0.5" stroke-linecap="round" stroke-linejoin="round"/>
<path d="M89.6709 69.0407L96.3497 72.7782" stroke="black" stroke-width="0.5" stroke-linecap="round" stroke-linejoin="round"/>
<path d="M89.3164 70.8659L92.1297 72.569" stroke="black" stroke-width="0.5" stroke-linecap="round" stroke-linejoin="round"/>
<path fill-rule="evenodd" clip-rule="evenodd" d="M100.819 62.4026L98.0933 63.2687L111.91 71.0984L114.828 70.2904L100.819 62.4026Z" fill="#ED712E"/>
<path d="M78.4175 69.8777L89.6708 75.859" stroke="#6CA3B7" stroke-width="0.5" stroke-linecap="round" stroke-linejoin="round"/>
<path d="M79.6787 71.5983L85.596 74.7662" stroke="#6CA3B7" stroke-width="0.5" stroke-linecap="round" stroke-linejoin="round"/>
<path d="M99.3896 78.5677L109.155 76.0915" stroke="#6CA3B7" stroke-width="0.5" stroke-linecap="round" stroke-linejoin="round"/>
<path d="M105.667 78.0212L111.718 76.4286" stroke="#6CA3B7" stroke-width="0.5" stroke-linecap="round" stroke-linejoin="round"/>
<path d="M21.4243 89.7512C23.6913 90.036 25.2084 90.3732 28.1031 91.1811" stroke="white" stroke-width="0.5" stroke-linecap="round" stroke-linejoin="round"/>
<path fill-rule="evenodd" clip-rule="evenodd" d="M59.5612 45.2263L55.0796 61.7052L67.9314 58.9674L72.7675 42.7443L59.5612 45.2263Z" fill="white" stroke="black" stroke-width="0.5" stroke-linecap="round" stroke-linejoin="round"/>
<path d="M60.8921 48.2082L69.396 46.5399" stroke="black" stroke-width="0.5" stroke-linecap="round" stroke-linejoin="round"/>
<path d="M60.061 51.1843L68.5708 49.5219" stroke="black" stroke-width="0.5" stroke-linecap="round" stroke-linejoin="round"/>
<path d="M59.4448 54.1254L66.4549 52.7537" stroke="black" stroke-width="0.5" stroke-linecap="round" stroke-linejoin="round"/>
<path d="M58.4565 57.0085L63.5949 56.0029" stroke="black" stroke-width="0.5" stroke-linecap="round" stroke-linejoin="round"/>
</svg>
